G04 Layer_Color=16711935*
%FSAX24Y24*%
%MOIN*%
G70*
G01*
G75*
%ADD109C,0.0005*%
D109*
X059014Y037331D02*
G03*
X059014Y037331I-000433J000000D01*
G01*
X061055Y038723D02*
G03*
X061055Y038723I-001083J000000D01*
G01*
X061798Y040115D02*
G03*
X061798Y040115I-000433J000000D01*
G01*
X059105Y039906D02*
G03*
X059105Y039906I-000315J000000D01*
G01*
X061471Y037540D02*
G03*
X061471Y037540I-000315J000000D01*
G01*
X059014Y020669D02*
G03*
X059014Y020669I-000433J000000D01*
G01*
X061055Y019277D02*
G03*
X061055Y019277I-001083J000000D01*
G01*
X061798Y017885D02*
G03*
X061798Y017885I-000433J000000D01*
G01*
X061471Y020460D02*
G03*
X061471Y020460I-000315J000000D01*
G01*
X059105Y018094D02*
G03*
X059105Y018094I-000315J000000D01*
G01*
X042352Y020669D02*
G03*
X042352Y020669I-000433J000000D01*
G01*
X041610Y019277D02*
G03*
X041610Y019277I-001083J000000D01*
G01*
X039568Y017885D02*
G03*
X039568Y017885I-000433J000000D01*
G01*
X042025Y018094D02*
G03*
X042025Y018094I-000315J000000D01*
G01*
X039659Y020460D02*
G03*
X039659Y020460I-000315J000000D01*
G01*
X042352Y037331D02*
G03*
X042352Y037331I-000433J000000D01*
G01*
X042025Y039906D02*
G03*
X042025Y039906I-000315J000000D01*
G01*
X039659Y037540D02*
G03*
X039659Y037540I-000315J000000D01*
G01*
X039568Y040115D02*
G03*
X039568Y040115I-000433J000000D01*
G01*
X041610Y038723D02*
G03*
X041610Y038723I-001083J000000D01*
G01*
X044392Y020490D02*
G03*
X043157Y018452I003536J-003536D01*
G01*
X039702Y021907D02*
G03*
X043157Y018452I000825J-002629D01*
G01*
X039702Y021907D02*
G03*
X041740Y023142I-001497J004771D01*
G01*
X043566Y024968D02*
G03*
X044213Y027382I-001768J001768D01*
G01*
Y030618D02*
G03*
X044213Y027382I006037J-001618D01*
G01*
Y030618D02*
G03*
X043566Y033032I-002415J000647D01*
G01*
X041740Y034858D02*
G03*
X039702Y036093I-003536J-003536D01*
G01*
X043157Y039548D02*
G03*
X039702Y036093I-002629J-000825D01*
G01*
X043157Y039548D02*
G03*
X044392Y037510I004771J001497D01*
G01*
X046218Y035684D02*
G03*
X048632Y035037I001768J001768D01*
G01*
X051868D02*
G03*
X048632Y035037I-001618J-006037D01*
G01*
X051868D02*
G03*
X054282Y035684I000647J002415D01*
G01*
X056108Y037510D02*
G03*
X057343Y039548I-003536J003536D01*
G01*
X060798Y036093D02*
G03*
X057343Y039548I-000825J002629D01*
G01*
X060798Y036093D02*
G03*
X058760Y034858I001497J-004771D01*
G01*
X056934Y033032D02*
G03*
X056287Y030618I001768J-001768D01*
G01*
Y027382D02*
G03*
X056287Y030618I-006037J001618D01*
G01*
Y027382D02*
G03*
X056934Y024968I002415J-000647D01*
G01*
X058760Y023142D02*
G03*
X060798Y021907I003536J003536D01*
G01*
X057343Y018452D02*
G03*
X060798Y021907I002629J000825D01*
G01*
X057343Y018452D02*
G03*
X056108Y020490I-004771J-001497D01*
G01*
X054282Y022316D02*
G03*
X051868Y022963I-001768J-001768D01*
G01*
X048632D02*
G03*
X051868Y022963I001618J006037D01*
G01*
X048632D02*
G03*
X046218Y022316I-000647J-002415D01*
G01*
X041740Y023142D02*
X043566Y024968D01*
X041740Y034858D02*
X043566Y033032D01*
X044392Y037510D02*
X046218Y035684D01*
X054282D02*
X056108Y037510D01*
X056934Y033032D02*
X058760Y034858D01*
X056934Y024968D02*
X058760Y023142D01*
X054282Y022316D02*
X056108Y020490D01*
X044392D02*
X046218Y022316D01*
X044392Y020490D02*
X046218Y022316D01*
X054282D02*
X056108Y020490D01*
X056934Y024968D02*
X058760Y023142D01*
X056934Y033032D02*
X058760Y034858D01*
X054282Y035684D02*
X056108Y037510D01*
X044392D02*
X046218Y035684D01*
X041740Y034858D02*
X043566Y033032D01*
X041740Y023142D02*
X043566Y024968D01*
M02*
