G04 Layer_Color=65535*
%FSAX24Y24*%
%MOIN*%
G70*
G01*
G75*
%ADD33C,0.0100*%
%ADD56C,0.0098*%
%ADD57C,0.0157*%
%ADD58C,0.0120*%
%ADD59C,0.0080*%
%ADD60C,0.0079*%
%ADD61C,0.0050*%
D33*
X047330Y026582D02*
X047761Y026150D01*
X046304Y025556D02*
X046736Y025125D01*
X044240Y029778D02*
X044522Y029495D01*
X044664Y029636D01*
Y029731D01*
X044617Y029778D01*
X044522D01*
X044381Y029636D01*
X044522Y029778D01*
Y029872D01*
X044475Y029919D01*
X044381D01*
X044240Y029778D01*
X044805D02*
X044617Y029966D01*
X044617Y030155D01*
X044805D01*
X044994Y029966D01*
X044852Y030108D01*
X044664Y029919D01*
X044805Y030343D02*
X044994Y030532D01*
X044899Y030437D01*
X045182Y030155D01*
X045088Y030626D02*
X045276Y030814D01*
X045182Y030720D01*
X045465Y030437D01*
X054693Y028116D02*
X054599D01*
X054504Y028022D01*
Y027927D01*
X054693Y027739D01*
X054787D01*
X054882Y027833D01*
Y027927D01*
X054740Y028257D02*
X055023Y027975D01*
X054882Y028116D01*
X055070Y028304D01*
X054929Y028446D01*
X055211Y028163D01*
X055306Y028257D02*
X055023Y028540D01*
X055164Y028681D01*
X055258D01*
X055353Y028587D01*
Y028493D01*
X055211Y028352D01*
X055306Y028446D02*
X055494D01*
X055541Y028964D02*
X055447D01*
X055353Y028870D01*
Y028776D01*
X055541Y028587D01*
X055636D01*
X055730Y028681D01*
Y028776D01*
X055636Y028870D01*
X055541Y028776D01*
X052654Y032394D02*
X052371Y032111D01*
X052513Y031970D01*
X052607D01*
X052654Y032017D01*
Y032111D01*
X052513Y032253D01*
X052654Y032111D01*
X052748D01*
X052795Y032158D01*
Y032253D01*
X052654Y032394D01*
X053078Y031970D02*
X052984Y032064D01*
X052890D01*
X052701Y031876D01*
Y031781D01*
X052795Y031687D01*
X052890D01*
X053078Y031876D01*
Y031970D01*
X053361Y031687D02*
X053267Y031781D01*
X053172D01*
X052984Y031593D01*
Y031499D01*
X053078Y031404D01*
X053172D01*
X053361Y031593D01*
Y031687D01*
X053502Y031546D02*
X053691Y031357D01*
X053597Y031452D01*
X053314Y031169D01*
X052088Y025818D02*
X051806Y026101D01*
X051947Y026242D01*
X052041D01*
X052136Y026148D01*
Y026054D01*
X051994Y025912D01*
X052088Y026007D02*
X052277D01*
Y026572D02*
X052088Y026384D01*
X052371Y026101D01*
X052560Y026289D01*
X052230Y026242D02*
X052324Y026336D01*
X052607Y026808D02*
X052513D01*
X052418Y026713D01*
Y026619D01*
X052465Y026572D01*
X052560D01*
X052654Y026666D01*
X052748D01*
X052795Y026619D01*
Y026525D01*
X052701Y026431D01*
X052607D01*
X052842Y027138D02*
X052654Y026949D01*
X052937Y026666D01*
X053125Y026855D01*
X052795Y026808D02*
X052890Y026902D01*
X052937Y027232D02*
X053125Y027420D01*
X053031Y027326D01*
X053314Y027043D01*
D56*
X049108Y031784D02*
G03*
X049108Y031784I-000049J000000D01*
G01*
D57*
X048344Y031548D02*
G03*
X048344Y031548I-000079J000000D01*
G01*
D58*
X050077Y030414D02*
G03*
X050077Y030414I-000039J000000D01*
G01*
D59*
X046622Y029798D02*
X046789Y029965D01*
X046622Y029798D02*
X046848Y029572D01*
X047238Y030414D02*
X047407Y030584D01*
X047633Y030358D01*
X054369Y030785D02*
X055626Y029528D01*
X054374Y028553D02*
X054513Y028414D01*
X054935Y029115D02*
X055074Y028975D01*
X054374Y028553D02*
X054935Y029115D01*
X053970Y027871D02*
X054513Y028414D01*
X055070Y028971D02*
X055626Y029528D01*
X052712Y029129D02*
X054369Y030785D01*
X052712Y029129D02*
X053970Y027871D01*
X045782Y030401D02*
X047039Y029143D01*
X045787Y028169D02*
X045926Y028030D01*
X046348Y028730D02*
X046487Y028591D01*
X045787Y028169D02*
X046348Y028730D01*
X045383Y027487D02*
X045926Y028030D01*
X046483Y028587D02*
X047039Y029143D01*
X044125Y028744D02*
X045782Y030401D01*
X044125Y028744D02*
X045383Y027487D01*
X047240Y032566D02*
X047630Y032956D01*
X047069Y033517D02*
X047630Y032956D01*
X046679Y033128D02*
X047069Y033517D01*
X046290Y031616D02*
X046679Y032005D01*
X045729Y032178D02*
X046290Y031616D01*
X045729Y032178D02*
X046118Y032566D01*
X046594Y032486D02*
X046792Y032288D01*
X046399Y032681D02*
X046594Y032486D01*
X046932Y032485D01*
X046596Y032821D02*
X046932Y032485D01*
X046594Y032486D02*
X046596Y032821D01*
X053135Y025945D02*
X053136Y026281D01*
X053473Y025944D01*
X053135Y025945D02*
X053473Y025944D01*
X052940Y026140D02*
X053135Y025945D01*
X053333Y025747D01*
X052270Y025637D02*
X052659Y026026D01*
X052270Y025637D02*
X052831Y025076D01*
X053220Y025464D01*
Y026587D02*
X053610Y026977D01*
X054171Y026415D01*
X053781Y026026D02*
X054171Y026415D01*
X049309Y032678D02*
Y033228D01*
X051045D01*
Y032678D02*
Y033228D01*
X048839Y034379D02*
X051518D01*
X048839Y032678D02*
Y033308D01*
Y032678D02*
X049309D01*
X051045D02*
X051518D01*
X051518Y033308D01*
X044657Y022021D02*
X044728Y022092D01*
X044643Y022035D02*
X044657Y022021D01*
X044643Y022035D02*
X044650Y022042D01*
X043271Y023421D02*
X044650Y022042D01*
X043271Y023421D02*
X043334Y023485D01*
X046043Y023396D02*
X046119Y023472D01*
X046105Y023486D02*
X046119Y023472D01*
X046105Y023486D02*
X046106Y023487D01*
X044721Y024871D02*
X046106Y023487D01*
X044658Y024808D02*
X044721Y024871D01*
X045180Y022516D02*
X045654Y022990D01*
X043752Y023916D02*
X043992Y024156D01*
X044233Y024397D01*
X043992Y024156D02*
X045406D01*
X055129Y022707D02*
Y024121D01*
X054889Y022947D02*
X055129Y022707D01*
X055369Y022466D01*
X056296Y024368D02*
X056770Y023895D01*
X054414Y023436D02*
X054477Y023373D01*
X054414Y023436D02*
X055799Y024820D01*
X055799Y024820D01*
X055814Y024834D01*
X055889Y024758D01*
X055801Y022049D02*
X055864Y021985D01*
X057243Y023364D01*
X057250Y023357D01*
X057264Y023371D01*
X057194Y023442D02*
X057264Y023371D01*
X055773Y035908D02*
X055843Y035979D01*
X055857Y035965D01*
X055850Y035958D02*
X055857Y035965D01*
X055850Y035958D02*
X057229Y034579D01*
X057165Y034515D02*
X057229Y034579D01*
X054381Y034528D02*
X054457Y034604D01*
X054381Y034528D02*
X054395Y034514D01*
X054394Y034513D02*
X054395Y034514D01*
X054394Y034513D02*
X055779Y033129D01*
X055842Y033192D01*
X054846Y035010D02*
X055320Y035484D01*
X056508Y033844D02*
X056748Y034084D01*
X056267Y033603D02*
X056508Y033844D01*
X055094D02*
X056508D01*
X045406D02*
Y035258D01*
X045647Y035017D01*
X045166Y035498D02*
X045406Y035258D01*
X043766Y034070D02*
X044240Y033596D01*
X046058Y034592D02*
X046121Y034529D01*
X044737Y033144D02*
X046121Y034529D01*
X044736Y033145D02*
X044737Y033144D01*
X044722Y033131D02*
X044736Y033145D01*
X044646Y033207D02*
X044722Y033131D01*
X044671Y035979D02*
X044735Y035916D01*
X043292Y034600D02*
X044671Y035979D01*
X043285Y034607D02*
X043292Y034600D01*
X043271Y034593D02*
X043285Y034607D01*
X043271Y034593D02*
X043342Y034523D01*
X050745Y024121D02*
X050556Y024309D01*
Y024498D01*
X050745Y024498D01*
X050933Y024309D01*
X050792Y024451D01*
X050604Y024262D01*
X051028Y024404D02*
X050745Y024686D01*
X051216Y024592D01*
X050933Y024875D01*
X051028Y024969D02*
X051216Y025158D01*
X051122Y025063D01*
X051405Y024781D01*
D60*
X047848Y032411D02*
X048711Y031548D01*
X047263Y031826D02*
X048126Y030963D01*
X048711Y031548D01*
X047263Y031826D02*
X047848Y032411D01*
X048194Y030604D02*
X048222Y030632D01*
X048389Y030409D02*
X048417Y030437D01*
X051513Y030486D02*
X051736Y030263D01*
X050956Y029929D02*
X051179Y029706D01*
X051195Y027331D02*
X051919Y028055D01*
X051195Y027331D02*
X051975Y026551D01*
X051919Y028055D02*
X052699Y027275D01*
X051975Y026551D02*
X052699Y027275D01*
X051584Y031058D02*
X052308Y030334D01*
X053088Y031114D01*
X051584Y031058D02*
X052364Y031838D01*
X053088Y031114D01*
D61*
X050109Y030273D02*
X051593Y028788D01*
X049967Y030273D02*
X050109D01*
X048906Y029212D02*
X049967Y030273D01*
X050462Y027657D02*
X051593Y028788D01*
X048906Y029212D02*
X050462Y027657D01*
X048282Y026103D02*
X048462Y026283D01*
X048103Y028034D02*
X048228Y028159D01*
X047227Y027158D02*
X047407Y027338D01*
X047227Y027158D02*
X047407Y026979D01*
X048103Y026283D02*
X048282Y026103D01*
X049158Y026979D02*
X049337Y027158D01*
X049158Y027338D02*
X049337Y027158D01*
X048337Y028159D02*
X048462Y028034D01*
X048228Y028159D02*
X048337D01*
X053856Y024545D02*
X053998Y024687D01*
X054068Y024616D01*
Y024569D01*
X054021Y024522D01*
X053974Y024522D01*
X053903Y024592D01*
X053951Y024545D02*
Y024451D01*
X053998Y024404D02*
X054045Y024357D01*
X054021Y024380D01*
X054163Y024522D01*
X054115Y024522D01*
X054139Y024310D02*
Y024262D01*
X054186Y024215D01*
X054233Y024215D01*
X054328Y024310D01*
Y024357D01*
X054280Y024404D01*
X054233Y024404D01*
X054210Y024380D01*
X054210Y024333D01*
X054280Y024262D01*
X054563Y025252D02*
X054705Y025394D01*
X054775Y025323D01*
Y025276D01*
X054728Y025229D01*
X054681Y025229D01*
X054610Y025299D01*
X054658Y025252D02*
Y025158D01*
X054705Y025111D02*
X054752Y025064D01*
X054728Y025087D01*
X054870Y025229D01*
X054823Y025229D01*
X054940Y025111D02*
X054987Y025111D01*
X055035Y025064D01*
Y025017D01*
X055011Y024993D01*
X054964D01*
X054964Y024946D01*
X054940Y024922D01*
X054893Y024922D01*
X054846Y024970D01*
Y025017D01*
X054870Y025040D01*
X054917D01*
X054917Y025087D01*
X054940Y025111D01*
X054917Y025040D02*
X054964Y024993D01*
X050992Y031251D02*
Y031298D01*
X050945Y031345D01*
X050898Y031345D01*
X050804Y031251D01*
Y031204D01*
X050851Y031157D01*
X050898Y031157D01*
X050992Y031015D02*
X051134Y031157D01*
X050992Y031157D01*
X051087Y031062D01*
X052407Y029766D02*
Y029813D01*
X052359Y029860D01*
X052312Y029860D01*
X052218Y029766D01*
Y029719D01*
X052265Y029672D01*
X052312Y029672D01*
X052572Y029648D02*
X052477Y029742D01*
X052407Y029672D01*
X052477Y029648D01*
X052501Y029625D01*
Y029578D01*
X052454Y029530D01*
X052407D01*
X052359Y029578D01*
Y029625D01*
X048954Y030131D02*
X048907D01*
X048859Y030084D01*
X048859Y030037D01*
X048954Y029943D01*
X049001D01*
X049048Y029990D01*
X049048Y030037D01*
X048977Y030202D02*
X049071Y030296D01*
X049095Y030273D01*
Y030084D01*
X049119Y030061D01*
X049838Y031227D02*
X049790D01*
X049743Y031180D01*
X049743Y031133D01*
X049838Y031039D01*
X049885D01*
X049932Y031086D01*
X049932Y031133D01*
X049885Y031274D02*
X049885Y031322D01*
X049932Y031369D01*
X049979D01*
X050002Y031345D01*
Y031298D01*
X050050D01*
X050073Y031274D01*
Y031227D01*
X050026Y031180D01*
X049979D01*
X049955Y031204D01*
Y031251D01*
X049908D01*
X049885Y031274D01*
X049955Y031251D02*
X050002Y031298D01*
X049378Y030768D02*
X049331D01*
X049284Y030721D01*
X049284Y030673D01*
X049378Y030579D01*
X049425D01*
X049472Y030626D01*
X049472Y030673D01*
X049519Y030721D02*
X049566D01*
X049614Y030768D01*
Y030815D01*
X049519Y030909D01*
X049472D01*
X049425Y030862D01*
X049425Y030815D01*
X049449Y030791D01*
X049496D01*
X049566Y030862D01*
X048105Y028434D02*
X048058D01*
X048011Y028387D01*
X048011Y028340D01*
X048105Y028246D01*
X048152D01*
X048199Y028293D01*
X048199Y028340D01*
X048270Y028364D02*
X048317Y028411D01*
X048294Y028387D01*
X048152Y028528D01*
X048152Y028481D01*
X048388D02*
X048435Y028528D01*
X048411Y028505D01*
X048270Y028646D01*
X048270Y028599D01*
X049443Y027426D02*
Y027473D01*
X049396Y027520D01*
X049349Y027520D01*
X049255Y027426D01*
Y027379D01*
X049302Y027332D01*
X049349Y027332D01*
X049372Y027261D02*
X049420Y027214D01*
X049396Y027238D01*
X049537Y027379D01*
X049490Y027379D01*
X049584Y027049D02*
X049490Y027143D01*
X049679D01*
X049702Y027167D01*
Y027214D01*
X049655Y027261D01*
X049608Y027261D01*
X049543Y028529D02*
Y028576D01*
X049496Y028623D01*
X049449Y028623D01*
X049354Y028529D01*
Y028481D01*
X049401Y028434D01*
X049449Y028434D01*
X049472Y028364D02*
X049519Y028317D01*
X049496Y028340D01*
X049637Y028481D01*
X049590Y028481D01*
X049708Y028364D02*
X049755Y028364D01*
X049802Y028317D01*
Y028269D01*
X049778Y028246D01*
X049731D01*
X049708Y028269D01*
X049731Y028246D01*
X049731Y028199D01*
X049708Y028175D01*
X049661Y028175D01*
X049614Y028222D01*
Y028269D01*
X048600Y028929D02*
X048553D01*
X048506Y028882D01*
X048506Y028835D01*
X048600Y028741D01*
X048647D01*
X048694Y028788D01*
X048694Y028835D01*
X048765Y028859D02*
X048812Y028906D01*
X048789Y028882D01*
X048647Y029023D01*
X048647Y028976D01*
X048954Y029047D02*
X048812Y029188D01*
Y029047D01*
X048906Y029141D01*
X050321Y025842D02*
Y025889D01*
X050274Y025936D01*
X050226Y025936D01*
X050132Y025842D01*
Y025794D01*
X050179Y025747D01*
X050226Y025747D01*
X050250Y025677D02*
X050297Y025630D01*
X050274Y025653D01*
X050415Y025794D01*
X050368Y025794D01*
X050603Y025606D02*
X050509Y025700D01*
X050438Y025630D01*
X050509Y025606D01*
X050533Y025582D01*
Y025535D01*
X050486Y025488D01*
X050438Y025488D01*
X050391Y025535D01*
Y025582D01*
X049343Y024581D02*
X049295D01*
X049248Y024533D01*
X049248Y024486D01*
X049343Y024392D01*
X049390D01*
X049437Y024439D01*
X049437Y024486D01*
X049507Y024510D02*
X049555Y024557D01*
X049531Y024533D01*
X049390Y024675D01*
X049390Y024628D01*
X049578Y024863D02*
X049555Y024793D01*
Y024698D01*
X049602Y024651D01*
X049649D01*
X049696Y024698D01*
X049696Y024745D01*
X049672Y024769D01*
X049625Y024769D01*
X049555Y024698D01*
X049543Y025488D02*
Y025535D01*
X049496Y025582D01*
X049449Y025582D01*
X049354Y025488D01*
Y025441D01*
X049401Y025394D01*
X049449Y025394D01*
X049472Y025323D02*
X049519Y025276D01*
X049496Y025300D01*
X049637Y025441D01*
X049590Y025441D01*
X049731Y025347D02*
X049826Y025252D01*
X049802Y025229D01*
X049614D01*
X049590Y025205D01*
X048836Y024852D02*
Y024899D01*
X048789Y024946D01*
X048741Y024946D01*
X048647Y024852D01*
Y024805D01*
X048694Y024757D01*
X048741Y024757D01*
X048765Y024687D02*
X048812Y024640D01*
X048789Y024663D01*
X048930Y024805D01*
X048883Y024805D01*
X049001Y024687D02*
X049048Y024687D01*
X049095Y024640D01*
Y024592D01*
X049071Y024569D01*
X049024D01*
X049024Y024522D01*
X049001Y024498D01*
X048954Y024498D01*
X048906Y024545D01*
Y024592D01*
X048930Y024616D01*
X048977D01*
X048977Y024663D01*
X049001Y024687D01*
X048977Y024616D02*
X049024Y024569D01*
X045560Y026879D02*
X045512D01*
X045465Y026831D01*
X045465Y026784D01*
X045560Y026690D01*
X045607D01*
X045654Y026737D01*
X045654Y026784D01*
X045724Y026808D02*
X045772Y026855D01*
X045748Y026831D01*
X045607Y026973D01*
X045607Y026926D01*
X045819Y026949D02*
X045866D01*
X045913Y026996D01*
X045913Y027044D01*
X045819Y027138D01*
X045772D01*
X045724Y027091D01*
X045724Y027044D01*
X045748Y027020D01*
X045795Y027020D01*
X045866Y027091D01*
X048211Y024722D02*
X048164D01*
X048117Y024675D01*
X048117Y024628D01*
X048211Y024533D01*
X048258D01*
X048305Y024581D01*
X048305Y024628D01*
X048470Y024746D02*
X048376Y024651D01*
Y024840D01*
X048353Y024863D01*
X048305D01*
X048258Y024816D01*
X048258Y024769D01*
X048400Y024910D02*
Y024958D01*
X048447Y025005D01*
X048494D01*
X048588Y024910D01*
X048588Y024863D01*
X048541Y024816D01*
X048494D01*
X048400Y024910D01*
X044452Y037155D02*
Y037202D01*
X044405Y037250D01*
X044357Y037250D01*
X044263Y037155D01*
Y037108D01*
X044310Y037061D01*
X044357Y037061D01*
X044475Y036896D02*
X044381Y036990D01*
X044569D01*
X044593Y037014D01*
Y037061D01*
X044546Y037108D01*
X044499Y037108D01*
X044640Y036967D02*
X044687D01*
X044734Y036920D01*
Y036873D01*
X044711Y036849D01*
X044664D01*
X044640Y036873D01*
X044664Y036849D01*
X044664Y036802D01*
X044640Y036778D01*
X044593Y036778D01*
X044546Y036825D01*
Y036873D01*
X058075Y034727D02*
X058028D01*
X057981Y034680D01*
X057981Y034633D01*
X058075Y034539D01*
X058122D01*
X058170Y034586D01*
X058170Y034633D01*
X058335Y034751D02*
X058240Y034657D01*
Y034845D01*
X058217Y034869D01*
X058170D01*
X058122Y034822D01*
X058122Y034775D01*
X058335Y035034D02*
X058240Y034940D01*
X058311Y034869D01*
X058335Y034940D01*
X058358Y034963D01*
X058405D01*
X058452Y034916D01*
X058452Y034869D01*
X058405Y034822D01*
X058358D01*
X049119Y031357D02*
Y031404D01*
X049071Y031451D01*
X049024Y031451D01*
X048930Y031357D01*
Y031310D01*
X048977Y031263D01*
X049024Y031263D01*
X049142Y031098D02*
X049048Y031192D01*
X049236D01*
X049260Y031216D01*
Y031263D01*
X049213Y031310D01*
X049166Y031310D01*
X049331Y031192D02*
X049425Y031098D01*
X049401Y031074D01*
X049213D01*
X049189Y031051D01*
X056013Y021139D02*
Y021186D01*
X055966Y021234D01*
X055919Y021234D01*
X055824Y021139D01*
Y021092D01*
X055871Y021045D01*
X055919Y021045D01*
X056036Y020880D02*
X055942Y020974D01*
X056131D01*
X056154Y020998D01*
Y021045D01*
X056107Y021092D01*
X056060Y021092D01*
X056201Y020951D02*
X056248D01*
X056296Y020904D01*
Y020857D01*
X056272Y020833D01*
X056225D01*
X056225Y020786D01*
X056201Y020762D01*
X056154Y020762D01*
X056107Y020809D01*
Y020857D01*
X056131Y020880D01*
X056178D01*
X056178Y020927D01*
X056201Y020951D01*
X056178Y020880D02*
X056225Y020833D01*
X046113Y030615D02*
Y030662D01*
X046066Y030709D01*
X046019Y030709D01*
X045925Y030615D01*
Y030567D01*
X045972Y030520D01*
X046019Y030520D01*
X046160Y030567D02*
X046208Y030567D01*
X046255Y030520D01*
Y030473D01*
X046231Y030450D01*
X046184D01*
X046160Y030473D01*
X046184Y030450D01*
Y030402D01*
X046160Y030379D01*
X046113D01*
X046066Y030426D01*
Y030473D01*
X046302Y030426D02*
X046349D01*
X046396Y030379D01*
Y030332D01*
X046302Y030238D01*
X046255Y030238D01*
X046208Y030285D01*
Y030332D01*
X046302Y030426D01*
X042165Y023202D02*
X042118D01*
X042071Y023155D01*
X042071Y023107D01*
X042165Y023013D01*
X042213D01*
X042260Y023060D01*
X042260Y023107D01*
X042213Y023249D02*
X042213Y023296D01*
X042260Y023343D01*
X042307D01*
X042330Y023319D01*
Y023272D01*
X042307Y023249D01*
X042330Y023272D01*
X042377D01*
X042401Y023249D01*
Y023202D01*
X042354Y023155D01*
X042307D01*
X042472Y023272D02*
X042519Y023319D01*
X042495Y023296D01*
X042354Y023437D01*
Y023390D01*
X049861Y026348D02*
X049720Y026207D01*
X049814Y026113D01*
X049861Y026066D02*
X049908Y026018D01*
X049885Y026042D01*
X050026Y026183D01*
X049979Y026183D01*
X049366Y026560D02*
X049508Y026419D01*
X049602Y026513D01*
X049743Y026655D02*
X049649Y026560D01*
Y026749D01*
X049625Y026772D01*
X049578D01*
X049531Y026725D01*
X049531Y026678D01*
X048518Y025217D02*
X048659Y025076D01*
X048753Y025170D01*
X048683Y025335D02*
X048683Y025382D01*
X048730Y025429D01*
X048777D01*
X048800Y025405D01*
Y025358D01*
X048777Y025335D01*
X048800Y025358D01*
X048848D01*
X048871Y025335D01*
Y025288D01*
X048824Y025240D01*
X048777D01*
X046573Y030037D02*
X046479Y030131D01*
X046432D01*
X046385Y030084D01*
X046385Y030037D01*
X046479Y029943D01*
X046526D01*
X046573Y029990D01*
X046502Y030013D02*
X046597D01*
X046573Y029990D02*
X046573Y030037D01*
X046644Y030061D02*
X046691Y030108D01*
X046667Y030084D01*
X046526Y030226D01*
X046526Y030178D01*
X050144Y027055D02*
X050003Y027197D01*
X050073Y027268D01*
X050120D01*
X050167Y027220D01*
X050167Y027173D01*
X050097Y027103D01*
X050144Y027150D02*
X050238D01*
X050167Y027315D02*
X050167Y027362D01*
X050215Y027409D01*
X050262D01*
X050285Y027385D01*
Y027338D01*
X050332D01*
X050356Y027315D01*
Y027268D01*
X050309Y027220D01*
X050262D01*
X050238Y027244D01*
Y027291D01*
X050191D01*
X050167Y027315D01*
X050238Y027291D02*
X050285Y027338D01*
X048341Y029495D02*
X048199Y029636D01*
X048270Y029707D01*
X048317D01*
X048364Y029660D01*
X048364Y029613D01*
X048294Y029542D01*
X048341Y029589D02*
X048435D01*
X048459Y029660D02*
X048506D01*
X048553Y029707D01*
Y029754D01*
X048459Y029848D01*
X048411D01*
X048364Y029801D01*
X048364Y029754D01*
X048388Y029731D01*
X048435D01*
X048506Y029801D01*
X052124Y028753D02*
X051982Y028894D01*
X052053Y028965D01*
X052100D01*
X052147Y028917D01*
X052147Y028870D01*
X052077Y028800D01*
X052124Y028847D02*
X052218D01*
X052265Y028894D02*
X052312Y028941D01*
X052289Y028917D01*
X052147Y029059D01*
X052147Y029012D01*
X052265Y029130D02*
X052265Y029177D01*
X052312Y029224D01*
X052359D01*
X052454Y029130D01*
X052454Y029082D01*
X052407Y029035D01*
X052359D01*
X052265Y029130D01*
X050710Y027338D02*
X050568Y027480D01*
X050639Y027550D01*
X050686D01*
X050733Y027503D01*
X050733Y027456D01*
X050662Y027385D01*
X050710Y027433D02*
X050804D01*
X050851Y027480D02*
X050898Y027527D01*
X050875Y027503D01*
X050733Y027645D01*
X050733Y027597D01*
X050969D02*
X051016Y027645D01*
X050992Y027621D01*
X050851Y027762D01*
X050851Y027715D01*
X049720Y028045D02*
X049861Y028187D01*
X049932Y028116D01*
Y028069D01*
X049885Y028022D01*
X049837Y028022D01*
X049767Y028093D01*
X049814Y028045D02*
Y027951D01*
X049861Y027904D02*
X049908Y027857D01*
X049885Y027880D01*
X050026Y028022D01*
X049979Y028022D01*
X050073Y027692D02*
X049979Y027786D01*
X050167D01*
X050191Y027810D01*
Y027857D01*
X050144Y027904D01*
X050097Y027904D01*
X054316Y026560D02*
X054457Y026702D01*
X054528Y026631D01*
Y026584D01*
X054481Y026537D01*
X054434Y026537D01*
X054363Y026608D01*
X054410Y026560D02*
Y026466D01*
X054457Y026419D02*
X054504Y026372D01*
X054481Y026396D01*
X054622Y026537D01*
X054575Y026537D01*
X054693Y026419D02*
X054740Y026419D01*
X054787Y026372D01*
Y026325D01*
X054764Y026301D01*
X054716D01*
X054693Y026325D01*
X054716Y026301D01*
X054716Y026254D01*
X054693Y026231D01*
X054646Y026231D01*
X054599Y026278D01*
Y026325D01*
X046785Y034020D02*
X046927Y034162D01*
X046997Y034091D01*
Y034044D01*
X046950Y033997D01*
X046903Y033997D01*
X046832Y034068D01*
X046879Y034020D02*
Y033926D01*
X046927Y033879D02*
X046974Y033832D01*
X046950Y033856D01*
X047091Y033997D01*
X047044Y033997D01*
X047280Y033808D02*
X047186Y033903D01*
X047115Y033832D01*
X047186Y033808D01*
X047209Y033785D01*
Y033738D01*
X047162Y033691D01*
X047115Y033691D01*
X047068Y033738D01*
Y033785D01*
X048447Y030025D02*
X048306Y030167D01*
X048376Y030237D01*
X048423D01*
X048470Y030190D01*
X048470Y030143D01*
X048400Y030072D01*
X048447Y030120D02*
X048541D01*
X048588Y030167D02*
X048635Y030214D01*
X048612Y030190D01*
X048470Y030332D01*
X048470Y030284D01*
X048659Y030520D02*
X048635Y030449D01*
Y030355D01*
X048682Y030308D01*
X048730D01*
X048777Y030355D01*
X048777Y030402D01*
X048753Y030426D01*
X048706Y030426D01*
X048635Y030355D01*
X046350Y031203D02*
X046208Y031345D01*
X046279Y031415D01*
X046326D01*
X046373Y031368D01*
X046373Y031321D01*
X046303Y031250D01*
X046350Y031297D02*
X046444D01*
X046491Y031345D02*
X046538Y031392D01*
X046515Y031368D01*
X046373Y031509D01*
X046373Y031462D01*
X046468Y031604D02*
X046562Y031698D01*
X046585Y031674D01*
Y031486D01*
X046609Y031462D01*
X050356Y030450D02*
X050238Y030332D01*
Y030285D01*
X050285Y030237D01*
X050332Y030237D01*
X050450Y030355D01*
X050474Y030285D02*
X050521Y030285D01*
X050568Y030237D01*
Y030190D01*
X050545Y030167D01*
X050497D01*
X050474Y030190D01*
X050497Y030167D01*
Y030120D01*
X050474Y030096D01*
X050427D01*
X050380Y030143D01*
Y030190D01*
X047139Y027727D02*
X047257Y027609D01*
X047304D01*
X047351Y027656D01*
X047351Y027704D01*
X047233Y027821D01*
X047492Y027798D02*
X047351Y027939D01*
X047351Y027798D01*
X047445Y027892D01*
X046997Y032041D02*
X047115Y031923D01*
X047162D01*
X047209Y031970D01*
X047209Y032017D01*
X047092Y032135D01*
X047280Y032041D02*
X047327Y032088D01*
X047304Y032064D01*
X047162Y032205D01*
X047162Y032158D01*
X047280Y032276D02*
X047280Y032323D01*
X047327Y032370D01*
X047374D01*
X047469Y032276D01*
X047469Y032229D01*
X047421Y032182D01*
X047374D01*
X047280Y032276D01*
X045654Y025959D02*
X045630Y025936D01*
Y025842D01*
X045724D01*
X045748Y025865D01*
X045630Y025842D02*
X045560Y025771D01*
X045748Y025582D02*
X045654Y025677D01*
X045842D01*
X045866Y025700D01*
Y025747D01*
X045819Y025794D01*
X045772Y025794D01*
X051381Y031051D02*
X051358Y031027D01*
Y030933D01*
X051452D01*
X051476Y030956D01*
X051358Y030933D02*
X051287Y030862D01*
X051499Y030886D02*
X051546Y030886D01*
X051593Y030838D01*
Y030791D01*
X051570Y030768D01*
X051523D01*
X051499Y030791D01*
X051523Y030768D01*
Y030721D01*
X051499Y030697D01*
X051452D01*
X051405Y030744D01*
Y030791D01*
M02*
