G04 Layer_Physical_Order=3*
G04 Layer_Color=128*
%FSAX25Y25*%
%MOIN*%
G70*
G01*
G75*
%ADD59C,0.01000*%
%ADD66C,0.04000*%
%ADD67C,0.02600*%
%ADD68C,0.13805*%
%ADD69C,0.09600*%
G36*
X0465000Y0209000D02*
Y0182000D01*
X0327000Y0182000D01*
X0327000Y0209000D01*
X0343000Y0225000D01*
X0449000Y0225000D01*
X0465000Y0209000D01*
D02*
G37*
D59*
X0434000Y0432500D02*
X0434500Y0432000D01*
X0419500Y0435500D02*
X0420500Y0436500D01*
X0434500Y0378000D02*
Y0432000D01*
X0430500Y0374000D02*
X0434500Y0378000D01*
X0421500Y0374000D02*
X0430500D01*
X0419500Y0376000D02*
X0421500Y0374000D01*
X0419500Y0376000D02*
Y0435500D01*
X0340000Y0352000D02*
Y0425500D01*
Y0352000D02*
X0356500Y0335500D01*
X0363500D01*
X0402000Y0376000D02*
Y0438500D01*
X0379500Y0353500D02*
X0402000Y0376000D01*
X0379500Y0339500D02*
Y0353500D01*
X0375500Y0335500D02*
X0379500Y0339500D01*
X0363000Y0335500D02*
X0375500D01*
X0483500Y0277500D02*
X0516000D01*
X0449500Y0243500D02*
X0483500Y0277500D01*
X0386000Y0243500D02*
X0449500D01*
X0375500Y0254000D02*
X0386000Y0243500D01*
X0458500Y0365000D02*
X0509500D01*
X0430000Y0336500D02*
X0458500Y0365000D01*
X0430000Y0309000D02*
Y0336500D01*
X0418000Y0297000D02*
X0430000Y0309000D01*
X0390500Y0297000D02*
X0418000D01*
X0375500Y0282000D02*
X0390500Y0297000D01*
X0375500Y0254000D02*
Y0282000D01*
D66*
X0396000Y0438500D02*
G03*
X0271000Y0313500I0000000J-0125000D01*
G01*
X0521000D02*
G03*
X0396000Y0438500I-0125000J0000000D01*
G01*
Y0188500D02*
G03*
X0521000Y0313500I0000000J0125000D01*
G01*
X0271000D02*
G03*
X0396000Y0188500I0125000J0000000D01*
G01*
D67*
X0379000Y0276386D02*
D03*
X0375150Y0275441D02*
D03*
X0368500Y0334000D02*
D03*
Y0331000D02*
D03*
X0380500D02*
D03*
X0287000Y0289500D02*
D03*
X0290000D02*
D03*
X0293000D02*
D03*
X0296000D02*
D03*
X0287000Y0292500D02*
D03*
X0290000D02*
D03*
X0293000D02*
D03*
X0296000D02*
D03*
X0287000Y0295500D02*
D03*
X0290000D02*
D03*
X0293000D02*
D03*
X0296000D02*
D03*
X0287000Y0286500D02*
D03*
X0290000D02*
D03*
X0293000D02*
D03*
X0296000D02*
D03*
X0345500Y0294500D02*
D03*
X0354500D02*
D03*
X0351500D02*
D03*
X0348500D02*
D03*
X0345500Y0297500D02*
D03*
Y0300500D02*
D03*
X0380000Y0396000D02*
D03*
X0339000Y0333500D02*
D03*
X0344000Y0351500D02*
D03*
X0399000Y0360500D02*
D03*
X0463000Y0362500D02*
D03*
X0462500Y0264000D02*
D03*
X0328500Y0367000D02*
D03*
X0340500Y0258000D02*
D03*
X0422476Y0423976D02*
D03*
X0441421Y0300705D02*
D03*
X0456547Y0338925D02*
D03*
X0310697Y0388197D02*
D03*
X0321303Y0398803D02*
D03*
X0470697D02*
D03*
X0481303Y0388197D02*
D03*
Y0238803D02*
D03*
X0470697Y0228197D02*
D03*
X0310697Y0238803D02*
D03*
X0321303Y0228197D02*
D03*
X0496000Y0288500D02*
D03*
X0500000D02*
D03*
X0502500Y0307382D02*
D03*
X0447000Y0397000D02*
D03*
X0333000Y0405000D02*
D03*
X0382000Y0412500D02*
D03*
X0327141Y0384641D02*
D03*
X0324859Y0244641D02*
D03*
X0378000Y0239500D02*
D03*
X0381500D02*
D03*
X0324859Y0382359D02*
D03*
X0327141Y0242359D02*
D03*
X0464859Y0384641D02*
D03*
X0467141Y0244641D02*
D03*
X0464859Y0242359D02*
D03*
X0467141Y0382359D02*
D03*
X0441500Y0295500D02*
D03*
X0388000Y0294500D02*
D03*
X0410500Y0233500D02*
D03*
Y0236500D02*
D03*
Y0239500D02*
D03*
Y0227500D02*
D03*
X0414000Y0233500D02*
D03*
Y0236500D02*
D03*
Y0227500D02*
D03*
Y0239500D02*
D03*
X0378000Y0227500D02*
D03*
Y0233500D02*
D03*
Y0236500D02*
D03*
X0381500Y0227500D02*
D03*
Y0233500D02*
D03*
Y0236500D02*
D03*
X0372886Y0267000D02*
D03*
X0366000D02*
D03*
X0453500Y0371000D02*
D03*
X0463000Y0371386D02*
D03*
X0407000Y0252000D02*
D03*
X0457500Y0278000D02*
D03*
X0472500Y0347272D02*
D03*
X0364500Y0397969D02*
D03*
X0355500Y0349272D02*
D03*
X0351000Y0337500D02*
D03*
X0339000D02*
D03*
X0376614Y0359000D02*
D03*
Y0362500D02*
D03*
X0343728Y0385500D02*
D03*
X0363000Y0408886D02*
D03*
X0367000Y0408728D02*
D03*
X0454000Y0278000D02*
D03*
X0389500Y0284114D02*
D03*
X0386000D02*
D03*
X0391500Y0278000D02*
D03*
X0427000Y0285500D02*
D03*
X0426886Y0337500D02*
D03*
X0446000Y0285000D02*
D03*
X0422500Y0295500D02*
D03*
X0432000D02*
D03*
X0436500Y0339614D02*
D03*
X0440000D02*
D03*
X0487114Y0331000D02*
D03*
X0477500Y0283000D02*
D03*
X0368850Y0280559D02*
D03*
X0365000Y0279614D02*
D03*
X0400000Y0298000D02*
D03*
X0422476Y0397476D02*
D03*
X0343728Y0396000D02*
D03*
X0351500Y0403272D02*
D03*
X0390772Y0372000D02*
D03*
X0399000Y0371886D02*
D03*
X0383500Y0360886D02*
D03*
X0366500Y0359386D02*
D03*
X0446614Y0362000D02*
D03*
X0411850Y0332750D02*
D03*
X0417866Y0295429D02*
D03*
X0463833Y0395758D02*
D03*
X0319220Y0404628D02*
D03*
X0472780Y0222372D02*
D03*
X0328167Y0231242D02*
D03*
X0472742Y0404667D02*
D03*
X0304833Y0390242D02*
D03*
X0319258Y0222333D02*
D03*
X0487167Y0236758D02*
D03*
X0472772Y0252500D02*
D03*
X0462453Y0281547D02*
D03*
X0443921Y0269661D02*
D03*
Y0261000D02*
D03*
X0439000D02*
D03*
X0436114Y0254500D02*
D03*
X0387500Y0242886D02*
D03*
X0412000D02*
D03*
X0405000D02*
D03*
X0398000D02*
D03*
X0421500Y0235988D02*
D03*
X0369000Y0246886D02*
D03*
X0372500Y0246886D02*
D03*
X0366000Y0259596D02*
D03*
X0387772Y0390500D02*
D03*
Y0383500D02*
D03*
Y0397500D02*
D03*
X0387614Y0394000D02*
D03*
X0377383Y0403272D02*
D03*
X0348000Y0399728D02*
D03*
X0347272Y0392500D02*
D03*
X0347500Y0378500D02*
D03*
X0415114Y0262000D02*
D03*
Y0258750D02*
D03*
Y0251500D02*
D03*
Y0255250D02*
D03*
X0396500Y0284114D02*
D03*
X0393000D02*
D03*
X0427000Y0282869D02*
D03*
X0434079Y0269661D02*
D03*
X0429157D02*
D03*
X0358500Y0388500D02*
D03*
X0365500D02*
D03*
X0372500D02*
D03*
X0369000Y0385000D02*
D03*
X0362000D02*
D03*
X0369000Y0378000D02*
D03*
X0372500Y0381500D02*
D03*
X0358500D02*
D03*
X0362000Y0378000D02*
D03*
X0372500Y0374500D02*
D03*
X0365500D02*
D03*
X0358500D02*
D03*
X0365500Y0381500D02*
D03*
X0410000Y0365500D02*
D03*
Y0368500D02*
D03*
Y0371500D02*
D03*
Y0374500D02*
D03*
X0416000D02*
D03*
X0413000D02*
D03*
X0416000Y0371500D02*
D03*
X0413000D02*
D03*
Y0368500D02*
D03*
X0416000D02*
D03*
Y0365500D02*
D03*
X0413000D02*
D03*
Y0412000D02*
D03*
X0416000D02*
D03*
X0419000D02*
D03*
Y0415000D02*
D03*
X0416000D02*
D03*
X0413000D02*
D03*
Y0418000D02*
D03*
X0416000D02*
D03*
X0419000D02*
D03*
X0413000Y0421000D02*
D03*
X0416000D02*
D03*
X0419000D02*
D03*
Y0400000D02*
D03*
X0416000D02*
D03*
X0413000D02*
D03*
Y0403000D02*
D03*
X0416000D02*
D03*
X0419000D02*
D03*
Y0409000D02*
D03*
X0416000D02*
D03*
X0413000D02*
D03*
Y0406000D02*
D03*
X0416000D02*
D03*
X0419000D02*
D03*
X0413000Y0382000D02*
D03*
X0416000D02*
D03*
X0419000D02*
D03*
Y0385000D02*
D03*
X0416000D02*
D03*
X0413000D02*
D03*
Y0388000D02*
D03*
X0416000D02*
D03*
X0419000D02*
D03*
Y0394000D02*
D03*
X0416000D02*
D03*
X0413000D02*
D03*
Y0391000D02*
D03*
X0416000D02*
D03*
X0419000D02*
D03*
X0371500Y0331000D02*
D03*
X0513000Y0296752D02*
D03*
Y0307500D02*
D03*
Y0317500D02*
D03*
Y0328300D02*
D03*
X0379000Y0297500D02*
D03*
X0354500D02*
D03*
X0351500D02*
D03*
X0348500D02*
D03*
Y0300500D02*
D03*
Y0303500D02*
D03*
X0351500Y0300500D02*
D03*
Y0303500D02*
D03*
X0354500D02*
D03*
Y0300500D02*
D03*
X0374500Y0331000D02*
D03*
X0377500D02*
D03*
X0390000Y0269000D02*
D03*
X0396000Y0263000D02*
D03*
X0393000Y0260000D02*
D03*
X0390000Y0257000D02*
D03*
X0399000Y0260000D02*
D03*
X0402000Y0257000D02*
D03*
X0390000Y0263000D02*
D03*
X0402000D02*
D03*
X0396000Y0257000D02*
D03*
X0402000Y0269000D02*
D03*
X0399000Y0266000D02*
D03*
X0396000Y0269000D02*
D03*
X0393000Y0266000D02*
D03*
X0443228Y0365500D02*
D03*
X0387300Y0378800D02*
D03*
X0385000Y0380500D02*
D03*
X0381772Y0376710D02*
D03*
X0385000Y0373500D02*
D03*
X0382000Y0370500D02*
D03*
X0387228Y0376000D02*
D03*
X0350980Y0329953D02*
D03*
Y0326016D02*
D03*
X0347043D02*
D03*
Y0329953D02*
D03*
X0349012Y0327984D02*
D03*
D68*
X0300000Y0264500D02*
D03*
X0492000D02*
D03*
Y0362500D02*
D03*
X0300000D02*
D03*
D69*
X0309500Y0313500D02*
D03*
X0291500D02*
D03*
M02*
