G04 Layer_Physical_Order=1*
G04 Layer_Color=255*
%FSAX25Y25*%
%MOIN*%
G70*
G01*
G75*
%ADD10R,0.20276X0.20276*%
%ADD11R,0.03347X0.00984*%
%ADD12R,0.00984X0.03347*%
%ADD13R,0.03543X0.00787*%
%ADD14R,0.17323X0.17323*%
%ADD15R,0.00787X0.03543*%
%ADD16R,0.03543X0.03150*%
%ADD17R,0.02362X0.04331*%
%ADD18R,0.02047X0.01969*%
%ADD19R,0.02756X0.03543*%
%ADD20R,0.01772X0.02165*%
%ADD21R,0.01969X0.02047*%
%ADD22R,0.02165X0.01772*%
%ADD23R,0.02362X0.00787*%
%ADD24R,0.08661X0.15945*%
%ADD25R,0.05118X0.02756*%
%ADD26R,0.03740X0.10236*%
%ADD27R,0.03740X0.09843*%
%ADD28R,0.04134X0.01772*%
%ADD29R,0.00984X0.00984*%
%ADD30R,0.06693X0.03740*%
%ADD31R,0.03150X0.01181*%
%ADD32O,0.00984X0.06102*%
%ADD33O,0.06102X0.00984*%
%ADD34R,0.06300X0.05500*%
%ADD35R,0.02559X0.03937*%
%ADD36R,0.03937X0.02559*%
G04:AMPARAMS|DCode=37|XSize=19.69mil|YSize=20.47mil|CornerRadius=0mil|HoleSize=0mil|Usage=FLASHONLY|Rotation=315.000|XOffset=0mil|YOffset=0mil|HoleType=Round|Shape=Rectangle|*
%AMROTATEDRECTD37*
4,1,4,-0.01420,-0.00028,0.00028,0.01420,0.01420,0.00028,-0.00028,-0.01420,-0.01420,-0.00028,0.0*
%
%ADD37ROTATEDRECTD37*%

G04:AMPARAMS|DCode=38|XSize=19.69mil|YSize=20.47mil|CornerRadius=0mil|HoleSize=0mil|Usage=FLASHONLY|Rotation=225.000|XOffset=0mil|YOffset=0mil|HoleType=Round|Shape=Rectangle|*
%AMROTATEDRECTD38*
4,1,4,-0.00028,0.01420,0.01420,-0.00028,0.00028,-0.01420,-0.01420,0.00028,-0.00028,0.01420,0.0*
%
%ADD38ROTATEDRECTD38*%

%ADD39R,0.04331X0.04803*%
%ADD40R,0.04724X0.07087*%
%ADD41R,0.02362X0.06102*%
%ADD42R,0.01181X0.01772*%
%ADD43R,0.06299X0.03937*%
%ADD44R,0.02756X0.05118*%
%ADD45R,0.04803X0.04331*%
%ADD46R,0.01969X0.01772*%
%ADD47R,0.06693X0.06693*%
%ADD48R,0.00984X0.02362*%
%ADD49R,0.02362X0.00984*%
%ADD50R,0.02756X0.03150*%
%ADD51R,0.05600X0.01400*%
%ADD52R,0.07500X0.07100*%
%ADD53R,0.07500X0.07500*%
%ADD54R,0.11100X0.09500*%
G04:AMPARAMS|DCode=55|XSize=65mil|YSize=40mil|CornerRadius=0mil|HoleSize=0mil|Usage=FLASHONLY|Rotation=45.000|XOffset=0mil|YOffset=0mil|HoleType=Round|Shape=Rectangle|*
%AMROTATEDRECTD55*
4,1,4,-0.00884,-0.03712,-0.03712,-0.00884,0.00884,0.03712,0.03712,0.00884,-0.00884,-0.03712,0.0*
%
%ADD55ROTATEDRECTD55*%

G04:AMPARAMS|DCode=56|XSize=65mil|YSize=40mil|CornerRadius=0mil|HoleSize=0mil|Usage=FLASHONLY|Rotation=315.000|XOffset=0mil|YOffset=0mil|HoleType=Round|Shape=Rectangle|*
%AMROTATEDRECTD56*
4,1,4,-0.03712,0.00884,-0.00884,0.03712,0.03712,-0.00884,0.00884,-0.03712,-0.03712,0.00884,0.0*
%
%ADD56ROTATEDRECTD56*%

%ADD57R,0.04331X0.04331*%
%ADD58C,0.00900*%
%ADD59C,0.01000*%
%ADD60C,0.02000*%
%ADD61C,0.01300*%
%ADD62C,0.00870*%
%ADD63C,0.12205*%
%ADD64C,0.08000*%
%ADD65C,0.02000*%
G36*
X0399801Y0437292D02*
X0399924Y0436843D01*
X0399924Y0436788D01*
Y0433500D01*
X0406249D01*
Y0436423D01*
X0406732Y0436885D01*
X0409872Y0436620D01*
X0416754Y0435648D01*
X0423570Y0434292D01*
X0430300Y0432556D01*
X0436921Y0430446D01*
X0443414Y0427968D01*
X0449758Y0425129D01*
X0455932Y0421939D01*
X0461918Y0418408D01*
X0467697Y0414547D01*
X0473250Y0410368D01*
X0478559Y0405884D01*
X0483610Y0401110D01*
X0488384Y0396059D01*
X0492868Y0390750D01*
X0497047Y0385197D01*
X0500908Y0379418D01*
X0504439Y0373432D01*
X0507629Y0367258D01*
X0510467Y0360914D01*
X0512946Y0354421D01*
X0515057Y0347800D01*
X0516792Y0341070D01*
X0518148Y0334254D01*
X0519120Y0327372D01*
X0519704Y0320447D01*
X0519899Y0313500D01*
X0519704Y0306553D01*
X0519120Y0299628D01*
X0518148Y0292746D01*
X0516792Y0285930D01*
X0515057Y0279200D01*
X0512946Y0272579D01*
X0510467Y0266086D01*
X0507629Y0259742D01*
X0504439Y0253568D01*
X0500908Y0247582D01*
X0497047Y0241803D01*
X0492868Y0236250D01*
X0488384Y0230941D01*
X0483610Y0225890D01*
X0478559Y0221116D01*
X0473250Y0216632D01*
X0467697Y0212453D01*
X0464010Y0209990D01*
X0449000Y0225000D01*
X0408500D01*
X0408500Y0232000D01*
X0399860Y0240640D01*
X0400052Y0241102D01*
X0400500D01*
Y0242886D01*
X0402500D01*
Y0241102D01*
X0404000D01*
Y0242886D01*
X0406000D01*
Y0241102D01*
X0407500D01*
Y0242886D01*
X0409500D01*
Y0241102D01*
X0411000D01*
Y0242886D01*
X0413000D01*
Y0241102D01*
X0414500D01*
Y0242886D01*
X0415500D01*
Y0243886D01*
X0417324D01*
Y0244137D01*
X0417554Y0244542D01*
X0417770Y0244542D01*
X0425446D01*
Y0249482D01*
X0417554D01*
Y0248300D01*
X0417054Y0248025D01*
X0416898Y0248123D01*
Y0248500D01*
X0415114D01*
Y0250500D01*
X0416898D01*
Y0251324D01*
X0416898D01*
Y0251676D01*
X0416898D01*
Y0252500D01*
X0415114D01*
Y0254500D01*
X0416898D01*
Y0255176D01*
Y0256000D01*
X0415114D01*
Y0258000D01*
X0416898D01*
Y0258676D01*
Y0259500D01*
X0415114D01*
Y0261500D01*
X0416898D01*
Y0262176D01*
Y0263000D01*
X0415114D01*
Y0264000D01*
X0414114D01*
Y0265824D01*
X0413330D01*
Y0265624D01*
X0410302D01*
X0410221Y0265937D01*
X0407614D01*
Y0267518D01*
X0409986D01*
Y0267937D01*
X0410186D01*
Y0268131D01*
X0409986D01*
Y0272655D01*
X0405655D01*
Y0276748D01*
X0450061D01*
X0450471Y0276830D01*
X0450818Y0277062D01*
X0451884Y0278128D01*
X0452135Y0278061D01*
X0452384Y0277921D01*
X0452493Y0277376D01*
X0452846Y0276847D01*
X0453183Y0276622D01*
X0453031Y0276121D01*
X0433500D01*
X0433500Y0276122D01*
X0433071Y0276036D01*
X0432707Y0275793D01*
X0429341Y0272427D01*
X0427376D01*
Y0266896D01*
X0430939D01*
Y0270852D01*
X0431836Y0271750D01*
X0432298Y0271558D01*
Y0266896D01*
X0435860D01*
Y0270774D01*
X0436757Y0271671D01*
X0437219Y0271480D01*
Y0266896D01*
X0440781D01*
Y0272152D01*
X0441940D01*
Y0270661D01*
X0443921D01*
X0445902D01*
Y0272152D01*
X0460036D01*
X0460037Y0272152D01*
X0460466Y0272237D01*
X0460829Y0272481D01*
X0471095Y0282746D01*
X0471095Y0282746D01*
X0471338Y0283110D01*
X0471423Y0283539D01*
Y0284376D01*
X0473830D01*
Y0284176D01*
X0474614D01*
Y0286000D01*
X0476614D01*
Y0284176D01*
X0477176D01*
Y0284102D01*
X0478000D01*
Y0285886D01*
X0479000D01*
Y0286886D01*
X0480824D01*
Y0287670D01*
X0480624D01*
Y0290698D01*
X0480624D01*
X0480631Y0291000D01*
X0480594Y0291186D01*
X0480507Y0291624D01*
X0480154Y0292154D01*
X0479624Y0292507D01*
X0479000Y0292631D01*
X0478376Y0292507D01*
X0477846Y0292154D01*
X0477493Y0291624D01*
X0477406Y0291186D01*
X0477369Y0291000D01*
X0477376Y0290698D01*
X0477286Y0290236D01*
X0475385D01*
Y0291748D01*
X0475377Y0291788D01*
Y0294307D01*
X0475292Y0294733D01*
X0475051Y0295094D01*
X0474690Y0295336D01*
X0474264Y0295421D01*
X0473838Y0295336D01*
X0473476Y0295094D01*
X0473083D01*
X0472721Y0295336D01*
X0472295Y0295421D01*
X0471869Y0295336D01*
X0471651Y0295190D01*
X0471311Y0295130D01*
X0470971Y0295190D01*
X0470753Y0295336D01*
X0470327Y0295421D01*
X0469901Y0295336D01*
X0469683Y0295190D01*
X0469343Y0295130D01*
X0469002Y0295190D01*
X0468784Y0295336D01*
X0468358Y0295421D01*
X0467932Y0295336D01*
X0467714Y0295190D01*
X0467374Y0295130D01*
X0467034Y0295190D01*
X0466816Y0295336D01*
X0466390Y0295421D01*
X0465964Y0295336D01*
X0465746Y0295190D01*
X0465406Y0295130D01*
X0465065Y0295190D01*
X0464847Y0295336D01*
X0464421Y0295421D01*
X0463995Y0295336D01*
X0463634Y0295094D01*
X0463240D01*
X0462879Y0295336D01*
X0462453Y0295421D01*
X0462027Y0295336D01*
X0461809Y0295190D01*
X0461469Y0295130D01*
X0461128Y0295190D01*
X0460910Y0295336D01*
X0460484Y0295421D01*
X0460058Y0295336D01*
X0459840Y0295190D01*
X0459500Y0295130D01*
X0459160Y0295190D01*
X0458942Y0295336D01*
X0458516Y0295421D01*
X0458090Y0295336D01*
X0457872Y0295190D01*
X0457531Y0295130D01*
X0457191Y0295190D01*
X0456973Y0295336D01*
X0456547Y0295421D01*
X0456121Y0295336D01*
X0455903Y0295190D01*
X0455563Y0295130D01*
X0455223Y0295190D01*
X0455005Y0295336D01*
X0454579Y0295421D01*
X0454153Y0295336D01*
X0453791Y0295094D01*
X0453398D01*
X0453036Y0295336D01*
X0452610Y0295421D01*
X0452184Y0295336D01*
X0451966Y0295190D01*
X0451626Y0295130D01*
X0451286Y0295190D01*
X0451068Y0295336D01*
X0450642Y0295421D01*
X0450216Y0295336D01*
X0449998Y0295190D01*
X0449657Y0295130D01*
X0449317Y0295190D01*
X0449099Y0295336D01*
X0448673Y0295421D01*
X0448247Y0295336D01*
X0447886Y0295094D01*
X0447460Y0295357D01*
X0447209Y0295524D01*
X0446705Y0295624D01*
X0446201Y0295524D01*
X0445950Y0295357D01*
X0445524Y0295094D01*
X0445162Y0295336D01*
X0444736Y0295421D01*
X0444310Y0295336D01*
X0443949Y0295094D01*
X0443708Y0294733D01*
X0443623Y0294307D01*
Y0289189D01*
X0443708Y0288763D01*
X0443949Y0288402D01*
X0444079Y0288314D01*
X0444102Y0287824D01*
X0444102Y0287824D01*
X0444102Y0287824D01*
Y0287000D01*
X0445886D01*
Y0286000D01*
X0446886D01*
Y0284176D01*
X0447626D01*
X0447847Y0283846D01*
X0448376Y0283493D01*
X0449000Y0283369D01*
X0449184Y0283405D01*
X0449431Y0282944D01*
X0448375Y0281889D01*
X0436258D01*
Y0282844D01*
X0436279Y0282876D01*
X0436403Y0283500D01*
X0436279Y0284124D01*
X0436258Y0284156D01*
Y0285183D01*
X0436258D01*
Y0285317D01*
X0436258D01*
Y0288683D01*
X0433286D01*
Y0285317D01*
X0433286D01*
Y0285183D01*
X0433286D01*
Y0284357D01*
X0433214Y0284275D01*
X0432714Y0284462D01*
Y0285183D01*
X0432714D01*
Y0285317D01*
X0432714D01*
Y0288683D01*
X0429742D01*
Y0288122D01*
X0428500D01*
X0428500Y0288122D01*
X0428071Y0288036D01*
X0427707Y0287793D01*
X0427038Y0287124D01*
X0427000Y0287131D01*
X0426376Y0287007D01*
X0425846Y0286653D01*
X0425825Y0286621D01*
X0421465D01*
X0415926Y0292161D01*
X0416133Y0292661D01*
X0416866D01*
Y0294429D01*
X0415787D01*
Y0293418D01*
X0415287Y0293157D01*
X0415122Y0293272D01*
Y0308000D01*
X0415122Y0308000D01*
X0415036Y0308429D01*
X0414793Y0308793D01*
X0414793Y0308793D01*
X0403140Y0320446D01*
X0402776Y0320689D01*
X0402347Y0320774D01*
X0402347Y0320774D01*
X0395676D01*
X0395676Y0320774D01*
X0395247Y0320689D01*
X0394883Y0320446D01*
X0394883Y0320446D01*
X0392254Y0317817D01*
X0392072Y0317545D01*
X0391955D01*
Y0317172D01*
X0391926Y0317024D01*
X0391926Y0317024D01*
Y0316453D01*
X0391955Y0316305D01*
Y0315776D01*
X0391755D01*
Y0315484D01*
X0391955D01*
Y0315360D01*
X0392899D01*
X0393047Y0315331D01*
Y0313484D01*
X0391755D01*
Y0311669D01*
X0391257D01*
X0390824Y0311830D01*
Y0312614D01*
X0389000D01*
X0387176D01*
Y0311830D01*
X0387376D01*
Y0308802D01*
X0390624D01*
Y0309426D01*
X0393047D01*
X0393195Y0309455D01*
X0393894D01*
Y0307370D01*
X0393894Y0307370D01*
X0393980Y0306941D01*
X0394223Y0306577D01*
X0394302Y0306498D01*
Y0304876D01*
X0394302D01*
Y0304624D01*
X0394302D01*
Y0301376D01*
X0394764D01*
Y0296850D01*
X0394038Y0296124D01*
X0394000Y0296131D01*
X0393376Y0296007D01*
X0392846Y0295654D01*
X0392750Y0295509D01*
X0392250D01*
X0392154Y0295654D01*
X0391624Y0296007D01*
X0391000Y0296131D01*
X0390376Y0296007D01*
X0389846Y0295654D01*
X0389493Y0295124D01*
X0389369Y0294500D01*
X0389493Y0293876D01*
X0389846Y0293347D01*
X0389991Y0293250D01*
Y0292750D01*
X0389846Y0292653D01*
X0389493Y0292124D01*
X0389369Y0291500D01*
X0389493Y0290876D01*
X0389846Y0290347D01*
X0390376Y0289993D01*
X0391000Y0289869D01*
X0391624Y0289993D01*
X0392154Y0290347D01*
X0392250Y0290491D01*
X0392750D01*
X0392846Y0290347D01*
X0393376Y0289993D01*
X0394000Y0289869D01*
X0394624Y0289993D01*
X0395153Y0290347D01*
X0395250Y0290491D01*
X0395750D01*
X0395847Y0290347D01*
X0396376Y0289993D01*
X0397000Y0289869D01*
X0397624Y0289993D01*
X0398153Y0290347D01*
X0398250Y0290491D01*
X0398750D01*
X0398847Y0290347D01*
X0399376Y0289993D01*
X0400000Y0289869D01*
X0400624Y0289993D01*
X0401154Y0290347D01*
X0401250Y0290491D01*
X0401750D01*
X0401847Y0290347D01*
X0402376Y0289993D01*
X0403000Y0289869D01*
X0403624Y0289993D01*
X0404153Y0290347D01*
X0404250Y0290491D01*
X0404750D01*
X0404846Y0290347D01*
X0405376Y0289993D01*
X0406000Y0289869D01*
X0406624Y0289993D01*
X0407154Y0290347D01*
X0407250Y0290491D01*
X0407750D01*
X0407846Y0290347D01*
X0408376Y0289993D01*
X0409000Y0289869D01*
X0409624Y0289993D01*
X0410153Y0290347D01*
X0410507Y0290876D01*
X0410631Y0291500D01*
X0410507Y0292124D01*
X0410153Y0292653D01*
X0410009Y0292750D01*
Y0293250D01*
X0410153Y0293347D01*
X0410507Y0293876D01*
X0410631Y0294500D01*
X0410507Y0295124D01*
X0410153Y0295654D01*
X0409624Y0296007D01*
X0409000Y0296131D01*
X0408376Y0296007D01*
X0407846Y0295654D01*
X0407750Y0295509D01*
X0407250D01*
X0407154Y0295654D01*
X0406624Y0296007D01*
X0406000Y0296131D01*
X0405376Y0296007D01*
X0404846Y0295654D01*
X0404750Y0295509D01*
X0404250D01*
X0404153Y0295654D01*
X0403624Y0296007D01*
X0403000Y0296131D01*
X0402376Y0296007D01*
X0401847Y0295654D01*
X0401750Y0295509D01*
X0401250D01*
X0401154Y0295654D01*
X0400624Y0296007D01*
X0400000Y0296131D01*
X0399376Y0296007D01*
X0398847Y0295654D01*
X0398750Y0295509D01*
X0398250D01*
X0398153Y0295654D01*
X0397624Y0296007D01*
X0397449Y0296042D01*
X0397007Y0296386D01*
X0397007Y0296386D01*
Y0300810D01*
X0397330Y0301176D01*
X0398114D01*
Y0303000D01*
X0399114D01*
Y0304000D01*
X0400898D01*
Y0304676D01*
Y0305500D01*
X0399114D01*
Y0306500D01*
X0398114D01*
Y0308324D01*
X0397330D01*
Y0308124D01*
X0396137D01*
Y0309426D01*
X0396984D01*
X0397132Y0309455D01*
X0400045D01*
Y0314336D01*
X0400074Y0314484D01*
Y0316453D01*
X0400380Y0316931D01*
X0401220D01*
X0411278Y0306873D01*
Y0291837D01*
X0411278Y0291837D01*
X0411364Y0291408D01*
X0411607Y0291044D01*
X0420262Y0282389D01*
X0420055Y0281889D01*
X0400819D01*
X0400409Y0281808D01*
X0400062Y0281576D01*
X0400062Y0281576D01*
X0398586Y0280100D01*
X0398124Y0280291D01*
Y0282330D01*
X0398324D01*
Y0283114D01*
X0396500D01*
Y0284114D01*
X0395500D01*
Y0285898D01*
X0394000D01*
Y0284114D01*
X0392000D01*
Y0285898D01*
X0390500D01*
Y0284114D01*
X0388500D01*
Y0285898D01*
X0387000D01*
Y0284114D01*
X0386000D01*
Y0283114D01*
X0384176D01*
Y0282330D01*
X0384376D01*
Y0279302D01*
X0386070D01*
X0386268Y0279104D01*
Y0274614D01*
X0386345Y0274228D01*
Y0272655D01*
X0382571D01*
Y0278227D01*
X0382489Y0278637D01*
X0382257Y0278984D01*
X0380870Y0280371D01*
X0380624Y0280536D01*
Y0281198D01*
X0377521D01*
Y0282734D01*
X0372778D01*
Y0278384D01*
X0376399D01*
X0376794Y0277896D01*
X0376774Y0277816D01*
X0376150D01*
Y0275441D01*
X0375150D01*
Y0274441D01*
X0372578D01*
Y0273762D01*
X0372078Y0273727D01*
X0371222Y0274583D01*
Y0277616D01*
X0367601D01*
X0367206Y0278104D01*
X0367226Y0278184D01*
X0367850D01*
Y0280559D01*
Y0282934D01*
X0366279D01*
Y0281398D01*
X0366000D01*
Y0279614D01*
X0365000D01*
Y0278614D01*
X0363176D01*
Y0277830D01*
X0363376D01*
Y0274802D01*
X0366479D01*
Y0273266D01*
X0369511D01*
X0370902Y0271876D01*
X0371042Y0271781D01*
Y0271500D01*
X0372728D01*
Y0269500D01*
X0371042D01*
Y0268617D01*
X0371102D01*
Y0268000D01*
X0372886D01*
Y0266000D01*
X0371102D01*
Y0265176D01*
Y0264500D01*
X0372886D01*
Y0262500D01*
X0371102D01*
Y0262069D01*
X0370982Y0261663D01*
X0370623Y0261624D01*
X0367802D01*
Y0261398D01*
X0367000D01*
Y0259614D01*
X0366000D01*
Y0258614D01*
X0364176D01*
Y0257830D01*
X0364376D01*
Y0254802D01*
X0367624D01*
X0367802Y0254376D01*
X0369231D01*
X0370224Y0253383D01*
X0370136Y0252764D01*
X0369070Y0251698D01*
X0367376D01*
Y0248670D01*
X0367176D01*
Y0247886D01*
X0369000D01*
Y0246886D01*
X0370000D01*
Y0245102D01*
X0371500D01*
Y0246886D01*
X0373500D01*
Y0245102D01*
X0373959D01*
X0374324Y0245102D01*
X0374743Y0244906D01*
Y0241817D01*
X0377714D01*
Y0245183D01*
X0377714D01*
X0377624Y0245302D01*
X0377624Y0248690D01*
X0377876Y0248943D01*
X0378376Y0248800D01*
Y0248530D01*
X0378376Y0248530D01*
Y0248470D01*
X0378376D01*
X0378376Y0248030D01*
Y0245302D01*
X0378286Y0245183D01*
X0378286D01*
Y0241817D01*
X0381258D01*
Y0245183D01*
X0381624Y0245302D01*
Y0246731D01*
X0385143Y0250250D01*
X0385375Y0250598D01*
X0385456Y0251007D01*
Y0253345D01*
X0386345D01*
Y0249014D01*
X0386539D01*
X0386730Y0248552D01*
X0385876Y0247698D01*
X0385876D01*
Y0247698D01*
X0383500Y0245322D01*
X0383500Y0239500D01*
X0383500Y0225000D01*
X0343000D01*
X0327990Y0209990D01*
X0324303Y0212453D01*
X0318750Y0216632D01*
X0313440Y0221116D01*
X0308390Y0225890D01*
X0303616Y0230941D01*
X0299132Y0236250D01*
X0294953Y0241803D01*
X0291092Y0247582D01*
X0287561Y0253568D01*
X0284371Y0259742D01*
X0281533Y0266086D01*
X0279935Y0270272D01*
X0280364Y0270550D01*
X0303750Y0247164D01*
Y0241043D01*
X0300311Y0237604D01*
X0305756Y0232159D01*
X0309433Y0235836D01*
X0305993Y0239275D01*
Y0247628D01*
X0305993Y0247628D01*
X0305908Y0248058D01*
X0305665Y0248421D01*
X0305665Y0248421D01*
X0295327Y0258759D01*
X0295664Y0259130D01*
X0296147Y0258733D01*
X0297346Y0258092D01*
X0298647Y0257698D01*
X0299000Y0257663D01*
Y0263500D01*
X0293163D01*
X0293197Y0263147D01*
X0293592Y0261846D01*
X0294233Y0260647D01*
X0294630Y0260164D01*
X0294259Y0259827D01*
X0281622Y0272465D01*
Y0355035D01*
X0306797Y0380211D01*
X0309419D01*
X0312858Y0376772D01*
X0318303Y0382217D01*
X0314626Y0385894D01*
X0311187Y0382454D01*
X0306333D01*
X0306333Y0382454D01*
X0305904Y0382369D01*
X0305540Y0382126D01*
X0305540Y0382126D01*
X0280653Y0357239D01*
X0280234Y0357511D01*
X0281533Y0360914D01*
X0284371Y0367258D01*
X0287561Y0373432D01*
X0291092Y0379418D01*
X0294953Y0385197D01*
X0299132Y0390750D01*
X0303616Y0396059D01*
X0308390Y0401110D01*
X0313440Y0405884D01*
X0318750Y0410368D01*
X0324303Y0414547D01*
X0330082Y0418408D01*
X0336068Y0421939D01*
X0342242Y0425129D01*
X0348586Y0427968D01*
X0355079Y0430446D01*
X0361700Y0432556D01*
X0368430Y0434292D01*
X0375246Y0435648D01*
X0382128Y0436620D01*
X0385268Y0436885D01*
X0385751Y0436423D01*
Y0433500D01*
X0392076D01*
Y0436788D01*
X0392076Y0436843D01*
X0392199Y0437292D01*
X0396000Y0437399D01*
X0399801Y0437292D01*
D02*
G37*
%LPC*%
G36*
X0512000Y0312050D02*
X0508450D01*
Y0308500D01*
X0512000D01*
Y0312050D01*
D02*
G37*
G36*
X0517550D02*
X0514000D01*
Y0308500D01*
X0517550D01*
Y0312050D01*
D02*
G37*
G36*
X0400898Y0308324D02*
X0400114D01*
Y0307500D01*
X0400898D01*
Y0308324D01*
D02*
G37*
G36*
X0517550Y0306500D02*
X0514000D01*
Y0302950D01*
X0517550D01*
Y0306500D01*
D02*
G37*
G36*
X0496257Y0318683D02*
X0493286D01*
Y0315683D01*
X0493286Y0315317D01*
X0493286D01*
Y0315183D01*
X0493286D01*
Y0311817D01*
X0494868D01*
X0497538Y0309148D01*
X0497538Y0309148D01*
X0497901Y0308905D01*
X0498331Y0308819D01*
X0498331Y0308819D01*
X0499100D01*
Y0306082D01*
X0501566D01*
X0501876Y0305875D01*
X0502500Y0305750D01*
X0503124Y0305875D01*
X0503434Y0306082D01*
X0505900D01*
Y0308641D01*
Y0311200D01*
Y0316200D01*
X0506100D01*
Y0316700D01*
X0502500D01*
X0498900D01*
Y0316200D01*
X0499100D01*
Y0315684D01*
X0498638Y0315492D01*
X0496337Y0317793D01*
X0496257Y0317846D01*
Y0318683D01*
D02*
G37*
G36*
X0314210Y0312500D02*
X0310500D01*
Y0308790D01*
X0310753Y0308823D01*
X0311921Y0309307D01*
X0312923Y0310077D01*
X0313693Y0311079D01*
X0314177Y0312247D01*
X0314210Y0312500D01*
D02*
G37*
G36*
X0416866Y0310571D02*
X0415787D01*
Y0308802D01*
X0416866D01*
Y0310571D01*
D02*
G37*
G36*
X0308500Y0312500D02*
X0304790D01*
X0304823Y0312247D01*
X0305307Y0311079D01*
X0306077Y0310077D01*
X0307079Y0309307D01*
X0308247Y0308823D01*
X0308500Y0308790D01*
Y0312500D01*
D02*
G37*
G36*
X0290500D02*
X0286790D01*
X0286824Y0312247D01*
X0287307Y0311079D01*
X0288077Y0310077D01*
X0289079Y0309307D01*
X0290247Y0308823D01*
X0290500Y0308790D01*
Y0312500D01*
D02*
G37*
G36*
X0296210D02*
X0292500D01*
Y0308790D01*
X0292753Y0308823D01*
X0293921Y0309307D01*
X0294923Y0310077D01*
X0295693Y0311079D01*
X0296177Y0312247D01*
X0296210Y0312500D01*
D02*
G37*
G36*
X0512000Y0306500D02*
X0508450D01*
Y0302950D01*
X0512000D01*
Y0306500D01*
D02*
G37*
G36*
X0382002Y0313253D02*
X0375998D01*
Y0307723D01*
X0377369D01*
Y0297500D01*
X0377493Y0296876D01*
X0377847Y0296346D01*
X0378376Y0295993D01*
X0379000Y0295869D01*
X0379624Y0295993D01*
X0380153Y0296346D01*
X0380507Y0296876D01*
X0380631Y0297500D01*
Y0307723D01*
X0382002D01*
Y0313253D01*
D02*
G37*
G36*
X0425646Y0238658D02*
X0422500D01*
Y0236988D01*
X0425646D01*
Y0238658D01*
D02*
G37*
G36*
X0325000Y0344149D02*
X0283500D01*
X0283041Y0343959D01*
X0282851Y0343500D01*
Y0320500D01*
X0283041Y0320041D01*
X0283500Y0319851D01*
X0344502D01*
X0344709Y0319351D01*
X0344207Y0318849D01*
X0343964Y0318485D01*
X0343878Y0318056D01*
X0343879Y0318056D01*
Y0304675D01*
X0343847Y0304654D01*
X0343493Y0304124D01*
X0343369Y0303500D01*
X0343493Y0302876D01*
X0343847Y0302346D01*
X0344376Y0301993D01*
X0345000Y0301869D01*
X0345624Y0301993D01*
X0346153Y0302346D01*
X0346507Y0302876D01*
X0346631Y0303500D01*
X0346507Y0304124D01*
X0346153Y0304654D01*
X0346122Y0304675D01*
Y0317331D01*
X0346318Y0317477D01*
X0346818Y0317226D01*
Y0318318D01*
X0348882Y0320382D01*
X0348955Y0320491D01*
X0348991D01*
X0348996Y0320496D01*
Y0320552D01*
X0349064Y0320654D01*
X0349071Y0320691D01*
X0349120D01*
Y0320935D01*
X0349149Y0321083D01*
Y0322472D01*
X0349500D01*
Y0323500D01*
X0353306D01*
X0353500Y0323851D01*
X0355496D01*
X0355851Y0323351D01*
X0355851Y0296000D01*
X0356041Y0295541D01*
X0356500Y0295351D01*
X0374500D01*
X0374959Y0295541D01*
X0375149Y0296000D01*
X0375149Y0317000D01*
X0375004Y0317351D01*
X0375221Y0317851D01*
X0382500D01*
X0382959Y0318041D01*
X0383149Y0318500D01*
Y0325000D01*
X0382959Y0325459D01*
X0382500Y0325649D01*
X0379950D01*
Y0326000D01*
X0377500D01*
Y0328500D01*
X0377000Y0329000D01*
X0366676D01*
Y0328830D01*
X0366676D01*
X0366515Y0328397D01*
X0366351Y0328000D01*
Y0320721D01*
X0365889Y0320530D01*
X0363030Y0323389D01*
X0363221Y0323851D01*
X0363500D01*
X0363959Y0324041D01*
X0364149Y0324500D01*
Y0329500D01*
X0363959Y0329959D01*
X0363500Y0330149D01*
X0363258D01*
Y0330844D01*
X0363279Y0330876D01*
X0363403Y0331500D01*
X0363279Y0332124D01*
X0363258Y0332156D01*
Y0333183D01*
X0360286D01*
Y0332357D01*
X0360214Y0332275D01*
X0359714Y0332462D01*
Y0333183D01*
X0356743D01*
Y0332059D01*
X0354524D01*
X0354376Y0332029D01*
X0353257D01*
Y0332496D01*
X0351965D01*
Y0333496D01*
X0350965D01*
D01*
X0348996D01*
Y0335477D01*
X0348816D01*
X0348398Y0335676D01*
Y0336500D01*
X0346614D01*
Y0337500D01*
X0345614D01*
Y0339324D01*
X0344830D01*
Y0339124D01*
X0341802D01*
Y0335876D01*
X0342378D01*
Y0332029D01*
X0341719D01*
Y0331353D01*
X0341257Y0331161D01*
X0340824Y0331595D01*
Y0332114D01*
X0340086D01*
X0340000Y0332150D01*
X0339000D01*
Y0333114D01*
X0338000D01*
Y0334898D01*
X0337176D01*
Y0332895D01*
X0336714Y0332704D01*
X0325459Y0343959D01*
X0325000Y0344149D01*
D02*
G37*
G36*
X0419946Y0294429D02*
X0418866D01*
Y0292661D01*
X0419946D01*
Y0294429D01*
D02*
G37*
G36*
X0428013Y0297998D02*
X0424254D01*
Y0292861D01*
X0428013D01*
Y0297998D01*
D02*
G37*
G36*
X0517550Y0301102D02*
X0514000D01*
Y0297752D01*
X0517550D01*
Y0301102D01*
D02*
G37*
G36*
X0400898Y0302000D02*
X0400114D01*
Y0301176D01*
X0400898D01*
Y0302000D01*
D02*
G37*
G36*
X0512000Y0301102D02*
X0508450D01*
Y0297752D01*
X0512000D01*
Y0301102D01*
D02*
G37*
G36*
X0416866Y0298198D02*
X0415787D01*
Y0296429D01*
X0416866D01*
Y0298198D01*
D02*
G37*
G36*
X0419946D02*
X0418866D01*
Y0296429D01*
X0419946D01*
Y0298198D01*
D02*
G37*
G36*
Y0310571D02*
X0418866D01*
Y0308802D01*
X0419946D01*
Y0310571D01*
D02*
G37*
G36*
X0420500Y0238658D02*
X0417353D01*
Y0236988D01*
X0420500D01*
Y0238658D01*
D02*
G37*
G36*
X0517550Y0322050D02*
X0514000D01*
Y0318500D01*
X0517550D01*
Y0322050D01*
D02*
G37*
G36*
X0512000D02*
X0508450D01*
Y0318500D01*
X0512000D01*
Y0322050D01*
D02*
G37*
G36*
X0390824Y0315398D02*
X0390000D01*
Y0314614D01*
X0390824D01*
Y0315398D01*
D02*
G37*
G36*
X0414898Y0317500D02*
X0414114D01*
Y0316676D01*
X0414898D01*
Y0317500D01*
D02*
G37*
G36*
X0512000Y0327300D02*
X0508450D01*
Y0323950D01*
X0512000D01*
Y0327300D01*
D02*
G37*
G36*
X0517550D02*
X0514000D01*
Y0323950D01*
X0517550D01*
Y0327300D01*
D02*
G37*
G36*
X0490738Y0238915D02*
X0488581Y0236758D01*
X0489854Y0235486D01*
X0492010Y0237642D01*
X0490738Y0238915D01*
D02*
G37*
G36*
X0501500Y0319200D02*
X0498900D01*
Y0318700D01*
X0501500D01*
Y0319200D01*
D02*
G37*
G36*
X0506100D02*
X0503500D01*
Y0318700D01*
X0506100D01*
Y0319200D01*
D02*
G37*
G36*
X0388000Y0315398D02*
X0387176D01*
Y0314614D01*
X0388000D01*
Y0315398D01*
D02*
G37*
G36*
X0512000Y0316500D02*
X0508450D01*
Y0312950D01*
X0512000D01*
Y0316500D01*
D02*
G37*
G36*
X0517550D02*
X0514000D01*
Y0312950D01*
X0517550D01*
Y0316500D01*
D02*
G37*
G36*
X0419946Y0314339D02*
X0418866D01*
Y0312571D01*
X0419946D01*
Y0314339D01*
D02*
G37*
G36*
X0431000Y0309898D02*
X0430176D01*
Y0309114D01*
X0431000D01*
Y0309898D01*
D02*
G37*
G36*
X0416866Y0314339D02*
X0415787D01*
Y0312571D01*
X0416866D01*
Y0314339D01*
D02*
G37*
G36*
X0308500Y0318210D02*
X0308247Y0318177D01*
X0307079Y0317693D01*
X0306077Y0316923D01*
X0305307Y0315921D01*
X0304823Y0314753D01*
X0304790Y0314500D01*
X0308500D01*
Y0318210D01*
D02*
G37*
G36*
X0310500D02*
Y0314500D01*
X0314210D01*
X0314177Y0314753D01*
X0313693Y0315921D01*
X0312923Y0316923D01*
X0311921Y0317693D01*
X0310753Y0318177D01*
X0310500Y0318210D01*
D02*
G37*
G36*
X0292500D02*
Y0314500D01*
X0296210D01*
X0296177Y0314753D01*
X0295693Y0315921D01*
X0294923Y0316923D01*
X0293921Y0317693D01*
X0292753Y0318177D01*
X0292500Y0318210D01*
D02*
G37*
G36*
X0421886Y0315000D02*
X0421102D01*
Y0314176D01*
X0421886D01*
Y0315000D01*
D02*
G37*
G36*
X0290500Y0318210D02*
X0290247Y0318177D01*
X0289079Y0317693D01*
X0288077Y0316923D01*
X0287307Y0315921D01*
X0286824Y0314753D01*
X0286790Y0314500D01*
X0290500D01*
Y0318210D01*
D02*
G37*
G36*
X0517550Y0295752D02*
X0514000D01*
Y0292402D01*
X0517550D01*
Y0295752D01*
D02*
G37*
G36*
X0498837Y0263500D02*
X0493000D01*
Y0257663D01*
X0493353Y0257698D01*
X0494654Y0258092D01*
X0495853Y0258733D01*
X0496904Y0259596D01*
X0497767Y0260647D01*
X0498408Y0261846D01*
X0498803Y0263147D01*
X0498837Y0263500D01*
D02*
G37*
G36*
X0306837D02*
X0301000D01*
Y0257663D01*
X0301353Y0257698D01*
X0302654Y0258092D01*
X0303853Y0258733D01*
X0304904Y0259596D01*
X0305767Y0260647D01*
X0306408Y0261846D01*
X0306803Y0263147D01*
X0306837Y0263500D01*
D02*
G37*
G36*
X0491000D02*
X0485163D01*
X0485197Y0263147D01*
X0485592Y0261846D01*
X0486233Y0260647D01*
X0487096Y0259596D01*
X0488147Y0258733D01*
X0489346Y0258092D01*
X0490647Y0257698D01*
X0491000Y0257663D01*
Y0263500D01*
D02*
G37*
G36*
X0474258Y0254183D02*
X0471286D01*
Y0253689D01*
X0470786Y0253488D01*
X0470714Y0253563D01*
Y0254183D01*
X0467742D01*
Y0253156D01*
X0467721Y0253124D01*
X0467597Y0252500D01*
X0467721Y0251876D01*
X0467742Y0251844D01*
Y0250817D01*
X0470714D01*
Y0251311D01*
X0471214Y0251512D01*
X0471286Y0251437D01*
Y0250817D01*
X0471717D01*
X0471735Y0250724D01*
X0471979Y0250360D01*
X0475626Y0246713D01*
X0473697Y0244783D01*
X0477374Y0241106D01*
X0482819Y0246551D01*
X0479142Y0250228D01*
X0477212Y0248299D01*
X0474258Y0251254D01*
Y0251844D01*
X0474279Y0251876D01*
X0474403Y0252500D01*
X0474279Y0253124D01*
X0474258Y0253156D01*
Y0254183D01*
D02*
G37*
G36*
X0437898Y0256324D02*
X0437114D01*
Y0255500D01*
X0437898D01*
Y0256324D01*
D02*
G37*
G36*
X0445902Y0260000D02*
X0444921D01*
Y0258035D01*
X0445902D01*
Y0260000D01*
D02*
G37*
G36*
X0365000Y0261398D02*
X0364176D01*
Y0260614D01*
X0365000D01*
Y0261398D01*
D02*
G37*
G36*
X0442921Y0260000D02*
X0441940D01*
Y0258035D01*
X0442921D01*
Y0260000D01*
D02*
G37*
G36*
X0438000Y0260000D02*
X0437019D01*
Y0258035D01*
X0438000D01*
Y0260000D01*
D02*
G37*
G36*
X0440981D02*
X0440000D01*
Y0258035D01*
X0440981D01*
Y0260000D01*
D02*
G37*
G36*
X0437898Y0253500D02*
X0437114D01*
Y0252676D01*
X0437898D01*
Y0253500D01*
D02*
G37*
G36*
X0417324Y0241886D02*
X0416500D01*
Y0241102D01*
X0417324D01*
Y0241886D01*
D02*
G37*
G36*
X0324886Y0246910D02*
X0323906Y0245929D01*
X0323705Y0245795D01*
X0323571Y0245594D01*
X0322590Y0244614D01*
X0323683Y0243521D01*
X0323705Y0243488D01*
X0323738Y0243466D01*
X0324732Y0242472D01*
X0324590Y0242331D01*
X0325145Y0241776D01*
X0326434Y0243066D01*
X0327724Y0244355D01*
X0327169Y0244910D01*
X0327028Y0244768D01*
X0326034Y0245762D01*
X0326012Y0245795D01*
X0325979Y0245817D01*
X0324886Y0246910D01*
D02*
G37*
G36*
X0312897Y0250190D02*
X0309220Y0246513D01*
X0314665Y0241068D01*
X0318341Y0244745D01*
X0312897Y0250190D01*
D02*
G37*
G36*
X0488051Y0241602D02*
X0485894Y0239445D01*
X0487167Y0238173D01*
X0489323Y0240329D01*
X0488051Y0241602D01*
D02*
G37*
G36*
X0327141Y0240944D02*
X0326559Y0240362D01*
X0327114Y0239808D01*
X0327696Y0240390D01*
X0327141Y0240944D01*
D02*
G37*
G36*
X0368000Y0245886D02*
X0367176D01*
Y0245102D01*
X0368000D01*
Y0245886D01*
D02*
G37*
G36*
X0467114Y0247193D02*
X0466559Y0246638D01*
X0467141Y0246056D01*
X0467696Y0246610D01*
X0467114Y0247193D01*
D02*
G37*
G36*
X0469110Y0245196D02*
X0468556Y0244641D01*
X0469138Y0244059D01*
X0469693Y0244614D01*
X0469110Y0245196D01*
D02*
G37*
G36*
X0329138Y0242941D02*
X0328556Y0242359D01*
X0329110Y0241804D01*
X0329693Y0242387D01*
X0329138Y0242941D01*
D02*
G37*
G36*
X0453500Y0255631D02*
X0452876Y0255507D01*
X0452347Y0255153D01*
X0451993Y0254624D01*
X0451869Y0254000D01*
X0451993Y0253376D01*
X0452347Y0252847D01*
X0452876Y0252493D01*
X0453203Y0252428D01*
X0462918Y0242714D01*
X0462590Y0242387D01*
X0463571Y0241406D01*
X0463705Y0241205D01*
X0463906Y0241071D01*
X0464886Y0240090D01*
X0465979Y0241183D01*
X0466012Y0241205D01*
X0466034Y0241238D01*
X0467028Y0242232D01*
X0467169Y0242090D01*
X0467724Y0242645D01*
X0466434Y0243934D01*
X0465145Y0245224D01*
X0464716Y0244795D01*
X0464103Y0244700D01*
X0455077Y0253726D01*
X0455131Y0254000D01*
X0455007Y0254624D01*
X0454654Y0255153D01*
X0454124Y0255507D01*
X0453500Y0255631D01*
D02*
G37*
G36*
X0442921Y0263965D02*
X0441940D01*
Y0262000D01*
X0442921D01*
Y0263965D01*
D02*
G37*
G36*
X0371422Y0282934D02*
X0369850D01*
Y0281559D01*
X0371422D01*
Y0282934D01*
D02*
G37*
G36*
X0480824Y0284886D02*
X0480000D01*
Y0284102D01*
X0480824D01*
Y0284886D01*
D02*
G37*
G36*
X0364000Y0281398D02*
X0363176D01*
Y0280614D01*
X0364000D01*
Y0281398D01*
D02*
G37*
G36*
X0374150Y0277816D02*
X0372578D01*
Y0276441D01*
X0374150D01*
Y0277816D01*
D02*
G37*
G36*
X0371422Y0279559D02*
X0369850D01*
Y0278184D01*
X0371422D01*
Y0279559D01*
D02*
G37*
G36*
X0321750Y0296409D02*
X0309450D01*
Y0285709D01*
X0321750D01*
Y0296409D01*
D02*
G37*
G36*
X0512000Y0295752D02*
X0508450D01*
Y0292402D01*
X0512000D01*
Y0295752D01*
D02*
G37*
G36*
X0398324Y0285898D02*
X0397500D01*
Y0285114D01*
X0398324D01*
Y0285898D01*
D02*
G37*
G36*
X0444886Y0285000D02*
X0444102D01*
Y0284176D01*
X0444886D01*
Y0285000D01*
D02*
G37*
G36*
X0385000Y0285898D02*
X0384176D01*
Y0285114D01*
X0385000D01*
Y0285898D01*
D02*
G37*
G36*
X0445902Y0268661D02*
X0444921D01*
Y0266696D01*
X0445902D01*
Y0268661D01*
D02*
G37*
G36*
X0435860Y0263765D02*
X0432298D01*
Y0262122D01*
X0430939D01*
Y0263765D01*
X0427376D01*
Y0258235D01*
X0427564D01*
X0428036Y0258228D01*
X0428121Y0257799D01*
X0428364Y0257435D01*
X0431262Y0254538D01*
X0431254Y0254500D01*
X0431302Y0254263D01*
Y0252876D01*
X0432847D01*
X0432886Y0252869D01*
X0432925Y0252876D01*
X0434330D01*
Y0252676D01*
X0435114D01*
Y0254500D01*
Y0256324D01*
X0434330D01*
Y0256124D01*
X0432925D01*
X0432886Y0256131D01*
X0432848Y0256124D01*
X0431151Y0257821D01*
X0430939Y0258235D01*
X0430939D01*
X0430939Y0258235D01*
Y0259878D01*
X0432298D01*
Y0258235D01*
X0435860D01*
Y0263765D01*
D02*
G37*
G36*
X0416898Y0265824D02*
X0416114D01*
Y0265000D01*
X0416898D01*
Y0265824D01*
D02*
G37*
G36*
X0440981Y0263965D02*
X0440000D01*
Y0262000D01*
X0440981D01*
Y0263965D01*
D02*
G37*
G36*
X0445902D02*
X0444921D01*
Y0262000D01*
X0445902D01*
Y0263965D01*
D02*
G37*
G36*
X0438000D02*
X0437019D01*
Y0262000D01*
X0438000D01*
Y0263965D01*
D02*
G37*
G36*
X0301000Y0271337D02*
Y0265500D01*
X0306837D01*
X0306803Y0265853D01*
X0306408Y0267154D01*
X0305767Y0268353D01*
X0304904Y0269404D01*
X0303853Y0270267D01*
X0302654Y0270908D01*
X0301353Y0271303D01*
X0301000Y0271337D01*
D02*
G37*
G36*
X0442921Y0268661D02*
X0441940D01*
Y0266696D01*
X0442921D01*
Y0268661D01*
D02*
G37*
G36*
X0493000Y0271337D02*
Y0265500D01*
X0498837D01*
X0498803Y0265853D01*
X0498408Y0267154D01*
X0497767Y0268353D01*
X0496904Y0269404D01*
X0495853Y0270267D01*
X0494654Y0270908D01*
X0493353Y0271303D01*
X0493000Y0271337D01*
D02*
G37*
G36*
X0491000D02*
X0490647Y0271303D01*
X0489346Y0270908D01*
X0488147Y0270267D01*
X0487096Y0269404D01*
X0486233Y0268353D01*
X0485592Y0267154D01*
X0485197Y0265853D01*
X0485163Y0265500D01*
X0491000D01*
Y0271337D01*
D02*
G37*
G36*
X0299000D02*
X0298647Y0271303D01*
X0297346Y0270908D01*
X0296147Y0270267D01*
X0295096Y0269404D01*
X0294233Y0268353D01*
X0293592Y0267154D01*
X0293197Y0265853D01*
X0293163Y0265500D01*
X0299000D01*
Y0271337D01*
D02*
G37*
G36*
X0315687Y0224490D02*
X0314415Y0223217D01*
X0316571Y0221060D01*
X0317844Y0222333D01*
X0315687Y0224490D01*
D02*
G37*
G36*
X0462890Y0385196D02*
X0462308Y0384613D01*
X0462862Y0384059D01*
X0463444Y0384641D01*
X0462890Y0385196D01*
D02*
G37*
G36*
X0322862Y0382941D02*
X0322307Y0382386D01*
X0322890Y0381804D01*
X0323444Y0382359D01*
X0322862Y0382941D01*
D02*
G37*
G36*
X0324859Y0380944D02*
X0324304Y0380390D01*
X0324886Y0379807D01*
X0325441Y0380362D01*
X0324859Y0380944D01*
D02*
G37*
G36*
X0389458Y0382500D02*
X0388772D01*
Y0381617D01*
X0389458D01*
Y0382500D01*
D02*
G37*
G36*
X0302146Y0391514D02*
X0299990Y0389358D01*
X0301262Y0388085D01*
X0303419Y0390242D01*
X0302146Y0391514D01*
D02*
G37*
G36*
X0321945Y0223606D02*
X0320672Y0222333D01*
X0322829Y0220177D01*
X0324102Y0221449D01*
X0321945Y0223606D01*
D02*
G37*
G36*
X0464886Y0387193D02*
X0464304Y0386610D01*
X0464859Y0386056D01*
X0465441Y0386638D01*
X0464886Y0387193D01*
D02*
G37*
G36*
X0304833Y0388827D02*
X0302677Y0386671D01*
X0303949Y0385398D01*
X0306106Y0387555D01*
X0304833Y0388827D01*
D02*
G37*
G36*
X0486244Y0394841D02*
X0482568Y0391164D01*
X0488012Y0385719D01*
X0491689Y0389396D01*
X0486244Y0394841D01*
D02*
G37*
G36*
X0477335Y0385932D02*
X0473659Y0382255D01*
X0479103Y0376810D01*
X0482780Y0380487D01*
X0477335Y0385932D01*
D02*
G37*
G36*
X0400824Y0370886D02*
X0400000D01*
Y0370102D01*
X0400824D01*
Y0370886D01*
D02*
G37*
G36*
X0440758Y0377183D02*
X0437786D01*
Y0373817D01*
X0440758D01*
Y0374378D01*
X0441376D01*
Y0373530D01*
X0441376Y0373530D01*
Y0373470D01*
X0441376D01*
X0441376Y0372975D01*
X0441023Y0372621D01*
X0440758D01*
Y0373183D01*
X0437786D01*
Y0369817D01*
X0440758D01*
Y0370378D01*
X0441376D01*
Y0370302D01*
X0444624D01*
Y0371378D01*
X0445510D01*
Y0368455D01*
X0447056D01*
Y0367370D01*
X0446868Y0367183D01*
X0445286D01*
Y0366462D01*
X0444786Y0366275D01*
X0444714Y0366357D01*
Y0367183D01*
X0441743D01*
Y0366156D01*
X0441721Y0366124D01*
X0441597Y0365500D01*
X0441721Y0364876D01*
X0441743Y0364844D01*
Y0364099D01*
X0441743Y0363817D01*
X0441743D01*
X0441802Y0363624D01*
X0441802Y0363624D01*
Y0360376D01*
X0444830D01*
Y0360176D01*
X0445614D01*
Y0362000D01*
X0446614D01*
Y0363000D01*
X0448398D01*
Y0363824D01*
X0448257D01*
Y0365400D01*
X0448970Y0366112D01*
X0448970Y0366112D01*
X0449213Y0366476D01*
X0449299Y0366905D01*
X0449299Y0366906D01*
Y0368455D01*
X0450844D01*
Y0371014D01*
Y0373573D01*
Y0376545D01*
X0445510D01*
Y0376236D01*
X0444624D01*
Y0376698D01*
X0441376D01*
Y0376622D01*
X0440758D01*
Y0377183D01*
D02*
G37*
G36*
X0398000Y0370886D02*
X0397176D01*
Y0370102D01*
X0398000D01*
Y0370886D01*
D02*
G37*
G36*
X0456823Y0368941D02*
X0454956D01*
Y0368255D01*
X0456823D01*
Y0368941D01*
D02*
G37*
G36*
X0396383Y0370728D02*
X0395500D01*
Y0370042D01*
X0396383D01*
Y0370728D01*
D02*
G37*
G36*
X0327283Y0235803D02*
X0323606Y0232126D01*
X0329051Y0226681D01*
X0332728Y0230358D01*
X0327283Y0235803D01*
D02*
G37*
G36*
X0318374Y0227177D02*
X0317102Y0225904D01*
X0319258Y0223747D01*
X0320531Y0225020D01*
X0318374Y0227177D01*
D02*
G37*
G36*
X0466855Y0385224D02*
X0465566Y0383934D01*
X0464276Y0382645D01*
X0464831Y0382090D01*
X0464972Y0382232D01*
X0465966Y0381238D01*
X0465988Y0381205D01*
X0466021Y0381183D01*
X0466949Y0380255D01*
Y0374361D01*
X0466487Y0374170D01*
X0465250Y0375407D01*
X0464886Y0375650D01*
X0464624Y0375703D01*
Y0376198D01*
X0461376D01*
Y0376181D01*
X0460490D01*
Y0376545D01*
X0455156D01*
Y0374186D01*
X0454956D01*
Y0373500D01*
X0457823D01*
Y0371500D01*
X0454956D01*
Y0370941D01*
X0457823D01*
Y0369941D01*
X0458823D01*
Y0368255D01*
X0460690D01*
Y0369569D01*
X0461176Y0369602D01*
Y0369602D01*
X0462000D01*
Y0371386D01*
X0464000D01*
Y0369602D01*
X0464824D01*
Y0372008D01*
X0465286Y0372199D01*
X0466949Y0370535D01*
Y0363675D01*
X0466917Y0363653D01*
X0466564Y0363124D01*
X0466439Y0362500D01*
X0466564Y0361876D01*
X0466917Y0361347D01*
X0467447Y0360993D01*
X0468071Y0360869D01*
X0468695Y0360993D01*
X0469224Y0361347D01*
X0469578Y0361876D01*
X0469702Y0362500D01*
X0469578Y0363124D01*
X0469224Y0363653D01*
X0469192Y0363675D01*
Y0371000D01*
X0469192Y0371000D01*
X0469192Y0371000D01*
Y0381429D01*
X0469107Y0381858D01*
X0469017Y0381994D01*
X0469410Y0382386D01*
X0468317Y0383479D01*
X0468295Y0383512D01*
X0468262Y0383534D01*
X0467268Y0384528D01*
X0467410Y0384669D01*
X0466855Y0385224D01*
D02*
G37*
G36*
X0420500Y0399272D02*
Y0381728D01*
X0420567D01*
Y0380012D01*
X0420500Y0379808D01*
Y0374428D01*
X0417367D01*
X0417541Y0373959D01*
X0417351Y0373500D01*
Y0362000D01*
X0417541Y0361541D01*
X0418000Y0361351D01*
X0433500D01*
X0433959Y0361541D01*
X0434149Y0362000D01*
Y0369356D01*
X0434242Y0369817D01*
X0437214D01*
Y0373183D01*
X0434242D01*
Y0372621D01*
X0433297D01*
X0432245Y0373673D01*
X0431991Y0374000D01*
X0432245Y0374327D01*
X0432297Y0374378D01*
X0434242D01*
Y0373817D01*
X0437214D01*
Y0377183D01*
X0434242D01*
Y0376622D01*
X0433649D01*
X0433649Y0390000D01*
X0433459Y0390459D01*
X0433000Y0390649D01*
X0432258D01*
Y0393401D01*
X0432258Y0393683D01*
X0432258D01*
X0432198Y0393876D01*
X0432198Y0393876D01*
Y0397124D01*
X0429030D01*
Y0397124D01*
X0428970D01*
Y0397124D01*
X0425802D01*
Y0396346D01*
X0424258D01*
Y0397793D01*
X0424045D01*
X0423984Y0398101D01*
X0423630Y0398630D01*
X0423101Y0398984D01*
X0422476Y0399108D01*
X0421852Y0398984D01*
X0421631Y0398836D01*
X0421131Y0399103D01*
Y0399272D01*
X0420500D01*
D02*
G37*
G36*
X0464755Y0235841D02*
X0459310Y0230397D01*
X0462987Y0226720D01*
X0468432Y0232165D01*
X0464755Y0235841D01*
D02*
G37*
G36*
X0308404Y0392398D02*
X0306247Y0390242D01*
X0307520Y0388969D01*
X0309677Y0391126D01*
X0308404Y0392398D01*
D02*
G37*
G36*
X0342683Y0413758D02*
X0339317D01*
Y0410786D01*
X0342683D01*
Y0411150D01*
X0343723D01*
Y0407498D01*
X0349254D01*
Y0413502D01*
X0343723D01*
Y0413393D01*
X0342683D01*
Y0413758D01*
D02*
G37*
G36*
X0319258Y0220919D02*
X0317986Y0219646D01*
X0320142Y0217490D01*
X0321415Y0218762D01*
X0319258Y0220919D01*
D02*
G37*
G36*
X0362000Y0407886D02*
X0361176D01*
Y0407102D01*
X0362000D01*
Y0407886D01*
D02*
G37*
G36*
X0379265Y0404957D02*
X0378383D01*
Y0404272D01*
X0379265D01*
Y0404957D01*
D02*
G37*
G36*
X0471858Y0409510D02*
X0470585Y0408238D01*
X0472742Y0406081D01*
X0474015Y0407354D01*
X0471858Y0409510D01*
D02*
G37*
G36*
X0406249Y0431500D02*
X0404087D01*
Y0428157D01*
X0406249D01*
Y0431500D01*
D02*
G37*
G36*
X0411614Y0431324D02*
X0410830D01*
Y0431124D01*
X0409425D01*
X0409386Y0431131D01*
X0409347Y0431124D01*
X0407802D01*
Y0429737D01*
X0407755Y0429500D01*
X0407802Y0429263D01*
Y0427876D01*
X0408402D01*
Y0424293D01*
X0407743D01*
Y0421343D01*
X0407543D01*
Y0420529D01*
X0407081Y0420338D01*
X0405959Y0421459D01*
X0405500Y0421649D01*
X0396500D01*
X0396041Y0421459D01*
X0395959Y0421459D01*
X0395500Y0421649D01*
X0391000D01*
X0390541Y0421459D01*
X0390351Y0421000D01*
Y0388500D01*
X0390541Y0388041D01*
X0391000Y0387851D01*
X0392876D01*
Y0385302D01*
X0393378D01*
Y0384258D01*
X0392817D01*
X0392817Y0381485D01*
X0392502Y0381152D01*
X0392392Y0381105D01*
X0392041Y0380959D01*
X0389332Y0378251D01*
X0388871Y0378497D01*
X0388932Y0378800D01*
X0388808Y0379425D01*
X0388454Y0379954D01*
X0387925Y0380308D01*
X0387300Y0380432D01*
X0387121Y0380396D01*
X0386635Y0380499D01*
X0386580Y0380759D01*
X0386507Y0381124D01*
X0386472Y0381176D01*
X0386708Y0381617D01*
X0386772D01*
Y0383500D01*
X0387772D01*
Y0384500D01*
X0389458D01*
Y0385383D01*
X0389258D01*
Y0386344D01*
X0389279Y0386376D01*
X0389403Y0387000D01*
X0389279Y0387624D01*
X0389258Y0387656D01*
Y0388683D01*
X0389258D01*
Y0388817D01*
X0389258D01*
Y0389844D01*
X0389279Y0389876D01*
X0389403Y0390500D01*
X0389279Y0391124D01*
X0389258Y0391156D01*
Y0392176D01*
X0389398D01*
Y0393000D01*
X0387614D01*
Y0395000D01*
X0389398D01*
Y0395617D01*
X0389458D01*
Y0396500D01*
X0387772D01*
Y0397500D01*
X0386772D01*
Y0399383D01*
X0386086D01*
Y0399383D01*
X0385714Y0399183D01*
X0382743D01*
Y0396099D01*
X0382743Y0395817D01*
X0382743D01*
X0382802Y0395624D01*
X0382802Y0395624D01*
Y0392376D01*
X0382802D01*
X0382743Y0392183D01*
X0382743Y0392183D01*
X0382743Y0391901D01*
Y0390624D01*
X0382116Y0389998D01*
X0381654Y0390190D01*
Y0391327D01*
X0379181D01*
Y0392327D01*
X0378181D01*
Y0393619D01*
X0377419D01*
Y0395033D01*
X0377448Y0395181D01*
Y0398242D01*
X0379065D01*
Y0401214D01*
X0379265Y0401586D01*
X0379265D01*
Y0402272D01*
X0377383D01*
Y0403272D01*
X0376383D01*
Y0404957D01*
X0376174D01*
X0376050Y0405582D01*
X0375696Y0406111D01*
X0375167Y0406465D01*
X0374542Y0406589D01*
X0374011Y0406483D01*
X0373511Y0406748D01*
Y0407338D01*
X0373511Y0407339D01*
X0373426Y0407768D01*
X0373183Y0408132D01*
X0373183Y0408132D01*
X0372683Y0408632D01*
Y0410214D01*
X0369383D01*
X0369317Y0410214D01*
X0369074Y0410302D01*
X0368888Y0410767D01*
X0369317Y0410786D01*
X0369317Y0410786D01*
X0372683D01*
Y0413758D01*
X0369317D01*
Y0413393D01*
X0368683D01*
Y0413758D01*
X0365317D01*
Y0413393D01*
X0364624D01*
Y0413698D01*
X0361376D01*
Y0413236D01*
X0360277D01*
Y0413502D01*
X0354747D01*
Y0407498D01*
X0360277D01*
Y0410993D01*
X0360810D01*
X0361176Y0410670D01*
Y0409886D01*
X0363000D01*
Y0408886D01*
X0364000D01*
Y0407102D01*
X0364642D01*
X0365117Y0407043D01*
X0365299Y0407043D01*
X0366000D01*
Y0408728D01*
X0368000D01*
Y0407043D01*
X0368883D01*
Y0407085D01*
X0369317Y0407242D01*
X0369383Y0407242D01*
X0370900D01*
X0371268Y0406874D01*
Y0397454D01*
X0369574D01*
Y0398242D01*
X0370183D01*
Y0401214D01*
X0369462D01*
X0369275Y0401714D01*
X0369357Y0401786D01*
X0370183D01*
Y0404757D01*
X0369156D01*
X0369124Y0404779D01*
X0368500Y0404903D01*
X0367876Y0404779D01*
X0367844Y0404757D01*
X0366817D01*
Y0401786D01*
X0367643D01*
X0367725Y0401714D01*
X0367538Y0401214D01*
X0366817D01*
Y0398242D01*
X0367331D01*
Y0397454D01*
X0366423D01*
X0366106Y0397841D01*
X0366131Y0397969D01*
X0366007Y0398593D01*
X0365653Y0399122D01*
X0365124Y0399476D01*
X0364500Y0399600D01*
X0363876Y0399476D01*
X0363347Y0399122D01*
X0362993Y0398593D01*
X0362869Y0397969D01*
X0362894Y0397841D01*
X0362577Y0397454D01*
X0359732D01*
Y0398242D01*
X0361183D01*
Y0401214D01*
X0359155D01*
X0358903Y0401714D01*
X0358956Y0401786D01*
X0361183D01*
Y0404757D01*
X0357817D01*
Y0404757D01*
X0357500Y0404649D01*
X0357183Y0404757D01*
Y0404757D01*
X0353817D01*
Y0401786D01*
X0356044D01*
X0356097Y0401714D01*
X0355845Y0401214D01*
X0353817D01*
Y0400091D01*
X0353317Y0399833D01*
X0353183Y0399929D01*
Y0401214D01*
X0352462D01*
X0352275Y0401714D01*
X0352357Y0401786D01*
X0353183D01*
Y0404757D01*
X0352156D01*
X0352124Y0404779D01*
X0351500Y0404903D01*
X0350876Y0404779D01*
X0350844Y0404757D01*
X0349817D01*
Y0404757D01*
X0349683D01*
Y0404757D01*
X0346317D01*
X0346317Y0401831D01*
X0346117Y0401414D01*
X0346117Y0401369D01*
Y0400728D01*
X0348000D01*
Y0398728D01*
X0346117D01*
Y0398042D01*
X0345786Y0397683D01*
X0345786D01*
Y0396962D01*
X0345286Y0396775D01*
X0345214Y0396857D01*
Y0397683D01*
X0342243D01*
X0342122Y0398133D01*
Y0407242D01*
X0342683D01*
Y0410214D01*
X0339317D01*
Y0407242D01*
X0339879D01*
Y0380000D01*
X0339878Y0380000D01*
X0339964Y0379571D01*
X0340207Y0379207D01*
X0344670Y0374744D01*
X0344351Y0374356D01*
X0344124Y0374507D01*
X0343500Y0374631D01*
X0342876Y0374507D01*
X0342347Y0374153D01*
X0342325Y0374121D01*
X0339247D01*
X0329082Y0384286D01*
X0329410Y0384613D01*
X0328429Y0385594D01*
X0328295Y0385795D01*
X0328094Y0385929D01*
X0327114Y0386910D01*
X0326021Y0385817D01*
X0325988Y0385795D01*
X0325966Y0385762D01*
X0324972Y0384768D01*
X0324831Y0384910D01*
X0324276Y0384355D01*
X0325566Y0383066D01*
X0326855Y0381776D01*
X0327410Y0382331D01*
X0327897Y0382300D01*
X0337990Y0372207D01*
X0337990Y0372207D01*
X0338354Y0371964D01*
X0338783Y0371878D01*
X0338783Y0371879D01*
X0342325D01*
X0342347Y0371847D01*
X0342876Y0371493D01*
X0343500Y0371369D01*
X0344124Y0371493D01*
X0344654Y0371847D01*
X0345007Y0372376D01*
X0345131Y0373000D01*
X0345007Y0373624D01*
X0344855Y0373851D01*
X0345244Y0374170D01*
X0345597Y0373817D01*
X0345597Y0373817D01*
X0345961Y0373574D01*
X0346390Y0373489D01*
X0346390Y0373489D01*
X0349546D01*
Y0369581D01*
X0353581D01*
Y0365546D01*
X0363306D01*
X0363498Y0365084D01*
X0362671Y0364258D01*
X0361317D01*
Y0361286D01*
X0361117Y0360914D01*
X0361117D01*
Y0360228D01*
X0363000D01*
Y0359228D01*
X0364000D01*
Y0357542D01*
X0364883D01*
Y0357602D01*
X0365500D01*
Y0359386D01*
X0367500D01*
Y0357602D01*
X0369000D01*
Y0359386D01*
X0371000D01*
Y0357602D01*
X0371547D01*
X0371743Y0357183D01*
Y0353817D01*
X0374714D01*
Y0354538D01*
X0375214Y0354725D01*
X0375286Y0354643D01*
Y0353817D01*
X0378257D01*
Y0354844D01*
X0378279Y0354876D01*
X0378403Y0355500D01*
X0378279Y0356124D01*
X0378257Y0356156D01*
Y0357176D01*
X0378398D01*
Y0359302D01*
X0379763D01*
X0380000Y0359255D01*
X0380237Y0359302D01*
X0381624D01*
X0381676Y0359102D01*
X0382500D01*
Y0360886D01*
X0383500D01*
Y0361886D01*
X0385324D01*
Y0362670D01*
X0385124D01*
Y0365698D01*
X0381876D01*
Y0365698D01*
X0381624D01*
Y0365698D01*
X0379726D01*
X0379490Y0365745D01*
X0379490Y0365745D01*
X0377619D01*
Y0366819D01*
X0376327D01*
Y0368819D01*
X0377619D01*
Y0369581D01*
X0379033D01*
X0379181Y0369552D01*
X0380709D01*
X0380847Y0369346D01*
X0381376Y0368993D01*
X0382000Y0368869D01*
X0382624Y0368993D01*
X0383154Y0369346D01*
X0383507Y0369876D01*
X0383631Y0370500D01*
X0383528Y0371020D01*
X0383798Y0371520D01*
X0384142D01*
X0384142Y0371520D01*
X0384571Y0371605D01*
X0384935Y0371849D01*
X0384962Y0371876D01*
X0385000Y0371869D01*
X0385250Y0371918D01*
X0385742Y0371516D01*
Y0370317D01*
X0388714D01*
X0389086Y0370117D01*
Y0370117D01*
X0389772D01*
Y0372000D01*
X0391772D01*
Y0370117D01*
X0392458D01*
X0392617Y0370042D01*
Y0370042D01*
X0393500D01*
Y0371728D01*
X0394500D01*
Y0372728D01*
X0396383D01*
Y0373351D01*
X0397176D01*
Y0372886D01*
X0399000D01*
X0400824D01*
Y0373485D01*
X0400959Y0373541D01*
X0401149Y0374000D01*
Y0380500D01*
X0400959Y0380959D01*
X0400683Y0381286D01*
Y0384258D01*
X0399656D01*
X0399624Y0384279D01*
X0399000Y0384403D01*
X0398376Y0384279D01*
X0398344Y0384258D01*
X0397317D01*
Y0381286D01*
X0396874Y0381149D01*
X0396626D01*
X0396183Y0381286D01*
X0396183Y0381649D01*
Y0384258D01*
X0395621D01*
Y0385302D01*
X0396124D01*
Y0387851D01*
X0399500D01*
X0399523Y0387860D01*
X0400041Y0387541D01*
X0403974Y0383608D01*
X0403786Y0383089D01*
X0403376Y0383007D01*
X0402846Y0382653D01*
X0402493Y0382124D01*
X0402369Y0381500D01*
X0402493Y0380876D01*
X0402846Y0380346D01*
X0403376Y0379993D01*
X0404000Y0379869D01*
X0404624Y0379993D01*
X0405154Y0380346D01*
X0405507Y0380876D01*
X0405631Y0381500D01*
X0405507Y0382124D01*
X0405501Y0382134D01*
X0405768Y0382634D01*
X0410783D01*
X0410869Y0382577D01*
Y0381728D01*
X0411614D01*
Y0399272D01*
X0410869D01*
X0410645Y0399680D01*
Y0400753D01*
X0410830Y0401176D01*
X0411614D01*
Y0403000D01*
Y0404824D01*
X0410830D01*
Y0404624D01*
X0409425D01*
X0409386Y0404631D01*
X0409347Y0404624D01*
X0407802D01*
X0407649Y0405061D01*
Y0407851D01*
X0408004Y0408351D01*
X0410869D01*
Y0408228D01*
X0411614D01*
Y0425772D01*
X0410869D01*
X0410645Y0426180D01*
Y0427253D01*
X0410830Y0427676D01*
X0411614D01*
Y0429500D01*
Y0431324D01*
D02*
G37*
G36*
X0402087Y0431500D02*
X0399924D01*
Y0428157D01*
X0402087D01*
Y0431500D01*
D02*
G37*
G36*
X0387913D02*
X0385751D01*
Y0428157D01*
X0387913D01*
Y0431500D01*
D02*
G37*
G36*
X0392076D02*
X0389913D01*
Y0428157D01*
X0392076D01*
Y0431500D01*
D02*
G37*
G36*
X0469171Y0406823D02*
X0467898Y0405551D01*
X0470055Y0403394D01*
X0471327Y0404667D01*
X0469171Y0406823D01*
D02*
G37*
G36*
X0381654Y0393619D02*
X0380181D01*
Y0393327D01*
X0381654D01*
Y0393619D01*
D02*
G37*
G36*
X0389458Y0399383D02*
X0388772D01*
Y0398500D01*
X0389458D01*
Y0399383D01*
D02*
G37*
G36*
X0305717Y0395085D02*
X0303560Y0392929D01*
X0304833Y0391656D01*
X0306990Y0393813D01*
X0305717Y0395085D01*
D02*
G37*
G36*
X0329013Y0400280D02*
X0323568Y0394835D01*
X0327245Y0391159D01*
X0332690Y0396603D01*
X0329013Y0400280D01*
D02*
G37*
G36*
X0462949Y0400319D02*
X0459272Y0396642D01*
X0464717Y0391197D01*
X0468394Y0394874D01*
X0462949Y0400319D01*
D02*
G37*
G36*
X0473664Y0226933D02*
X0468219Y0221488D01*
X0471896Y0217811D01*
X0477341Y0223256D01*
X0473664Y0226933D01*
D02*
G37*
G36*
X0475429Y0405939D02*
X0474156Y0404667D01*
X0476313Y0402510D01*
X0477585Y0403783D01*
X0475429Y0405939D01*
D02*
G37*
G36*
X0420500Y0425772D02*
Y0408228D01*
X0420567D01*
Y0406512D01*
X0420500Y0406308D01*
Y0400841D01*
X0420748Y0400563D01*
X0420757Y0400541D01*
X0421216Y0400351D01*
X0433000Y0400351D01*
X0433459Y0400541D01*
X0433649Y0401000D01*
X0433649Y0416500D01*
X0433459Y0416959D01*
X0433000Y0417149D01*
X0432258D01*
Y0419901D01*
X0432258Y0420183D01*
X0432258D01*
X0432198Y0420376D01*
X0432198Y0420376D01*
Y0423624D01*
X0429030D01*
Y0423624D01*
X0428970D01*
Y0423624D01*
X0425802D01*
Y0422846D01*
X0424258D01*
Y0424293D01*
X0424045D01*
X0423984Y0424601D01*
X0423630Y0425130D01*
X0423101Y0425484D01*
X0422476Y0425608D01*
X0421852Y0425484D01*
X0421631Y0425336D01*
X0421131Y0425603D01*
Y0425772D01*
X0420500D01*
D02*
G37*
G36*
X0472742Y0403253D02*
X0471469Y0401980D01*
X0473626Y0399823D01*
X0474898Y0401096D01*
X0472742Y0403253D01*
D02*
G37*
G36*
X0320104Y0409189D02*
X0314659Y0403744D01*
X0318336Y0400067D01*
X0323781Y0405512D01*
X0320104Y0409189D01*
D02*
G37*
G36*
X0493000Y0369337D02*
Y0363500D01*
X0498837D01*
X0498803Y0363853D01*
X0498408Y0365154D01*
X0497767Y0366353D01*
X0496904Y0367404D01*
X0495853Y0368267D01*
X0494654Y0368908D01*
X0493353Y0369303D01*
X0493000Y0369337D01*
D02*
G37*
G36*
X0425886Y0339324D02*
X0425102D01*
Y0338500D01*
X0425886D01*
Y0339324D01*
D02*
G37*
G36*
X0348398D02*
X0347614D01*
Y0338500D01*
X0348398D01*
Y0339324D01*
D02*
G37*
G36*
X0420500Y0234988D02*
X0417353D01*
Y0233318D01*
X0420500D01*
Y0234988D01*
D02*
G37*
G36*
X0486114Y0334324D02*
X0485330D01*
Y0334124D01*
X0483925D01*
X0483886Y0334131D01*
X0483847Y0334124D01*
X0482302D01*
Y0332737D01*
X0482255Y0332500D01*
X0482302Y0332263D01*
Y0330876D01*
X0482764D01*
Y0329385D01*
X0481252D01*
X0481212Y0329377D01*
X0478693D01*
X0478267Y0329292D01*
X0477906Y0329051D01*
X0477664Y0328690D01*
X0477579Y0328264D01*
X0477664Y0327838D01*
X0477906Y0327476D01*
Y0327083D01*
X0477664Y0326721D01*
X0477579Y0326295D01*
X0477664Y0325869D01*
X0477810Y0325651D01*
X0477870Y0325311D01*
X0477810Y0324971D01*
X0477664Y0324753D01*
X0477579Y0324327D01*
X0477664Y0323901D01*
X0477906Y0323539D01*
Y0323146D01*
X0477664Y0322784D01*
X0477579Y0322358D01*
X0477664Y0321932D01*
X0477906Y0321571D01*
Y0321177D01*
X0477664Y0320816D01*
X0477579Y0320390D01*
X0477664Y0319964D01*
X0477906Y0319602D01*
Y0319209D01*
X0477664Y0318847D01*
X0477579Y0318421D01*
X0477664Y0317995D01*
X0477906Y0317634D01*
Y0317240D01*
X0477664Y0316879D01*
X0477579Y0316453D01*
X0477664Y0316027D01*
X0477810Y0315809D01*
X0477870Y0315469D01*
X0477810Y0315128D01*
X0477664Y0314910D01*
X0477579Y0314484D01*
X0477664Y0314058D01*
X0477906Y0313697D01*
Y0313303D01*
X0477664Y0312942D01*
X0477579Y0312516D01*
X0477664Y0312090D01*
X0477906Y0311728D01*
Y0311335D01*
X0477664Y0310973D01*
X0477579Y0310547D01*
X0477664Y0310121D01*
X0477906Y0309760D01*
Y0309366D01*
X0477664Y0309005D01*
X0477579Y0308579D01*
X0477664Y0308153D01*
X0477906Y0307791D01*
Y0307398D01*
X0477664Y0307036D01*
X0477579Y0306610D01*
X0477664Y0306184D01*
X0477906Y0305823D01*
Y0305429D01*
X0477664Y0305068D01*
X0477579Y0304642D01*
X0477664Y0304216D01*
X0477906Y0303854D01*
Y0303461D01*
X0477664Y0303099D01*
X0477579Y0302673D01*
X0477664Y0302247D01*
X0477906Y0301886D01*
Y0301492D01*
X0477664Y0301131D01*
X0477579Y0300705D01*
X0477664Y0300279D01*
X0477906Y0299917D01*
Y0299524D01*
X0477664Y0299162D01*
X0477579Y0298736D01*
X0477664Y0298310D01*
X0477906Y0297949D01*
X0478267Y0297708D01*
X0478693Y0297623D01*
X0483811D01*
X0484237Y0297708D01*
X0484598Y0297949D01*
X0484840Y0298310D01*
X0484925Y0298736D01*
X0484840Y0299162D01*
X0484598Y0299524D01*
Y0299917D01*
X0484840Y0300279D01*
X0484925Y0300705D01*
X0484840Y0301131D01*
X0484598Y0301492D01*
Y0301886D01*
X0484840Y0302247D01*
X0484925Y0302673D01*
X0484840Y0303099D01*
X0484598Y0303461D01*
Y0303854D01*
X0484840Y0304216D01*
X0484925Y0304642D01*
X0484856Y0304989D01*
X0484980Y0305253D01*
X0485160Y0305489D01*
X0489425D01*
X0494878Y0300035D01*
Y0289675D01*
X0494846Y0289653D01*
X0494493Y0289124D01*
X0494369Y0288500D01*
X0494493Y0287876D01*
X0494846Y0287347D01*
X0495376Y0286993D01*
X0496000Y0286869D01*
X0496624Y0286993D01*
X0497154Y0287347D01*
X0497507Y0287876D01*
X0497631Y0288500D01*
X0497507Y0289124D01*
X0497154Y0289653D01*
X0497122Y0289675D01*
Y0300085D01*
X0497622Y0300292D01*
X0498878Y0299035D01*
Y0289675D01*
X0498846Y0289653D01*
X0498493Y0289124D01*
X0498369Y0288500D01*
X0498493Y0287876D01*
X0498846Y0287347D01*
X0499376Y0286993D01*
X0500000Y0286869D01*
X0500624Y0286993D01*
X0501154Y0287347D01*
X0501507Y0287876D01*
X0501631Y0288500D01*
X0501507Y0289124D01*
X0501154Y0289653D01*
X0501122Y0289675D01*
Y0299500D01*
X0501122Y0299500D01*
X0501036Y0299929D01*
X0500793Y0300293D01*
X0489769Y0311317D01*
X0489976Y0311817D01*
X0490146Y0311817D01*
X0492714D01*
Y0314817D01*
X0492714Y0315183D01*
X0492714D01*
Y0315317D01*
X0492714D01*
Y0318683D01*
X0491132D01*
X0486663Y0323151D01*
X0486299Y0323394D01*
X0485870Y0323480D01*
X0485870Y0323480D01*
X0485369D01*
X0485060Y0323939D01*
X0485064Y0323946D01*
X0485376Y0324302D01*
X0485376Y0324302D01*
X0485376Y0324302D01*
X0488624D01*
Y0327330D01*
X0488824D01*
Y0328114D01*
X0487000D01*
Y0330114D01*
X0488824D01*
Y0330676D01*
X0488898D01*
Y0331500D01*
X0487114D01*
Y0332500D01*
X0486114D01*
Y0334324D01*
D02*
G37*
G36*
X0353257Y0335477D02*
X0352965D01*
Y0334496D01*
X0353257D01*
Y0335477D01*
D02*
G37*
G36*
X0346028Y0346500D02*
X0344850D01*
Y0345125D01*
X0346028D01*
Y0346500D01*
D02*
G37*
G36*
X0355500Y0350903D02*
X0354876Y0350779D01*
X0354844Y0350758D01*
X0353817D01*
Y0347786D01*
X0354643D01*
X0354725Y0347714D01*
X0354538Y0347214D01*
X0353817D01*
Y0346850D01*
X0352386D01*
X0352128Y0347108D01*
Y0349675D01*
X0348172D01*
Y0345325D01*
X0350738D01*
X0351128Y0344935D01*
X0351128Y0344935D01*
X0351492Y0344692D01*
X0351921Y0344607D01*
X0351921Y0344607D01*
X0353817D01*
Y0344243D01*
X0357183D01*
Y0347214D01*
X0356462D01*
X0356275Y0347714D01*
X0356357Y0347786D01*
X0357183D01*
Y0348150D01*
X0363250D01*
X0363351Y0348000D01*
X0363351Y0336000D01*
X0363541Y0335541D01*
X0364000Y0335351D01*
X0366676D01*
Y0335000D01*
X0369500D01*
X0371500Y0333000D01*
X0379950D01*
Y0333537D01*
X0379959Y0333541D01*
X0382459Y0336041D01*
X0382649Y0336500D01*
Y0343500D01*
X0382459Y0343959D01*
X0382000Y0344149D01*
X0377500D01*
X0377149Y0344004D01*
X0376649Y0344221D01*
Y0348000D01*
X0376750Y0348150D01*
X0439264D01*
X0447552Y0339862D01*
Y0339355D01*
X0447052Y0339059D01*
X0446705Y0339128D01*
X0446201Y0339028D01*
X0445950Y0338861D01*
X0445524Y0338598D01*
X0445162Y0338840D01*
X0444736Y0338925D01*
X0444310Y0338840D01*
X0443949Y0338598D01*
X0443708Y0338237D01*
X0443623Y0337811D01*
Y0337507D01*
X0442190D01*
X0441824Y0337830D01*
Y0338614D01*
X0440000D01*
Y0339614D01*
X0439000D01*
Y0341398D01*
X0437500D01*
Y0339614D01*
X0436500D01*
Y0338614D01*
X0434676D01*
Y0337830D01*
X0434876D01*
Y0336425D01*
X0434869Y0336386D01*
X0434876Y0336347D01*
Y0334802D01*
X0436263D01*
X0436500Y0334754D01*
X0436626Y0334270D01*
Y0329377D01*
X0435189D01*
X0434763Y0329292D01*
X0434402Y0329051D01*
X0434278Y0328867D01*
X0434106Y0328805D01*
X0433771Y0328783D01*
X0433681Y0328805D01*
X0431900Y0330586D01*
Y0336100D01*
X0431698D01*
Y0339124D01*
X0428670D01*
Y0339324D01*
X0427886D01*
Y0337500D01*
X0426886D01*
Y0336500D01*
X0425102D01*
Y0336100D01*
X0424400D01*
Y0329400D01*
X0429914D01*
X0431878Y0327435D01*
Y0326800D01*
X0429150D01*
Y0323250D01*
X0428150D01*
Y0322250D01*
X0424200D01*
Y0319700D01*
X0423765Y0319543D01*
X0418543D01*
X0415600Y0322486D01*
Y0326600D01*
X0408100D01*
Y0319900D01*
X0408302D01*
Y0316876D01*
X0411330D01*
Y0316676D01*
X0412114D01*
Y0318500D01*
X0413114D01*
Y0319500D01*
X0415361D01*
X0415398Y0319515D01*
X0417286Y0317628D01*
X0417650Y0317385D01*
X0418079Y0317300D01*
X0418079Y0317300D01*
X0421102D01*
Y0317000D01*
X0422886D01*
Y0316000D01*
X0423886D01*
Y0314145D01*
X0424254Y0313973D01*
X0424254D01*
Y0309002D01*
X0428013D01*
Y0314139D01*
X0428013D01*
X0427698Y0314376D01*
Y0315331D01*
X0433840D01*
X0434020Y0315095D01*
X0434144Y0314831D01*
X0434075Y0314484D01*
X0434160Y0314058D01*
X0434402Y0313697D01*
Y0313303D01*
X0434160Y0312942D01*
X0434075Y0312516D01*
X0434160Y0312090D01*
X0434402Y0311728D01*
Y0311335D01*
X0434160Y0310973D01*
X0434075Y0310547D01*
X0434117Y0310336D01*
X0434130Y0310271D01*
X0433776Y0309920D01*
X0433734Y0309898D01*
X0433377Y0309898D01*
X0433000D01*
Y0308114D01*
X0432000D01*
Y0307114D01*
X0430176D01*
Y0306330D01*
X0430376D01*
Y0303302D01*
X0430878D01*
Y0302675D01*
X0430847Y0302654D01*
X0430493Y0302124D01*
X0430369Y0301500D01*
X0430493Y0300876D01*
X0430847Y0300346D01*
X0431376Y0299993D01*
X0432000Y0299869D01*
X0432624Y0299993D01*
X0433153Y0300346D01*
X0433507Y0300876D01*
X0433631Y0301500D01*
X0433507Y0302124D01*
X0433153Y0302654D01*
X0433122Y0302675D01*
Y0303302D01*
X0433624D01*
X0433624Y0303302D01*
X0434071Y0303175D01*
X0434144Y0303020D01*
X0434075Y0302673D01*
X0434160Y0302247D01*
X0434402Y0301886D01*
Y0301492D01*
X0434160Y0301131D01*
X0434075Y0300705D01*
X0434160Y0300279D01*
X0434402Y0299917D01*
Y0299524D01*
X0434160Y0299162D01*
X0434075Y0298736D01*
X0434160Y0298310D01*
X0434402Y0297949D01*
X0434763Y0297708D01*
X0435189Y0297623D01*
X0440307D01*
X0440733Y0297708D01*
X0441094Y0297949D01*
X0441336Y0298310D01*
X0441421Y0298736D01*
X0441405Y0298813D01*
X0441421Y0299073D01*
X0442045Y0299198D01*
X0442574Y0299551D01*
X0442928Y0300080D01*
X0443052Y0300705D01*
X0442928Y0301329D01*
X0442574Y0301858D01*
X0442045Y0302212D01*
X0441421Y0302336D01*
X0441405Y0302597D01*
X0441421Y0302673D01*
X0441336Y0303099D01*
X0441094Y0303461D01*
Y0303854D01*
X0441336Y0304216D01*
X0441421Y0304642D01*
X0441336Y0305068D01*
X0441094Y0305429D01*
X0441357Y0305855D01*
X0441524Y0306106D01*
X0441624Y0306610D01*
X0441524Y0307114D01*
X0441357Y0307365D01*
X0441094Y0307791D01*
X0441336Y0308153D01*
X0441421Y0308579D01*
X0441336Y0309005D01*
X0441094Y0309366D01*
Y0309760D01*
X0441336Y0310121D01*
X0441421Y0310547D01*
X0441336Y0310973D01*
X0441094Y0311335D01*
Y0311728D01*
X0441336Y0312090D01*
X0441421Y0312516D01*
X0441336Y0312942D01*
X0441094Y0313303D01*
Y0313697D01*
X0441336Y0314058D01*
X0441421Y0314484D01*
X0441336Y0314910D01*
X0441094Y0315272D01*
Y0315665D01*
X0441336Y0316027D01*
X0441421Y0316453D01*
X0441336Y0316879D01*
X0441094Y0317240D01*
Y0317634D01*
X0441336Y0317995D01*
X0441421Y0318421D01*
X0441336Y0318847D01*
X0441094Y0319209D01*
Y0319602D01*
X0441336Y0319964D01*
X0441421Y0320390D01*
X0441336Y0320816D01*
X0441094Y0321177D01*
Y0321571D01*
X0441336Y0321932D01*
X0441421Y0322358D01*
X0441336Y0322784D01*
X0441094Y0323146D01*
Y0323539D01*
X0441336Y0323901D01*
X0441421Y0324327D01*
X0441336Y0324753D01*
X0441094Y0325114D01*
Y0325508D01*
X0441336Y0325869D01*
X0441421Y0326295D01*
X0441336Y0326721D01*
X0441094Y0327083D01*
Y0327476D01*
X0441336Y0327838D01*
X0441421Y0328264D01*
X0441336Y0328690D01*
X0441094Y0329051D01*
X0440733Y0329292D01*
X0440307Y0329377D01*
X0438870D01*
Y0334802D01*
X0439763D01*
X0440000Y0334754D01*
X0440237Y0334802D01*
X0441624D01*
Y0335264D01*
X0443615D01*
Y0335252D01*
X0443623Y0335212D01*
Y0332693D01*
X0443708Y0332267D01*
X0443949Y0331906D01*
X0444310Y0331664D01*
X0444736Y0331579D01*
X0445162Y0331664D01*
X0445524Y0331906D01*
X0445950Y0331643D01*
X0446201Y0331476D01*
X0446705Y0331376D01*
X0447209Y0331476D01*
X0447460Y0331643D01*
X0447886Y0331906D01*
X0448247Y0331664D01*
X0448673Y0331579D01*
X0449099Y0331664D01*
X0449317Y0331810D01*
X0449657Y0331870D01*
X0449998Y0331810D01*
X0450216Y0331664D01*
X0450642Y0331579D01*
X0451068Y0331664D01*
X0451286Y0331810D01*
X0451626Y0331870D01*
X0451966Y0331810D01*
X0452184Y0331664D01*
X0452610Y0331579D01*
X0453036Y0331664D01*
X0453398Y0331906D01*
X0453791D01*
X0454153Y0331664D01*
X0454579Y0331579D01*
X0455005Y0331664D01*
X0455366Y0331906D01*
X0455760D01*
X0456121Y0331664D01*
X0456547Y0331579D01*
X0456973Y0331664D01*
X0457335Y0331906D01*
X0457728D01*
X0458090Y0331664D01*
X0458516Y0331579D01*
X0458942Y0331664D01*
X0459160Y0331810D01*
X0459500Y0331870D01*
X0459840Y0331810D01*
X0460058Y0331664D01*
X0460484Y0331579D01*
X0460910Y0331664D01*
X0461128Y0331810D01*
X0461469Y0331870D01*
X0461809Y0331810D01*
X0462027Y0331664D01*
X0462453Y0331579D01*
X0462879Y0331664D01*
X0463097Y0331810D01*
X0463437Y0331870D01*
X0463777Y0331810D01*
X0463995Y0331664D01*
X0464421Y0331579D01*
X0464847Y0331664D01*
X0465065Y0331810D01*
X0465406Y0331870D01*
X0465746Y0331810D01*
X0465964Y0331664D01*
X0466390Y0331579D01*
X0466816Y0331664D01*
X0467177Y0331906D01*
X0467571D01*
X0467932Y0331664D01*
X0468358Y0331579D01*
X0468784Y0331664D01*
X0469002Y0331810D01*
X0469343Y0331870D01*
X0469683Y0331810D01*
X0469901Y0331664D01*
X0470327Y0331579D01*
X0470753Y0331664D01*
X0470971Y0331810D01*
X0471311Y0331870D01*
X0471651Y0331810D01*
X0471869Y0331664D01*
X0472295Y0331579D01*
X0472721Y0331664D01*
X0472939Y0331810D01*
X0473279Y0331870D01*
X0473620Y0331810D01*
X0473838Y0331664D01*
X0474264Y0331579D01*
X0474690Y0331664D01*
X0475051Y0331906D01*
X0475292Y0332267D01*
X0475377Y0332693D01*
Y0337811D01*
X0475292Y0338237D01*
X0475051Y0338598D01*
X0474690Y0338840D01*
X0474264Y0338925D01*
X0473838Y0338840D01*
X0473476Y0338598D01*
X0473083D01*
X0472721Y0338840D01*
X0472295Y0338925D01*
X0471869Y0338840D01*
X0471508Y0338598D01*
X0471114D01*
X0470753Y0338840D01*
X0470327Y0338925D01*
X0469901Y0338840D01*
X0469539Y0338598D01*
X0469146D01*
X0468784Y0338840D01*
X0468358Y0338925D01*
X0467932Y0338840D01*
X0467714Y0338694D01*
X0467374Y0338634D01*
X0467034Y0338694D01*
X0466816Y0338840D01*
X0466390Y0338925D01*
X0465964Y0338840D01*
X0465602Y0338598D01*
X0465209D01*
X0464847Y0338840D01*
X0464421Y0338925D01*
X0463995Y0338840D01*
X0463634Y0338598D01*
X0463240D01*
X0462879Y0338840D01*
X0462453Y0338925D01*
X0462027Y0338840D01*
X0461665Y0338598D01*
X0461272D01*
X0460910Y0338840D01*
X0460484Y0338925D01*
X0460058Y0338840D01*
X0459697Y0338598D01*
X0459303D01*
X0458942Y0338840D01*
X0458516Y0338925D01*
X0458439Y0338909D01*
X0458179Y0338925D01*
X0458054Y0339549D01*
X0457701Y0340078D01*
X0457171Y0340432D01*
X0456547Y0340556D01*
X0455923Y0340432D01*
X0455394Y0340078D01*
X0455040Y0339549D01*
X0454916Y0338925D01*
X0454655Y0338909D01*
X0454579Y0338925D01*
X0454232Y0338856D01*
X0453968Y0338980D01*
X0453732Y0339160D01*
Y0341987D01*
X0454498D01*
Y0342745D01*
X0465502D01*
Y0341987D01*
X0470639D01*
Y0341987D01*
X0470817Y0342243D01*
X0474183D01*
Y0345214D01*
X0474383Y0345586D01*
X0474383D01*
Y0346272D01*
X0472500D01*
X0470617D01*
Y0346077D01*
X0470617Y0345746D01*
X0470206Y0345746D01*
X0465502D01*
Y0344988D01*
X0454498D01*
Y0345746D01*
X0449361D01*
Y0341987D01*
X0451489D01*
Y0339160D01*
X0451253Y0338980D01*
X0450989Y0338856D01*
X0450642Y0338925D01*
X0450295Y0338856D01*
X0450031Y0338980D01*
X0449795Y0339160D01*
Y0340327D01*
X0449795Y0340327D01*
X0449709Y0340756D01*
X0449466Y0341120D01*
X0440521Y0350065D01*
X0440158Y0350308D01*
X0439728Y0350393D01*
X0439728Y0350393D01*
X0357183D01*
Y0350758D01*
X0356156D01*
X0356124Y0350779D01*
X0355500Y0350903D01*
D02*
G37*
G36*
X0342850Y0346500D02*
X0341672D01*
Y0345125D01*
X0342850D01*
Y0346500D01*
D02*
G37*
G36*
X0435500Y0341398D02*
X0434676D01*
Y0340614D01*
X0435500D01*
Y0341398D01*
D02*
G37*
G36*
X0441824D02*
X0441000D01*
Y0340614D01*
X0441824D01*
Y0341398D01*
D02*
G37*
G36*
X0340824Y0334898D02*
X0340000D01*
Y0334114D01*
X0340824D01*
Y0334898D01*
D02*
G37*
G36*
X0415800Y0331750D02*
X0412850D01*
Y0329200D01*
X0415800D01*
Y0331750D01*
D02*
G37*
G36*
X0512000Y0332650D02*
X0508450D01*
Y0329300D01*
X0512000D01*
Y0332650D01*
D02*
G37*
G36*
X0410850Y0331750D02*
X0407900D01*
Y0329200D01*
X0410850D01*
Y0331750D01*
D02*
G37*
G36*
X0427150Y0326800D02*
X0424200D01*
Y0324250D01*
X0427150D01*
Y0326800D01*
D02*
G37*
G36*
X0484480Y0238031D02*
X0482323Y0235874D01*
X0483596Y0234602D01*
X0485752Y0236758D01*
X0484480Y0238031D01*
D02*
G37*
G36*
X0415800Y0336300D02*
X0412850D01*
Y0333750D01*
X0415800D01*
Y0336300D01*
D02*
G37*
G36*
X0425646Y0234988D02*
X0422500D01*
Y0233318D01*
X0425646D01*
Y0234988D01*
D02*
G37*
G36*
X0410850Y0336300D02*
X0407900D01*
Y0333750D01*
X0410850D01*
Y0336300D01*
D02*
G37*
G36*
X0517550Y0332650D02*
X0514000D01*
Y0329300D01*
X0517550D01*
Y0332650D01*
D02*
G37*
G36*
X0488898Y0334324D02*
X0488114D01*
Y0333500D01*
X0488898D01*
Y0334324D01*
D02*
G37*
G36*
X0471500Y0348957D02*
X0470617D01*
Y0348272D01*
X0471500D01*
Y0348957D01*
D02*
G37*
G36*
X0357183Y0358258D02*
X0353817D01*
Y0357893D01*
X0351921D01*
X0351921Y0357893D01*
X0351492Y0357808D01*
X0351128Y0357565D01*
X0351128Y0357565D01*
X0350738Y0357175D01*
X0348172D01*
Y0352825D01*
X0352128D01*
Y0355392D01*
X0352386Y0355650D01*
X0353817D01*
Y0355286D01*
X0354538D01*
X0354725Y0354786D01*
X0354643Y0354714D01*
X0353817D01*
Y0351743D01*
X0354844D01*
X0354876Y0351721D01*
X0355500Y0351597D01*
X0356124Y0351721D01*
X0356156Y0351743D01*
X0357183D01*
Y0354714D01*
X0356357D01*
X0356275Y0354786D01*
X0356462Y0355286D01*
X0357183D01*
Y0358258D01*
D02*
G37*
G36*
X0385324Y0359886D02*
X0384500D01*
Y0359102D01*
X0385324D01*
Y0359886D01*
D02*
G37*
G36*
X0362000Y0358228D02*
X0361117D01*
Y0357542D01*
X0362000D01*
Y0358228D01*
D02*
G37*
G36*
X0342850Y0357375D02*
X0341672D01*
Y0356000D01*
X0342850D01*
Y0357375D01*
D02*
G37*
G36*
X0346028D02*
X0344850D01*
Y0356000D01*
X0346028D01*
Y0357375D01*
D02*
G37*
G36*
X0491000Y0369337D02*
X0490647Y0369303D01*
X0489346Y0368908D01*
X0488147Y0368267D01*
X0487096Y0367404D01*
X0486233Y0366353D01*
X0485592Y0365154D01*
X0485197Y0363853D01*
X0485163Y0363500D01*
X0491000D01*
Y0369337D01*
D02*
G37*
G36*
X0301000D02*
Y0363500D01*
X0306837D01*
X0306803Y0363853D01*
X0306408Y0365154D01*
X0305767Y0366353D01*
X0304904Y0367404D01*
X0303853Y0368267D01*
X0302654Y0368908D01*
X0301353Y0369303D01*
X0301000Y0369337D01*
D02*
G37*
G36*
X0299000D02*
X0298647Y0369303D01*
X0297346Y0368908D01*
X0296147Y0368267D01*
X0295096Y0367404D01*
X0294233Y0366353D01*
X0293592Y0365154D01*
X0293197Y0363853D01*
X0293163Y0363500D01*
X0299000D01*
Y0369337D01*
D02*
G37*
G36*
X0448398Y0361000D02*
X0447614D01*
Y0360176D01*
X0448398D01*
Y0361000D01*
D02*
G37*
G36*
X0487167Y0235344D02*
X0485010Y0233187D01*
X0486283Y0231915D01*
X0488440Y0234071D01*
X0487167Y0235344D01*
D02*
G37*
G36*
X0498837Y0361500D02*
X0493000D01*
Y0355663D01*
X0493353Y0355697D01*
X0494654Y0356092D01*
X0495853Y0356733D01*
X0496904Y0357596D01*
X0497767Y0358647D01*
X0498408Y0359846D01*
X0498803Y0361147D01*
X0498837Y0361500D01*
D02*
G37*
G36*
X0454498Y0354013D02*
X0449361D01*
Y0350254D01*
X0454498D01*
Y0354013D01*
D02*
G37*
G36*
X0470639D02*
X0465502D01*
Y0350254D01*
X0470639D01*
Y0354013D01*
D02*
G37*
G36*
X0346028Y0349875D02*
X0344850D01*
Y0348500D01*
X0346028D01*
Y0349875D01*
D02*
G37*
G36*
X0474383Y0348957D02*
X0473500D01*
Y0348272D01*
X0474383D01*
Y0348957D01*
D02*
G37*
G36*
X0342850Y0349875D02*
X0341672D01*
Y0348500D01*
X0342850D01*
Y0349875D01*
D02*
G37*
G36*
X0491000Y0361500D02*
X0485163D01*
X0485197Y0361147D01*
X0485592Y0359846D01*
X0486233Y0358647D01*
X0487096Y0357596D01*
X0488147Y0356733D01*
X0489346Y0356092D01*
X0490647Y0355697D01*
X0491000Y0355663D01*
Y0361500D01*
D02*
G37*
G36*
X0306837D02*
X0301000D01*
Y0355663D01*
X0301353Y0355697D01*
X0302654Y0356092D01*
X0303853Y0356733D01*
X0304904Y0357596D01*
X0305767Y0358647D01*
X0306408Y0359846D01*
X0306803Y0361147D01*
X0306837Y0361500D01*
D02*
G37*
G36*
X0299000D02*
X0293163D01*
X0293197Y0361147D01*
X0293592Y0359846D01*
X0294233Y0358647D01*
X0295096Y0357596D01*
X0296147Y0356733D01*
X0297346Y0356092D01*
X0298647Y0355697D01*
X0299000Y0355663D01*
Y0361500D01*
D02*
G37*
G36*
X0342850Y0354000D02*
X0341672D01*
Y0352625D01*
X0342850D01*
Y0354000D01*
D02*
G37*
G36*
X0346028D02*
X0344850D01*
Y0352625D01*
X0346028D01*
Y0354000D01*
D02*
G37*
%LPD*%
G36*
X0337000Y0331500D02*
X0340000D01*
X0342000Y0329500D01*
X0345000D01*
Y0320500D01*
X0283500D01*
Y0343500D01*
X0325000D01*
X0337000Y0331500D01*
D02*
G37*
G36*
X0376500Y0326000D02*
X0377500Y0325000D01*
X0382500D01*
Y0318500D01*
X0368500D01*
X0367000Y0320000D01*
Y0328000D01*
X0376500D01*
Y0326000D01*
D02*
G37*
G36*
X0368500Y0317000D02*
X0374500D01*
X0374500Y0296000D01*
X0356500D01*
X0356500Y0323500D01*
X0362000D01*
X0368500Y0317000D01*
D02*
G37*
G36*
X0363500Y0324500D02*
X0353500D01*
Y0329500D01*
X0363500D01*
Y0324500D01*
D02*
G37*
G36*
X0423087Y0392469D02*
X0423531D01*
X0426000Y0390000D01*
X0433000D01*
X0433000Y0376000D01*
X0431500Y0374500D01*
X0421216Y0374500D01*
X0421216Y0392469D01*
X0423087D01*
Y0392469D01*
D02*
G37*
G36*
X0433500Y0371500D02*
Y0362000D01*
X0418000D01*
Y0373500D01*
X0431500D01*
X0433500Y0371500D01*
D02*
G37*
G36*
X0345786Y0384538D02*
Y0383817D01*
X0345786Y0383817D01*
Y0383683D01*
X0345786D01*
X0345786Y0383317D01*
Y0380317D01*
X0348758D01*
Y0381875D01*
X0349110Y0382166D01*
X0349546Y0381980D01*
Y0379839D01*
X0349346D01*
Y0379547D01*
X0349545D01*
Y0379423D01*
X0351819D01*
Y0377671D01*
X0349545D01*
Y0377547D01*
X0349346D01*
Y0377255D01*
X0349546D01*
Y0375732D01*
X0346854D01*
X0342731Y0379855D01*
X0342922Y0380317D01*
X0345214D01*
Y0383683D01*
X0345214D01*
Y0383817D01*
X0345214D01*
Y0384643D01*
X0345286Y0384725D01*
X0345786Y0384538D01*
D02*
G37*
G36*
X0400500Y0374000D02*
X0389500D01*
Y0377500D01*
X0392500Y0380500D01*
X0400500D01*
Y0374000D01*
D02*
G37*
G36*
X0407000Y0393500D02*
X0408032Y0392469D01*
X0408913Y0392469D01*
Y0392469D01*
X0410783D01*
Y0383807D01*
Y0383283D01*
X0405217D01*
X0400500Y0388000D01*
Y0408000D01*
X0407000D01*
X0407000Y0393500D01*
D02*
G37*
G36*
X0407531Y0418968D02*
X0410783D01*
Y0410307D01*
Y0409216D01*
X0411000Y0409000D01*
X0401500D01*
X0396500Y0414000D01*
Y0421000D01*
X0405500D01*
X0407531Y0418968D01*
D02*
G37*
G36*
X0395500Y0414000D02*
X0399500Y0410000D01*
Y0388500D01*
X0391000D01*
Y0421000D01*
X0395500D01*
Y0414000D01*
D02*
G37*
G36*
X0423087Y0418968D02*
X0423531D01*
X0426000Y0416500D01*
X0433000D01*
X0433000Y0401000D01*
X0421216Y0401000D01*
X0421216Y0418968D01*
X0423087D01*
Y0418968D01*
D02*
G37*
G36*
X0376000Y0336500D02*
X0374500Y0336500D01*
X0374500Y0334000D01*
X0371500Y0334000D01*
X0369500Y0336000D01*
X0364000Y0336000D01*
X0364000Y0348000D01*
X0376000Y0348000D01*
Y0336500D01*
D02*
G37*
G36*
X0382000Y0336500D02*
X0379500Y0334000D01*
X0377500D01*
Y0343500D01*
X0382000D01*
Y0336500D01*
D02*
G37*
D10*
X0365500Y0381500D02*
D03*
D11*
X0379181Y0392327D02*
D03*
Y0390358D02*
D03*
Y0388390D02*
D03*
Y0386421D02*
D03*
Y0384453D02*
D03*
Y0382484D02*
D03*
Y0380516D02*
D03*
Y0378547D02*
D03*
Y0376579D02*
D03*
Y0374610D02*
D03*
Y0372642D02*
D03*
Y0370673D02*
D03*
X0351819D02*
D03*
Y0372642D02*
D03*
Y0374610D02*
D03*
Y0376579D02*
D03*
Y0378547D02*
D03*
Y0380516D02*
D03*
Y0382484D02*
D03*
Y0384453D02*
D03*
Y0386421D02*
D03*
Y0388390D02*
D03*
Y0390358D02*
D03*
Y0392327D02*
D03*
D12*
X0376327Y0367819D02*
D03*
X0374358D02*
D03*
X0372390D02*
D03*
X0370421D02*
D03*
X0368453D02*
D03*
X0366484D02*
D03*
X0364516D02*
D03*
X0362547D02*
D03*
X0360579D02*
D03*
X0358610D02*
D03*
X0356642D02*
D03*
X0354673D02*
D03*
Y0395181D02*
D03*
X0356642D02*
D03*
X0358610D02*
D03*
X0360579D02*
D03*
X0362547D02*
D03*
X0364516D02*
D03*
X0366484D02*
D03*
X0368453D02*
D03*
X0370421D02*
D03*
X0372390D02*
D03*
X0374358D02*
D03*
X0376327D02*
D03*
D13*
X0384386Y0271661D02*
D03*
Y0268512D02*
D03*
Y0265362D02*
D03*
Y0262213D02*
D03*
Y0259063D02*
D03*
Y0255913D02*
D03*
Y0254339D02*
D03*
Y0257488D02*
D03*
Y0260638D02*
D03*
Y0263787D02*
D03*
Y0266937D02*
D03*
Y0270087D02*
D03*
X0407614Y0255913D02*
D03*
Y0259063D02*
D03*
Y0262213D02*
D03*
Y0265362D02*
D03*
Y0268512D02*
D03*
Y0271661D02*
D03*
Y0270087D02*
D03*
Y0266937D02*
D03*
Y0263787D02*
D03*
Y0260638D02*
D03*
Y0257488D02*
D03*
Y0254339D02*
D03*
D14*
X0396000Y0263000D02*
D03*
D15*
X0388913Y0251386D02*
D03*
X0392063D02*
D03*
X0395213D02*
D03*
X0398362D02*
D03*
X0401512D02*
D03*
X0404661D02*
D03*
X0403087D02*
D03*
X0399937D02*
D03*
X0396787D02*
D03*
X0393638D02*
D03*
X0390488D02*
D03*
X0387339D02*
D03*
X0403087Y0274614D02*
D03*
X0399937D02*
D03*
X0396787D02*
D03*
X0393638D02*
D03*
X0390488D02*
D03*
X0387339D02*
D03*
X0388913D02*
D03*
X0392063D02*
D03*
X0395213D02*
D03*
X0398362D02*
D03*
X0401512D02*
D03*
X0404661D02*
D03*
D16*
X0368850Y0280559D02*
D03*
X0375150D02*
D03*
Y0275441D02*
D03*
X0368850D02*
D03*
D17*
X0434079Y0269661D02*
D03*
X0439000D02*
D03*
X0429157D02*
D03*
X0443921D02*
D03*
Y0261000D02*
D03*
X0429157D02*
D03*
X0439000D02*
D03*
X0434079D02*
D03*
D18*
X0432000Y0308114D02*
D03*
Y0304886D02*
D03*
X0394500Y0386886D02*
D03*
Y0390114D02*
D03*
X0399000Y0371886D02*
D03*
Y0375114D02*
D03*
X0443000D02*
D03*
Y0371886D02*
D03*
X0389000Y0313614D02*
D03*
Y0310386D02*
D03*
X0396500Y0280886D02*
D03*
Y0284114D02*
D03*
X0393000D02*
D03*
Y0280886D02*
D03*
X0389500Y0284114D02*
D03*
Y0280886D02*
D03*
X0386000D02*
D03*
Y0284114D02*
D03*
X0379000Y0276386D02*
D03*
Y0279614D02*
D03*
X0365000D02*
D03*
Y0276386D02*
D03*
X0366000Y0259614D02*
D03*
Y0256386D02*
D03*
X0380000Y0246886D02*
D03*
Y0250114D02*
D03*
X0376000Y0246886D02*
D03*
Y0250114D02*
D03*
X0372500Y0246886D02*
D03*
Y0250114D02*
D03*
X0369000Y0246886D02*
D03*
Y0250114D02*
D03*
X0415500Y0242886D02*
D03*
Y0246114D02*
D03*
X0412000Y0242886D02*
D03*
Y0246114D02*
D03*
X0408500Y0242886D02*
D03*
Y0246114D02*
D03*
X0405000Y0242886D02*
D03*
Y0246114D02*
D03*
X0401500Y0242886D02*
D03*
Y0246114D02*
D03*
X0398000Y0242886D02*
D03*
Y0246114D02*
D03*
X0394500Y0242886D02*
D03*
Y0246114D02*
D03*
X0391000Y0242886D02*
D03*
Y0246114D02*
D03*
X0387500Y0242886D02*
D03*
Y0246114D02*
D03*
X0479000Y0285886D02*
D03*
Y0289114D02*
D03*
X0440000Y0339614D02*
D03*
Y0336386D02*
D03*
X0436500Y0339614D02*
D03*
Y0336386D02*
D03*
X0487000Y0329114D02*
D03*
Y0325886D02*
D03*
X0463000Y0371386D02*
D03*
Y0374614D02*
D03*
X0380000Y0364114D02*
D03*
Y0360886D02*
D03*
X0383500Y0364114D02*
D03*
Y0360886D02*
D03*
X0370000Y0359386D02*
D03*
Y0362614D02*
D03*
X0366500Y0359386D02*
D03*
Y0362614D02*
D03*
X0363000Y0408886D02*
D03*
Y0412114D02*
D03*
X0368500Y0333886D02*
D03*
Y0337114D02*
D03*
Y0330614D02*
D03*
Y0327386D02*
D03*
X0339000Y0333114D02*
D03*
Y0329886D02*
D03*
D19*
X0418244Y0403500D02*
D03*
X0423756D02*
D03*
X0418244Y0377000D02*
D03*
X0423756D02*
D03*
D20*
X0387772Y0383500D02*
D03*
X0384228D02*
D03*
Y0387000D02*
D03*
X0387772D02*
D03*
Y0390500D02*
D03*
X0384228D02*
D03*
Y0397500D02*
D03*
X0387772D02*
D03*
X0387228Y0376000D02*
D03*
X0390772D02*
D03*
X0387228Y0372000D02*
D03*
X0390772D02*
D03*
X0427228Y0418500D02*
D03*
X0430772D02*
D03*
Y0392000D02*
D03*
X0427228D02*
D03*
X0435728Y0375500D02*
D03*
X0439272D02*
D03*
X0435728Y0371500D02*
D03*
X0439272D02*
D03*
X0372728Y0270500D02*
D03*
X0376272D02*
D03*
X0376228Y0243500D02*
D03*
X0379772D02*
D03*
X0431228Y0287000D02*
D03*
X0434772D02*
D03*
X0431228Y0283500D02*
D03*
X0434772D02*
D03*
X0494772Y0317000D02*
D03*
X0491228D02*
D03*
X0494772Y0313500D02*
D03*
X0491228D02*
D03*
X0446772Y0365500D02*
D03*
X0443228D02*
D03*
X0472772Y0252500D02*
D03*
X0469228D02*
D03*
X0376772Y0355500D02*
D03*
X0373228D02*
D03*
X0347272Y0396000D02*
D03*
X0343728D02*
D03*
X0347272Y0392500D02*
D03*
X0343728D02*
D03*
Y0389000D02*
D03*
X0347272D02*
D03*
X0343728Y0385500D02*
D03*
X0347272D02*
D03*
X0343728Y0382000D02*
D03*
X0347272D02*
D03*
X0358228Y0331500D02*
D03*
X0361772D02*
D03*
D21*
X0387614Y0394000D02*
D03*
X0384386D02*
D03*
X0398386Y0402000D02*
D03*
X0401614D02*
D03*
X0398386Y0398000D02*
D03*
X0401614D02*
D03*
X0398386Y0394000D02*
D03*
X0401614D02*
D03*
X0398386Y0390000D02*
D03*
X0401614D02*
D03*
X0412614Y0403000D02*
D03*
X0409386D02*
D03*
X0412614Y0429500D02*
D03*
X0409386D02*
D03*
X0430614Y0422000D02*
D03*
X0427386D02*
D03*
Y0395500D02*
D03*
X0430614D02*
D03*
X0399114Y0306500D02*
D03*
X0395886D02*
D03*
X0399114Y0303000D02*
D03*
X0395886D02*
D03*
X0372886Y0267000D02*
D03*
X0376114D02*
D03*
X0372886Y0263500D02*
D03*
X0376114D02*
D03*
X0369386Y0260000D02*
D03*
X0372614D02*
D03*
X0369386Y0256000D02*
D03*
X0372614D02*
D03*
X0411886Y0264000D02*
D03*
X0415114D02*
D03*
Y0260500D02*
D03*
X0411886D02*
D03*
X0415114Y0257000D02*
D03*
X0411886D02*
D03*
X0415114Y0253500D02*
D03*
X0411886D02*
D03*
X0415114Y0249500D02*
D03*
X0411886D02*
D03*
X0436114Y0254500D02*
D03*
X0432886D02*
D03*
X0445886Y0286000D02*
D03*
X0449114D02*
D03*
X0475614D02*
D03*
X0472386D02*
D03*
X0487114Y0332500D02*
D03*
X0483886D02*
D03*
X0430114Y0337500D02*
D03*
X0426886D02*
D03*
X0409886Y0318500D02*
D03*
X0413114D02*
D03*
X0422886Y0316000D02*
D03*
X0426114D02*
D03*
X0446614Y0362000D02*
D03*
X0443386D02*
D03*
X0373386Y0362500D02*
D03*
X0376614D02*
D03*
X0373386Y0359000D02*
D03*
X0376614D02*
D03*
X0346614Y0337500D02*
D03*
X0343386D02*
D03*
D22*
X0399000Y0379228D02*
D03*
Y0382772D02*
D03*
X0394500Y0379228D02*
D03*
Y0382772D02*
D03*
Y0371728D02*
D03*
Y0375272D02*
D03*
X0376000Y0256228D02*
D03*
Y0259772D02*
D03*
X0472500Y0347272D02*
D03*
Y0343728D02*
D03*
X0363000Y0359228D02*
D03*
Y0362772D02*
D03*
X0341000Y0408728D02*
D03*
Y0412272D02*
D03*
X0377383Y0399728D02*
D03*
Y0403272D02*
D03*
X0371000Y0412272D02*
D03*
Y0408728D02*
D03*
X0367000D02*
D03*
Y0412272D02*
D03*
X0368500Y0403272D02*
D03*
Y0399728D02*
D03*
X0351500D02*
D03*
Y0403272D02*
D03*
X0359500Y0399728D02*
D03*
Y0403272D02*
D03*
X0355500Y0399728D02*
D03*
Y0403272D02*
D03*
X0348000Y0399728D02*
D03*
Y0403272D02*
D03*
X0355500Y0345728D02*
D03*
Y0349272D02*
D03*
Y0356772D02*
D03*
Y0353228D02*
D03*
D23*
X0409524Y0396799D02*
D03*
Y0395224D02*
D03*
Y0393650D02*
D03*
Y0392075D02*
D03*
Y0390500D02*
D03*
Y0388925D02*
D03*
Y0387350D02*
D03*
Y0385776D02*
D03*
Y0384201D02*
D03*
X0422476Y0396799D02*
D03*
Y0395224D02*
D03*
Y0393650D02*
D03*
Y0392075D02*
D03*
Y0390500D02*
D03*
Y0388925D02*
D03*
Y0387350D02*
D03*
Y0385776D02*
D03*
Y0384201D02*
D03*
X0409524Y0423299D02*
D03*
Y0421724D02*
D03*
Y0420150D02*
D03*
Y0418575D02*
D03*
Y0417000D02*
D03*
Y0415425D02*
D03*
Y0413850D02*
D03*
Y0412276D02*
D03*
Y0410701D02*
D03*
X0422476Y0423299D02*
D03*
Y0421724D02*
D03*
Y0420150D02*
D03*
Y0418575D02*
D03*
Y0417000D02*
D03*
Y0415425D02*
D03*
Y0413850D02*
D03*
Y0412276D02*
D03*
Y0410701D02*
D03*
D24*
X0416000Y0390500D02*
D03*
Y0417000D02*
D03*
D25*
X0430000Y0377240D02*
D03*
Y0369760D02*
D03*
X0360000Y0327740D02*
D03*
Y0320260D02*
D03*
D26*
X0423012Y0368000D02*
D03*
X0349488Y0312000D02*
D03*
D27*
X0411988Y0368000D02*
D03*
X0360512Y0312000D02*
D03*
D28*
X0457823Y0369941D02*
D03*
Y0372500D02*
D03*
Y0375059D02*
D03*
X0448177D02*
D03*
Y0372500D02*
D03*
Y0369941D02*
D03*
D29*
X0398953Y0310547D02*
D03*
X0396984D02*
D03*
X0395016D02*
D03*
X0393047D02*
D03*
X0398953Y0312516D02*
D03*
X0393047D02*
D03*
X0398953Y0314484D02*
D03*
X0393047D02*
D03*
X0398953Y0316453D02*
D03*
X0396984D02*
D03*
X0395016D02*
D03*
X0393047D02*
D03*
D30*
X0421500Y0247012D02*
D03*
Y0235988D02*
D03*
X0337000Y0325512D02*
D03*
Y0314488D02*
D03*
D31*
X0396543Y0230941D02*
D03*
Y0233500D02*
D03*
Y0236059D02*
D03*
X0389457D02*
D03*
Y0233500D02*
D03*
Y0230941D02*
D03*
D32*
X0444736Y0335252D02*
D03*
X0446705D02*
D03*
X0448673D02*
D03*
X0450642D02*
D03*
X0452610D02*
D03*
X0454579D02*
D03*
X0456547D02*
D03*
X0458516D02*
D03*
X0460484D02*
D03*
X0462453D02*
D03*
X0464421D02*
D03*
X0466390D02*
D03*
X0468358D02*
D03*
X0470327D02*
D03*
X0472295D02*
D03*
X0474264D02*
D03*
Y0291748D02*
D03*
X0472295D02*
D03*
X0470327D02*
D03*
X0468358D02*
D03*
X0466390D02*
D03*
X0464421D02*
D03*
X0462453D02*
D03*
X0460484D02*
D03*
X0458516D02*
D03*
X0456547D02*
D03*
X0454579D02*
D03*
X0452610D02*
D03*
X0450642D02*
D03*
X0448673D02*
D03*
X0446705D02*
D03*
X0444736D02*
D03*
D33*
X0481252Y0328264D02*
D03*
Y0326295D02*
D03*
Y0324327D02*
D03*
Y0322358D02*
D03*
Y0320390D02*
D03*
Y0318421D02*
D03*
Y0316453D02*
D03*
Y0314484D02*
D03*
Y0312516D02*
D03*
Y0310547D02*
D03*
Y0308579D02*
D03*
Y0306610D02*
D03*
Y0304642D02*
D03*
Y0302673D02*
D03*
Y0300705D02*
D03*
Y0298736D02*
D03*
X0437748D02*
D03*
Y0300705D02*
D03*
Y0302673D02*
D03*
Y0304642D02*
D03*
Y0306610D02*
D03*
Y0308579D02*
D03*
Y0310547D02*
D03*
Y0312516D02*
D03*
Y0314484D02*
D03*
Y0316453D02*
D03*
Y0318421D02*
D03*
Y0320390D02*
D03*
Y0322358D02*
D03*
Y0324327D02*
D03*
Y0326295D02*
D03*
Y0328264D02*
D03*
D34*
X0411850Y0323250D02*
D03*
X0428150D02*
D03*
Y0332750D02*
D03*
X0411850D02*
D03*
D35*
X0417866Y0295429D02*
D03*
X0426134D02*
D03*
X0417866Y0311571D02*
D03*
X0426134D02*
D03*
D36*
X0451929Y0352134D02*
D03*
Y0343866D02*
D03*
X0468071Y0352134D02*
D03*
Y0343866D02*
D03*
D37*
X0464859Y0384641D02*
D03*
X0467141Y0382359D02*
D03*
X0327141Y0242359D02*
D03*
X0324859Y0244641D02*
D03*
D38*
X0467141D02*
D03*
X0464859Y0242359D02*
D03*
X0324859Y0382359D02*
D03*
X0327141Y0384641D02*
D03*
D39*
X0357512Y0410500D02*
D03*
X0346488D02*
D03*
D40*
X0403087Y0432500D02*
D03*
X0388913D02*
D03*
D41*
X0397969Y0417244D02*
D03*
X0394032D02*
D03*
D42*
X0378559Y0334839D02*
D03*
X0376000D02*
D03*
X0373441D02*
D03*
Y0327161D02*
D03*
X0376000D02*
D03*
X0378559D02*
D03*
D43*
X0376000Y0331000D02*
D03*
D44*
X0379740Y0340000D02*
D03*
X0372260D02*
D03*
D45*
X0379000Y0321512D02*
D03*
Y0310488D02*
D03*
X0370500Y0321512D02*
D03*
Y0310488D02*
D03*
D46*
X0350374Y0302000D02*
D03*
X0359626D02*
D03*
D47*
X0349012Y0327984D02*
D03*
D48*
X0351965Y0322472D02*
D03*
X0349996D02*
D03*
X0348028D02*
D03*
X0346059D02*
D03*
Y0333496D02*
D03*
X0348028D02*
D03*
X0349996D02*
D03*
X0351965D02*
D03*
D49*
X0343500Y0325031D02*
D03*
Y0327000D02*
D03*
Y0328969D02*
D03*
Y0330937D02*
D03*
X0354524D02*
D03*
Y0328969D02*
D03*
Y0327000D02*
D03*
Y0325031D02*
D03*
D50*
X0343850Y0355000D02*
D03*
X0350150D02*
D03*
X0343850Y0347500D02*
D03*
X0350150D02*
D03*
D51*
X0502500Y0307382D02*
D03*
Y0317700D02*
D03*
Y0309941D02*
D03*
Y0312500D02*
D03*
Y0315100D02*
D03*
D52*
X0513000Y0296752D02*
D03*
Y0328300D02*
D03*
D53*
Y0307500D02*
D03*
Y0317500D02*
D03*
D54*
X0315600Y0291059D02*
D03*
Y0336000D02*
D03*
X0291500Y0291059D02*
D03*
Y0336000D02*
D03*
D55*
X0472780Y0222372D02*
D03*
X0487167Y0236758D02*
D03*
X0478258Y0245667D02*
D03*
X0463871Y0231281D02*
D03*
X0319220Y0404628D02*
D03*
X0304833Y0390242D02*
D03*
X0313742Y0381333D02*
D03*
X0328129Y0395719D02*
D03*
D56*
X0304872Y0236720D02*
D03*
X0319258Y0222333D02*
D03*
X0328167Y0231242D02*
D03*
X0313781Y0245629D02*
D03*
X0487128Y0390280D02*
D03*
X0472742Y0404667D02*
D03*
X0463833Y0395758D02*
D03*
X0478219Y0381371D02*
D03*
D57*
X0396000Y0192449D02*
D03*
X0403087D02*
D03*
Y0223551D02*
D03*
X0396000D02*
D03*
X0388913D02*
D03*
Y0192449D02*
D03*
D58*
X0412850Y0420150D02*
X0416000Y0417000D01*
X0412850Y0393650D02*
X0416000Y0390500D01*
X0398571Y0265362D02*
X0399937Y0266728D01*
X0395213Y0263579D02*
X0396787Y0262004D01*
X0401512Y0257279D02*
X0403087Y0255705D01*
X0378564Y0254685D02*
Y0256807D01*
X0377527Y0253648D02*
X0378564Y0254685D01*
X0371473Y0253648D02*
X0377527D01*
X0380064Y0254064D02*
Y0256186D01*
X0378148Y0252148D02*
X0380064Y0254064D01*
X0371034Y0252148D02*
X0378148D01*
X0380138Y0265362D02*
X0384386D01*
X0378500Y0267000D02*
X0380138Y0265362D01*
X0378500Y0267000D02*
Y0268272D01*
X0376114Y0267000D02*
X0379327Y0263787D01*
X0384386D01*
X0381063Y0266937D02*
X0384386D01*
X0380000Y0268000D02*
X0381063Y0266937D01*
X0380000Y0268000D02*
Y0270225D01*
X0381500Y0269000D02*
Y0278227D01*
Y0269000D02*
X0381988Y0268512D01*
X0384386D01*
X0380113Y0279614D02*
X0381500Y0278227D01*
X0377592Y0272633D02*
X0380000Y0270225D01*
X0365000Y0279614D02*
X0367905D01*
X0368850Y0280559D01*
X0375150Y0275441D02*
X0376095Y0276386D01*
X0379000D01*
X0375150Y0280559D02*
X0376095Y0279614D01*
X0379000D01*
X0380113D01*
X0365000Y0276386D02*
X0367905D01*
X0368850Y0275441D01*
X0371659Y0272633D01*
X0377592D01*
X0376000Y0250114D02*
X0380000D01*
X0409524Y0420150D02*
X0412850D01*
X0409524Y0393650D02*
X0412850D01*
X0380000Y0243728D02*
Y0246886D01*
X0379772Y0243500D02*
X0380000Y0243728D01*
X0406386Y0251386D02*
X0407000Y0252000D01*
X0404661Y0251386D02*
X0406386D01*
X0399108Y0248564D02*
X0410950D01*
X0457500Y0278000D02*
X0460403Y0280903D01*
Y0291667D01*
X0460484Y0291748D01*
X0454000Y0278000D02*
X0458516Y0282516D01*
Y0291748D01*
X0401512Y0277269D02*
X0402061Y0277819D01*
X0401512Y0274614D02*
Y0277269D01*
X0398362Y0278362D02*
X0400819Y0280819D01*
X0398362Y0274614D02*
Y0278362D01*
X0399937Y0277816D02*
X0401440Y0279319D01*
X0399937Y0274614D02*
Y0277816D01*
X0388913Y0280299D02*
X0389500Y0280886D01*
X0388913Y0274614D02*
Y0280299D01*
X0396287Y0280673D02*
X0396787Y0280173D01*
X0393000Y0280886D02*
X0393638Y0280248D01*
Y0274614D02*
Y0280248D01*
X0387339Y0274614D02*
Y0279547D01*
X0391500Y0277500D02*
Y0278000D01*
Y0277500D02*
X0392063Y0276937D01*
Y0274614D02*
Y0276937D01*
X0402061Y0277819D02*
X0450061D01*
X0456547Y0284305D01*
X0449440Y0279319D02*
X0454579Y0284457D01*
X0401440Y0279319D02*
X0449440D01*
X0448819Y0280819D02*
X0452610Y0284610D01*
X0400819Y0280819D02*
X0448819D01*
X0395213Y0251386D02*
X0396787D01*
X0395213Y0248902D02*
Y0251386D01*
Y0248902D02*
X0396787Y0247327D01*
X0398362Y0265154D02*
X0398571Y0265362D01*
X0410950Y0248564D02*
X0411886Y0249500D01*
X0456547Y0284305D02*
Y0291748D01*
X0454579Y0284457D02*
Y0291748D01*
X0452610Y0284610D02*
Y0291748D01*
X0386000Y0280886D02*
X0387339Y0279547D01*
X0396787Y0274614D02*
Y0280173D01*
X0396287Y0280673D02*
X0396500Y0280886D01*
X0411673Y0263787D02*
X0411886Y0264000D01*
X0407614Y0263787D02*
X0411673D01*
X0410449Y0259063D02*
X0411886Y0260500D01*
X0407614Y0259063D02*
X0410449D01*
X0410799Y0255913D02*
X0411886Y0257000D01*
X0407614Y0255913D02*
X0410799D01*
X0407614Y0254339D02*
X0411047D01*
X0411886Y0253500D01*
X0398362Y0249310D02*
Y0251386D01*
Y0249310D02*
X0399108Y0248564D01*
X0376272Y0270500D02*
X0378500Y0268272D01*
X0376114Y0263500D02*
X0377402Y0262213D01*
X0384386D01*
X0366386Y0256000D02*
X0369386D01*
X0366000Y0256386D02*
X0366386Y0256000D01*
X0369386D02*
Y0260000D01*
X0372614Y0256000D02*
X0372843Y0256228D01*
X0376000D01*
X0369386Y0255736D02*
X0371473Y0253648D01*
X0369386Y0255736D02*
Y0256000D01*
X0376866Y0260638D02*
X0384386D01*
X0376000Y0259772D02*
X0376866Y0260638D01*
X0369000Y0250114D02*
X0371034Y0252148D01*
X0378564Y0256807D02*
X0380820Y0259063D01*
X0384386D01*
X0372843Y0259772D02*
X0376000D01*
X0372614Y0260000D02*
X0372843Y0259772D01*
X0381367Y0257488D02*
X0384386D01*
X0380064Y0256186D02*
X0381367Y0257488D01*
X0381564Y0255564D02*
X0381913Y0255913D01*
X0381564Y0251678D02*
Y0255564D01*
X0380000Y0250114D02*
X0381564Y0251678D01*
X0376000Y0243728D02*
X0376228Y0243500D01*
X0376000Y0243728D02*
Y0246886D01*
X0372500Y0250114D02*
X0376000D01*
X0381913Y0255913D02*
X0384386D01*
Y0251007D02*
Y0254339D01*
X0380264Y0246886D02*
X0384386Y0251007D01*
X0380000Y0246886D02*
X0380264D01*
X0390488Y0249102D02*
Y0251386D01*
X0387500Y0246114D02*
X0390488Y0249102D01*
X0396787Y0247327D02*
Y0251386D01*
Y0247327D02*
X0398000Y0246114D01*
D59*
X0398571Y0265362D02*
X0407614D01*
X0395213Y0263787D02*
Y0274614D01*
X0396787Y0262213D02*
X0407614D01*
X0401512Y0251386D02*
Y0257279D01*
X0367862Y0383653D02*
X0369437Y0385228D01*
X0368453Y0367819D02*
Y0378547D01*
X0351819Y0378547D02*
X0362547D01*
X0349996Y0328969D02*
Y0333496D01*
X0348028Y0328969D02*
Y0333496D01*
X0390488Y0268512D02*
Y0274614D01*
X0453217Y0254000D02*
X0464859Y0242359D01*
X0374358Y0395181D02*
Y0405142D01*
X0468071Y0362500D02*
Y0371000D01*
Y0381429D01*
X0464457Y0374614D02*
X0468071Y0371000D01*
X0463000Y0374614D02*
X0464457D01*
X0384228Y0390500D02*
Y0397500D01*
X0364516Y0395181D02*
Y0397984D01*
X0345000Y0303500D02*
Y0318056D01*
X0439728Y0349272D02*
X0448673Y0340327D01*
X0355500Y0349272D02*
X0439728D01*
X0365272Y0345228D02*
X0365500Y0345000D01*
Y0343500D02*
Y0345000D01*
X0430614Y0418657D02*
X0430772Y0418500D01*
X0430614Y0418657D02*
Y0422000D01*
X0422476Y0421724D02*
X0427110D01*
X0427386Y0422000D01*
X0437748Y0300705D02*
X0441421D01*
X0496000Y0288500D02*
Y0300500D01*
X0489890Y0306610D02*
X0496000Y0300500D01*
X0481252Y0306610D02*
X0489890D01*
X0500000Y0288500D02*
Y0299500D01*
X0485016Y0314484D02*
X0500000Y0299500D01*
X0481252Y0314484D02*
X0485016D01*
X0338783Y0373000D02*
X0343500D01*
X0327141Y0384641D02*
X0338783Y0373000D01*
X0453217Y0254000D02*
X0453500D01*
X0467141Y0382359D02*
X0468071Y0381429D01*
X0381500Y0233500D02*
X0389457D01*
X0380000D02*
X0381500D01*
X0389457D02*
X0396543D01*
X0408500D01*
X0343528Y0322472D02*
X0346059D01*
X0348028Y0333496D02*
X0349996D01*
X0350980Y0329953D02*
X0351965Y0330937D01*
X0349996Y0328969D02*
X0350980Y0329953D01*
X0351965Y0330937D02*
Y0333496D01*
X0349012Y0327984D02*
X0349996Y0328969D01*
X0348028Y0328969D02*
X0349012Y0327984D01*
X0347043Y0329953D02*
X0348028Y0328969D01*
X0346059Y0330937D02*
X0347043Y0329953D01*
X0346059Y0330937D02*
Y0333496D01*
X0348028D01*
X0471862Y0343866D02*
X0472000Y0343728D01*
X0468071Y0343866D02*
X0471862D01*
X0448673Y0335252D02*
Y0340327D01*
X0357665Y0330937D02*
X0358228Y0331500D01*
X0354524Y0330937D02*
X0357665D01*
X0472000Y0343728D02*
X0472500D01*
X0451929Y0343866D02*
X0468071D01*
X0452610Y0335252D02*
Y0343185D01*
X0451929Y0343866D02*
X0452610Y0343185D01*
X0451791Y0343728D02*
X0451929Y0343866D01*
X0358610Y0395181D02*
Y0398839D01*
X0368453Y0395181D02*
Y0399681D01*
X0379181Y0386421D02*
X0383650D01*
X0354673Y0395181D02*
Y0396555D01*
X0379181Y0370673D02*
X0381827D01*
X0379181Y0374610D02*
X0383140D01*
X0379181Y0380516D02*
X0380996D01*
X0379181Y0384453D02*
X0383276D01*
X0379181Y0372642D02*
X0384142D01*
X0379181Y0376579D02*
X0381641D01*
X0376327Y0395181D02*
Y0398827D01*
X0379181Y0390358D02*
Y0392327D01*
X0365500Y0381500D02*
X0369000Y0385000D01*
X0376327Y0367819D02*
Y0370673D01*
X0365500Y0381500D02*
X0368453Y0378547D01*
X0365396Y0381396D02*
X0366287Y0380504D01*
X0379181Y0388390D02*
X0382094D01*
X0356642Y0395181D02*
Y0398587D01*
X0379181Y0382484D02*
X0381291D01*
X0372390Y0395181D02*
Y0407339D01*
X0364500Y0397969D02*
X0364516Y0397984D01*
X0350150Y0347500D02*
X0351921Y0345728D01*
X0355500D01*
X0351921Y0356772D02*
X0355500D01*
X0350150Y0355000D02*
X0351921Y0356772D01*
X0474386Y0289114D02*
X0479000D01*
X0474264Y0289236D02*
X0474386Y0289114D01*
X0474264Y0289236D02*
Y0291748D01*
X0483886Y0328264D02*
Y0332500D01*
X0481252Y0328264D02*
X0483886D01*
X0444736Y0335252D02*
Y0336386D01*
X0440000D02*
X0444736D01*
X0375376Y0364624D02*
X0379490D01*
X0380000Y0364114D01*
X0343728Y0382000D02*
Y0385500D01*
X0346390Y0374610D02*
X0351819D01*
X0341000Y0380000D02*
X0346390Y0374610D01*
X0341000Y0380000D02*
Y0408728D01*
X0371000D02*
X0372390Y0407339D01*
X0421000Y0285500D02*
X0427000D01*
X0428500Y0287000D01*
X0459500Y0275000D02*
X0468358Y0283858D01*
X0433500Y0275000D02*
X0459500D01*
X0429157Y0270657D02*
X0433500Y0275000D01*
X0436774Y0273274D02*
X0460037D01*
X0434079Y0270579D02*
X0436774Y0273274D01*
X0460037D02*
X0470302Y0283539D01*
X0393047Y0312516D02*
Y0314484D01*
X0343728Y0392500D02*
Y0396000D01*
X0348000Y0403272D02*
X0351500D01*
X0383112Y0378400D02*
X0386900D01*
X0380996Y0380516D02*
X0383112Y0378400D01*
X0383650Y0386421D02*
X0384228Y0387000D01*
X0382094Y0388390D02*
X0384204Y0390500D01*
X0383276Y0384453D02*
X0384228Y0383500D01*
X0381291Y0382484D02*
X0383275Y0380500D01*
X0385000D01*
X0380000Y0364114D02*
X0383500D01*
X0366500Y0362614D02*
X0370000D01*
X0485870Y0322358D02*
X0491228Y0317000D01*
X0481252Y0322358D02*
X0485870D01*
X0490984Y0313500D02*
X0491228D01*
X0484094Y0320390D02*
X0490984Y0313500D01*
X0481252Y0320390D02*
X0484094D01*
X0494772Y0317000D02*
X0495544D01*
X0498331Y0309941D02*
X0502500D01*
X0494772Y0313500D02*
X0498331Y0309941D01*
X0495544Y0317000D02*
X0500044Y0312500D01*
X0502500D01*
X0426114Y0311591D02*
X0426134Y0311571D01*
X0426114Y0311591D02*
Y0316000D01*
X0426567Y0316453D01*
X0437748D01*
X0397984Y0314484D02*
X0398953D01*
X0396984Y0313484D02*
X0397984Y0314484D01*
X0396984Y0310547D02*
Y0313484D01*
X0402347Y0319653D02*
X0414000Y0308000D01*
X0393047Y0317024D02*
X0395676Y0319653D01*
X0401685Y0318053D02*
X0412400Y0307337D01*
X0398013Y0318053D02*
X0401685D01*
X0397361Y0317401D02*
X0398013Y0318053D01*
X0395676Y0319653D02*
X0402347D01*
X0397361Y0317400D02*
Y0317401D01*
X0397360Y0317400D02*
X0397361D01*
X0396984Y0317024D02*
X0397360Y0317400D01*
X0412400Y0291837D02*
Y0307337D01*
X0414000Y0292500D02*
Y0308000D01*
X0430114Y0334714D02*
Y0337500D01*
X0428150Y0332750D02*
X0430114Y0334714D01*
X0409886Y0318500D02*
Y0321286D01*
X0411850Y0323250D01*
X0413250D01*
X0418079Y0318421D01*
X0437748D01*
X0428150Y0332750D02*
X0433000Y0327900D01*
Y0322000D02*
Y0327900D01*
Y0322000D02*
X0434610Y0320390D01*
X0437748D01*
X0306333Y0381333D02*
X0313742D01*
X0280500Y0355500D02*
X0306333Y0381333D01*
X0280500Y0272000D02*
Y0355500D01*
Y0272000D02*
X0304872Y0247628D01*
Y0236720D02*
Y0247628D01*
X0328167Y0231242D02*
X0328410Y0231000D01*
X0472772Y0251153D02*
X0478258Y0245667D01*
X0472772Y0251153D02*
Y0252500D01*
X0462453Y0281547D02*
Y0291748D01*
X0432000Y0301500D02*
Y0304886D01*
X0429157Y0261000D02*
X0434079D01*
X0429157Y0258228D02*
Y0261000D01*
Y0258228D02*
X0432886Y0254500D01*
X0374542Y0404957D02*
X0374617D01*
X0374358Y0405142D02*
X0374542Y0404957D01*
X0376327Y0398827D02*
X0377000Y0399500D01*
X0374358Y0390358D02*
X0376327Y0392327D01*
X0379181D01*
X0372500Y0374500D02*
X0376327Y0370673D01*
X0369000Y0378000D02*
X0372500Y0374500D01*
X0368453Y0378547D02*
X0369000Y0378000D01*
X0372500Y0388500D02*
X0374358Y0390358D01*
X0369000Y0385000D02*
X0372500Y0388500D01*
X0374358Y0390358D02*
X0379181D01*
X0357772Y0403272D02*
X0359500D01*
X0357500Y0403000D02*
X0357772Y0403272D01*
X0357228D02*
X0357500Y0403000D01*
X0355500Y0403272D02*
X0357228D01*
X0364713Y0382079D02*
X0365396Y0381396D01*
X0365500Y0381500D01*
X0362547Y0378547D02*
X0365396Y0381396D01*
X0436500Y0336386D02*
X0440000D01*
X0479000Y0289114D02*
Y0291000D01*
X0401512Y0251386D02*
X0403087D01*
Y0255705D01*
X0401512Y0257279D02*
Y0257488D01*
X0399000Y0260000D02*
X0401512Y0257488D01*
X0396787Y0262213D02*
X0399000Y0260000D01*
X0396000Y0263000D02*
X0396787Y0262213D01*
X0395213Y0263787D02*
X0396000Y0263000D01*
X0393000Y0266000D02*
X0395213Y0263787D01*
X0390488Y0268512D02*
X0393000Y0266000D01*
X0398362Y0265362D02*
X0399000Y0266000D01*
X0398362Y0265362D02*
X0398571D01*
X0396000Y0263000D02*
X0398362Y0265362D01*
X0399000Y0266000D02*
X0399937Y0266937D01*
X0407614D01*
Y0265362D02*
Y0266937D01*
X0401500Y0246114D02*
X0405000D01*
X0408500D02*
X0412000D01*
X0434079Y0269661D02*
Y0270579D01*
X0428500Y0287000D02*
X0431228D01*
X0434772D02*
Y0287500D01*
Y0283500D02*
Y0287000D01*
X0427169Y0282869D02*
X0427339D01*
X0427000D02*
X0427169D01*
X0427801Y0283500D01*
X0442390Y0306610D02*
X0442500Y0306500D01*
X0437748Y0306610D02*
X0442390D01*
X0433839D02*
X0437748D01*
X0432335Y0308114D02*
X0433839Y0306610D01*
X0432000Y0308114D02*
X0432335D01*
X0432244Y0304642D02*
X0437748D01*
X0432000Y0304886D02*
X0432244Y0304642D01*
X0437748Y0328264D02*
Y0335138D01*
X0436500Y0336386D02*
X0437748Y0335138D01*
X0446705Y0331376D02*
Y0335252D01*
Y0339128D01*
X0481252Y0326295D02*
X0486590D01*
X0487000Y0325886D01*
X0472295Y0286091D02*
Y0291748D01*
Y0286091D02*
X0472386Y0286000D01*
X0448673Y0286441D02*
X0449114Y0286000D01*
X0448673Y0286441D02*
Y0291748D01*
X0446705D02*
Y0295624D01*
Y0286819D02*
Y0291748D01*
X0445886Y0286000D02*
X0446705Y0286819D01*
X0427801Y0283500D02*
X0431228D01*
X0398953Y0314484D02*
Y0316453D01*
X0389000Y0310386D02*
X0389161Y0310547D01*
X0393047D01*
X0394000Y0294500D02*
X0395886Y0296386D01*
Y0303000D01*
Y0306500D01*
X0395016Y0307370D02*
Y0310547D01*
Y0307370D02*
X0395886Y0306500D01*
X0395016Y0310547D02*
X0396984D01*
X0395016Y0315881D02*
Y0316453D01*
X0393619Y0314484D02*
X0395016Y0315881D01*
X0393047Y0314484D02*
X0393619D01*
X0396984Y0316453D02*
Y0317024D01*
X0412400Y0291837D02*
X0421369Y0282869D01*
X0427000D01*
X0414000Y0292500D02*
X0421000Y0285500D01*
X0393047Y0316453D02*
Y0317024D01*
X0429157Y0269661D02*
Y0270657D01*
X0470302Y0283539D02*
Y0291723D01*
X0470327Y0291748D01*
X0468358Y0283858D02*
Y0291748D01*
X0345000Y0318056D02*
X0348028Y0321083D01*
Y0322472D01*
X0343386Y0337500D02*
X0343500Y0337386D01*
Y0330937D02*
Y0337386D01*
X0376000Y0331000D02*
Y0334839D01*
X0443228Y0365500D02*
X0443386Y0365342D01*
X0386900Y0378400D02*
X0387300Y0378800D01*
X0415500Y0246114D02*
X0420602D01*
X0412000D02*
X0415500D01*
X0405000D02*
X0408500D01*
X0398000D02*
X0401500D01*
X0420602D02*
X0421500Y0247012D01*
X0422476Y0420124D02*
X0425604D01*
X0427228Y0418500D01*
X0422476Y0393624D02*
X0425604D01*
X0427228Y0392000D01*
X0430614Y0392158D02*
X0430772Y0392000D01*
X0430614Y0392158D02*
Y0395500D01*
X0422476Y0395224D02*
X0427110D01*
X0427386Y0395500D01*
X0462555Y0375059D02*
X0463000Y0374614D01*
X0457823Y0375059D02*
X0462555D01*
X0349748Y0384453D02*
X0351819D01*
X0347296Y0382000D02*
X0349748Y0384453D01*
X0347272Y0382000D02*
X0347296D01*
X0348146Y0396000D02*
X0351819Y0392327D01*
X0347272Y0396000D02*
X0348146D01*
X0347272Y0389000D02*
X0347882Y0388390D01*
X0348193Y0386421D02*
X0351819D01*
X0347272Y0385500D02*
X0348193Y0386421D01*
X0343728Y0385500D02*
Y0388000D01*
X0347882Y0388390D02*
X0351819D01*
X0341000Y0412272D02*
X0344717D01*
X0346488Y0410500D01*
X0357512D02*
X0359126Y0412114D01*
X0363000D01*
X0367000Y0412272D02*
X0371000D01*
X0363158D02*
X0367000D01*
X0363000Y0412114D02*
X0363158Y0412272D01*
X0351500Y0399728D02*
X0354673Y0396555D01*
X0355500Y0399728D02*
X0356642Y0398587D01*
X0358610Y0398839D02*
X0359500Y0399728D01*
X0368453Y0399681D02*
X0368500Y0399728D01*
X0377209Y0399555D02*
X0377383Y0399728D01*
X0384204Y0390500D02*
X0384228D01*
X0381641Y0376579D02*
X0381772Y0376710D01*
X0383140Y0374610D02*
X0384530Y0376000D01*
X0387228D01*
X0385000Y0373500D02*
X0385728D01*
X0384142Y0372642D02*
X0385000Y0373500D01*
X0381827Y0370673D02*
X0382000Y0370500D01*
X0385728Y0373500D02*
X0387228Y0372000D01*
X0373228Y0355500D02*
X0373386Y0355658D01*
Y0359000D01*
Y0362500D01*
X0372390Y0363496D02*
X0373386Y0362500D01*
X0372390Y0363496D02*
Y0367819D01*
X0370421Y0363035D02*
Y0367819D01*
X0370000Y0362614D02*
X0370421Y0363035D01*
X0363000Y0363000D02*
X0365046Y0365046D01*
X0363000Y0362772D02*
Y0363000D01*
X0365046Y0365046D02*
X0365463D01*
X0366484Y0366066D02*
Y0367819D01*
X0365463Y0365046D02*
X0366484Y0366066D01*
X0380000Y0364114D02*
Y0364178D01*
X0374358Y0365642D02*
X0375376Y0364624D01*
X0374358Y0365642D02*
Y0367819D01*
X0443386Y0362000D02*
Y0365342D01*
X0446772Y0365500D02*
X0448177Y0366905D01*
Y0369941D01*
X0443614Y0372500D02*
X0448177D01*
X0443000Y0371886D02*
X0443614Y0372500D01*
X0448122Y0375114D02*
X0448177Y0375059D01*
X0443000Y0375114D02*
X0448122D01*
X0442614Y0371500D02*
X0443000Y0371886D01*
X0439272Y0371500D02*
X0442614D01*
Y0375500D02*
X0443000Y0375114D01*
X0439272Y0375500D02*
X0442614D01*
X0430000Y0377240D02*
X0431740Y0375500D01*
X0435728D01*
X0431740Y0371500D02*
X0435728D01*
X0430000Y0369760D02*
X0431740Y0371500D01*
X0394500Y0382772D02*
Y0386886D01*
X0409386Y0403000D02*
X0409524Y0402862D01*
Y0396799D02*
Y0402862D01*
Y0395224D02*
Y0396799D01*
X0409386Y0429500D02*
X0409524Y0429362D01*
Y0423299D02*
Y0429362D01*
Y0421724D02*
Y0423299D01*
D60*
X0363000Y0359228D02*
X0369843D01*
X0372728Y0267158D02*
X0372886Y0267000D01*
X0363158Y0408728D02*
X0367000D01*
X0363000Y0408886D02*
X0363158Y0408728D01*
X0386000Y0284114D02*
X0389500D01*
X0487114Y0331000D02*
Y0332500D01*
Y0329228D02*
Y0331000D01*
X0399114Y0303000D02*
Y0306500D01*
X0369843Y0359228D02*
X0370000Y0359386D01*
X0412000Y0242886D02*
X0415500D01*
X0408500D02*
X0412000D01*
X0405000D02*
X0408500D01*
X0401500D02*
X0405000D01*
X0398000D02*
X0401500D01*
X0372728Y0267158D02*
Y0270500D01*
X0372886Y0263500D02*
Y0267000D01*
X0369000Y0246886D02*
X0372500D01*
X0387772Y0394158D02*
Y0397500D01*
X0387614Y0394000D02*
X0387772Y0394158D01*
X0393000Y0284114D02*
X0396500D01*
X0389500D02*
X0393000D01*
X0415114Y0262000D02*
Y0264000D01*
Y0260500D02*
Y0262000D01*
Y0258750D02*
Y0260500D01*
Y0257000D02*
Y0258750D01*
Y0251500D02*
Y0253500D01*
Y0249500D02*
Y0251500D01*
Y0255250D02*
Y0257000D01*
Y0253500D02*
Y0255250D01*
X0487000Y0329114D02*
X0487114Y0329228D01*
X0379000Y0297500D02*
Y0310488D01*
D61*
X0396000Y0223551D02*
X0396543Y0224095D01*
Y0230941D01*
X0391000Y0236500D02*
Y0242886D01*
X0390559Y0236059D02*
X0391000Y0236500D01*
X0389457Y0236059D02*
X0390559D01*
X0395441D02*
X0396543D01*
X0394500Y0237000D02*
X0395441Y0236059D01*
X0394500Y0237000D02*
Y0242886D01*
D62*
X0392063Y0247177D02*
Y0251386D01*
X0391000Y0246114D02*
X0392063Y0247177D01*
X0393638Y0246976D02*
Y0251386D01*
Y0246976D02*
X0394500Y0246114D01*
D63*
X0300000Y0264500D02*
D03*
X0492000D02*
D03*
Y0362500D02*
D03*
X0300000D02*
D03*
D64*
X0309500Y0313500D02*
D03*
X0291500D02*
D03*
D65*
X0431500Y0402500D02*
D03*
X0468071Y0362500D02*
D03*
X0379000Y0276386D02*
D03*
X0375150Y0275441D02*
D03*
X0368500Y0334000D02*
D03*
Y0331000D02*
D03*
X0380500D02*
D03*
X0287000Y0289500D02*
D03*
X0290000D02*
D03*
X0293000D02*
D03*
X0296000D02*
D03*
X0287000Y0292500D02*
D03*
X0290000D02*
D03*
X0293000D02*
D03*
X0296000D02*
D03*
X0287000Y0295500D02*
D03*
X0290000D02*
D03*
X0293000D02*
D03*
X0296000D02*
D03*
X0287000Y0286500D02*
D03*
X0290000D02*
D03*
X0293000D02*
D03*
X0296000D02*
D03*
X0345000Y0303500D02*
D03*
X0345500Y0294500D02*
D03*
X0354500D02*
D03*
X0351500D02*
D03*
X0348500D02*
D03*
X0345500Y0297500D02*
D03*
Y0300500D02*
D03*
X0380000Y0396000D02*
D03*
X0339000Y0333500D02*
D03*
X0344000Y0351500D02*
D03*
X0355500Y0353228D02*
D03*
X0374500Y0343500D02*
D03*
X0365500Y0346500D02*
D03*
Y0343500D02*
D03*
Y0340500D02*
D03*
Y0337500D02*
D03*
X0374500Y0346500D02*
D03*
Y0340250D02*
D03*
Y0337500D02*
D03*
X0371500Y0346500D02*
D03*
X0368500D02*
D03*
X0371500Y0343500D02*
D03*
X0368500D02*
D03*
Y0340500D02*
D03*
X0371500D02*
D03*
Y0337500D02*
D03*
X0368500D02*
D03*
X0399000Y0360500D02*
D03*
X0463000Y0362500D02*
D03*
X0462500Y0264000D02*
D03*
X0328500Y0367000D02*
D03*
X0340500Y0258000D02*
D03*
X0425500Y0408500D02*
D03*
X0422476Y0423976D02*
D03*
X0441421Y0300705D02*
D03*
X0456547Y0338925D02*
D03*
X0310697Y0388197D02*
D03*
X0321303Y0398803D02*
D03*
X0470697D02*
D03*
X0481303Y0388197D02*
D03*
Y0238803D02*
D03*
X0470697Y0228197D02*
D03*
X0310697Y0238803D02*
D03*
X0321303Y0228197D02*
D03*
X0496000Y0288500D02*
D03*
X0500000D02*
D03*
X0502500Y0307382D02*
D03*
X0447000Y0397000D02*
D03*
X0333000Y0405000D02*
D03*
X0382000Y0412500D02*
D03*
X0327141Y0384641D02*
D03*
X0343500Y0373000D02*
D03*
X0324859Y0244641D02*
D03*
X0378000Y0239500D02*
D03*
X0381500D02*
D03*
X0324859Y0382359D02*
D03*
X0327141Y0242359D02*
D03*
X0464859Y0384641D02*
D03*
X0467141Y0244641D02*
D03*
X0464859Y0242359D02*
D03*
X0453500Y0254000D02*
D03*
X0467141Y0382359D02*
D03*
X0441500Y0295500D02*
D03*
X0388000Y0294500D02*
D03*
X0410500Y0233500D02*
D03*
Y0236500D02*
D03*
Y0239500D02*
D03*
Y0227500D02*
D03*
X0414000Y0233500D02*
D03*
Y0236500D02*
D03*
Y0227500D02*
D03*
Y0239500D02*
D03*
X0378000Y0227500D02*
D03*
Y0233500D02*
D03*
Y0236500D02*
D03*
X0381500Y0227500D02*
D03*
Y0233500D02*
D03*
Y0236500D02*
D03*
X0372886Y0267000D02*
D03*
X0366000D02*
D03*
X0409386Y0429500D02*
D03*
Y0403000D02*
D03*
X0361772Y0331500D02*
D03*
X0453500Y0371000D02*
D03*
X0463000Y0371386D02*
D03*
X0407000Y0252000D02*
D03*
X0457500Y0278000D02*
D03*
X0472500Y0347272D02*
D03*
X0468071Y0352134D02*
D03*
X0451929D02*
D03*
X0364500Y0397969D02*
D03*
X0355500Y0349272D02*
D03*
X0351000Y0337500D02*
D03*
X0339000D02*
D03*
X0376614Y0359000D02*
D03*
Y0362500D02*
D03*
X0376772Y0355500D02*
D03*
X0343728Y0385500D02*
D03*
X0363000Y0408886D02*
D03*
X0367000Y0408728D02*
D03*
X0454000Y0278000D02*
D03*
X0389500Y0284114D02*
D03*
X0386000D02*
D03*
X0391500Y0278000D02*
D03*
X0427000Y0285500D02*
D03*
X0426886Y0337500D02*
D03*
X0446000Y0285000D02*
D03*
X0422500Y0295500D02*
D03*
X0432000D02*
D03*
X0436500Y0339614D02*
D03*
X0440000D02*
D03*
X0487114Y0331000D02*
D03*
X0477500Y0283000D02*
D03*
X0368850Y0280559D02*
D03*
X0365000Y0279614D02*
D03*
X0400000Y0298000D02*
D03*
X0422476Y0397476D02*
D03*
X0343728Y0396000D02*
D03*
X0351500Y0403272D02*
D03*
X0399000Y0382772D02*
D03*
X0390772Y0372000D02*
D03*
X0399000Y0371886D02*
D03*
X0383500Y0360886D02*
D03*
X0366500Y0359386D02*
D03*
X0380000Y0360886D02*
D03*
X0366500Y0362614D02*
D03*
X0370000D02*
D03*
X0446614Y0362000D02*
D03*
X0411850Y0332750D02*
D03*
X0417866Y0295429D02*
D03*
X0463833Y0395758D02*
D03*
X0319220Y0404628D02*
D03*
X0472780Y0222372D02*
D03*
X0328167Y0231242D02*
D03*
X0472742Y0404667D02*
D03*
X0478219Y0381371D02*
D03*
X0304833Y0390242D02*
D03*
X0328129Y0395719D02*
D03*
X0319258Y0222333D02*
D03*
X0313781Y0245629D02*
D03*
X0487167Y0236758D02*
D03*
X0472772Y0252500D02*
D03*
X0462453Y0281547D02*
D03*
X0463871Y0231281D02*
D03*
X0469228Y0252500D02*
D03*
X0432000Y0301500D02*
D03*
X0443921Y0269661D02*
D03*
Y0261000D02*
D03*
X0439000D02*
D03*
X0436114Y0254500D02*
D03*
X0429157Y0261000D02*
D03*
X0432886Y0254500D02*
D03*
X0387500Y0242886D02*
D03*
X0412000D02*
D03*
X0405000D02*
D03*
X0398000D02*
D03*
X0421500Y0235988D02*
D03*
X0369000Y0246886D02*
D03*
X0372500Y0246886D02*
D03*
X0366000Y0259596D02*
D03*
X0389500Y0280886D02*
D03*
X0411886Y0260500D02*
D03*
Y0253500D02*
D03*
X0387500Y0246114D02*
D03*
X0374542Y0404957D02*
D03*
X0404000Y0381500D02*
D03*
X0387772Y0390500D02*
D03*
Y0383500D02*
D03*
Y0387000D02*
D03*
Y0397500D02*
D03*
X0387614Y0394000D02*
D03*
X0368500Y0403272D02*
D03*
X0357500Y0403000D02*
D03*
X0377383Y0403272D02*
D03*
X0348000Y0399728D02*
D03*
X0347272Y0392500D02*
D03*
X0347500Y0378500D02*
D03*
X0436500Y0336386D02*
D03*
X0440000D02*
D03*
X0483886Y0332500D02*
D03*
X0479000Y0291000D02*
D03*
X0415114Y0262000D02*
D03*
Y0258750D02*
D03*
Y0251500D02*
D03*
Y0255250D02*
D03*
X0396500Y0284114D02*
D03*
X0393000D02*
D03*
X0398000Y0246114D02*
D03*
X0405000D02*
D03*
X0412000D02*
D03*
X0421500Y0247012D02*
D03*
X0449000Y0285000D02*
D03*
X0434772Y0283500D02*
D03*
X0427000Y0282869D02*
D03*
X0434079Y0269661D02*
D03*
X0429157D02*
D03*
X0358500Y0388500D02*
D03*
X0365500D02*
D03*
X0372500D02*
D03*
X0369000Y0385000D02*
D03*
X0362000D02*
D03*
X0369000Y0378000D02*
D03*
X0372500Y0381500D02*
D03*
X0358500D02*
D03*
X0362000Y0378000D02*
D03*
X0372500Y0374500D02*
D03*
X0365500D02*
D03*
X0358500D02*
D03*
X0365500Y0381500D02*
D03*
X0410000Y0365500D02*
D03*
Y0368500D02*
D03*
Y0371500D02*
D03*
Y0374500D02*
D03*
X0416000D02*
D03*
X0413000D02*
D03*
X0416000Y0371500D02*
D03*
X0413000D02*
D03*
Y0368500D02*
D03*
X0416000D02*
D03*
Y0365500D02*
D03*
X0413000D02*
D03*
Y0412000D02*
D03*
X0416000D02*
D03*
X0419000D02*
D03*
Y0415000D02*
D03*
X0416000D02*
D03*
X0413000D02*
D03*
Y0418000D02*
D03*
X0416000D02*
D03*
X0419000D02*
D03*
X0413000Y0421000D02*
D03*
X0416000D02*
D03*
X0419000D02*
D03*
Y0400000D02*
D03*
X0416000D02*
D03*
X0413000D02*
D03*
Y0403000D02*
D03*
X0416000D02*
D03*
X0419000D02*
D03*
Y0409000D02*
D03*
X0416000D02*
D03*
X0413000D02*
D03*
Y0406000D02*
D03*
X0416000D02*
D03*
X0419000D02*
D03*
X0413000Y0382000D02*
D03*
X0416000D02*
D03*
X0419000D02*
D03*
Y0385000D02*
D03*
X0416000D02*
D03*
X0413000D02*
D03*
Y0388000D02*
D03*
X0416000D02*
D03*
X0419000D02*
D03*
Y0394000D02*
D03*
X0416000D02*
D03*
X0413000D02*
D03*
Y0391000D02*
D03*
X0416000D02*
D03*
X0419000D02*
D03*
X0371500Y0331000D02*
D03*
X0513000Y0296752D02*
D03*
Y0307500D02*
D03*
Y0317500D02*
D03*
Y0328300D02*
D03*
X0379000Y0297500D02*
D03*
X0409000Y0291500D02*
D03*
Y0294500D02*
D03*
X0406000D02*
D03*
X0403000D02*
D03*
X0400000D02*
D03*
X0397000D02*
D03*
X0394000D02*
D03*
X0391000D02*
D03*
Y0291500D02*
D03*
X0394000D02*
D03*
X0397000D02*
D03*
X0400000D02*
D03*
X0403000D02*
D03*
X0406000D02*
D03*
X0422500Y0402500D02*
D03*
X0425500D02*
D03*
X0428500D02*
D03*
Y0405500D02*
D03*
X0431500D02*
D03*
X0425500D02*
D03*
X0422500D02*
D03*
Y0408500D02*
D03*
X0428500D02*
D03*
X0431500D02*
D03*
Y0414500D02*
D03*
X0428500D02*
D03*
X0425500D02*
D03*
X0422500D02*
D03*
Y0411500D02*
D03*
X0425500D02*
D03*
X0431500D02*
D03*
X0428500D02*
D03*
Y0385000D02*
D03*
X0431500D02*
D03*
X0425500D02*
D03*
X0422500D02*
D03*
Y0388000D02*
D03*
X0425500D02*
D03*
X0428500D02*
D03*
X0431500D02*
D03*
Y0382000D02*
D03*
X0428500D02*
D03*
X0425500D02*
D03*
X0422500D02*
D03*
Y0379000D02*
D03*
X0425500D02*
D03*
X0431500D02*
D03*
X0428500D02*
D03*
Y0376000D02*
D03*
X0425500D02*
D03*
X0422500D02*
D03*
X0431500Y0368500D02*
D03*
Y0365500D02*
D03*
X0428500D02*
D03*
X0425500D02*
D03*
X0422500D02*
D03*
X0419500D02*
D03*
Y0368500D02*
D03*
X0422500D02*
D03*
X0425500D02*
D03*
X0428500D02*
D03*
Y0371500D02*
D03*
X0425500D02*
D03*
X0422500D02*
D03*
X0419500D02*
D03*
X0354500Y0297500D02*
D03*
X0351500D02*
D03*
X0348500D02*
D03*
Y0300500D02*
D03*
Y0303500D02*
D03*
X0351500Y0300500D02*
D03*
Y0303500D02*
D03*
X0354500D02*
D03*
Y0300500D02*
D03*
X0374500Y0331000D02*
D03*
X0377500D02*
D03*
X0390000Y0269000D02*
D03*
X0396000Y0263000D02*
D03*
X0393000Y0260000D02*
D03*
X0390000Y0257000D02*
D03*
X0399000Y0260000D02*
D03*
X0402000Y0257000D02*
D03*
X0390000Y0263000D02*
D03*
X0402000D02*
D03*
X0396000Y0257000D02*
D03*
X0402000Y0269000D02*
D03*
X0399000Y0266000D02*
D03*
X0396000Y0269000D02*
D03*
X0393000Y0266000D02*
D03*
X0373000Y0297500D02*
D03*
X0370000D02*
D03*
X0367000D02*
D03*
X0364000D02*
D03*
X0361000D02*
D03*
X0358000D02*
D03*
Y0300500D02*
D03*
Y0303500D02*
D03*
X0361000Y0300500D02*
D03*
Y0303500D02*
D03*
X0364000D02*
D03*
Y0300500D02*
D03*
X0367000D02*
D03*
Y0303500D02*
D03*
X0370000D02*
D03*
Y0300500D02*
D03*
X0373000D02*
D03*
Y0303500D02*
D03*
X0443228Y0365500D02*
D03*
X0387300Y0378800D02*
D03*
X0385000Y0380500D02*
D03*
X0381772Y0376710D02*
D03*
X0385000Y0373500D02*
D03*
X0382000Y0370500D02*
D03*
X0387228Y0376000D02*
D03*
X0350980Y0329953D02*
D03*
Y0326016D02*
D03*
X0347043D02*
D03*
Y0329953D02*
D03*
X0349012Y0327984D02*
D03*
M02*
