G04 Layer_Color=8388736*
%FSAX25Y25*%
%MOIN*%
G70*
G01*
G75*
%ADD31R,0.03150X0.01181*%
%ADD57R,0.04331X0.04331*%
%ADD63C,0.12205*%
%ADD83R,0.20776X0.20776*%
%ADD84R,0.03847X0.01484*%
%ADD85R,0.01484X0.03847*%
%ADD86R,0.03937X0.01181*%
%ADD87R,0.17716X0.17716*%
%ADD88R,0.01181X0.03937*%
%ADD89R,0.04043X0.03650*%
%ADD90R,0.02862X0.04831*%
%ADD91R,0.02547X0.02469*%
%ADD92R,0.03256X0.04043*%
%ADD93R,0.02272X0.02665*%
%ADD94R,0.02469X0.02547*%
%ADD95R,0.02665X0.02272*%
%ADD96R,0.02862X0.01287*%
%ADD97R,0.09161X0.16445*%
%ADD98R,0.05618X0.03256*%
%ADD99R,0.04240X0.10736*%
%ADD100R,0.04240X0.10343*%
%ADD101R,0.04634X0.02272*%
%ADD102R,0.01484X0.01484*%
%ADD103R,0.07193X0.04240*%
%ADD104O,0.01484X0.06602*%
%ADD105O,0.06602X0.01484*%
%ADD106R,0.06800X0.06000*%
%ADD107R,0.03059X0.04437*%
%ADD108R,0.04437X0.03059*%
G04:AMPARAMS|DCode=109|XSize=24.69mil|YSize=25.47mil|CornerRadius=0mil|HoleSize=0mil|Usage=FLASHONLY|Rotation=315.000|XOffset=0mil|YOffset=0mil|HoleType=Round|Shape=Rectangle|*
%AMROTATEDRECTD109*
4,1,4,-0.01773,-0.00028,0.00028,0.01773,0.01773,0.00028,-0.00028,-0.01773,-0.01773,-0.00028,0.0*
%
%ADD109ROTATEDRECTD109*%

G04:AMPARAMS|DCode=110|XSize=24.69mil|YSize=25.47mil|CornerRadius=0mil|HoleSize=0mil|Usage=FLASHONLY|Rotation=225.000|XOffset=0mil|YOffset=0mil|HoleType=Round|Shape=Rectangle|*
%AMROTATEDRECTD110*
4,1,4,-0.00028,0.01773,0.01773,-0.00028,0.00028,-0.01773,-0.01773,0.00028,-0.00028,0.01773,0.0*
%
%ADD110ROTATEDRECTD110*%

%ADD111R,0.04831X0.05303*%
%ADD112R,0.05224X0.07587*%
%ADD113R,0.02862X0.06602*%
%ADD114R,0.01681X0.02272*%
%ADD115R,0.06799X0.04437*%
%ADD116R,0.03256X0.05618*%
%ADD117R,0.05303X0.04831*%
%ADD118R,0.02469X0.02272*%
%ADD119R,0.07193X0.07193*%
%ADD120R,0.01484X0.02862*%
%ADD121R,0.02862X0.01484*%
%ADD122R,0.03256X0.03650*%
%ADD123R,0.06100X0.01900*%
%ADD124R,0.08000X0.07600*%
%ADD125R,0.08000X0.08000*%
%ADD126R,0.11600X0.10000*%
G04:AMPARAMS|DCode=127|XSize=70mil|YSize=45mil|CornerRadius=0mil|HoleSize=0mil|Usage=FLASHONLY|Rotation=45.000|XOffset=0mil|YOffset=0mil|HoleType=Round|Shape=Rectangle|*
%AMROTATEDRECTD127*
4,1,4,-0.00884,-0.04066,-0.04066,-0.00884,0.00884,0.04066,0.04066,0.00884,-0.00884,-0.04066,0.0*
%
%ADD127ROTATEDRECTD127*%

G04:AMPARAMS|DCode=128|XSize=70mil|YSize=45mil|CornerRadius=0mil|HoleSize=0mil|Usage=FLASHONLY|Rotation=315.000|XOffset=0mil|YOffset=0mil|HoleType=Round|Shape=Rectangle|*
%AMROTATEDRECTD128*
4,1,4,-0.04066,0.00884,-0.00884,0.04066,0.04066,-0.00884,0.00884,-0.04066,-0.04066,0.00884,0.0*
%
%ADD128ROTATEDRECTD128*%

%ADD129C,0.08500*%
%ADD130C,0.01200*%
D31*
X0396543Y0230941D02*
D03*
Y0233500D02*
D03*
Y0236059D02*
D03*
X0389457D02*
D03*
Y0233500D02*
D03*
Y0230941D02*
D03*
D57*
X0396000Y0192449D02*
D03*
X0403087D02*
D03*
Y0223551D02*
D03*
X0396000D02*
D03*
X0388913D02*
D03*
Y0192449D02*
D03*
D63*
X0300000Y0264500D02*
D03*
X0492000D02*
D03*
Y0362500D02*
D03*
X0300000D02*
D03*
D83*
X0365500Y0381500D02*
D03*
D84*
X0379181Y0392327D02*
D03*
Y0390358D02*
D03*
Y0388390D02*
D03*
Y0386421D02*
D03*
Y0384453D02*
D03*
Y0382484D02*
D03*
Y0380516D02*
D03*
Y0378547D02*
D03*
Y0376579D02*
D03*
Y0374610D02*
D03*
Y0372642D02*
D03*
Y0370673D02*
D03*
X0351819D02*
D03*
Y0372642D02*
D03*
Y0374610D02*
D03*
Y0376579D02*
D03*
Y0378547D02*
D03*
Y0380516D02*
D03*
Y0382484D02*
D03*
Y0384453D02*
D03*
Y0386421D02*
D03*
Y0388390D02*
D03*
Y0390358D02*
D03*
Y0392327D02*
D03*
D85*
X0376327Y0367819D02*
D03*
X0374358D02*
D03*
X0372390D02*
D03*
X0370421D02*
D03*
X0368453D02*
D03*
X0366484D02*
D03*
X0364516D02*
D03*
X0362547D02*
D03*
X0360579D02*
D03*
X0358610D02*
D03*
X0356642D02*
D03*
X0354673D02*
D03*
Y0395181D02*
D03*
X0356642D02*
D03*
X0358610D02*
D03*
X0360579D02*
D03*
X0362547D02*
D03*
X0364516D02*
D03*
X0366484D02*
D03*
X0368453D02*
D03*
X0370421D02*
D03*
X0372390D02*
D03*
X0374358D02*
D03*
X0376327D02*
D03*
D86*
X0384386Y0271661D02*
D03*
Y0268512D02*
D03*
Y0265362D02*
D03*
Y0262213D02*
D03*
Y0259063D02*
D03*
Y0255913D02*
D03*
Y0254339D02*
D03*
Y0257488D02*
D03*
Y0260638D02*
D03*
Y0263787D02*
D03*
Y0266937D02*
D03*
Y0270087D02*
D03*
X0407614Y0255913D02*
D03*
Y0259063D02*
D03*
Y0262213D02*
D03*
Y0265362D02*
D03*
Y0268512D02*
D03*
Y0271661D02*
D03*
Y0270087D02*
D03*
Y0266937D02*
D03*
Y0263787D02*
D03*
Y0260638D02*
D03*
Y0257488D02*
D03*
Y0254339D02*
D03*
D87*
X0396000Y0263000D02*
D03*
D88*
X0388913Y0251386D02*
D03*
X0392063D02*
D03*
X0395213D02*
D03*
X0398362D02*
D03*
X0401512D02*
D03*
X0404661D02*
D03*
X0403087D02*
D03*
X0399937D02*
D03*
X0396787D02*
D03*
X0393638D02*
D03*
X0390488D02*
D03*
X0387339D02*
D03*
X0403087Y0274614D02*
D03*
X0399937D02*
D03*
X0396787D02*
D03*
X0393638D02*
D03*
X0390488D02*
D03*
X0387339D02*
D03*
X0388913D02*
D03*
X0392063D02*
D03*
X0395213D02*
D03*
X0398362D02*
D03*
X0401512D02*
D03*
X0404661D02*
D03*
D89*
X0368850Y0280559D02*
D03*
X0375150D02*
D03*
Y0275441D02*
D03*
X0368850D02*
D03*
D90*
X0434079Y0269661D02*
D03*
X0439000D02*
D03*
X0429157D02*
D03*
X0443921D02*
D03*
Y0261000D02*
D03*
X0429157D02*
D03*
X0439000D02*
D03*
X0434079D02*
D03*
D91*
X0432000Y0308114D02*
D03*
Y0304886D02*
D03*
X0394500Y0386886D02*
D03*
Y0390114D02*
D03*
X0399000Y0371886D02*
D03*
Y0375114D02*
D03*
X0443000D02*
D03*
Y0371886D02*
D03*
X0389000Y0313614D02*
D03*
Y0310386D02*
D03*
X0396500Y0280886D02*
D03*
Y0284114D02*
D03*
X0393000D02*
D03*
Y0280886D02*
D03*
X0389500Y0284114D02*
D03*
Y0280886D02*
D03*
X0386000D02*
D03*
Y0284114D02*
D03*
X0379000Y0276386D02*
D03*
Y0279614D02*
D03*
X0365000D02*
D03*
Y0276386D02*
D03*
X0366000Y0259614D02*
D03*
Y0256386D02*
D03*
X0380000Y0246886D02*
D03*
Y0250114D02*
D03*
X0376000Y0246886D02*
D03*
Y0250114D02*
D03*
X0372500Y0246886D02*
D03*
Y0250114D02*
D03*
X0369000Y0246886D02*
D03*
Y0250114D02*
D03*
X0415500Y0242886D02*
D03*
Y0246114D02*
D03*
X0412000Y0242886D02*
D03*
Y0246114D02*
D03*
X0408500Y0242886D02*
D03*
Y0246114D02*
D03*
X0405000Y0242886D02*
D03*
Y0246114D02*
D03*
X0401500Y0242886D02*
D03*
Y0246114D02*
D03*
X0398000Y0242886D02*
D03*
Y0246114D02*
D03*
X0394500Y0242886D02*
D03*
Y0246114D02*
D03*
X0391000Y0242886D02*
D03*
Y0246114D02*
D03*
X0387500Y0242886D02*
D03*
Y0246114D02*
D03*
X0479000Y0285886D02*
D03*
Y0289114D02*
D03*
X0440000Y0339614D02*
D03*
Y0336386D02*
D03*
X0436500Y0339614D02*
D03*
Y0336386D02*
D03*
X0487000Y0329114D02*
D03*
Y0325886D02*
D03*
X0463000Y0371386D02*
D03*
Y0374614D02*
D03*
X0380000Y0364114D02*
D03*
Y0360886D02*
D03*
X0383500Y0364114D02*
D03*
Y0360886D02*
D03*
X0370000Y0359386D02*
D03*
Y0362614D02*
D03*
X0366500Y0359386D02*
D03*
Y0362614D02*
D03*
X0363000Y0408886D02*
D03*
Y0412114D02*
D03*
X0368500Y0333886D02*
D03*
Y0337114D02*
D03*
Y0330614D02*
D03*
Y0327386D02*
D03*
X0339000Y0333114D02*
D03*
Y0329886D02*
D03*
D92*
X0418244Y0403500D02*
D03*
X0423756D02*
D03*
X0418244Y0377000D02*
D03*
X0423756D02*
D03*
D93*
X0387772Y0383500D02*
D03*
X0384228D02*
D03*
Y0387000D02*
D03*
X0387772D02*
D03*
Y0390500D02*
D03*
X0384228D02*
D03*
Y0397500D02*
D03*
X0387772D02*
D03*
X0387228Y0376000D02*
D03*
X0390772D02*
D03*
X0387228Y0372000D02*
D03*
X0390772D02*
D03*
X0427228Y0418500D02*
D03*
X0430772D02*
D03*
Y0392000D02*
D03*
X0427228D02*
D03*
X0435728Y0375500D02*
D03*
X0439272D02*
D03*
X0435728Y0371500D02*
D03*
X0439272D02*
D03*
X0372728Y0270500D02*
D03*
X0376272D02*
D03*
X0376228Y0243500D02*
D03*
X0379772D02*
D03*
X0431228Y0287000D02*
D03*
X0434772D02*
D03*
X0431228Y0283500D02*
D03*
X0434772D02*
D03*
X0494772Y0317000D02*
D03*
X0491228D02*
D03*
X0494772Y0313500D02*
D03*
X0491228D02*
D03*
X0446772Y0365500D02*
D03*
X0443228D02*
D03*
X0472772Y0252500D02*
D03*
X0469228D02*
D03*
X0376772Y0355500D02*
D03*
X0373228D02*
D03*
X0347272Y0396000D02*
D03*
X0343728D02*
D03*
X0347272Y0392500D02*
D03*
X0343728D02*
D03*
Y0389000D02*
D03*
X0347272D02*
D03*
X0343728Y0385500D02*
D03*
X0347272D02*
D03*
X0343728Y0382000D02*
D03*
X0347272D02*
D03*
X0358228Y0331500D02*
D03*
X0361772D02*
D03*
D94*
X0387614Y0394000D02*
D03*
X0384386D02*
D03*
X0398386Y0402000D02*
D03*
X0401614D02*
D03*
X0398386Y0398000D02*
D03*
X0401614D02*
D03*
X0398386Y0394000D02*
D03*
X0401614D02*
D03*
X0398386Y0390000D02*
D03*
X0401614D02*
D03*
X0412614Y0403000D02*
D03*
X0409386D02*
D03*
X0412614Y0429500D02*
D03*
X0409386D02*
D03*
X0430614Y0422000D02*
D03*
X0427386D02*
D03*
Y0395500D02*
D03*
X0430614D02*
D03*
X0399114Y0306500D02*
D03*
X0395886D02*
D03*
X0399114Y0303000D02*
D03*
X0395886D02*
D03*
X0372886Y0267000D02*
D03*
X0376114D02*
D03*
X0372886Y0263500D02*
D03*
X0376114D02*
D03*
X0369386Y0260000D02*
D03*
X0372614D02*
D03*
X0369386Y0256000D02*
D03*
X0372614D02*
D03*
X0411886Y0264000D02*
D03*
X0415114D02*
D03*
Y0260500D02*
D03*
X0411886D02*
D03*
X0415114Y0257000D02*
D03*
X0411886D02*
D03*
X0415114Y0253500D02*
D03*
X0411886D02*
D03*
X0415114Y0249500D02*
D03*
X0411886D02*
D03*
X0436114Y0254500D02*
D03*
X0432886D02*
D03*
X0445886Y0286000D02*
D03*
X0449114D02*
D03*
X0475614D02*
D03*
X0472386D02*
D03*
X0487114Y0332500D02*
D03*
X0483886D02*
D03*
X0430114Y0337500D02*
D03*
X0426886D02*
D03*
X0409886Y0318500D02*
D03*
X0413114D02*
D03*
X0422886Y0316000D02*
D03*
X0426114D02*
D03*
X0446614Y0362000D02*
D03*
X0443386D02*
D03*
X0373386Y0362500D02*
D03*
X0376614D02*
D03*
X0373386Y0359000D02*
D03*
X0376614D02*
D03*
X0346614Y0337500D02*
D03*
X0343386D02*
D03*
D95*
X0399000Y0379228D02*
D03*
Y0382772D02*
D03*
X0394500Y0379228D02*
D03*
Y0382772D02*
D03*
Y0371728D02*
D03*
Y0375272D02*
D03*
X0376000Y0256228D02*
D03*
Y0259772D02*
D03*
X0472500Y0347272D02*
D03*
Y0343728D02*
D03*
X0363000Y0359228D02*
D03*
Y0362772D02*
D03*
X0341000Y0408728D02*
D03*
Y0412272D02*
D03*
X0377383Y0399728D02*
D03*
Y0403272D02*
D03*
X0371000Y0412272D02*
D03*
Y0408728D02*
D03*
X0367000D02*
D03*
Y0412272D02*
D03*
X0368500Y0403272D02*
D03*
Y0399728D02*
D03*
X0351500D02*
D03*
Y0403272D02*
D03*
X0359500Y0399728D02*
D03*
Y0403272D02*
D03*
X0355500Y0399728D02*
D03*
Y0403272D02*
D03*
X0348000Y0399728D02*
D03*
Y0403272D02*
D03*
X0355500Y0345728D02*
D03*
Y0349272D02*
D03*
Y0356772D02*
D03*
Y0353228D02*
D03*
D96*
X0409524Y0396799D02*
D03*
Y0395224D02*
D03*
Y0393650D02*
D03*
Y0392075D02*
D03*
Y0390500D02*
D03*
Y0388925D02*
D03*
Y0387350D02*
D03*
Y0385776D02*
D03*
Y0384201D02*
D03*
X0422476Y0396799D02*
D03*
Y0395224D02*
D03*
Y0393650D02*
D03*
Y0392075D02*
D03*
Y0390500D02*
D03*
Y0388925D02*
D03*
Y0387350D02*
D03*
Y0385776D02*
D03*
Y0384201D02*
D03*
X0409524Y0423299D02*
D03*
Y0421724D02*
D03*
Y0420150D02*
D03*
Y0418575D02*
D03*
Y0417000D02*
D03*
Y0415425D02*
D03*
Y0413850D02*
D03*
Y0412276D02*
D03*
Y0410701D02*
D03*
X0422476Y0423299D02*
D03*
Y0421724D02*
D03*
Y0420150D02*
D03*
Y0418575D02*
D03*
Y0417000D02*
D03*
Y0415425D02*
D03*
Y0413850D02*
D03*
Y0412276D02*
D03*
Y0410701D02*
D03*
D97*
X0416000Y0390500D02*
D03*
Y0417000D02*
D03*
D98*
X0430000Y0377240D02*
D03*
Y0369760D02*
D03*
X0360000Y0327740D02*
D03*
Y0320260D02*
D03*
D99*
X0423012Y0368000D02*
D03*
X0349488Y0312000D02*
D03*
D100*
X0411988Y0368000D02*
D03*
X0360512Y0312000D02*
D03*
D101*
X0457823Y0369941D02*
D03*
Y0372500D02*
D03*
Y0375059D02*
D03*
X0448177D02*
D03*
Y0372500D02*
D03*
Y0369941D02*
D03*
D102*
X0398953Y0310547D02*
D03*
X0396984D02*
D03*
X0395016D02*
D03*
X0393047D02*
D03*
X0398953Y0312516D02*
D03*
X0393047D02*
D03*
X0398953Y0314484D02*
D03*
X0393047D02*
D03*
X0398953Y0316453D02*
D03*
X0396984D02*
D03*
X0395016D02*
D03*
X0393047D02*
D03*
D103*
X0421500Y0247012D02*
D03*
Y0235988D02*
D03*
X0337000Y0325512D02*
D03*
Y0314488D02*
D03*
D104*
X0444736Y0335252D02*
D03*
X0446705D02*
D03*
X0448673D02*
D03*
X0450642D02*
D03*
X0452610D02*
D03*
X0454579D02*
D03*
X0456547D02*
D03*
X0458516D02*
D03*
X0460484D02*
D03*
X0462453D02*
D03*
X0464421D02*
D03*
X0466390D02*
D03*
X0468358D02*
D03*
X0470327D02*
D03*
X0472295D02*
D03*
X0474264D02*
D03*
Y0291748D02*
D03*
X0472295D02*
D03*
X0470327D02*
D03*
X0468358D02*
D03*
X0466390D02*
D03*
X0464421D02*
D03*
X0462453D02*
D03*
X0460484D02*
D03*
X0458516D02*
D03*
X0456547D02*
D03*
X0454579D02*
D03*
X0452610D02*
D03*
X0450642D02*
D03*
X0448673D02*
D03*
X0446705D02*
D03*
X0444736D02*
D03*
D105*
X0481252Y0328264D02*
D03*
Y0326295D02*
D03*
Y0324327D02*
D03*
Y0322358D02*
D03*
Y0320390D02*
D03*
Y0318421D02*
D03*
Y0316453D02*
D03*
Y0314484D02*
D03*
Y0312516D02*
D03*
Y0310547D02*
D03*
Y0308579D02*
D03*
Y0306610D02*
D03*
Y0304642D02*
D03*
Y0302673D02*
D03*
Y0300705D02*
D03*
Y0298736D02*
D03*
X0437748D02*
D03*
Y0300705D02*
D03*
Y0302673D02*
D03*
Y0304642D02*
D03*
Y0306610D02*
D03*
Y0308579D02*
D03*
Y0310547D02*
D03*
Y0312516D02*
D03*
Y0314484D02*
D03*
Y0316453D02*
D03*
Y0318421D02*
D03*
Y0320390D02*
D03*
Y0322358D02*
D03*
Y0324327D02*
D03*
Y0326295D02*
D03*
Y0328264D02*
D03*
D106*
X0411850Y0323250D02*
D03*
X0428150D02*
D03*
Y0332750D02*
D03*
X0411850D02*
D03*
D107*
X0417866Y0295429D02*
D03*
X0426134D02*
D03*
X0417866Y0311571D02*
D03*
X0426134D02*
D03*
D108*
X0451929Y0352134D02*
D03*
Y0343866D02*
D03*
X0468071Y0352134D02*
D03*
Y0343866D02*
D03*
D109*
X0464859Y0384641D02*
D03*
X0467141Y0382359D02*
D03*
X0327141Y0242359D02*
D03*
X0324859Y0244641D02*
D03*
D110*
X0467141D02*
D03*
X0464859Y0242359D02*
D03*
X0324859Y0382359D02*
D03*
X0327141Y0384641D02*
D03*
D111*
X0357512Y0410500D02*
D03*
X0346488D02*
D03*
D112*
X0403087Y0432500D02*
D03*
X0388913D02*
D03*
D113*
X0397969Y0417244D02*
D03*
X0394032D02*
D03*
D114*
X0378559Y0334839D02*
D03*
X0376000D02*
D03*
X0373441D02*
D03*
Y0327161D02*
D03*
X0376000D02*
D03*
X0378559D02*
D03*
D115*
X0376000Y0331000D02*
D03*
D116*
X0379740Y0340000D02*
D03*
X0372260D02*
D03*
D117*
X0379000Y0321512D02*
D03*
Y0310488D02*
D03*
X0370500Y0321512D02*
D03*
Y0310488D02*
D03*
D118*
X0350374Y0302000D02*
D03*
X0359626D02*
D03*
D119*
X0349012Y0327984D02*
D03*
D120*
X0351965Y0322472D02*
D03*
X0349996D02*
D03*
X0348028D02*
D03*
X0346059D02*
D03*
Y0333496D02*
D03*
X0348028D02*
D03*
X0349996D02*
D03*
X0351965D02*
D03*
D121*
X0343500Y0325031D02*
D03*
Y0327000D02*
D03*
Y0328969D02*
D03*
Y0330937D02*
D03*
X0354524D02*
D03*
Y0328969D02*
D03*
Y0327000D02*
D03*
Y0325031D02*
D03*
D122*
X0343850Y0355000D02*
D03*
X0350150D02*
D03*
X0343850Y0347500D02*
D03*
X0350150D02*
D03*
D123*
X0502500Y0307382D02*
D03*
Y0317700D02*
D03*
Y0309941D02*
D03*
Y0312500D02*
D03*
Y0315100D02*
D03*
D124*
X0513000Y0296752D02*
D03*
Y0328300D02*
D03*
D125*
Y0307500D02*
D03*
Y0317500D02*
D03*
D126*
X0315600Y0291059D02*
D03*
Y0336000D02*
D03*
X0291500Y0291059D02*
D03*
Y0336000D02*
D03*
D127*
X0472780Y0222372D02*
D03*
X0487167Y0236758D02*
D03*
X0478258Y0245667D02*
D03*
X0463871Y0231281D02*
D03*
X0319220Y0404628D02*
D03*
X0304833Y0390242D02*
D03*
X0313742Y0381333D02*
D03*
X0328129Y0395719D02*
D03*
D128*
X0304872Y0236720D02*
D03*
X0319258Y0222333D02*
D03*
X0328167Y0231242D02*
D03*
X0313781Y0245629D02*
D03*
X0487128Y0390280D02*
D03*
X0472742Y0404667D02*
D03*
X0463833Y0395758D02*
D03*
X0478219Y0381371D02*
D03*
D129*
X0309500Y0313500D02*
D03*
X0291500D02*
D03*
D130*
X0431500Y0402500D02*
D03*
X0468071Y0362500D02*
D03*
X0379000Y0276386D02*
D03*
X0375150Y0275441D02*
D03*
X0368500Y0334000D02*
D03*
Y0331000D02*
D03*
X0380500D02*
D03*
X0287000Y0289500D02*
D03*
X0290000D02*
D03*
X0293000D02*
D03*
X0296000D02*
D03*
X0287000Y0292500D02*
D03*
X0290000D02*
D03*
X0293000D02*
D03*
X0296000D02*
D03*
X0287000Y0295500D02*
D03*
X0290000D02*
D03*
X0293000D02*
D03*
X0296000D02*
D03*
X0287000Y0286500D02*
D03*
X0290000D02*
D03*
X0293000D02*
D03*
X0296000D02*
D03*
X0345000Y0303500D02*
D03*
X0345500Y0294500D02*
D03*
X0354500D02*
D03*
X0351500D02*
D03*
X0348500D02*
D03*
X0345500Y0297500D02*
D03*
Y0300500D02*
D03*
X0380000Y0396000D02*
D03*
X0339000Y0333500D02*
D03*
X0344000Y0351500D02*
D03*
X0355500Y0353228D02*
D03*
X0374500Y0343500D02*
D03*
X0365500Y0346500D02*
D03*
Y0343500D02*
D03*
Y0340500D02*
D03*
Y0337500D02*
D03*
X0374500Y0346500D02*
D03*
Y0340250D02*
D03*
Y0337500D02*
D03*
X0371500Y0346500D02*
D03*
X0368500D02*
D03*
X0371500Y0343500D02*
D03*
X0368500D02*
D03*
Y0340500D02*
D03*
X0371500D02*
D03*
Y0337500D02*
D03*
X0368500D02*
D03*
X0399000Y0360500D02*
D03*
X0463000Y0362500D02*
D03*
X0462500Y0264000D02*
D03*
X0328500Y0367000D02*
D03*
X0340500Y0258000D02*
D03*
X0425500Y0408500D02*
D03*
X0422476Y0423976D02*
D03*
X0441421Y0300705D02*
D03*
X0456547Y0338925D02*
D03*
X0310697Y0388197D02*
D03*
X0321303Y0398803D02*
D03*
X0470697D02*
D03*
X0481303Y0388197D02*
D03*
Y0238803D02*
D03*
X0470697Y0228197D02*
D03*
X0310697Y0238803D02*
D03*
X0321303Y0228197D02*
D03*
X0496000Y0288500D02*
D03*
X0500000D02*
D03*
X0502500Y0307382D02*
D03*
X0447000Y0397000D02*
D03*
X0333000Y0405000D02*
D03*
X0382000Y0412500D02*
D03*
X0327141Y0384641D02*
D03*
X0343500Y0373000D02*
D03*
X0324859Y0244641D02*
D03*
X0378000Y0239500D02*
D03*
X0381500D02*
D03*
X0324859Y0382359D02*
D03*
X0327141Y0242359D02*
D03*
X0464859Y0384641D02*
D03*
X0467141Y0244641D02*
D03*
X0464859Y0242359D02*
D03*
X0453500Y0254000D02*
D03*
X0467141Y0382359D02*
D03*
X0441500Y0295500D02*
D03*
X0388000Y0294500D02*
D03*
X0410500Y0233500D02*
D03*
Y0236500D02*
D03*
Y0239500D02*
D03*
Y0227500D02*
D03*
X0414000Y0233500D02*
D03*
Y0236500D02*
D03*
Y0227500D02*
D03*
Y0239500D02*
D03*
X0378000Y0227500D02*
D03*
Y0233500D02*
D03*
Y0236500D02*
D03*
X0381500Y0227500D02*
D03*
Y0233500D02*
D03*
Y0236500D02*
D03*
X0372886Y0267000D02*
D03*
X0366000D02*
D03*
X0409386Y0429500D02*
D03*
Y0403000D02*
D03*
X0361772Y0331500D02*
D03*
X0453500Y0371000D02*
D03*
X0463000Y0371386D02*
D03*
X0407000Y0252000D02*
D03*
X0457500Y0278000D02*
D03*
X0472500Y0347272D02*
D03*
X0468071Y0352134D02*
D03*
X0451929D02*
D03*
X0364500Y0397969D02*
D03*
X0355500Y0349272D02*
D03*
X0351000Y0337500D02*
D03*
X0339000D02*
D03*
X0376614Y0359000D02*
D03*
Y0362500D02*
D03*
X0376772Y0355500D02*
D03*
X0343728Y0385500D02*
D03*
X0363000Y0408886D02*
D03*
X0367000Y0408728D02*
D03*
X0454000Y0278000D02*
D03*
X0389500Y0284114D02*
D03*
X0386000D02*
D03*
X0391500Y0278000D02*
D03*
X0427000Y0285500D02*
D03*
X0426886Y0337500D02*
D03*
X0446000Y0285000D02*
D03*
X0422500Y0295500D02*
D03*
X0432000D02*
D03*
X0436500Y0339614D02*
D03*
X0440000D02*
D03*
X0487114Y0331000D02*
D03*
X0477500Y0283000D02*
D03*
X0368850Y0280559D02*
D03*
X0365000Y0279614D02*
D03*
X0400000Y0298000D02*
D03*
X0422476Y0397476D02*
D03*
X0343728Y0396000D02*
D03*
X0351500Y0403272D02*
D03*
X0399000Y0382772D02*
D03*
X0390772Y0372000D02*
D03*
X0399000Y0371886D02*
D03*
X0383500Y0360886D02*
D03*
X0366500Y0359386D02*
D03*
X0380000Y0360886D02*
D03*
X0366500Y0362614D02*
D03*
X0370000D02*
D03*
X0446614Y0362000D02*
D03*
X0411850Y0332750D02*
D03*
X0417866Y0295429D02*
D03*
X0463833Y0395758D02*
D03*
X0319220Y0404628D02*
D03*
X0472780Y0222372D02*
D03*
X0328167Y0231242D02*
D03*
X0472742Y0404667D02*
D03*
X0478219Y0381371D02*
D03*
X0304833Y0390242D02*
D03*
X0328129Y0395719D02*
D03*
X0319258Y0222333D02*
D03*
X0313781Y0245629D02*
D03*
X0487167Y0236758D02*
D03*
X0472772Y0252500D02*
D03*
X0462453Y0281547D02*
D03*
X0463871Y0231281D02*
D03*
X0469228Y0252500D02*
D03*
X0432000Y0301500D02*
D03*
X0443921Y0269661D02*
D03*
Y0261000D02*
D03*
X0439000D02*
D03*
X0436114Y0254500D02*
D03*
X0429157Y0261000D02*
D03*
X0432886Y0254500D02*
D03*
X0387500Y0242886D02*
D03*
X0412000D02*
D03*
X0405000D02*
D03*
X0398000D02*
D03*
X0421500Y0235988D02*
D03*
X0369000Y0246886D02*
D03*
X0372500Y0246886D02*
D03*
X0366000Y0259596D02*
D03*
X0389500Y0280886D02*
D03*
X0411886Y0260500D02*
D03*
Y0253500D02*
D03*
X0387500Y0246114D02*
D03*
X0374542Y0404957D02*
D03*
X0404000Y0381500D02*
D03*
X0387772Y0390500D02*
D03*
Y0383500D02*
D03*
Y0387000D02*
D03*
Y0397500D02*
D03*
X0387614Y0394000D02*
D03*
X0368500Y0403272D02*
D03*
X0357500Y0403000D02*
D03*
X0377383Y0403272D02*
D03*
X0348000Y0399728D02*
D03*
X0347272Y0392500D02*
D03*
X0347500Y0378500D02*
D03*
X0436500Y0336386D02*
D03*
X0440000D02*
D03*
X0483886Y0332500D02*
D03*
X0479000Y0291000D02*
D03*
X0415114Y0262000D02*
D03*
Y0258750D02*
D03*
Y0251500D02*
D03*
Y0255250D02*
D03*
X0396500Y0284114D02*
D03*
X0393000D02*
D03*
X0398000Y0246114D02*
D03*
X0405000D02*
D03*
X0412000D02*
D03*
X0421500Y0247012D02*
D03*
X0449000Y0285000D02*
D03*
X0434772Y0283500D02*
D03*
X0427000Y0282869D02*
D03*
X0434079Y0269661D02*
D03*
X0429157D02*
D03*
X0358500Y0388500D02*
D03*
X0365500D02*
D03*
X0372500D02*
D03*
X0369000Y0385000D02*
D03*
X0362000D02*
D03*
X0369000Y0378000D02*
D03*
X0372500Y0381500D02*
D03*
X0358500D02*
D03*
X0362000Y0378000D02*
D03*
X0372500Y0374500D02*
D03*
X0365500D02*
D03*
X0358500D02*
D03*
X0365500Y0381500D02*
D03*
X0410000Y0365500D02*
D03*
Y0368500D02*
D03*
Y0371500D02*
D03*
Y0374500D02*
D03*
X0416000D02*
D03*
X0413000D02*
D03*
X0416000Y0371500D02*
D03*
X0413000D02*
D03*
Y0368500D02*
D03*
X0416000D02*
D03*
Y0365500D02*
D03*
X0413000D02*
D03*
Y0412000D02*
D03*
X0416000D02*
D03*
X0419000D02*
D03*
Y0415000D02*
D03*
X0416000D02*
D03*
X0413000D02*
D03*
Y0418000D02*
D03*
X0416000D02*
D03*
X0419000D02*
D03*
X0413000Y0421000D02*
D03*
X0416000D02*
D03*
X0419000D02*
D03*
Y0400000D02*
D03*
X0416000D02*
D03*
X0413000D02*
D03*
Y0403000D02*
D03*
X0416000D02*
D03*
X0419000D02*
D03*
Y0409000D02*
D03*
X0416000D02*
D03*
X0413000D02*
D03*
Y0406000D02*
D03*
X0416000D02*
D03*
X0419000D02*
D03*
X0413000Y0382000D02*
D03*
X0416000D02*
D03*
X0419000D02*
D03*
Y0385000D02*
D03*
X0416000D02*
D03*
X0413000D02*
D03*
Y0388000D02*
D03*
X0416000D02*
D03*
X0419000D02*
D03*
Y0394000D02*
D03*
X0416000D02*
D03*
X0413000D02*
D03*
Y0391000D02*
D03*
X0416000D02*
D03*
X0419000D02*
D03*
X0371500Y0331000D02*
D03*
X0513000Y0296752D02*
D03*
Y0307500D02*
D03*
Y0317500D02*
D03*
Y0328300D02*
D03*
X0379000Y0297500D02*
D03*
X0409000Y0291500D02*
D03*
Y0294500D02*
D03*
X0406000D02*
D03*
X0403000D02*
D03*
X0400000D02*
D03*
X0397000D02*
D03*
X0394000D02*
D03*
X0391000D02*
D03*
Y0291500D02*
D03*
X0394000D02*
D03*
X0397000D02*
D03*
X0400000D02*
D03*
X0403000D02*
D03*
X0406000D02*
D03*
X0422500Y0402500D02*
D03*
X0425500D02*
D03*
X0428500D02*
D03*
Y0405500D02*
D03*
X0431500D02*
D03*
X0425500D02*
D03*
X0422500D02*
D03*
Y0408500D02*
D03*
X0428500D02*
D03*
X0431500D02*
D03*
Y0414500D02*
D03*
X0428500D02*
D03*
X0425500D02*
D03*
X0422500D02*
D03*
Y0411500D02*
D03*
X0425500D02*
D03*
X0431500D02*
D03*
X0428500D02*
D03*
Y0385000D02*
D03*
X0431500D02*
D03*
X0425500D02*
D03*
X0422500D02*
D03*
Y0388000D02*
D03*
X0425500D02*
D03*
X0428500D02*
D03*
X0431500D02*
D03*
Y0382000D02*
D03*
X0428500D02*
D03*
X0425500D02*
D03*
X0422500D02*
D03*
Y0379000D02*
D03*
X0425500D02*
D03*
X0431500D02*
D03*
X0428500D02*
D03*
Y0376000D02*
D03*
X0425500D02*
D03*
X0422500D02*
D03*
X0431500Y0368500D02*
D03*
Y0365500D02*
D03*
X0428500D02*
D03*
X0425500D02*
D03*
X0422500D02*
D03*
X0419500D02*
D03*
Y0368500D02*
D03*
X0422500D02*
D03*
X0425500D02*
D03*
X0428500D02*
D03*
Y0371500D02*
D03*
X0425500D02*
D03*
X0422500D02*
D03*
X0419500D02*
D03*
X0354500Y0297500D02*
D03*
X0351500D02*
D03*
X0348500D02*
D03*
Y0300500D02*
D03*
Y0303500D02*
D03*
X0351500Y0300500D02*
D03*
Y0303500D02*
D03*
X0354500D02*
D03*
Y0300500D02*
D03*
X0374500Y0331000D02*
D03*
X0377500D02*
D03*
X0390000Y0269000D02*
D03*
X0396000Y0263000D02*
D03*
X0393000Y0260000D02*
D03*
X0390000Y0257000D02*
D03*
X0399000Y0260000D02*
D03*
X0402000Y0257000D02*
D03*
X0390000Y0263000D02*
D03*
X0402000D02*
D03*
X0396000Y0257000D02*
D03*
X0402000Y0269000D02*
D03*
X0399000Y0266000D02*
D03*
X0396000Y0269000D02*
D03*
X0393000Y0266000D02*
D03*
X0373000Y0297500D02*
D03*
X0370000D02*
D03*
X0367000D02*
D03*
X0364000D02*
D03*
X0361000D02*
D03*
X0358000D02*
D03*
Y0300500D02*
D03*
Y0303500D02*
D03*
X0361000Y0300500D02*
D03*
Y0303500D02*
D03*
X0364000D02*
D03*
Y0300500D02*
D03*
X0367000D02*
D03*
Y0303500D02*
D03*
X0370000D02*
D03*
Y0300500D02*
D03*
X0373000D02*
D03*
Y0303500D02*
D03*
X0443228Y0365500D02*
D03*
X0387300Y0378800D02*
D03*
X0385000Y0380500D02*
D03*
X0381772Y0376710D02*
D03*
X0385000Y0373500D02*
D03*
X0382000Y0370500D02*
D03*
X0387228Y0376000D02*
D03*
X0350980Y0329953D02*
D03*
Y0326016D02*
D03*
X0347043D02*
D03*
Y0329953D02*
D03*
X0349012Y0327984D02*
D03*
M02*
