G04 Layer_Physical_Order=2*
G04 Layer_Color=32768*
%FSAX25Y25*%
%MOIN*%
G70*
G01*
G75*
%ADD59C,0.01000*%
%ADD66C,0.04000*%
%ADD67C,0.02600*%
G36*
X0465000Y0209000D02*
Y0182000D01*
X0327000Y0182000D01*
X0327000Y0209000D01*
X0343000Y0225000D01*
X0449000Y0225000D01*
X0465000Y0209000D01*
D02*
G37*
D59*
X0389500Y0359000D02*
X0389520D01*
X0401520Y0371000D01*
Y0438500D01*
D66*
X0396000D02*
G03*
X0271000Y0313500I0000000J-0125000D01*
G01*
X0521000D02*
G03*
X0396000Y0438500I-0125000J0000000D01*
G01*
Y0188500D02*
G03*
X0521000Y0313500I0000000J0125000D01*
G01*
X0271000D02*
G03*
X0396000Y0188500I0125000J0000000D01*
G01*
D67*
X0431500Y0402500D02*
D03*
X0468071Y0362500D02*
D03*
X0345000Y0303500D02*
D03*
X0355500Y0353228D02*
D03*
X0374500Y0343500D02*
D03*
X0365500Y0346500D02*
D03*
Y0343500D02*
D03*
Y0340500D02*
D03*
Y0337500D02*
D03*
X0374500Y0346500D02*
D03*
Y0340250D02*
D03*
Y0337500D02*
D03*
X0371500Y0346500D02*
D03*
X0368500D02*
D03*
X0371500Y0343500D02*
D03*
X0368500D02*
D03*
Y0340500D02*
D03*
X0371500D02*
D03*
Y0337500D02*
D03*
X0368500D02*
D03*
X0425500Y0408500D02*
D03*
X0422476Y0423976D02*
D03*
X0441421Y0300705D02*
D03*
X0456547Y0338925D02*
D03*
X0496000Y0288500D02*
D03*
X0500000D02*
D03*
X0502500Y0307382D02*
D03*
X0327141Y0384641D02*
D03*
X0343500Y0373000D02*
D03*
X0324859Y0244641D02*
D03*
X0464859Y0242359D02*
D03*
X0453500Y0254000D02*
D03*
X0467141Y0382359D02*
D03*
X0409386Y0429500D02*
D03*
Y0403000D02*
D03*
X0361772Y0331500D02*
D03*
X0407000Y0252000D02*
D03*
X0457500Y0278000D02*
D03*
X0468071Y0352134D02*
D03*
X0451929D02*
D03*
X0364500Y0397969D02*
D03*
X0355500Y0349272D02*
D03*
X0376772Y0355500D02*
D03*
X0343728Y0385500D02*
D03*
X0454000Y0278000D02*
D03*
X0391500D02*
D03*
X0427000Y0285500D02*
D03*
X0422476Y0397476D02*
D03*
X0343728Y0396000D02*
D03*
X0351500Y0403272D02*
D03*
X0399000Y0382772D02*
D03*
X0380000Y0360886D02*
D03*
X0366500Y0362614D02*
D03*
X0370000D02*
D03*
X0463833Y0395758D02*
D03*
X0319220Y0404628D02*
D03*
X0472780Y0222372D02*
D03*
X0328167Y0231242D02*
D03*
X0478219Y0381371D02*
D03*
X0328129Y0395719D02*
D03*
X0313781Y0245629D02*
D03*
X0472772Y0252500D02*
D03*
X0462453Y0281547D02*
D03*
X0463871Y0231281D02*
D03*
X0469228Y0252500D02*
D03*
X0432000Y0301500D02*
D03*
X0429157Y0261000D02*
D03*
X0432886Y0254500D02*
D03*
X0389500Y0280886D02*
D03*
X0411886Y0260500D02*
D03*
Y0253500D02*
D03*
X0387500Y0246114D02*
D03*
X0374542Y0404957D02*
D03*
X0404000Y0381500D02*
D03*
X0387772Y0390500D02*
D03*
Y0387000D02*
D03*
X0368500Y0403272D02*
D03*
X0357500Y0403000D02*
D03*
X0436500Y0336386D02*
D03*
X0440000D02*
D03*
X0483886Y0332500D02*
D03*
X0479000Y0291000D02*
D03*
X0398000Y0246114D02*
D03*
X0405000D02*
D03*
X0412000D02*
D03*
X0421500Y0247012D02*
D03*
X0449000Y0285000D02*
D03*
X0434772Y0283500D02*
D03*
X0427000Y0282869D02*
D03*
X0434079Y0269661D02*
D03*
X0429157D02*
D03*
X0379000Y0297500D02*
D03*
X0409000Y0291500D02*
D03*
Y0294500D02*
D03*
X0406000D02*
D03*
X0403000D02*
D03*
X0400000D02*
D03*
X0397000D02*
D03*
X0394000D02*
D03*
X0391000D02*
D03*
Y0291500D02*
D03*
X0394000D02*
D03*
X0397000D02*
D03*
X0400000D02*
D03*
X0403000D02*
D03*
X0406000D02*
D03*
X0422500Y0402500D02*
D03*
X0425500D02*
D03*
X0428500D02*
D03*
Y0405500D02*
D03*
X0431500D02*
D03*
X0425500D02*
D03*
X0422500D02*
D03*
Y0408500D02*
D03*
X0428500D02*
D03*
X0431500D02*
D03*
Y0414500D02*
D03*
X0428500D02*
D03*
X0425500D02*
D03*
X0422500D02*
D03*
Y0411500D02*
D03*
X0425500D02*
D03*
X0431500D02*
D03*
X0428500D02*
D03*
Y0385000D02*
D03*
X0431500D02*
D03*
X0425500D02*
D03*
X0422500D02*
D03*
Y0388000D02*
D03*
X0425500D02*
D03*
X0428500D02*
D03*
X0431500D02*
D03*
Y0382000D02*
D03*
X0428500D02*
D03*
X0425500D02*
D03*
X0422500D02*
D03*
Y0379000D02*
D03*
X0425500D02*
D03*
X0431500D02*
D03*
X0428500D02*
D03*
Y0376000D02*
D03*
X0425500D02*
D03*
X0422500D02*
D03*
X0431500Y0368500D02*
D03*
Y0365500D02*
D03*
X0428500D02*
D03*
X0425500D02*
D03*
X0422500D02*
D03*
X0419500D02*
D03*
Y0368500D02*
D03*
X0422500D02*
D03*
X0425500D02*
D03*
X0428500D02*
D03*
Y0371500D02*
D03*
X0425500D02*
D03*
X0422500D02*
D03*
X0419500D02*
D03*
X0373000Y0297500D02*
D03*
X0370000D02*
D03*
X0367000D02*
D03*
X0364000D02*
D03*
X0361000D02*
D03*
X0358000D02*
D03*
Y0300500D02*
D03*
Y0303500D02*
D03*
X0361000Y0300500D02*
D03*
Y0303500D02*
D03*
X0364000D02*
D03*
Y0300500D02*
D03*
X0367000D02*
D03*
Y0303500D02*
D03*
X0370000D02*
D03*
Y0300500D02*
D03*
X0373000D02*
D03*
Y0303500D02*
D03*
X0443228Y0365500D02*
D03*
X0387300Y0378800D02*
D03*
X0385000Y0380500D02*
D03*
X0381772Y0376710D02*
D03*
X0385000Y0373500D02*
D03*
X0382000Y0370500D02*
D03*
X0387228Y0376000D02*
D03*
M02*
