G04 Layer_Color=65535*
%FSAX25Y25*%
%MOIN*%
G70*
G01*
G75*
%ADD59C,0.01000*%
%ADD72C,0.00800*%
%ADD73C,0.00984*%
%ADD74C,0.00394*%
%ADD75C,0.02362*%
%ADD76C,0.00787*%
%ADD77C,0.00500*%
%ADD78C,0.00300*%
%ADD79C,0.00400*%
D59*
X0383008Y0273630D02*
G03*
X0383008Y0273630I-0000394J0000000D01*
G01*
X0425910Y0257850D02*
G03*
X0425910Y0257850I-0000394J0000000D01*
G01*
X0396000Y0203000D02*
Y0208000D01*
X0391000Y0213000D02*
X0396000Y0208000D01*
X0391000Y0213000D02*
X0401000D01*
X0396000Y0208000D02*
X0401000Y0213000D01*
X0396000Y0208000D02*
Y0213000D01*
X0420500Y0402000D02*
Y0405000D01*
X0421500Y0402000D02*
Y0405000D01*
X0420500D02*
X0421500D01*
X0420500Y0402000D02*
X0421500D01*
X0386000Y0382713D02*
Y0384287D01*
Y0386213D02*
Y0387787D01*
Y0389713D02*
Y0391287D01*
Y0396713D02*
Y0398287D01*
X0398213Y0381000D02*
X0399787D01*
X0393713D02*
X0395287D01*
X0393713Y0373500D02*
X0395287D01*
X0389000Y0375213D02*
Y0376787D01*
Y0371213D02*
Y0372787D01*
X0429000Y0417713D02*
Y0419287D01*
Y0391213D02*
Y0392787D01*
X0427500Y0374500D02*
X0432500D01*
X0427500Y0372500D02*
X0432500D01*
X0427500D02*
Y0374500D01*
X0432500Y0372500D02*
Y0374500D01*
X0420500Y0375500D02*
Y0378500D01*
X0421500Y0375500D02*
Y0378500D01*
X0420500D02*
X0421500D01*
X0420500Y0375500D02*
X0421500D01*
X0415000Y0363000D02*
X0420000D01*
X0415000Y0373000D02*
X0420000D01*
X0415000Y0363000D02*
Y0373000D01*
X0420000Y0363000D02*
Y0373000D01*
X0437500Y0374713D02*
Y0376287D01*
Y0370713D02*
Y0372287D01*
X0374500Y0269713D02*
Y0271287D01*
X0375213Y0258000D02*
X0376787D01*
X0378000Y0242713D02*
Y0244287D01*
X0418500Y0239000D02*
X0424500D01*
X0418500Y0244000D02*
X0424500D01*
Y0239000D02*
Y0244000D01*
X0418500Y0239000D02*
Y0244000D01*
X0390244Y0229563D02*
X0395756D01*
X0390244Y0237437D02*
X0395756D01*
X0433000Y0286213D02*
Y0287787D01*
Y0282713D02*
Y0284287D01*
X0493000Y0316213D02*
Y0317787D01*
Y0312713D02*
Y0314287D01*
X0416950Y0320750D02*
X0423050D01*
X0416950Y0335250D02*
X0423050D01*
X0471713Y0345500D02*
X0473287D01*
X0445000Y0364713D02*
Y0366287D01*
X0471000Y0251713D02*
Y0253287D01*
X0375000Y0354713D02*
Y0356287D01*
X0362213Y0361000D02*
X0363787D01*
X0340213Y0410500D02*
X0341787D01*
X0376595Y0401500D02*
X0378170D01*
X0370213Y0410500D02*
X0371787D01*
X0366213D02*
X0367787D01*
X0345500Y0395213D02*
Y0396787D01*
Y0391713D02*
Y0393287D01*
Y0388213D02*
Y0389787D01*
Y0384713D02*
Y0386287D01*
Y0381213D02*
Y0382787D01*
X0367713Y0401500D02*
X0369287D01*
X0350713D02*
X0352287D01*
X0358713D02*
X0360287D01*
X0354713D02*
X0356287D01*
X0347213D02*
X0348787D01*
X0397969Y0435256D02*
X0399937D01*
X0388126Y0418524D02*
Y0428169D01*
X0403874Y0418524D02*
Y0428169D01*
X0400134Y0418524D02*
X0403874D01*
X0388126D02*
X0391866D01*
X0397969Y0433681D02*
Y0435256D01*
X0394032Y0433681D02*
X0397969D01*
X0394032D02*
Y0435256D01*
X0392063D02*
X0394032D01*
X0354713Y0347500D02*
X0356287D01*
X0354713Y0355000D02*
X0356287D01*
X0360000Y0330713D02*
Y0332287D01*
X0357500Y0325000D02*
X0362500D01*
X0357500Y0323000D02*
X0362500D01*
X0357500D02*
Y0325000D01*
X0362500Y0323000D02*
Y0325000D01*
X0377000Y0337500D02*
Y0342500D01*
X0375000Y0337500D02*
Y0342500D01*
X0377000D01*
X0375000Y0337500D02*
X0377000D01*
X0352500Y0317000D02*
X0357500D01*
X0352500Y0307000D02*
X0357500D01*
Y0317000D01*
X0352500Y0307000D02*
Y0317000D01*
X0334000Y0317500D02*
X0340000D01*
X0334000Y0322500D02*
X0340000D01*
Y0317500D02*
Y0322500D01*
X0334000Y0317500D02*
Y0322500D01*
X0407811Y0192252D02*
Y0223748D01*
X0406236Y0192252D02*
X0407811D01*
X0406236Y0223748D02*
X0407811D01*
X0384189D02*
X0385764D01*
X0384189Y0192252D02*
X0385764D01*
X0384189D02*
Y0223748D01*
D72*
X0291500Y0303658D02*
G03*
X0300500Y0313500I-0000421J0009421D01*
G01*
D02*
G03*
X0291500Y0323400I-0009450J0000450D01*
G01*
X0501700Y0299114D02*
X0508000D01*
X0501700D02*
Y0303839D01*
Y0321200D02*
Y0325900D01*
X0508000D01*
X0518709Y0299114D02*
Y0325900D01*
X0501700Y0303839D02*
X0507200D01*
Y0321200D01*
X0501700D02*
X0507200D01*
X0277720Y0295783D02*
X0283626D01*
X0299400D02*
X0307700D01*
X0323400D02*
X0330100D01*
X0323800Y0331300D02*
X0330100D01*
X0299400D02*
X0307700D01*
X0277720D02*
X0283626D01*
X0277720Y0303658D02*
X0291500D01*
X0277720Y0323400D02*
X0291500D01*
X0277720Y0295783D02*
Y0303658D01*
Y0323400D01*
Y0331300D01*
X0330100Y0295783D02*
Y0331300D01*
X0482571Y0241071D02*
X0482571Y0226929D01*
X0482571Y0241071D02*
X0484975Y0238667D01*
X0480167Y0243475D02*
X0482571Y0241071D01*
X0466166Y0229192D02*
X0470904Y0224454D01*
X0489091Y0234410D02*
X0489720Y0233781D01*
X0475875Y0219936D02*
X0489720Y0233781D01*
X0475868Y0219943D02*
X0475875Y0219936D01*
X0475726Y0219801D02*
X0475868Y0219943D01*
X0474970Y0220558D02*
X0475726Y0219801D01*
X0475217Y0248284D02*
X0475853Y0247647D01*
X0461429Y0234495D02*
X0475217Y0248284D01*
X0461358Y0234566D02*
X0461429Y0234495D01*
X0461216Y0234424D02*
X0461358Y0234566D01*
X0461216Y0234424D02*
X0461924Y0233717D01*
X0309429Y0226929D02*
X0323571Y0226929D01*
X0321167Y0224525D02*
X0323571Y0226929D01*
X0325975Y0229333D01*
X0306954Y0238596D02*
X0311692Y0243334D01*
X0316281Y0219780D02*
X0316910Y0220409D01*
X0302436Y0233625D02*
X0316281Y0219780D01*
X0302436Y0233625D02*
X0302443Y0233632D01*
X0302301Y0233774D02*
X0302443Y0233632D01*
X0302301Y0233774D02*
X0303058Y0234530D01*
X0330147Y0233646D02*
X0330784Y0234283D01*
X0316995Y0248071D02*
X0330784Y0234283D01*
X0316995Y0248071D02*
X0317066Y0248142D01*
X0316924Y0248284D02*
X0317066Y0248142D01*
X0316217Y0247576D02*
X0316924Y0248284D01*
X0309429Y0400071D02*
X0309429Y0385929D01*
X0307025Y0388333D02*
X0309429Y0385929D01*
X0311833Y0383525D01*
X0321096Y0402546D02*
X0325834Y0397808D01*
X0302280Y0393219D02*
X0302909Y0392590D01*
X0302280Y0393219D02*
X0316125Y0407064D01*
X0316132Y0407057D01*
X0316274Y0407199D01*
X0317030Y0406442D01*
X0316146Y0379353D02*
X0316783Y0378716D01*
X0330571Y0392505D01*
X0330642Y0392434D01*
X0330784Y0392576D01*
X0330077Y0393283D02*
X0330784Y0392576D01*
X0468429Y0400071D02*
X0482571D01*
X0468429D02*
X0470833Y0402475D01*
X0466025Y0397667D02*
X0468429Y0400071D01*
X0480308Y0383666D02*
X0485046Y0388404D01*
X0475090Y0406591D02*
X0475719Y0407220D01*
X0489564Y0393375D01*
X0489557Y0393368D02*
X0489564Y0393375D01*
X0489557Y0393368D02*
X0489699Y0393226D01*
X0488942Y0392470D02*
X0489699Y0393226D01*
X0461216Y0392717D02*
X0461853Y0393354D01*
X0461216Y0392717D02*
X0475005Y0378929D01*
X0474934Y0378858D02*
X0475005Y0378929D01*
X0474934Y0378858D02*
X0475076Y0378716D01*
X0475783Y0379423D01*
D73*
X0380067Y0398724D02*
G03*
X0380067Y0398724I-0000492J0000000D01*
G01*
X0458315Y0366890D02*
G03*
X0458315Y0366890I-0000492J0000000D01*
G01*
X0438240Y0330921D02*
G03*
X0438240Y0330921I-0000492J0000000D01*
G01*
X0358929Y0405933D02*
G03*
X0358929Y0405933I-0000492J0000000D01*
G01*
X0384059Y0322437D02*
G03*
X0384059Y0322437I-0000492J0000000D01*
G01*
X0375559D02*
G03*
X0375559Y0322437I-0000492J0000000D01*
G01*
X0358264Y0322374D02*
G03*
X0358264Y0322374I-0000492J0000000D01*
G01*
D74*
X0406945Y0400146D02*
G03*
X0406945Y0400146I-0000197J0000000D01*
G01*
Y0426646D02*
G03*
X0406945Y0426646I-0000197J0000000D01*
G01*
X0361102Y0300031D02*
G03*
X0361102Y0300031I-0000197J0000000D01*
G01*
X0347787Y0353425D02*
Y0356575D01*
X0346194Y0355000D02*
X0347787Y0356594D01*
X0346194Y0355000D02*
X0347787Y0353406D01*
X0346194Y0353327D02*
Y0356673D01*
X0341685Y0352638D02*
Y0357362D01*
X0349461D02*
X0352315D01*
Y0352638D02*
Y0357362D01*
X0349461Y0352638D02*
X0352315D01*
X0341685D02*
X0344539D01*
X0341685Y0357362D02*
X0344539D01*
X0347787Y0345925D02*
Y0349075D01*
X0346194Y0347500D02*
X0347787Y0349094D01*
X0346194Y0347500D02*
X0347787Y0345906D01*
X0346194Y0345827D02*
Y0349173D01*
X0341685Y0345138D02*
Y0349862D01*
X0349461D02*
X0352315D01*
Y0345138D02*
Y0349862D01*
X0349461Y0345138D02*
X0352315D01*
X0341685D02*
X0344539D01*
X0341685Y0349862D02*
X0344539D01*
D75*
X0447492Y0326689D02*
G03*
X0447492Y0326689I-0001181J0000000D01*
G01*
D76*
X0380528Y0336512D02*
G03*
X0380528Y0336512I-0000197J0000000D01*
G01*
X0350835Y0394394D02*
Y0396165D01*
X0352606D01*
X0350835Y0366835D02*
Y0368606D01*
Y0366835D02*
X0352606D01*
X0378394D02*
X0380165D01*
Y0368606D01*
Y0394394D02*
Y0396165D01*
X0378394D02*
X0380165D01*
X0384189Y0251189D02*
X0385764D01*
X0384189D02*
Y0252764D01*
X0406236Y0251189D02*
X0407811D01*
Y0252764D01*
Y0273236D02*
Y0274811D01*
X0406236D02*
X0407811D01*
X0384189Y0273236D02*
Y0274811D01*
X0385764D01*
X0371606Y0281937D02*
X0372394D01*
X0371606Y0274063D02*
X0372394D01*
X0431421Y0271236D02*
X0431815D01*
X0441264D02*
X0441657D01*
X0441264Y0259425D02*
X0441657D01*
X0431421D02*
X0431815D01*
X0426697D02*
Y0271236D01*
X0446382Y0259425D02*
Y0271236D01*
X0436342Y0259425D02*
X0436736D01*
X0436342Y0271236D02*
X0436736D01*
X0408323Y0398768D02*
Y0400146D01*
Y0380854D02*
Y0382232D01*
X0423677Y0398768D02*
Y0400146D01*
Y0380854D02*
Y0382232D01*
X0408323Y0400146D02*
X0410902D01*
X0421098D02*
X0423677D01*
X0408323Y0380854D02*
X0410902D01*
X0421098D02*
X0423677D01*
X0408323Y0425268D02*
Y0426646D01*
Y0407354D02*
Y0408732D01*
X0423677Y0425268D02*
Y0426646D01*
Y0407354D02*
Y0408732D01*
X0408323Y0426646D02*
X0410902D01*
X0421098D02*
X0423677D01*
X0408323Y0407354D02*
X0410902D01*
X0421098D02*
X0423677D01*
X0451819Y0368169D02*
X0454181D01*
X0451819Y0376831D02*
X0454181D01*
Y0368169D02*
Y0376831D01*
X0451819Y0368169D02*
Y0376831D01*
X0442374Y0296374D02*
X0476626D01*
X0442374Y0330626D02*
X0476626D01*
Y0296374D02*
Y0330626D01*
X0442374Y0296374D02*
Y0330626D01*
X0415701Y0298382D02*
Y0308618D01*
X0428299Y0298382D02*
Y0308618D01*
X0415701Y0298382D02*
X0428299D01*
X0415701Y0308618D02*
X0428299D01*
X0454882Y0354299D02*
X0465118D01*
X0454882Y0341701D02*
X0465118D01*
X0454882D02*
Y0354299D01*
X0465118Y0341701D02*
Y0354299D01*
X0350031Y0408532D02*
Y0412468D01*
X0353181Y0410500D01*
X0350031Y0408532D02*
X0353181Y0410500D01*
X0353575Y0408532D02*
Y0412468D01*
X0349638Y0407350D02*
X0354362D01*
X0349638Y0413650D02*
X0354362D01*
X0380724Y0327850D02*
Y0335134D01*
Y0326866D02*
Y0327850D01*
X0371276Y0326866D02*
Y0334150D01*
Y0335134D01*
X0377031Y0314032D02*
X0380968D01*
X0377031D02*
X0379000Y0317181D01*
X0380968Y0314032D01*
X0377031Y0317575D02*
X0380968D01*
X0382150Y0313638D02*
Y0318362D01*
X0375850Y0313638D02*
Y0318362D01*
X0368531Y0314032D02*
X0372468D01*
X0368531D02*
X0370500Y0317181D01*
X0372468Y0314032D01*
X0368531Y0317575D02*
X0372468D01*
X0373650Y0313638D02*
Y0318362D01*
X0367350Y0313638D02*
Y0318362D01*
X0353425Y0300425D02*
X0356181Y0302000D01*
X0353425Y0303575D02*
X0356181Y0302000D01*
Y0300425D02*
Y0303575D01*
X0353425Y0300425D02*
Y0303575D01*
X0351260Y0303969D02*
Y0304756D01*
X0358740Y0303969D02*
Y0304756D01*
X0351260Y0299244D02*
Y0300031D01*
X0358740Y0299244D02*
Y0300031D01*
X0351260Y0304756D02*
X0358740D01*
X0351260Y0299244D02*
X0358740D01*
X0355213Y0321783D02*
Y0322905D01*
X0354090Y0321783D02*
X0355213D01*
X0342811D02*
X0343933D01*
X0342811D02*
Y0322905D01*
Y0333063D02*
Y0334185D01*
X0343933D01*
X0355213Y0333063D02*
Y0334185D01*
X0354090D02*
X0355213D01*
D77*
X0431000Y0306500D02*
X0433000D01*
X0386000Y0393000D02*
Y0395000D01*
X0400000Y0401000D02*
Y0403000D01*
Y0397000D02*
Y0399000D01*
Y0393000D02*
Y0395000D01*
Y0389000D02*
Y0391000D01*
X0393500Y0388500D02*
X0395500D01*
X0398000Y0373500D02*
X0400000D01*
X0411000Y0402000D02*
Y0404000D01*
Y0428500D02*
Y0430500D01*
X0429000Y0421000D02*
Y0423000D01*
X0429000Y0394500D02*
Y0396500D01*
X0442000Y0373500D02*
X0444000D01*
X0397500Y0305500D02*
Y0307500D01*
Y0302000D02*
Y0304000D01*
X0388000Y0312000D02*
X0390000D01*
X0395500Y0282500D02*
X0397500D01*
X0392000Y0282500D02*
X0394000D01*
X0388500D02*
X0390500D01*
X0385000Y0282500D02*
X0387000D01*
X0378000Y0278000D02*
X0380000D01*
X0364000Y0278000D02*
X0366000D01*
X0374500Y0266000D02*
Y0268000D01*
Y0262500D02*
Y0264500D01*
X0371000Y0259000D02*
Y0261000D01*
X0365000Y0258000D02*
X0367000D01*
X0371000Y0255000D02*
Y0257000D01*
X0379000Y0248500D02*
X0381000D01*
X0375000D02*
X0377000D01*
X0371500D02*
X0373500D01*
X0368000D02*
X0370000D01*
X0413500Y0263000D02*
Y0265000D01*
X0413500Y0259500D02*
Y0261500D01*
Y0256000D02*
Y0258000D01*
Y0252500D02*
Y0254500D01*
Y0248500D02*
Y0250500D01*
X0414500Y0244500D02*
X0416500D01*
X0411000D02*
X0413000D01*
X0407500D02*
X0409500D01*
X0404000D02*
X0406000D01*
X0400500D02*
X0402500D01*
X0397000D02*
X0399000D01*
X0393500D02*
X0395500D01*
X0390000D02*
X0392000D01*
X0386500D02*
X0388500D01*
X0434500Y0253500D02*
Y0255500D01*
X0447500Y0285000D02*
Y0287000D01*
X0474000Y0285000D02*
Y0287000D01*
X0478000Y0287500D02*
X0480000D01*
X0439000Y0338000D02*
X0441000D01*
X0435500D02*
X0437500D01*
X0485500Y0331500D02*
Y0333500D01*
X0486000Y0327500D02*
X0488000D01*
X0428500Y0336500D02*
Y0338500D01*
X0411500Y0317500D02*
Y0319500D01*
X0424500Y0315000D02*
Y0317000D01*
X0445000Y0361000D02*
Y0363000D01*
X0462000Y0373000D02*
X0464000D01*
X0465293Y0382793D02*
X0466707Y0384207D01*
X0325293Y0242793D02*
X0326707Y0244207D01*
X0465293Y0244207D02*
X0466707Y0242793D01*
X0379000Y0362500D02*
X0381000D01*
X0382500D02*
X0384500D01*
X0375000Y0361500D02*
Y0363500D01*
Y0358000D02*
Y0360000D01*
X0369000Y0361000D02*
X0371000D01*
X0365500D02*
X0367500D01*
X0362000Y0410500D02*
X0364000D01*
X0325293Y0384207D02*
X0326707Y0382793D01*
X0367500Y0335500D02*
X0369500D01*
X0367500Y0329000D02*
X0369500D01*
X0338000Y0331500D02*
X0340000D01*
X0345000Y0336500D02*
Y0338500D01*
X0338333Y0218098D02*
Y0217765D01*
X0338000D01*
X0338666D01*
X0338333D01*
Y0216765D01*
X0338666Y0216432D01*
X0339666Y0218431D02*
Y0216432D01*
Y0217432D01*
X0339999Y0217765D01*
X0340666D01*
X0340999Y0217432D01*
Y0216432D01*
X0341666D02*
X0342332D01*
X0341999D01*
Y0217765D01*
X0341666D01*
X0343332Y0216432D02*
Y0217765D01*
X0344331D01*
X0344665Y0217432D01*
Y0216432D01*
X0345997Y0215766D02*
X0346331D01*
X0346664Y0216099D01*
Y0217765D01*
X0345664D01*
X0345331Y0217432D01*
Y0216765D01*
X0345664Y0216432D01*
X0346664D01*
X0347330Y0217765D02*
Y0216765D01*
X0347663Y0216432D01*
X0348663D01*
Y0216099D01*
X0348330Y0215766D01*
X0347997D01*
X0348663Y0216432D02*
Y0217765D01*
X0349330Y0216432D02*
X0350329D01*
X0350663Y0216765D01*
X0350329Y0217099D01*
X0349663D01*
X0349330Y0217432D01*
X0349663Y0217765D01*
X0350663D01*
X0351662Y0218098D02*
Y0217765D01*
X0351329D01*
X0351995D01*
X0351662D01*
Y0216765D01*
X0351995Y0216432D01*
X0353328Y0217765D02*
X0353995D01*
X0354328Y0217432D01*
Y0216432D01*
X0353328D01*
X0352995Y0216765D01*
X0353328Y0217099D01*
X0354328D01*
X0355328Y0218098D02*
Y0217765D01*
X0354995D01*
X0355661D01*
X0355328D01*
Y0216765D01*
X0355661Y0216432D01*
X0356661D02*
X0357327D01*
X0356994D01*
Y0217765D01*
X0356661D01*
X0358660Y0216432D02*
X0359326D01*
X0359660Y0216765D01*
Y0217432D01*
X0359326Y0217765D01*
X0358660D01*
X0358327Y0217432D01*
Y0216765D01*
X0358660Y0216432D01*
X0360326D02*
Y0217765D01*
X0361326D01*
X0361659Y0217432D01*
Y0216432D01*
X0364325Y0217765D02*
X0364991Y0216432D01*
X0365658Y0217765D01*
X0366324Y0216432D02*
X0366991D01*
X0366657D01*
Y0218431D01*
X0366324Y0218098D01*
X0367990Y0216432D02*
Y0216765D01*
X0368323D01*
Y0216432D01*
X0367990D01*
X0369656Y0218098D02*
X0369990Y0218431D01*
X0370656D01*
X0370989Y0218098D01*
Y0216765D01*
X0370656Y0216432D01*
X0369990D01*
X0369656Y0216765D01*
Y0218098D01*
X0338000Y0212166D02*
Y0214166D01*
X0339000D01*
X0339333Y0213833D01*
Y0213166D01*
X0339000Y0212833D01*
X0338000D01*
X0338666D02*
X0339333Y0212166D01*
X0340333Y0213499D02*
X0340999D01*
X0341332Y0213166D01*
Y0212166D01*
X0340333D01*
X0339999Y0212500D01*
X0340333Y0212833D01*
X0341332D01*
X0341999Y0211500D02*
Y0213499D01*
X0342998D01*
X0343332Y0213166D01*
Y0212500D01*
X0342998Y0212166D01*
X0341999D01*
X0343998Y0214166D02*
Y0212166D01*
Y0213166D01*
X0344331Y0213499D01*
X0344998D01*
X0345331Y0213166D01*
Y0212166D01*
X0346331Y0213499D02*
X0346997D01*
X0347330Y0213166D01*
Y0212166D01*
X0346331D01*
X0345997Y0212500D01*
X0346331Y0212833D01*
X0347330D01*
X0348996Y0212166D02*
X0348330D01*
X0347997Y0212500D01*
Y0213166D01*
X0348330Y0213499D01*
X0348996D01*
X0349330Y0213166D01*
Y0212833D01*
X0347997D01*
X0349996Y0212166D02*
X0350663D01*
X0350329D01*
Y0214166D01*
X0349996D01*
X0354995Y0213833D02*
X0354661Y0214166D01*
X0353995D01*
X0353662Y0213833D01*
Y0212500D01*
X0353995Y0212166D01*
X0354661D01*
X0354995Y0212500D01*
X0355661Y0214166D02*
Y0212166D01*
Y0213166D01*
X0355994Y0213499D01*
X0356661D01*
X0356994Y0213166D01*
Y0212166D01*
X0357994Y0213499D02*
X0358660D01*
X0358993Y0213166D01*
Y0212166D01*
X0357994D01*
X0357660Y0212500D01*
X0357994Y0212833D01*
X0358993D01*
X0359660Y0212166D02*
Y0213499D01*
X0360659D01*
X0360993Y0213166D01*
Y0212166D01*
X0362325Y0211500D02*
X0362659D01*
X0362992Y0211833D01*
Y0213499D01*
X0361992D01*
X0361659Y0213166D01*
Y0212500D01*
X0361992Y0212166D01*
X0362992D01*
X0350500Y0365499D02*
Y0363833D01*
X0350833Y0363500D01*
X0351500D01*
X0351833Y0363833D01*
Y0365499D01*
X0352499Y0363500D02*
X0353166D01*
X0352833D01*
Y0365499D01*
X0352499Y0365166D01*
X0382000Y0277999D02*
Y0276333D01*
X0382333Y0276000D01*
X0383000D01*
X0383333Y0276333D01*
Y0277999D01*
X0384999Y0276000D02*
Y0277999D01*
X0383999Y0277000D01*
X0385332D01*
X0431334Y0311333D02*
X0431001Y0311000D01*
Y0310333D01*
X0431334Y0310000D01*
X0432667D01*
X0433000Y0310333D01*
Y0311000D01*
X0432667Y0311333D01*
X0433000Y0312999D02*
X0431001D01*
X0432000Y0311999D01*
Y0313332D01*
X0431334Y0313999D02*
X0431001Y0314332D01*
Y0314998D01*
X0431334Y0315332D01*
X0431667D01*
X0432000Y0314998D01*
X0432334Y0315332D01*
X0432667D01*
X0433000Y0314998D01*
Y0314332D01*
X0432667Y0313999D01*
X0432334D01*
X0432000Y0314332D01*
X0431667Y0313999D01*
X0431334D01*
X0432000Y0314332D02*
Y0314998D01*
X0427333Y0404166D02*
X0427000Y0404499D01*
X0426333D01*
X0426000Y0404166D01*
Y0402833D01*
X0426333Y0402500D01*
X0427000D01*
X0427333Y0402833D01*
X0427999Y0404499D02*
X0429332D01*
Y0404166D01*
X0427999Y0402833D01*
Y0402500D01*
X0430998D02*
Y0404499D01*
X0429999Y0403500D01*
X0431332D01*
X0390833Y0394666D02*
X0390500Y0394999D01*
X0389833D01*
X0389500Y0394666D01*
Y0393333D01*
X0389833Y0393000D01*
X0390500D01*
X0390833Y0393333D01*
X0391499Y0394666D02*
X0391833Y0394999D01*
X0392499D01*
X0392832Y0394666D01*
Y0394333D01*
X0392499Y0394000D01*
X0392832Y0393666D01*
Y0393333D01*
X0392499Y0393000D01*
X0391833D01*
X0391499Y0393333D01*
Y0393666D01*
X0391833Y0394000D01*
X0391499Y0394333D01*
Y0394666D01*
X0391833Y0394000D02*
X0392499D01*
X0393499Y0394666D02*
X0393832Y0394999D01*
X0394498D01*
X0394832Y0394666D01*
Y0394333D01*
X0394498Y0394000D01*
X0394832Y0393666D01*
Y0393333D01*
X0394498Y0393000D01*
X0393832D01*
X0393499Y0393333D01*
Y0393666D01*
X0393832Y0394000D01*
X0393499Y0394333D01*
Y0394666D01*
X0393832Y0394000D02*
X0394498D01*
X0389500Y0396500D02*
Y0398499D01*
X0390500D01*
X0390833Y0398166D01*
Y0397500D01*
X0390500Y0397166D01*
X0389500D01*
X0390166D02*
X0390833Y0396500D01*
X0391499Y0398166D02*
X0391833Y0398499D01*
X0392499D01*
X0392832Y0398166D01*
Y0397833D01*
X0392499Y0397500D01*
X0392166D01*
X0392499D01*
X0392832Y0397166D01*
Y0396833D01*
X0392499Y0396500D01*
X0391833D01*
X0391499Y0396833D01*
X0394498Y0396500D02*
Y0398499D01*
X0393499Y0397500D01*
X0394832D01*
X0392333Y0402666D02*
X0392000Y0402999D01*
X0391333D01*
X0391000Y0402666D01*
Y0401333D01*
X0391333Y0401000D01*
X0392000D01*
X0392333Y0401333D01*
X0392999Y0402999D02*
X0394332D01*
Y0402666D01*
X0392999Y0401333D01*
Y0401000D01*
X0396332D02*
X0394999D01*
X0396332Y0402333D01*
Y0402666D01*
X0395998Y0402999D01*
X0395332D01*
X0394999Y0402666D01*
X0398833Y0387666D02*
X0398500Y0387999D01*
X0397833D01*
X0397500Y0387666D01*
Y0386333D01*
X0397833Y0386000D01*
X0398500D01*
X0398833Y0386333D01*
X0399499Y0387999D02*
X0400832D01*
Y0387666D01*
X0399499Y0386333D01*
Y0386000D01*
X0401499Y0387666D02*
X0401832Y0387999D01*
X0402498D01*
X0402832Y0387666D01*
Y0387333D01*
X0402498Y0387000D01*
X0402832Y0386666D01*
Y0386333D01*
X0402498Y0386000D01*
X0401832D01*
X0401499Y0386333D01*
Y0386666D01*
X0401832Y0387000D01*
X0401499Y0387333D01*
Y0387666D01*
X0401832Y0387000D02*
X0402498D01*
X0390834Y0386833D02*
X0390501Y0386500D01*
Y0385833D01*
X0390834Y0385500D01*
X0392167D01*
X0392500Y0385833D01*
Y0386500D01*
X0392167Y0386833D01*
X0390834Y0387499D02*
X0390501Y0387833D01*
Y0388499D01*
X0390834Y0388832D01*
X0391167D01*
X0391500Y0388499D01*
X0391834Y0388832D01*
X0392167D01*
X0392500Y0388499D01*
Y0387833D01*
X0392167Y0387499D01*
X0391834D01*
X0391500Y0387833D01*
X0391167Y0387499D01*
X0390834D01*
X0391500Y0387833D02*
Y0388499D01*
X0390834Y0389499D02*
X0390501Y0389832D01*
Y0390498D01*
X0390834Y0390832D01*
X0392167D01*
X0392500Y0390498D01*
Y0389832D01*
X0392167Y0389499D01*
X0390834D01*
X0403000Y0378500D02*
X0401001D01*
Y0379500D01*
X0401334Y0379833D01*
X0402000D01*
X0402334Y0379500D01*
Y0378500D01*
Y0379166D02*
X0403000Y0379833D01*
Y0381832D02*
Y0380499D01*
X0401667Y0381832D01*
X0401334D01*
X0401001Y0381499D01*
Y0380833D01*
X0401334Y0380499D01*
X0403000Y0383498D02*
X0401001D01*
X0402000Y0382499D01*
Y0383832D01*
X0392500Y0378500D02*
X0390501D01*
Y0379500D01*
X0390834Y0379833D01*
X0391500D01*
X0391834Y0379500D01*
Y0378500D01*
Y0379166D02*
X0392500Y0379833D01*
Y0381832D02*
Y0380499D01*
X0391167Y0381832D01*
X0390834D01*
X0390501Y0381499D01*
Y0380833D01*
X0390834Y0380499D01*
Y0382499D02*
X0390501Y0382832D01*
Y0383498D01*
X0390834Y0383832D01*
X0391167D01*
X0391500Y0383498D01*
Y0383165D01*
Y0383498D01*
X0391834Y0383832D01*
X0392167D01*
X0392500Y0383498D01*
Y0382832D01*
X0392167Y0382499D01*
X0395500Y0364500D02*
X0393501D01*
Y0365500D01*
X0393834Y0365833D01*
X0394500D01*
X0394834Y0365500D01*
Y0364500D01*
Y0365166D02*
X0395500Y0365833D01*
Y0367832D02*
Y0366499D01*
X0394167Y0367832D01*
X0393834D01*
X0393501Y0367499D01*
Y0366833D01*
X0393834Y0366499D01*
X0393501Y0368499D02*
Y0369832D01*
X0393834D01*
X0395167Y0368499D01*
X0395500D01*
X0387000Y0368000D02*
Y0369999D01*
X0388000D01*
X0388333Y0369666D01*
Y0369000D01*
X0388000Y0368666D01*
X0387000D01*
X0387666D02*
X0388333Y0368000D01*
X0390332D02*
X0388999D01*
X0390332Y0369333D01*
Y0369666D01*
X0389999Y0369999D01*
X0389333D01*
X0388999Y0369666D01*
X0390999D02*
X0391332Y0369999D01*
X0391998D01*
X0392332Y0369666D01*
Y0369333D01*
X0391998Y0369000D01*
X0392332Y0368666D01*
Y0368333D01*
X0391998Y0368000D01*
X0391332D01*
X0390999Y0368333D01*
Y0368666D01*
X0391332Y0369000D01*
X0390999Y0369333D01*
Y0369666D01*
X0391332Y0369000D02*
X0391998D01*
X0398334Y0365833D02*
X0398001Y0365500D01*
Y0364833D01*
X0398334Y0364500D01*
X0399667D01*
X0400000Y0364833D01*
Y0365500D01*
X0399667Y0365833D01*
X0398334Y0366499D02*
X0398001Y0366833D01*
Y0367499D01*
X0398334Y0367832D01*
X0398667D01*
X0399000Y0367499D01*
X0399334Y0367832D01*
X0399667D01*
X0400000Y0367499D01*
Y0366833D01*
X0399667Y0366499D01*
X0399334D01*
X0399000Y0366833D01*
X0398667Y0366499D01*
X0398334D01*
X0399000Y0366833D02*
Y0367499D01*
X0398001Y0368499D02*
Y0369832D01*
X0398334D01*
X0399667Y0368499D01*
X0400000D01*
X0425000Y0400499D02*
Y0398833D01*
X0425333Y0398500D01*
X0426000D01*
X0426333Y0398833D01*
Y0400499D01*
X0426999Y0398500D02*
X0427666D01*
X0427333D01*
Y0400499D01*
X0426999Y0400166D01*
X0429998Y0398500D02*
X0428665D01*
X0429998Y0399833D01*
Y0400166D01*
X0429665Y0400499D01*
X0428999D01*
X0428665Y0400166D01*
X0409833Y0433166D02*
X0409500Y0433499D01*
X0408833D01*
X0408500Y0433166D01*
Y0431833D01*
X0408833Y0431500D01*
X0409500D01*
X0409833Y0431833D01*
X0410499Y0433499D02*
X0411832D01*
Y0433166D01*
X0410499Y0431833D01*
Y0431500D01*
X0412499Y0433166D02*
X0412832Y0433499D01*
X0413498D01*
X0413832Y0433166D01*
Y0431833D01*
X0413498Y0431500D01*
X0412832D01*
X0412499Y0431833D01*
Y0433166D01*
X0419500Y0429999D02*
Y0428333D01*
X0419833Y0428000D01*
X0420500D01*
X0420833Y0428333D01*
Y0429999D01*
X0421499Y0428000D02*
X0422166D01*
X0421833D01*
Y0429999D01*
X0421499Y0429666D01*
X0423166Y0428000D02*
X0423832D01*
X0423499D01*
Y0429999D01*
X0423166Y0429666D01*
X0433833Y0422666D02*
X0433500Y0422999D01*
X0432833D01*
X0432500Y0422666D01*
Y0421333D01*
X0432833Y0421000D01*
X0433500D01*
X0433833Y0421333D01*
X0435832Y0422999D02*
X0435166Y0422666D01*
X0434499Y0422000D01*
Y0421333D01*
X0434833Y0421000D01*
X0435499D01*
X0435832Y0421333D01*
Y0421666D01*
X0435499Y0422000D01*
X0434499D01*
X0437832Y0422999D02*
X0437165Y0422666D01*
X0436499Y0422000D01*
Y0421333D01*
X0436832Y0421000D01*
X0437498D01*
X0437832Y0421333D01*
Y0421666D01*
X0437498Y0422000D01*
X0436499D01*
X0432500Y0417500D02*
Y0419499D01*
X0433500D01*
X0433833Y0419166D01*
Y0418500D01*
X0433500Y0418166D01*
X0432500D01*
X0433166D02*
X0433833Y0417500D01*
X0434499D02*
X0435166D01*
X0434833D01*
Y0419499D01*
X0434499Y0419166D01*
X0437498Y0419499D02*
X0436166D01*
Y0418500D01*
X0436832Y0418833D01*
X0437165D01*
X0437498Y0418500D01*
Y0417833D01*
X0437165Y0417500D01*
X0436499D01*
X0436166Y0417833D01*
X0433833Y0396166D02*
X0433500Y0396499D01*
X0432833D01*
X0432500Y0396166D01*
Y0394833D01*
X0432833Y0394500D01*
X0433500D01*
X0433833Y0394833D01*
X0435832Y0396499D02*
X0435166Y0396166D01*
X0434499Y0395500D01*
Y0394833D01*
X0434833Y0394500D01*
X0435499D01*
X0435832Y0394833D01*
Y0395166D01*
X0435499Y0395500D01*
X0434499D01*
X0436499Y0396499D02*
X0437832D01*
Y0396166D01*
X0436499Y0394833D01*
Y0394500D01*
X0432500Y0391000D02*
Y0392999D01*
X0433500D01*
X0433833Y0392666D01*
Y0392000D01*
X0433500Y0391666D01*
X0432500D01*
X0433166D02*
X0433833Y0391000D01*
X0434499D02*
X0435166D01*
X0434833D01*
Y0392999D01*
X0434499Y0392666D01*
X0437498Y0392999D02*
X0436832Y0392666D01*
X0436166Y0392000D01*
Y0391333D01*
X0436499Y0391000D01*
X0437165D01*
X0437498Y0391333D01*
Y0391666D01*
X0437165Y0392000D01*
X0436166D01*
X0427500Y0365500D02*
Y0367499D01*
X0428500D01*
X0428833Y0367166D01*
Y0366500D01*
X0428500Y0366166D01*
X0427500D01*
X0428166D02*
X0428833Y0365500D01*
X0429499D02*
X0430166D01*
X0429833D01*
Y0367499D01*
X0429499Y0367166D01*
X0431166Y0367499D02*
X0432498D01*
Y0367166D01*
X0431166Y0365833D01*
Y0365500D01*
X0411833Y0377666D02*
X0411500Y0377999D01*
X0410833D01*
X0410500Y0377666D01*
Y0376333D01*
X0410833Y0376000D01*
X0411500D01*
X0411833Y0376333D01*
X0412499Y0377999D02*
X0413832D01*
Y0377666D01*
X0412499Y0376333D01*
Y0376000D01*
X0415832Y0377999D02*
X0414499D01*
Y0377000D01*
X0415165Y0377333D01*
X0415498D01*
X0415832Y0377000D01*
Y0376333D01*
X0415498Y0376000D01*
X0414832D01*
X0414499Y0376333D01*
X0411333Y0361666D02*
X0411000Y0361999D01*
X0410333D01*
X0410000Y0361666D01*
Y0360333D01*
X0410333Y0360000D01*
X0411000D01*
X0411333Y0360333D01*
X0413332Y0361999D02*
X0412666Y0361666D01*
X0411999Y0361000D01*
Y0360333D01*
X0412333Y0360000D01*
X0412999D01*
X0413332Y0360333D01*
Y0360666D01*
X0412999Y0361000D01*
X0411999D01*
X0415332Y0361999D02*
X0413999D01*
Y0361000D01*
X0414665Y0361333D01*
X0414998D01*
X0415332Y0361000D01*
Y0360333D01*
X0414998Y0360000D01*
X0414332D01*
X0413999Y0360333D01*
X0446000Y0379499D02*
Y0377833D01*
X0446333Y0377500D01*
X0447000D01*
X0447333Y0377833D01*
Y0379499D01*
X0447999Y0377500D02*
X0448666D01*
X0448333D01*
Y0379499D01*
X0447999Y0379166D01*
X0449665D02*
X0449999Y0379499D01*
X0450665D01*
X0450998Y0379166D01*
Y0378833D01*
X0450665Y0378500D01*
X0450332D01*
X0450665D01*
X0450998Y0378166D01*
Y0377833D01*
X0450665Y0377500D01*
X0449999D01*
X0449665Y0377833D01*
X0442334Y0378333D02*
X0442001Y0378000D01*
Y0377333D01*
X0442334Y0377000D01*
X0443667D01*
X0444000Y0377333D01*
Y0378000D01*
X0443667Y0378333D01*
X0442001Y0380332D02*
X0442334Y0379666D01*
X0443000Y0378999D01*
X0443667D01*
X0444000Y0379333D01*
Y0379999D01*
X0443667Y0380332D01*
X0443334D01*
X0443000Y0379999D01*
Y0378999D01*
X0442334Y0380999D02*
X0442001Y0381332D01*
Y0381998D01*
X0442334Y0382332D01*
X0442667D01*
X0443000Y0381998D01*
X0443334Y0382332D01*
X0443667D01*
X0444000Y0381998D01*
Y0381332D01*
X0443667Y0380999D01*
X0443334D01*
X0443000Y0381332D01*
X0442667Y0380999D01*
X0442334D01*
X0443000Y0381332D02*
Y0381998D01*
X0435000Y0377500D02*
Y0379499D01*
X0436000D01*
X0436333Y0379166D01*
Y0378500D01*
X0436000Y0378166D01*
X0435000D01*
X0435666D02*
X0436333Y0377500D01*
X0436999D02*
X0437666D01*
X0437333D01*
Y0379499D01*
X0436999Y0379166D01*
X0438665D02*
X0438999Y0379499D01*
X0439665D01*
X0439998Y0379166D01*
Y0378833D01*
X0439665Y0378500D01*
X0439998Y0378166D01*
Y0377833D01*
X0439665Y0377500D01*
X0438999D01*
X0438665Y0377833D01*
Y0378166D01*
X0438999Y0378500D01*
X0438665Y0378833D01*
Y0379166D01*
X0438999Y0378500D02*
X0439665D01*
X0435000Y0367500D02*
Y0369499D01*
X0436000D01*
X0436333Y0369166D01*
Y0368500D01*
X0436000Y0368166D01*
X0435000D01*
X0435666D02*
X0436333Y0367500D01*
X0436999D02*
X0437666D01*
X0437333D01*
Y0369499D01*
X0436999Y0369166D01*
X0438665D02*
X0438999Y0369499D01*
X0439665D01*
X0439998Y0369166D01*
Y0368833D01*
X0439665Y0368500D01*
X0439332D01*
X0439665D01*
X0439998Y0368166D01*
Y0367833D01*
X0439665Y0367500D01*
X0438999D01*
X0438665Y0367833D01*
X0402333Y0307166D02*
X0402000Y0307499D01*
X0401333D01*
X0401000Y0307166D01*
Y0305833D01*
X0401333Y0305500D01*
X0402000D01*
X0402333Y0305833D01*
X0403999Y0305500D02*
Y0307499D01*
X0402999Y0306500D01*
X0404332D01*
X0406332Y0307499D02*
X0405665Y0307166D01*
X0404999Y0306500D01*
Y0305833D01*
X0405332Y0305500D01*
X0405998D01*
X0406332Y0305833D01*
Y0306166D01*
X0405998Y0306500D01*
X0404999D01*
X0402333Y0303666D02*
X0402000Y0303999D01*
X0401333D01*
X0401000Y0303666D01*
Y0302333D01*
X0401333Y0302000D01*
X0402000D01*
X0402333Y0302333D01*
X0403999Y0302000D02*
Y0303999D01*
X0402999Y0303000D01*
X0404332D01*
X0404999Y0303999D02*
X0406332D01*
Y0303666D01*
X0404999Y0302333D01*
Y0302000D01*
X0392500Y0319999D02*
Y0318333D01*
X0392833Y0318000D01*
X0393500D01*
X0393833Y0318333D01*
Y0319999D01*
X0395832D02*
X0395166Y0319666D01*
X0394499Y0319000D01*
Y0318333D01*
X0394833Y0318000D01*
X0395499D01*
X0395832Y0318333D01*
Y0318666D01*
X0395499Y0319000D01*
X0394499D01*
X0388334Y0304333D02*
X0388001Y0304000D01*
Y0303333D01*
X0388334Y0303000D01*
X0389667D01*
X0390000Y0303333D01*
Y0304000D01*
X0389667Y0304333D01*
X0390000Y0305999D02*
X0388001D01*
X0389000Y0304999D01*
Y0306332D01*
X0388001Y0308332D02*
Y0306999D01*
X0389000D01*
X0388667Y0307665D01*
Y0307998D01*
X0389000Y0308332D01*
X0389667D01*
X0390000Y0307998D01*
Y0307332D01*
X0389667Y0306999D01*
X0395834Y0287333D02*
X0395501Y0287000D01*
Y0286333D01*
X0395834Y0286000D01*
X0397167D01*
X0397500Y0286333D01*
Y0287000D01*
X0397167Y0287333D01*
X0397500Y0287999D02*
Y0288666D01*
Y0288333D01*
X0395501D01*
X0395834Y0287999D01*
X0395501Y0290998D02*
Y0289666D01*
X0396500D01*
X0396167Y0290332D01*
Y0290665D01*
X0396500Y0290998D01*
X0397167D01*
X0397500Y0290665D01*
Y0289999D01*
X0397167Y0289666D01*
X0392334Y0287333D02*
X0392001Y0287000D01*
Y0286333D01*
X0392334Y0286000D01*
X0393667D01*
X0394000Y0286333D01*
Y0287000D01*
X0393667Y0287333D01*
X0394000Y0287999D02*
Y0288666D01*
Y0288333D01*
X0392001D01*
X0392334Y0287999D01*
X0394000Y0290665D02*
X0392001D01*
X0393000Y0289666D01*
Y0290998D01*
X0388834Y0287333D02*
X0388501Y0287000D01*
Y0286333D01*
X0388834Y0286000D01*
X0390167D01*
X0390500Y0286333D01*
Y0287000D01*
X0390167Y0287333D01*
X0390500Y0288999D02*
X0388501D01*
X0389500Y0287999D01*
Y0289332D01*
X0390500Y0289999D02*
Y0290665D01*
Y0290332D01*
X0388501D01*
X0388834Y0289999D01*
X0385334Y0287333D02*
X0385001Y0287000D01*
Y0286333D01*
X0385334Y0286000D01*
X0386667D01*
X0387000Y0286333D01*
Y0287000D01*
X0386667Y0287333D01*
X0387000Y0287999D02*
Y0288666D01*
Y0288333D01*
X0385001D01*
X0385334Y0287999D01*
X0385001Y0290998D02*
X0385334Y0290332D01*
X0386000Y0289666D01*
X0386667D01*
X0387000Y0289999D01*
Y0290665D01*
X0386667Y0290998D01*
X0386334D01*
X0386000Y0290665D01*
Y0289666D01*
X0367000Y0284999D02*
Y0284666D01*
X0367666Y0284000D01*
X0368333Y0284666D01*
Y0284999D01*
X0367666Y0284000D02*
Y0283000D01*
X0368999D02*
X0369666D01*
X0369333D01*
Y0284999D01*
X0368999Y0284666D01*
X0378334Y0282833D02*
X0378001Y0282500D01*
Y0281833D01*
X0378334Y0281500D01*
X0379667D01*
X0380000Y0281833D01*
Y0282500D01*
X0379667Y0282833D01*
X0380000Y0283499D02*
Y0284166D01*
Y0283833D01*
X0378001D01*
X0378334Y0283499D01*
Y0285166D02*
X0378001Y0285499D01*
Y0286165D01*
X0378334Y0286498D01*
X0378667D01*
X0379000Y0286165D01*
X0379334Y0286498D01*
X0379667D01*
X0380000Y0286165D01*
Y0285499D01*
X0379667Y0285166D01*
X0379334D01*
X0379000Y0285499D01*
X0378667Y0285166D01*
X0378334D01*
X0379000Y0285499D02*
Y0286165D01*
X0361334Y0276833D02*
X0361001Y0276500D01*
Y0275833D01*
X0361334Y0275500D01*
X0362667D01*
X0363000Y0275833D01*
Y0276500D01*
X0362667Y0276833D01*
X0363000Y0277499D02*
Y0278166D01*
Y0277833D01*
X0361001D01*
X0361334Y0277499D01*
X0361001Y0279166D02*
Y0280498D01*
X0361334D01*
X0362667Y0279166D01*
X0363000D01*
X0367500Y0269500D02*
Y0271499D01*
X0368500D01*
X0368833Y0271166D01*
Y0270500D01*
X0368500Y0270166D01*
X0367500D01*
X0368166D02*
X0368833Y0269500D01*
X0369499Y0271166D02*
X0369833Y0271499D01*
X0370499D01*
X0370832Y0271166D01*
Y0270833D01*
X0370499Y0270500D01*
X0370166D01*
X0370499D01*
X0370832Y0270166D01*
Y0269833D01*
X0370499Y0269500D01*
X0369833D01*
X0369499Y0269833D01*
X0366833Y0267666D02*
X0366500Y0267999D01*
X0365833D01*
X0365500Y0267666D01*
Y0266333D01*
X0365833Y0266000D01*
X0366500D01*
X0366833Y0266333D01*
X0368832Y0266000D02*
X0367499D01*
X0368832Y0267333D01*
Y0267666D01*
X0368499Y0267999D01*
X0367833D01*
X0367499Y0267666D01*
X0369499D02*
X0369832Y0267999D01*
X0370498D01*
X0370832Y0267666D01*
Y0267333D01*
X0370498Y0267000D01*
X0370165D01*
X0370498D01*
X0370832Y0266666D01*
Y0266333D01*
X0370498Y0266000D01*
X0369832D01*
X0369499Y0266333D01*
X0378334Y0262333D02*
X0378001Y0262000D01*
Y0261333D01*
X0378334Y0261000D01*
X0379667D01*
X0380000Y0261333D01*
Y0262000D01*
X0379667Y0262333D01*
X0380000Y0264332D02*
Y0262999D01*
X0378667Y0264332D01*
X0378334D01*
X0378001Y0263999D01*
Y0263333D01*
X0378334Y0262999D01*
X0380000Y0265998D02*
X0378001D01*
X0379000Y0264999D01*
Y0266332D01*
X0367333Y0263666D02*
X0367000Y0263999D01*
X0366333D01*
X0366000Y0263666D01*
Y0262333D01*
X0366333Y0262000D01*
X0367000D01*
X0367333Y0262333D01*
X0369332Y0262000D02*
X0367999D01*
X0369332Y0263333D01*
Y0263666D01*
X0368999Y0263999D01*
X0368333D01*
X0367999Y0263666D01*
X0369999Y0262000D02*
X0370665D01*
X0370332D01*
Y0263999D01*
X0369999Y0263666D01*
X0362334Y0256833D02*
X0362001Y0256500D01*
Y0255833D01*
X0362334Y0255500D01*
X0363667D01*
X0364000Y0255833D01*
Y0256500D01*
X0363667Y0256833D01*
X0364000Y0258832D02*
Y0257499D01*
X0362667Y0258832D01*
X0362334D01*
X0362001Y0258499D01*
Y0257833D01*
X0362334Y0257499D01*
X0362001Y0260832D02*
Y0259499D01*
X0363000D01*
X0362667Y0260165D01*
Y0260498D01*
X0363000Y0260832D01*
X0363667D01*
X0364000Y0260498D01*
Y0259832D01*
X0363667Y0259499D01*
X0380000Y0256000D02*
X0378001D01*
Y0257000D01*
X0378334Y0257333D01*
X0379000D01*
X0379334Y0257000D01*
Y0256000D01*
Y0256666D02*
X0380000Y0257333D01*
Y0259332D02*
Y0257999D01*
X0378667Y0259332D01*
X0378334D01*
X0378001Y0258999D01*
Y0258333D01*
X0378334Y0257999D01*
X0368333Y0253666D02*
X0368000Y0253999D01*
X0367333D01*
X0367000Y0253666D01*
Y0252333D01*
X0367333Y0252000D01*
X0368000D01*
X0368333Y0252333D01*
X0370332Y0252000D02*
X0368999D01*
X0370332Y0253333D01*
Y0253666D01*
X0369999Y0253999D01*
X0369333D01*
X0368999Y0253666D01*
X0370999D02*
X0371332Y0253999D01*
X0371998D01*
X0372332Y0253666D01*
Y0252333D01*
X0371998Y0252000D01*
X0371332D01*
X0370999Y0252333D01*
Y0253666D01*
X0371834Y0240833D02*
X0371501Y0240500D01*
Y0239833D01*
X0371834Y0239500D01*
X0373167D01*
X0373500Y0239833D01*
Y0240500D01*
X0373167Y0240833D01*
X0373500Y0242832D02*
Y0241499D01*
X0372167Y0242832D01*
X0371834D01*
X0371501Y0242499D01*
Y0241833D01*
X0371834Y0241499D01*
X0371501Y0243499D02*
Y0244832D01*
X0371834D01*
X0373167Y0243499D01*
X0373500D01*
X0368334Y0240833D02*
X0368001Y0240500D01*
Y0239833D01*
X0368334Y0239500D01*
X0369667D01*
X0370000Y0239833D01*
Y0240500D01*
X0369667Y0240833D01*
X0370000Y0242832D02*
Y0241499D01*
X0368667Y0242832D01*
X0368334D01*
X0368001Y0242499D01*
Y0241833D01*
X0368334Y0241499D01*
X0368001Y0244832D02*
X0368334Y0244165D01*
X0369000Y0243499D01*
X0369667D01*
X0370000Y0243832D01*
Y0244498D01*
X0369667Y0244832D01*
X0369334D01*
X0369000Y0244498D01*
Y0243499D01*
X0376500Y0239500D02*
Y0241499D01*
X0377500D01*
X0377833Y0241166D01*
Y0240500D01*
X0377500Y0240166D01*
X0376500D01*
X0377166D02*
X0377833Y0239500D01*
X0379499D02*
Y0241499D01*
X0378499Y0240500D01*
X0379832D01*
X0418333Y0264666D02*
X0418000Y0264999D01*
X0417333D01*
X0417000Y0264666D01*
Y0263333D01*
X0417333Y0263000D01*
X0418000D01*
X0418333Y0263333D01*
X0418999Y0263000D02*
X0419666D01*
X0419333D01*
Y0264999D01*
X0418999Y0264666D01*
X0420666Y0263333D02*
X0420999Y0263000D01*
X0421665D01*
X0421998Y0263333D01*
Y0264666D01*
X0421665Y0264999D01*
X0420999D01*
X0420666Y0264666D01*
Y0264333D01*
X0420999Y0264000D01*
X0421998D01*
X0418333Y0261166D02*
X0418000Y0261499D01*
X0417333D01*
X0417000Y0261166D01*
Y0259833D01*
X0417333Y0259500D01*
X0418000D01*
X0418333Y0259833D01*
X0419999Y0259500D02*
Y0261499D01*
X0418999Y0260500D01*
X0420332D01*
X0422332Y0259500D02*
X0420999D01*
X0422332Y0260833D01*
Y0261166D01*
X0421998Y0261499D01*
X0421332D01*
X0420999Y0261166D01*
X0418333Y0257666D02*
X0418000Y0257999D01*
X0417333D01*
X0417000Y0257666D01*
Y0256333D01*
X0417333Y0256000D01*
X0418000D01*
X0418333Y0256333D01*
X0420332Y0256000D02*
X0418999D01*
X0420332Y0257333D01*
Y0257666D01*
X0419999Y0257999D01*
X0419333D01*
X0418999Y0257666D01*
X0422332Y0256000D02*
X0420999D01*
X0422332Y0257333D01*
Y0257666D01*
X0421998Y0257999D01*
X0421332D01*
X0420999Y0257666D01*
X0418333Y0254166D02*
X0418000Y0254499D01*
X0417333D01*
X0417000Y0254166D01*
Y0252833D01*
X0417333Y0252500D01*
X0418000D01*
X0418333Y0252833D01*
X0419999Y0252500D02*
Y0254499D01*
X0418999Y0253500D01*
X0420332D01*
X0420999Y0254166D02*
X0421332Y0254499D01*
X0421998D01*
X0422332Y0254166D01*
Y0253833D01*
X0421998Y0253500D01*
X0421665D01*
X0421998D01*
X0422332Y0253166D01*
Y0252833D01*
X0421998Y0252500D01*
X0421332D01*
X0420999Y0252833D01*
X0418333Y0251166D02*
X0418000Y0251499D01*
X0417333D01*
X0417000Y0251166D01*
Y0249833D01*
X0417333Y0249500D01*
X0418000D01*
X0418333Y0249833D01*
X0418999Y0251166D02*
X0419333Y0251499D01*
X0419999D01*
X0420332Y0251166D01*
Y0250833D01*
X0419999Y0250500D01*
X0419666D01*
X0419999D01*
X0420332Y0250166D01*
Y0249833D01*
X0419999Y0249500D01*
X0419333D01*
X0418999Y0249833D01*
X0420999Y0249500D02*
X0421665D01*
X0421332D01*
Y0251499D01*
X0420999Y0251166D01*
X0420333Y0232666D02*
X0420000Y0232999D01*
X0419333D01*
X0419000Y0232666D01*
Y0231333D01*
X0419333Y0231000D01*
X0420000D01*
X0420333Y0231333D01*
X0420999Y0232666D02*
X0421333Y0232999D01*
X0421999D01*
X0422332Y0232666D01*
Y0232333D01*
X0421999Y0232000D01*
X0421666D01*
X0421999D01*
X0422332Y0231666D01*
Y0231333D01*
X0421999Y0231000D01*
X0421333D01*
X0420999Y0231333D01*
X0422999Y0232666D02*
X0423332Y0232999D01*
X0423998D01*
X0424332Y0232666D01*
Y0232333D01*
X0423998Y0232000D01*
X0423665D01*
X0423998D01*
X0424332Y0231666D01*
Y0231333D01*
X0423998Y0231000D01*
X0423332D01*
X0422999Y0231333D01*
X0414834Y0236833D02*
X0414501Y0236500D01*
Y0235833D01*
X0414834Y0235500D01*
X0416167D01*
X0416500Y0235833D01*
Y0236500D01*
X0416167Y0236833D01*
X0414834Y0237499D02*
X0414501Y0237833D01*
Y0238499D01*
X0414834Y0238832D01*
X0415167D01*
X0415500Y0238499D01*
Y0238166D01*
Y0238499D01*
X0415834Y0238832D01*
X0416167D01*
X0416500Y0238499D01*
Y0237833D01*
X0416167Y0237499D01*
Y0239499D02*
X0416500Y0239832D01*
Y0240498D01*
X0416167Y0240832D01*
X0414834D01*
X0414501Y0240498D01*
Y0239832D01*
X0414834Y0239499D01*
X0415167D01*
X0415500Y0239832D01*
Y0240832D01*
X0411334Y0236833D02*
X0411001Y0236500D01*
Y0235833D01*
X0411334Y0235500D01*
X0412667D01*
X0413000Y0235833D01*
Y0236500D01*
X0412667Y0236833D01*
X0411334Y0237499D02*
X0411001Y0237833D01*
Y0238499D01*
X0411334Y0238832D01*
X0411667D01*
X0412000Y0238499D01*
Y0238166D01*
Y0238499D01*
X0412334Y0238832D01*
X0412667D01*
X0413000Y0238499D01*
Y0237833D01*
X0412667Y0237499D01*
X0411334Y0239499D02*
X0411001Y0239832D01*
Y0240498D01*
X0411334Y0240832D01*
X0411667D01*
X0412000Y0240498D01*
X0412334Y0240832D01*
X0412667D01*
X0413000Y0240498D01*
Y0239832D01*
X0412667Y0239499D01*
X0412334D01*
X0412000Y0239832D01*
X0411667Y0239499D01*
X0411334D01*
X0412000Y0239832D02*
Y0240498D01*
X0407834Y0236833D02*
X0407501Y0236500D01*
Y0235833D01*
X0407834Y0235500D01*
X0409167D01*
X0409500Y0235833D01*
Y0236500D01*
X0409167Y0236833D01*
X0407834Y0237499D02*
X0407501Y0237833D01*
Y0238499D01*
X0407834Y0238832D01*
X0408167D01*
X0408500Y0238499D01*
Y0238166D01*
Y0238499D01*
X0408834Y0238832D01*
X0409167D01*
X0409500Y0238499D01*
Y0237833D01*
X0409167Y0237499D01*
X0407501Y0239499D02*
Y0240832D01*
X0407834D01*
X0409167Y0239499D01*
X0409500D01*
X0404334Y0236833D02*
X0404001Y0236500D01*
Y0235833D01*
X0404334Y0235500D01*
X0405667D01*
X0406000Y0235833D01*
Y0236500D01*
X0405667Y0236833D01*
X0404334Y0237499D02*
X0404001Y0237833D01*
Y0238499D01*
X0404334Y0238832D01*
X0404667D01*
X0405000Y0238499D01*
Y0238166D01*
Y0238499D01*
X0405334Y0238832D01*
X0405667D01*
X0406000Y0238499D01*
Y0237833D01*
X0405667Y0237499D01*
X0404001Y0240832D02*
X0404334Y0240165D01*
X0405000Y0239499D01*
X0405667D01*
X0406000Y0239832D01*
Y0240498D01*
X0405667Y0240832D01*
X0405334D01*
X0405000Y0240498D01*
Y0239499D01*
X0400834Y0236833D02*
X0400501Y0236500D01*
Y0235833D01*
X0400834Y0235500D01*
X0402167D01*
X0402500Y0235833D01*
Y0236500D01*
X0402167Y0236833D01*
X0400834Y0237499D02*
X0400501Y0237833D01*
Y0238499D01*
X0400834Y0238832D01*
X0401167D01*
X0401500Y0238499D01*
Y0238166D01*
Y0238499D01*
X0401834Y0238832D01*
X0402167D01*
X0402500Y0238499D01*
Y0237833D01*
X0402167Y0237499D01*
X0400501Y0240832D02*
Y0239499D01*
X0401500D01*
X0401167Y0240165D01*
Y0240498D01*
X0401500Y0240832D01*
X0402167D01*
X0402500Y0240498D01*
Y0239832D01*
X0402167Y0239499D01*
X0385001Y0229500D02*
Y0230833D01*
Y0230166D01*
X0387000D01*
Y0231499D02*
Y0232166D01*
Y0231833D01*
X0385001D01*
X0385334Y0231499D01*
X0429333Y0255166D02*
X0429000Y0255499D01*
X0428333D01*
X0428000Y0255166D01*
Y0253833D01*
X0428333Y0253500D01*
X0429000D01*
X0429333Y0253833D01*
X0429999Y0253500D02*
X0430666D01*
X0430333D01*
Y0255499D01*
X0429999Y0255166D01*
X0436500Y0286000D02*
Y0287999D01*
X0437500D01*
X0437833Y0287666D01*
Y0287000D01*
X0437500Y0286666D01*
X0436500D01*
X0437166D02*
X0437833Y0286000D01*
X0439832Y0287999D02*
X0439166Y0287666D01*
X0438499Y0287000D01*
Y0286333D01*
X0438833Y0286000D01*
X0439499D01*
X0439832Y0286333D01*
Y0286666D01*
X0439499Y0287000D01*
X0438499D01*
X0436500Y0282500D02*
Y0284499D01*
X0437500D01*
X0437833Y0284166D01*
Y0283500D01*
X0437500Y0283166D01*
X0436500D01*
X0437166D02*
X0437833Y0282500D01*
X0438499Y0284499D02*
X0439832D01*
Y0284166D01*
X0438499Y0282833D01*
Y0282500D01*
X0426500Y0274999D02*
Y0273333D01*
X0426833Y0273000D01*
X0427500D01*
X0427833Y0273333D01*
Y0274999D01*
X0429832Y0273000D02*
X0428499D01*
X0429832Y0274333D01*
Y0274666D01*
X0429499Y0274999D01*
X0428833D01*
X0428499Y0274666D01*
X0446333Y0283666D02*
X0446000Y0283999D01*
X0445333D01*
X0445000Y0283666D01*
Y0282333D01*
X0445333Y0282000D01*
X0446000D01*
X0446333Y0282333D01*
X0448332Y0283999D02*
X0446999D01*
Y0283000D01*
X0447666Y0283333D01*
X0447999D01*
X0448332Y0283000D01*
Y0282333D01*
X0447999Y0282000D01*
X0447333D01*
X0446999Y0282333D01*
X0450332Y0282000D02*
X0448999D01*
X0450332Y0283333D01*
Y0283666D01*
X0449998Y0283999D01*
X0449332D01*
X0448999Y0283666D01*
X0472833D02*
X0472500Y0283999D01*
X0471833D01*
X0471500Y0283666D01*
Y0282333D01*
X0471833Y0282000D01*
X0472500D01*
X0472833Y0282333D01*
X0474832Y0283999D02*
X0473499D01*
Y0283000D01*
X0474166Y0283333D01*
X0474499D01*
X0474832Y0283000D01*
Y0282333D01*
X0474499Y0282000D01*
X0473833D01*
X0473499Y0282333D01*
X0475499Y0283999D02*
X0476832D01*
Y0283666D01*
X0475499Y0282333D01*
Y0282000D01*
X0481334Y0286833D02*
X0481001Y0286500D01*
Y0285833D01*
X0481334Y0285500D01*
X0482667D01*
X0483000Y0285833D01*
Y0286500D01*
X0482667Y0286833D01*
X0481001Y0288832D02*
Y0287499D01*
X0482000D01*
X0481667Y0288166D01*
Y0288499D01*
X0482000Y0288832D01*
X0482667D01*
X0483000Y0288499D01*
Y0287833D01*
X0482667Y0287499D01*
X0483000Y0289499D02*
Y0290165D01*
Y0289832D01*
X0481001D01*
X0481334Y0289499D01*
X0486000Y0316000D02*
Y0317999D01*
X0487000D01*
X0487333Y0317666D01*
Y0317000D01*
X0487000Y0316666D01*
X0486000D01*
X0486666D02*
X0487333Y0316000D01*
X0487999Y0316333D02*
X0488333Y0316000D01*
X0488999D01*
X0489332Y0316333D01*
Y0317666D01*
X0488999Y0317999D01*
X0488333D01*
X0487999Y0317666D01*
Y0317333D01*
X0488333Y0317000D01*
X0489332D01*
X0486000Y0312500D02*
Y0314499D01*
X0487000D01*
X0487333Y0314166D01*
Y0313500D01*
X0487000Y0313166D01*
X0486000D01*
X0486666D02*
X0487333Y0312500D01*
X0487999Y0314166D02*
X0488333Y0314499D01*
X0488999D01*
X0489332Y0314166D01*
Y0313833D01*
X0488999Y0313500D01*
X0489332Y0313166D01*
Y0312833D01*
X0488999Y0312500D01*
X0488333D01*
X0487999Y0312833D01*
Y0313166D01*
X0488333Y0313500D01*
X0487999Y0313833D01*
Y0314166D01*
X0488333Y0313500D02*
X0488999D01*
X0439334Y0342833D02*
X0439001Y0342500D01*
Y0341833D01*
X0439334Y0341500D01*
X0440667D01*
X0441000Y0341833D01*
Y0342500D01*
X0440667Y0342833D01*
X0439001Y0344832D02*
Y0343499D01*
X0440000D01*
X0439667Y0344166D01*
Y0344499D01*
X0440000Y0344832D01*
X0440667D01*
X0441000Y0344499D01*
Y0343833D01*
X0440667Y0343499D01*
X0441000Y0346498D02*
X0439001D01*
X0440000Y0345499D01*
Y0346832D01*
X0435834Y0342833D02*
X0435501Y0342500D01*
Y0341833D01*
X0435834Y0341500D01*
X0437167D01*
X0437500Y0341833D01*
Y0342500D01*
X0437167Y0342833D01*
X0435501Y0344832D02*
Y0343499D01*
X0436500D01*
X0436167Y0344166D01*
Y0344499D01*
X0436500Y0344832D01*
X0437167D01*
X0437500Y0344499D01*
Y0343833D01*
X0437167Y0343499D01*
X0435834Y0345499D02*
X0435501Y0345832D01*
Y0346498D01*
X0435834Y0346832D01*
X0436167D01*
X0436500Y0346498D01*
Y0346165D01*
Y0346498D01*
X0436834Y0346832D01*
X0437167D01*
X0437500Y0346498D01*
Y0345832D01*
X0437167Y0345499D01*
X0484333Y0336166D02*
X0484000Y0336499D01*
X0483333D01*
X0483000Y0336166D01*
Y0334833D01*
X0483333Y0334500D01*
X0484000D01*
X0484333Y0334833D01*
X0486332Y0336499D02*
X0484999D01*
Y0335500D01*
X0485666Y0335833D01*
X0485999D01*
X0486332Y0335500D01*
Y0334833D01*
X0485999Y0334500D01*
X0485333D01*
X0484999Y0334833D01*
X0488332Y0336499D02*
X0486999D01*
Y0335500D01*
X0487665Y0335833D01*
X0487998D01*
X0488332Y0335500D01*
Y0334833D01*
X0487998Y0334500D01*
X0487332D01*
X0486999Y0334833D01*
X0489334Y0326333D02*
X0489001Y0326000D01*
Y0325333D01*
X0489334Y0325000D01*
X0490667D01*
X0491000Y0325333D01*
Y0326000D01*
X0490667Y0326333D01*
X0489001Y0328332D02*
Y0326999D01*
X0490000D01*
X0489667Y0327666D01*
Y0327999D01*
X0490000Y0328332D01*
X0490667D01*
X0491000Y0327999D01*
Y0327333D01*
X0490667Y0326999D01*
X0489001Y0330332D02*
X0489334Y0329665D01*
X0490000Y0328999D01*
X0490667D01*
X0491000Y0329332D01*
Y0329998D01*
X0490667Y0330332D01*
X0490334D01*
X0490000Y0329998D01*
Y0328999D01*
X0437500Y0334499D02*
Y0332833D01*
X0437833Y0332500D01*
X0438500D01*
X0438833Y0332833D01*
Y0334499D01*
X0439499D02*
X0440832D01*
Y0334166D01*
X0439499Y0332833D01*
Y0332500D01*
X0409000Y0338999D02*
Y0338666D01*
X0409666Y0338000D01*
X0410333Y0338666D01*
Y0338999D01*
X0409666Y0338000D02*
Y0337000D01*
X0412332D02*
X0410999D01*
X0412332Y0338333D01*
Y0338666D01*
X0411999Y0338999D01*
X0411333D01*
X0410999Y0338666D01*
X0426833Y0341166D02*
X0426500Y0341499D01*
X0425833D01*
X0425500Y0341166D01*
Y0339833D01*
X0425833Y0339500D01*
X0426500D01*
X0426833Y0339833D01*
X0428499Y0339500D02*
Y0341499D01*
X0427499Y0340500D01*
X0428832D01*
X0429499Y0339833D02*
X0429832Y0339500D01*
X0430498D01*
X0430832Y0339833D01*
Y0341166D01*
X0430498Y0341499D01*
X0429832D01*
X0429499Y0341166D01*
Y0340833D01*
X0429832Y0340500D01*
X0430832D01*
X0403833Y0319166D02*
X0403500Y0319499D01*
X0402833D01*
X0402500Y0319166D01*
Y0317833D01*
X0402833Y0317500D01*
X0403500D01*
X0403833Y0317833D01*
X0405832Y0319499D02*
X0404499D01*
Y0318500D01*
X0405166Y0318833D01*
X0405499D01*
X0405832Y0318500D01*
Y0317833D01*
X0405499Y0317500D01*
X0404833D01*
X0404499Y0317833D01*
X0406499Y0319166D02*
X0406832Y0319499D01*
X0407498D01*
X0407832Y0319166D01*
Y0317833D01*
X0407498Y0317500D01*
X0406832D01*
X0406499Y0317833D01*
Y0319166D01*
X0416833Y0316666D02*
X0416500Y0316999D01*
X0415833D01*
X0415500Y0316666D01*
Y0315333D01*
X0415833Y0315000D01*
X0416500D01*
X0416833Y0315333D01*
X0418832Y0316999D02*
X0417499D01*
Y0316000D01*
X0418166Y0316333D01*
X0418499D01*
X0418832Y0316000D01*
Y0315333D01*
X0418499Y0315000D01*
X0417833D01*
X0417499Y0315333D01*
X0419499Y0316666D02*
X0419832Y0316999D01*
X0420498D01*
X0420832Y0316666D01*
Y0316333D01*
X0420498Y0316000D01*
X0420832Y0315666D01*
Y0315333D01*
X0420498Y0315000D01*
X0419832D01*
X0419499Y0315333D01*
Y0315666D01*
X0419832Y0316000D01*
X0419499Y0316333D01*
Y0316666D01*
X0419832Y0316000D02*
X0420498D01*
X0476500Y0343000D02*
X0474501D01*
Y0344000D01*
X0474834Y0344333D01*
X0475500D01*
X0475834Y0344000D01*
Y0343000D01*
Y0343666D02*
X0476500Y0344333D01*
Y0344999D02*
Y0345666D01*
Y0345333D01*
X0474501D01*
X0474834Y0344999D01*
Y0346666D02*
X0474501Y0346999D01*
Y0347665D01*
X0474834Y0347998D01*
X0476167D01*
X0476500Y0347665D01*
Y0346999D01*
X0476167Y0346666D01*
X0474834D01*
X0414500Y0299000D02*
X0412501D01*
Y0300000D01*
X0412834Y0300333D01*
X0413500D01*
X0413834Y0300000D01*
Y0299000D01*
Y0299666D02*
X0414500Y0300333D01*
X0412501Y0302332D02*
Y0300999D01*
X0414500D01*
Y0302332D01*
X0413500Y0300999D02*
Y0301666D01*
X0412834Y0304332D02*
X0412501Y0303998D01*
Y0303332D01*
X0412834Y0302999D01*
X0413167D01*
X0413500Y0303332D01*
Y0303998D01*
X0413834Y0304332D01*
X0414167D01*
X0414500Y0303998D01*
Y0303332D01*
X0414167Y0302999D01*
X0412501Y0306331D02*
Y0304998D01*
X0414500D01*
Y0306331D01*
X0413500Y0304998D02*
Y0305664D01*
X0412501Y0306997D02*
Y0308330D01*
Y0307664D01*
X0414500D01*
X0456500Y0357499D02*
Y0355500D01*
X0457500D01*
X0457833Y0355833D01*
Y0356166D01*
X0457500Y0356500D01*
X0456500D01*
X0457500D01*
X0457833Y0356833D01*
Y0357166D01*
X0457500Y0357499D01*
X0456500D01*
X0459499D02*
X0458833D01*
X0458499Y0357166D01*
Y0355833D01*
X0458833Y0355500D01*
X0459499D01*
X0459832Y0355833D01*
Y0357166D01*
X0459499Y0357499D01*
X0461498D02*
X0460832D01*
X0460499Y0357166D01*
Y0355833D01*
X0460832Y0355500D01*
X0461498D01*
X0461832Y0355833D01*
Y0357166D01*
X0461498Y0357499D01*
X0462498D02*
X0463831D01*
X0463165D01*
Y0355500D01*
X0448500Y0364500D02*
Y0366499D01*
X0449500D01*
X0449833Y0366166D01*
Y0365500D01*
X0449500Y0365166D01*
X0448500D01*
X0449166D02*
X0449833Y0364500D01*
X0450499D02*
X0451166D01*
X0450833D01*
Y0366499D01*
X0450499Y0366166D01*
X0453165Y0364500D02*
Y0366499D01*
X0452166Y0365500D01*
X0453498D01*
X0449833Y0362666D02*
X0449500Y0362999D01*
X0448833D01*
X0448500Y0362666D01*
Y0361333D01*
X0448833Y0361000D01*
X0449500D01*
X0449833Y0361333D01*
X0451832Y0362999D02*
X0451166Y0362666D01*
X0450499Y0362000D01*
Y0361333D01*
X0450833Y0361000D01*
X0451499D01*
X0451832Y0361333D01*
Y0361666D01*
X0451499Y0362000D01*
X0450499D01*
X0452499Y0361333D02*
X0452832Y0361000D01*
X0453498D01*
X0453832Y0361333D01*
Y0362666D01*
X0453498Y0362999D01*
X0452832D01*
X0452499Y0362666D01*
Y0362333D01*
X0452832Y0362000D01*
X0453832D01*
X0465334Y0371833D02*
X0465001Y0371500D01*
Y0370833D01*
X0465334Y0370500D01*
X0466667D01*
X0467000Y0370833D01*
Y0371500D01*
X0466667Y0371833D01*
X0465001Y0372499D02*
Y0373832D01*
X0465334D01*
X0466667Y0372499D01*
X0467000D01*
X0465334Y0374499D02*
X0465001Y0374832D01*
Y0375498D01*
X0465334Y0375832D01*
X0465667D01*
X0466000Y0375498D01*
Y0375165D01*
Y0375498D01*
X0466334Y0375832D01*
X0466667D01*
X0467000Y0375498D01*
Y0374832D01*
X0466667Y0374499D01*
X0470121Y0380236D02*
Y0380707D01*
X0469649Y0381178D01*
X0469178Y0381178D01*
X0468236Y0380236D01*
Y0379764D01*
X0468707Y0379293D01*
X0469178Y0379293D01*
X0470121Y0377879D02*
X0471534Y0379293D01*
X0470121Y0379293D01*
X0471063Y0378351D01*
X0471534Y0376466D02*
X0472948Y0377879D01*
X0471534D01*
X0472477Y0376937D01*
X0472006Y0375523D02*
X0472948Y0374581D01*
X0474598Y0373403D02*
X0473655Y0374345D01*
X0475540D01*
X0475776Y0374581D01*
Y0375052D01*
X0475304Y0375523D01*
X0474833Y0375523D01*
X0330121Y0240236D02*
Y0240707D01*
X0329649Y0241178D01*
X0329178Y0241178D01*
X0328236Y0240236D01*
Y0239764D01*
X0328707Y0239293D01*
X0329178Y0239293D01*
X0330121Y0237879D02*
X0331534Y0239293D01*
X0330121Y0239293D01*
X0331063Y0238351D01*
X0331534Y0236466D02*
X0332948Y0237879D01*
X0331534D01*
X0332477Y0236937D01*
X0332006Y0235523D02*
X0332948Y0234581D01*
X0334362Y0233638D02*
X0335776Y0235052D01*
X0334362D01*
X0335304Y0234109D01*
X0464000Y0251500D02*
Y0253499D01*
X0465000D01*
X0465333Y0253166D01*
Y0252500D01*
X0465000Y0252166D01*
X0464000D01*
X0464666D02*
X0465333Y0251500D01*
X0467332Y0253499D02*
X0465999D01*
Y0252500D01*
X0466666Y0252833D01*
X0466999D01*
X0467332Y0252500D01*
Y0251833D01*
X0466999Y0251500D01*
X0466333D01*
X0465999Y0251833D01*
X0457264Y0235621D02*
X0456793D01*
X0456322Y0235149D01*
X0456322Y0234678D01*
X0457264Y0233736D01*
X0457736D01*
X0458207Y0234207D01*
X0458207Y0234678D01*
X0459621Y0235621D02*
X0458207Y0237034D01*
X0458207Y0235621D01*
X0459149Y0236563D01*
X0461034Y0237034D02*
X0459621Y0238448D01*
Y0237034D01*
X0460563Y0237977D01*
X0461977Y0237506D02*
X0462919Y0238448D01*
X0461977Y0240333D02*
X0461977Y0240804D01*
X0462448Y0241276D01*
X0462919D01*
X0463155Y0241040D01*
Y0240569D01*
X0462919Y0240333D01*
X0463155Y0240569D01*
X0463626Y0240569D01*
X0463862Y0240333D01*
X0463862Y0239862D01*
X0463391Y0239391D01*
X0462919D01*
X0382333Y0367666D02*
X0382000Y0367999D01*
X0381333D01*
X0381000Y0367666D01*
Y0366333D01*
X0381333Y0366000D01*
X0382000D01*
X0382333Y0366333D01*
X0382999Y0367666D02*
X0383333Y0367999D01*
X0383999D01*
X0384332Y0367666D01*
Y0367333D01*
X0383999Y0367000D01*
X0384332Y0366666D01*
Y0366333D01*
X0383999Y0366000D01*
X0383333D01*
X0382999Y0366333D01*
Y0366666D01*
X0383333Y0367000D01*
X0382999Y0367333D01*
Y0367666D01*
X0383333Y0367000D02*
X0383999D01*
X0384999Y0367666D02*
X0385332Y0367999D01*
X0385998D01*
X0386332Y0367666D01*
Y0367333D01*
X0385998Y0367000D01*
X0385665D01*
X0385998D01*
X0386332Y0366666D01*
Y0366333D01*
X0385998Y0366000D01*
X0385332D01*
X0384999Y0366333D01*
X0385834Y0361333D02*
X0385501Y0361000D01*
Y0360333D01*
X0385834Y0360000D01*
X0387167D01*
X0387500Y0360333D01*
Y0361000D01*
X0387167Y0361333D01*
X0385834Y0361999D02*
X0385501Y0362333D01*
Y0362999D01*
X0385834Y0363332D01*
X0386167D01*
X0386500Y0362999D01*
X0386834Y0363332D01*
X0387167D01*
X0387500Y0362999D01*
Y0362333D01*
X0387167Y0361999D01*
X0386834D01*
X0386500Y0362333D01*
X0386167Y0361999D01*
X0385834D01*
X0386500Y0362333D02*
Y0362999D01*
X0385501Y0365332D02*
X0385834Y0364665D01*
X0386500Y0363999D01*
X0387167D01*
X0387500Y0364332D01*
Y0364998D01*
X0387167Y0365332D01*
X0386834D01*
X0386500Y0364998D01*
Y0363999D01*
X0372500Y0351500D02*
Y0353499D01*
X0373500D01*
X0373833Y0353166D01*
Y0352500D01*
X0373500Y0352166D01*
X0372500D01*
X0373166D02*
X0373833Y0351500D01*
X0375832D02*
X0374499D01*
X0375832Y0352833D01*
Y0353166D01*
X0375499Y0353499D01*
X0374833D01*
X0374499Y0353166D01*
X0377832Y0351500D02*
X0376499D01*
X0377832Y0352833D01*
Y0353166D01*
X0377498Y0353499D01*
X0376832D01*
X0376499Y0353166D01*
X0379833Y0358666D02*
X0379500Y0358999D01*
X0378833D01*
X0378500Y0358666D01*
Y0357333D01*
X0378833Y0357000D01*
X0379500D01*
X0379833Y0357333D01*
X0380499Y0358666D02*
X0380833Y0358999D01*
X0381499D01*
X0381832Y0358666D01*
Y0358333D01*
X0381499Y0358000D01*
X0381832Y0357666D01*
Y0357333D01*
X0381499Y0357000D01*
X0380833D01*
X0380499Y0357333D01*
Y0357666D01*
X0380833Y0358000D01*
X0380499Y0358333D01*
Y0358666D01*
X0380833Y0358000D02*
X0381499D01*
X0383832Y0357000D02*
X0382499D01*
X0383832Y0358333D01*
Y0358666D01*
X0383498Y0358999D01*
X0382832D01*
X0382499Y0358666D01*
X0369334Y0353333D02*
X0369001Y0353000D01*
Y0352333D01*
X0369334Y0352000D01*
X0370667D01*
X0371000Y0352333D01*
Y0353000D01*
X0370667Y0353333D01*
X0369334Y0353999D02*
X0369001Y0354333D01*
Y0354999D01*
X0369334Y0355332D01*
X0369667D01*
X0370000Y0354999D01*
X0370334Y0355332D01*
X0370667D01*
X0371000Y0354999D01*
Y0354333D01*
X0370667Y0353999D01*
X0370334D01*
X0370000Y0354333D01*
X0369667Y0353999D01*
X0369334D01*
X0370000Y0354333D02*
Y0354999D01*
X0371000Y0356998D02*
X0369001D01*
X0370000Y0355999D01*
Y0357332D01*
X0365834Y0353833D02*
X0365501Y0353500D01*
Y0352833D01*
X0365834Y0352500D01*
X0367167D01*
X0367500Y0352833D01*
Y0353500D01*
X0367167Y0353833D01*
X0365834Y0354499D02*
X0365501Y0354833D01*
Y0355499D01*
X0365834Y0355832D01*
X0366167D01*
X0366500Y0355499D01*
X0366834Y0355832D01*
X0367167D01*
X0367500Y0355499D01*
Y0354833D01*
X0367167Y0354499D01*
X0366834D01*
X0366500Y0354833D01*
X0366167Y0354499D01*
X0365834D01*
X0366500Y0354833D02*
Y0355499D01*
X0367500Y0356499D02*
Y0357165D01*
Y0356832D01*
X0365501D01*
X0365834Y0356499D01*
X0364000Y0352000D02*
X0362001D01*
Y0353000D01*
X0362334Y0353333D01*
X0363000D01*
X0363334Y0353000D01*
Y0352000D01*
Y0352666D02*
X0364000Y0353333D01*
Y0355332D02*
Y0353999D01*
X0362667Y0355332D01*
X0362334D01*
X0362001Y0354999D01*
Y0354333D01*
X0362334Y0353999D01*
X0363667Y0355999D02*
X0364000Y0356332D01*
Y0356998D01*
X0363667Y0357332D01*
X0362334D01*
X0362001Y0356998D01*
Y0356332D01*
X0362334Y0355999D01*
X0362667D01*
X0363000Y0356332D01*
Y0357332D01*
X0349500Y0416499D02*
Y0414500D01*
X0350500D01*
X0350833Y0414833D01*
Y0416166D01*
X0350500Y0416499D01*
X0349500D01*
X0351499Y0414500D02*
X0352166D01*
X0351833D01*
Y0416499D01*
X0351499Y0416166D01*
X0353166D02*
X0353499Y0416499D01*
X0354165D01*
X0354498Y0416166D01*
Y0415833D01*
X0354165Y0415500D01*
X0353832D01*
X0354165D01*
X0354498Y0415166D01*
Y0414833D01*
X0354165Y0414500D01*
X0353499D01*
X0353166Y0414833D01*
X0339000Y0408000D02*
X0337001D01*
Y0409000D01*
X0337334Y0409333D01*
X0338000D01*
X0338334Y0409000D01*
Y0408000D01*
Y0408666D02*
X0339000Y0409333D01*
Y0409999D02*
Y0410666D01*
Y0410333D01*
X0337001D01*
X0337334Y0409999D01*
X0338667Y0411665D02*
X0339000Y0411999D01*
Y0412665D01*
X0338667Y0412998D01*
X0337334D01*
X0337001Y0412665D01*
Y0411999D01*
X0337334Y0411665D01*
X0337667D01*
X0338000Y0411999D01*
Y0412998D01*
X0378500Y0405000D02*
X0376501D01*
Y0406000D01*
X0376834Y0406333D01*
X0377500D01*
X0377834Y0406000D01*
Y0405000D01*
Y0405666D02*
X0378500Y0406333D01*
X0376834Y0406999D02*
X0376501Y0407333D01*
Y0407999D01*
X0376834Y0408332D01*
X0377167D01*
X0377500Y0407999D01*
Y0407666D01*
Y0407999D01*
X0377834Y0408332D01*
X0378167D01*
X0378500Y0407999D01*
Y0407333D01*
X0378167Y0406999D01*
X0376834Y0408999D02*
X0376501Y0409332D01*
Y0409998D01*
X0376834Y0410332D01*
X0378167D01*
X0378500Y0409998D01*
Y0409332D01*
X0378167Y0408999D01*
X0376834D01*
X0372000Y0414000D02*
X0370001D01*
Y0415000D01*
X0370334Y0415333D01*
X0371000D01*
X0371334Y0415000D01*
Y0414000D01*
Y0414666D02*
X0372000Y0415333D01*
Y0417332D02*
Y0415999D01*
X0370667Y0417332D01*
X0370334D01*
X0370001Y0416999D01*
Y0416333D01*
X0370334Y0415999D01*
Y0417999D02*
X0370001Y0418332D01*
Y0418998D01*
X0370334Y0419332D01*
X0371667D01*
X0372000Y0418998D01*
Y0418332D01*
X0371667Y0417999D01*
X0370334D01*
X0368000Y0414000D02*
X0366001D01*
Y0415000D01*
X0366334Y0415333D01*
X0367000D01*
X0367334Y0415000D01*
Y0414000D01*
Y0414666D02*
X0368000Y0415333D01*
Y0417332D02*
Y0415999D01*
X0366667Y0417332D01*
X0366334D01*
X0366001Y0416999D01*
Y0416333D01*
X0366334Y0415999D01*
X0368000Y0417999D02*
Y0418665D01*
Y0418332D01*
X0366001D01*
X0366334Y0417999D01*
X0362334Y0415333D02*
X0362001Y0415000D01*
Y0414333D01*
X0362334Y0414000D01*
X0363667D01*
X0364000Y0414333D01*
Y0415000D01*
X0363667Y0415333D01*
X0362001Y0415999D02*
Y0417332D01*
X0362334D01*
X0363667Y0415999D01*
X0364000D01*
X0363667Y0417999D02*
X0364000Y0418332D01*
Y0418998D01*
X0363667Y0419332D01*
X0362334D01*
X0362001Y0418998D01*
Y0418332D01*
X0362334Y0417999D01*
X0362667D01*
X0363000Y0418332D01*
Y0419332D01*
X0317764Y0376121D02*
X0317293D01*
X0316822Y0375649D01*
X0316822Y0375178D01*
X0317764Y0374236D01*
X0318236D01*
X0318707Y0374707D01*
X0318707Y0375178D01*
X0320121Y0376121D02*
X0318707Y0377534D01*
X0318707Y0376121D01*
X0319649Y0377063D01*
X0321534Y0377534D02*
X0320121Y0378948D01*
Y0377534D01*
X0321063Y0378477D01*
X0322477Y0378006D02*
X0323419Y0378948D01*
X0323655Y0379655D02*
X0324126Y0380126D01*
X0323891Y0379891D01*
X0322477Y0381304D01*
X0322477Y0380833D01*
X0336500Y0395000D02*
Y0396999D01*
X0337500D01*
X0337833Y0396666D01*
Y0396000D01*
X0337500Y0395666D01*
X0336500D01*
X0337166D02*
X0337833Y0395000D01*
X0338499Y0396666D02*
X0338833Y0396999D01*
X0339499D01*
X0339832Y0396666D01*
Y0396333D01*
X0339499Y0396000D01*
X0339166D01*
X0339499D01*
X0339832Y0395666D01*
Y0395333D01*
X0339499Y0395000D01*
X0338833D01*
X0338499Y0395333D01*
X0340499Y0396666D02*
X0340832Y0396999D01*
X0341498D01*
X0341832Y0396666D01*
Y0396333D01*
X0341498Y0396000D01*
X0341832Y0395666D01*
Y0395333D01*
X0341498Y0395000D01*
X0340832D01*
X0340499Y0395333D01*
Y0395666D01*
X0340832Y0396000D01*
X0340499Y0396333D01*
Y0396666D01*
X0340832Y0396000D02*
X0341498D01*
X0336500Y0391500D02*
Y0393499D01*
X0337500D01*
X0337833Y0393166D01*
Y0392500D01*
X0337500Y0392166D01*
X0336500D01*
X0337166D02*
X0337833Y0391500D01*
X0338499Y0393166D02*
X0338833Y0393499D01*
X0339499D01*
X0339832Y0393166D01*
Y0392833D01*
X0339499Y0392500D01*
X0339166D01*
X0339499D01*
X0339832Y0392166D01*
Y0391833D01*
X0339499Y0391500D01*
X0338833D01*
X0338499Y0391833D01*
X0340499D02*
X0340832Y0391500D01*
X0341498D01*
X0341832Y0391833D01*
Y0393166D01*
X0341498Y0393499D01*
X0340832D01*
X0340499Y0393166D01*
Y0392833D01*
X0340832Y0392500D01*
X0341832D01*
X0336500Y0388000D02*
Y0389999D01*
X0337500D01*
X0337833Y0389666D01*
Y0389000D01*
X0337500Y0388666D01*
X0336500D01*
X0337166D02*
X0337833Y0388000D01*
X0339499D02*
Y0389999D01*
X0338499Y0389000D01*
X0339832D01*
X0340499Y0389666D02*
X0340832Y0389999D01*
X0341498D01*
X0341832Y0389666D01*
Y0389333D01*
X0341498Y0389000D01*
X0341165D01*
X0341498D01*
X0341832Y0388666D01*
Y0388333D01*
X0341498Y0388000D01*
X0340832D01*
X0340499Y0388333D01*
X0336500Y0384500D02*
Y0386499D01*
X0337500D01*
X0337833Y0386166D01*
Y0385500D01*
X0337500Y0385166D01*
X0336500D01*
X0337166D02*
X0337833Y0384500D01*
X0339499D02*
Y0386499D01*
X0338499Y0385500D01*
X0339832D01*
X0341832Y0384500D02*
X0340499D01*
X0341832Y0385833D01*
Y0386166D01*
X0341498Y0386499D01*
X0340832D01*
X0340499Y0386166D01*
X0337500Y0381000D02*
Y0382999D01*
X0338500D01*
X0338833Y0382666D01*
Y0382000D01*
X0338500Y0381666D01*
X0337500D01*
X0338166D02*
X0338833Y0381000D01*
X0340499D02*
Y0382999D01*
X0339499Y0382000D01*
X0340832D01*
X0341499Y0381000D02*
X0342165D01*
X0341832D01*
Y0382999D01*
X0341499Y0382666D01*
X0372500Y0399000D02*
X0370501D01*
Y0400000D01*
X0370834Y0400333D01*
X0371500D01*
X0371834Y0400000D01*
Y0399000D01*
Y0399666D02*
X0372500Y0400333D01*
Y0402332D02*
Y0400999D01*
X0371167Y0402332D01*
X0370834D01*
X0370501Y0401999D01*
Y0401333D01*
X0370834Y0400999D01*
X0370501Y0404332D02*
X0370834Y0403665D01*
X0371500Y0402999D01*
X0372167D01*
X0372500Y0403332D01*
Y0403998D01*
X0372167Y0404332D01*
X0371834D01*
X0371500Y0403998D01*
Y0402999D01*
X0363500Y0399000D02*
X0361501D01*
Y0400000D01*
X0361834Y0400333D01*
X0362500D01*
X0362834Y0400000D01*
Y0399000D01*
Y0399666D02*
X0363500Y0400333D01*
X0361834Y0400999D02*
X0361501Y0401333D01*
Y0401999D01*
X0361834Y0402332D01*
X0362167D01*
X0362500Y0401999D01*
Y0401666D01*
Y0401999D01*
X0362834Y0402332D01*
X0363167D01*
X0363500Y0401999D01*
Y0401333D01*
X0363167Y0400999D01*
X0363500Y0404332D02*
Y0402999D01*
X0362167Y0404332D01*
X0361834D01*
X0361501Y0403998D01*
Y0403332D01*
X0361834Y0402999D01*
X0346000Y0399500D02*
X0344001D01*
Y0400500D01*
X0344334Y0400833D01*
X0345000D01*
X0345334Y0400500D01*
Y0399500D01*
Y0400166D02*
X0346000Y0400833D01*
Y0402499D02*
X0344001D01*
X0345000Y0401499D01*
Y0402832D01*
X0344334Y0403499D02*
X0344001Y0403832D01*
Y0404498D01*
X0344334Y0404832D01*
X0345667D01*
X0346000Y0404498D01*
Y0403832D01*
X0345667Y0403499D01*
X0344334D01*
X0385334Y0419833D02*
X0385001Y0419500D01*
Y0418833D01*
X0385334Y0418500D01*
X0386667D01*
X0387000Y0418833D01*
Y0419500D01*
X0386667Y0419833D01*
X0385001Y0421499D02*
Y0420833D01*
X0385334Y0420499D01*
X0386667D01*
X0387000Y0420833D01*
Y0421499D01*
X0386667Y0421832D01*
X0385334D01*
X0385001Y0421499D01*
Y0422499D02*
Y0423165D01*
Y0422832D01*
X0387000D01*
Y0422499D01*
Y0423165D01*
X0385001Y0424165D02*
X0387000D01*
Y0425498D01*
X0359500Y0345000D02*
X0357501D01*
Y0346000D01*
X0357834Y0346333D01*
X0358500D01*
X0358834Y0346000D01*
Y0345000D01*
Y0345666D02*
X0359500Y0346333D01*
X0357834Y0346999D02*
X0357501Y0347333D01*
Y0347999D01*
X0357834Y0348332D01*
X0358167D01*
X0358500Y0347999D01*
Y0347666D01*
Y0347999D01*
X0358834Y0348332D01*
X0359167D01*
X0359500Y0347999D01*
Y0347333D01*
X0359167Y0346999D01*
X0357501Y0348999D02*
Y0350332D01*
X0357834D01*
X0359167Y0348999D01*
X0359500D01*
Y0352500D02*
X0357501D01*
Y0353500D01*
X0357834Y0353833D01*
X0358500D01*
X0358834Y0353500D01*
Y0352500D01*
Y0353166D02*
X0359500Y0353833D01*
Y0354499D02*
Y0355166D01*
Y0354833D01*
X0357501D01*
X0357834Y0354499D01*
X0359500Y0357498D02*
Y0356166D01*
X0358167Y0357498D01*
X0357834D01*
X0357501Y0357165D01*
Y0356499D01*
X0357834Y0356166D01*
X0358000Y0333500D02*
Y0335499D01*
X0359000D01*
X0359333Y0335166D01*
Y0334500D01*
X0359000Y0334166D01*
X0358000D01*
X0358666D02*
X0359333Y0333500D01*
X0359999D02*
X0360666D01*
X0360333D01*
Y0335499D01*
X0359999Y0335166D01*
X0361666Y0333500D02*
X0362332D01*
X0361999D01*
Y0335499D01*
X0361666Y0335166D01*
X0363501Y0319000D02*
X0365500D01*
Y0320333D01*
Y0321999D02*
X0363501D01*
X0364500Y0320999D01*
Y0322332D01*
X0382001Y0326500D02*
X0383667D01*
X0384000Y0326833D01*
Y0327500D01*
X0383667Y0327833D01*
X0382001D01*
X0384000Y0328499D02*
Y0329166D01*
Y0328833D01*
X0382001D01*
X0382334Y0328499D01*
Y0330166D02*
X0382001Y0330499D01*
Y0331165D01*
X0382334Y0331498D01*
X0383667D01*
X0384000Y0331165D01*
Y0330499D01*
X0383667Y0330166D01*
X0382334D01*
X0371000Y0345499D02*
Y0343500D01*
X0372333D01*
X0374332Y0345499D02*
X0372999D01*
Y0344500D01*
X0373666Y0344833D01*
X0373999D01*
X0374332Y0344500D01*
Y0343833D01*
X0373999Y0343500D01*
X0373333D01*
X0372999Y0343833D01*
X0364834Y0334333D02*
X0364501Y0334000D01*
Y0333333D01*
X0364834Y0333000D01*
X0366167D01*
X0366500Y0333333D01*
Y0334000D01*
X0366167Y0334333D01*
X0364501Y0336332D02*
X0364834Y0335666D01*
X0365500Y0334999D01*
X0366167D01*
X0366500Y0335333D01*
Y0335999D01*
X0366167Y0336332D01*
X0365834D01*
X0365500Y0335999D01*
Y0334999D01*
X0366500Y0337998D02*
X0364501D01*
X0365500Y0336999D01*
Y0338332D01*
X0364834Y0327333D02*
X0364501Y0327000D01*
Y0326333D01*
X0364834Y0326000D01*
X0366167D01*
X0366500Y0326333D01*
Y0327000D01*
X0366167Y0327333D01*
X0364501Y0329332D02*
X0364834Y0328666D01*
X0365500Y0327999D01*
X0366167D01*
X0366500Y0328333D01*
Y0328999D01*
X0366167Y0329332D01*
X0365834D01*
X0365500Y0328999D01*
Y0327999D01*
X0364834Y0329999D02*
X0364501Y0330332D01*
Y0330998D01*
X0364834Y0331332D01*
X0365167D01*
X0365500Y0330998D01*
Y0330665D01*
Y0330998D01*
X0365834Y0331332D01*
X0366167D01*
X0366500Y0330998D01*
Y0330332D01*
X0366167Y0329999D01*
X0377000Y0307499D02*
Y0305500D01*
X0378000D01*
X0378333Y0305833D01*
Y0307166D01*
X0378000Y0307499D01*
X0377000D01*
X0378999Y0305500D02*
X0379666D01*
X0379333D01*
Y0307499D01*
X0378999Y0307166D01*
X0380665Y0305500D02*
X0381332D01*
X0380999D01*
Y0307499D01*
X0380665Y0307166D01*
X0368000Y0307499D02*
Y0305500D01*
X0369000D01*
X0369333Y0305833D01*
Y0307166D01*
X0369000Y0307499D01*
X0368000D01*
X0369999Y0305500D02*
X0370666D01*
X0370333D01*
Y0307499D01*
X0369999Y0307166D01*
X0371666D02*
X0371999Y0307499D01*
X0372665D01*
X0372998Y0307166D01*
Y0305833D01*
X0372665Y0305500D01*
X0371999D01*
X0371666Y0305833D01*
Y0307166D01*
X0344834Y0308333D02*
X0344501Y0308000D01*
Y0307333D01*
X0344834Y0307000D01*
X0346167D01*
X0346500Y0307333D01*
Y0308000D01*
X0346167Y0308333D01*
X0344501Y0310332D02*
X0344834Y0309666D01*
X0345500Y0308999D01*
X0346167D01*
X0346500Y0309333D01*
Y0309999D01*
X0346167Y0310332D01*
X0345834D01*
X0345500Y0309999D01*
Y0308999D01*
X0346500Y0310999D02*
Y0311665D01*
Y0311332D01*
X0344501D01*
X0344834Y0310999D01*
X0351000Y0297999D02*
Y0296000D01*
X0352000D01*
X0352333Y0296333D01*
Y0297666D01*
X0352000Y0297999D01*
X0351000D01*
X0352999Y0296333D02*
X0353333Y0296000D01*
X0353999D01*
X0354332Y0296333D01*
Y0297666D01*
X0353999Y0297999D01*
X0353333D01*
X0352999Y0297666D01*
Y0297333D01*
X0353333Y0297000D01*
X0354332D01*
X0335334Y0330333D02*
X0335001Y0330000D01*
Y0329333D01*
X0335334Y0329000D01*
X0336667D01*
X0337000Y0329333D01*
Y0330000D01*
X0336667Y0330333D01*
X0335001Y0332332D02*
X0335334Y0331666D01*
X0336000Y0330999D01*
X0336667D01*
X0337000Y0331333D01*
Y0331999D01*
X0336667Y0332332D01*
X0336334D01*
X0336000Y0331999D01*
Y0330999D01*
X0335334Y0332999D02*
X0335001Y0333332D01*
Y0333998D01*
X0335334Y0334332D01*
X0336667D01*
X0337000Y0333998D01*
Y0333332D01*
X0336667Y0332999D01*
X0335334D01*
X0335833Y0311166D02*
X0335500Y0311499D01*
X0334833D01*
X0334500Y0311166D01*
Y0309833D01*
X0334833Y0309500D01*
X0335500D01*
X0335833Y0309833D01*
X0337832Y0311499D02*
X0336499D01*
Y0310500D01*
X0337166Y0310833D01*
X0337499D01*
X0337832Y0310500D01*
Y0309833D01*
X0337499Y0309500D01*
X0336833D01*
X0336499Y0309833D01*
X0338499D02*
X0338832Y0309500D01*
X0339498D01*
X0339832Y0309833D01*
Y0311166D01*
X0339498Y0311499D01*
X0338832D01*
X0338499Y0311166D01*
Y0310833D01*
X0338832Y0310500D01*
X0339832D01*
X0343833Y0341166D02*
X0343500Y0341499D01*
X0342833D01*
X0342500Y0341166D01*
Y0339833D01*
X0342833Y0339500D01*
X0343500D01*
X0343833Y0339833D01*
X0345832Y0341499D02*
X0345166Y0341166D01*
X0344499Y0340500D01*
Y0339833D01*
X0344833Y0339500D01*
X0345499D01*
X0345832Y0339833D01*
Y0340166D01*
X0345499Y0340500D01*
X0344499D01*
X0347832Y0339500D02*
X0346499D01*
X0347832Y0340833D01*
Y0341166D01*
X0347498Y0341499D01*
X0346832D01*
X0346499Y0341166D01*
X0352000Y0337499D02*
Y0335833D01*
X0352333Y0335500D01*
X0353000D01*
X0353333Y0335833D01*
Y0337499D01*
X0353999Y0335833D02*
X0354333Y0335500D01*
X0354999D01*
X0355332Y0335833D01*
Y0337166D01*
X0354999Y0337499D01*
X0354333D01*
X0353999Y0337166D01*
Y0336833D01*
X0354333Y0336500D01*
X0355332D01*
X0335000Y0354000D02*
Y0355999D01*
X0336000D01*
X0336333Y0355666D01*
Y0355000D01*
X0336000Y0354666D01*
X0335000D01*
X0336999Y0355999D02*
Y0354000D01*
X0337666Y0354666D01*
X0338332Y0354000D01*
Y0355999D01*
X0338999Y0354000D02*
Y0355999D01*
X0339998D01*
X0340332Y0355666D01*
Y0355000D01*
X0339998Y0354666D01*
X0338999D01*
X0339665D02*
X0340332Y0354000D01*
X0333000Y0348499D02*
Y0346500D01*
X0333666Y0347166D01*
X0334333Y0346500D01*
Y0348499D01*
X0334999Y0346500D02*
Y0348499D01*
X0335999D01*
X0336332Y0348166D01*
Y0347500D01*
X0335999Y0347166D01*
X0334999D01*
X0335666D02*
X0336332Y0346500D01*
X0336999Y0348499D02*
Y0346500D01*
X0338332D01*
X0340331Y0348166D02*
X0339998Y0348499D01*
X0339331D01*
X0338998Y0348166D01*
Y0347833D01*
X0339331Y0347500D01*
X0339998D01*
X0340331Y0347166D01*
Y0346833D01*
X0339998Y0346500D01*
X0339331D01*
X0338998Y0346833D01*
D78*
X0382500Y0382000D02*
X0381500D01*
Y0382500D01*
X0381667Y0382666D01*
X0382000D01*
X0382167Y0382500D01*
Y0382000D01*
Y0382333D02*
X0382500Y0382666D01*
Y0383500D02*
X0381500D01*
X0382000Y0383000D01*
Y0383666D01*
X0382500Y0384499D02*
X0381500D01*
X0382000Y0383999D01*
Y0384666D01*
X0382500Y0386000D02*
X0381500D01*
Y0386500D01*
X0381667Y0386666D01*
X0382000D01*
X0382167Y0386500D01*
Y0386000D01*
Y0386333D02*
X0382500Y0386666D01*
X0381667Y0387000D02*
X0381500Y0387166D01*
Y0387499D01*
X0381667Y0387666D01*
X0381834D01*
X0382000Y0387499D01*
Y0387333D01*
Y0387499D01*
X0382167Y0387666D01*
X0382333D01*
X0382500Y0387499D01*
Y0387166D01*
X0382333Y0387000D01*
X0381500Y0388666D02*
Y0387999D01*
X0382000D01*
X0381834Y0388333D01*
Y0388499D01*
X0382000Y0388666D01*
X0382333D01*
X0382500Y0388499D01*
Y0388166D01*
X0382333Y0387999D01*
X0382500Y0389500D02*
X0381500D01*
Y0390000D01*
X0381667Y0390166D01*
X0382000D01*
X0382167Y0390000D01*
Y0389500D01*
Y0389833D02*
X0382500Y0390166D01*
X0381667Y0390500D02*
X0381500Y0390666D01*
Y0391000D01*
X0381667Y0391166D01*
X0381834D01*
X0382000Y0391000D01*
Y0390833D01*
Y0391000D01*
X0382167Y0391166D01*
X0382333D01*
X0382500Y0391000D01*
Y0390666D01*
X0382333Y0390500D01*
X0381667Y0391499D02*
X0381500Y0391666D01*
Y0391999D01*
X0381667Y0392166D01*
X0381834D01*
X0382000Y0391999D01*
Y0391833D01*
Y0391999D01*
X0382167Y0392166D01*
X0382333D01*
X0382500Y0391999D01*
Y0391666D01*
X0382333Y0391499D01*
X0397166Y0240833D02*
X0397000Y0241000D01*
X0396667D01*
X0396500Y0240833D01*
Y0240167D01*
X0396667Y0240000D01*
X0397000D01*
X0397166Y0240167D01*
X0397500Y0240833D02*
X0397666Y0241000D01*
X0398000D01*
X0398166Y0240833D01*
Y0240666D01*
X0398000Y0240500D01*
X0397833D01*
X0398000D01*
X0398166Y0240333D01*
Y0240167D01*
X0398000Y0240000D01*
X0397666D01*
X0397500Y0240167D01*
X0398999Y0240000D02*
Y0241000D01*
X0398499Y0240500D01*
X0399166D01*
X0393666Y0240833D02*
X0393500Y0241000D01*
X0393167D01*
X0393000Y0240833D01*
Y0240167D01*
X0393167Y0240000D01*
X0393500D01*
X0393666Y0240167D01*
X0394000Y0240833D02*
X0394166Y0241000D01*
X0394499D01*
X0394666Y0240833D01*
Y0240666D01*
X0394499Y0240500D01*
X0394333D01*
X0394499D01*
X0394666Y0240333D01*
Y0240167D01*
X0394499Y0240000D01*
X0394166D01*
X0394000Y0240167D01*
X0395666Y0240000D02*
X0394999D01*
X0395666Y0240666D01*
Y0240833D01*
X0395499Y0241000D01*
X0395166D01*
X0394999Y0240833D01*
X0390166D02*
X0390000Y0241000D01*
X0389667D01*
X0389500Y0240833D01*
Y0240167D01*
X0389667Y0240000D01*
X0390000D01*
X0390166Y0240167D01*
X0390500Y0240833D02*
X0390666Y0241000D01*
X0391000D01*
X0391166Y0240833D01*
Y0240666D01*
X0391000Y0240500D01*
X0390833D01*
X0391000D01*
X0391166Y0240333D01*
Y0240167D01*
X0391000Y0240000D01*
X0390666D01*
X0390500Y0240167D01*
X0391499Y0240833D02*
X0391666Y0241000D01*
X0391999D01*
X0392166Y0240833D01*
Y0240167D01*
X0391999Y0240000D01*
X0391666D01*
X0391499Y0240167D01*
Y0240833D01*
X0386666D02*
X0386500Y0241000D01*
X0386167D01*
X0386000Y0240833D01*
Y0240167D01*
X0386167Y0240000D01*
X0386500D01*
X0386666Y0240167D01*
X0387499Y0240000D02*
Y0241000D01*
X0387000Y0240500D01*
X0387666D01*
X0387999Y0240833D02*
X0388166Y0241000D01*
X0388499D01*
X0388666Y0240833D01*
Y0240167D01*
X0388499Y0240000D01*
X0388166D01*
X0387999Y0240167D01*
Y0240833D01*
D79*
X0404500Y0398250D02*
X0404250Y0398499D01*
X0403750D01*
X0403500Y0398250D01*
Y0397250D01*
X0403750Y0397000D01*
X0404250D01*
X0404500Y0397250D01*
X0404999Y0398499D02*
X0405999D01*
Y0398250D01*
X0404999Y0397250D01*
Y0397000D01*
X0407499Y0398499D02*
X0406999Y0398250D01*
X0406499Y0397750D01*
Y0397250D01*
X0406749Y0397000D01*
X0407249D01*
X0407499Y0397250D01*
Y0397500D01*
X0407249Y0397750D01*
X0406499D01*
X0404500Y0394250D02*
X0404250Y0394499D01*
X0403750D01*
X0403500Y0394250D01*
Y0393250D01*
X0403750Y0393000D01*
X0404250D01*
X0404500Y0393250D01*
X0404999Y0394499D02*
X0405999D01*
Y0394250D01*
X0404999Y0393250D01*
Y0393000D01*
X0406499Y0394499D02*
X0407499D01*
Y0394250D01*
X0406499Y0393250D01*
Y0393000D01*
X0381500Y0375000D02*
Y0376500D01*
X0382250D01*
X0382500Y0376250D01*
Y0375750D01*
X0382250Y0375500D01*
X0381500D01*
X0382000D02*
X0382500Y0375000D01*
X0383999D02*
X0382999D01*
X0383999Y0376000D01*
Y0376250D01*
X0383749Y0376500D01*
X0383249D01*
X0382999Y0376250D01*
X0385499Y0376500D02*
X0384499D01*
Y0375750D01*
X0384999Y0376000D01*
X0385249D01*
X0385499Y0375750D01*
Y0375250D01*
X0385249Y0375000D01*
X0384749D01*
X0384499Y0375250D01*
X0405000Y0403250D02*
X0404750Y0403500D01*
X0404250D01*
X0404000Y0403250D01*
Y0402250D01*
X0404250Y0402000D01*
X0404750D01*
X0405000Y0402250D01*
X0405500Y0403500D02*
X0406499D01*
Y0403250D01*
X0405500Y0402250D01*
Y0402000D01*
X0406999D02*
X0407499D01*
X0407249D01*
Y0403500D01*
X0406999Y0403250D01*
X0379500Y0253250D02*
X0379250Y0253500D01*
X0378750D01*
X0378500Y0253250D01*
Y0252250D01*
X0378750Y0252000D01*
X0379250D01*
X0379500Y0252250D01*
X0380999Y0252000D02*
X0379999D01*
X0380999Y0253000D01*
Y0253250D01*
X0380749Y0253500D01*
X0380249D01*
X0379999Y0253250D01*
X0381499Y0252250D02*
X0381749Y0252000D01*
X0382249D01*
X0382499Y0252250D01*
Y0253250D01*
X0382249Y0253500D01*
X0381749D01*
X0381499Y0253250D01*
Y0253000D01*
X0381749Y0252750D01*
X0382499D01*
X0374500Y0253250D02*
X0374250Y0253500D01*
X0373750D01*
X0373500Y0253250D01*
Y0252250D01*
X0373750Y0252000D01*
X0374250D01*
X0374500Y0252250D01*
X0375999Y0252000D02*
X0374999D01*
X0375999Y0253000D01*
Y0253250D01*
X0375749Y0253500D01*
X0375249D01*
X0374999Y0253250D01*
X0376499D02*
X0376749Y0253500D01*
X0377249D01*
X0377499Y0253250D01*
Y0253000D01*
X0377249Y0252750D01*
X0377499Y0252500D01*
Y0252250D01*
X0377249Y0252000D01*
X0376749D01*
X0376499Y0252250D01*
Y0252500D01*
X0376749Y0252750D01*
X0376499Y0253000D01*
Y0253250D01*
X0376749Y0252750D02*
X0377249D01*
X0374000Y0365250D02*
X0373750Y0365499D01*
X0373250D01*
X0373000Y0365250D01*
Y0364250D01*
X0373250Y0364000D01*
X0373750D01*
X0374000Y0364250D01*
X0374500Y0365250D02*
X0374749Y0365499D01*
X0375249D01*
X0375499Y0365250D01*
Y0365000D01*
X0375249Y0364750D01*
X0375499Y0364500D01*
Y0364250D01*
X0375249Y0364000D01*
X0374749D01*
X0374500Y0364250D01*
Y0364500D01*
X0374749Y0364750D01*
X0374500Y0365000D01*
Y0365250D01*
X0374749Y0364750D02*
X0375249D01*
X0376999Y0365499D02*
X0375999D01*
Y0364750D01*
X0376499Y0365000D01*
X0376749D01*
X0376999Y0364750D01*
Y0364250D01*
X0376749Y0364000D01*
X0376249D01*
X0375999Y0364250D01*
X0349000Y0405000D02*
Y0406499D01*
X0349750D01*
X0350000Y0406250D01*
Y0405750D01*
X0349750Y0405500D01*
X0349000D01*
X0349500D02*
X0350000Y0405000D01*
X0350500Y0406250D02*
X0350749Y0406499D01*
X0351249D01*
X0351499Y0406250D01*
Y0406000D01*
X0351249Y0405750D01*
X0350999D01*
X0351249D01*
X0351499Y0405500D01*
Y0405250D01*
X0351249Y0405000D01*
X0350749D01*
X0350500Y0405250D01*
X0352999Y0406499D02*
X0352499Y0406250D01*
X0351999Y0405750D01*
Y0405250D01*
X0352249Y0405000D01*
X0352749D01*
X0352999Y0405250D01*
Y0405500D01*
X0352749Y0405750D01*
X0351999D01*
X0354000Y0405000D02*
Y0406499D01*
X0354750D01*
X0355000Y0406250D01*
Y0405750D01*
X0354750Y0405500D01*
X0354000D01*
X0354500D02*
X0355000Y0405000D01*
X0355500Y0406250D02*
X0355749Y0406499D01*
X0356249D01*
X0356499Y0406250D01*
Y0406000D01*
X0356249Y0405750D01*
X0355999D01*
X0356249D01*
X0356499Y0405500D01*
Y0405250D01*
X0356249Y0405000D01*
X0355749D01*
X0355500Y0405250D01*
X0356999Y0405000D02*
X0357499D01*
X0357249D01*
Y0406499D01*
X0356999Y0406250D01*
M02*
