M48
;Layer_Color=9474304
;FILE_FORMAT=2:4
INCH
;TYPE=PLATED
T1F00S00C0.0100
T2F00S00C0.0800
T3F00S00C0.1220
%
T01
X047278Y022237
X047070Y022820
X048130Y023880
X048717Y023676
X047277Y025250
X046923
X047750Y028300
X047900Y029100
X049600Y028850
X050000
X051300Y029675
Y030750
X050250Y030738
X046245Y028155
X045750Y027800
X045400
X044900Y028500
X044600
X043477Y028350
X042700Y028287
Y028550
X042250Y029550
X041787Y029543
X040900Y029450
Y029150
X040600
Y029450
X040300
X040000
X039700
X039400
X039100
X038800
X039100Y029150
X039400
X039700
X040000
X040300
X040000Y029800
X039650Y028411
X039300
X038950
Y028089
X039150Y027800
X039000Y026900
Y026300
X039600
X039300Y026000
X039000Y025700
X039600
X039900Y026000
X040200Y025700
Y026300
Y026900
X039900Y026600
X039600Y026900
X039300Y026600
X037289Y026700
X036600
X036600Y025960
X036900Y024689
X037250Y024689
X037800Y023950
Y023650
Y023350
X038150
Y023650
Y023950
X038750Y024289
Y024611
X039800
Y024289
X040500
Y024611
X041200
Y024289
X041050Y023950
Y023650
Y023350
X041400
Y023650
Y023950
X042150Y023599
Y024701
X041511Y025150
Y025525
Y025875
Y026200
X041189Y026050
Y025350
X040700Y025200
X041050Y022750
X041400
X038150
X037800
X037900Y027639
X037515Y027544
X036885Y028056
X036500Y027961
X036400Y029750
X036700
X037000
X037300
Y030050
X037000
X036700
X036400
X036100
Y029750
X035800
Y030050
Y030350
X036100
X036400
X036700
X037000
X037300
X037900Y029750
X038600Y028411
X035450Y029450
X035150
X034850
X034550
Y029750
Y030050
X034850
Y029750
X035150
X035450
Y030050
X035150
Y030350
X034850
X034500
X035450
X034050Y025800
X032486Y024464
X032714Y024236
X032817Y023124
X032130Y022820
X031926Y022233
X031378Y024563
X043289Y025450
X043611
X043900Y026100
X044392
Y026966
X043408
X042916
Y026100
X045350Y025400
X046250Y026400
X046714Y024464
X046486Y024236
X046387Y023128
X044150Y029550
X044142Y030070
X043200Y030150
Y029550
X029600
Y029250
Y028950
X029300
X029000
X028700
Y029250
X029000
X029300
Y029550
X029000
X028700
Y028650
X029000
X029300
X029600
X031070Y023880
Y038820
X030483Y039024
X032130Y039880
X031922Y040463
X033300Y040500
X032813Y039572
X032714Y038464
X032486Y038236
X032850Y036700
X034350Y037300
X034750Y037850
X034373Y038550
Y039600
X034727Y039250
X034800Y039973
X035150Y040327
X035750Y040300
X036850Y040327
X036700Y040873
X036300Y040889
X036450Y039797
X036550Y038850
X035850
X036200Y038500
X036900
X037250Y038850
Y038150
X036900Y037800
X036200
X035850Y038150
Y037450
X036550
X037250
X038177Y037671
X038723Y037600
X038730Y037880
X038500Y038050
X038777Y038350
Y038700
Y039050
X038761Y039400
X038777Y039750
X038000Y039600
X037738Y040327
X037454Y040496
X038200Y041250
X041300Y041200
X041600
X041900
Y041500
X041600
X041300
Y041800
X041600
X041900
Y042100
X041600
X041300
Y040900
X041600
X041900
Y040600
Y040300
Y040000
X041600
X041300
Y040300
X041600
Y040600
X041300
X040939Y040300
X041300Y039400
X041600
X041900
Y039100
Y038800
Y038500
Y038200
X041600
X041300
Y038500
X041600
Y038800
X041300
Y039100
X041600
X042250Y038800
Y038500
X042550
X042850
X043150
Y038800
X042850
X042550
Y038200
X042850
X043150
Y037900
X042850
X042550
X042250
Y038200
Y037600
X042550
X042850
Y037150
Y036850
X043150
Y036550
X042850
X042550
X042250
X041950
Y036850
X042250
X042550
Y037150
X042250
X041950
X041600
Y037450
X041300
X041000
Y037150
Y036850
Y036550
X041300
Y036850
Y037150
X041600Y036850
Y036550
X039900Y036050
Y037189
X039077Y037200
X038500Y037350
X038200Y037050
X038350Y036089
X038000
X037661Y036250
Y035900
X037677Y035550
X037450Y034650
Y034350
X037150
Y034650
X036850
X036550
Y034350
Y034050
Y033750
X036850
Y034050
Y034350
X037150Y034050
Y033750
X037450
Y034025
Y033100
X037150
X036850
Y033400
X036177Y033150
X035098Y032995
Y032602
X034704
Y032995
X034901Y032798
X035100Y033750
X033900
Y033350
X034400Y035150
X035550Y035323
Y034927
X036650Y035939
Y036261
X037000
X036550Y038150
X039900Y038277
X040400Y038150
X042248Y039748
X042250Y040250
X042550
X042850
X043150
Y040550
X042850
X042550
Y040850
X042250
Y040550
Y041150
Y041450
X042550
X042850
X043150
Y041150
Y040850
X042850
Y041150
X042550
X042248Y042398
X040939Y042950
X044700Y039700
X046383Y039576
X046486Y038464
X046714Y038236
X046300Y037139
Y036250
X046807
Y035213
X045193
X044661Y036200
X044323Y036550
X045350Y037100
X045655Y033892
X044000Y033961
Y033639
X043650
Y033961
X042689Y033750
X041185Y033275
X038050Y033100
X037750
X048389Y033250
X048711Y033100
X051300Y032830
Y031750
X047250Y034727
X047822Y038137
X048130Y038820
X047070Y039880
X047274Y040467
T02
X029150Y031350
X030950
T03
X049200Y026450
X030000
Y036250
X049200
M30
