M48
;Layer_Color=9474304
;FILE_FORMAT=2:4
INCH
;TYPE=PLATED
T1F00S00C0.0100
T2F00S00C0.0400
T3F00S00C0.0450
%
T01
X054664Y017831
X055026Y017479
X055204Y018283
X055483Y018004
X055764Y018386
X055536Y018614
X047100Y028750
Y029100
X047050Y029600
Y030000
X047250Y029800
X047200Y031125
X046550Y031100
X046300Y030750
X046100Y030550
X045900Y030350
X046300
X046500Y030550
X046650Y030000
X046850Y029800
Y030200
X046100Y030150
X045800Y030950
X045300Y030850
X044950Y030750
X044700Y030500
X044450
X044596Y030990
X044050Y030900
X043613Y030487
X043500Y030000
X043100Y029300
X042850Y029550
X042350Y029200
X042311Y028550
Y028175
X041989Y028000
X041500Y027900
X040900Y028450
X040300
X040600Y028750
Y029350
X040000
X039700Y029650
X040300
X040900
Y029050
X040300
X039700
Y028450
X040000Y028750
X040300Y027800
Y027550
X039500Y027500
X039400Y026939
X039050Y026600
X038900Y026350
X038275Y026575
X038184Y027323
X037830Y027677
X037939Y028200
X037477Y028030
X036900Y027950
Y027450
X035800Y027600
X035600Y027800
X035200Y028150
X035000Y027950
X034798Y028152
X035250Y029000
X035450Y028800
X036100Y029050
X036300Y029250
X036091Y029460
X035800Y029550
X035600Y029750
X034750Y030100
X034550Y030300
X034350Y030500
X034150Y030700
Y030300
X033950Y030500
X033850Y030000
X033650Y030200
X033450Y030000
X033650Y029800
X033450Y029600
X033250Y029800
X033500Y029100
Y028750
X036100Y028300
X036500
X036300Y028100
X036700Y028900
X036900Y028700
X037350Y029100
Y029400
X037973Y029550
X038300Y029211
X038600Y029150
X038598Y028532
X038600Y028250
X038900Y027900
X037600Y028861
X037450Y030550
Y030850
X037150
X037850Y031000
X037750Y030550
X038200Y030350
X038500Y030900
X039000Y031011
X039262Y031167
X040430Y031081
X041000Y030900
X041250Y031050
X041500Y031200
X043000Y031089
X043011Y030700
X042689
X042177Y030200
X041800Y029400
X041989Y028700
X043700
X043900Y028900
X044300Y029250
X044500Y029050
Y028300
X044300Y028100
X044100Y028300
X043123Y028030
X045000Y027800
X044800Y027600
X044884Y026977
X045400Y028150
X045800
X045600Y027950
X045350Y029000
X045150Y028800
X045000Y029750
X044800Y029550
X043125Y025775
X042400Y025600
X042564Y026336
X041750Y026350
X041150
X040975Y027139
X040600Y026939
X040000Y026300
X037714Y026014
X037486Y025786
X038100Y025600
X036638Y025488
X036435Y025185
X036193Y024874
X035700Y031000
X035150Y031100
X034550Y031000
X025936Y017831
X025574Y017479
X025117Y018004
X025396Y018283
X025014Y018564
X024786Y018336
X025064Y046786
X033500Y036650
Y036300
X033550Y035800
X033350Y035600
X033550Y035400
X033750Y035200
Y035600
X033950Y035400
X034500Y035250
Y034850
X034300Y034650
Y035050
X034700
X034100Y034850
X034350Y033950
X034600
X034850
Y033700
X034600
Y033450
X034350
X034100
Y033700
X034350
Y033200
X034600
X034850
Y033450
X035450Y033600
Y033950
X035500Y034300
X035250
Y034550
X035500
X035750
X035700Y034950
X035400
X036000
X036300
X036150Y034700
X036250Y035300
X036300Y036150
X036100Y036350
Y037100
X036500
X036300Y037300
X035600Y037600
X035800Y037800
X035716Y038423
X035000Y037450
X034800Y037250
X035200
X035250Y036400
X035450Y036600
X035800Y035850
X035600Y035650
X036900Y036100
X036700Y036500
X036900Y036700
X037750Y037050
X037450Y037400
X038250Y037550
X038550Y037650
X038983Y037754
Y037262
Y038738
X039250Y039200
X038036Y039064
X037475Y039625
X039800Y040250
X040800
X040600Y038250
Y038000
X040000
Y038250
X040500Y037300
X040750Y037000
X041050
X041785Y037065
X042100
X042730
X043000Y036950
X043123Y037370
X042770Y037723
X042416Y038077
X042450Y038800
X041761Y038825
X041761Y038450
X041439
Y038100
X041761Y037599
X041600Y035520
X041250Y035523
X041057Y034453
X040797Y034512
X041350Y034150
Y033700
X041000
X041800Y033950
X042200Y034450
Y034750
X042250Y035161
X042600Y034500
X043700Y034850
Y035200
X043350
X043540Y036210
X043900Y036500
X043700Y036700
X044100Y037100
X044500
X044300Y037300
X045000Y037600
X044800Y037800
X045400Y037250
X045800
X045600Y037450
X045350Y036400
X045150Y036600
X044500Y036350
X044300Y036150
X044100Y035960
X044800Y035850
X045000Y035650
X044433Y035017
X044100Y034700
X043700Y034150
X043750Y032950
X043500
X043250
X043173Y032650
X042900Y032600
X043150Y032050
X043550Y031820
X043981Y031820
X043600Y031300
X044650Y031511
X044600Y032450
X044350
X044850
X044805Y033567
X045082Y033628
X045650Y033850
Y034500
Y034850
X045850Y035300
X046050Y035100
X046450
X046650Y034900
X046450Y034700
X046250Y034900
X046100Y034300
X046400Y033200
Y032700
X046750Y035400
X043100Y033500
X042000Y032614
X041200Y031900
X040887Y031460
X040073Y031670
X040050Y032450
X040550
Y032950
X040050
X040300Y032700
X038900Y032889
Y032223
X039150Y031700
X039600Y031250
X039011Y033800
Y034150
X039950Y034200
X039411Y035400
X039089
X038400
X038489Y033389
X037200Y033800
X036950
Y034050
Y034300
X037200
Y034050
X036700
X036368Y033537
X036050Y033573
X035949Y033304
X035450Y032000
Y031700
X036150Y031300
X036450
Y031550
X036700
X043750Y038400
X043114Y039614
X042886Y039386
X044400Y039793
Y040071
Y040349
X047100Y036650
Y036300
X047150Y035800
X047350Y035600
X046950
X047150Y035400
X046950Y035200
X047200Y034280
Y033200
Y032200
X055586Y046836
X055814Y047064
X055483Y047396
X055204Y047117
X055026Y047921
X054664Y047569
X025936Y047569
X025574Y047921
X025117Y047396
X025400Y047100
X024836Y047014
T02
X039800Y041050
X040800
T03
X033450Y031900
Y033500
M30
