M48
;Layer_Color=9474304
;FILE_FORMAT=2:4
INCH
;TYPE=PLATED
T1F00S00C0.0079
T2F00S00C0.0180
T3F00S00C0.0240
T4F00S00C0.0315
T5F00S00C0.0354
T6F00S00C0.0400
%
T01
X049896Y020509
X050250
X050604
Y020903
X050250
X049896
Y021297
X050250
X050604
Y021691
X050250
X049896
X057509Y028646
Y029000
Y029354
X057903
Y029000
Y028646
X058297
Y029000
Y029354
X058691
Y029000
Y028646
X042991
Y029000
Y029354
X042597
Y029000
Y028646
X042203
Y029000
Y029354
X041809
Y029000
Y028646
X049896Y036259
X050250
X050604
Y036653
X050250
X049896
Y037047
X050250
X050604
Y037441
X050250
X049896
T02
X048700Y019650
X049250Y022300
Y022900
X048650Y025900
X048150Y026950
X048700Y027550
Y027950
X049100Y028650
X049200Y029131
X050250Y029000
X049950Y027600
X050450Y027450
X050850
X051850Y027750
X052350Y026950
X051850Y026100
X052350Y025550
X050250Y026250
X049850
X047550Y024968
X047400Y028900
X047341Y029259
X047500Y030550
X047950Y030750
X046980Y030709
X048750Y030050
X049300Y030300
X050693Y030600
X051400Y030300
X052150Y030750
X053311Y030950
X053900Y030450
X056189Y030373
X056191Y029819
X053300Y028100
X059600Y027450
X046800Y029800
X046791Y030159
X046600Y030550
X044850Y030500
X044350Y030200
Y029450
X044800Y028800
X045650Y029200
X043600Y030200
X040900Y030550
X045000Y031450
X045950Y031750
X047550Y032600
Y033000
X050150Y033150
X050200Y032000
X051300Y033550
X052400Y031450
X053250Y031950
X051850Y038250
T03
X048700Y021050
X050250Y022200
X049800Y023800
X052300Y023950
X053850Y027500
X055600Y028800
X056850Y028850
X058118Y027432
X055300Y030850
X046150Y030650
X043550Y029450
Y028600
X042350Y030550
X048500Y033750
X050250Y034700
Y035750
X051850Y036950
X051950Y032450
X050800Y032197
X053450Y031550
T04
X052850Y026250
X053637
X046506Y032050
X047294
T05
X047650Y026000
T06
X049312Y019355
X050250Y019350
X051200
X059955Y028062
X059950Y029000
Y029950
X040550
Y029000
X040555Y028062
X049312Y038705
X050250Y038700
X051200
M30
