G04 Layer_Color=8388736*
%FSAX24Y24*%
%MOIN*%
G70*
G01*
G75*
G04:AMPARAMS|DCode=62|XSize=29.7mil|YSize=25.7mil|CornerRadius=0mil|HoleSize=0mil|Usage=FLASHONLY|Rotation=45.000|XOffset=0mil|YOffset=0mil|HoleType=Round|Shape=Rectangle|*
%AMROTATEDRECTD62*
4,1,4,-0.0014,-0.0196,-0.0196,-0.0014,0.0014,0.0196,0.0196,0.0014,-0.0014,-0.0196,0.0*
%
%ADD62ROTATEDRECTD62*%

%ADD63P,0.0403X4X270.0*%
%ADD64P,0.0403X4X360.0*%
G04:AMPARAMS|DCode=65|XSize=71mil|YSize=63mil|CornerRadius=0mil|HoleSize=0mil|Usage=FLASHONLY|Rotation=135.000|XOffset=0mil|YOffset=0mil|HoleType=Round|Shape=Rectangle|*
%AMROTATEDRECTD65*
4,1,4,0.0474,-0.0028,0.0028,-0.0474,-0.0474,0.0028,-0.0028,0.0474,0.0474,-0.0028,0.0*
%
%ADD65ROTATEDRECTD65*%

G04:AMPARAMS|DCode=66|XSize=33.6mil|YSize=29.7mil|CornerRadius=0mil|HoleSize=0mil|Usage=FLASHONLY|Rotation=45.000|XOffset=0mil|YOffset=0mil|HoleType=Round|Shape=Rectangle|*
%AMROTATEDRECTD66*
4,1,4,-0.0014,-0.0224,-0.0224,-0.0014,0.0014,0.0224,0.0224,0.0014,-0.0014,-0.0224,0.0*
%
%ADD66ROTATEDRECTD66*%

G04:AMPARAMS|DCode=67|XSize=33.6mil|YSize=29.7mil|CornerRadius=0mil|HoleSize=0mil|Usage=FLASHONLY|Rotation=315.000|XOffset=0mil|YOffset=0mil|HoleType=Round|Shape=Rectangle|*
%AMROTATEDRECTD67*
4,1,4,-0.0224,0.0014,-0.0014,0.0224,0.0224,-0.0014,0.0014,-0.0224,-0.0224,0.0014,0.0*
%
%ADD67ROTATEDRECTD67*%

G04:AMPARAMS|DCode=68|XSize=40mil|YSize=44mil|CornerRadius=0mil|HoleSize=0mil|Usage=FLASHONLY|Rotation=45.000|XOffset=0mil|YOffset=0mil|HoleType=Round|Shape=Rectangle|*
%AMROTATEDRECTD68*
4,1,4,0.0014,-0.0297,-0.0297,0.0014,-0.0014,0.0297,0.0297,-0.0014,0.0014,-0.0297,0.0*
%
%ADD68ROTATEDRECTD68*%

G04:AMPARAMS|DCode=69|XSize=25.7mil|YSize=59.2mil|CornerRadius=0mil|HoleSize=0mil|Usage=FLASHONLY|Rotation=315.000|XOffset=0mil|YOffset=0mil|HoleType=Round|Shape=Round|*
%AMOVALD69*
21,1,0.0335,0.0257,0.0000,0.0000,45.0*
1,1,0.0257,-0.0118,-0.0118*
1,1,0.0257,0.0118,0.0118*
%
%ADD69OVALD69*%

G04:AMPARAMS|DCode=70|XSize=43.4mil|YSize=35.6mil|CornerRadius=0mil|HoleSize=0mil|Usage=FLASHONLY|Rotation=135.000|XOffset=0mil|YOffset=0mil|HoleType=Round|Shape=Rectangle|*
%AMROTATEDRECTD70*
4,1,4,0.0279,-0.0028,0.0028,-0.0279,-0.0279,0.0028,-0.0028,0.0279,0.0279,-0.0028,0.0*
%
%ADD70ROTATEDRECTD70*%

G04:AMPARAMS|DCode=71|XSize=29.7mil|YSize=25.7mil|CornerRadius=0mil|HoleSize=0mil|Usage=FLASHONLY|Rotation=315.000|XOffset=0mil|YOffset=0mil|HoleType=Round|Shape=Rectangle|*
%AMROTATEDRECTD71*
4,1,4,-0.0196,0.0014,-0.0014,0.0196,0.0196,-0.0014,0.0014,-0.0196,-0.0196,0.0014,0.0*
%
%ADD71ROTATEDRECTD71*%

G04:AMPARAMS|DCode=72|XSize=51.3mil|YSize=82.8mil|CornerRadius=0mil|HoleSize=0mil|Usage=FLASHONLY|Rotation=315.000|XOffset=0mil|YOffset=0mil|HoleType=Round|Shape=Rectangle|*
%AMROTATEDRECTD72*
4,1,4,-0.0474,-0.0111,0.0111,0.0474,0.0474,0.0111,-0.0111,-0.0474,-0.0474,-0.0111,0.0*
%
%ADD72ROTATEDRECTD72*%

G04:AMPARAMS|DCode=73|XSize=43.4mil|YSize=47.4mil|CornerRadius=0mil|HoleSize=0mil|Usage=FLASHONLY|Rotation=225.000|XOffset=0mil|YOffset=0mil|HoleType=Round|Shape=Rectangle|*
%AMROTATEDRECTD73*
4,1,4,-0.0014,0.0321,0.0321,-0.0014,0.0014,-0.0321,-0.0321,0.0014,-0.0014,0.0321,0.0*
%
%ADD73ROTATEDRECTD73*%

G04:AMPARAMS|DCode=74|XSize=43.4mil|YSize=47.4mil|CornerRadius=0mil|HoleSize=0mil|Usage=FLASHONLY|Rotation=315.000|XOffset=0mil|YOffset=0mil|HoleType=Round|Shape=Rectangle|*
%AMROTATEDRECTD74*
4,1,4,-0.0321,-0.0014,0.0014,0.0321,0.0321,0.0014,-0.0014,-0.0321,-0.0321,-0.0014,0.0*
%
%ADD74ROTATEDRECTD74*%

G04:AMPARAMS|DCode=75|XSize=56mil|YSize=64mil|CornerRadius=0mil|HoleSize=0mil|Usage=FLASHONLY|Rotation=225.000|XOffset=0mil|YOffset=0mil|HoleType=Round|Shape=Rectangle|*
%AMROTATEDRECTD75*
4,1,4,-0.0028,0.0424,0.0424,-0.0028,0.0028,-0.0424,-0.0424,0.0028,-0.0028,0.0424,0.0*
%
%ADD75ROTATEDRECTD75*%

G04:AMPARAMS|DCode=76|XSize=17.8mil|YSize=26.7mil|CornerRadius=0mil|HoleSize=0mil|Usage=FLASHONLY|Rotation=135.000|XOffset=0mil|YOffset=0mil|HoleType=Round|Shape=Rectangle|*
%AMROTATEDRECTD76*
4,1,4,0.0157,0.0031,-0.0031,-0.0157,-0.0157,-0.0031,0.0031,0.0157,0.0157,0.0031,0.0*
%
%ADD76ROTATEDRECTD76*%

G04:AMPARAMS|DCode=77|XSize=17.8mil|YSize=22.7mil|CornerRadius=0mil|HoleSize=0mil|Usage=FLASHONLY|Rotation=225.000|XOffset=0mil|YOffset=0mil|HoleType=Round|Shape=Rectangle|*
%AMROTATEDRECTD77*
4,1,4,-0.0017,0.0143,0.0143,-0.0017,0.0017,-0.0143,-0.0143,0.0017,-0.0017,0.0143,0.0*
%
%ADD77ROTATEDRECTD77*%

G04:AMPARAMS|DCode=78|XSize=17.8mil|YSize=41.1mil|CornerRadius=0mil|HoleSize=0mil|Usage=FLASHONLY|Rotation=45.000|XOffset=0mil|YOffset=0mil|HoleType=Round|Shape=Rectangle|*
%AMROTATEDRECTD78*
4,1,4,0.0082,-0.0208,-0.0208,0.0082,-0.0082,0.0208,0.0208,-0.0082,0.0082,-0.0208,0.0*
%
%ADD78ROTATEDRECTD78*%

G04:AMPARAMS|DCode=79|XSize=17.8mil|YSize=41.1mil|CornerRadius=0mil|HoleSize=0mil|Usage=FLASHONLY|Rotation=315.000|XOffset=0mil|YOffset=0mil|HoleType=Round|Shape=Rectangle|*
%AMROTATEDRECTD79*
4,1,4,-0.0208,-0.0082,0.0082,0.0208,0.0208,0.0082,-0.0082,-0.0208,-0.0208,-0.0082,0.0*
%
%ADD79ROTATEDRECTD79*%

%ADD80R,0.0830X0.0830*%
%ADD81R,0.0790X0.0830*%
%ADD82R,0.0220X0.0640*%
G04:AMPARAMS|DCode=83|XSize=73mil|YSize=48mil|CornerRadius=0mil|HoleSize=0mil|Usage=FLASHONLY|Rotation=135.000|XOffset=0mil|YOffset=0mil|HoleType=Round|Shape=Rectangle|*
%AMROTATEDRECTD83*
4,1,4,0.0428,-0.0088,0.0088,-0.0428,-0.0428,0.0088,-0.0088,0.0428,0.0428,-0.0088,0.0*
%
%ADD83ROTATEDRECTD83*%

G04:AMPARAMS|DCode=84|XSize=73mil|YSize=48mil|CornerRadius=0mil|HoleSize=0mil|Usage=FLASHONLY|Rotation=225.000|XOffset=0mil|YOffset=0mil|HoleType=Round|Shape=Rectangle|*
%AMROTATEDRECTD84*
4,1,4,0.0088,0.0428,0.0428,0.0088,-0.0088,-0.0428,-0.0428,-0.0088,0.0088,0.0428,0.0*
%
%ADD84ROTATEDRECTD84*%

%ADD85C,0.0710*%
%ADD86C,0.0671*%
%ADD87C,0.0730*%
%ADD88C,0.0320*%
%ADD89C,0.0260*%
%ADD90C,0.0159*%
D62*
X054473Y025059D02*
D03*
X054724Y024809D02*
D03*
X054441Y024526D02*
D03*
X054191Y024777D02*
D03*
X046554Y031141D02*
D03*
X046804Y030890D02*
D03*
X047618Y033330D02*
D03*
X047367Y033580D02*
D03*
X053978Y027039D02*
D03*
X054229Y026789D02*
D03*
D63*
X048830Y031127D02*
D03*
X049053Y030904D02*
D03*
X049219Y025293D02*
D03*
X049442Y025070D02*
D03*
X048972Y025045D02*
D03*
X049195Y024823D02*
D03*
X050255Y025388D02*
D03*
X050033Y025611D02*
D03*
X046472Y030586D02*
D03*
X046250Y030808D02*
D03*
X049124Y028500D02*
D03*
X048901Y028722D02*
D03*
X048876Y028252D02*
D03*
X048654Y028475D02*
D03*
X049361Y028263D02*
D03*
X049584Y028040D02*
D03*
X049113Y028015D02*
D03*
X049336Y027793D02*
D03*
X055477Y021581D02*
D03*
X055700Y021358D02*
D03*
X045093Y036419D02*
D03*
X044871Y036642D02*
D03*
D64*
X045790Y026591D02*
D03*
X046013Y026813D02*
D03*
X050008Y025152D02*
D03*
X049785Y024929D02*
D03*
X048240Y025081D02*
D03*
X048017Y024858D02*
D03*
X050033Y030904D02*
D03*
X050255Y031127D02*
D03*
X049796Y030667D02*
D03*
X049573Y030444D02*
D03*
X049371Y030031D02*
D03*
X049149Y029808D02*
D03*
X051906Y029242D02*
D03*
X052129Y029465D02*
D03*
X050528Y030692D02*
D03*
X050750Y030914D02*
D03*
X042866Y023808D02*
D03*
X042643Y023585D02*
D03*
X057634Y034192D02*
D03*
X057857Y034415D02*
D03*
D65*
X046792Y026766D02*
D03*
X047945Y025613D02*
D03*
X047273Y024941D02*
D03*
X046121Y026094D02*
D03*
D66*
X049545Y026099D02*
D03*
X049824Y025820D02*
D03*
D67*
X049293Y026346D02*
D03*
X049015Y026068D02*
D03*
X049258Y025816D02*
D03*
X048979Y025537D02*
D03*
D68*
X047223Y029447D02*
D03*
X047757Y029980D02*
D03*
X046898Y030301D02*
D03*
D69*
X048843Y032000D02*
D03*
X048662Y032181D02*
D03*
X048481Y032362D02*
D03*
X048300Y032543D02*
D03*
X047674Y030831D02*
D03*
X047493Y031012D02*
D03*
X047312Y031193D02*
D03*
X047131Y031374D02*
D03*
D70*
X048500Y030715D02*
D03*
X048111Y030325D02*
D03*
D71*
X048498Y029370D02*
D03*
X048749Y029620D02*
D03*
X051401Y028171D02*
D03*
X051150Y027920D02*
D03*
X051645Y028415D02*
D03*
X051896Y028666D02*
D03*
X049807Y027284D02*
D03*
X050057Y027534D02*
D03*
X049559Y027531D02*
D03*
X049810Y027782D02*
D03*
D72*
X050998Y030444D02*
D03*
X051694Y029748D02*
D03*
D73*
X052740Y027651D02*
D03*
X052295Y028096D02*
D03*
X051599Y026510D02*
D03*
X051154Y026955D02*
D03*
D74*
X051988Y031879D02*
D03*
X051543Y031434D02*
D03*
X053129Y030738D02*
D03*
X052684Y030293D02*
D03*
D75*
X047097Y032988D02*
D03*
X046255Y032147D02*
D03*
X052796Y025606D02*
D03*
X053637Y026448D02*
D03*
D76*
X050198Y029922D02*
D03*
X050337Y029783D02*
D03*
X050476Y029644D02*
D03*
X050615Y029505D02*
D03*
X050755Y029365D02*
D03*
X050894Y029226D02*
D03*
X051033Y029087D02*
D03*
X051172Y028948D02*
D03*
X051311Y028809D02*
D03*
X050441Y027939D02*
D03*
X050302Y028078D02*
D03*
X050163Y028217D02*
D03*
X050024Y028356D02*
D03*
X049885Y028495D02*
D03*
X049745Y028635D02*
D03*
X049606Y028774D02*
D03*
X049467Y028913D02*
D03*
X049328Y029052D02*
D03*
X049189Y029191D02*
D03*
X050059Y030061D02*
D03*
D77*
X051103Y028565D02*
D03*
X050963Y028426D02*
D03*
X050824Y028287D02*
D03*
X050685Y028147D02*
D03*
X049397Y029435D02*
D03*
X049537Y029574D02*
D03*
X049676Y029713D02*
D03*
X049815Y029853D02*
D03*
D78*
X048031Y027967D02*
D03*
X047892Y027827D02*
D03*
X047752Y027688D02*
D03*
X047613Y027549D02*
D03*
X047474Y027410D02*
D03*
X048534Y026350D02*
D03*
X048673Y026489D02*
D03*
X048812Y026628D02*
D03*
X048951Y026768D02*
D03*
X049090Y026907D02*
D03*
D79*
X047474D02*
D03*
X047613Y026768D02*
D03*
X047752Y026628D02*
D03*
X047892Y026489D02*
D03*
X048031Y026350D02*
D03*
X049083Y027403D02*
D03*
X048944Y027542D02*
D03*
X048805Y027681D02*
D03*
X048666Y027820D02*
D03*
X048527Y027959D02*
D03*
D80*
X049679Y033808D02*
D03*
X050679D02*
D03*
D81*
X048599D02*
D03*
X051754D02*
D03*
D82*
X049919Y032758D02*
D03*
X050179D02*
D03*
X050435D02*
D03*
X049659D02*
D03*
X050691D02*
D03*
D83*
X044971Y022286D02*
D03*
X043532Y023725D02*
D03*
X044423Y024616D02*
D03*
X045862Y023177D02*
D03*
X055529Y035714D02*
D03*
X056968Y034275D02*
D03*
X056077Y033384D02*
D03*
X054638Y034823D02*
D03*
D84*
X056108Y024577D02*
D03*
X054669Y023138D02*
D03*
X055560Y022247D02*
D03*
X056999Y023686D02*
D03*
X044427Y033388D02*
D03*
X045866Y034827D02*
D03*
X044975Y035718D02*
D03*
X043536Y034279D02*
D03*
D85*
X054590Y029451D02*
D03*
X054033Y028894D02*
D03*
X046003Y029066D02*
D03*
X045446Y028509D02*
D03*
D86*
X050533Y025040D02*
D03*
D87*
X056473Y021434D02*
D03*
X057144Y022106D02*
D03*
X057816Y022777D02*
D03*
X044063Y036531D02*
D03*
X043391Y035859D02*
D03*
X042719Y035187D02*
D03*
X056437Y036531D02*
D03*
X057109Y035859D02*
D03*
X057781Y035187D02*
D03*
X044063Y021469D02*
D03*
X043391Y022141D02*
D03*
X042719Y022813D02*
D03*
D88*
X050780Y033137D02*
D03*
X053856Y030485D02*
D03*
X046184Y027268D02*
D03*
X045654Y031121D02*
D03*
X048378Y031649D02*
D03*
X049013Y032642D02*
D03*
X055058Y024192D02*
D03*
X055023Y033561D02*
D03*
X045477Y033773D02*
D03*
X054174Y032642D02*
D03*
X052654Y033738D02*
D03*
X045795Y023980D02*
D03*
X045194Y024581D02*
D03*
X054775Y022282D02*
D03*
X056922Y033455D02*
D03*
X045760Y035753D02*
D03*
X043568Y024510D02*
D03*
X053609Y025005D02*
D03*
X046219Y033031D02*
D03*
X055270Y026879D02*
D03*
D89*
X050359Y033224D02*
D03*
X051036Y032544D02*
D03*
X055801Y021257D02*
D03*
X053432Y028081D02*
D03*
X052195Y027055D02*
D03*
X051912Y026773D02*
D03*
X051806Y032606D02*
D03*
X047245Y031864D02*
D03*
X046573Y027515D02*
D03*
X046985Y027374D02*
D03*
X046729Y027896D02*
D03*
X047209Y028151D02*
D03*
X047386Y028611D02*
D03*
X047245Y027126D02*
D03*
X045512Y029919D02*
D03*
X045795Y029636D02*
D03*
X054281Y023555D02*
D03*
X053856Y023980D02*
D03*
X048093Y031086D02*
D03*
X049432Y030444D02*
D03*
X047775Y032960D02*
D03*
X048447Y028682D02*
D03*
X050038Y032253D02*
D03*
X051487Y028045D02*
D03*
X051770Y028328D02*
D03*
X049415Y028350D02*
D03*
X050144Y030732D02*
D03*
X048659Y029247D02*
D03*
X053184Y029035D02*
D03*
X049896Y027162D02*
D03*
X051028Y027798D02*
D03*
X049684Y027939D02*
D03*
X050356Y031581D02*
D03*
X045265Y027904D02*
D03*
X044805Y027020D02*
D03*
X050179Y026879D02*
D03*
X045371Y026242D02*
D03*
X044699Y025146D02*
D03*
X053479Y034170D02*
D03*
X053871Y033780D02*
D03*
X045230Y025677D02*
D03*
X046538Y025005D02*
D03*
X046856Y025889D02*
D03*
X045760Y025146D02*
D03*
X050250Y029000D02*
D03*
X051311Y025677D02*
D03*
X050215Y026066D02*
D03*
X052265Y029247D02*
D03*
X048305Y026914D02*
D03*
X048010Y027126D02*
D03*
X042543Y023485D02*
D03*
X044770Y036743D02*
D03*
X057957Y034515D02*
D03*
X051192Y024240D02*
D03*
X054174Y028045D02*
D03*
X053078Y030556D02*
D03*
D90*
X044309Y023561D02*
D03*
X044588Y023839D02*
D03*
X044866Y024117D02*
D03*
X055968Y035219D02*
D03*
X044031Y023282D02*
D03*
X044282Y023032D02*
D03*
X044532Y022781D02*
D03*
X044560Y023310D02*
D03*
X044811Y023059D02*
D03*
X044838Y023588D02*
D03*
X045117Y023867D02*
D03*
X045367Y023616D02*
D03*
X045089Y023338D02*
D03*
X056003Y022746D02*
D03*
X056254Y022996D02*
D03*
X056504Y023247D02*
D03*
X055725Y023024D02*
D03*
X055975Y023275D02*
D03*
X056226Y023525D02*
D03*
X055446Y023303D02*
D03*
X055697Y023553D02*
D03*
X055168Y023581D02*
D03*
X055419Y023831D02*
D03*
X055669Y024082D02*
D03*
X055947Y023804D02*
D03*
X056469Y034718D02*
D03*
X056218Y034968D02*
D03*
X056191Y034439D02*
D03*
X055940Y034690D02*
D03*
X055689Y034941D02*
D03*
X055912Y034161D02*
D03*
X055662Y034412D02*
D03*
X055634Y033883D02*
D03*
X055383Y034133D02*
D03*
X055133Y034384D02*
D03*
X055411Y034662D02*
D03*
X044532Y035219D02*
D03*
X044282Y034968D02*
D03*
X044031Y034718D02*
D03*
X044811Y034941D02*
D03*
X044560Y034690D02*
D03*
X044309Y034439D02*
D03*
X045089Y034662D02*
D03*
X044838Y034412D02*
D03*
X045367Y034384D02*
D03*
X045117Y034133D02*
D03*
X044866Y033883D02*
D03*
X044588Y034161D02*
D03*
M02*
