G04 Layer_Physical_Order=2*
G04 Layer_Color=16711680*
%FSAX24Y24*%
%MOIN*%
G70*
G01*
G75*
%ADD12C,0.0120*%
%ADD13C,0.0100*%
%ADD14C,0.0200*%
%ADD15C,0.0197*%
%ADD16R,0.0295X0.0138*%
%ADD17R,0.0787X0.1181*%
D12*
X069021Y010722D02*
X069142Y010843D01*
X068738Y010100D02*
X068753D01*
X069021Y010368D02*
Y010722D01*
X068753Y010100D02*
X069021Y010368D01*
X067979D02*
Y010722D01*
X067858Y010843D02*
X067979Y010722D01*
X068247Y010100D02*
X068262D01*
X067979Y010368D02*
X068247Y010100D01*
D13*
X068262D02*
X068300D01*
X068700D02*
X068738D01*
X067713Y010843D02*
X067768D01*
X067800Y011150D02*
Y011450D01*
X067763Y011472D02*
X067800D01*
X069200D02*
X069287D01*
X069232Y010843D02*
X069287D01*
D14*
X068300Y010100D02*
D03*
X068700D02*
D03*
X069100Y011150D02*
D03*
Y011450D02*
D03*
X067900D02*
D03*
D15*
X068650Y011000D02*
D03*
X068350D02*
D03*
D16*
X067713Y011472D02*
D03*
Y011157D02*
D03*
Y010843D02*
D03*
Y010528D02*
D03*
X069287Y011472D02*
D03*
Y011157D02*
D03*
Y010843D02*
D03*
Y010528D02*
D03*
D17*
X068500Y011000D02*
D03*
M02*
