M48
;Layer_Color=9474304
;FILE_FORMAT=2:4
INCH
;TYPE=PLATED
T1F00S00C0.0079
T2F00S00C0.0180
T3F00S00C0.0240
T4F00S00C0.0315
T5F00S00C0.0354
T6F00S00C0.0400
%
T01
X056003Y022746
X056254Y022996
X056504Y023247
X055975Y023275
X055725Y023024
X055697Y023553
X055446Y023303
X055168Y023581
X055419Y023831
X055669Y024082
X055947Y023804
X056226Y023525
X045367Y023616
X045117Y023867
X044866Y024117
X044588Y023839
X044838Y023588
X045089Y023338
X044811Y023059
X044560Y023310
X044309Y023561
X044031Y023282
X044282Y023032
X044532Y022781
X044588Y034161
X044838Y034412
X045089Y034662
X044811Y034941
X044560Y034690
X044309Y034439
X044282Y034968
X044532Y035219
X044031Y034718
X045117Y034133
X045367Y034384
X044866Y033883
X055634
X055383Y034133
X055133Y034384
X055411Y034662
X055662Y034412
X055912Y034161
X056191Y034439
X055940Y034690
X055689Y034941
X055968Y035219
X056218Y034968
X056469Y034718
T02
X046985Y027374
X047245Y027126
X048010
X048305Y026914
X049896Y027162
X050179Y026879
X050215Y026066
X051311Y025677
X051192Y024240
X053856Y023980
X054281Y023555
X055801Y021257
X054174Y028045
X053432Y028081
X053184Y029035
X052265Y029247
X051770Y028328
X051487Y028045
X051028Y027798
X049684Y027939
X049415Y028350
X048447Y028682
X048659Y029247
X050250Y029000
X050144Y030732
X049432Y030444
X048093Y031086
X047386Y028611
X047209Y028151
X051912Y026773
X052195Y027055
X053078Y030556
X045512Y029919
X045795Y029636
X045265Y027904
X044805Y027020
X045371Y026242
X045230Y025677
X044699Y025146
X045760
X046538Y025005
X046856Y025889
X046573Y027515
X046729Y027896
X042543Y023485
X044770Y036743
X047775Y032960
X047245Y031864
X050038Y032253
X050356Y031581
X051036Y032544
X051806Y032606
X050359Y033224
X053479Y034170
X053871Y033780
X057957Y034515
T03
X054775Y022282
X055058Y024192
X053609Y025005
X055270Y026879
X053856Y030485
X045654Y031121
X046184Y027268
X045194Y024581
X045795Y023980
X043568Y024510
X045477Y033773
X046219Y033031
X045760Y035753
X049013Y032642
X048378Y031649
X050780Y033137
X052654Y033738
X055023Y033561
X054174Y032642
X056922Y033455
T04
X054033Y028894
X054590Y029451
X046003Y029066
X045446Y028509
T05
X050533Y025040
T06
X056473Y021434
X057144Y022106
X057816Y022777
X044063Y021469
X043391Y022141
X042719Y022813
Y035187
X043391Y035859
X044063Y036531
X056437
X057109Y035859
X057781Y035187
M30
