G04 Layer_Color=48896*
%FSAX25Y25*%
%MOIN*%
G70*
G01*
G75*
%ADD53C,0.01000*%
%ADD93C,0.00984*%
%ADD95C,0.00394*%
%ADD96C,0.00800*%
%ADD97C,0.00787*%
%ADD98C,0.00500*%
%ADD100C,0.00400*%
%ADD172C,0.02362*%
%ADD173C,0.00600*%
G36*
X0257934Y0180520D02*
X0253480Y0176066D01*
X0252773Y0176773D01*
X0253939Y0177939D01*
X0253232Y0178647D01*
X0255353Y0180768D01*
X0256061Y0180061D01*
X0257227Y0181227D01*
X0257934Y0180520D01*
D02*
G37*
G36*
X0549939Y0180061D02*
X0550646Y0180768D01*
X0552768Y0178647D01*
X0552061Y0177939D01*
X0553227Y0176773D01*
X0552520Y0176066D01*
X0548066Y0180520D01*
X0548773Y0181227D01*
X0549939Y0180061D01*
D02*
G37*
G36*
X0553227Y0477227D02*
X0552061Y0476061D01*
X0552768Y0475353D01*
X0550646Y0473232D01*
X0549939Y0473939D01*
X0548773Y0472773D01*
X0548066Y0473480D01*
X0552520Y0477934D01*
X0553227Y0477227D01*
D02*
G37*
G36*
X0257934Y0473480D02*
X0257227Y0472773D01*
X0256061Y0473939D01*
X0255353Y0473232D01*
X0253232Y0475353D01*
X0253939Y0476061D01*
X0252773Y0477227D01*
X0253480Y0477934D01*
X0257934Y0473480D01*
D02*
G37*
D53*
X0378413Y0368976D02*
G03*
X0378413Y0368976I-0000394J0000000D01*
G01*
X0410874Y0431720D02*
G03*
X0395126Y0431720I-0007874J0000000D01*
G01*
X0414811Y0429752D02*
G03*
X0412843Y0431720I-0001969J0000000D01*
G01*
X0393158D02*
G03*
X0391189Y0429752I0000000J-0001969D01*
G01*
X0261864Y0478536D02*
G03*
X0261864Y0478536I-0000500J0000000D01*
G01*
X0547964Y0481364D02*
G03*
X0547964Y0481364I-0000500J0000000D01*
G01*
X0545136Y0175464D02*
G03*
X0545136Y0175464I-0000500J0000000D01*
G01*
X0259035Y0172636D02*
G03*
X0259035Y0172636I-0000500J0000000D01*
G01*
X0385500Y0354713D02*
Y0356287D01*
X0380213Y0362000D02*
X0381787D01*
X0398000Y0406917D02*
Y0414004D01*
X0408000Y0406917D02*
Y0414004D01*
X0391189D02*
X0414811D01*
X0391189D02*
Y0429752D01*
X0393158Y0431720D02*
X0412843D01*
X0414811Y0414004D02*
Y0429752D01*
X0451165Y0267143D02*
X0452000Y0266308D01*
X0455062Y0269370D01*
X0462857Y0278835D02*
X0463692Y0278000D01*
X0460630Y0274938D02*
X0463692Y0278000D01*
X0440308D02*
X0442535Y0280227D01*
X0449773Y0287465D02*
X0452000Y0289692D01*
X0455062Y0269370D02*
X0456454Y0270762D01*
X0455341Y0271876D02*
X0456454Y0270762D01*
X0455341Y0271876D02*
X0458124Y0274659D01*
X0459238Y0273546D01*
X0452000Y0289692D02*
X0452835Y0288857D01*
X0440308Y0278000D02*
X0441143Y0277165D01*
X0459238Y0273546D02*
X0460630Y0274938D01*
X0462857Y0375165D02*
X0463692Y0376000D01*
X0460630Y0379062D02*
X0463692Y0376000D01*
X0451165Y0386857D02*
X0452000Y0387692D01*
X0455062Y0384630D01*
X0449773Y0366535D02*
X0452000Y0364308D01*
X0440308Y0376000D02*
X0442535Y0373773D01*
X0459238Y0380454D02*
X0460630Y0379062D01*
X0458124Y0379341D02*
X0459238Y0380454D01*
X0455341Y0382124D02*
X0458124Y0379341D01*
X0455341Y0382124D02*
X0456454Y0383238D01*
X0440308Y0376000D02*
X0441143Y0376835D01*
X0452000Y0364308D02*
X0452835Y0365143D01*
X0455062Y0384630D02*
X0456454Y0383238D01*
X0354000Y0387692D02*
X0354835Y0386857D01*
X0350938Y0384630D02*
X0354000Y0387692D01*
X0342308Y0376000D02*
X0343143Y0375165D01*
X0342308Y0376000D02*
X0345370Y0379062D01*
X0363465Y0373773D02*
X0365692Y0376000D01*
X0354000Y0364308D02*
X0356227Y0366535D01*
X0349546Y0383238D02*
X0350938Y0384630D01*
X0349546Y0383238D02*
X0350659Y0382124D01*
X0347875Y0379341D02*
X0350659Y0382124D01*
X0346762Y0380454D02*
X0347875Y0379341D01*
X0353165Y0365143D02*
X0354000Y0364308D01*
X0364857Y0376835D02*
X0365692Y0376000D01*
X0345370Y0379062D02*
X0346762Y0380454D01*
X0432713Y0339000D02*
X0434287D01*
X0432713Y0346000D02*
X0434287D01*
X0436213D02*
X0437787D01*
X0436213Y0339000D02*
X0437787D01*
X0452500Y0348500D02*
X0453500D01*
X0452500Y0351500D02*
X0453500D01*
X0452500Y0348500D02*
Y0351500D01*
X0453500Y0348500D02*
Y0351500D01*
X0452500Y0343000D02*
X0453500D01*
X0452500Y0346000D02*
X0453500D01*
X0452500Y0343000D02*
Y0346000D01*
X0453500Y0343000D02*
Y0346000D01*
X0411713Y0357000D02*
X0413287D01*
X0415213D02*
X0416787D01*
X0368500Y0345500D02*
X0373500D01*
X0368500Y0343500D02*
X0373500D01*
Y0345500D01*
X0368500Y0343500D02*
Y0345500D01*
X0370713Y0335000D02*
X0372287D01*
X0374250Y0312450D02*
Y0318550D01*
X0359750Y0312450D02*
Y0318550D01*
X0342308Y0278000D02*
X0343143Y0278835D01*
X0342308Y0278000D02*
X0345370Y0274938D01*
X0354000Y0266308D02*
X0354835Y0267143D01*
X0350938Y0269370D02*
X0354000Y0266308D01*
Y0289692D02*
X0356227Y0287465D01*
X0363465Y0280227D02*
X0365692Y0278000D01*
X0345370Y0274938D02*
X0346762Y0273546D01*
X0347875Y0274659D01*
X0350659Y0271876D01*
X0349546Y0270762D02*
X0350659Y0271876D01*
X0364857Y0277165D02*
X0365692Y0278000D01*
X0353165Y0288857D02*
X0354000Y0289692D01*
X0349546Y0270762D02*
X0350938Y0269370D01*
X0476756Y0328969D02*
Y0330937D01*
X0460024Y0319126D02*
X0469669D01*
X0460024Y0334874D02*
X0469669D01*
X0460024Y0331134D02*
Y0334874D01*
Y0319126D02*
Y0322866D01*
X0475181Y0328969D02*
X0476756D01*
X0475181Y0325031D02*
Y0328969D01*
Y0325031D02*
X0476756D01*
Y0323063D02*
Y0325031D01*
X0400000Y0282000D02*
Y0287000D01*
X0406000Y0282000D02*
Y0287000D01*
X0400000Y0282000D02*
X0406000D01*
X0400000Y0287000D02*
X0406000D01*
D93*
X0418980Y0390535D02*
G03*
X0418980Y0390535I-0000492J0000000D01*
G01*
X0452843Y0317551D02*
G03*
X0452843Y0317551I-0000394J0000000D01*
G01*
X0381740Y0309579D02*
G03*
X0381740Y0309579I-0000492J0000000D01*
G01*
X0385457Y0357087D02*
G03*
X0385457Y0357087I-0000492J0000000D01*
G01*
D95*
X0338728Y0332405D02*
G03*
X0338728Y0332405I-0000197J0000000D01*
G01*
D96*
X0403000Y0361800D02*
X0405362Y0364181D01*
X0400600D02*
X0405362D01*
X0400600D02*
X0403000Y0361800D01*
X0405756D01*
X0400200D02*
X0403000D01*
X0406937Y0353500D02*
Y0359000D01*
X0399000Y0353500D02*
X0406937D01*
X0399000D02*
Y0359000D01*
X0406937Y0366937D02*
Y0372449D01*
X0399000D02*
X0406937D01*
X0399000Y0366937D02*
Y0372449D01*
D97*
X0367709Y0350102D02*
G03*
X0367709Y0350102I-0000197J0000000D01*
G01*
X0391406Y0379803D02*
Y0380197D01*
X0379594Y0379803D02*
Y0380197D01*
Y0389843D02*
X0391406D01*
X0379594Y0370158D02*
X0391406D01*
X0379594Y0374882D02*
Y0375276D01*
Y0384724D02*
Y0385118D01*
X0391406Y0384724D02*
Y0385118D01*
Y0374882D02*
Y0375276D01*
X0419669Y0385319D02*
Y0387681D01*
X0428331Y0385319D02*
Y0387681D01*
X0419669D02*
X0428331D01*
X0419669Y0385319D02*
X0428331D01*
X0429661Y0362776D02*
Y0372224D01*
X0412339Y0362776D02*
Y0372224D01*
X0452744Y0319225D02*
Y0321922D01*
X0452015Y0319225D02*
X0452744D01*
X0452015Y0334776D02*
X0452744D01*
Y0334048D02*
Y0334776D01*
X0433256Y0334048D02*
Y0334776D01*
X0433985D01*
X0433256Y0319224D02*
Y0319952D01*
Y0319224D02*
X0433985D01*
X0385874Y0344126D02*
X0420126D01*
X0385874Y0309874D02*
X0420126D01*
Y0344126D01*
X0385874Y0309874D02*
Y0344126D01*
X0358850Y0350496D02*
X0366134D01*
X0357866D02*
X0358850D01*
X0357866Y0341047D02*
X0365150D01*
X0366134D01*
X0338925Y0324925D02*
X0340500Y0327681D01*
X0342075Y0324925D01*
X0338925Y0327681D02*
X0342075D01*
X0338925Y0324925D02*
X0342075D01*
X0342469Y0322760D02*
X0343256D01*
X0342469Y0330240D02*
X0343256D01*
X0337744Y0322760D02*
X0338531D01*
X0337744Y0330240D02*
X0338531D01*
X0343256Y0322760D02*
Y0330240D01*
X0337744Y0322760D02*
Y0330240D01*
X0390181Y0358169D02*
Y0366831D01*
X0387819Y0358169D02*
Y0366831D01*
X0390181D01*
X0387819Y0358169D02*
X0390181D01*
D98*
X0416500Y0377000D02*
Y0379000D01*
Y0373500D02*
Y0375500D01*
X0416500Y0383000D02*
X0418500D01*
X0416500Y0390000D02*
X0418500D01*
X0248793Y0468293D02*
X0250207Y0469707D01*
X0556293Y0470207D02*
X0557707Y0468793D01*
X0555793Y0184293D02*
X0557207Y0185707D01*
X0248293Y0185207D02*
X0249707Y0183793D01*
X0451500Y0338000D02*
Y0340000D01*
X0445000Y0339500D02*
Y0341500D01*
X0442500Y0349000D02*
Y0351000D01*
X0445000Y0343000D02*
Y0345000D01*
X0454000Y0334000D02*
X0456000D01*
X0454500Y0316000D02*
Y0318000D01*
X0439500Y0313500D02*
X0441500D01*
X0442500D02*
X0444500D01*
X0445500D02*
X0447500D01*
X0451000Y0313000D02*
Y0315000D01*
X0429000Y0312500D02*
X0431000D01*
X0428500Y0306000D02*
Y0308000D01*
X0421000Y0354000D02*
Y0356000D01*
X0421500Y0350000D02*
X0423500D01*
X0374000Y0378500D02*
X0376000D01*
X0392500Y0353000D02*
Y0355000D01*
X0353500Y0347000D02*
X0355500D01*
X0364500Y0337500D02*
Y0339500D01*
X0374500Y0335000D02*
X0376500D01*
X0367000Y0328000D02*
Y0330000D01*
X0377500Y0306500D02*
X0379500D01*
X0383500Y0303500D02*
Y0305500D01*
X0367000Y0301000D02*
Y0303000D01*
X0385000Y0281500D02*
Y0283500D01*
Y0286000D02*
Y0288000D01*
Y0290500D02*
Y0292500D01*
X0393000Y0273000D02*
X0395000D01*
X0400000D02*
X0402000D01*
X0396400D02*
X0398400D01*
X0403500D02*
X0405500D01*
X0407000D02*
X0409000D01*
X0410500D02*
X0412500D01*
X0399000Y0376500D02*
X0401000D01*
X0427500Y0394999D02*
Y0393333D01*
X0427167Y0393000D01*
X0426500D01*
X0426167Y0393333D01*
Y0394999D01*
X0425501Y0393000D02*
X0424834D01*
X0425167D01*
Y0394999D01*
X0425501Y0394666D01*
X0422835Y0393000D02*
Y0394999D01*
X0423835Y0394000D01*
X0422502D01*
X0429500Y0361999D02*
Y0360333D01*
X0429167Y0360000D01*
X0428500D01*
X0428167Y0360333D01*
Y0361999D01*
X0427501Y0360000D02*
X0426834D01*
X0427167D01*
Y0361999D01*
X0427501Y0361666D01*
X0425835D02*
X0425501Y0361999D01*
X0424835D01*
X0424502Y0361666D01*
Y0361333D01*
X0424835Y0361000D01*
X0425168D01*
X0424835D01*
X0424502Y0360666D01*
Y0360333D01*
X0424835Y0360000D01*
X0425501D01*
X0425835Y0360333D01*
X0415166Y0381833D02*
X0415499Y0381500D01*
Y0380833D01*
X0415166Y0380500D01*
X0413833D01*
X0413500Y0380833D01*
Y0381500D01*
X0413833Y0381833D01*
X0415166Y0382499D02*
X0415499Y0382833D01*
Y0383499D01*
X0415166Y0383832D01*
X0414833D01*
X0414500Y0383499D01*
X0414166Y0383832D01*
X0413833D01*
X0413500Y0383499D01*
Y0382833D01*
X0413833Y0382499D01*
X0414166D01*
X0414500Y0382833D01*
X0414833Y0382499D01*
X0415166D01*
X0414500Y0382833D02*
Y0383499D01*
X0415499Y0385832D02*
Y0384499D01*
X0414500D01*
X0414833Y0385165D01*
Y0385498D01*
X0414500Y0385832D01*
X0413833D01*
X0413500Y0385498D01*
Y0384832D01*
X0413833Y0384499D01*
X0415166Y0388833D02*
X0415499Y0388500D01*
Y0387833D01*
X0415166Y0387500D01*
X0413833D01*
X0413500Y0387833D01*
Y0388500D01*
X0413833Y0388833D01*
X0415166Y0389499D02*
X0415499Y0389833D01*
Y0390499D01*
X0415166Y0390832D01*
X0414833D01*
X0414500Y0390499D01*
X0414166Y0390832D01*
X0413833D01*
X0413500Y0390499D01*
Y0389833D01*
X0413833Y0389499D01*
X0414166D01*
X0414500Y0389833D01*
X0414833Y0389499D01*
X0415166D01*
X0414500Y0389833D02*
Y0390499D01*
X0413500Y0392498D02*
X0415499D01*
X0414500Y0391499D01*
Y0392832D01*
X0424167Y0378666D02*
X0424500Y0378999D01*
X0425167D01*
X0425500Y0378666D01*
Y0377333D01*
X0425167Y0377000D01*
X0424500D01*
X0424167Y0377333D01*
X0423501Y0378666D02*
X0423167Y0378999D01*
X0422501D01*
X0422168Y0378666D01*
Y0378333D01*
X0422501Y0378000D01*
X0422168Y0377666D01*
Y0377333D01*
X0422501Y0377000D01*
X0423167D01*
X0423501Y0377333D01*
Y0377666D01*
X0423167Y0378000D01*
X0423501Y0378333D01*
Y0378666D01*
X0423167Y0378000D02*
X0422501D01*
X0421501Y0378666D02*
X0421168Y0378999D01*
X0420502D01*
X0420168Y0378666D01*
Y0378333D01*
X0420502Y0378000D01*
X0420835D01*
X0420502D01*
X0420168Y0377666D01*
Y0377333D01*
X0420502Y0377000D01*
X0421168D01*
X0421501Y0377333D01*
X0424167Y0375166D02*
X0424500Y0375499D01*
X0425167D01*
X0425500Y0375166D01*
Y0373833D01*
X0425167Y0373500D01*
X0424500D01*
X0424167Y0373833D01*
X0423501Y0375166D02*
X0423167Y0375499D01*
X0422501D01*
X0422168Y0375166D01*
Y0374833D01*
X0422501Y0374500D01*
X0422168Y0374166D01*
Y0373833D01*
X0422501Y0373500D01*
X0423167D01*
X0423501Y0373833D01*
Y0374166D01*
X0423167Y0374500D01*
X0423501Y0374833D01*
Y0375166D01*
X0423167Y0374500D02*
X0422501D01*
X0420168Y0373500D02*
X0421501D01*
X0420168Y0374833D01*
Y0375166D01*
X0420502Y0375499D01*
X0421168D01*
X0421501Y0375166D01*
X0559879Y0469236D02*
Y0469707D01*
X0560351Y0470178D01*
X0560822Y0470178D01*
X0561764Y0469236D01*
Y0468764D01*
X0561293Y0468293D01*
X0560822Y0468293D01*
X0559172Y0469000D02*
X0558230Y0468057D01*
X0558466Y0467822D01*
X0560351D01*
X0560586Y0467586D01*
X0557994Y0467351D02*
X0557523D01*
X0557052Y0466879D01*
Y0466408D01*
X0557288Y0466173D01*
X0557759D01*
X0557994Y0466408D01*
X0557759Y0466173D01*
X0557759Y0465701D01*
X0557994Y0465466D01*
X0558466Y0465466D01*
X0558937Y0465937D01*
Y0466408D01*
X0557994Y0464523D02*
X0557052Y0463581D01*
X0554931Y0464759D02*
X0556345Y0463345D01*
X0555638Y0462638D01*
X0555167Y0462638D01*
X0554224Y0463581D01*
Y0464052D01*
X0554931Y0464759D01*
X0560736Y0186121D02*
X0561207D01*
X0561678Y0185649D01*
X0561678Y0185178D01*
X0560736Y0184236D01*
X0560264D01*
X0559793Y0184707D01*
X0559793Y0185178D01*
X0560500Y0186828D02*
X0559557Y0187770D01*
X0559322Y0187534D01*
Y0185649D01*
X0559086Y0185414D01*
X0558851Y0188006D02*
Y0188477D01*
X0558379Y0188948D01*
X0557908D01*
X0557673Y0188713D01*
Y0188241D01*
X0557908Y0188006D01*
X0557673Y0188241D01*
X0557201Y0188241D01*
X0556966Y0188006D01*
X0556966Y0187534D01*
X0557437Y0187063D01*
X0557908D01*
X0556023Y0188006D02*
X0555081Y0188948D01*
Y0191776D02*
X0555552D01*
X0556023Y0191304D01*
X0556023Y0190833D01*
X0555081Y0189891D01*
X0554609D01*
X0554138Y0190362D01*
X0554138Y0190833D01*
X0249879Y0190736D02*
Y0191207D01*
X0250351Y0191678D01*
X0250822Y0191678D01*
X0251764Y0190736D01*
Y0190264D01*
X0251293Y0189793D01*
X0250822Y0189793D01*
X0249172Y0190500D02*
X0248230Y0189558D01*
X0248466Y0189322D01*
X0250351D01*
X0250586Y0189086D01*
X0247994Y0188851D02*
X0247523D01*
X0247052Y0188379D01*
Y0187908D01*
X0247288Y0187672D01*
X0247759D01*
X0247994Y0187908D01*
X0247759Y0187672D01*
X0247759Y0187201D01*
X0247994Y0186966D01*
X0248466Y0186966D01*
X0248937Y0187437D01*
Y0187908D01*
X0247994Y0186023D02*
X0247052Y0185081D01*
X0244931Y0186259D02*
X0246345Y0184845D01*
X0245638Y0184138D01*
X0245167Y0184138D01*
X0244931Y0184374D01*
X0244931Y0184845D01*
X0245638Y0185552D01*
X0244931Y0184845D01*
X0244460D01*
X0244224Y0185081D01*
Y0185552D01*
X0244931Y0186259D01*
X0251236Y0464121D02*
X0251707D01*
X0252178Y0463649D01*
X0252178Y0463178D01*
X0251236Y0462236D01*
X0250764D01*
X0250293Y0462707D01*
X0250293Y0463178D01*
X0251000Y0464827D02*
X0250058Y0465770D01*
X0249822Y0465534D01*
Y0463649D01*
X0249586Y0463414D01*
X0249351Y0466006D02*
Y0466477D01*
X0248879Y0466948D01*
X0248408D01*
X0248172Y0466713D01*
Y0466241D01*
X0248408Y0466006D01*
X0248172Y0466241D01*
X0247701Y0466241D01*
X0247466Y0466006D01*
X0247466Y0465534D01*
X0247937Y0465063D01*
X0248408D01*
X0246523Y0466006D02*
X0245581Y0466948D01*
X0245345Y0467655D02*
X0246287Y0468598D01*
Y0469540D01*
X0245345D01*
X0244403Y0468598D01*
X0245109Y0469304D01*
X0246052Y0468362D01*
X0372000Y0268000D02*
X0370586Y0269414D01*
Y0268471D01*
X0369644D01*
X0371058Y0267057D01*
X0368466Y0267293D02*
X0368937Y0267764D01*
X0369408Y0267764D01*
X0370351Y0266822D01*
Y0266351D01*
X0369879Y0265879D01*
X0369408D01*
X0368466Y0266822D01*
Y0267293D01*
X0367759Y0266586D02*
X0366816Y0265644D01*
X0367287Y0266115D01*
X0368701Y0264701D01*
X0365638Y0264466D02*
X0366109Y0264937D01*
X0366581Y0264937D01*
X0367523Y0263994D01*
Y0263523D01*
X0367052Y0263052D01*
X0366581D01*
X0365638Y0263994D01*
Y0264466D01*
X0366345Y0262345D02*
X0364931Y0263759D01*
X0364224Y0263052D01*
Y0262581D01*
X0364696Y0262109D01*
X0365167D01*
X0365874Y0262816D01*
X0365403Y0262345D02*
Y0261403D01*
X0363989Y0259989D02*
X0364931Y0260931D01*
X0363046D01*
X0362811Y0261167D01*
Y0261638D01*
X0363282Y0262109D01*
X0363753D01*
X0442000Y0260000D02*
X0443414Y0261414D01*
X0442471D01*
Y0262356D01*
X0441057Y0260943D01*
X0441293Y0263534D02*
X0441764Y0263063D01*
X0441764Y0262592D01*
X0440822Y0261649D01*
X0440351D01*
X0439879Y0262121D01*
Y0262592D01*
X0440822Y0263534D01*
X0441293D01*
X0440586Y0264241D02*
X0439644Y0265184D01*
X0440115Y0264713D01*
X0438701Y0263299D01*
X0438466Y0266362D02*
X0438937Y0265891D01*
X0438937Y0265419D01*
X0437994Y0264477D01*
X0437523D01*
X0437052Y0264948D01*
Y0265419D01*
X0437994Y0266362D01*
X0438466D01*
X0436345Y0265655D02*
X0437759Y0267069D01*
X0437052Y0267776D01*
X0436581D01*
X0436109Y0267304D01*
Y0266833D01*
X0436816Y0266126D01*
X0436345Y0266598D02*
X0435402D01*
X0436109Y0268247D02*
Y0268718D01*
X0435638Y0269189D01*
X0435167D01*
X0434931Y0268954D01*
Y0268482D01*
X0435167Y0268247D01*
X0434931Y0268482D01*
X0434460Y0268482D01*
X0434224Y0268247D01*
X0434224Y0267776D01*
X0434696Y0267304D01*
X0435167D01*
X0443500Y0392500D02*
X0442086Y0393914D01*
Y0392971D01*
X0441144D01*
X0442557Y0391558D01*
X0439966Y0391793D02*
X0440437Y0392264D01*
X0440908Y0392264D01*
X0441851Y0391322D01*
Y0390851D01*
X0441379Y0390379D01*
X0440908D01*
X0439966Y0391322D01*
Y0391793D01*
X0439259Y0391086D02*
X0438316Y0390144D01*
X0438788Y0390615D01*
X0440201Y0389201D01*
X0437138Y0388966D02*
X0437609Y0389437D01*
X0438081Y0389437D01*
X0439023Y0388494D01*
Y0388023D01*
X0438552Y0387552D01*
X0438081D01*
X0437138Y0388494D01*
Y0388966D01*
X0437845Y0386845D02*
X0436431Y0388259D01*
X0435724Y0387552D01*
Y0387081D01*
X0436196Y0386609D01*
X0436667D01*
X0437374Y0387316D01*
X0436903Y0386845D02*
Y0385903D01*
X0435724Y0384724D02*
X0434311Y0386138D01*
X0435724Y0386138D01*
X0434782Y0385196D01*
X0370500Y0384500D02*
X0371914Y0385914D01*
X0370971D01*
Y0386856D01*
X0369557Y0385442D01*
X0369793Y0388034D02*
X0370264Y0387563D01*
X0370264Y0387092D01*
X0369322Y0386149D01*
X0368851D01*
X0368379Y0386621D01*
Y0387092D01*
X0369322Y0388034D01*
X0369793D01*
X0369086Y0388741D02*
X0368144Y0389684D01*
X0368615Y0389212D01*
X0367201Y0387799D01*
X0366966Y0390862D02*
X0367437Y0390391D01*
X0367437Y0389919D01*
X0366494Y0388977D01*
X0366023D01*
X0365552Y0389448D01*
Y0389919D01*
X0366494Y0390862D01*
X0366966D01*
X0364845Y0390155D02*
X0366259Y0391569D01*
X0365552Y0392276D01*
X0365081D01*
X0364609Y0391804D01*
Y0391333D01*
X0365316Y0390626D01*
X0364845Y0391097D02*
X0363902D01*
X0363431Y0391569D02*
X0362960Y0392040D01*
X0363196Y0391804D01*
X0364609Y0393218D01*
Y0392747D01*
X0346499Y0322500D02*
X0344500D01*
Y0323500D01*
X0344833Y0323833D01*
X0346166D01*
X0346499Y0323500D01*
Y0322500D01*
Y0324499D02*
Y0325832D01*
X0346166D01*
X0344833Y0324499D01*
X0344500D01*
X0354667Y0352166D02*
X0355000Y0352499D01*
X0355667D01*
X0356000Y0352166D01*
Y0350833D01*
X0355667Y0350500D01*
X0355000D01*
X0354667Y0350833D01*
X0354001Y0350500D02*
X0353334D01*
X0353667D01*
Y0352499D01*
X0354001Y0352166D01*
X0359667Y0339166D02*
X0360000Y0339499D01*
X0360667D01*
X0361000Y0339166D01*
Y0337833D01*
X0360667Y0337500D01*
X0360000D01*
X0359667Y0337833D01*
X0357668Y0337500D02*
X0359001D01*
X0357668Y0338833D01*
Y0339166D01*
X0358001Y0339499D01*
X0358667D01*
X0359001Y0339166D01*
X0372666Y0377833D02*
X0372999Y0377500D01*
Y0376833D01*
X0372666Y0376500D01*
X0371333D01*
X0371000Y0376833D01*
Y0377500D01*
X0371333Y0377833D01*
X0372999Y0379832D02*
X0372666Y0379166D01*
X0372000Y0378499D01*
X0371333D01*
X0371000Y0378833D01*
Y0379499D01*
X0371333Y0379832D01*
X0371666D01*
X0372000Y0379499D01*
Y0378499D01*
X0461667Y0345166D02*
X0462000Y0345499D01*
X0462667D01*
X0463000Y0345166D01*
Y0343833D01*
X0462667Y0343500D01*
X0462000D01*
X0461667Y0343833D01*
X0461001Y0343500D02*
X0460334D01*
X0460667D01*
Y0345499D01*
X0461001Y0345166D01*
X0459335D02*
X0459001Y0345499D01*
X0458335D01*
X0458002Y0345166D01*
Y0343833D01*
X0458335Y0343500D01*
X0459001D01*
X0459335Y0343833D01*
Y0345166D01*
X0461167Y0317666D02*
X0461500Y0317999D01*
X0462167D01*
X0462500Y0317666D01*
Y0316333D01*
X0462167Y0316000D01*
X0461500D01*
X0461167Y0316333D01*
X0460501Y0316000D02*
X0459834D01*
X0460167D01*
Y0317999D01*
X0460501Y0317666D01*
X0458835Y0316000D02*
X0458168D01*
X0458501D01*
Y0317999D01*
X0458835Y0317666D01*
X0452167Y0311666D02*
X0452500Y0311999D01*
X0453167D01*
X0453500Y0311666D01*
Y0310333D01*
X0453167Y0310000D01*
X0452500D01*
X0452167Y0310333D01*
X0451501Y0310000D02*
X0450834D01*
X0451167D01*
Y0311999D01*
X0451501Y0311666D01*
X0448502Y0310000D02*
X0449834D01*
X0448502Y0311333D01*
Y0311666D01*
X0448835Y0311999D01*
X0449501D01*
X0449834Y0311666D01*
X0458667Y0339666D02*
X0459000Y0339999D01*
X0459667D01*
X0460000Y0339666D01*
Y0338333D01*
X0459667Y0338000D01*
X0459000D01*
X0458667Y0338333D01*
X0458001Y0338000D02*
X0457334D01*
X0457667D01*
Y0339999D01*
X0458001Y0339666D01*
X0455335Y0338000D02*
Y0339999D01*
X0456334Y0339000D01*
X0455002D01*
X0380167Y0292166D02*
X0380500Y0292499D01*
X0381167D01*
X0381500Y0292166D01*
Y0290833D01*
X0381167Y0290500D01*
X0380500D01*
X0380167Y0290833D01*
X0379501Y0292166D02*
X0379167Y0292499D01*
X0378501D01*
X0378168Y0292166D01*
Y0291833D01*
X0378501Y0291500D01*
X0378834D01*
X0378501D01*
X0378168Y0291166D01*
Y0290833D01*
X0378501Y0290500D01*
X0379167D01*
X0379501Y0290833D01*
X0377501Y0292166D02*
X0377168Y0292499D01*
X0376502D01*
X0376168Y0292166D01*
Y0290833D01*
X0376502Y0290500D01*
X0377168D01*
X0377501Y0290833D01*
Y0292166D01*
X0380167Y0287666D02*
X0380500Y0287999D01*
X0381167D01*
X0381500Y0287666D01*
Y0286333D01*
X0381167Y0286000D01*
X0380500D01*
X0380167Y0286333D01*
X0379501Y0287666D02*
X0379167Y0287999D01*
X0378501D01*
X0378168Y0287666D01*
Y0287333D01*
X0378501Y0287000D01*
X0378834D01*
X0378501D01*
X0378168Y0286666D01*
Y0286333D01*
X0378501Y0286000D01*
X0379167D01*
X0379501Y0286333D01*
X0376168Y0286000D02*
X0377501D01*
X0376168Y0287333D01*
Y0287666D01*
X0376502Y0287999D01*
X0377168D01*
X0377501Y0287666D01*
X0380167Y0283166D02*
X0380500Y0283499D01*
X0381167D01*
X0381500Y0283166D01*
Y0281833D01*
X0381167Y0281500D01*
X0380500D01*
X0380167Y0281833D01*
X0379501Y0283166D02*
X0379167Y0283499D01*
X0378501D01*
X0378168Y0283166D01*
Y0282833D01*
X0378501Y0282500D01*
X0378834D01*
X0378501D01*
X0378168Y0282166D01*
Y0281833D01*
X0378501Y0281500D01*
X0379167D01*
X0379501Y0281833D01*
X0377501Y0283166D02*
X0377168Y0283499D01*
X0376502D01*
X0376168Y0283166D01*
Y0282833D01*
X0376502Y0282500D01*
X0376835D01*
X0376502D01*
X0376168Y0282166D01*
Y0281833D01*
X0376502Y0281500D01*
X0377168D01*
X0377501Y0281833D01*
X0404167Y0294666D02*
X0404500Y0294999D01*
X0405167D01*
X0405500Y0294666D01*
Y0293333D01*
X0405167Y0293000D01*
X0404500D01*
X0404167Y0293333D01*
X0402501Y0293000D02*
Y0294999D01*
X0403501Y0294000D01*
X0402168D01*
X0401501Y0294666D02*
X0401168Y0294999D01*
X0400502D01*
X0400168Y0294666D01*
Y0293333D01*
X0400502Y0293000D01*
X0401168D01*
X0401501Y0293333D01*
Y0294666D01*
X0412166Y0266333D02*
X0412499Y0266000D01*
Y0265333D01*
X0412166Y0265000D01*
X0410833D01*
X0410500Y0265333D01*
Y0266000D01*
X0410833Y0266333D01*
X0410500Y0267999D02*
X0412499D01*
X0411500Y0266999D01*
Y0268332D01*
X0410500Y0268999D02*
Y0269665D01*
Y0269332D01*
X0412499D01*
X0412166Y0268999D01*
X0408666Y0265333D02*
X0408999Y0265000D01*
Y0264333D01*
X0408666Y0264000D01*
X0407333D01*
X0407000Y0264333D01*
Y0265000D01*
X0407333Y0265333D01*
X0407000Y0266999D02*
X0408999D01*
X0408000Y0265999D01*
Y0267332D01*
X0407000Y0269332D02*
Y0267999D01*
X0408333Y0269332D01*
X0408666D01*
X0408999Y0268998D01*
Y0268332D01*
X0408666Y0267999D01*
X0405166Y0265333D02*
X0405499Y0265000D01*
Y0264333D01*
X0405166Y0264000D01*
X0403833D01*
X0403500Y0264333D01*
Y0265000D01*
X0403833Y0265333D01*
X0403500Y0266999D02*
X0405499D01*
X0404500Y0265999D01*
Y0267332D01*
X0405166Y0267999D02*
X0405499Y0268332D01*
Y0268998D01*
X0405166Y0269332D01*
X0404833D01*
X0404500Y0268998D01*
Y0268665D01*
Y0268998D01*
X0404166Y0269332D01*
X0403833D01*
X0403500Y0268998D01*
Y0268332D01*
X0403833Y0267999D01*
X0401666Y0265333D02*
X0401999Y0265000D01*
Y0264333D01*
X0401666Y0264000D01*
X0400333D01*
X0400000Y0264333D01*
Y0265000D01*
X0400333Y0265333D01*
X0400000Y0266999D02*
X0401999D01*
X0401000Y0265999D01*
Y0267332D01*
X0400000Y0268998D02*
X0401999D01*
X0401000Y0267999D01*
Y0269332D01*
X0398166Y0265333D02*
X0398499Y0265000D01*
Y0264333D01*
X0398166Y0264000D01*
X0396833D01*
X0396500Y0264333D01*
Y0265000D01*
X0396833Y0265333D01*
X0396500Y0266999D02*
X0398499D01*
X0397500Y0265999D01*
Y0267332D01*
X0398499Y0269332D02*
Y0267999D01*
X0397500D01*
X0397833Y0268665D01*
Y0268998D01*
X0397500Y0269332D01*
X0396833D01*
X0396500Y0268998D01*
Y0268332D01*
X0396833Y0267999D01*
X0394666Y0265333D02*
X0394999Y0265000D01*
Y0264333D01*
X0394666Y0264000D01*
X0393333D01*
X0393000Y0264333D01*
Y0265000D01*
X0393333Y0265333D01*
X0393000Y0266999D02*
X0394999D01*
X0394000Y0265999D01*
Y0267332D01*
X0394999Y0269332D02*
X0394666Y0268665D01*
X0394000Y0267999D01*
X0393333D01*
X0393000Y0268332D01*
Y0268998D01*
X0393333Y0269332D01*
X0393666D01*
X0394000Y0268998D01*
Y0267999D01*
X0376166Y0339833D02*
X0376499Y0339500D01*
Y0338833D01*
X0376166Y0338500D01*
X0374833D01*
X0374500Y0338833D01*
Y0339500D01*
X0374833Y0339833D01*
X0376499Y0341832D02*
Y0340499D01*
X0375500D01*
X0375833Y0341166D01*
Y0341499D01*
X0375500Y0341832D01*
X0374833D01*
X0374500Y0341499D01*
Y0340833D01*
X0374833Y0340499D01*
X0376499Y0342499D02*
Y0343832D01*
X0376166D01*
X0374833Y0342499D01*
X0374500D01*
X0362167Y0302666D02*
X0362500Y0302999D01*
X0363167D01*
X0363500Y0302666D01*
Y0301333D01*
X0363167Y0301000D01*
X0362500D01*
X0362167Y0301333D01*
X0360168Y0302999D02*
X0361501D01*
Y0302000D01*
X0360834Y0302333D01*
X0360501D01*
X0360168Y0302000D01*
Y0301333D01*
X0360501Y0301000D01*
X0361167D01*
X0361501Y0301333D01*
X0359501Y0302666D02*
X0359168Y0302999D01*
X0358502D01*
X0358168Y0302666D01*
Y0302333D01*
X0358502Y0302000D01*
X0358168Y0301666D01*
Y0301333D01*
X0358502Y0301000D01*
X0359168D01*
X0359501Y0301333D01*
Y0301666D01*
X0359168Y0302000D01*
X0359501Y0302333D01*
Y0302666D01*
X0359168Y0302000D02*
X0358502D01*
X0362167Y0329666D02*
X0362500Y0329999D01*
X0363167D01*
X0363500Y0329666D01*
Y0328333D01*
X0363167Y0328000D01*
X0362500D01*
X0362167Y0328333D01*
X0360168Y0329999D02*
X0361501D01*
Y0329000D01*
X0360834Y0329333D01*
X0360501D01*
X0360168Y0329000D01*
Y0328333D01*
X0360501Y0328000D01*
X0361167D01*
X0361501Y0328333D01*
X0359501D02*
X0359168Y0328000D01*
X0358502D01*
X0358168Y0328333D01*
Y0329666D01*
X0358502Y0329999D01*
X0359168D01*
X0359501Y0329666D01*
Y0329333D01*
X0359168Y0329000D01*
X0358168D01*
X0379166Y0298833D02*
X0379499Y0298500D01*
Y0297833D01*
X0379166Y0297500D01*
X0377833D01*
X0377500Y0297833D01*
Y0298500D01*
X0377833Y0298833D01*
X0379499Y0300832D02*
X0379166Y0300166D01*
X0378500Y0299499D01*
X0377833D01*
X0377500Y0299833D01*
Y0300499D01*
X0377833Y0300832D01*
X0378166D01*
X0378500Y0300499D01*
Y0299499D01*
X0379166Y0301499D02*
X0379499Y0301832D01*
Y0302498D01*
X0379166Y0302832D01*
X0377833D01*
X0377500Y0302498D01*
Y0301832D01*
X0377833Y0301499D01*
X0379166D01*
X0393667Y0357666D02*
X0394000Y0357999D01*
X0394667D01*
X0395000Y0357666D01*
Y0356333D01*
X0394667Y0356000D01*
X0394000D01*
X0393667Y0356333D01*
X0391668Y0357999D02*
X0392334Y0357666D01*
X0393001Y0357000D01*
Y0356333D01*
X0392667Y0356000D01*
X0392001D01*
X0391668Y0356333D01*
Y0356666D01*
X0392001Y0357000D01*
X0393001D01*
X0391001Y0356000D02*
X0390335D01*
X0390668D01*
Y0357999D01*
X0391001Y0357666D01*
X0426166Y0348333D02*
X0426499Y0348000D01*
Y0347333D01*
X0426166Y0347000D01*
X0424833D01*
X0424500Y0347333D01*
Y0348000D01*
X0424833Y0348333D01*
X0426499Y0350332D02*
X0426166Y0349666D01*
X0425500Y0348999D01*
X0424833D01*
X0424500Y0349333D01*
Y0349999D01*
X0424833Y0350332D01*
X0425166D01*
X0425500Y0349999D01*
Y0348999D01*
X0424500Y0352332D02*
Y0350999D01*
X0425833Y0352332D01*
X0426166D01*
X0426499Y0351998D01*
Y0351332D01*
X0426166Y0350999D01*
X0430167Y0304666D02*
X0430500Y0304999D01*
X0431167D01*
X0431500Y0304666D01*
Y0303333D01*
X0431167Y0303000D01*
X0430500D01*
X0430167Y0303333D01*
X0428168Y0304999D02*
X0428834Y0304666D01*
X0429501Y0304000D01*
Y0303333D01*
X0429167Y0303000D01*
X0428501D01*
X0428168Y0303333D01*
Y0303666D01*
X0428501Y0304000D01*
X0429501D01*
X0427501Y0304666D02*
X0427168Y0304999D01*
X0426502D01*
X0426168Y0304666D01*
Y0304333D01*
X0426502Y0304000D01*
X0426835D01*
X0426502D01*
X0426168Y0303666D01*
Y0303333D01*
X0426502Y0303000D01*
X0427168D01*
X0427501Y0303333D01*
X0384667Y0302166D02*
X0385000Y0302499D01*
X0385667D01*
X0386000Y0302166D01*
Y0300833D01*
X0385667Y0300500D01*
X0385000D01*
X0384667Y0300833D01*
X0382668Y0302499D02*
X0383334Y0302166D01*
X0384001Y0301500D01*
Y0300833D01*
X0383667Y0300500D01*
X0383001D01*
X0382668Y0300833D01*
Y0301166D01*
X0383001Y0301500D01*
X0384001D01*
X0381002Y0300500D02*
Y0302499D01*
X0382001Y0301500D01*
X0380668D01*
X0433666Y0311333D02*
X0433999Y0311000D01*
Y0310333D01*
X0433666Y0310000D01*
X0432333D01*
X0432000Y0310333D01*
Y0311000D01*
X0432333Y0311333D01*
X0433999Y0313332D02*
X0433666Y0312666D01*
X0433000Y0311999D01*
X0432333D01*
X0432000Y0312333D01*
Y0312999D01*
X0432333Y0313332D01*
X0432666D01*
X0433000Y0312999D01*
Y0311999D01*
X0433999Y0315332D02*
Y0313999D01*
X0433000D01*
X0433333Y0314665D01*
Y0314998D01*
X0433000Y0315332D01*
X0432333D01*
X0432000Y0314998D01*
Y0314332D01*
X0432333Y0313999D01*
X0422667Y0358666D02*
X0423000Y0358999D01*
X0423667D01*
X0424000Y0358666D01*
Y0357333D01*
X0423667Y0357000D01*
X0423000D01*
X0422667Y0357333D01*
X0420668Y0358999D02*
X0421334Y0358666D01*
X0422001Y0358000D01*
Y0357333D01*
X0421667Y0357000D01*
X0421001D01*
X0420668Y0357333D01*
Y0357666D01*
X0421001Y0358000D01*
X0422001D01*
X0418668Y0358999D02*
X0419335Y0358666D01*
X0420001Y0358000D01*
Y0357333D01*
X0419668Y0357000D01*
X0419002D01*
X0418668Y0357333D01*
Y0357666D01*
X0419002Y0358000D01*
X0420001D01*
X0261086Y0475914D02*
X0262500Y0474500D01*
X0261793Y0473793D01*
X0261322Y0473793D01*
X0260379Y0474736D01*
Y0475207D01*
X0261086Y0475914D01*
X0258730Y0473558D02*
X0259437Y0473793D01*
X0260379D01*
X0260851Y0473322D01*
Y0472851D01*
X0260379Y0472379D01*
X0259908D01*
X0259672Y0472615D01*
Y0473086D01*
X0260379Y0473793D01*
X0259908Y0471437D02*
X0258966Y0470494D01*
X0258259Y0470259D02*
X0257316Y0471201D01*
X0256374D01*
Y0470259D01*
X0257316Y0469316D01*
X0256609Y0470023D01*
X0257552Y0470966D01*
X0262914Y0179414D02*
X0261500Y0178000D01*
X0260793Y0178707D01*
X0260793Y0179178D01*
X0261736Y0180121D01*
X0262207D01*
X0262914Y0179414D01*
X0260558Y0181770D02*
X0260793Y0181063D01*
Y0180121D01*
X0260322Y0179649D01*
X0259851D01*
X0259379Y0180121D01*
Y0180592D01*
X0259615Y0180827D01*
X0260086D01*
X0260793Y0180121D01*
X0258437Y0180592D02*
X0257494Y0181534D01*
X0258672Y0183655D02*
X0257259Y0182241D01*
X0256552Y0182948D01*
Y0183419D01*
X0256787Y0183655D01*
X0257259D01*
X0257966Y0182948D01*
X0257259Y0183655D01*
Y0184126D01*
X0257494Y0184362D01*
X0257966D01*
X0258672Y0183655D01*
X0548086Y0184914D02*
X0549500Y0183500D01*
X0548793Y0182793D01*
X0548322Y0182793D01*
X0547379Y0183736D01*
Y0184207D01*
X0548086Y0184914D01*
X0545730Y0182557D02*
X0546437Y0182793D01*
X0547379D01*
X0547851Y0182322D01*
Y0181851D01*
X0547379Y0181379D01*
X0546908D01*
X0546672Y0181615D01*
Y0182086D01*
X0547379Y0182793D01*
X0546908Y0180437D02*
X0545966Y0179494D01*
X0543138Y0179494D02*
Y0179966D01*
X0543609Y0180437D01*
X0544081Y0180437D01*
X0545023Y0179494D01*
Y0179023D01*
X0544552Y0178552D01*
X0544081D01*
X0549914Y0470914D02*
X0548500Y0469500D01*
X0547793Y0470207D01*
X0547793Y0470678D01*
X0548736Y0471621D01*
X0549207D01*
X0549914Y0470914D01*
X0547557Y0473270D02*
X0547793Y0472563D01*
Y0471621D01*
X0547322Y0471149D01*
X0546851D01*
X0546379Y0471621D01*
Y0472092D01*
X0546615Y0472328D01*
X0547086D01*
X0547793Y0471621D01*
X0545437Y0472092D02*
X0544494Y0473034D01*
X0545673Y0475155D02*
X0544259Y0473741D01*
X0543552Y0474448D01*
Y0474919D01*
X0544494Y0475862D01*
X0544966D01*
X0545673Y0475155D01*
X0373000Y0352499D02*
Y0350500D01*
X0371667D01*
X0371001D02*
X0370334D01*
X0370667D01*
Y0352499D01*
X0371001Y0352166D01*
X0367500Y0333000D02*
X0369499D01*
Y0334000D01*
X0369166Y0334333D01*
X0368500D01*
X0368166Y0334000D01*
Y0333000D01*
Y0333666D02*
X0367500Y0334333D01*
X0369499Y0334999D02*
Y0336332D01*
X0369166D01*
X0367833Y0334999D01*
X0367500D01*
X0439000Y0336500D02*
X0440999D01*
Y0337500D01*
X0440666Y0337833D01*
X0440000D01*
X0439666Y0337500D01*
Y0336500D01*
Y0337166D02*
X0439000Y0337833D01*
Y0338499D02*
Y0339166D01*
Y0338833D01*
X0440999D01*
X0440666Y0338499D01*
X0440999Y0341498D02*
Y0340165D01*
X0440000D01*
X0440333Y0340832D01*
Y0341165D01*
X0440000Y0341498D01*
X0439333D01*
X0439000Y0341165D01*
Y0340499D01*
X0439333Y0340165D01*
X0429500Y0343500D02*
X0431499D01*
Y0344500D01*
X0431166Y0344833D01*
X0430500D01*
X0430166Y0344500D01*
Y0343500D01*
Y0344166D02*
X0429500Y0344833D01*
Y0345499D02*
Y0346166D01*
Y0345833D01*
X0431499D01*
X0431166Y0345499D01*
X0431499Y0348498D02*
X0431166Y0347832D01*
X0430500Y0347165D01*
X0429833D01*
X0429500Y0347499D01*
Y0348165D01*
X0429833Y0348498D01*
X0430166D01*
X0430500Y0348165D01*
Y0347165D01*
X0366500Y0353499D02*
Y0351833D01*
X0366167Y0351500D01*
X0365500D01*
X0365167Y0351833D01*
Y0353499D01*
X0364501Y0353166D02*
X0364167Y0353499D01*
X0363501D01*
X0363168Y0353166D01*
Y0352833D01*
X0363501Y0352500D01*
X0363834D01*
X0363501D01*
X0363168Y0352166D01*
Y0351833D01*
X0363501Y0351500D01*
X0364167D01*
X0364501Y0351833D01*
X0391500Y0392999D02*
Y0391333D01*
X0391167Y0391000D01*
X0390500D01*
X0390167Y0391333D01*
Y0392999D01*
X0388501Y0391000D02*
Y0392999D01*
X0389501Y0392000D01*
X0388168D01*
X0455999Y0319000D02*
X0454333D01*
X0454000Y0319333D01*
Y0320000D01*
X0454333Y0320333D01*
X0455999D01*
Y0322332D02*
Y0320999D01*
X0455000D01*
X0455333Y0321666D01*
Y0321999D01*
X0455000Y0322332D01*
X0454333D01*
X0454000Y0321999D01*
Y0321333D01*
X0454333Y0320999D01*
X0374500Y0329499D02*
Y0329166D01*
X0373834Y0328500D01*
X0373167Y0329166D01*
Y0329499D01*
X0373834Y0328500D02*
Y0327500D01*
X0372501Y0329166D02*
X0372167Y0329499D01*
X0371501D01*
X0371168Y0329166D01*
Y0328833D01*
X0371501Y0328500D01*
X0371834D01*
X0371501D01*
X0371168Y0328166D01*
Y0327833D01*
X0371501Y0327500D01*
X0372167D01*
X0372501Y0327833D01*
X0383500Y0349499D02*
Y0347833D01*
X0383167Y0347500D01*
X0382500D01*
X0382167Y0347833D01*
Y0349499D01*
X0381501Y0347500D02*
X0380834D01*
X0381167D01*
Y0349499D01*
X0381501Y0349166D01*
X0429500Y0336500D02*
X0431499D01*
Y0337500D01*
X0431166Y0337833D01*
X0430500D01*
X0430166Y0337500D01*
Y0336500D01*
Y0337166D02*
X0429500Y0337833D01*
Y0339832D02*
Y0338499D01*
X0430833Y0339832D01*
X0431166D01*
X0431499Y0339499D01*
Y0338833D01*
X0431166Y0338499D01*
X0429833Y0340499D02*
X0429500Y0340832D01*
Y0341498D01*
X0429833Y0341832D01*
X0431166D01*
X0431499Y0341498D01*
Y0340832D01*
X0431166Y0340499D01*
X0430833D01*
X0430500Y0340832D01*
Y0341832D01*
X0476067Y0339166D02*
X0476400Y0339499D01*
X0477067D01*
X0477400Y0339166D01*
Y0337833D01*
X0477067Y0337500D01*
X0476400D01*
X0476067Y0337833D01*
X0474401Y0339499D02*
X0475067D01*
X0475401Y0339166D01*
Y0337833D01*
X0475067Y0337500D01*
X0474401D01*
X0474068Y0337833D01*
Y0339166D01*
X0474401Y0339499D01*
X0473401D02*
X0472735D01*
X0473068D01*
Y0337500D01*
X0473401D01*
X0472735D01*
X0471735Y0339499D02*
Y0337500D01*
X0470402D01*
X0444166Y0305833D02*
X0444499Y0305500D01*
Y0304833D01*
X0444166Y0304500D01*
X0442833D01*
X0442500Y0304833D01*
Y0305500D01*
X0442833Y0305833D01*
X0444499Y0306499D02*
Y0307832D01*
X0444166D01*
X0442833Y0306499D01*
X0442500D01*
Y0309498D02*
X0444499D01*
X0443500Y0308499D01*
Y0309832D01*
X0441166Y0305833D02*
X0441499Y0305500D01*
Y0304833D01*
X0441166Y0304500D01*
X0439833D01*
X0439500Y0304833D01*
Y0305500D01*
X0439833Y0305833D01*
X0441499Y0306499D02*
Y0307832D01*
X0441166D01*
X0439833Y0306499D01*
X0439500D01*
X0441499Y0309832D02*
Y0308499D01*
X0440500D01*
X0440833Y0309165D01*
Y0309498D01*
X0440500Y0309832D01*
X0439833D01*
X0439500Y0309498D01*
Y0308832D01*
X0439833Y0308499D01*
X0446167Y0347666D02*
X0446500Y0347999D01*
X0447167D01*
X0447500Y0347666D01*
Y0346333D01*
X0447167Y0346000D01*
X0446500D01*
X0446167Y0346333D01*
X0445501Y0347999D02*
X0444168D01*
Y0347666D01*
X0445501Y0346333D01*
Y0346000D01*
X0442168Y0347999D02*
X0442835Y0347666D01*
X0443501Y0347000D01*
Y0346333D01*
X0443168Y0346000D01*
X0442502D01*
X0442168Y0346333D01*
Y0346666D01*
X0442502Y0347000D01*
X0443501D01*
X0446167Y0338166D02*
X0446500Y0338499D01*
X0447167D01*
X0447500Y0338166D01*
Y0336833D01*
X0447167Y0336500D01*
X0446500D01*
X0446167Y0336833D01*
X0445501Y0338499D02*
X0444168D01*
Y0338166D01*
X0445501Y0336833D01*
Y0336500D01*
X0443501Y0338499D02*
X0442168D01*
Y0338166D01*
X0443501Y0336833D01*
Y0336500D01*
X0447166Y0305833D02*
X0447499Y0305500D01*
Y0304833D01*
X0447166Y0304500D01*
X0445833D01*
X0445500Y0304833D01*
Y0305500D01*
X0445833Y0305833D01*
X0447499Y0306499D02*
Y0307832D01*
X0447166D01*
X0445833Y0306499D01*
X0445500D01*
X0447166Y0308499D02*
X0447499Y0308832D01*
Y0309498D01*
X0447166Y0309832D01*
X0446833D01*
X0446500Y0309498D01*
X0446166Y0309832D01*
X0445833D01*
X0445500Y0309498D01*
Y0308832D01*
X0445833Y0308499D01*
X0446166D01*
X0446500Y0308832D01*
X0446833Y0308499D01*
X0447166D01*
X0446500Y0308832D02*
Y0309498D01*
X0462167Y0350666D02*
X0462500Y0350999D01*
X0463167D01*
X0463500Y0350666D01*
Y0349333D01*
X0463167Y0349000D01*
X0462500D01*
X0462167Y0349333D01*
X0461501Y0350999D02*
X0460168D01*
Y0350666D01*
X0461501Y0349333D01*
Y0349000D01*
X0459501Y0349333D02*
X0459168Y0349000D01*
X0458502D01*
X0458168Y0349333D01*
Y0350666D01*
X0458502Y0350999D01*
X0459168D01*
X0459501Y0350666D01*
Y0350333D01*
X0459168Y0350000D01*
X0458168D01*
X0443667Y0353666D02*
X0444000Y0353999D01*
X0444667D01*
X0445000Y0353666D01*
Y0352333D01*
X0444667Y0352000D01*
X0444000D01*
X0443667Y0352333D01*
X0443001Y0353666D02*
X0442667Y0353999D01*
X0442001D01*
X0441668Y0353666D01*
Y0353333D01*
X0442001Y0353000D01*
X0441668Y0352666D01*
Y0352333D01*
X0442001Y0352000D01*
X0442667D01*
X0443001Y0352333D01*
Y0352666D01*
X0442667Y0353000D01*
X0443001Y0353333D01*
Y0353666D01*
X0442667Y0353000D02*
X0442001D01*
X0441001Y0353666D02*
X0440668Y0353999D01*
X0440002D01*
X0439668Y0353666D01*
Y0352333D01*
X0440002Y0352000D01*
X0440668D01*
X0441001Y0352333D01*
Y0353666D01*
X0436000Y0349500D02*
X0437999D01*
Y0350500D01*
X0437666Y0350833D01*
X0437000D01*
X0436666Y0350500D01*
Y0349500D01*
Y0350166D02*
X0436000Y0350833D01*
X0437666Y0351499D02*
X0437999Y0351833D01*
Y0352499D01*
X0437666Y0352832D01*
X0437333D01*
X0437000Y0352499D01*
Y0352166D01*
Y0352499D01*
X0436666Y0352832D01*
X0436333D01*
X0436000Y0352499D01*
Y0351833D01*
X0436333Y0351499D01*
X0436000Y0354832D02*
Y0353499D01*
X0437333Y0354832D01*
X0437666D01*
X0437999Y0354498D01*
Y0353832D01*
X0437666Y0353499D01*
X0397666Y0375833D02*
X0397999Y0375500D01*
Y0374833D01*
X0397666Y0374500D01*
X0396333D01*
X0396000Y0374833D01*
Y0375500D01*
X0396333Y0375833D01*
X0397666Y0376499D02*
X0397999Y0376833D01*
Y0377499D01*
X0397666Y0377832D01*
X0397333D01*
X0397000Y0377499D01*
X0396666Y0377832D01*
X0396333D01*
X0396000Y0377499D01*
Y0376833D01*
X0396333Y0376499D01*
X0396666D01*
X0397000Y0376833D01*
X0397333Y0376499D01*
X0397666D01*
X0397000Y0376833D02*
Y0377499D01*
X0396000Y0378499D02*
Y0379165D01*
Y0378832D01*
X0397999D01*
X0397666Y0378499D01*
X0407000Y0375499D02*
Y0373500D01*
X0406000D01*
X0405667Y0373833D01*
Y0375166D01*
X0406000Y0375499D01*
X0407000D01*
X0405001Y0375166D02*
X0404667Y0375499D01*
X0404001D01*
X0403668Y0375166D01*
Y0374833D01*
X0404001Y0374500D01*
X0403668Y0374166D01*
Y0373833D01*
X0404001Y0373500D01*
X0404667D01*
X0405001Y0373833D01*
Y0374166D01*
X0404667Y0374500D01*
X0405001Y0374833D01*
Y0375166D01*
X0404667Y0374500D02*
X0404001D01*
X0377000Y0359500D02*
X0378999D01*
Y0360500D01*
X0378666Y0360833D01*
X0378000D01*
X0377666Y0360500D01*
Y0359500D01*
Y0360166D02*
X0377000Y0360833D01*
X0378666Y0361499D02*
X0378999Y0361833D01*
Y0362499D01*
X0378666Y0362832D01*
X0378333D01*
X0378000Y0362499D01*
Y0362166D01*
Y0362499D01*
X0377666Y0362832D01*
X0377333D01*
X0377000Y0362499D01*
Y0361833D01*
X0377333Y0361499D01*
X0378666Y0363499D02*
X0378999Y0363832D01*
Y0364498D01*
X0378666Y0364832D01*
X0378333D01*
X0378000Y0364498D01*
Y0364165D01*
Y0364498D01*
X0377666Y0364832D01*
X0377333D01*
X0377000Y0364498D01*
Y0363832D01*
X0377333Y0363499D01*
X0382000Y0354500D02*
Y0356499D01*
X0381000D01*
X0380667Y0356166D01*
Y0355500D01*
X0381000Y0355166D01*
X0382000D01*
X0381334D02*
X0380667Y0354500D01*
X0380001Y0356166D02*
X0379667Y0356499D01*
X0379001D01*
X0378668Y0356166D01*
Y0355833D01*
X0379001Y0355500D01*
X0379334D01*
X0379001D01*
X0378668Y0355166D01*
Y0354833D01*
X0379001Y0354500D01*
X0379667D01*
X0380001Y0354833D01*
X0377002Y0354500D02*
Y0356499D01*
X0378001Y0355500D01*
X0376668D01*
X0396500Y0368999D02*
Y0367333D01*
X0396167Y0367000D01*
X0395500D01*
X0395167Y0367333D01*
Y0368999D01*
X0394501Y0367000D02*
X0393834D01*
X0394167D01*
Y0368999D01*
X0394501Y0368666D01*
X0391502Y0367000D02*
X0392834D01*
X0391502Y0368333D01*
Y0368666D01*
X0391835Y0368999D01*
X0392501D01*
X0392834Y0368666D01*
D100*
X0458250Y0333000D02*
X0458499Y0332750D01*
Y0332250D01*
X0458250Y0332000D01*
X0457250D01*
X0457000Y0332250D01*
Y0332750D01*
X0457250Y0333000D01*
X0457000Y0333500D02*
Y0333999D01*
Y0333749D01*
X0458499D01*
X0458250Y0333500D01*
Y0334749D02*
X0458499Y0334999D01*
Y0335499D01*
X0458250Y0335749D01*
X0458000D01*
X0457750Y0335499D01*
Y0335249D01*
Y0335499D01*
X0457500Y0335749D01*
X0457250D01*
X0457000Y0335499D01*
Y0334999D01*
X0457250Y0334749D01*
X0413500Y0360500D02*
Y0362000D01*
X0412750D01*
X0412500Y0361750D01*
Y0361250D01*
X0412750Y0361000D01*
X0413500D01*
X0413000D02*
X0412500Y0360500D01*
X0411001D02*
X0412001D01*
X0411001Y0361500D01*
Y0361750D01*
X0411251Y0362000D01*
X0411751D01*
X0412001Y0361750D01*
X0409751Y0360500D02*
Y0362000D01*
X0410501Y0361250D01*
X0409501D01*
X0419000Y0360500D02*
Y0362000D01*
X0418250D01*
X0418000Y0361750D01*
Y0361250D01*
X0418250Y0361000D01*
X0419000D01*
X0418500D02*
X0418000Y0360500D01*
X0416501D02*
X0417500D01*
X0416501Y0361500D01*
Y0361750D01*
X0416751Y0362000D01*
X0417251D01*
X0417500Y0361750D01*
X0415001Y0362000D02*
X0416001D01*
Y0361250D01*
X0415501Y0361500D01*
X0415251D01*
X0415001Y0361250D01*
Y0360750D01*
X0415251Y0360500D01*
X0415751D01*
X0416001Y0360750D01*
D172*
X0390992Y0313811D02*
G03*
X0390992Y0313811I-0001181J0000000D01*
G01*
D173*
X0418993Y0257029D02*
Y0259528D01*
X0420243D01*
X0420659Y0259111D01*
Y0258278D01*
X0420243Y0257862D01*
X0418993D01*
X0418160Y0259528D02*
Y0258278D01*
X0417744Y0257862D01*
X0416494D01*
Y0259528D01*
X0415245D02*
X0414411D01*
X0413995Y0259111D01*
Y0257862D01*
X0415245D01*
X0415661Y0258278D01*
X0415245Y0258695D01*
X0413995D01*
X0411496Y0260361D02*
Y0257862D01*
X0412745D01*
X0413162Y0258278D01*
Y0259111D01*
X0412745Y0259528D01*
X0411496D01*
X0410246Y0259944D02*
Y0259528D01*
X0410663D01*
X0409830D01*
X0410246D01*
Y0258278D01*
X0409830Y0257862D01*
X0408580Y0260361D02*
Y0257862D01*
Y0259111D01*
X0408163Y0259528D01*
X0407331D01*
X0406914Y0259111D01*
Y0257862D01*
X0406081D02*
X0405248D01*
X0405664D01*
Y0259528D01*
X0406081D01*
X0403998Y0257862D02*
Y0259528D01*
X0402749D01*
X0402332Y0259111D01*
Y0257862D01*
X0400666Y0257029D02*
X0400249D01*
X0399833Y0257445D01*
Y0259528D01*
X0401083D01*
X0401499Y0259111D01*
Y0258278D01*
X0401083Y0257862D01*
X0399833D01*
X0399000Y0259528D02*
Y0258278D01*
X0398583Y0257862D01*
X0397334D01*
Y0257445D01*
X0397750Y0257029D01*
X0398167D01*
X0397334Y0257862D02*
Y0259528D01*
X0394002D02*
X0393168Y0257862D01*
X0392335Y0259528D01*
X0389836Y0257862D02*
X0391502D01*
X0389836Y0259528D01*
Y0259944D01*
X0390253Y0260361D01*
X0391086D01*
X0391502Y0259944D01*
X0389003Y0257862D02*
Y0258278D01*
X0388586D01*
Y0257862D01*
X0389003D01*
X0386920Y0259944D02*
X0386504Y0260361D01*
X0385671D01*
X0385254Y0259944D01*
Y0258278D01*
X0385671Y0257862D01*
X0386504D01*
X0386920Y0258278D01*
Y0259944D01*
X0418577Y0252590D02*
Y0255089D01*
X0417327D01*
X0416911Y0254672D01*
Y0253839D01*
X0417327Y0253423D01*
X0418577D01*
X0417744D02*
X0416911Y0252590D01*
X0415661Y0254256D02*
X0414828D01*
X0414411Y0253839D01*
Y0252590D01*
X0415661D01*
X0416078Y0253006D01*
X0415661Y0253423D01*
X0414411D01*
X0413578Y0251756D02*
Y0254256D01*
X0412329D01*
X0411912Y0253839D01*
Y0253006D01*
X0412329Y0252590D01*
X0413578D01*
X0411079Y0255089D02*
Y0252590D01*
Y0253839D01*
X0410663Y0254256D01*
X0409830D01*
X0409413Y0253839D01*
Y0252590D01*
X0408163Y0254256D02*
X0407331D01*
X0406914Y0253839D01*
Y0252590D01*
X0408163D01*
X0408580Y0253006D01*
X0408163Y0253423D01*
X0406914D01*
X0404831Y0252590D02*
X0405664D01*
X0406081Y0253006D01*
Y0253839D01*
X0405664Y0254256D01*
X0404831D01*
X0404415Y0253839D01*
Y0253423D01*
X0406081D01*
X0403582Y0252590D02*
X0402749D01*
X0403165D01*
Y0255089D01*
X0403582D01*
X0397334Y0254672D02*
X0397750Y0255089D01*
X0398583D01*
X0399000Y0254672D01*
Y0253006D01*
X0398583Y0252590D01*
X0397750D01*
X0397334Y0253006D01*
X0396501Y0255089D02*
Y0252590D01*
Y0253839D01*
X0396084Y0254256D01*
X0395251D01*
X0394834Y0253839D01*
Y0252590D01*
X0393585Y0254256D02*
X0392752D01*
X0392335Y0253839D01*
Y0252590D01*
X0393585D01*
X0394002Y0253006D01*
X0393585Y0253423D01*
X0392335D01*
X0391502Y0252590D02*
Y0254256D01*
X0390253D01*
X0389836Y0253839D01*
Y0252590D01*
X0388170Y0251756D02*
X0387754D01*
X0387337Y0252173D01*
Y0254256D01*
X0388586D01*
X0389003Y0253839D01*
Y0253006D01*
X0388586Y0252590D01*
X0387337D01*
M02*
