G04 Layer_Color=32896*
%FSAX24Y24*%
%MOIN*%
G70*
G01*
G75*
%ADD33C,0.0100*%
%ADD56C,0.0098*%
%ADD60C,0.0079*%
%ADD61C,0.0050*%
%ADD106C,0.0039*%
%ADD107C,0.0236*%
G04:AMPARAMS|DCode=108|XSize=30.6mil|YSize=102.4mil|CornerRadius=0mil|HoleSize=0mil|Usage=FLASHONLY|Rotation=135.000|XOffset=0mil|YOffset=0mil|HoleType=Round|Shape=Rectangle|*
%AMROTATEDRECTD108*
4,1,4,0.0470,0.0254,-0.0254,-0.0470,-0.0470,-0.0254,0.0254,0.0470,0.0470,0.0254,0.0*
%
%ADD108ROTATEDRECTD108*%

D33*
X048850Y032147D02*
G03*
X048850Y032147I-000050J000000D01*
G01*
X052514Y033066D02*
G03*
X052514Y033066I-000039J000000D01*
G01*
X052385Y026645D02*
X052817Y027077D01*
X053411Y025620D02*
X053842Y026051D01*
D56*
X049449Y032396D02*
G03*
X049449Y032396I-000049J000000D01*
G01*
X047069Y030475D02*
G03*
X047069Y030475I-000049J000000D01*
G01*
X053083Y028694D02*
G03*
X053083Y028694I-000049J000000D01*
G01*
D60*
X043502Y023449D02*
X043658Y023293D01*
X044543Y022408D02*
X044699Y022252D01*
Y024646D02*
X044855Y024490D01*
X045740Y023605D02*
X045896Y023449D01*
X043502D02*
X043614Y023561D01*
X044588Y024535D02*
X044699Y024646D01*
Y022252D02*
X044811Y022364D01*
X045785Y023338D02*
X045896Y023449D01*
X055836Y022217D02*
X055992Y022373D01*
X056877Y023258D02*
X057033Y023414D01*
X054639D02*
X054795Y023570D01*
X055680Y024455D02*
X055836Y024611D01*
X055725Y022328D02*
X055836Y022217D01*
X054639Y023414D02*
X054750Y023303D01*
X056922Y023525D02*
X057033Y023414D01*
X055836Y024611D02*
X055947Y024500D01*
X056842Y034707D02*
X056998Y034551D01*
X055801Y035748D02*
X055957Y035592D01*
X055645Y033510D02*
X055801Y033354D01*
X054604Y034551D02*
X054760Y034395D01*
X056887Y034439D02*
X056998Y034551D01*
X055801Y033354D02*
X055912Y033465D01*
X055689Y035636D02*
X055801Y035748D01*
X054604Y034551D02*
X054715Y034662D01*
X044543Y035592D02*
X044699Y035748D01*
X043502Y034551D02*
X043658Y034707D01*
X045740Y034395D02*
X045896Y034551D01*
X044699Y033354D02*
X044855Y033510D01*
X044699Y035748D02*
X044811Y035636D01*
X045785Y034662D02*
X045896Y034551D01*
X043502D02*
X043614Y034439D01*
X044588Y033465D02*
X044699Y033354D01*
X053003Y030644D02*
X053838Y031479D01*
X051611Y032036D02*
X052446Y032871D01*
X053115Y032203D02*
X053170Y032147D01*
X052781Y032537D02*
X052808Y032509D01*
X053477Y031841D02*
X053504Y031813D01*
X052641Y031006D02*
X052669Y030978D01*
X052279Y031368D02*
X052335Y031312D01*
X051945Y031702D02*
X051973Y031674D01*
X048217Y032855D02*
X048940Y033579D01*
X047845Y033227D02*
X048217Y032855D01*
X048940Y033579D02*
X048940Y033579D01*
X048569Y033951D02*
X048940Y033579D01*
X047280Y030811D02*
X047462Y030994D01*
X048044Y031575D02*
X048227Y031758D01*
X046334D02*
X046516Y031940D01*
X047098Y032522D02*
X047280Y032704D01*
X047162Y030930D02*
X047280Y030811D01*
X046334Y031758D02*
X046452Y031639D01*
X048108Y031876D02*
X048227Y031758D01*
X047280Y032704D02*
X047398Y032586D01*
X046504Y030823D02*
X046699Y030628D01*
X045669Y029988D02*
X045864Y029793D01*
X046699Y030628D01*
X045669Y029988D02*
X046504Y030823D01*
X045581Y030884D02*
X045609Y030911D01*
X045275Y031190D02*
X045302Y031218D01*
X047884Y029000D02*
X050250Y026634D01*
Y031366D02*
X052616Y029000D01*
X047884D02*
X050250Y031366D01*
Y026634D02*
X052616Y029000D01*
D61*
X052230Y033101D02*
X052348Y032983D01*
Y032936D01*
X052301Y032889D01*
X052254Y032889D01*
X052136Y033007D01*
Y032724D02*
X052230Y032818D01*
X052041D01*
X052018Y032842D01*
Y032889D01*
X052065Y032936D01*
X052112Y032936D01*
X051876Y033125D02*
Y033172D01*
X051924Y033219D01*
X051971Y033219D01*
X052065Y033125D01*
Y033078D01*
X052018Y033031D01*
X051971Y033031D01*
X051829Y033078D02*
X051782Y033078D01*
X051735Y033031D01*
Y032983D01*
X051759Y032960D01*
X051806D01*
X051829Y032983D01*
X051806Y032960D01*
Y032913D01*
X051829Y032889D01*
X051876D01*
X051924Y032936D01*
Y032983D01*
X051688Y032936D02*
X051641D01*
X051594Y032889D01*
Y032842D01*
X051617Y032818D01*
X051664D01*
X051688Y032842D01*
X051664Y032818D01*
X051664Y032771D01*
X051688Y032748D01*
X051735Y032748D01*
X051782Y032795D01*
Y032842D01*
X050710Y032524D02*
Y032571D01*
X050757Y032618D01*
X050804Y032618D01*
X050898Y032524D01*
Y032477D01*
X050851Y032429D01*
X050804Y032429D01*
X050780Y032359D02*
X050733Y032312D01*
X050757Y032335D01*
X050615Y032477D01*
X050663Y032477D01*
X054151Y027621D02*
X054104D01*
X054057Y027668D01*
X054057Y027715D01*
X054151Y027810D01*
X054198D01*
X054245Y027763D01*
X054245Y027715D01*
X054410Y027598D02*
X054316Y027692D01*
Y027503D01*
X054292Y027480D01*
X054245D01*
X054198Y027527D01*
X054198Y027574D01*
X051817Y025076D02*
X051770D01*
X051723Y025123D01*
X051723Y025170D01*
X051817Y025264D01*
X051865D01*
X051912Y025217D01*
X051912Y025170D01*
X051865Y025029D02*
X051865Y024981D01*
X051912Y024934D01*
X051959D01*
X051982Y024958D01*
Y025005D01*
X051959Y025029D01*
X051982Y025005D01*
X052029D01*
X052053Y025029D01*
Y025076D01*
X052006Y025123D01*
X051959D01*
X047009Y027763D02*
X046962D01*
X046915Y027810D01*
X046915Y027857D01*
X047009Y027951D01*
X047056D01*
X047103Y027904D01*
X047103Y027857D01*
X047127Y027598D02*
X047103Y027668D01*
Y027763D01*
X047150Y027810D01*
X047198D01*
X047245Y027763D01*
Y027716D01*
X047221Y027692D01*
X047174D01*
X047103Y027763D01*
X051358Y025535D02*
X051311D01*
X051264Y025582D01*
X051264Y025629D01*
X051358Y025724D01*
X051405D01*
X051452Y025677D01*
X051452Y025629D01*
X051523Y025606D02*
X051570Y025559D01*
X051546Y025582D01*
X051405Y025441D01*
X051405Y025488D01*
X051523Y025370D02*
X051523Y025323D01*
X051570Y025276D01*
X051617D01*
X051711Y025370D01*
X051711Y025417D01*
X051664Y025465D01*
X051617D01*
X051523Y025370D01*
X048353Y032005D02*
X048305D01*
X048258Y032052D01*
X048258Y032100D01*
X048353Y032194D01*
X048400D01*
X048447Y032147D01*
X048447Y032100D01*
X048612Y031982D02*
X048518Y032076D01*
Y031887D01*
X048494Y031864D01*
X048447D01*
X048400Y031911D01*
X048400Y031958D01*
X048659Y031935D02*
X048706Y031887D01*
X048682Y031911D01*
X048541Y031770D01*
Y031817D01*
X045347Y032111D02*
X045300D01*
X045253Y032158D01*
X045253Y032206D01*
X045347Y032300D01*
X045395D01*
X045442Y032253D01*
X045442Y032206D01*
X045607Y032088D02*
X045512Y032182D01*
Y031994D01*
X045489Y031970D01*
X045442D01*
X045395Y032017D01*
X045395Y032064D01*
X045748Y031946D02*
X045654Y032041D01*
Y031852D01*
X045630Y031829D01*
X045583D01*
X045536Y031876D01*
Y031923D01*
X043049Y033914D02*
X043002D01*
X042955Y033962D01*
X042955Y034009D01*
X043049Y034103D01*
X043096D01*
X043144Y034056D01*
X043144Y034009D01*
X043308Y033891D02*
X043214Y033985D01*
Y033797D01*
X043191Y033773D01*
X043144D01*
X043096Y033820D01*
X043096Y033867D01*
X043426Y033773D02*
X043285Y033632D01*
Y033773D01*
X043379Y033679D01*
X055164Y036201D02*
Y036248D01*
X055212Y036295D01*
X055259Y036295D01*
X055353Y036201D01*
Y036154D01*
X055306Y036106D01*
X055259Y036106D01*
X055141Y035942D02*
X055235Y036036D01*
X055047D01*
X055023Y036059D01*
Y036106D01*
X055070Y036154D01*
X055117Y036154D01*
X054858Y035942D02*
X054929Y035965D01*
X055023D01*
X055070Y035918D01*
Y035871D01*
X055023Y035824D01*
X054976Y035824D01*
X054952Y035847D01*
X054952Y035894D01*
X055023Y035965D01*
X057227Y024192D02*
X057180D01*
X057133Y024239D01*
X057133Y024286D01*
X057227Y024380D01*
X057274D01*
X057321Y024333D01*
X057321Y024286D01*
X057486Y024168D02*
X057392Y024262D01*
Y024074D01*
X057368Y024050D01*
X057321D01*
X057274Y024097D01*
X057274Y024145D01*
X057510Y024097D02*
X057557D01*
X057604Y024050D01*
X057604Y024003D01*
X057510Y023909D01*
X057462D01*
X057415Y023956D01*
Y024003D01*
X057439Y024027D01*
X057486Y024027D01*
X057557Y023956D01*
X045406Y022059D02*
Y022106D01*
X045454Y022153D01*
X045501Y022153D01*
X045595Y022059D01*
Y022011D01*
X045548Y021964D01*
X045501Y021964D01*
X045359Y022011D02*
X045312Y022011D01*
X045265Y021964D01*
Y021917D01*
X045289Y021894D01*
X045336D01*
X045359Y021917D01*
X045336Y021894D01*
Y021846D01*
X045359Y021823D01*
X045406D01*
X045454Y021870D01*
Y021917D01*
X045241Y021658D02*
X045336Y021752D01*
X045147D01*
X045124Y021776D01*
Y021823D01*
X045171Y021870D01*
X045218D01*
X047598Y034692D02*
X047740Y034551D01*
X047669Y034480D01*
X047622Y034480D01*
X047528Y034574D01*
Y034621D01*
X047598Y034692D01*
X047457Y034551D02*
X047363Y034457D01*
X047386Y034433D01*
X047575D01*
X047598Y034409D01*
X050109Y032889D02*
X049967Y033030D01*
X049897Y032960D01*
Y032913D01*
X049944Y032866D01*
X049991Y032866D01*
X050061Y032936D01*
X050014Y032889D02*
Y032795D01*
X049967Y032748D02*
X049920Y032701D01*
X049944Y032724D01*
X049802Y032866D01*
X049849Y032866D01*
X050391Y032677D02*
X050250Y032818D01*
X050179Y032748D01*
Y032701D01*
X050226Y032653D01*
X050274Y032653D01*
X050344Y032724D01*
X050297Y032677D02*
Y032583D01*
X050156Y032441D02*
X050250Y032536D01*
X050062D01*
X050038Y032559D01*
Y032606D01*
X050085Y032653D01*
X050132Y032653D01*
X044522Y026596D02*
X044381Y026454D01*
X044452Y026384D01*
X044499D01*
X044546Y026431D01*
X044546Y026478D01*
X044475Y026549D01*
X044522Y026502D02*
X044617D01*
X044546Y026337D02*
X044546Y026290D01*
X044593Y026242D01*
X044640D01*
X044664Y026266D01*
Y026313D01*
X044640Y026337D01*
X044664Y026313D01*
X044711D01*
X044735Y026337D01*
Y026384D01*
X044687Y026431D01*
X044640D01*
X044911Y026207D02*
X044770Y026066D01*
X044841Y025995D01*
X044888D01*
X044935Y026042D01*
X044935Y026089D01*
X044864Y026160D01*
X044911Y026113D02*
X045006D01*
X045123Y025995D02*
X044982Y025853D01*
X044982Y025995D01*
X045076Y025901D01*
X053397Y030591D02*
X053255Y030450D01*
X053326Y030379D01*
X053373D01*
X053420Y030426D01*
X053420Y030473D01*
X053349Y030544D01*
X053397Y030497D02*
X053491D01*
Y030214D02*
X053397Y030308D01*
X053467Y030379D01*
X053491Y030308D01*
X053514Y030285D01*
X053562D01*
X053609Y030332D01*
Y030379D01*
X053562Y030426D01*
X053514D01*
X044718Y027570D02*
X044577Y027711D01*
X044506Y027640D01*
Y027593D01*
X044553Y027546D01*
X044601Y027546D01*
X044671Y027617D01*
X044624Y027570D02*
Y027475D01*
X044341D02*
X044412Y027499D01*
X044506D01*
X044553Y027452D01*
Y027405D01*
X044506Y027358D01*
X044459D01*
X044436Y027381D01*
Y027428D01*
X044506Y027499D01*
X045123Y027975D02*
X044982Y028116D01*
X044911Y028045D01*
Y027998D01*
X044959Y027951D01*
X045006Y027951D01*
X045076Y028022D01*
X045029Y027975D02*
Y027880D01*
X044841Y027975D02*
X044746Y027880D01*
X044770Y027857D01*
X044959D01*
X044982Y027833D01*
X045159Y031333D02*
X045017Y031475D01*
X044947Y031404D01*
Y031357D01*
X044994Y031310D01*
X045041Y031310D01*
X045112Y031381D01*
X045065Y031333D02*
Y031239D01*
X045017Y031192D02*
X044970Y031145D01*
X044994Y031169D01*
X044853Y031310D01*
X044900Y031310D01*
X044829Y031004D02*
X044688Y031145D01*
X044829D01*
X044735Y031051D01*
X050250Y031192D02*
X050368Y031074D01*
Y031027D01*
X050321Y030980D01*
X050274Y030980D01*
X050156Y031098D01*
X050250Y030909D02*
X050203Y030862D01*
X050226Y030886D01*
X050085Y031027D01*
X050132Y031027D01*
X047068Y032960D02*
X047186Y032842D01*
Y032795D01*
X047139Y032748D01*
X047092Y032748D01*
X046974Y032866D01*
X046832Y032724D02*
X046927Y032818D01*
X046997Y032748D01*
X046927Y032724D01*
X046903Y032701D01*
Y032653D01*
X046950Y032606D01*
X046997D01*
X047045Y032653D01*
Y032701D01*
X045017Y033455D02*
X045135Y033337D01*
Y033290D01*
X045088Y033243D01*
X045041Y033243D01*
X044923Y033360D01*
X044782Y033219D02*
X044853Y033243D01*
X044947D01*
X044994Y033196D01*
Y033148D01*
X044947Y033101D01*
X044900D01*
X044876Y033125D01*
Y033172D01*
X044947Y033243D01*
X054351Y034303D02*
X054469Y034421D01*
X054516D01*
X054563Y034374D01*
X054563Y034327D01*
X054446Y034209D01*
X054493Y034162D02*
X054587Y034068D01*
X054610Y034091D01*
Y034280D01*
X054634Y034303D01*
X045159Y030131D02*
X045277Y030249D01*
X045324D01*
X045371Y030202D01*
X045371Y030155D01*
X045253Y030037D01*
X045324Y030014D02*
X045324Y029966D01*
X045371Y029919D01*
X045418D01*
X045442Y029943D01*
Y029990D01*
X045489D01*
X045512Y030014D01*
Y030061D01*
X045465Y030108D01*
X045418D01*
X045395Y030084D01*
Y030037D01*
X045347D01*
X045324Y030014D01*
X045395Y030037D02*
X045442Y029990D01*
X055589Y024863D02*
X055707Y024746D01*
Y024698D01*
X055659Y024651D01*
X055612Y024651D01*
X055494Y024769D01*
X055565Y024604D02*
Y024557D01*
X055518Y024510D01*
X055471D01*
X055377Y024604D01*
Y024651D01*
X055424Y024698D01*
X055471Y024698D01*
X055494Y024675D01*
Y024628D01*
X055424Y024557D01*
X045831Y023732D02*
X045948Y023850D01*
X045996D01*
X046043Y023803D01*
X046043Y023756D01*
X045925Y023638D01*
X046113Y023732D02*
X046161Y023685D01*
X046137Y023709D01*
X045996Y023567D01*
X045996Y023614D01*
X046231D02*
X046278Y023567D01*
X046255Y023591D01*
X046113Y023449D01*
X046113Y023496D01*
X053078Y027939D02*
X053102Y027916D01*
Y027821D01*
X053008D01*
X052984Y027845D01*
X053102Y027821D02*
X053173Y027751D01*
X053078Y027657D02*
X053031Y027609D01*
X053055Y027633D01*
X052914Y027774D01*
X052961Y027774D01*
D106*
X046027Y023338D02*
G03*
X046027Y023338I-000020J000000D01*
G01*
X055967Y024722D02*
G03*
X055967Y024722I-000020J000000D01*
G01*
X054512Y034662D02*
G03*
X054512Y034662I-000020J000000D01*
G01*
X044608Y033242D02*
G03*
X044608Y033242I-000020J000000D01*
G01*
X047411Y032816D02*
G03*
X047411Y032816I-000020J000000D01*
G01*
D107*
X052178Y029000D02*
G03*
X052178Y029000I-000118J000000D01*
G01*
D108*
X048464Y033332D02*
D03*
M02*
