G04 Layer_Physical_Order=1*
G04 Layer_Color=255*
%FSAX24Y24*%
%MOIN*%
G70*
G01*
G75*
G04:AMPARAMS|DCode=10|XSize=21.7mil|YSize=17.7mil|CornerRadius=0mil|HoleSize=0mil|Usage=FLASHONLY|Rotation=45.000|XOffset=0mil|YOffset=0mil|HoleType=Round|Shape=Rectangle|*
%AMROTATEDRECTD10*
4,1,4,-0.0014,-0.0139,-0.0139,-0.0014,0.0014,0.0139,0.0139,0.0014,-0.0014,-0.0139,0.0*
%
%ADD10ROTATEDRECTD10*%

%ADD11P,0.0290X4X270.0*%
%ADD12P,0.0290X4X360.0*%
G04:AMPARAMS|DCode=13|XSize=63mil|YSize=55mil|CornerRadius=0mil|HoleSize=0mil|Usage=FLASHONLY|Rotation=135.000|XOffset=0mil|YOffset=0mil|HoleType=Round|Shape=Rectangle|*
%AMROTATEDRECTD13*
4,1,4,0.0417,-0.0028,0.0028,-0.0417,-0.0417,0.0028,-0.0028,0.0417,0.0417,-0.0028,0.0*
%
%ADD13ROTATEDRECTD13*%

G04:AMPARAMS|DCode=14|XSize=25.6mil|YSize=21.7mil|CornerRadius=0mil|HoleSize=0mil|Usage=FLASHONLY|Rotation=45.000|XOffset=0mil|YOffset=0mil|HoleType=Round|Shape=Rectangle|*
%AMROTATEDRECTD14*
4,1,4,-0.0014,-0.0167,-0.0167,-0.0014,0.0014,0.0167,0.0167,0.0014,-0.0014,-0.0167,0.0*
%
%ADD14ROTATEDRECTD14*%

G04:AMPARAMS|DCode=15|XSize=25.6mil|YSize=21.7mil|CornerRadius=0mil|HoleSize=0mil|Usage=FLASHONLY|Rotation=315.000|XOffset=0mil|YOffset=0mil|HoleType=Round|Shape=Rectangle|*
%AMROTATEDRECTD15*
4,1,4,-0.0167,0.0014,-0.0014,0.0167,0.0167,-0.0014,0.0014,-0.0167,-0.0167,0.0014,0.0*
%
%ADD15ROTATEDRECTD15*%

G04:AMPARAMS|DCode=16|XSize=32mil|YSize=36mil|CornerRadius=0mil|HoleSize=0mil|Usage=FLASHONLY|Rotation=45.000|XOffset=0mil|YOffset=0mil|HoleType=Round|Shape=Rectangle|*
%AMROTATEDRECTD16*
4,1,4,0.0014,-0.0240,-0.0240,0.0014,-0.0014,0.0240,0.0240,-0.0014,0.0014,-0.0240,0.0*
%
%ADD16ROTATEDRECTD16*%

G04:AMPARAMS|DCode=17|XSize=17.7mil|YSize=51.2mil|CornerRadius=0mil|HoleSize=0mil|Usage=FLASHONLY|Rotation=315.000|XOffset=0mil|YOffset=0mil|HoleType=Round|Shape=Round|*
%AMOVALD17*
21,1,0.0335,0.0177,0.0000,0.0000,45.0*
1,1,0.0177,-0.0118,-0.0118*
1,1,0.0177,0.0118,0.0118*
%
%ADD17OVALD17*%

G04:AMPARAMS|DCode=18|XSize=35.4mil|YSize=27.6mil|CornerRadius=0mil|HoleSize=0mil|Usage=FLASHONLY|Rotation=135.000|XOffset=0mil|YOffset=0mil|HoleType=Round|Shape=Rectangle|*
%AMROTATEDRECTD18*
4,1,4,0.0223,-0.0028,0.0028,-0.0223,-0.0223,0.0028,-0.0028,0.0223,0.0223,-0.0028,0.0*
%
%ADD18ROTATEDRECTD18*%

G04:AMPARAMS|DCode=19|XSize=21.7mil|YSize=17.7mil|CornerRadius=0mil|HoleSize=0mil|Usage=FLASHONLY|Rotation=315.000|XOffset=0mil|YOffset=0mil|HoleType=Round|Shape=Rectangle|*
%AMROTATEDRECTD19*
4,1,4,-0.0139,0.0014,-0.0014,0.0139,0.0139,-0.0014,0.0014,-0.0139,-0.0139,0.0014,0.0*
%
%ADD19ROTATEDRECTD19*%

G04:AMPARAMS|DCode=20|XSize=43.3mil|YSize=74.8mil|CornerRadius=0mil|HoleSize=0mil|Usage=FLASHONLY|Rotation=315.000|XOffset=0mil|YOffset=0mil|HoleType=Round|Shape=Rectangle|*
%AMROTATEDRECTD20*
4,1,4,-0.0418,-0.0111,0.0111,0.0418,0.0418,0.0111,-0.0111,-0.0418,-0.0418,-0.0111,0.0*
%
%ADD20ROTATEDRECTD20*%

G04:AMPARAMS|DCode=21|XSize=35.4mil|YSize=39.4mil|CornerRadius=0mil|HoleSize=0mil|Usage=FLASHONLY|Rotation=225.000|XOffset=0mil|YOffset=0mil|HoleType=Round|Shape=Rectangle|*
%AMROTATEDRECTD21*
4,1,4,-0.0014,0.0264,0.0264,-0.0014,0.0014,-0.0264,-0.0264,0.0014,-0.0014,0.0264,0.0*
%
%ADD21ROTATEDRECTD21*%

G04:AMPARAMS|DCode=22|XSize=35.4mil|YSize=39.4mil|CornerRadius=0mil|HoleSize=0mil|Usage=FLASHONLY|Rotation=315.000|XOffset=0mil|YOffset=0mil|HoleType=Round|Shape=Rectangle|*
%AMROTATEDRECTD22*
4,1,4,-0.0264,-0.0014,0.0014,0.0264,0.0264,0.0014,-0.0014,-0.0264,-0.0264,-0.0014,0.0*
%
%ADD22ROTATEDRECTD22*%

G04:AMPARAMS|DCode=23|XSize=48mil|YSize=56mil|CornerRadius=0mil|HoleSize=0mil|Usage=FLASHONLY|Rotation=225.000|XOffset=0mil|YOffset=0mil|HoleType=Round|Shape=Rectangle|*
%AMROTATEDRECTD23*
4,1,4,-0.0028,0.0368,0.0368,-0.0028,0.0028,-0.0368,-0.0368,0.0028,-0.0028,0.0368,0.0*
%
%ADD23ROTATEDRECTD23*%

G04:AMPARAMS|DCode=24|XSize=11.8mil|YSize=20.7mil|CornerRadius=0mil|HoleSize=0mil|Usage=FLASHONLY|Rotation=135.000|XOffset=0mil|YOffset=0mil|HoleType=Round|Shape=Rectangle|*
%AMROTATEDRECTD24*
4,1,4,0.0115,0.0031,-0.0031,-0.0115,-0.0115,-0.0031,0.0031,0.0115,0.0115,0.0031,0.0*
%
%ADD24ROTATEDRECTD24*%

G04:AMPARAMS|DCode=25|XSize=11.8mil|YSize=16.7mil|CornerRadius=0mil|HoleSize=0mil|Usage=FLASHONLY|Rotation=225.000|XOffset=0mil|YOffset=0mil|HoleType=Round|Shape=Rectangle|*
%AMROTATEDRECTD25*
4,1,4,-0.0017,0.0101,0.0101,-0.0017,0.0017,-0.0101,-0.0101,0.0017,-0.0017,0.0101,0.0*
%
%ADD25ROTATEDRECTD25*%

G04:AMPARAMS|DCode=26|XSize=9.8mil|YSize=33.1mil|CornerRadius=0mil|HoleSize=0mil|Usage=FLASHONLY|Rotation=45.000|XOffset=0mil|YOffset=0mil|HoleType=Round|Shape=Rectangle|*
%AMROTATEDRECTD26*
4,1,4,0.0082,-0.0152,-0.0152,0.0082,-0.0082,0.0152,0.0152,-0.0082,0.0082,-0.0152,0.0*
%
%ADD26ROTATEDRECTD26*%

G04:AMPARAMS|DCode=27|XSize=9.8mil|YSize=33.1mil|CornerRadius=0mil|HoleSize=0mil|Usage=FLASHONLY|Rotation=315.000|XOffset=0mil|YOffset=0mil|HoleType=Round|Shape=Rectangle|*
%AMROTATEDRECTD27*
4,1,4,-0.0152,-0.0082,0.0082,0.0152,0.0152,0.0082,-0.0082,-0.0152,-0.0152,-0.0082,0.0*
%
%ADD27ROTATEDRECTD27*%

%ADD28R,0.0750X0.0750*%
%ADD29R,0.0710X0.0750*%
%ADD30R,0.0140X0.0560*%
G04:AMPARAMS|DCode=31|XSize=65mil|YSize=40mil|CornerRadius=0mil|HoleSize=0mil|Usage=FLASHONLY|Rotation=135.000|XOffset=0mil|YOffset=0mil|HoleType=Round|Shape=Rectangle|*
%AMROTATEDRECTD31*
4,1,4,0.0371,-0.0088,0.0088,-0.0371,-0.0371,0.0088,-0.0088,0.0371,0.0371,-0.0088,0.0*
%
%ADD31ROTATEDRECTD31*%

G04:AMPARAMS|DCode=32|XSize=65mil|YSize=40mil|CornerRadius=0mil|HoleSize=0mil|Usage=FLASHONLY|Rotation=225.000|XOffset=0mil|YOffset=0mil|HoleType=Round|Shape=Rectangle|*
%AMROTATEDRECTD32*
4,1,4,0.0088,0.0371,0.0371,0.0088,-0.0088,-0.0371,-0.0371,-0.0088,0.0088,0.0371,0.0*
%
%ADD32ROTATEDRECTD32*%

%ADD33C,0.0100*%
%ADD34C,0.0200*%
%ADD35C,0.0150*%
%ADD36C,0.0630*%
%ADD37C,0.0591*%
%ADD38C,0.0650*%
%ADD39C,0.0400*%
%ADD40C,0.0300*%
%ADD41C,0.0197*%
G36*
X056201Y026164D02*
X056280Y025888D01*
X056390Y025622D01*
X056529Y025370D01*
X056696Y025136D01*
X056888Y024921D01*
X056890Y024923D01*
X058681Y023132D01*
X058713Y023095D01*
X058713Y023095D01*
X058749Y023062D01*
X059039Y022796D01*
X059390Y022527D01*
X059762Y022290D01*
X060154Y022085D01*
X060563Y021916D01*
X060734Y021862D01*
X060778Y021844D01*
X060778Y021844D01*
X060778Y021844D01*
X060862Y021820D01*
X061141Y021704D01*
X061406Y021558D01*
X061652Y021383D01*
X061877Y021182D01*
X062079Y020957D01*
X062253Y020710D01*
X062400Y020446D01*
X062515Y020167D01*
X062599Y019877D01*
X062649Y019579D01*
X062666Y019277D01*
X062649Y018976D01*
X062599Y018678D01*
X062515Y018388D01*
X062400Y018109D01*
X062253Y017844D01*
X062079Y017598D01*
X061877Y017373D01*
X061652Y017171D01*
X061406Y016997D01*
X061141Y016850D01*
X060862Y016735D01*
X060572Y016651D01*
X060274Y016601D01*
X059973Y016584D01*
X059671Y016601D01*
X059373Y016651D01*
X059083Y016735D01*
X058804Y016850D01*
X058540Y016997D01*
X058293Y017171D01*
X058068Y017373D01*
X057867Y017598D01*
X057692Y017844D01*
X057546Y018109D01*
X057430Y018388D01*
X057406Y018472D01*
X057406Y018472D01*
X057406Y018472D01*
X057387Y018517D01*
X057334Y018687D01*
X057165Y019096D01*
X056960Y019488D01*
X056723Y019860D01*
X056454Y020211D01*
X056155Y020537D01*
X056153Y020534D01*
X055720Y020967D01*
X055744Y021014D01*
X055801Y021002D01*
X055895Y021021D01*
X055730Y021186D01*
X055801Y021257D01*
X055730Y021328D01*
X055930Y021528D01*
X055931Y021531D01*
X055934Y021532D01*
X055986Y021567D01*
X057683Y023264D01*
X057718Y023316D01*
X057731Y023379D01*
Y023873D01*
X057718Y023936D01*
X057683Y023988D01*
X057506Y024165D01*
X056104Y025567D01*
Y026432D01*
X056154Y026436D01*
X056201Y026164D01*
D02*
G37*
G36*
X040829Y041399D02*
X041127Y041349D01*
X041417Y041265D01*
X041696Y041150D01*
X041960Y041003D01*
X042207Y040829D01*
X042432Y040627D01*
X042633Y040402D01*
X042808Y040156D01*
X042954Y039891D01*
X043070Y039612D01*
X043094Y039528D01*
X043094Y039528D01*
X043094Y039528D01*
X043113Y039483D01*
X043166Y039313D01*
X043335Y038904D01*
X043540Y038512D01*
X043777Y038140D01*
X044046Y037789D01*
X044311Y037500D01*
X044345Y037463D01*
X044347Y037466D01*
X044768Y037045D01*
X044749Y036993D01*
X044675Y036979D01*
X044841Y036814D01*
X044770Y036743D01*
X044841Y036672D01*
X044640Y036472D01*
X044640Y036469D01*
X044637Y036468D01*
X044585Y036433D01*
X042852Y034701D01*
X042817Y034648D01*
X042805Y034586D01*
Y034101D01*
X042817Y034039D01*
X042852Y033986D01*
X045472Y031366D01*
X045469Y031306D01*
X045469Y031306D01*
X045428Y031252D01*
X045401Y031189D01*
X045393Y031121D01*
X045396Y031093D01*
X044382Y030078D01*
X044346Y030026D01*
X044334Y029964D01*
Y027410D01*
X044284Y027391D01*
X044277Y027399D01*
X044277Y027399D01*
X044277D01*
X044233Y027555D01*
X044138Y028032D01*
X044081Y028514D01*
X044062Y029000D01*
X044081Y029486D01*
X044138Y029968D01*
X044233Y030445D01*
X044277Y030601D01*
X044277D01*
X044287Y030650D01*
X044299Y030694D01*
X044348Y030977D01*
X044364Y031265D01*
X044348Y031552D01*
X044299Y031836D01*
X044220Y032112D01*
X044110Y032378D01*
X043970Y032630D01*
X043804Y032864D01*
X043612Y033079D01*
X043610Y033077D01*
X041784Y034903D01*
X041787Y034905D01*
X041461Y035204D01*
X041110Y035473D01*
X040738Y035710D01*
X040346Y035915D01*
X039937Y036084D01*
X039766Y036138D01*
X039722Y036156D01*
X039722Y036156D01*
X039722Y036156D01*
X039638Y036180D01*
X039359Y036296D01*
X039094Y036442D01*
X038848Y036617D01*
X038623Y036818D01*
X038421Y037043D01*
X038247Y037290D01*
X038100Y037554D01*
X037985Y037833D01*
X037901Y038123D01*
X037851Y038421D01*
X037834Y038723D01*
X037851Y039024D01*
X037901Y039322D01*
X037985Y039612D01*
X038100Y039891D01*
X038247Y040156D01*
X038421Y040402D01*
X038623Y040627D01*
X038848Y040829D01*
X039094Y041003D01*
X039359Y041150D01*
X039638Y041265D01*
X039928Y041349D01*
X040226Y041399D01*
X040527Y041416D01*
X040829Y041399D01*
D02*
G37*
G36*
X060274D02*
X060572Y041349D01*
X060862Y041265D01*
X061141Y041150D01*
X061406Y041003D01*
X061652Y040829D01*
X061877Y040627D01*
X062079Y040402D01*
X062253Y040156D01*
X062400Y039891D01*
X062515Y039612D01*
X062599Y039322D01*
X062649Y039024D01*
X062666Y038723D01*
X062649Y038421D01*
X062599Y038123D01*
X062515Y037833D01*
X062400Y037554D01*
X062253Y037290D01*
X062079Y037043D01*
X061877Y036818D01*
X061652Y036617D01*
X061406Y036442D01*
X061141Y036296D01*
X060862Y036180D01*
X060778Y036156D01*
X060778Y036156D01*
X060778Y036156D01*
X060733Y036137D01*
X060563Y036084D01*
X060154Y035915D01*
X059762Y035710D01*
X059390Y035473D01*
X059039Y035204D01*
X058750Y034939D01*
X058713Y034905D01*
X058716Y034903D01*
X058247Y034434D01*
X058201Y034459D01*
X058212Y034515D01*
X058194Y034610D01*
X058028Y034445D01*
X057957Y034515D01*
X057887Y034445D01*
X057703Y034629D01*
X057679Y034631D01*
X057673Y034658D01*
X057638Y034711D01*
X055951Y036398D01*
X055898Y036433D01*
X055836Y036445D01*
X055341D01*
X055279Y036433D01*
X055226Y036398D01*
X053718Y034890D01*
X053026D01*
X053022Y034940D01*
X053086Y034951D01*
X053362Y035030D01*
X053628Y035140D01*
X053880Y035280D01*
X054114Y035446D01*
X054329Y035638D01*
X054327Y035640D01*
X056118Y037431D01*
X056155Y037463D01*
X056155Y037463D01*
X056188Y037499D01*
X056454Y037789D01*
X056723Y038140D01*
X056960Y038512D01*
X057165Y038904D01*
X057334Y039313D01*
X057388Y039484D01*
X057406Y039528D01*
X057406Y039528D01*
X057406Y039528D01*
X057430Y039612D01*
X057546Y039891D01*
X057692Y040156D01*
X057867Y040402D01*
X058068Y040627D01*
X058293Y040829D01*
X058540Y041003D01*
X058804Y041150D01*
X059083Y041265D01*
X059373Y041349D01*
X059671Y041399D01*
X059973Y041416D01*
X060274Y041399D01*
D02*
G37*
G36*
X051045Y031780D02*
X051300Y031525D01*
X051195Y031420D01*
X051529Y031086D01*
X051634Y031191D01*
X052441Y030384D01*
X052336Y030279D01*
X052537Y030077D01*
Y029571D01*
Y029380D01*
X052487Y029365D01*
X052447Y029426D01*
X052446Y029427D01*
X052446Y029427D01*
X052446Y029428D01*
X052415Y029465D01*
X052415Y029465D01*
X052343Y029537D01*
X052200Y029394D01*
X052058Y029536D01*
X052201Y029679D01*
X052129Y029751D01*
X052135Y029799D01*
X052195Y029859D01*
X051805Y030249D01*
X051415Y029859D01*
X050641D01*
X050620Y029909D01*
X050770Y030059D01*
X050887Y029943D01*
X051499Y030555D01*
X051109Y030945D01*
X051084Y030920D01*
X051036Y030914D01*
X050964Y030987D01*
X050821Y030844D01*
X050750Y030914D01*
X050680Y030844D01*
X050536Y030987D01*
X050464Y030914D01*
X050493Y030886D01*
X050392Y030784D01*
X050344Y030799D01*
X050341Y030814D01*
X050296Y030881D01*
X050328Y030913D01*
X050185Y031056D01*
X050326Y031197D01*
X050469Y031054D01*
X050541Y031127D01*
X050387Y031281D01*
X050403Y031335D01*
X050451Y031345D01*
X050285Y031510D01*
X050427Y031652D01*
X050592Y031486D01*
X050611Y031581D01*
X050592Y031678D01*
X050557Y031730D01*
X050584Y031780D01*
X051045D01*
D02*
G37*
G36*
X042299Y023541D02*
X042288Y023485D01*
X042306Y023390D01*
X042472Y023555D01*
X042543Y023485D01*
X042613Y023555D01*
X042813Y023355D01*
X042816Y023354D01*
X042817Y023352D01*
X042852Y023299D01*
X044585Y021567D01*
X044637Y021532D01*
X044699Y021519D01*
X045123D01*
X045186Y021532D01*
X045238Y021567D01*
X046817Y023146D01*
X047682D01*
X047686Y023096D01*
X047414Y023049D01*
X047138Y022970D01*
X046872Y022860D01*
X046620Y022720D01*
X046386Y022554D01*
X046171Y022362D01*
X046173Y022360D01*
X044382Y020569D01*
X044345Y020537D01*
X044345Y020537D01*
X044312Y020501D01*
X044046Y020211D01*
X043777Y019860D01*
X043540Y019488D01*
X043335Y019096D01*
X043166Y018687D01*
X043112Y018516D01*
X043094Y018472D01*
X043094Y018472D01*
X043094Y018472D01*
X043070Y018388D01*
X042954Y018109D01*
X042808Y017844D01*
X042633Y017598D01*
X042432Y017373D01*
X042207Y017171D01*
X041960Y016997D01*
X041696Y016850D01*
X041417Y016735D01*
X041127Y016651D01*
X040829Y016601D01*
X040527Y016584D01*
X040226Y016601D01*
X039928Y016651D01*
X039638Y016735D01*
X039359Y016850D01*
X039094Y016997D01*
X038848Y017171D01*
X038623Y017373D01*
X038421Y017598D01*
X038247Y017844D01*
X038100Y018109D01*
X037985Y018388D01*
X037901Y018678D01*
X037851Y018976D01*
X037834Y019277D01*
X037851Y019579D01*
X037901Y019877D01*
X037985Y020167D01*
X038100Y020446D01*
X038247Y020710D01*
X038421Y020957D01*
X038623Y021182D01*
X038848Y021383D01*
X039094Y021558D01*
X039359Y021704D01*
X039638Y021820D01*
X039722Y021844D01*
X039722Y021844D01*
X039722Y021844D01*
X039767Y021863D01*
X039937Y021916D01*
X040346Y022085D01*
X040738Y022290D01*
X041110Y022527D01*
X041461Y022796D01*
X041750Y023061D01*
X041787Y023095D01*
X041784Y023097D01*
X042253Y023566D01*
X042299Y023541D01*
D02*
G37*
G36*
X045001Y036110D02*
X044520Y035629D01*
X044887Y035263D01*
X045080Y035456D01*
X045256Y035279D01*
X045256Y035279D01*
X045292Y035255D01*
X045335Y035246D01*
X045796D01*
X045815Y035200D01*
X045724Y035109D01*
X045937Y034897D01*
X046149Y034685D01*
X046332Y034869D01*
X046761Y034440D01*
X046761Y034440D01*
X046797Y034416D01*
X046840Y034407D01*
X053367D01*
X053382Y034357D01*
X053328Y034321D01*
X053282Y034252D01*
X053265Y034170D01*
X053282Y034089D01*
X053328Y034019D01*
X053397Y033973D01*
X053479Y033957D01*
X053527Y033967D01*
X053668Y033827D01*
X053658Y033780D01*
X053675Y033698D01*
X053721Y033629D01*
X053790Y033583D01*
X053871Y033567D01*
X053953Y033583D01*
X054022Y033629D01*
X054068Y033698D01*
X054085Y033780D01*
X054068Y033862D01*
X054022Y033931D01*
X053953Y033977D01*
X053871Y033993D01*
X053825Y033984D01*
X053683Y034126D01*
X053692Y034170D01*
X053676Y034252D01*
X053629Y034321D01*
X053575Y034357D01*
X053590Y034407D01*
X054334D01*
X054334D01*
X054376Y034416D01*
X054412Y034440D01*
X054533Y034561D01*
X054726Y034368D01*
X055093Y034734D01*
X054557Y035270D01*
X055082Y035794D01*
X055617Y035259D01*
X055984Y035625D01*
X055534Y036075D01*
X055553Y036121D01*
X055769D01*
X057361Y034529D01*
Y034313D01*
X057315Y034294D01*
X056879Y034730D01*
X056513Y034363D01*
X056706Y034170D01*
X056523Y033988D01*
X056499Y033952D01*
X056491Y033910D01*
X056491Y033910D01*
Y033459D01*
X056445Y033440D01*
X056359Y033526D01*
X056147Y033313D01*
X055935Y033101D01*
X056093Y032944D01*
X055655Y032505D01*
X055655Y032505D01*
X055630Y032469D01*
X055622Y032427D01*
Y026890D01*
X055572Y026887D01*
X055563Y026957D01*
X055541Y027008D01*
X055412Y026879D01*
X055541Y026749D01*
X055563Y026800D01*
X055572Y026870D01*
X055622Y026867D01*
Y024952D01*
X055630Y024909D01*
X055655Y024873D01*
X055655Y024873D01*
X055846Y024681D01*
X055697Y024532D01*
X055341Y024887D01*
X055305Y024912D01*
X055262Y024920D01*
X055262D01*
X054849D01*
X054738Y025032D01*
X054534Y024828D01*
X054494Y024835D01*
X054485Y024862D01*
X054696Y025073D01*
X054487Y025282D01*
X054448Y025242D01*
X053940Y025750D01*
X053940Y025750D01*
X053904Y025774D01*
X053861Y025783D01*
X053861Y025783D01*
X053625Y025783D01*
X052398Y027009D01*
X052408Y027055D01*
X052391Y027137D01*
X052345Y027206D01*
X052276Y027252D01*
X052195Y027269D01*
X052168Y027263D01*
X052143Y027309D01*
X052373Y027540D01*
X052518D01*
X052754Y027303D01*
X053088Y027637D01*
X052727Y027999D01*
X052492Y027765D01*
X052452Y027769D01*
X052434Y027815D01*
X052434Y027816D01*
X052295Y027955D01*
X052170Y027830D01*
X052251Y027749D01*
X052249Y027730D01*
X052249Y027730D01*
X051510Y026991D01*
X051420Y027080D01*
X051224Y026884D01*
X051028Y026688D01*
X051168Y026549D01*
X051359Y026740D01*
X051405Y026722D01*
X051409Y026682D01*
X051251Y026523D01*
X051353Y026421D01*
X051232Y026300D01*
X051208Y026264D01*
X051199Y026221D01*
Y026221D01*
Y025854D01*
X051160Y025827D01*
X051114Y025758D01*
X051098Y025677D01*
X051114Y025595D01*
X051160Y025526D01*
X051229Y025480D01*
X051311Y025463D01*
X051392Y025480D01*
X051461Y025526D01*
X051508Y025595D01*
X051524Y025677D01*
X051508Y025758D01*
X051461Y025827D01*
X051422Y025854D01*
Y026175D01*
X051511Y026264D01*
X051613Y026162D01*
X051927Y026476D01*
X051977Y026455D01*
Y024803D01*
X051525Y024351D01*
X051369D01*
X051342Y024391D01*
X051273Y024437D01*
X051192Y024453D01*
X051110Y024437D01*
X051041Y024391D01*
X050995Y024322D01*
X050978Y024240D01*
X050995Y024158D01*
X051041Y024089D01*
X051110Y024043D01*
X051192Y024027D01*
X051273Y024043D01*
X051342Y024089D01*
X051369Y024129D01*
X051571Y024129D01*
X051571Y024129D01*
X051614Y024137D01*
X051650Y024161D01*
X052167Y024679D01*
X052167Y024679D01*
X052191Y024715D01*
X052200Y024757D01*
Y026589D01*
X052191Y026632D01*
X052167Y026668D01*
X052115Y026721D01*
X052125Y026773D01*
X052118Y026807D01*
X052161Y026849D01*
X052195Y026842D01*
X052241Y026852D01*
X053500Y025593D01*
X053500Y025593D01*
X053536Y025569D01*
X053579Y025560D01*
X053815D01*
X054290Y025085D01*
X054251Y025045D01*
X054276Y025020D01*
X054230Y024974D01*
X054205Y024999D01*
X053968Y024763D01*
X054174Y024557D01*
X054161Y024512D01*
X054163Y024509D01*
X054163Y024509D01*
X054223Y024449D01*
X054370Y024597D01*
X054441Y024526D01*
X054512Y024597D01*
X054645Y024463D01*
X054722Y024540D01*
X054721Y024541D01*
X054710Y024586D01*
X054728Y024604D01*
X054822Y024698D01*
X055216Y024698D01*
X055597Y024317D01*
X055592Y024300D01*
X055740Y024153D01*
X055598Y024011D01*
X055477Y024133D01*
X055467Y024082D01*
X055470Y024066D01*
X055435Y024031D01*
X055419Y024034D01*
X055368Y024024D01*
X055332Y024067D01*
X055351Y024113D01*
X055361Y024192D01*
X055351Y024270D01*
X055329Y024321D01*
X054929Y023921D01*
X054980Y023899D01*
X055058Y023889D01*
X055137Y023899D01*
X055183Y023918D01*
X055226Y023882D01*
X055216Y023831D01*
X055219Y023815D01*
X055184Y023780D01*
X055168Y023783D01*
X055117Y023773D01*
X055239Y023652D01*
X055097Y023510D01*
X054976Y023632D01*
X054966Y023581D01*
X054981Y023503D01*
X054992Y023487D01*
X054953Y023456D01*
X054758Y023651D01*
X054528Y023421D01*
X054740Y023209D01*
X054952Y022997D01*
X055182Y023226D01*
X055043Y023366D01*
X055075Y023405D01*
X055091Y023394D01*
X055168Y023379D01*
X055210Y023387D01*
X055252Y023344D01*
X055244Y023303D01*
X055254Y023252D01*
X055376Y023373D01*
X055517Y023232D01*
X055396Y023110D01*
X055446Y023100D01*
X055488Y023109D01*
X055531Y023066D01*
X055522Y023024D01*
X055533Y022973D01*
X055654Y023095D01*
X055795Y022953D01*
X055674Y022832D01*
X055725Y022822D01*
X055767Y022830D01*
X055809Y022788D01*
X055801Y022746D01*
X055811Y022695D01*
X055932Y022816D01*
X056003Y022746D01*
X056074Y022816D01*
X056195Y022695D01*
X056205Y022746D01*
X056202Y022762D01*
X056238Y022797D01*
X056254Y022794D01*
X056305Y022804D01*
X056183Y022926D01*
X056324Y023067D01*
X056446Y022945D01*
X056456Y022996D01*
X056453Y023012D01*
X056488Y023048D01*
X056504Y023045D01*
X056555Y023055D01*
X056434Y023176D01*
X056504Y023247D01*
X056434Y023318D01*
X056555Y023439D01*
X056504Y023449D01*
X056462Y023441D01*
X056420Y023483D01*
X056428Y023525D01*
X056418Y023576D01*
X056297Y023454D01*
X056155Y023596D01*
X056277Y023717D01*
X056226Y023728D01*
X056184Y023719D01*
X056141Y023762D01*
X056150Y023804D01*
X056134Y023881D01*
X056124Y023896D01*
X056148Y023940D01*
X056474D01*
X056516Y023949D01*
X056552Y023973D01*
X056552Y023973D01*
X056896Y024317D01*
X057080Y024133D01*
X056544Y023597D01*
X056911Y023231D01*
X057360Y023681D01*
X057406Y023661D01*
Y023446D01*
X055804Y021844D01*
X055589D01*
X055569Y021890D01*
X056015Y022336D01*
X055649Y022702D01*
X055456Y022509D01*
X055228Y022736D01*
X055192Y022760D01*
X055150Y022769D01*
X055150D01*
X054790D01*
X054771Y022815D01*
X054811Y022855D01*
X054599Y023067D01*
X054387Y023279D01*
X054229Y023122D01*
X053752Y023599D01*
X053716Y023623D01*
X053674Y023631D01*
X053674Y023631D01*
X046205Y023631D01*
X046162Y023623D01*
X046126Y023599D01*
X046126Y023599D01*
X045967Y023439D01*
X045808Y023597D01*
X045777Y023629D01*
X045778Y023643D01*
X045792Y023671D01*
X045795Y023677D01*
X045820Y023680D01*
X045874Y023687D01*
X045925Y023709D01*
X045795Y023838D01*
X045666Y023709D01*
X045717Y023687D01*
X045745Y023684D01*
X045770Y023657D01*
X045771Y023638D01*
X045750Y023609D01*
X045740Y023598D01*
X045407Y023266D01*
X045943Y022730D01*
X045418Y022206D01*
X044883Y022741D01*
X044516Y022375D01*
X045001Y021890D01*
X044982Y021844D01*
X044766D01*
X043129Y023481D01*
Y023697D01*
X043175Y023716D01*
X043621Y023270D01*
X043964Y023614D01*
X044078Y023614D01*
X044110Y023575D01*
X044107Y023561D01*
X044115Y023519D01*
X044073Y023476D01*
X044031Y023484D01*
X043980Y023474D01*
X044102Y023353D01*
X044031Y023282D01*
X044102Y023211D01*
X043980Y023090D01*
X044031Y023080D01*
X044047Y023083D01*
X044083Y023048D01*
X044079Y023032D01*
X044089Y022981D01*
X044211Y023102D01*
X044352Y022961D01*
X044231Y022839D01*
X044282Y022829D01*
X044298Y022833D01*
X044333Y022797D01*
X044330Y022781D01*
X044340Y022730D01*
X044461Y022852D01*
X044532Y022781D01*
X044603Y022852D01*
X044724Y022730D01*
X044734Y022781D01*
X044726Y022823D01*
X044769Y022865D01*
X044811Y022857D01*
X044861Y022867D01*
X044740Y022989D01*
X044881Y023130D01*
X045003Y023009D01*
X045013Y023059D01*
X045005Y023101D01*
X045047Y023144D01*
X045089Y023136D01*
X045140Y023146D01*
X045018Y023267D01*
X045160Y023409D01*
X045281Y023287D01*
X045291Y023338D01*
X045283Y023380D01*
X045325Y023422D01*
X045367Y023414D01*
X045418Y023424D01*
X045297Y023546D01*
X045367Y023616D01*
X045297Y023687D01*
X045418Y023808D01*
X045367Y023819D01*
X045351Y023815D01*
X045316Y023851D01*
X045319Y023867D01*
X045309Y023918D01*
X045188Y023796D01*
X045046Y023938D01*
X045168Y024059D01*
X045117Y024069D01*
X045094Y024116D01*
X045096Y024138D01*
X045113Y024151D01*
X045313Y024151D01*
X045313Y024151D01*
X045356Y024160D01*
X045392Y024184D01*
X045838Y024631D01*
X045838Y024631D01*
X045863Y024667D01*
X045871Y024709D01*
Y024969D01*
X045911Y024996D01*
X045957Y025065D01*
X045973Y025146D01*
X045957Y025228D01*
X045911Y025297D01*
X045841Y025343D01*
X045760Y025359D01*
X045678Y025343D01*
X045609Y025297D01*
X045563Y025228D01*
X045547Y025146D01*
X045563Y025065D01*
X045609Y024996D01*
X045649Y024969D01*
X045649Y024755D01*
X045534Y024641D01*
X045487Y024657D01*
X045486Y024659D01*
X045465Y024710D01*
X045265Y024510D01*
X045194Y024581D01*
X045123Y024510D01*
X044923Y024710D01*
X044902Y024659D01*
X044899Y024635D01*
X044846Y024618D01*
X044706Y024757D01*
X044494Y024545D01*
X044282Y024333D01*
X044430Y024185D01*
X044080Y023836D01*
X043788Y023836D01*
X043456Y024168D01*
X043540Y024252D01*
X043568Y024249D01*
X043635Y024257D01*
X043698Y024284D01*
X043753Y024325D01*
X043794Y024379D01*
X043820Y024442D01*
X043829Y024510D01*
X043825Y024538D01*
X043951Y024664D01*
X044141Y024474D01*
X044353Y024687D01*
X044565Y024899D01*
X044375Y025088D01*
X044440Y025153D01*
X044489Y025131D01*
X044502Y025065D01*
X044548Y024996D01*
X044618Y024949D01*
X044699Y024933D01*
X044781Y024949D01*
X044850Y024996D01*
X044896Y025065D01*
X044912Y025146D01*
X044903Y025193D01*
X045183Y025473D01*
X045230Y025463D01*
X045311Y025480D01*
X045380Y025526D01*
X045426Y025595D01*
X045443Y025677D01*
X045426Y025758D01*
X045380Y025827D01*
X045311Y025874D01*
X045230Y025890D01*
X045148Y025874D01*
X045079Y025827D01*
X045033Y025758D01*
X045016Y025677D01*
X045026Y025630D01*
X044746Y025350D01*
X044699Y025359D01*
X044689Y025357D01*
X044651Y025401D01*
X044658Y025438D01*
Y026814D01*
X044702Y026837D01*
X044724Y026823D01*
X044805Y026807D01*
X044852Y026816D01*
X045217Y026451D01*
X045220Y026393D01*
X045174Y026324D01*
X045158Y026242D01*
X045174Y026161D01*
X045220Y026092D01*
X045289Y026045D01*
X045371Y026029D01*
X045453Y026045D01*
X045522Y026092D01*
X045568Y026161D01*
X045584Y026242D01*
X045568Y026324D01*
X045522Y026393D01*
X045478Y026422D01*
X045474Y026442D01*
X045466Y026453D01*
Y026470D01*
X045466Y026470D01*
X045458Y026513D01*
X045434Y026549D01*
X045434Y026549D01*
X045009Y026973D01*
X045018Y027020D01*
X045002Y027102D01*
X044956Y027171D01*
X044887Y027217D01*
X044881Y027218D01*
X044881Y027363D01*
X045218Y027700D01*
X045265Y027691D01*
X045346Y027707D01*
X045416Y027753D01*
X045462Y027822D01*
X045478Y027904D01*
X045462Y027986D01*
X045423Y028043D01*
X045441Y028084D01*
X045447Y028091D01*
X045554Y028105D01*
X045655Y028147D01*
X045662Y028152D01*
X045446Y028368D01*
X045217Y028139D01*
X045210Y028106D01*
X045183Y028101D01*
X045114Y028055D01*
X045068Y027986D01*
X045052Y027904D01*
X045061Y027857D01*
X044708Y027505D01*
X044658Y027525D01*
Y029897D01*
X045583Y030821D01*
X046034Y030370D01*
X046087Y030335D01*
X046149Y030323D01*
X046371D01*
X046434Y030335D01*
X046470Y030360D01*
X046472Y030357D01*
X046483Y030368D01*
X046486Y030370D01*
X046537Y030421D01*
X046549D01*
X046615Y030355D01*
X046574Y030315D01*
X046912Y029977D01*
X047119Y030184D01*
X047166Y030165D01*
Y029727D01*
X046899Y029461D01*
X047238Y029123D01*
X047547Y029433D01*
X047388Y029592D01*
Y029981D01*
X047438Y029989D01*
X047771Y029656D01*
X048080Y029966D01*
X048031Y030016D01*
X048086Y030072D01*
X048138Y030019D01*
X048293Y030174D01*
X048339Y030154D01*
Y029447D01*
X048276Y029384D01*
X048454Y029205D01*
X048462Y029166D01*
X048508Y029097D01*
X048577Y029051D01*
X048659Y029034D01*
X048741Y029051D01*
X048810Y029097D01*
X048856Y029166D01*
X048872Y029247D01*
X048860Y029310D01*
X048891Y029349D01*
X048898Y029353D01*
X048906Y029352D01*
X049059D01*
X049078Y029306D01*
X048932Y029160D01*
X048974Y029118D01*
X049118Y029262D01*
X049244Y029136D01*
X049129Y029021D01*
X049145Y029006D01*
X049116Y028977D01*
X049157Y028935D01*
X049186Y028964D01*
X049349Y028801D01*
X049330Y028755D01*
X049268D01*
X049227Y028747D01*
X049226Y028747D01*
X049225Y028747D01*
X049189Y028723D01*
X049155Y028755D01*
X049115Y028795D01*
X048972Y028652D01*
X048830Y028793D01*
X048974Y028936D01*
X048901Y029009D01*
X048706Y028813D01*
X048656Y028818D01*
X048627Y028862D01*
X048544Y028917D01*
X048447Y028937D01*
X048352Y028918D01*
X048518Y028753D01*
X048447Y028682D01*
X048518Y028611D01*
X048352Y028446D01*
X048408Y028435D01*
X048440Y028403D01*
X048583Y028546D01*
X048724Y028404D01*
X048581Y028261D01*
X048599Y028243D01*
X048492Y028136D01*
X048597Y028030D01*
X048456Y027889D01*
X048350Y027994D01*
X048253Y027897D01*
X048118Y028033D01*
X048109Y028045D01*
X047590Y028564D01*
X047599Y028611D01*
X047583Y028693D01*
X047537Y028762D01*
X047468Y028808D01*
X047386Y028824D01*
X047305Y028808D01*
X047235Y028762D01*
X047189Y028693D01*
X047173Y028611D01*
X047189Y028530D01*
X047235Y028460D01*
X047253Y028449D01*
X047233Y028402D01*
X047209Y028406D01*
X047115Y028388D01*
X047280Y028222D01*
X047139Y028081D01*
X046973Y028246D01*
X046955Y028151D01*
X046974Y028054D01*
X047029Y027971D01*
X047092Y027930D01*
X047076Y027880D01*
X047013D01*
X046989Y027875D01*
X046955Y027890D01*
X046939Y027910D01*
X046926Y027977D01*
X046880Y028047D01*
X046840Y028073D01*
Y029127D01*
X046832Y029169D01*
X046808Y029206D01*
X046808Y029206D01*
X046015Y029998D01*
X045979Y030022D01*
X045937Y030030D01*
X045690D01*
X045663Y030070D01*
X045594Y030116D01*
X045512Y030132D01*
X045462Y030122D01*
X045451Y030130D01*
X045408Y030138D01*
X045366Y030130D01*
X045329Y030106D01*
X045305Y030070D01*
X045297Y030027D01*
X045297Y030024D01*
X045305Y029981D01*
X045310Y029974D01*
X045299Y029919D01*
X045315Y029838D01*
X045362Y029769D01*
X045431Y029722D01*
X045512Y029706D01*
X045547Y029671D01*
X045540Y029636D01*
X045559Y029542D01*
X045725Y029707D01*
X045866Y029566D01*
X045701Y029400D01*
X045733Y029394D01*
X045746Y029340D01*
X045736Y029333D01*
X045676Y029255D01*
X045638Y029164D01*
X045626Y029066D01*
X045638Y028969D01*
X045656Y028926D01*
X045618Y028888D01*
X045554Y028914D01*
X045446Y028928D01*
X045338Y028914D01*
X045237Y028872D01*
X045230Y028867D01*
X045517Y028580D01*
X045804Y028294D01*
X045809Y028300D01*
X045850Y028401D01*
X045865Y028509D01*
X045850Y028618D01*
X045824Y028681D01*
X045862Y028720D01*
X045905Y028702D01*
X046003Y028689D01*
X046101Y028702D01*
X046192Y028740D01*
X046270Y028799D01*
X046330Y028878D01*
X046367Y028969D01*
X046380Y029066D01*
X046367Y029164D01*
X046330Y029255D01*
X046270Y029333D01*
X046192Y029393D01*
X046101Y029431D01*
X046025Y029441D01*
X046000Y029487D01*
X046000Y029492D01*
X046031Y029539D01*
X046040Y029588D01*
X046095Y029604D01*
X046618Y029081D01*
Y028073D01*
X046578Y028047D01*
X046532Y027977D01*
X046516Y027896D01*
X046532Y027814D01*
X046558Y027776D01*
X046535Y027721D01*
X046491Y027712D01*
X046422Y027666D01*
X046376Y027597D01*
X046370Y027566D01*
X046363Y027559D01*
X046314Y027539D01*
X046262Y027560D01*
X046184Y027570D01*
X046106Y027560D01*
X046055Y027539D01*
X046255Y027338D01*
X046113Y027197D01*
X045913Y027397D01*
X045892Y027346D01*
X045882Y027268D01*
X045892Y027189D01*
X045922Y027116D01*
X045969Y027056D01*
X045940Y027027D01*
X046083Y026884D01*
X045942Y026743D01*
X045799Y026886D01*
X045726Y026813D01*
X045755Y026784D01*
X045562Y026591D01*
X045679Y026473D01*
Y026424D01*
X045687Y026382D01*
X045711Y026346D01*
X045711Y026346D01*
X045777Y026280D01*
X045620Y026122D01*
X046149Y025593D01*
X046597Y026041D01*
X046636Y026010D01*
X046620Y025986D01*
X046601Y025889D01*
X046620Y025794D01*
X046785Y025959D01*
X046856Y025889D01*
X046927Y025959D01*
X047092Y025794D01*
X047111Y025889D01*
X047091Y025986D01*
X047071Y026016D01*
X047095Y026060D01*
X047574D01*
X047574Y026060D01*
X047616Y026069D01*
X047653Y026093D01*
X047653Y026093D01*
X047784Y026224D01*
X047834Y026203D01*
Y026031D01*
X047444Y025641D01*
X047973Y025112D01*
X047946Y025073D01*
X047809Y024936D01*
X047609Y025136D01*
X047414Y024941D01*
X047637Y024718D01*
X047754Y024835D01*
X047804Y024786D01*
X047947Y024929D01*
X048017Y024858D01*
X048088Y024929D01*
X048231Y024786D01*
X048304Y024858D01*
X048275Y024887D01*
X048468Y025081D01*
X048351Y025198D01*
X048351Y025318D01*
X048351Y025318D01*
X048343Y025360D01*
X048319Y025396D01*
X048301Y025440D01*
X048446Y025585D01*
X048056Y025974D01*
Y026218D01*
X048109Y026271D01*
X048118Y026284D01*
X048254Y026420D01*
X048282Y026428D01*
X048311Y026420D01*
X048422Y026308D01*
Y025983D01*
X048431Y025941D01*
X048455Y025905D01*
X048455Y025905D01*
X048769Y025591D01*
X048729Y025551D01*
X048961Y025319D01*
X048972Y025274D01*
X048956Y025257D01*
X048744Y025045D01*
X048937Y024852D01*
X048908Y024823D01*
X048981Y024750D01*
X049124Y024893D01*
X049195Y024823D01*
X049265Y024893D01*
X049408Y024750D01*
X049543Y024885D01*
X049571Y024856D01*
X049714Y025000D01*
X049856Y024858D01*
X049713Y024715D01*
X049785Y024643D01*
X049939Y024797D01*
X050008Y024728D01*
X050059Y024779D01*
X050120Y024770D01*
X050182Y024689D01*
X050285Y024610D01*
X050404Y024561D01*
X050533Y024544D01*
X050661Y024561D01*
X050781Y024610D01*
X050884Y024689D01*
X050963Y024792D01*
X051012Y024912D01*
X051029Y025040D01*
X051012Y025169D01*
X050963Y025288D01*
X050884Y025391D01*
X050781Y025470D01*
X050661Y025520D01*
X050533Y025537D01*
X050531Y025536D01*
X050467Y025600D01*
X050466Y025601D01*
X050292Y025775D01*
X050308Y025829D01*
X050309Y025829D01*
X050144Y025995D01*
X049979Y026160D01*
X049960Y026066D01*
X049971Y026008D01*
X049925Y025983D01*
X049837Y026071D01*
X049573Y025806D01*
X049810Y025570D01*
X049828Y025588D01*
X049924Y025491D01*
X049616Y025183D01*
X049442Y025356D01*
X049413Y025327D01*
X049224Y025517D01*
X049230Y025523D01*
X048966Y025788D01*
X048926Y025748D01*
X048645Y026029D01*
Y026144D01*
X048753Y026252D01*
X048844Y026161D01*
X048764Y026082D01*
X049012Y025834D01*
X049007Y025830D01*
X049272Y025565D01*
X049508Y025802D01*
X049499Y025812D01*
X049531Y025848D01*
Y025848D01*
X049796Y026113D01*
X049559Y026349D01*
X049543Y026333D01*
X049279Y026597D01*
X049175Y026493D01*
X049122D01*
X049099Y026540D01*
X049244Y026686D01*
X049215Y026714D01*
X049326Y026825D01*
X049177Y026973D01*
X049169Y026985D01*
X049027Y027128D01*
X049001Y027167D01*
X049125Y027291D01*
X049430Y027291D01*
X049430Y027291D01*
X049473Y027300D01*
X049509Y027324D01*
X049557Y027324D01*
X049573Y027309D01*
X049608Y027273D01*
X049689Y027192D01*
X049683Y027162D01*
X049700Y027080D01*
X049746Y027011D01*
X049815Y026965D01*
X049896Y026948D01*
X049931Y026913D01*
X049924Y026879D01*
X049943Y026784D01*
X050274Y027115D01*
X050179Y027134D01*
X050144Y027127D01*
X050110Y027162D01*
X050093Y027243D01*
X050079Y027265D01*
X050071Y027312D01*
X050093Y027334D01*
X050280Y027520D01*
X050237Y027564D01*
X050247Y027579D01*
X050255Y027621D01*
Y027772D01*
X050301Y027791D01*
X050410Y027682D01*
X050483Y027755D01*
X050371Y027868D01*
X050512Y028009D01*
X050625Y027897D01*
X050668Y027940D01*
X050702Y027905D01*
X050744Y027947D01*
X050614Y028077D01*
X050484Y028207D01*
X050444Y028166D01*
X050222Y028388D01*
X049973Y028637D01*
X050002Y028666D01*
X049960Y028708D01*
X049931Y028679D01*
X049916Y028694D01*
X049801Y028579D01*
X049690Y028690D01*
X049805Y028805D01*
X049790Y028820D01*
X049819Y028849D01*
X049777Y028891D01*
X049748Y028862D01*
X049416Y029194D01*
X049457Y029234D01*
X049327Y029364D01*
X049453Y029491D01*
X049554Y029390D01*
X049569Y029405D01*
X049598Y029376D01*
X049640Y029418D01*
X049611Y029447D01*
X049703Y029539D01*
X049710Y029534D01*
X049753Y029525D01*
X049912D01*
X049955Y029534D01*
X049991Y029558D01*
X049991Y029558D01*
X050162Y029729D01*
X050388Y029502D01*
X050359Y029473D01*
X050401Y029432D01*
X050430Y029460D01*
X050445Y029445D01*
X050560Y029560D01*
X050671Y029449D01*
X050556Y029334D01*
X050571Y029319D01*
X050542Y029290D01*
X050584Y029248D01*
X050613Y029277D01*
X050862Y029028D01*
X051095Y028795D01*
X051085Y028749D01*
X050975Y028639D01*
X050946Y028668D01*
X050904Y028626D01*
X050933Y028597D01*
X050918Y028582D01*
X051019Y028481D01*
X050895Y028357D01*
X051025Y028227D01*
X051154Y028357D01*
X051252Y028259D01*
X051178Y028185D01*
X051249Y028113D01*
X051247Y028103D01*
X051191Y028088D01*
X051136Y028143D01*
X050999Y028005D01*
X050946Y027995D01*
X050877Y027949D01*
X050831Y027879D01*
X050815Y027798D01*
X050831Y027716D01*
X050877Y027647D01*
X050946Y027601D01*
X051028Y027585D01*
X051109Y027601D01*
X051179Y027647D01*
X051225Y027716D01*
X051235Y027769D01*
X051351Y027885D01*
X051406Y027848D01*
X051487Y027832D01*
X051569Y027848D01*
X051638Y027895D01*
X051684Y027964D01*
X051701Y028045D01*
X051694Y028079D01*
X051736Y028122D01*
X051770Y028115D01*
X051848Y028130D01*
X051875Y028117D01*
X051894Y028106D01*
X051898Y028102D01*
X052028Y027971D01*
X052154Y028096D01*
X052008Y028242D01*
X051970Y028262D01*
X051983Y028328D01*
X051967Y028410D01*
X051931Y028464D01*
X052021Y028554D01*
X052050D01*
X052092Y028563D01*
X052128Y028587D01*
X052727Y029186D01*
X052727Y029186D01*
X052751Y029222D01*
X052754Y029237D01*
X052809Y029254D01*
X052981Y029082D01*
X052971Y029035D01*
X052988Y028954D01*
X053034Y028885D01*
X053103Y028838D01*
X053184Y028822D01*
X053266Y028838D01*
X053335Y028885D01*
X053381Y028954D01*
X053398Y029035D01*
X053381Y029117D01*
X053335Y029186D01*
X053266Y029232D01*
X053184Y029249D01*
X053138Y029239D01*
X052760Y029617D01*
X052760Y030034D01*
X053032Y030306D01*
X053032D01*
X053032Y030306D01*
X053064Y030345D01*
X053078Y030342D01*
X053160Y030359D01*
X053229Y030405D01*
X053275Y030474D01*
X053292Y030556D01*
X053290Y030564D01*
X053477Y030752D01*
X053143Y031086D01*
X053041Y030984D01*
X052234Y031791D01*
X052336Y031893D01*
X052002Y032227D01*
X051640Y031865D01*
X051974Y031531D01*
X052076Y031634D01*
X052884Y030826D01*
X052781Y030724D01*
X052879Y030626D01*
X052865Y030556D01*
X052868Y030541D01*
X052822Y030516D01*
X052698Y030641D01*
X052599Y030541D01*
X051791Y031349D01*
X051891Y031448D01*
X051556Y031782D01*
X051457Y031683D01*
X051248Y031892D01*
X051759Y032402D01*
X051806Y032393D01*
X051887Y032409D01*
X051956Y032456D01*
X052003Y032525D01*
X052019Y032606D01*
X052003Y032688D01*
X051956Y032757D01*
X051887Y032803D01*
X051806Y032819D01*
X051724Y032803D01*
X051655Y032757D01*
X051609Y032688D01*
X051592Y032606D01*
X051602Y032560D01*
X051045Y032003D01*
X050300D01*
X050258Y031994D01*
X050222Y031970D01*
X050222Y031970D01*
X049923Y031671D01*
X049899Y031635D01*
X049890Y031593D01*
X049890Y031593D01*
X049890Y030990D01*
X049804Y030904D01*
X049804Y030904D01*
X049796Y030895D01*
X049796Y030895D01*
X049602Y030702D01*
X049573Y030730D01*
X049523Y030681D01*
X049432Y030699D01*
X049337Y030680D01*
X049502Y030515D01*
X049361Y030374D01*
X049195Y030539D01*
X049177Y030444D01*
X049196Y030347D01*
X049251Y030264D01*
X049294Y030236D01*
X049299Y030186D01*
X049178Y030065D01*
X049149Y030094D01*
X049076Y030022D01*
X049219Y029879D01*
X049078Y029737D01*
X048935Y029880D01*
X048863Y029808D01*
X049014Y029657D01*
X048998Y029602D01*
X048981Y029598D01*
X048972Y029606D01*
X048972D01*
X048735Y029843D01*
X048659Y029766D01*
X048612Y029786D01*
Y030355D01*
X048602Y030408D01*
X048572Y030452D01*
X048572Y030453D01*
X048807Y030687D01*
X048714Y030780D01*
X048802Y030869D01*
X048839Y030832D01*
X048983Y030975D01*
X049126Y031118D01*
X049088Y031155D01*
X049481Y031548D01*
X049516Y031600D01*
X049528Y031662D01*
Y032288D01*
X049520Y032328D01*
X049553Y032378D01*
X049559D01*
Y032658D01*
X049489D01*
Y032465D01*
X049439Y032444D01*
X049270Y032613D01*
X049274Y032642D01*
X049265Y032709D01*
X049239Y032772D01*
X049197Y032826D01*
X049143Y032868D01*
X049080Y032894D01*
X049013Y032903D01*
X048945Y032894D01*
X048925Y032886D01*
X048561Y033251D01*
X048561Y033251D01*
X048525Y033275D01*
X048482Y033283D01*
X048482Y033283D01*
X047975D01*
X047850Y033408D01*
X047814Y033432D01*
X047772Y033441D01*
X047743D01*
X047631Y033552D01*
X047395Y033316D01*
X047585Y033125D01*
X047540Y033057D01*
X047535Y033035D01*
X047487Y033021D01*
X047245Y033263D01*
X047347Y033364D01*
X047353Y033357D01*
X047590Y033594D01*
X047381Y033803D01*
X047144Y033566D01*
X047189Y033521D01*
X047088Y033420D01*
X047068Y033440D01*
X046645Y033017D01*
X047125Y032537D01*
X047487Y032900D01*
X047535Y032885D01*
X047539Y032865D01*
X047704Y033031D01*
X047775Y032960D01*
X047846Y033031D01*
X048011Y032865D01*
X048030Y032960D01*
X048020Y033011D01*
X048061Y033061D01*
X048436D01*
X048768Y032729D01*
X048760Y032709D01*
X048754Y032664D01*
X048708Y032639D01*
X048703Y032638D01*
X048673Y032658D01*
X048609Y032671D01*
X048603Y032704D01*
X048371Y032472D01*
X048140Y032241D01*
X048173Y032234D01*
X048185Y032170D01*
X048219Y032120D01*
X048201Y032070D01*
X047565D01*
X047410Y032225D01*
X047410Y032225D01*
X047374Y032249D01*
X047331Y032258D01*
X047331Y032258D01*
X046567Y032258D01*
X046227Y032598D01*
X045804Y032175D01*
X046283Y031695D01*
X046623Y032035D01*
X047006D01*
X047029Y031991D01*
X047009Y031961D01*
X046990Y031864D01*
X047009Y031769D01*
X047174Y031934D01*
X047245Y031864D01*
X047316Y031934D01*
X047481Y031769D01*
X047497Y031852D01*
X047519Y031847D01*
X048141Y031847D01*
X048165Y031797D01*
X048152Y031780D01*
X048126Y031717D01*
X048117Y031649D01*
X048126Y031582D01*
X048152Y031519D01*
X048162Y031506D01*
X048137Y031456D01*
X047826D01*
X047784Y031448D01*
X047748Y031424D01*
X047748Y031424D01*
X047629Y031305D01*
X047617Y031307D01*
X047578Y031325D01*
X047570Y031369D01*
X047537Y031418D01*
X047488Y031450D01*
X047444Y031459D01*
X047417Y031479D01*
X047397Y031506D01*
X047389Y031550D01*
X047365Y031586D01*
X047366Y031602D01*
X047245Y031722D01*
X047128Y031606D01*
X047129Y031585D01*
X047129Y031585D01*
X046906Y031362D01*
X046874Y031313D01*
X046864Y031264D01*
X046795Y031194D01*
X046772Y031217D01*
X046625Y031070D01*
X046554Y031141D01*
X046483Y031070D01*
X046350Y031203D01*
X046279Y031132D01*
X046273Y031127D01*
X046273D01*
X046250Y031095D01*
X046250Y031095D01*
X046177Y031022D01*
X046320Y030879D01*
X046179Y030738D01*
X046036Y030881D01*
X046009Y030854D01*
X045877Y030986D01*
X045880Y030991D01*
X045906Y031054D01*
X045915Y031121D01*
X045906Y031189D01*
X045880Y031252D01*
X045839Y031306D01*
X045816Y031323D01*
Y031414D01*
X045804Y031476D01*
X045768Y031529D01*
X044351Y032946D01*
X044882Y033476D01*
X044516Y033843D01*
X043985Y033312D01*
X043460Y033837D01*
X043991Y034367D01*
X043625Y034734D01*
X043175Y034284D01*
X043129Y034303D01*
Y034519D01*
X044766Y036156D01*
X044982D01*
X045001Y036110D01*
D02*
G37*
%LPC*%
G36*
X052767Y026115D02*
X052598Y025945D01*
X052796Y025747D01*
X052965Y025917D01*
X052767Y026115D01*
D02*
G37*
G36*
X054243Y027011D02*
X054006Y026775D01*
X054032Y026749D01*
X053896Y026613D01*
X053609Y026899D01*
X053186Y026476D01*
X053666Y025997D01*
X054089Y026419D01*
X054053Y026455D01*
X054189Y026592D01*
X054215Y026566D01*
X054452Y026803D01*
X054243Y027011D01*
D02*
G37*
G36*
X050179Y026737D02*
X050085Y026643D01*
X050179Y026624D01*
X050274Y026643D01*
X050179Y026737D01*
D02*
G37*
G36*
X050215Y026320D02*
X050120Y026302D01*
X050215Y026207D01*
X050309Y026302D01*
X050215Y026320D01*
D02*
G37*
G36*
X050451Y026160D02*
X050356Y026066D01*
X050451Y025971D01*
X050470Y026066D01*
X050451Y026160D01*
D02*
G37*
G36*
X055270Y026737D02*
X055141Y026608D01*
X055192Y026586D01*
X055270Y026576D01*
X055349Y026586D01*
X055400Y026608D01*
X055270Y026737D01*
D02*
G37*
G36*
X046856Y025747D02*
X046761Y025653D01*
X046856Y025634D01*
X046951Y025653D01*
X046856Y025747D01*
D02*
G37*
G36*
X046909Y025164D02*
X046823Y025078D01*
X046775Y025093D01*
X046774Y025099D01*
X046679Y025005D01*
X046811Y024873D01*
X046937Y024747D01*
X047132Y024941D01*
X046909Y025164D01*
D02*
G37*
G36*
X047245Y025500D02*
X047050Y025305D01*
X047273Y025083D01*
X047468Y025277D01*
X047245Y025500D01*
D02*
G37*
G36*
X053880Y025134D02*
X053750Y025005D01*
X053880Y024875D01*
X053901Y024927D01*
X053911Y025005D01*
X053901Y025083D01*
X053880Y025134D01*
D02*
G37*
G36*
X046302Y025099D02*
X046283Y025005D01*
X046302Y024910D01*
X046396Y025005D01*
X046302Y025099D01*
D02*
G37*
G36*
X052796Y025464D02*
X052626Y025295D01*
X052824Y025097D01*
X052994Y025266D01*
X052796Y025464D01*
D02*
G37*
G36*
X053107Y025776D02*
X052937Y025606D01*
X053135Y025408D01*
X053305Y025578D01*
X053107Y025776D01*
D02*
G37*
G36*
X052456Y025804D02*
X052286Y025634D01*
X052484Y025436D01*
X052654Y025606D01*
X052456Y025804D01*
D02*
G37*
G36*
X046538Y025260D02*
X046443Y025241D01*
X046538Y025146D01*
X046632Y025241D01*
X046538Y025260D01*
D02*
G37*
G36*
X053609Y025307D02*
X053530Y025297D01*
X053479Y025276D01*
X053609Y025146D01*
X053738Y025276D01*
X053687Y025297D01*
X053609Y025307D01*
D02*
G37*
G36*
X054999Y027008D02*
X054978Y026957D01*
X054968Y026879D01*
X054978Y026800D01*
X054999Y026749D01*
X055129Y026879D01*
X054999Y027008D01*
D02*
G37*
G36*
X045089Y028725D02*
X045084Y028719D01*
X045042Y028618D01*
X045028Y028509D01*
X045042Y028401D01*
X045084Y028300D01*
X045089Y028294D01*
X045305Y028509D01*
X045089Y028725D01*
D02*
G37*
G36*
X054033Y028753D02*
X053817Y028537D01*
X053824Y028531D01*
X053925Y028490D01*
X054033Y028475D01*
X054141Y028490D01*
X054242Y028531D01*
X054249Y028537D01*
X054033Y028753D01*
D02*
G37*
G36*
X053432Y028336D02*
X053337Y028317D01*
X053432Y028222D01*
X053527Y028317D01*
X053432Y028336D01*
D02*
G37*
G36*
X052281Y028502D02*
X052156Y028377D01*
X052295Y028238D01*
X052420Y028363D01*
X052281Y028502D01*
D02*
G37*
G36*
X050250Y028859D02*
X050155Y028764D01*
X050250Y028745D01*
X050345Y028764D01*
X050250Y028859D01*
D02*
G37*
G36*
X050014Y029095D02*
X049995Y029000D01*
X050014Y028905D01*
X050109Y029000D01*
X050014Y029095D01*
D02*
G37*
G36*
X048211Y028776D02*
X048192Y028682D01*
X048211Y028587D01*
X048305Y028682D01*
X048211Y028776D01*
D02*
G37*
G36*
X053676Y029110D02*
X053671Y029103D01*
X053629Y029002D01*
X053614Y028894D01*
X053629Y028786D01*
X053671Y028685D01*
X053676Y028678D01*
X053892Y028894D01*
X053676Y029110D01*
D02*
G37*
G36*
X053668Y028175D02*
X053573Y028081D01*
X053668Y027986D01*
X053687Y028081D01*
X053668Y028175D01*
D02*
G37*
G36*
X055270Y027181D02*
X055192Y027171D01*
X055141Y027150D01*
X055270Y027020D01*
X055400Y027150D01*
X055349Y027171D01*
X055270Y027181D01*
D02*
G37*
G36*
X051140Y027361D02*
X051014Y027236D01*
X051154Y027096D01*
X051279Y027222D01*
X051140Y027361D01*
D02*
G37*
G36*
X050415Y026973D02*
X050321Y026879D01*
X050415Y026784D01*
X050434Y026879D01*
X050415Y026973D01*
D02*
G37*
G36*
X050873Y027094D02*
X050748Y026969D01*
X050887Y026830D01*
X051012Y026955D01*
X050873Y027094D01*
D02*
G37*
G36*
X052562Y028222D02*
X052436Y028096D01*
X052576Y027957D01*
X052701Y028082D01*
X052562Y028222D01*
D02*
G37*
G36*
X053196Y028175D02*
X053177Y028081D01*
X053196Y027986D01*
X053291Y028081D01*
X053196Y028175D01*
D02*
G37*
G36*
X054174Y028259D02*
X054093Y028242D01*
X054024Y028196D01*
X053978Y028127D01*
X053961Y028045D01*
X053978Y027964D01*
X054024Y027895D01*
X054063Y027868D01*
X054063Y027281D01*
X054018Y027236D01*
X053992Y027262D01*
X053756Y027025D01*
X053965Y026817D01*
X054201Y027053D01*
X054175Y027079D01*
X054253Y027157D01*
X054253Y027157D01*
X054277Y027193D01*
X054286Y027235D01*
Y027868D01*
X054325Y027895D01*
X054371Y027964D01*
X054388Y028045D01*
X054371Y028127D01*
X054325Y028196D01*
X054256Y028242D01*
X054174Y028259D01*
D02*
G37*
G36*
X053432Y027939D02*
X053337Y027845D01*
X053432Y027826D01*
X053527Y027845D01*
X053432Y027939D01*
D02*
G37*
G36*
X053338Y025134D02*
X053316Y025083D01*
X053306Y025005D01*
X053316Y024927D01*
X053338Y024875D01*
X053467Y025005D01*
X053338Y025134D01*
D02*
G37*
G36*
X041928Y021169D02*
X041922Y021168D01*
X041919Y021168D01*
X041917Y021168D01*
X041911Y021169D01*
X041798Y021155D01*
X041792Y021151D01*
X041790Y021151D01*
X041788Y021150D01*
X041782D01*
X041676Y021107D01*
X041672Y021102D01*
X041670Y021101D01*
X041668Y021100D01*
X041662Y021098D01*
X041594Y021046D01*
X041592Y021042D01*
X041588Y021041D01*
X041578Y021031D01*
X041566Y021022D01*
X041558Y021010D01*
X041548Y021001D01*
X041546Y020996D01*
X041542Y020994D01*
X041490Y020927D01*
X041489Y020921D01*
X041487Y020919D01*
X041486Y020916D01*
X041482Y020912D01*
X041438Y020807D01*
Y020801D01*
X041437Y020798D01*
X041437Y020796D01*
X041434Y020791D01*
X041419Y020678D01*
X041421Y020672D01*
X041420Y020669D01*
X041421Y020667D01*
X041419Y020661D01*
X041434Y020548D01*
X041437Y020542D01*
X041437Y020540D01*
X041438Y020538D01*
Y020532D01*
X041482Y020426D01*
X041486Y020422D01*
X041487Y020420D01*
X041489Y020418D01*
X041490Y020412D01*
X041542Y020344D01*
X041546Y020342D01*
X041548Y020338D01*
X041558Y020328D01*
X041566Y020316D01*
X041578Y020308D01*
X041588Y020298D01*
X041592Y020296D01*
X041594Y020292D01*
X041662Y020240D01*
X041668Y020239D01*
X041670Y020237D01*
X041672Y020236D01*
X041676Y020232D01*
X041782Y020188D01*
X041788D01*
X041790Y020187D01*
X041792Y020187D01*
X041798Y020184D01*
X041911Y020169D01*
X041917Y020171D01*
X041919Y020170D01*
X041922Y020171D01*
X041928Y020169D01*
X042041Y020184D01*
X042046Y020187D01*
X042048Y020187D01*
X042051Y020188D01*
X042057D01*
X042162Y020232D01*
X042166Y020236D01*
X042169Y020237D01*
X042171Y020239D01*
X042177Y020240D01*
X042244Y020292D01*
X042246Y020296D01*
X042251Y020298D01*
X042260Y020308D01*
X042272Y020316D01*
X042281Y020328D01*
X042291Y020338D01*
X042292Y020342D01*
X042296Y020344D01*
X042348Y020412D01*
X042350Y020418D01*
X042351Y020420D01*
X042352Y020422D01*
X042357Y020426D01*
X042400Y020532D01*
Y020538D01*
X042401Y020540D01*
X042401Y020542D01*
X042405Y020548D01*
X042419Y020661D01*
X042418Y020667D01*
X042418Y020669D01*
X042418Y020672D01*
X042419Y020678D01*
X042405Y020791D01*
X042401Y020796D01*
X042401Y020798D01*
X042400Y020801D01*
Y020807D01*
X042357Y020912D01*
X042352Y020916D01*
X042351Y020919D01*
X042350Y020921D01*
X042348Y020927D01*
X042296Y020994D01*
X042292Y020996D01*
X042291Y021001D01*
X042281Y021010D01*
X042272Y021022D01*
X042260Y021031D01*
X042251Y021041D01*
X042246Y021042D01*
X042244Y021046D01*
X042177Y021098D01*
X042171Y021100D01*
X042169Y021101D01*
X042166Y021102D01*
X042162Y021107D01*
X042057Y021150D01*
X042051D01*
X042048Y021151D01*
X042046Y021151D01*
X042041Y021155D01*
X041928Y021169D01*
D02*
G37*
G36*
X058589D02*
X058583Y021168D01*
X058581Y021168D01*
X058578Y021168D01*
X058572Y021169D01*
X058459Y021155D01*
X058454Y021151D01*
X058452Y021151D01*
X058449Y021150D01*
X058443D01*
X058338Y021107D01*
X058334Y021102D01*
X058331Y021101D01*
X058329Y021100D01*
X058323Y021098D01*
X058256Y021046D01*
X058253Y021042D01*
X058249Y021041D01*
X058240Y021031D01*
X058228Y021022D01*
X058219Y021010D01*
X058209Y021001D01*
X058208Y020996D01*
X058204Y020994D01*
X058152Y020927D01*
X058150Y020921D01*
X058149Y020919D01*
X058148Y020916D01*
X058143Y020912D01*
X058100Y020807D01*
Y020801D01*
X058099Y020798D01*
X058099Y020796D01*
X058095Y020791D01*
X058081Y020678D01*
X058082Y020672D01*
X058082Y020669D01*
X058082Y020667D01*
X058081Y020661D01*
X058095Y020548D01*
X058099Y020542D01*
X058099Y020540D01*
X058100Y020538D01*
Y020532D01*
X058143Y020426D01*
X058148Y020422D01*
X058149Y020420D01*
X058150Y020418D01*
X058152Y020412D01*
X058204Y020344D01*
X058208Y020342D01*
X058209Y020338D01*
X058219Y020328D01*
X058228Y020316D01*
X058240Y020308D01*
X058249Y020298D01*
X058253Y020296D01*
X058256Y020292D01*
X058323Y020240D01*
X058329Y020239D01*
X058331Y020237D01*
X058334Y020236D01*
X058338Y020232D01*
X058443Y020188D01*
X058449D01*
X058452Y020187D01*
X058454Y020187D01*
X058459Y020184D01*
X058572Y020169D01*
X058578Y020171D01*
X058581Y020170D01*
X058583Y020171D01*
X058589Y020169D01*
X058702Y020184D01*
X058708Y020187D01*
X058710Y020187D01*
X058712Y020188D01*
X058718D01*
X058824Y020232D01*
X058828Y020236D01*
X058830Y020237D01*
X058832Y020239D01*
X058838Y020240D01*
X058906Y020292D01*
X058908Y020296D01*
X058912Y020298D01*
X058922Y020308D01*
X058934Y020316D01*
X058942Y020328D01*
X058952Y020338D01*
X058954Y020342D01*
X058958Y020344D01*
X059010Y020412D01*
X059011Y020418D01*
X059013Y020420D01*
X059014Y020422D01*
X059018Y020426D01*
X059062Y020532D01*
Y020538D01*
X059063Y020540D01*
X059063Y020542D01*
X059066Y020548D01*
X059081Y020661D01*
X059079Y020667D01*
X059080Y020669D01*
X059079Y020672D01*
X059081Y020678D01*
X059066Y020791D01*
X059063Y020796D01*
X059063Y020798D01*
X059062Y020801D01*
Y020807D01*
X059018Y020912D01*
X059014Y020916D01*
X059013Y020919D01*
X059011Y020921D01*
X059010Y020927D01*
X058958Y020994D01*
X058954Y020996D01*
X058952Y021001D01*
X058942Y021010D01*
X058934Y021022D01*
X058922Y021031D01*
X058912Y021041D01*
X058908Y021042D01*
X058906Y021046D01*
X058838Y021098D01*
X058832Y021100D01*
X058830Y021101D01*
X058828Y021102D01*
X058824Y021107D01*
X058718Y021150D01*
X058712D01*
X058710Y021151D01*
X058708Y021151D01*
X058702Y021155D01*
X058589Y021169D01*
D02*
G37*
G36*
X044063Y021857D02*
X043963Y021843D01*
X043869Y021805D01*
X043789Y021743D01*
X043727Y021663D01*
X043689Y021570D01*
X043675Y021469D01*
X043689Y021369D01*
X043727Y021276D01*
X043789Y021195D01*
X043869Y021134D01*
X043963Y021095D01*
X044063Y021082D01*
X044163Y021095D01*
X044257Y021134D01*
X044337Y021195D01*
X044398Y021276D01*
X044437Y021369D01*
X044450Y021469D01*
X044437Y021570D01*
X044398Y021663D01*
X044337Y021743D01*
X044257Y021805D01*
X044163Y021843D01*
X044063Y021857D01*
D02*
G37*
G36*
X056037Y021352D02*
X055942Y021257D01*
X056037Y021163D01*
X056056Y021257D01*
X056037Y021352D01*
D02*
G37*
G36*
X057144Y022493D02*
X057044Y022480D01*
X056951Y022441D01*
X056870Y022380D01*
X056809Y022299D01*
X056770Y022206D01*
X056757Y022106D01*
X056770Y022005D01*
X056809Y021912D01*
X056870Y021832D01*
X056951Y021770D01*
X057044Y021732D01*
X057144Y021718D01*
X057245Y021732D01*
X057338Y021770D01*
X057418Y021832D01*
X057480Y021912D01*
X057518Y022005D01*
X057532Y022106D01*
X057518Y022206D01*
X057480Y022299D01*
X057418Y022380D01*
X057338Y022441D01*
X057245Y022480D01*
X057144Y022493D01*
D02*
G37*
G36*
X042719Y023200D02*
X042619Y023187D01*
X042526Y023148D01*
X042445Y023087D01*
X042384Y023006D01*
X042345Y022913D01*
X042332Y022813D01*
X042345Y022713D01*
X042384Y022619D01*
X042445Y022539D01*
X042526Y022477D01*
X042619Y022439D01*
X042719Y022425D01*
X042820Y022439D01*
X042913Y022477D01*
X042993Y022539D01*
X043055Y022619D01*
X043093Y022713D01*
X043107Y022813D01*
X043093Y022913D01*
X043055Y023006D01*
X042993Y023087D01*
X042913Y023148D01*
X042820Y023187D01*
X042719Y023200D01*
D02*
G37*
G36*
X056003Y022604D02*
X055952Y022554D01*
X056003Y022543D01*
X056054Y022554D01*
X056003Y022604D01*
D02*
G37*
G36*
X043391Y022528D02*
X043291Y022515D01*
X043197Y022477D01*
X043117Y022415D01*
X043056Y022335D01*
X043017Y022241D01*
X043004Y022141D01*
X043017Y022041D01*
X043056Y021947D01*
X043117Y021867D01*
X043197Y021806D01*
X043291Y021767D01*
X043391Y021754D01*
X043491Y021767D01*
X043585Y021806D01*
X043665Y021867D01*
X043727Y021947D01*
X043765Y022041D01*
X043778Y022141D01*
X043765Y022241D01*
X043727Y022335D01*
X043665Y022415D01*
X043585Y022477D01*
X043491Y022515D01*
X043391Y022528D01*
D02*
G37*
G36*
X057816Y023165D02*
X057716Y023152D01*
X057622Y023113D01*
X057542Y023051D01*
X057481Y022971D01*
X057442Y022878D01*
X057429Y022777D01*
X057442Y022677D01*
X057481Y022584D01*
X057542Y022504D01*
X057622Y022442D01*
X057716Y022403D01*
X057816Y022390D01*
X057916Y022403D01*
X058010Y022442D01*
X058090Y022504D01*
X058152Y022584D01*
X058190Y022677D01*
X058203Y022777D01*
X058190Y022878D01*
X058152Y022971D01*
X058090Y023051D01*
X058010Y023113D01*
X057916Y023152D01*
X057816Y023165D01*
D02*
G37*
G36*
X041719Y018475D02*
X041713Y018474D01*
X041710Y018474D01*
X041708Y018474D01*
X041702Y018475D01*
X041620Y018464D01*
X041615Y018461D01*
X041612Y018461D01*
X041610Y018460D01*
X041604D01*
X041527Y018428D01*
X041523Y018424D01*
X041521Y018423D01*
X041519Y018422D01*
X041513Y018420D01*
X041463Y018382D01*
X041461Y018378D01*
X041457Y018377D01*
X041447Y018367D01*
X041442Y018363D01*
X041438Y018357D01*
X041428Y018347D01*
X041426Y018343D01*
X041422Y018341D01*
X041385Y018292D01*
X041383Y018286D01*
X041382Y018284D01*
X041381Y018282D01*
X041376Y018277D01*
X041345Y018201D01*
Y018195D01*
X041344Y018192D01*
X041343Y018190D01*
X041340Y018185D01*
X041329Y018102D01*
X041331Y018096D01*
X041331Y018094D01*
X041331Y018092D01*
X041329Y018086D01*
X041340Y018004D01*
X041343Y017998D01*
X041344Y017996D01*
X041345Y017994D01*
Y017987D01*
X041376Y017911D01*
X041381Y017906D01*
X041382Y017904D01*
X041383Y017902D01*
X041385Y017896D01*
X041422Y017847D01*
X041426Y017845D01*
X041428Y017841D01*
X041438Y017831D01*
X041442Y017826D01*
X041447Y017821D01*
X041457Y017812D01*
X041461Y017810D01*
X041463Y017806D01*
X041513Y017768D01*
X041519Y017767D01*
X041521Y017765D01*
X041523Y017764D01*
X041527Y017760D01*
X041604Y017728D01*
X041610Y017728D01*
X041612Y017727D01*
X041615Y017727D01*
X041620Y017724D01*
X041702Y017713D01*
X041708Y017715D01*
X041710Y017714D01*
X041713Y017715D01*
X041719Y017713D01*
X041801Y017724D01*
X041806Y017727D01*
X041809Y017727D01*
X041811Y017728D01*
X041817Y017728D01*
X041894Y017760D01*
X041898Y017764D01*
X041900Y017765D01*
X041902Y017767D01*
X041908Y017768D01*
X041957Y017806D01*
X041960Y017810D01*
X041964Y017812D01*
X041974Y017821D01*
X041979Y017826D01*
X041983Y017831D01*
X041993Y017841D01*
X041995Y017845D01*
X041998Y017847D01*
X042036Y017896D01*
X042038Y017902D01*
X042039Y017904D01*
X042040Y017906D01*
X042045Y017911D01*
X042076Y017987D01*
Y017994D01*
X042077Y017996D01*
X042078Y017998D01*
X042081Y018004D01*
X042091Y018086D01*
X042090Y018092D01*
X042090Y018094D01*
X042090Y018096D01*
X042091Y018102D01*
X042081Y018185D01*
X042078Y018190D01*
X042077Y018192D01*
X042076Y018195D01*
Y018201D01*
X042045Y018277D01*
X042040Y018282D01*
X042039Y018284D01*
X042038Y018286D01*
X042036Y018292D01*
X041998Y018341D01*
X041995Y018343D01*
X041993Y018347D01*
X041983Y018357D01*
X041979Y018363D01*
X041974Y018367D01*
X041964Y018377D01*
X041960Y018378D01*
X041957Y018382D01*
X041908Y018420D01*
X041902Y018422D01*
X041900Y018423D01*
X041898Y018424D01*
X041894Y018428D01*
X041817Y018460D01*
X041811D01*
X041809Y018461D01*
X041806Y018461D01*
X041801Y018464D01*
X041719Y018475D01*
D02*
G37*
G36*
X058798D02*
X058792Y018474D01*
X058790Y018474D01*
X058787Y018474D01*
X058781Y018475D01*
X058699Y018464D01*
X058694Y018461D01*
X058691Y018461D01*
X058689Y018460D01*
X058683D01*
X058606Y018428D01*
X058602Y018424D01*
X058600Y018423D01*
X058598Y018422D01*
X058592Y018420D01*
X058543Y018382D01*
X058540Y018378D01*
X058536Y018377D01*
X058526Y018367D01*
X058521Y018363D01*
X058517Y018357D01*
X058507Y018347D01*
X058505Y018343D01*
X058502Y018341D01*
X058464Y018292D01*
X058462Y018286D01*
X058461Y018284D01*
X058460Y018282D01*
X058455Y018277D01*
X058424Y018201D01*
Y018195D01*
X058423Y018192D01*
X058422Y018190D01*
X058419Y018185D01*
X058409Y018102D01*
X058410Y018096D01*
X058410Y018094D01*
X058410Y018092D01*
X058409Y018086D01*
X058419Y018004D01*
X058422Y017998D01*
X058423Y017996D01*
X058424Y017994D01*
Y017987D01*
X058455Y017911D01*
X058460Y017906D01*
X058461Y017904D01*
X058462Y017902D01*
X058464Y017896D01*
X058502Y017847D01*
X058505Y017845D01*
X058507Y017841D01*
X058517Y017831D01*
X058521Y017826D01*
X058526Y017821D01*
X058536Y017812D01*
X058540Y017810D01*
X058543Y017806D01*
X058592Y017768D01*
X058598Y017767D01*
X058600Y017765D01*
X058602Y017764D01*
X058606Y017760D01*
X058683Y017728D01*
X058689Y017728D01*
X058691Y017727D01*
X058694Y017727D01*
X058699Y017724D01*
X058781Y017713D01*
X058787Y017715D01*
X058790Y017714D01*
X058792Y017715D01*
X058798Y017713D01*
X058880Y017724D01*
X058885Y017727D01*
X058888Y017727D01*
X058890Y017728D01*
X058896Y017728D01*
X058973Y017760D01*
X058977Y017764D01*
X058979Y017765D01*
X058981Y017767D01*
X058987Y017768D01*
X059037Y017806D01*
X059039Y017810D01*
X059043Y017812D01*
X059053Y017821D01*
X059058Y017826D01*
X059062Y017831D01*
X059072Y017841D01*
X059074Y017845D01*
X059078Y017847D01*
X059115Y017896D01*
X059117Y017902D01*
X059118Y017904D01*
X059119Y017906D01*
X059124Y017911D01*
X059155Y017987D01*
Y017994D01*
X059156Y017996D01*
X059157Y017998D01*
X059160Y018004D01*
X059171Y018086D01*
X059169Y018092D01*
X059169Y018094D01*
X059169Y018096D01*
X059171Y018102D01*
X059160Y018185D01*
X059157Y018190D01*
X059156Y018192D01*
X059155Y018195D01*
Y018201D01*
X059124Y018277D01*
X059119Y018282D01*
X059118Y018284D01*
X059117Y018286D01*
X059115Y018292D01*
X059078Y018341D01*
X059074Y018343D01*
X059072Y018347D01*
X059062Y018357D01*
X059058Y018363D01*
X059053Y018367D01*
X059043Y018377D01*
X059039Y018378D01*
X059037Y018382D01*
X058987Y018420D01*
X058981Y018422D01*
X058979Y018423D01*
X058977Y018424D01*
X058973Y018428D01*
X058896Y018460D01*
X058890D01*
X058888Y018461D01*
X058885Y018461D01*
X058880Y018464D01*
X058798Y018475D01*
D02*
G37*
G36*
X039144Y018386D02*
X039138Y018384D01*
X039135Y018384D01*
X039133Y018384D01*
X039127Y018386D01*
X039014Y018371D01*
X039009Y018368D01*
X039006Y018367D01*
X039004Y018366D01*
X038998D01*
X038892Y018323D01*
X038888Y018318D01*
X038886Y018317D01*
X038884Y018316D01*
X038878Y018314D01*
X038810Y018262D01*
X038808Y018259D01*
X038804Y018257D01*
X038794Y018247D01*
X038783Y018238D01*
X038774Y018227D01*
X038764Y018217D01*
X038762Y018213D01*
X038758Y018210D01*
X038706Y018143D01*
X038705Y018137D01*
X038703Y018135D01*
X038702Y018133D01*
X038698Y018128D01*
X038654Y018023D01*
Y018017D01*
X038653Y018014D01*
X038653Y018012D01*
X038650Y018007D01*
X038635Y017894D01*
X038637Y017888D01*
X038636Y017885D01*
X038637Y017883D01*
X038635Y017877D01*
X038650Y017764D01*
X038653Y017759D01*
X038653Y017756D01*
X038654Y017754D01*
Y017748D01*
X038698Y017642D01*
X038702Y017638D01*
X038703Y017636D01*
X038705Y017634D01*
X038706Y017628D01*
X038758Y017560D01*
X038762Y017558D01*
X038764Y017554D01*
X038774Y017544D01*
X038783Y017533D01*
X038794Y017524D01*
X038804Y017514D01*
X038808Y017512D01*
X038810Y017508D01*
X038878Y017456D01*
X038884Y017455D01*
X038886Y017453D01*
X038888Y017452D01*
X038892Y017448D01*
X038998Y017404D01*
X039004D01*
X039006Y017403D01*
X039009Y017403D01*
X039014Y017400D01*
X039127Y017385D01*
X039133Y017387D01*
X039135Y017386D01*
X039138Y017387D01*
X039144Y017385D01*
X039257Y017400D01*
X039262Y017403D01*
X039264Y017403D01*
X039267Y017404D01*
X039273D01*
X039378Y017448D01*
X039383Y017452D01*
X039385Y017453D01*
X039387Y017455D01*
X039393Y017456D01*
X039460Y017508D01*
X039463Y017512D01*
X039467Y017514D01*
X039477Y017524D01*
X039488Y017533D01*
X039497Y017544D01*
X039507Y017554D01*
X039509Y017558D01*
X039512Y017560D01*
X039564Y017628D01*
X039566Y017634D01*
X039567Y017636D01*
X039568Y017638D01*
X039573Y017642D01*
X039616Y017748D01*
Y017754D01*
X039617Y017756D01*
X039618Y017759D01*
X039621Y017764D01*
X039636Y017877D01*
X039634Y017883D01*
X039634Y017885D01*
X039634Y017888D01*
X039636Y017894D01*
X039621Y018007D01*
X039618Y018012D01*
X039617Y018014D01*
X039616Y018017D01*
Y018023D01*
X039573Y018128D01*
X039568Y018133D01*
X039567Y018135D01*
X039566Y018137D01*
X039564Y018143D01*
X039512Y018210D01*
X039509Y018213D01*
X039507Y018217D01*
X039497Y018227D01*
X039488Y018238D01*
X039477Y018247D01*
X039467Y018257D01*
X039463Y018259D01*
X039460Y018262D01*
X039393Y018314D01*
X039387Y018316D01*
X039385Y018317D01*
X039383Y018318D01*
X039378Y018323D01*
X039273Y018366D01*
X039267D01*
X039264Y018367D01*
X039262Y018368D01*
X039257Y018371D01*
X039144Y018386D01*
D02*
G37*
G36*
X061373D02*
X061367Y018384D01*
X061365Y018384D01*
X061362Y018384D01*
X061356Y018386D01*
X061243Y018371D01*
X061238Y018368D01*
X061236Y018367D01*
X061233Y018366D01*
X061227D01*
X061122Y018323D01*
X061117Y018318D01*
X061115Y018317D01*
X061113Y018316D01*
X061107Y018314D01*
X061040Y018262D01*
X061037Y018259D01*
X061033Y018257D01*
X061023Y018247D01*
X061012Y018238D01*
X061003Y018227D01*
X060993Y018217D01*
X060991Y018213D01*
X060988Y018210D01*
X060936Y018143D01*
X060934Y018137D01*
X060933Y018135D01*
X060932Y018133D01*
X060927Y018128D01*
X060884Y018023D01*
Y018017D01*
X060883Y018014D01*
X060882Y018012D01*
X060879Y018007D01*
X060864Y017894D01*
X060866Y017888D01*
X060866Y017885D01*
X060866Y017883D01*
X060864Y017877D01*
X060879Y017764D01*
X060882Y017759D01*
X060883Y017756D01*
X060884Y017754D01*
Y017748D01*
X060927Y017642D01*
X060932Y017638D01*
X060933Y017636D01*
X060934Y017634D01*
X060936Y017628D01*
X060988Y017560D01*
X060991Y017558D01*
X060993Y017554D01*
X061003Y017544D01*
X061012Y017533D01*
X061023Y017524D01*
X061033Y017514D01*
X061037Y017512D01*
X061040Y017508D01*
X061107Y017456D01*
X061113Y017455D01*
X061115Y017453D01*
X061117Y017452D01*
X061122Y017448D01*
X061227Y017404D01*
X061233D01*
X061236Y017403D01*
X061238Y017403D01*
X061243Y017400D01*
X061356Y017385D01*
X061362Y017387D01*
X061365Y017386D01*
X061367Y017387D01*
X061373Y017385D01*
X061486Y017400D01*
X061491Y017403D01*
X061494Y017403D01*
X061496Y017404D01*
X061502D01*
X061608Y017448D01*
X061612Y017452D01*
X061614Y017453D01*
X061616Y017455D01*
X061622Y017456D01*
X061690Y017508D01*
X061692Y017512D01*
X061696Y017514D01*
X061706Y017524D01*
X061717Y017533D01*
X061726Y017544D01*
X061736Y017554D01*
X061738Y017558D01*
X061742Y017560D01*
X061794Y017628D01*
X061795Y017634D01*
X061797Y017636D01*
X061798Y017638D01*
X061802Y017642D01*
X061846Y017748D01*
Y017754D01*
X061847Y017756D01*
X061847Y017759D01*
X061850Y017764D01*
X061865Y017877D01*
X061863Y017883D01*
X061864Y017885D01*
X061863Y017888D01*
X061865Y017894D01*
X061850Y018007D01*
X061847Y018012D01*
X061847Y018014D01*
X061846Y018017D01*
Y018023D01*
X061802Y018128D01*
X061798Y018133D01*
X061797Y018135D01*
X061795Y018137D01*
X061794Y018143D01*
X061742Y018210D01*
X061738Y018213D01*
X061736Y018217D01*
X061726Y018227D01*
X061717Y018238D01*
X061706Y018247D01*
X061696Y018257D01*
X061692Y018259D01*
X061690Y018262D01*
X061622Y018314D01*
X061616Y018316D01*
X061614Y018317D01*
X061612Y018318D01*
X061608Y018323D01*
X061502Y018366D01*
X061496D01*
X061494Y018367D01*
X061491Y018368D01*
X061486Y018371D01*
X061373Y018386D01*
D02*
G37*
G36*
X040532Y020427D02*
X040527Y020425D01*
X040522Y020427D01*
X040352Y020414D01*
X040348Y020411D01*
X040342Y020412D01*
X040177Y020372D01*
X040172Y020369D01*
X040167D01*
X040010Y020304D01*
X040006Y020300D01*
X040001Y020299D01*
X039856Y020210D01*
X039852Y020206D01*
X039847Y020205D01*
X039750Y020122D01*
X039749Y020119D01*
X039747Y020118D01*
X039727Y020099D01*
X039716Y020089D01*
X039706Y020078D01*
X039686Y020058D01*
X039685Y020055D01*
X039683Y020054D01*
X039600Y019957D01*
X039598Y019952D01*
X039594Y019949D01*
X039505Y019804D01*
X039504Y019799D01*
X039501Y019795D01*
X039435Y019637D01*
X039435Y019632D01*
X039432Y019628D01*
X039392Y019462D01*
X039393Y019457D01*
X039391Y019452D01*
X039378Y019282D01*
X039379Y019277D01*
X039378Y019272D01*
X039391Y019102D01*
X039393Y019098D01*
X039392Y019092D01*
X039432Y018927D01*
X039435Y018922D01*
Y018917D01*
X039501Y018760D01*
X039504Y018756D01*
X039505Y018751D01*
X039594Y018606D01*
X039598Y018602D01*
X039600Y018597D01*
X039683Y018500D01*
X039685Y018499D01*
X039686Y018497D01*
X039706Y018477D01*
X039716Y018466D01*
X039727Y018456D01*
X039747Y018436D01*
X039749Y018435D01*
X039750Y018433D01*
X039847Y018350D01*
X039852Y018348D01*
X039856Y018344D01*
X040001Y018255D01*
X040006Y018254D01*
X040010Y018251D01*
X040167Y018185D01*
X040172Y018185D01*
X040177Y018182D01*
X040342Y018142D01*
X040348Y018143D01*
X040352Y018141D01*
X040522Y018128D01*
X040527Y018129D01*
X040532Y018128D01*
X040702Y018141D01*
X040707Y018143D01*
X040712Y018142D01*
X040878Y018182D01*
X040882Y018185D01*
X040887D01*
X041045Y018251D01*
X041049Y018254D01*
X041054Y018255D01*
X041199Y018344D01*
X041202Y018348D01*
X041207Y018350D01*
X041304Y018433D01*
X041305Y018435D01*
X041308Y018436D01*
X041328Y018456D01*
X041339Y018466D01*
X041349Y018477D01*
X041368Y018497D01*
X041369Y018499D01*
X041372Y018500D01*
X041455Y018597D01*
X041456Y018602D01*
X041460Y018606D01*
X041549Y018751D01*
X041550Y018756D01*
X041554Y018760D01*
X041619Y018917D01*
Y018922D01*
X041622Y018927D01*
X041662Y019092D01*
X041661Y019098D01*
X041664Y019102D01*
X041677Y019272D01*
X041675Y019277D01*
X041677Y019282D01*
X041664Y019452D01*
X041661Y019457D01*
X041662Y019462D01*
X041622Y019628D01*
X041619Y019632D01*
Y019637D01*
X041554Y019795D01*
X041550Y019799D01*
X041549Y019804D01*
X041460Y019949D01*
X041456Y019952D01*
X041455Y019957D01*
X041372Y020054D01*
X041369Y020055D01*
X041368Y020058D01*
X041349Y020078D01*
X041339Y020089D01*
X041328Y020099D01*
X041308Y020118D01*
X041305Y020119D01*
X041304Y020122D01*
X041207Y020205D01*
X041202Y020206D01*
X041199Y020210D01*
X041054Y020299D01*
X041049Y020300D01*
X041045Y020304D01*
X040887Y020369D01*
X040882D01*
X040878Y020372D01*
X040712Y020412D01*
X040707Y020411D01*
X040702Y020414D01*
X040532Y020427D01*
D02*
G37*
G36*
X061164Y020841D02*
X061158Y020840D01*
X061156Y020840D01*
X061153Y020840D01*
X061148Y020841D01*
X061065Y020831D01*
X061060Y020828D01*
X061058Y020827D01*
X061055Y020826D01*
X061049D01*
X060973Y020795D01*
X060968Y020790D01*
X060966Y020789D01*
X060964Y020788D01*
X060958Y020786D01*
X060909Y020748D01*
X060907Y020745D01*
X060903Y020743D01*
X060893Y020733D01*
X060887Y020729D01*
X060883Y020724D01*
X060873Y020714D01*
X060872Y020710D01*
X060868Y020707D01*
X060830Y020658D01*
X060828Y020652D01*
X060827Y020650D01*
X060826Y020648D01*
X060822Y020644D01*
X060790Y020567D01*
Y020561D01*
X060789Y020559D01*
X060789Y020556D01*
X060786Y020551D01*
X060775Y020469D01*
X060776Y020463D01*
X060776Y020460D01*
X060776Y020458D01*
X060775Y020452D01*
X060786Y020370D01*
X060789Y020365D01*
X060789Y020362D01*
X060790Y020360D01*
Y020354D01*
X060822Y020277D01*
X060826Y020273D01*
X060827Y020271D01*
X060828Y020269D01*
X060830Y020263D01*
X060868Y020213D01*
X060872Y020211D01*
X060873Y020207D01*
X060883Y020197D01*
X060887Y020192D01*
X060893Y020188D01*
X060903Y020178D01*
X060907Y020176D01*
X060909Y020172D01*
X060958Y020135D01*
X060964Y020133D01*
X060966Y020132D01*
X060968Y020131D01*
X060973Y020126D01*
X061049Y020095D01*
X061055D01*
X061058Y020094D01*
X061060Y020093D01*
X061065Y020090D01*
X061148Y020079D01*
X061153Y020081D01*
X061156Y020081D01*
X061158Y020081D01*
X061164Y020079D01*
X061246Y020090D01*
X061252Y020093D01*
X061254Y020094D01*
X061256Y020095D01*
X061263D01*
X061339Y020126D01*
X061344Y020131D01*
X061346Y020132D01*
X061348Y020133D01*
X061354Y020135D01*
X061403Y020172D01*
X061405Y020176D01*
X061409Y020178D01*
X061419Y020188D01*
X061424Y020192D01*
X061429Y020197D01*
X061438Y020207D01*
X061440Y020211D01*
X061444Y020213D01*
X061482Y020263D01*
X061483Y020269D01*
X061485Y020271D01*
X061486Y020273D01*
X061490Y020277D01*
X061522Y020354D01*
X061522Y020360D01*
X061523Y020362D01*
X061523Y020365D01*
X061526Y020370D01*
X061537Y020452D01*
X061535Y020458D01*
X061536Y020460D01*
X061535Y020463D01*
X061537Y020469D01*
X061526Y020551D01*
X061523Y020556D01*
X061523Y020559D01*
X061522Y020561D01*
X061522Y020567D01*
X061490Y020644D01*
X061486Y020648D01*
X061485Y020650D01*
X061483Y020652D01*
X061482Y020658D01*
X061444Y020707D01*
X061440Y020710D01*
X061438Y020714D01*
X061429Y020724D01*
X061424Y020729D01*
X061419Y020733D01*
X061409Y020743D01*
X061405Y020745D01*
X061403Y020748D01*
X061354Y020786D01*
X061348Y020788D01*
X061346Y020789D01*
X061344Y020790D01*
X061339Y020795D01*
X061263Y020826D01*
X061256D01*
X061254Y020827D01*
X061252Y020828D01*
X061246Y020831D01*
X061164Y020841D01*
D02*
G37*
G36*
X056473Y021821D02*
X056372Y021808D01*
X056279Y021769D01*
X056199Y021708D01*
X056137Y021628D01*
X056098Y021534D01*
X056085Y021434D01*
X056098Y021334D01*
X056137Y021240D01*
X056199Y021160D01*
X056279Y021098D01*
X056372Y021060D01*
X056473Y021047D01*
X056573Y021060D01*
X056666Y021098D01*
X056746Y021160D01*
X056808Y021240D01*
X056847Y021334D01*
X056860Y021434D01*
X056847Y021534D01*
X056808Y021628D01*
X056746Y021708D01*
X056666Y021769D01*
X056573Y021808D01*
X056473Y021821D01*
D02*
G37*
G36*
X059978Y020427D02*
X059973Y020425D01*
X059968Y020427D01*
X059798Y020414D01*
X059793Y020411D01*
X059788Y020412D01*
X059622Y020372D01*
X059618Y020369D01*
X059613D01*
X059455Y020304D01*
X059451Y020300D01*
X059446Y020299D01*
X059301Y020210D01*
X059298Y020206D01*
X059293Y020205D01*
X059196Y020122D01*
X059194Y020119D01*
X059192Y020118D01*
X059172Y020099D01*
X059161Y020089D01*
X059151Y020078D01*
X059132Y020058D01*
X059131Y020055D01*
X059128Y020054D01*
X059046Y019957D01*
X059044Y019952D01*
X059040Y019949D01*
X058951Y019804D01*
X058950Y019799D01*
X058946Y019795D01*
X058881Y019637D01*
Y019632D01*
X058878Y019628D01*
X058838Y019462D01*
X058839Y019457D01*
X058836Y019452D01*
X058823Y019282D01*
X058825Y019277D01*
X058823Y019272D01*
X058836Y019102D01*
X058839Y019098D01*
X058838Y019092D01*
X058878Y018927D01*
X058881Y018922D01*
Y018917D01*
X058946Y018760D01*
X058950Y018756D01*
X058951Y018751D01*
X059040Y018606D01*
X059044Y018602D01*
X059046Y018597D01*
X059128Y018500D01*
X059131Y018499D01*
X059132Y018497D01*
X059151Y018477D01*
X059161Y018466D01*
X059172Y018456D01*
X059192Y018436D01*
X059194Y018435D01*
X059196Y018433D01*
X059293Y018350D01*
X059298Y018348D01*
X059301Y018344D01*
X059446Y018255D01*
X059451Y018254D01*
X059455Y018251D01*
X059613Y018185D01*
X059618Y018185D01*
X059622Y018182D01*
X059788Y018142D01*
X059793Y018143D01*
X059798Y018141D01*
X059968Y018128D01*
X059973Y018129D01*
X059978Y018128D01*
X060148Y018141D01*
X060152Y018143D01*
X060158Y018142D01*
X060323Y018182D01*
X060328Y018185D01*
X060333D01*
X060490Y018251D01*
X060494Y018254D01*
X060499Y018255D01*
X060644Y018344D01*
X060648Y018348D01*
X060653Y018350D01*
X060750Y018433D01*
X060751Y018435D01*
X060753Y018436D01*
X060773Y018456D01*
X060784Y018466D01*
X060794Y018477D01*
X060814Y018497D01*
X060815Y018499D01*
X060817Y018500D01*
X060900Y018597D01*
X060902Y018602D01*
X060906Y018606D01*
X060995Y018751D01*
X060996Y018756D01*
X060999Y018760D01*
X061065Y018917D01*
X061065Y018922D01*
X061068Y018927D01*
X061108Y019092D01*
X061107Y019098D01*
X061109Y019102D01*
X061122Y019272D01*
X061121Y019277D01*
X061122Y019282D01*
X061109Y019452D01*
X061107Y019457D01*
X061108Y019462D01*
X061068Y019628D01*
X061065Y019632D01*
Y019637D01*
X060999Y019795D01*
X060996Y019799D01*
X060995Y019804D01*
X060906Y019949D01*
X060902Y019952D01*
X060900Y019957D01*
X060817Y020054D01*
X060815Y020055D01*
X060814Y020058D01*
X060794Y020078D01*
X060784Y020089D01*
X060773Y020099D01*
X060753Y020118D01*
X060751Y020119D01*
X060750Y020122D01*
X060653Y020205D01*
X060648Y020206D01*
X060644Y020210D01*
X060499Y020299D01*
X060494Y020300D01*
X060490Y020304D01*
X060333Y020369D01*
X060328D01*
X060323Y020372D01*
X060158Y020412D01*
X060152Y020411D01*
X060148Y020414D01*
X059978Y020427D01*
D02*
G37*
G36*
X039352Y020841D02*
X039346Y020840D01*
X039344Y020840D01*
X039342Y020840D01*
X039336Y020841D01*
X039254Y020831D01*
X039248Y020828D01*
X039246Y020827D01*
X039244Y020826D01*
X039237D01*
X039161Y020795D01*
X039156Y020790D01*
X039154Y020789D01*
X039152Y020788D01*
X039146Y020786D01*
X039097Y020748D01*
X039095Y020745D01*
X039091Y020743D01*
X039081Y020733D01*
X039076Y020729D01*
X039071Y020724D01*
X039062Y020714D01*
X039060Y020710D01*
X039056Y020707D01*
X039018Y020658D01*
X039017Y020652D01*
X039015Y020650D01*
X039014Y020648D01*
X039010Y020644D01*
X038978Y020567D01*
X038978Y020561D01*
X038977Y020559D01*
X038977Y020556D01*
X038974Y020551D01*
X038963Y020469D01*
X038965Y020463D01*
X038964Y020460D01*
X038965Y020458D01*
X038963Y020452D01*
X038974Y020370D01*
X038977Y020365D01*
X038977Y020362D01*
X038978Y020360D01*
X038978Y020354D01*
X039010Y020277D01*
X039014Y020273D01*
X039015Y020271D01*
X039017Y020269D01*
X039018Y020263D01*
X039056Y020213D01*
X039060Y020211D01*
X039062Y020207D01*
X039071Y020197D01*
X039076Y020192D01*
X039081Y020188D01*
X039091Y020178D01*
X039095Y020176D01*
X039097Y020172D01*
X039146Y020135D01*
X039152Y020133D01*
X039154Y020132D01*
X039156Y020131D01*
X039161Y020126D01*
X039237Y020095D01*
X039244D01*
X039246Y020094D01*
X039248Y020093D01*
X039254Y020090D01*
X039336Y020079D01*
X039342Y020081D01*
X039344Y020081D01*
X039346Y020081D01*
X039352Y020079D01*
X039435Y020090D01*
X039440Y020093D01*
X039442Y020094D01*
X039445Y020095D01*
X039451D01*
X039527Y020126D01*
X039532Y020131D01*
X039534Y020132D01*
X039536Y020133D01*
X039542Y020135D01*
X039591Y020172D01*
X039593Y020176D01*
X039597Y020178D01*
X039607Y020188D01*
X039613Y020192D01*
X039617Y020197D01*
X039627Y020207D01*
X039628Y020211D01*
X039632Y020213D01*
X039670Y020263D01*
X039672Y020269D01*
X039673Y020271D01*
X039674Y020273D01*
X039678Y020277D01*
X039710Y020354D01*
Y020360D01*
X039711Y020362D01*
X039711Y020365D01*
X039714Y020370D01*
X039725Y020452D01*
X039724Y020458D01*
X039724Y020460D01*
X039724Y020463D01*
X039725Y020469D01*
X039714Y020551D01*
X039711Y020556D01*
X039711Y020559D01*
X039710Y020561D01*
Y020567D01*
X039678Y020644D01*
X039674Y020648D01*
X039673Y020650D01*
X039672Y020652D01*
X039670Y020658D01*
X039632Y020707D01*
X039628Y020710D01*
X039627Y020714D01*
X039617Y020724D01*
X039613Y020729D01*
X039607Y020733D01*
X039597Y020743D01*
X039593Y020745D01*
X039591Y020748D01*
X039542Y020786D01*
X039536Y020788D01*
X039534Y020789D01*
X039532Y020790D01*
X039527Y020795D01*
X039451Y020826D01*
X039445D01*
X039442Y020827D01*
X039440Y020828D01*
X039435Y020831D01*
X039352Y020841D01*
D02*
G37*
G36*
X055058Y024494D02*
X054980Y024484D01*
X054929Y024463D01*
X055058Y024333D01*
X055188Y024463D01*
X055137Y024484D01*
X055058Y024494D01*
D02*
G37*
G36*
X047273Y024800D02*
X047079Y024605D01*
X047301Y024383D01*
X047496Y024577D01*
X047273Y024800D01*
D02*
G37*
G36*
X045795Y024282D02*
X045717Y024272D01*
X045666Y024251D01*
X045795Y024121D01*
X045925Y024251D01*
X045874Y024272D01*
X045795Y024282D01*
D02*
G37*
G36*
X054441Y024385D02*
X054365Y024308D01*
X054427Y024245D01*
X054504Y024322D01*
X054441Y024385D01*
D02*
G37*
G36*
X049195Y024681D02*
X049122Y024609D01*
X049195Y024537D01*
X049267Y024609D01*
X049195Y024681D01*
D02*
G37*
G36*
X045194Y024883D02*
X045116Y024873D01*
X045065Y024852D01*
X045194Y024722D01*
X045324Y024852D01*
X045272Y024873D01*
X045194Y024883D01*
D02*
G37*
G36*
X046538Y024863D02*
X046443Y024769D01*
X046538Y024750D01*
X046632Y024769D01*
X046538Y024863D01*
D02*
G37*
G36*
X048017Y024717D02*
X047945Y024644D01*
X048017Y024572D01*
X048090Y024644D01*
X048017Y024717D01*
D02*
G37*
G36*
X053609Y024863D02*
X053479Y024734D01*
X053530Y024713D01*
X053609Y024702D01*
X053687Y024713D01*
X053738Y024734D01*
X053609Y024863D01*
D02*
G37*
G36*
X042543Y023343D02*
X042448Y023249D01*
X042543Y023230D01*
X042637Y023249D01*
X042543Y023343D01*
D02*
G37*
G36*
X043839Y023333D02*
X043829Y023282D01*
X043839Y023231D01*
X043890Y023282D01*
X043839Y023333D01*
D02*
G37*
G36*
X044532Y022640D02*
X044481Y022589D01*
X044532Y022579D01*
X044583Y022589D01*
X044532Y022640D01*
D02*
G37*
G36*
X056696Y023298D02*
X056646Y023247D01*
X056696Y023196D01*
X056707Y023247D01*
X056696Y023298D01*
D02*
G37*
G36*
X053856Y024193D02*
X053775Y024176D01*
X053706Y024130D01*
X053659Y024061D01*
X053643Y023980D01*
X053659Y023898D01*
X053706Y023829D01*
X053775Y023783D01*
X053856Y023766D01*
X053903Y023776D01*
X054077Y023602D01*
X054067Y023555D01*
X054084Y023474D01*
X054130Y023405D01*
X054199Y023358D01*
X054281Y023342D01*
X054362Y023358D01*
X054431Y023405D01*
X054477Y023474D01*
X054494Y023555D01*
X054477Y023637D01*
X054431Y023706D01*
X054362Y023752D01*
X054281Y023768D01*
X054234Y023759D01*
X054060Y023933D01*
X054069Y023980D01*
X054053Y024061D01*
X054007Y024130D01*
X053938Y024176D01*
X053856Y024193D01*
D02*
G37*
G36*
X046066Y024109D02*
X045937Y023980D01*
X046066Y023850D01*
X046088Y023901D01*
X046098Y023980D01*
X046088Y024058D01*
X046066Y024109D01*
D02*
G37*
G36*
X054787Y024321D02*
X054766Y024270D01*
X054756Y024192D01*
X054766Y024113D01*
X054787Y024062D01*
X054917Y024192D01*
X054787Y024321D01*
D02*
G37*
G36*
X045560Y023667D02*
X045509Y023616D01*
X045560Y023565D01*
X045570Y023616D01*
X045560Y023667D01*
D02*
G37*
G36*
X045524Y024109D02*
X045503Y024058D01*
X045493Y023980D01*
X045503Y023901D01*
X045524Y023850D01*
X045654Y023980D01*
X045524Y024109D01*
D02*
G37*
G36*
X050486Y029095D02*
X050391Y029000D01*
X050486Y028905D01*
X050505Y029000D01*
X050486Y029095D01*
D02*
G37*
G36*
X054940Y034435D02*
X054930Y034384D01*
X054940Y034333D01*
X054991Y034384D01*
X054940Y034435D01*
D02*
G37*
G36*
X057957Y034770D02*
X057863Y034752D01*
X057957Y034657D01*
X058052Y034752D01*
X057957Y034770D01*
D02*
G37*
G36*
X050579Y034283D02*
X050204D01*
Y033908D01*
X050579D01*
Y034283D01*
D02*
G37*
G36*
X051154D02*
X050779D01*
Y033908D01*
X051154D01*
Y034283D01*
D02*
G37*
G36*
X043839Y034769D02*
X043829Y034718D01*
X043839Y034667D01*
X043890Y034718D01*
X043839Y034769D01*
D02*
G37*
G36*
X057781Y035575D02*
X057680Y035561D01*
X057587Y035523D01*
X057507Y035461D01*
X057445Y035381D01*
X057407Y035287D01*
X057393Y035187D01*
X057407Y035087D01*
X057445Y034994D01*
X057507Y034913D01*
X057587Y034852D01*
X057680Y034813D01*
X057781Y034800D01*
X057881Y034813D01*
X057974Y034852D01*
X058055Y034913D01*
X058116Y034994D01*
X058155Y035087D01*
X058168Y035187D01*
X058155Y035287D01*
X058116Y035381D01*
X058055Y035461D01*
X057974Y035523D01*
X057881Y035561D01*
X057781Y035575D01*
D02*
G37*
G36*
X044724Y035270D02*
X044603Y035148D01*
X044532Y035219D01*
X044461Y035148D01*
X044340Y035270D01*
X044330Y035219D01*
X044333Y035203D01*
X044298Y035167D01*
X044282Y035171D01*
X044231Y035161D01*
X044352Y035039D01*
X044211Y034898D01*
X044089Y035019D01*
X044079Y034968D01*
X044083Y034952D01*
X044047Y034917D01*
X044031Y034920D01*
X043980Y034910D01*
X044102Y034789D01*
X044031Y034718D01*
X044102Y034647D01*
X043980Y034526D01*
X044031Y034516D01*
X044073Y034524D01*
X044115Y034481D01*
X044107Y034439D01*
X044117Y034389D01*
X044239Y034510D01*
X044380Y034369D01*
X044259Y034247D01*
X044309Y034237D01*
X044351Y034245D01*
X044394Y034203D01*
X044386Y034161D01*
X044396Y034110D01*
X044517Y034232D01*
X044659Y034090D01*
X044537Y033969D01*
X044588Y033959D01*
X044630Y033967D01*
X044672Y033925D01*
X044664Y033883D01*
X044674Y033832D01*
X044796Y033953D01*
X044866Y033883D01*
X044937Y033953D01*
X045058Y033832D01*
X045069Y033883D01*
X045065Y033899D01*
X045101Y033934D01*
X045117Y033931D01*
X045168Y033941D01*
X045204Y033897D01*
X045185Y033851D01*
X045174Y033773D01*
X045185Y033695D01*
X045206Y033643D01*
X045607Y034044D01*
X045555Y034065D01*
X045477Y034076D01*
X045399Y034065D01*
X045353Y034046D01*
X045309Y034082D01*
X045319Y034133D01*
X045316Y034149D01*
X045351Y034185D01*
X045367Y034181D01*
X045418Y034192D01*
X045297Y034313D01*
X045438Y034454D01*
X045560Y034333D01*
X045570Y034384D01*
X045554Y034461D01*
X045544Y034477D01*
X045582Y034509D01*
X045777Y034314D01*
X046007Y034544D01*
X045795Y034756D01*
X045583Y034968D01*
X045353Y034738D01*
X045493Y034599D01*
X045461Y034560D01*
X045445Y034571D01*
X045367Y034586D01*
X045325Y034578D01*
X045283Y034620D01*
X045291Y034662D01*
X045281Y034713D01*
X045160Y034591D01*
X045018Y034733D01*
X045140Y034854D01*
X045089Y034864D01*
X045047Y034856D01*
X045005Y034899D01*
X045013Y034941D01*
X045003Y034991D01*
X044881Y034870D01*
X044740Y035011D01*
X044861Y035133D01*
X044811Y035143D01*
X044769Y035135D01*
X044726Y035177D01*
X044734Y035219D01*
X044724Y035270D01*
D02*
G37*
G36*
X056661Y034769D02*
X056610Y034718D01*
X056661Y034667D01*
X056671Y034718D01*
X056661Y034769D01*
D02*
G37*
G36*
X042719Y035575D02*
X042619Y035561D01*
X042526Y035523D01*
X042445Y035461D01*
X042384Y035381D01*
X042345Y035287D01*
X042332Y035187D01*
X042345Y035087D01*
X042384Y034994D01*
X042445Y034913D01*
X042526Y034852D01*
X042619Y034813D01*
X042719Y034800D01*
X042820Y034813D01*
X042913Y034852D01*
X042993Y034913D01*
X043055Y034994D01*
X043093Y035087D01*
X043107Y035187D01*
X043093Y035287D01*
X043055Y035381D01*
X042993Y035461D01*
X042913Y035523D01*
X042820Y035561D01*
X042719Y035575D01*
D02*
G37*
G36*
X052654Y034040D02*
X052576Y034030D01*
X052525Y034009D01*
X052654Y033879D01*
X052784Y034009D01*
X052732Y034030D01*
X052654Y034040D01*
D02*
G37*
G36*
X051654Y034283D02*
X051299D01*
Y033908D01*
X051654D01*
Y034283D01*
D02*
G37*
G36*
X044866Y033741D02*
X044815Y033690D01*
X044866Y033680D01*
X044917Y033690D01*
X044866Y033741D01*
D02*
G37*
G36*
X055023Y033863D02*
X054945Y033853D01*
X054893Y033832D01*
X055023Y033702D01*
X055153Y033832D01*
X055101Y033853D01*
X055023Y033863D01*
D02*
G37*
G36*
X052209Y034283D02*
X051854D01*
Y033908D01*
X052209D01*
Y034283D01*
D02*
G37*
G36*
X049579D02*
X049204D01*
Y033908D01*
X049579D01*
Y034283D01*
D02*
G37*
G36*
X050154D02*
X049779D01*
Y033908D01*
X050154D01*
Y034283D01*
D02*
G37*
G36*
X048499D02*
X048144D01*
Y033908D01*
X048499D01*
Y034283D01*
D02*
G37*
G36*
X049054D02*
X048699D01*
Y033908D01*
X049054D01*
Y034283D01*
D02*
G37*
G36*
X061164Y037921D02*
X061158Y037919D01*
X061156Y037919D01*
X061153Y037919D01*
X061148Y037921D01*
X061065Y037910D01*
X061060Y037907D01*
X061058Y037906D01*
X061055Y037905D01*
X061049D01*
X060973Y037874D01*
X060968Y037869D01*
X060966Y037868D01*
X060964Y037867D01*
X060958Y037865D01*
X060909Y037828D01*
X060907Y037824D01*
X060903Y037822D01*
X060893Y037812D01*
X060887Y037808D01*
X060883Y037803D01*
X060873Y037793D01*
X060872Y037789D01*
X060868Y037787D01*
X060830Y037737D01*
X060828Y037731D01*
X060827Y037729D01*
X060826Y037727D01*
X060822Y037723D01*
X060790Y037646D01*
Y037640D01*
X060789Y037638D01*
X060789Y037635D01*
X060786Y037630D01*
X060775Y037548D01*
X060776Y037542D01*
X060776Y037540D01*
X060776Y037537D01*
X060775Y037531D01*
X060786Y037449D01*
X060789Y037444D01*
X060789Y037441D01*
X060790Y037439D01*
Y037433D01*
X060822Y037356D01*
X060826Y037352D01*
X060827Y037350D01*
X060828Y037348D01*
X060830Y037342D01*
X060868Y037293D01*
X060872Y037290D01*
X060873Y037286D01*
X060883Y037276D01*
X060887Y037271D01*
X060893Y037267D01*
X060903Y037257D01*
X060907Y037255D01*
X060909Y037252D01*
X060958Y037214D01*
X060964Y037212D01*
X060966Y037211D01*
X060968Y037210D01*
X060973Y037205D01*
X061049Y037174D01*
X061055D01*
X061058Y037173D01*
X061060Y037172D01*
X061065Y037169D01*
X061148Y037159D01*
X061153Y037160D01*
X061156Y037160D01*
X061158Y037160D01*
X061164Y037159D01*
X061246Y037169D01*
X061252Y037172D01*
X061254Y037173D01*
X061256Y037174D01*
X061263D01*
X061339Y037205D01*
X061344Y037210D01*
X061346Y037211D01*
X061348Y037212D01*
X061354Y037214D01*
X061403Y037252D01*
X061405Y037255D01*
X061409Y037257D01*
X061419Y037267D01*
X061424Y037271D01*
X061429Y037276D01*
X061438Y037286D01*
X061440Y037290D01*
X061444Y037293D01*
X061482Y037342D01*
X061483Y037348D01*
X061485Y037350D01*
X061486Y037352D01*
X061490Y037356D01*
X061522Y037433D01*
X061522Y037439D01*
X061523Y037441D01*
X061523Y037444D01*
X061526Y037449D01*
X061537Y037531D01*
X061535Y037537D01*
X061536Y037540D01*
X061535Y037542D01*
X061537Y037548D01*
X061526Y037630D01*
X061523Y037635D01*
X061523Y037638D01*
X061522Y037640D01*
X061522Y037646D01*
X061490Y037723D01*
X061486Y037727D01*
X061485Y037729D01*
X061483Y037731D01*
X061482Y037737D01*
X061444Y037787D01*
X061440Y037789D01*
X061438Y037793D01*
X061429Y037803D01*
X061424Y037808D01*
X061419Y037812D01*
X061409Y037822D01*
X061405Y037824D01*
X061403Y037828D01*
X061354Y037865D01*
X061348Y037867D01*
X061346Y037868D01*
X061344Y037869D01*
X061339Y037874D01*
X061263Y037905D01*
X061256D01*
X061254Y037906D01*
X061252Y037907D01*
X061246Y037910D01*
X061164Y037921D01*
D02*
G37*
G36*
X040532Y039872D02*
X040527Y039871D01*
X040522Y039872D01*
X040352Y039859D01*
X040348Y039857D01*
X040342Y039858D01*
X040177Y039818D01*
X040172Y039815D01*
X040167D01*
X040010Y039749D01*
X040006Y039746D01*
X040001Y039745D01*
X039856Y039656D01*
X039852Y039652D01*
X039847Y039650D01*
X039750Y039567D01*
X039749Y039565D01*
X039747Y039564D01*
X039727Y039544D01*
X039716Y039534D01*
X039706Y039523D01*
X039686Y039503D01*
X039685Y039501D01*
X039683Y039500D01*
X039600Y039403D01*
X039598Y039398D01*
X039594Y039394D01*
X039505Y039249D01*
X039504Y039244D01*
X039501Y039240D01*
X039435Y039083D01*
X039435Y039078D01*
X039432Y039073D01*
X039392Y038908D01*
X039393Y038902D01*
X039391Y038898D01*
X039378Y038728D01*
X039379Y038723D01*
X039378Y038718D01*
X039391Y038548D01*
X039393Y038543D01*
X039392Y038538D01*
X039432Y038372D01*
X039435Y038368D01*
Y038363D01*
X039501Y038205D01*
X039504Y038201D01*
X039505Y038196D01*
X039594Y038051D01*
X039598Y038048D01*
X039600Y038043D01*
X039683Y037946D01*
X039685Y037945D01*
X039686Y037942D01*
X039706Y037922D01*
X039716Y037911D01*
X039727Y037901D01*
X039747Y037882D01*
X039749Y037881D01*
X039750Y037878D01*
X039847Y037796D01*
X039852Y037794D01*
X039856Y037790D01*
X040001Y037701D01*
X040006Y037700D01*
X040010Y037696D01*
X040167Y037631D01*
X040172D01*
X040177Y037628D01*
X040342Y037588D01*
X040348Y037589D01*
X040352Y037586D01*
X040522Y037573D01*
X040527Y037575D01*
X040532Y037573D01*
X040702Y037586D01*
X040707Y037589D01*
X040712Y037588D01*
X040878Y037628D01*
X040882Y037631D01*
X040887D01*
X041045Y037696D01*
X041049Y037700D01*
X041054Y037701D01*
X041199Y037790D01*
X041202Y037794D01*
X041207Y037796D01*
X041304Y037878D01*
X041305Y037881D01*
X041308Y037882D01*
X041328Y037901D01*
X041339Y037911D01*
X041349Y037922D01*
X041368Y037942D01*
X041369Y037945D01*
X041372Y037946D01*
X041455Y038043D01*
X041456Y038048D01*
X041460Y038051D01*
X041549Y038196D01*
X041550Y038201D01*
X041554Y038205D01*
X041619Y038363D01*
Y038368D01*
X041622Y038372D01*
X041662Y038538D01*
X041661Y038543D01*
X041664Y038548D01*
X041677Y038718D01*
X041675Y038723D01*
X041677Y038728D01*
X041664Y038898D01*
X041661Y038902D01*
X041662Y038908D01*
X041622Y039073D01*
X041619Y039078D01*
Y039083D01*
X041554Y039240D01*
X041550Y039244D01*
X041549Y039249D01*
X041460Y039394D01*
X041456Y039398D01*
X041455Y039403D01*
X041372Y039500D01*
X041369Y039501D01*
X041368Y039503D01*
X041349Y039523D01*
X041339Y039534D01*
X041328Y039544D01*
X041308Y039564D01*
X041305Y039565D01*
X041304Y039567D01*
X041207Y039650D01*
X041202Y039652D01*
X041199Y039656D01*
X041054Y039745D01*
X041049Y039746D01*
X041045Y039749D01*
X040887Y039815D01*
X040882Y039815D01*
X040878Y039818D01*
X040712Y039858D01*
X040707Y039857D01*
X040702Y039859D01*
X040532Y039872D01*
D02*
G37*
G36*
X058589Y037831D02*
X058583Y037829D01*
X058581Y037830D01*
X058578Y037829D01*
X058572Y037831D01*
X058459Y037816D01*
X058454Y037813D01*
X058452Y037813D01*
X058449Y037812D01*
X058443D01*
X058338Y037768D01*
X058334Y037764D01*
X058331Y037763D01*
X058329Y037761D01*
X058323Y037760D01*
X058256Y037708D01*
X058253Y037704D01*
X058249Y037702D01*
X058240Y037692D01*
X058228Y037684D01*
X058219Y037672D01*
X058209Y037662D01*
X058208Y037658D01*
X058204Y037656D01*
X058152Y037588D01*
X058150Y037582D01*
X058149Y037580D01*
X058148Y037578D01*
X058143Y037574D01*
X058100Y037468D01*
Y037462D01*
X058099Y037460D01*
X058099Y037458D01*
X058095Y037452D01*
X058081Y037339D01*
X058082Y037333D01*
X058082Y037331D01*
X058082Y037328D01*
X058081Y037322D01*
X058095Y037209D01*
X058099Y037204D01*
X058099Y037202D01*
X058100Y037199D01*
Y037193D01*
X058143Y037088D01*
X058148Y037084D01*
X058149Y037081D01*
X058150Y037079D01*
X058152Y037073D01*
X058204Y037006D01*
X058208Y037004D01*
X058209Y036999D01*
X058219Y036990D01*
X058228Y036978D01*
X058240Y036969D01*
X058249Y036959D01*
X058253Y036958D01*
X058256Y036954D01*
X058323Y036902D01*
X058329Y036900D01*
X058331Y036899D01*
X058334Y036898D01*
X058338Y036893D01*
X058443Y036850D01*
X058449D01*
X058452Y036849D01*
X058454Y036849D01*
X058459Y036845D01*
X058572Y036831D01*
X058578Y036832D01*
X058581Y036832D01*
X058583Y036832D01*
X058589Y036831D01*
X058702Y036845D01*
X058708Y036849D01*
X058710Y036849D01*
X058712Y036850D01*
X058718D01*
X058824Y036893D01*
X058828Y036898D01*
X058830Y036899D01*
X058832Y036900D01*
X058838Y036902D01*
X058906Y036954D01*
X058908Y036958D01*
X058912Y036959D01*
X058922Y036969D01*
X058934Y036978D01*
X058942Y036990D01*
X058952Y036999D01*
X058954Y037004D01*
X058958Y037006D01*
X059010Y037073D01*
X059011Y037079D01*
X059013Y037081D01*
X059014Y037084D01*
X059018Y037088D01*
X059062Y037193D01*
Y037199D01*
X059063Y037202D01*
X059063Y037204D01*
X059066Y037209D01*
X059081Y037322D01*
X059079Y037328D01*
X059080Y037331D01*
X059079Y037333D01*
X059081Y037339D01*
X059066Y037452D01*
X059063Y037458D01*
X059063Y037460D01*
X059062Y037462D01*
Y037468D01*
X059018Y037574D01*
X059014Y037578D01*
X059013Y037580D01*
X059011Y037582D01*
X059010Y037588D01*
X058958Y037656D01*
X058954Y037658D01*
X058952Y037662D01*
X058942Y037672D01*
X058934Y037684D01*
X058922Y037692D01*
X058912Y037702D01*
X058908Y037704D01*
X058906Y037708D01*
X058838Y037760D01*
X058832Y037761D01*
X058830Y037763D01*
X058828Y037764D01*
X058824Y037768D01*
X058718Y037812D01*
X058712D01*
X058710Y037813D01*
X058708Y037813D01*
X058702Y037816D01*
X058589Y037831D01*
D02*
G37*
G36*
X039352Y037921D02*
X039346Y037919D01*
X039344Y037919D01*
X039342Y037919D01*
X039336Y037921D01*
X039254Y037910D01*
X039248Y037907D01*
X039246Y037906D01*
X039244Y037905D01*
X039237D01*
X039161Y037874D01*
X039156Y037869D01*
X039154Y037868D01*
X039152Y037867D01*
X039146Y037865D01*
X039097Y037828D01*
X039095Y037824D01*
X039091Y037822D01*
X039081Y037812D01*
X039076Y037808D01*
X039071Y037803D01*
X039062Y037793D01*
X039060Y037789D01*
X039056Y037787D01*
X039018Y037737D01*
X039017Y037731D01*
X039015Y037729D01*
X039014Y037727D01*
X039010Y037723D01*
X038978Y037646D01*
X038978Y037640D01*
X038977Y037638D01*
X038977Y037635D01*
X038974Y037630D01*
X038963Y037548D01*
X038965Y037542D01*
X038964Y037540D01*
X038965Y037537D01*
X038963Y037531D01*
X038974Y037449D01*
X038977Y037444D01*
X038977Y037441D01*
X038978Y037439D01*
X038978Y037433D01*
X039010Y037356D01*
X039014Y037352D01*
X039015Y037350D01*
X039017Y037348D01*
X039018Y037342D01*
X039056Y037293D01*
X039060Y037290D01*
X039062Y037286D01*
X039071Y037276D01*
X039076Y037271D01*
X039081Y037267D01*
X039091Y037257D01*
X039095Y037255D01*
X039097Y037252D01*
X039146Y037214D01*
X039152Y037212D01*
X039154Y037211D01*
X039156Y037210D01*
X039161Y037205D01*
X039237Y037174D01*
X039244D01*
X039246Y037173D01*
X039248Y037172D01*
X039254Y037169D01*
X039336Y037159D01*
X039342Y037160D01*
X039344Y037160D01*
X039346Y037160D01*
X039352Y037159D01*
X039435Y037169D01*
X039440Y037172D01*
X039442Y037173D01*
X039445Y037174D01*
X039451D01*
X039527Y037205D01*
X039532Y037210D01*
X039534Y037211D01*
X039536Y037212D01*
X039542Y037214D01*
X039591Y037252D01*
X039593Y037255D01*
X039597Y037257D01*
X039607Y037267D01*
X039613Y037271D01*
X039617Y037276D01*
X039627Y037286D01*
X039628Y037290D01*
X039632Y037293D01*
X039670Y037342D01*
X039672Y037348D01*
X039673Y037350D01*
X039674Y037352D01*
X039678Y037356D01*
X039710Y037433D01*
Y037439D01*
X039711Y037441D01*
X039711Y037444D01*
X039714Y037449D01*
X039725Y037531D01*
X039724Y037537D01*
X039724Y037540D01*
X039724Y037542D01*
X039725Y037548D01*
X039714Y037630D01*
X039711Y037635D01*
X039711Y037638D01*
X039710Y037640D01*
Y037646D01*
X039678Y037723D01*
X039674Y037727D01*
X039673Y037729D01*
X039672Y037731D01*
X039670Y037737D01*
X039632Y037787D01*
X039628Y037789D01*
X039627Y037793D01*
X039617Y037803D01*
X039613Y037808D01*
X039607Y037812D01*
X039597Y037822D01*
X039593Y037824D01*
X039591Y037828D01*
X039542Y037865D01*
X039536Y037867D01*
X039534Y037868D01*
X039532Y037869D01*
X039527Y037874D01*
X039451Y037905D01*
X039445D01*
X039442Y037906D01*
X039440Y037907D01*
X039435Y037910D01*
X039352Y037921D01*
D02*
G37*
G36*
X059978Y039872D02*
X059973Y039871D01*
X059968Y039872D01*
X059798Y039859D01*
X059793Y039857D01*
X059788Y039858D01*
X059622Y039818D01*
X059618Y039815D01*
X059613D01*
X059455Y039749D01*
X059451Y039746D01*
X059446Y039745D01*
X059301Y039656D01*
X059298Y039652D01*
X059293Y039650D01*
X059196Y039567D01*
X059194Y039565D01*
X059192Y039564D01*
X059172Y039544D01*
X059161Y039534D01*
X059151Y039523D01*
X059132Y039503D01*
X059131Y039501D01*
X059128Y039500D01*
X059046Y039403D01*
X059044Y039398D01*
X059040Y039394D01*
X058951Y039249D01*
X058950Y039244D01*
X058946Y039240D01*
X058881Y039083D01*
Y039078D01*
X058878Y039073D01*
X058838Y038908D01*
X058839Y038902D01*
X058836Y038898D01*
X058823Y038728D01*
X058825Y038723D01*
X058823Y038718D01*
X058836Y038548D01*
X058839Y038543D01*
X058838Y038538D01*
X058878Y038372D01*
X058881Y038368D01*
Y038363D01*
X058946Y038205D01*
X058950Y038201D01*
X058951Y038196D01*
X059040Y038051D01*
X059044Y038048D01*
X059046Y038043D01*
X059128Y037946D01*
X059131Y037945D01*
X059132Y037942D01*
X059151Y037922D01*
X059161Y037911D01*
X059172Y037901D01*
X059192Y037882D01*
X059194Y037881D01*
X059196Y037878D01*
X059293Y037796D01*
X059298Y037794D01*
X059301Y037790D01*
X059446Y037701D01*
X059451Y037700D01*
X059455Y037696D01*
X059613Y037631D01*
X059618D01*
X059622Y037628D01*
X059788Y037588D01*
X059793Y037589D01*
X059798Y037586D01*
X059968Y037573D01*
X059973Y037575D01*
X059978Y037573D01*
X060148Y037586D01*
X060152Y037589D01*
X060158Y037588D01*
X060323Y037628D01*
X060328Y037631D01*
X060333D01*
X060490Y037696D01*
X060494Y037700D01*
X060499Y037701D01*
X060644Y037790D01*
X060648Y037794D01*
X060653Y037796D01*
X060750Y037878D01*
X060751Y037881D01*
X060753Y037882D01*
X060773Y037901D01*
X060784Y037911D01*
X060794Y037922D01*
X060814Y037942D01*
X060815Y037945D01*
X060817Y037946D01*
X060900Y038043D01*
X060902Y038048D01*
X060906Y038051D01*
X060995Y038196D01*
X060996Y038201D01*
X060999Y038205D01*
X061065Y038363D01*
X061065Y038368D01*
X061068Y038372D01*
X061108Y038538D01*
X061107Y038543D01*
X061109Y038548D01*
X061122Y038718D01*
X061121Y038723D01*
X061122Y038728D01*
X061109Y038898D01*
X061107Y038902D01*
X061108Y038908D01*
X061068Y039073D01*
X061065Y039078D01*
Y039083D01*
X060999Y039240D01*
X060996Y039244D01*
X060995Y039249D01*
X060906Y039394D01*
X060902Y039398D01*
X060900Y039403D01*
X060817Y039500D01*
X060815Y039501D01*
X060814Y039503D01*
X060794Y039523D01*
X060784Y039534D01*
X060773Y039544D01*
X060753Y039564D01*
X060751Y039565D01*
X060750Y039567D01*
X060653Y039650D01*
X060648Y039652D01*
X060644Y039656D01*
X060499Y039745D01*
X060494Y039746D01*
X060490Y039749D01*
X060333Y039815D01*
X060328Y039815D01*
X060323Y039818D01*
X060158Y039858D01*
X060152Y039857D01*
X060148Y039859D01*
X059978Y039872D01*
D02*
G37*
G36*
X039144Y040615D02*
X039138Y040613D01*
X039135Y040614D01*
X039133Y040613D01*
X039127Y040615D01*
X039014Y040600D01*
X039009Y040597D01*
X039006Y040597D01*
X039004Y040596D01*
X038998D01*
X038892Y040552D01*
X038888Y040548D01*
X038886Y040547D01*
X038884Y040545D01*
X038878Y040544D01*
X038810Y040492D01*
X038808Y040488D01*
X038804Y040486D01*
X038794Y040476D01*
X038783Y040467D01*
X038774Y040456D01*
X038764Y040446D01*
X038762Y040442D01*
X038758Y040440D01*
X038706Y040372D01*
X038705Y040366D01*
X038703Y040364D01*
X038702Y040362D01*
X038698Y040358D01*
X038654Y040252D01*
Y040246D01*
X038653Y040244D01*
X038653Y040241D01*
X038650Y040236D01*
X038635Y040123D01*
X038637Y040117D01*
X038636Y040115D01*
X038637Y040112D01*
X038635Y040106D01*
X038650Y039993D01*
X038653Y039988D01*
X038653Y039986D01*
X038654Y039983D01*
Y039977D01*
X038698Y039872D01*
X038702Y039867D01*
X038703Y039865D01*
X038705Y039863D01*
X038706Y039857D01*
X038758Y039790D01*
X038762Y039787D01*
X038764Y039783D01*
X038774Y039773D01*
X038783Y039762D01*
X038794Y039753D01*
X038804Y039743D01*
X038808Y039741D01*
X038810Y039738D01*
X038878Y039686D01*
X038884Y039684D01*
X038886Y039683D01*
X038888Y039682D01*
X038892Y039677D01*
X038998Y039634D01*
X039004D01*
X039006Y039633D01*
X039009Y039632D01*
X039014Y039629D01*
X039127Y039614D01*
X039133Y039616D01*
X039135Y039616D01*
X039138Y039616D01*
X039144Y039614D01*
X039257Y039629D01*
X039262Y039632D01*
X039264Y039633D01*
X039267Y039634D01*
X039273D01*
X039378Y039677D01*
X039383Y039682D01*
X039385Y039683D01*
X039387Y039684D01*
X039393Y039686D01*
X039460Y039738D01*
X039463Y039741D01*
X039467Y039743D01*
X039477Y039753D01*
X039488Y039762D01*
X039497Y039773D01*
X039507Y039783D01*
X039509Y039787D01*
X039512Y039790D01*
X039564Y039857D01*
X039566Y039863D01*
X039567Y039865D01*
X039568Y039867D01*
X039573Y039872D01*
X039616Y039977D01*
Y039983D01*
X039617Y039986D01*
X039618Y039988D01*
X039621Y039993D01*
X039636Y040106D01*
X039634Y040112D01*
X039634Y040115D01*
X039634Y040117D01*
X039636Y040123D01*
X039621Y040236D01*
X039618Y040241D01*
X039617Y040244D01*
X039616Y040246D01*
Y040252D01*
X039573Y040358D01*
X039568Y040362D01*
X039567Y040364D01*
X039566Y040366D01*
X039564Y040372D01*
X039512Y040440D01*
X039509Y040442D01*
X039507Y040446D01*
X039497Y040456D01*
X039488Y040467D01*
X039477Y040476D01*
X039467Y040486D01*
X039463Y040488D01*
X039460Y040492D01*
X039393Y040544D01*
X039387Y040545D01*
X039385Y040547D01*
X039383Y040548D01*
X039378Y040552D01*
X039273Y040596D01*
X039267D01*
X039264Y040597D01*
X039262Y040597D01*
X039257Y040600D01*
X039144Y040615D01*
D02*
G37*
G36*
X061373D02*
X061367Y040613D01*
X061365Y040614D01*
X061362Y040613D01*
X061356Y040615D01*
X061243Y040600D01*
X061238Y040597D01*
X061236Y040597D01*
X061233Y040596D01*
X061227D01*
X061122Y040552D01*
X061117Y040548D01*
X061115Y040547D01*
X061113Y040545D01*
X061107Y040544D01*
X061040Y040492D01*
X061037Y040488D01*
X061033Y040486D01*
X061023Y040476D01*
X061012Y040467D01*
X061003Y040456D01*
X060993Y040446D01*
X060991Y040442D01*
X060988Y040440D01*
X060936Y040372D01*
X060934Y040366D01*
X060933Y040364D01*
X060932Y040362D01*
X060927Y040358D01*
X060884Y040252D01*
Y040246D01*
X060883Y040244D01*
X060882Y040241D01*
X060879Y040236D01*
X060864Y040123D01*
X060866Y040117D01*
X060866Y040115D01*
X060866Y040112D01*
X060864Y040106D01*
X060879Y039993D01*
X060882Y039988D01*
X060883Y039986D01*
X060884Y039983D01*
Y039977D01*
X060927Y039872D01*
X060932Y039867D01*
X060933Y039865D01*
X060934Y039863D01*
X060936Y039857D01*
X060988Y039790D01*
X060991Y039787D01*
X060993Y039783D01*
X061003Y039773D01*
X061012Y039762D01*
X061023Y039753D01*
X061033Y039743D01*
X061037Y039741D01*
X061040Y039738D01*
X061107Y039686D01*
X061113Y039684D01*
X061115Y039683D01*
X061117Y039682D01*
X061122Y039677D01*
X061227Y039634D01*
X061233D01*
X061236Y039633D01*
X061238Y039632D01*
X061243Y039629D01*
X061356Y039614D01*
X061362Y039616D01*
X061365Y039616D01*
X061367Y039616D01*
X061373Y039614D01*
X061486Y039629D01*
X061491Y039632D01*
X061494Y039633D01*
X061496Y039634D01*
X061502D01*
X061608Y039677D01*
X061612Y039682D01*
X061614Y039683D01*
X061616Y039684D01*
X061622Y039686D01*
X061690Y039738D01*
X061692Y039741D01*
X061696Y039743D01*
X061706Y039753D01*
X061717Y039762D01*
X061726Y039773D01*
X061736Y039783D01*
X061738Y039787D01*
X061742Y039790D01*
X061794Y039857D01*
X061795Y039863D01*
X061797Y039865D01*
X061798Y039867D01*
X061802Y039872D01*
X061846Y039977D01*
Y039983D01*
X061847Y039986D01*
X061847Y039988D01*
X061850Y039993D01*
X061865Y040106D01*
X061863Y040112D01*
X061864Y040115D01*
X061863Y040117D01*
X061865Y040123D01*
X061850Y040236D01*
X061847Y040241D01*
X061847Y040244D01*
X061846Y040246D01*
Y040252D01*
X061802Y040358D01*
X061798Y040362D01*
X061797Y040364D01*
X061795Y040366D01*
X061794Y040372D01*
X061742Y040440D01*
X061738Y040442D01*
X061736Y040446D01*
X061726Y040456D01*
X061717Y040467D01*
X061706Y040476D01*
X061696Y040486D01*
X061692Y040488D01*
X061690Y040492D01*
X061622Y040544D01*
X061616Y040545D01*
X061614Y040547D01*
X061612Y040548D01*
X061608Y040552D01*
X061502Y040596D01*
X061496D01*
X061494Y040597D01*
X061491Y040597D01*
X061486Y040600D01*
X061373Y040615D01*
D02*
G37*
G36*
X041719Y040287D02*
X041713Y040285D01*
X041710Y040286D01*
X041708Y040285D01*
X041702Y040287D01*
X041620Y040276D01*
X041615Y040273D01*
X041612Y040273D01*
X041610Y040272D01*
X041604Y040272D01*
X041527Y040240D01*
X041523Y040236D01*
X041521Y040235D01*
X041519Y040233D01*
X041513Y040232D01*
X041463Y040194D01*
X041461Y040190D01*
X041457Y040188D01*
X041447Y040179D01*
X041442Y040174D01*
X041438Y040169D01*
X041428Y040159D01*
X041426Y040155D01*
X041422Y040153D01*
X041385Y040104D01*
X041383Y040098D01*
X041382Y040096D01*
X041381Y040094D01*
X041376Y040089D01*
X041345Y040013D01*
Y040006D01*
X041344Y040004D01*
X041343Y040002D01*
X041340Y039996D01*
X041329Y039914D01*
X041331Y039908D01*
X041331Y039906D01*
X041331Y039904D01*
X041329Y039898D01*
X041340Y039815D01*
X041343Y039810D01*
X041344Y039808D01*
X041345Y039805D01*
Y039799D01*
X041376Y039723D01*
X041381Y039718D01*
X041382Y039716D01*
X041383Y039714D01*
X041385Y039708D01*
X041422Y039659D01*
X041426Y039657D01*
X041428Y039653D01*
X041438Y039643D01*
X041442Y039637D01*
X041447Y039633D01*
X041457Y039623D01*
X041461Y039622D01*
X041463Y039618D01*
X041513Y039580D01*
X041519Y039578D01*
X041521Y039577D01*
X041523Y039576D01*
X041527Y039572D01*
X041604Y039540D01*
X041610D01*
X041612Y039539D01*
X041615Y039539D01*
X041620Y039536D01*
X041702Y039525D01*
X041708Y039526D01*
X041710Y039526D01*
X041713Y039526D01*
X041719Y039525D01*
X041801Y039536D01*
X041806Y039539D01*
X041809Y039539D01*
X041811Y039540D01*
X041817D01*
X041894Y039572D01*
X041898Y039576D01*
X041900Y039577D01*
X041902Y039578D01*
X041908Y039580D01*
X041957Y039618D01*
X041960Y039622D01*
X041964Y039623D01*
X041974Y039633D01*
X041979Y039637D01*
X041983Y039643D01*
X041993Y039653D01*
X041995Y039657D01*
X041998Y039659D01*
X042036Y039708D01*
X042038Y039714D01*
X042039Y039716D01*
X042040Y039718D01*
X042045Y039723D01*
X042076Y039799D01*
Y039805D01*
X042077Y039808D01*
X042078Y039810D01*
X042081Y039815D01*
X042091Y039898D01*
X042090Y039904D01*
X042090Y039906D01*
X042090Y039908D01*
X042091Y039914D01*
X042081Y039996D01*
X042078Y040002D01*
X042077Y040004D01*
X042076Y040006D01*
Y040013D01*
X042045Y040089D01*
X042040Y040094D01*
X042039Y040096D01*
X042038Y040098D01*
X042036Y040104D01*
X041998Y040153D01*
X041995Y040155D01*
X041993Y040159D01*
X041983Y040169D01*
X041979Y040174D01*
X041974Y040179D01*
X041964Y040188D01*
X041960Y040190D01*
X041957Y040194D01*
X041908Y040232D01*
X041902Y040233D01*
X041900Y040235D01*
X041898Y040236D01*
X041894Y040240D01*
X041817Y040272D01*
X041811Y040272D01*
X041809Y040273D01*
X041806Y040273D01*
X041801Y040276D01*
X041719Y040287D01*
D02*
G37*
G36*
X058798D02*
X058792Y040285D01*
X058790Y040286D01*
X058787Y040285D01*
X058781Y040287D01*
X058699Y040276D01*
X058694Y040273D01*
X058691Y040273D01*
X058689Y040272D01*
X058683Y040272D01*
X058606Y040240D01*
X058602Y040236D01*
X058600Y040235D01*
X058598Y040233D01*
X058592Y040232D01*
X058543Y040194D01*
X058540Y040190D01*
X058536Y040188D01*
X058526Y040179D01*
X058521Y040174D01*
X058517Y040169D01*
X058507Y040159D01*
X058505Y040155D01*
X058502Y040153D01*
X058464Y040104D01*
X058462Y040098D01*
X058461Y040096D01*
X058460Y040094D01*
X058455Y040089D01*
X058424Y040013D01*
Y040006D01*
X058423Y040004D01*
X058422Y040002D01*
X058419Y039996D01*
X058409Y039914D01*
X058410Y039908D01*
X058410Y039906D01*
X058410Y039904D01*
X058409Y039898D01*
X058419Y039815D01*
X058422Y039810D01*
X058423Y039808D01*
X058424Y039805D01*
Y039799D01*
X058455Y039723D01*
X058460Y039718D01*
X058461Y039716D01*
X058462Y039714D01*
X058464Y039708D01*
X058502Y039659D01*
X058505Y039657D01*
X058507Y039653D01*
X058517Y039643D01*
X058521Y039637D01*
X058526Y039633D01*
X058536Y039623D01*
X058540Y039622D01*
X058543Y039618D01*
X058592Y039580D01*
X058598Y039578D01*
X058600Y039577D01*
X058602Y039576D01*
X058606Y039572D01*
X058683Y039540D01*
X058689D01*
X058691Y039539D01*
X058694Y039539D01*
X058699Y039536D01*
X058781Y039525D01*
X058787Y039526D01*
X058790Y039526D01*
X058792Y039526D01*
X058798Y039525D01*
X058880Y039536D01*
X058885Y039539D01*
X058888Y039539D01*
X058890Y039540D01*
X058896D01*
X058973Y039572D01*
X058977Y039576D01*
X058979Y039577D01*
X058981Y039578D01*
X058987Y039580D01*
X059037Y039618D01*
X059039Y039622D01*
X059043Y039623D01*
X059053Y039633D01*
X059058Y039637D01*
X059062Y039643D01*
X059072Y039653D01*
X059074Y039657D01*
X059078Y039659D01*
X059115Y039708D01*
X059117Y039714D01*
X059118Y039716D01*
X059119Y039718D01*
X059124Y039723D01*
X059155Y039799D01*
Y039805D01*
X059156Y039808D01*
X059157Y039810D01*
X059160Y039815D01*
X059171Y039898D01*
X059169Y039904D01*
X059169Y039906D01*
X059169Y039908D01*
X059171Y039914D01*
X059160Y039996D01*
X059157Y040002D01*
X059156Y040004D01*
X059155Y040006D01*
Y040013D01*
X059124Y040089D01*
X059119Y040094D01*
X059118Y040096D01*
X059117Y040098D01*
X059115Y040104D01*
X059078Y040153D01*
X059074Y040155D01*
X059072Y040159D01*
X059062Y040169D01*
X059058Y040174D01*
X059053Y040179D01*
X059043Y040188D01*
X059039Y040190D01*
X059037Y040194D01*
X058987Y040232D01*
X058981Y040233D01*
X058979Y040235D01*
X058977Y040236D01*
X058973Y040240D01*
X058896Y040272D01*
X058890Y040272D01*
X058888Y040273D01*
X058885Y040273D01*
X058880Y040276D01*
X058798Y040287D01*
D02*
G37*
G36*
X055968Y035421D02*
X055917Y035411D01*
X055968Y035360D01*
X056019Y035411D01*
X055968Y035421D01*
D02*
G37*
G36*
X043391Y036246D02*
X043291Y036233D01*
X043197Y036194D01*
X043117Y036133D01*
X043056Y036053D01*
X043017Y035959D01*
X043004Y035859D01*
X043017Y035759D01*
X043056Y035665D01*
X043117Y035585D01*
X043197Y035523D01*
X043291Y035485D01*
X043391Y035472D01*
X043491Y035485D01*
X043585Y035523D01*
X043665Y035585D01*
X043727Y035665D01*
X043765Y035759D01*
X043778Y035859D01*
X043765Y035959D01*
X043727Y036053D01*
X043665Y036133D01*
X043585Y036194D01*
X043491Y036233D01*
X043391Y036246D01*
D02*
G37*
G36*
X056160Y035270D02*
X056039Y035148D01*
X055968Y035219D01*
X055897Y035148D01*
X055776Y035270D01*
X055766Y035219D01*
X055774Y035177D01*
X055731Y035135D01*
X055689Y035143D01*
X055639Y035133D01*
X055760Y035011D01*
X055619Y034870D01*
X055497Y034991D01*
X055487Y034941D01*
X055495Y034899D01*
X055453Y034856D01*
X055411Y034864D01*
X055360Y034854D01*
X055482Y034733D01*
X055340Y034591D01*
X055219Y034713D01*
X055209Y034662D01*
X055217Y034620D01*
X055175Y034578D01*
X055133Y034586D01*
X055082Y034576D01*
X055203Y034454D01*
X055133Y034384D01*
X055203Y034313D01*
X055082Y034192D01*
X055133Y034181D01*
X055149Y034185D01*
X055184Y034149D01*
X055181Y034133D01*
X055191Y034082D01*
X055312Y034204D01*
X055454Y034062D01*
X055332Y033941D01*
X055383Y033931D01*
X055399Y033934D01*
X055435Y033899D01*
X055431Y033883D01*
X055442Y033832D01*
X055563Y033953D01*
X055704Y033812D01*
X055583Y033690D01*
X055634Y033680D01*
X055711Y033696D01*
X055727Y033706D01*
X055759Y033668D01*
X055564Y033473D01*
X055794Y033243D01*
X056006Y033455D01*
X056218Y033667D01*
X055988Y033897D01*
X055849Y033757D01*
X055810Y033789D01*
X055821Y033805D01*
X055836Y033883D01*
X055828Y033925D01*
X055870Y033967D01*
X055912Y033959D01*
X055963Y033969D01*
X055841Y034090D01*
X055983Y034232D01*
X056104Y034110D01*
X056114Y034161D01*
X056106Y034203D01*
X056149Y034245D01*
X056191Y034237D01*
X056241Y034247D01*
X056120Y034369D01*
X056261Y034510D01*
X056383Y034389D01*
X056393Y034439D01*
X056385Y034481D01*
X056427Y034524D01*
X056469Y034516D01*
X056520Y034526D01*
X056398Y034647D01*
X056469Y034718D01*
X056398Y034789D01*
X056520Y034910D01*
X056469Y034920D01*
X056453Y034917D01*
X056417Y034952D01*
X056421Y034968D01*
X056411Y035019D01*
X056289Y034898D01*
X056148Y035039D01*
X056269Y035161D01*
X056218Y035171D01*
X056202Y035167D01*
X056167Y035203D01*
X056170Y035219D01*
X056160Y035270D01*
D02*
G37*
G36*
X044532Y035421D02*
X044481Y035411D01*
X044532Y035360D01*
X044583Y035411D01*
X044532Y035421D01*
D02*
G37*
G36*
X057109Y036246D02*
X057009Y036233D01*
X056915Y036194D01*
X056835Y036133D01*
X056773Y036053D01*
X056735Y035959D01*
X056722Y035859D01*
X056735Y035759D01*
X056773Y035665D01*
X056835Y035585D01*
X056915Y035523D01*
X057009Y035485D01*
X057109Y035472D01*
X057209Y035485D01*
X057303Y035523D01*
X057383Y035585D01*
X057444Y035665D01*
X057483Y035759D01*
X057496Y035859D01*
X057483Y035959D01*
X057444Y036053D01*
X057383Y036133D01*
X057303Y036194D01*
X057209Y036233D01*
X057109Y036246D01*
D02*
G37*
G36*
X044534Y036837D02*
X044515Y036743D01*
X044534Y036648D01*
X044629Y036743D01*
X044534Y036837D01*
D02*
G37*
G36*
X041928Y037831D02*
X041922Y037829D01*
X041919Y037830D01*
X041917Y037829D01*
X041911Y037831D01*
X041798Y037816D01*
X041792Y037813D01*
X041790Y037813D01*
X041788Y037812D01*
X041782D01*
X041676Y037768D01*
X041672Y037764D01*
X041670Y037763D01*
X041668Y037761D01*
X041662Y037760D01*
X041594Y037708D01*
X041592Y037704D01*
X041588Y037702D01*
X041578Y037692D01*
X041566Y037684D01*
X041558Y037672D01*
X041548Y037662D01*
X041546Y037658D01*
X041542Y037656D01*
X041490Y037588D01*
X041489Y037582D01*
X041487Y037580D01*
X041486Y037578D01*
X041482Y037574D01*
X041438Y037468D01*
Y037462D01*
X041437Y037460D01*
X041437Y037458D01*
X041434Y037452D01*
X041419Y037339D01*
X041421Y037333D01*
X041420Y037331D01*
X041421Y037328D01*
X041419Y037322D01*
X041434Y037209D01*
X041437Y037204D01*
X041437Y037202D01*
X041438Y037199D01*
Y037193D01*
X041482Y037088D01*
X041486Y037084D01*
X041487Y037081D01*
X041489Y037079D01*
X041490Y037073D01*
X041542Y037006D01*
X041546Y037004D01*
X041548Y036999D01*
X041558Y036990D01*
X041566Y036978D01*
X041578Y036969D01*
X041588Y036959D01*
X041592Y036958D01*
X041594Y036954D01*
X041662Y036902D01*
X041668Y036900D01*
X041670Y036899D01*
X041672Y036898D01*
X041676Y036893D01*
X041782Y036850D01*
X041788D01*
X041790Y036849D01*
X041792Y036849D01*
X041798Y036845D01*
X041911Y036831D01*
X041917Y036832D01*
X041919Y036832D01*
X041922Y036832D01*
X041928Y036831D01*
X042041Y036845D01*
X042046Y036849D01*
X042048Y036849D01*
X042051Y036850D01*
X042057D01*
X042162Y036893D01*
X042166Y036898D01*
X042169Y036899D01*
X042171Y036900D01*
X042177Y036902D01*
X042244Y036954D01*
X042246Y036958D01*
X042251Y036959D01*
X042260Y036969D01*
X042272Y036978D01*
X042281Y036990D01*
X042291Y036999D01*
X042292Y037004D01*
X042296Y037006D01*
X042348Y037073D01*
X042350Y037079D01*
X042351Y037081D01*
X042352Y037084D01*
X042357Y037088D01*
X042400Y037193D01*
Y037199D01*
X042401Y037202D01*
X042401Y037204D01*
X042405Y037209D01*
X042419Y037322D01*
X042418Y037328D01*
X042418Y037331D01*
X042418Y037333D01*
X042419Y037339D01*
X042405Y037452D01*
X042401Y037458D01*
X042401Y037460D01*
X042400Y037462D01*
Y037468D01*
X042357Y037574D01*
X042352Y037578D01*
X042351Y037580D01*
X042350Y037582D01*
X042348Y037588D01*
X042296Y037656D01*
X042292Y037658D01*
X042291Y037662D01*
X042281Y037672D01*
X042272Y037684D01*
X042260Y037692D01*
X042251Y037702D01*
X042246Y037704D01*
X042244Y037708D01*
X042177Y037760D01*
X042171Y037761D01*
X042169Y037763D01*
X042166Y037764D01*
X042162Y037768D01*
X042057Y037812D01*
X042051D01*
X042048Y037813D01*
X042046Y037813D01*
X042041Y037816D01*
X041928Y037831D01*
D02*
G37*
G36*
X044063Y036918D02*
X043963Y036905D01*
X043869Y036866D01*
X043789Y036805D01*
X043727Y036724D01*
X043689Y036631D01*
X043675Y036531D01*
X043689Y036430D01*
X043727Y036337D01*
X043789Y036257D01*
X043869Y036195D01*
X043963Y036157D01*
X044063Y036143D01*
X044163Y036157D01*
X044257Y036195D01*
X044337Y036257D01*
X044398Y036337D01*
X044437Y036430D01*
X044450Y036531D01*
X044437Y036631D01*
X044398Y036724D01*
X044337Y036805D01*
X044257Y036866D01*
X044163Y036905D01*
X044063Y036918D01*
D02*
G37*
G36*
X056437D02*
X056337Y036905D01*
X056244Y036866D01*
X056163Y036805D01*
X056102Y036724D01*
X056063Y036631D01*
X056050Y036531D01*
X056063Y036430D01*
X056102Y036337D01*
X056163Y036257D01*
X056244Y036195D01*
X056337Y036157D01*
X056437Y036143D01*
X056537Y036157D01*
X056631Y036195D01*
X056711Y036257D01*
X056773Y036337D01*
X056811Y036430D01*
X056825Y036531D01*
X056811Y036631D01*
X056773Y036724D01*
X056711Y036805D01*
X056631Y036866D01*
X056537Y036905D01*
X056437Y036918D01*
D02*
G37*
G36*
X045748Y033903D02*
X045618Y033773D01*
X045748Y033643D01*
X045769Y033695D01*
X045780Y033773D01*
X045769Y033851D01*
X045748Y033903D01*
D02*
G37*
G36*
X048094Y032608D02*
X048046Y032561D01*
X048004Y032498D01*
X047990Y032425D01*
X047998Y032382D01*
X048159Y032543D01*
X048094Y032608D01*
D02*
G37*
G36*
X051272Y032638D02*
X051177Y032544D01*
X051272Y032449D01*
X051291Y032544D01*
X051272Y032638D01*
D02*
G37*
G36*
X046568Y031421D02*
X046491Y031345D01*
X046554Y031282D01*
X046630Y031359D01*
X046568Y031421D01*
D02*
G37*
G36*
X054174Y032500D02*
X054045Y032371D01*
X054096Y032349D01*
X054174Y032339D01*
X054253Y032349D01*
X054304Y032371D01*
X054174Y032500D01*
D02*
G37*
G36*
X053903Y032771D02*
X053882Y032720D01*
X053872Y032642D01*
X053882Y032563D01*
X053903Y032512D01*
X054033Y032642D01*
X053903Y032771D01*
D02*
G37*
G36*
X047775Y032818D02*
X047680Y032724D01*
X047775Y032705D01*
X047870Y032724D01*
X047775Y032818D01*
D02*
G37*
G36*
X046219Y032889D02*
X046090Y032759D01*
X046141Y032738D01*
X046219Y032728D01*
X046298Y032738D01*
X046349Y032759D01*
X046219Y032889D01*
D02*
G37*
G36*
X054445Y032771D02*
X054316Y032642D01*
X054445Y032512D01*
X054467Y032563D01*
X054477Y032642D01*
X054467Y032720D01*
X054445Y032771D01*
D02*
G37*
G36*
X048419Y032854D02*
X048345Y032839D01*
X048283Y032797D01*
X048235Y032750D01*
X048300Y032684D01*
X048461Y032845D01*
X048419Y032854D01*
D02*
G37*
G36*
X053856Y030343D02*
X053727Y030214D01*
X053778Y030193D01*
X053856Y030182D01*
X053935Y030193D01*
X053986Y030214D01*
X053856Y030343D01*
D02*
G37*
G36*
X053585Y030615D02*
X053564Y030563D01*
X053554Y030485D01*
X053564Y030407D01*
X053585Y030355D01*
X053715Y030485D01*
X053585Y030615D01*
D02*
G37*
G36*
X050250Y029255D02*
X050155Y029236D01*
X050250Y029141D01*
X050345Y029236D01*
X050250Y029255D01*
D02*
G37*
G36*
X054590Y029828D02*
X054492Y029815D01*
X054401Y029777D01*
X054323Y029717D01*
X054263Y029639D01*
X054225Y029548D01*
X054213Y029451D01*
X054225Y029353D01*
X054243Y029310D01*
X054205Y029272D01*
X054141Y029298D01*
X054033Y029313D01*
X053925Y029298D01*
X053824Y029256D01*
X053817Y029251D01*
X054104Y028965D01*
X054390Y028678D01*
X054396Y028685D01*
X054437Y028786D01*
X054452Y028894D01*
X054437Y029002D01*
X054411Y029066D01*
X054449Y029104D01*
X054492Y029086D01*
X054590Y029073D01*
X054687Y029086D01*
X054778Y029124D01*
X054857Y029184D01*
X054917Y029262D01*
X054954Y029353D01*
X054967Y029451D01*
X054954Y029548D01*
X054917Y029639D01*
X054857Y029717D01*
X054778Y029777D01*
X054687Y029815D01*
X054590Y029828D01*
D02*
G37*
G36*
X054127Y030615D02*
X053998Y030485D01*
X054127Y030355D01*
X054149Y030407D01*
X054159Y030485D01*
X054149Y030563D01*
X054127Y030615D01*
D02*
G37*
G36*
X049267Y030976D02*
X049195Y030904D01*
X049267Y030832D01*
X049339Y030904D01*
X049267Y030976D01*
D02*
G37*
G36*
X050750Y031201D02*
X050678Y031128D01*
X050750Y031056D01*
X050823Y031128D01*
X050750Y031201D01*
D02*
G37*
G36*
X049053Y030762D02*
X048981Y030690D01*
X049053Y030618D01*
X049126Y030690D01*
X049053Y030762D01*
D02*
G37*
G36*
X053856Y030788D02*
X053778Y030777D01*
X053727Y030756D01*
X053856Y030626D01*
X053986Y030756D01*
X053935Y030777D01*
X053856Y030788D01*
D02*
G37*
G36*
X051154Y033708D02*
X050204D01*
Y033411D01*
X050154Y033436D01*
Y033708D01*
X049779D01*
Y033333D01*
X050120D01*
X050128Y033328D01*
X050158Y033285D01*
X050146Y033224D01*
X050161Y033147D01*
X050159Y033134D01*
X050139Y033097D01*
X050050D01*
Y033097D01*
X050000Y033097D01*
X049829D01*
Y033138D01*
X049759D01*
Y032758D01*
Y032378D01*
X049810D01*
X049840Y032336D01*
X049841Y032333D01*
X049825Y032253D01*
X049841Y032171D01*
X049887Y032102D01*
X049956Y032056D01*
X050038Y032040D01*
X050119Y032056D01*
X050189Y032102D01*
X050235Y032171D01*
X050251Y032253D01*
X050242Y032299D01*
X050258Y032315D01*
X050258Y032315D01*
X050282Y032352D01*
X050290Y032394D01*
X050340Y032419D01*
X050818D01*
X050856Y032363D01*
X050938Y032308D01*
X051036Y032289D01*
X051131Y032308D01*
X050965Y032473D01*
X051036Y032544D01*
X050965Y032614D01*
X051131Y032780D01*
X051036Y032799D01*
X050938Y032779D01*
X050870Y032734D01*
X050820Y032754D01*
Y032881D01*
X050848Y032884D01*
X050911Y032910D01*
X050965Y032952D01*
X051007Y033006D01*
X051033Y033069D01*
X051042Y033137D01*
X051033Y033204D01*
X051007Y033267D01*
X050994Y033283D01*
X051019Y033333D01*
X051154D01*
Y033708D01*
D02*
G37*
G36*
X054752Y033690D02*
X054731Y033639D01*
X054720Y033561D01*
X054731Y033483D01*
X054752Y033431D01*
X054882Y033561D01*
X054752Y033690D01*
D02*
G37*
G36*
X051654Y033708D02*
X051299D01*
Y033333D01*
X051654D01*
Y033708D01*
D02*
G37*
G36*
X052209D02*
X051854D01*
Y033333D01*
X052209D01*
Y033708D01*
D02*
G37*
G36*
X055294Y033690D02*
X055164Y033561D01*
X055294Y033431D01*
X055315Y033483D01*
X055326Y033561D01*
X055315Y033639D01*
X055294Y033690D01*
D02*
G37*
G36*
X052383Y033867D02*
X052362Y033816D01*
X052352Y033738D01*
X052362Y033659D01*
X052383Y033608D01*
X052513Y033738D01*
X052383Y033867D01*
D02*
G37*
G36*
X052925D02*
X052796Y033738D01*
X052925Y033608D01*
X052946Y033659D01*
X052957Y033738D01*
X052946Y033816D01*
X052925Y033867D01*
D02*
G37*
G36*
X052654Y033596D02*
X052525Y033467D01*
X052576Y033445D01*
X052654Y033435D01*
X052732Y033445D01*
X052784Y033467D01*
X052654Y033596D01*
D02*
G37*
G36*
X045477Y033632D02*
X045347Y033502D01*
X045399Y033481D01*
X045477Y033470D01*
X045555Y033481D01*
X045607Y033502D01*
X045477Y033632D01*
D02*
G37*
G36*
X045948Y033160D02*
X045927Y033109D01*
X045917Y033031D01*
X045927Y032952D01*
X045948Y032901D01*
X046078Y033031D01*
X045948Y033160D01*
D02*
G37*
G36*
X046491D02*
X046361Y033031D01*
X046491Y032901D01*
X046512Y032952D01*
X046522Y033031D01*
X046512Y033109D01*
X046491Y033160D01*
D02*
G37*
G36*
X054174Y032944D02*
X054096Y032934D01*
X054045Y032913D01*
X054174Y032783D01*
X054304Y032913D01*
X054253Y032934D01*
X054174Y032944D01*
D02*
G37*
G36*
X049559Y033138D02*
X049489D01*
Y032858D01*
X049559D01*
Y033138D01*
D02*
G37*
G36*
X046219Y033333D02*
X046141Y033323D01*
X046090Y033302D01*
X046219Y033172D01*
X046349Y033302D01*
X046298Y033323D01*
X046219Y033333D01*
D02*
G37*
G36*
X048499Y033708D02*
X048144D01*
Y033333D01*
X048499D01*
Y033708D01*
D02*
G37*
G36*
X049579D02*
X049204D01*
Y033333D01*
X049579D01*
Y033708D01*
D02*
G37*
G36*
X055023Y033419D02*
X054893Y033290D01*
X054945Y033269D01*
X055023Y033258D01*
X055101Y033269D01*
X055153Y033290D01*
X055023Y033419D01*
D02*
G37*
G36*
X049054Y033708D02*
X048699D01*
Y033333D01*
X049054D01*
Y033708D01*
D02*
G37*
%LPD*%
D10*
X054473Y025059D02*
D03*
X054724Y024809D02*
D03*
X054441Y024526D02*
D03*
X054191Y024777D02*
D03*
X046554Y031141D02*
D03*
X046804Y030890D02*
D03*
X047618Y033330D02*
D03*
X047367Y033580D02*
D03*
X053978Y027039D02*
D03*
X054229Y026789D02*
D03*
D11*
X048830Y031127D02*
D03*
X049053Y030904D02*
D03*
X049219Y025293D02*
D03*
X049442Y025070D02*
D03*
X048972Y025045D02*
D03*
X049195Y024823D02*
D03*
X050255Y025388D02*
D03*
X050033Y025611D02*
D03*
X046472Y030586D02*
D03*
X046250Y030808D02*
D03*
X049124Y028500D02*
D03*
X048901Y028722D02*
D03*
X048876Y028252D02*
D03*
X048654Y028475D02*
D03*
X049361Y028263D02*
D03*
X049584Y028040D02*
D03*
X049113Y028015D02*
D03*
X049336Y027793D02*
D03*
X055477Y021581D02*
D03*
X055700Y021358D02*
D03*
X045093Y036419D02*
D03*
X044871Y036642D02*
D03*
D12*
X045790Y026591D02*
D03*
X046013Y026813D02*
D03*
X050008Y025152D02*
D03*
X049785Y024929D02*
D03*
X048240Y025081D02*
D03*
X048017Y024858D02*
D03*
X050033Y030904D02*
D03*
X050255Y031127D02*
D03*
X049796Y030667D02*
D03*
X049573Y030444D02*
D03*
X049371Y030031D02*
D03*
X049149Y029808D02*
D03*
X051906Y029242D02*
D03*
X052129Y029465D02*
D03*
X050528Y030692D02*
D03*
X050750Y030914D02*
D03*
X042866Y023808D02*
D03*
X042643Y023585D02*
D03*
X057634Y034192D02*
D03*
X057857Y034415D02*
D03*
D13*
X046792Y026766D02*
D03*
X047945Y025613D02*
D03*
X047273Y024941D02*
D03*
X046121Y026094D02*
D03*
D14*
X049545Y026099D02*
D03*
X049824Y025820D02*
D03*
D15*
X049293Y026346D02*
D03*
X049015Y026068D02*
D03*
X049258Y025816D02*
D03*
X048979Y025537D02*
D03*
D16*
X047223Y029447D02*
D03*
X047757Y029980D02*
D03*
X046898Y030301D02*
D03*
D17*
X048843Y032000D02*
D03*
X048662Y032181D02*
D03*
X048481Y032362D02*
D03*
X048300Y032543D02*
D03*
X047674Y030831D02*
D03*
X047493Y031012D02*
D03*
X047312Y031193D02*
D03*
X047131Y031374D02*
D03*
D18*
X048500Y030715D02*
D03*
X048111Y030325D02*
D03*
D19*
X048498Y029370D02*
D03*
X048749Y029620D02*
D03*
X051401Y028171D02*
D03*
X051150Y027920D02*
D03*
X051645Y028415D02*
D03*
X051896Y028666D02*
D03*
X049807Y027284D02*
D03*
X050057Y027534D02*
D03*
X049559Y027531D02*
D03*
X049810Y027782D02*
D03*
D20*
X050998Y030444D02*
D03*
X051694Y029748D02*
D03*
D21*
X052740Y027651D02*
D03*
X052295Y028096D02*
D03*
X051599Y026510D02*
D03*
X051154Y026955D02*
D03*
D22*
X051988Y031879D02*
D03*
X051543Y031434D02*
D03*
X053129Y030738D02*
D03*
X052684Y030293D02*
D03*
D23*
X047097Y032988D02*
D03*
X046255Y032147D02*
D03*
X052796Y025606D02*
D03*
X053637Y026448D02*
D03*
D24*
X050198Y029922D02*
D03*
X050337Y029783D02*
D03*
X050476Y029644D02*
D03*
X050615Y029505D02*
D03*
X050755Y029365D02*
D03*
X050894Y029226D02*
D03*
X051033Y029087D02*
D03*
X051172Y028948D02*
D03*
X051311Y028809D02*
D03*
X050441Y027939D02*
D03*
X050302Y028078D02*
D03*
X050163Y028217D02*
D03*
X050024Y028356D02*
D03*
X049885Y028495D02*
D03*
X049745Y028635D02*
D03*
X049606Y028774D02*
D03*
X049467Y028913D02*
D03*
X049328Y029052D02*
D03*
X049189Y029191D02*
D03*
X050059Y030061D02*
D03*
D25*
X051103Y028565D02*
D03*
X050963Y028426D02*
D03*
X050824Y028287D02*
D03*
X050685Y028147D02*
D03*
X049397Y029435D02*
D03*
X049537Y029574D02*
D03*
X049676Y029713D02*
D03*
X049815Y029853D02*
D03*
D26*
X048031Y027967D02*
D03*
X047892Y027827D02*
D03*
X047752Y027688D02*
D03*
X047613Y027549D02*
D03*
X047474Y027410D02*
D03*
X048534Y026350D02*
D03*
X048673Y026489D02*
D03*
X048812Y026628D02*
D03*
X048951Y026768D02*
D03*
X049090Y026907D02*
D03*
D27*
X047474D02*
D03*
X047613Y026768D02*
D03*
X047752Y026628D02*
D03*
X047892Y026489D02*
D03*
X048031Y026350D02*
D03*
X049083Y027403D02*
D03*
X048944Y027542D02*
D03*
X048805Y027681D02*
D03*
X048666Y027820D02*
D03*
X048527Y027959D02*
D03*
D28*
X049679Y033808D02*
D03*
X050679D02*
D03*
D29*
X048599D02*
D03*
X051754D02*
D03*
D30*
X049919Y032758D02*
D03*
X050179D02*
D03*
X050435D02*
D03*
X049659D02*
D03*
X050691D02*
D03*
D31*
X044971Y022286D02*
D03*
X043532Y023725D02*
D03*
X044423Y024616D02*
D03*
X045862Y023177D02*
D03*
X055529Y035714D02*
D03*
X056968Y034275D02*
D03*
X056077Y033384D02*
D03*
X054638Y034823D02*
D03*
D32*
X056108Y024577D02*
D03*
X054669Y023138D02*
D03*
X055560Y022247D02*
D03*
X056999Y023686D02*
D03*
X044427Y033388D02*
D03*
X045866Y034827D02*
D03*
X044975Y035718D02*
D03*
X043536Y034279D02*
D03*
D33*
X050334Y033199D02*
X050359Y033224D01*
X050435Y032758D02*
Y033097D01*
X050334Y033199D02*
X050435Y033097D01*
X050294Y033199D02*
X050334D01*
X050179Y032394D02*
Y032758D01*
X050038Y032253D02*
X050179Y032394D01*
X049684Y029983D02*
X049815Y029853D01*
X049573Y030444D02*
X049684Y030333D01*
Y029983D02*
Y030333D01*
X054334Y034519D02*
X054638Y034823D01*
X046840Y034519D02*
X054334D01*
X051091Y031892D02*
X052649Y030334D01*
Y029571D02*
Y030334D01*
X045313Y024262D02*
X045760Y024709D01*
X045075Y024262D02*
X045313D01*
X044969Y024368D02*
X045075Y024262D01*
X044790Y024368D02*
X044969D01*
X044557Y024136D02*
X044790Y024368D01*
X043532Y023725D02*
X044126D01*
X044537Y024136D01*
X044557D01*
X056474Y024051D02*
X056932Y024510D01*
X056020Y024051D02*
X056474D01*
X055262Y024809D02*
X056020Y024051D01*
X054724Y024809D02*
X055262D01*
X053861Y025671D02*
X054473Y025059D01*
X053579Y025671D02*
X053861D01*
X052195Y027055D02*
X053579Y025671D01*
X054191Y024777D02*
X054473Y025059D01*
X051912Y026766D02*
Y026773D01*
Y026766D02*
X052088Y026589D01*
Y024757D02*
Y026589D01*
X051523Y026846D02*
X052327Y027651D01*
X051523Y026433D02*
Y026846D01*
X052327Y027651D02*
X052740D01*
X051523Y026433D02*
X051599Y026510D01*
X051091Y031892D02*
X051806Y032606D01*
X046804Y030890D02*
Y031047D01*
X047096Y031338D01*
X048800Y027955D02*
Y028176D01*
X048666Y027820D02*
X048800Y027955D01*
Y028176D02*
X048876Y028252D01*
X049113Y027989D02*
Y028015D01*
X048805Y027681D02*
X049113Y027989D01*
X048683Y027559D02*
X048805Y027681D01*
X048683Y027314D02*
Y027559D01*
X046573Y027515D02*
X046760D01*
X046965Y027354D02*
X046985Y027374D01*
X046729Y027896D02*
Y029127D01*
X047386Y028611D02*
X048031Y027967D01*
X047226Y027145D02*
X047245Y027126D01*
X046760Y027515D02*
X047013Y027768D01*
X045937Y029919D02*
X046729Y029127D01*
X045512Y029919D02*
X045937D01*
X045408Y030024D02*
X045512Y029919D01*
X045408Y030024D02*
Y030027D01*
X047470Y028045D02*
X047674D01*
X047193Y027768D02*
X047470Y028045D01*
X047483Y027833D02*
X047607D01*
X046965Y027316D02*
X047483Y027833D01*
X047277Y029501D02*
Y030488D01*
X047153Y029376D02*
X047277Y029501D01*
X047142Y030623D02*
X047277Y030488D01*
X047607Y027833D02*
X047752Y027688D01*
X047674Y028045D02*
X047892Y027827D01*
X053856Y023980D02*
X054281Y023555D01*
X048500Y030715D02*
Y031045D01*
X047458Y030977D02*
X047826Y031345D01*
X048201D01*
X048500Y031045D01*
X048294Y031542D02*
X048385D01*
X048283Y031553D02*
X048294Y031542D01*
X048385D02*
X048808Y031965D01*
X048458Y031958D02*
X048627Y032127D01*
X047519Y031958D02*
X048458D01*
X048283Y031553D02*
X048378Y031649D01*
X047142Y030623D02*
Y031023D01*
X049322Y029645D02*
X049466D01*
X049537Y029574D01*
X049140Y029463D02*
X049322Y029645D01*
X048906Y029463D02*
X049140D01*
X048749Y029620D02*
X048906Y029463D01*
X047772Y033330D02*
X047929Y033172D01*
X047618Y033330D02*
X047772D01*
X047929Y033172D02*
X048482D01*
X049013Y032642D01*
X047026Y033002D02*
X047203Y032825D01*
X047640Y030796D02*
X048111Y030325D01*
X047639Y030796D02*
X047640D01*
X047142Y031023D02*
X047277Y031158D01*
X048627Y032127D02*
Y032146D01*
X051103Y028565D02*
X051401Y028267D01*
Y028171D02*
Y028267D01*
X051311Y028809D02*
X051645Y028475D01*
Y028415D02*
Y028475D01*
X051401Y028171D02*
X051487Y028084D01*
Y028045D02*
Y028084D01*
X051645Y028415D02*
X051732Y028328D01*
X051770D01*
X048673Y026489D02*
X048979Y026183D01*
Y026103D02*
Y026183D01*
Y026094D02*
Y026103D01*
Y026094D02*
X049258Y025816D01*
X048812Y026628D02*
X049059Y026381D01*
X049258D01*
X049262D01*
X049510Y026134D01*
X049788Y025856D02*
X050033Y025611D01*
Y025611D02*
Y025611D01*
X050018Y025152D02*
X050255Y025388D01*
X050008Y025152D02*
X050018D01*
X048972Y025045D02*
X049219Y025293D01*
Y025297D01*
X048979Y025537D02*
X049219Y025297D01*
X048534Y025983D02*
X048979Y025537D01*
X048534Y025983D02*
Y026350D01*
X049800Y028280D02*
Y028411D01*
X049885Y028495D01*
X050057Y027534D02*
X050144Y027621D01*
Y027936D01*
X049800Y028280D02*
X050144Y027936D01*
X049430Y027403D02*
X049559Y027531D01*
X049083Y027403D02*
X049430D01*
X049113Y028015D02*
X049361Y028263D01*
X048527Y027959D02*
Y028348D01*
X048654Y028475D01*
X050337Y029783D02*
X050998Y030444D01*
X050580Y029748D02*
X051694D01*
X050476Y029644D02*
X050580Y029748D01*
X051694Y029455D02*
X051906Y029242D01*
X051694Y029455D02*
Y029748D01*
X050775Y030444D02*
X050998D01*
X050528Y030692D02*
X050775Y030444D01*
X047945Y026264D02*
X048031Y026350D01*
X047945Y025613D02*
Y026264D01*
X045790Y026424D02*
X046121Y026094D01*
X045790Y026424D02*
Y026591D01*
X047945Y025613D02*
X048240Y025318D01*
Y025081D02*
Y025318D01*
X048683Y027314D02*
X049090Y026907D01*
X050033Y030904D02*
X050064Y030873D01*
X049796Y030625D02*
X050283Y030138D01*
X049796Y030625D02*
Y030667D01*
X050198Y029922D02*
X050283Y030007D01*
Y030138D01*
X049365Y030024D02*
X049676Y029713D01*
X049124Y028500D02*
X049268Y028644D01*
X049476D01*
X049606Y028774D01*
X049796Y030667D02*
X050033Y030904D01*
X048944Y027542D02*
X049195Y027793D01*
X049336D01*
X049584Y028040D01*
X049810Y027814D01*
Y027782D02*
Y027814D01*
X048951Y026763D02*
Y026768D01*
X049123Y026596D01*
X049189D01*
X046792Y026766D02*
X047139Y026419D01*
X047543D01*
X047752Y026628D01*
X050064Y030873D02*
X050144D01*
X050001Y030935D02*
X050064Y030873D01*
X050001Y030935D02*
Y031593D01*
X045355Y026400D02*
X045371D01*
X044770Y027409D02*
X045265Y027904D01*
X044770Y027055D02*
Y027409D01*
Y027055D02*
X044805Y027020D01*
X045355Y026400D02*
Y026470D01*
X044805Y027020D02*
X045355Y026470D01*
X045371Y026242D02*
Y026400D01*
X044699Y025146D02*
X045159Y025606D01*
X043532Y023725D02*
X043667Y023591D01*
X055150Y022658D02*
X055560Y022247D01*
X054536Y022658D02*
X055150D01*
X056602Y033910D02*
X056968Y034275D01*
X056602Y033296D02*
Y033910D01*
X055733Y032427D02*
X056602Y033296D01*
X055733Y024952D02*
X056108Y024577D01*
X055733Y024952D02*
Y032427D01*
X046001Y035358D02*
X046840Y034519D01*
X045335Y035358D02*
X046001D01*
X044975Y035718D02*
X045335Y035358D01*
X053479Y034173D02*
X053871Y033780D01*
X053479Y034170D02*
Y034173D01*
X045159Y025606D02*
Y025677D01*
X045230D01*
X046121Y026094D02*
X046198Y026172D01*
X047574D01*
X047892Y026489D01*
X045760Y024709D02*
Y025146D01*
X049676Y029713D02*
X049753Y029636D01*
X049912D01*
X050198Y029922D01*
X051896Y028666D02*
X052050D01*
X052265Y029247D02*
Y029329D01*
X052129Y029465D02*
X052265Y029329D01*
X047474Y026907D02*
X047730Y027163D01*
X047226Y027162D02*
X047474Y027410D01*
X047226Y027145D02*
Y027162D01*
X047613Y027549D02*
X047735Y027427D01*
X048683Y026926D02*
Y027314D01*
X048413Y026655D02*
X048683Y026926D01*
X047735Y027427D02*
X048075D01*
X048305Y026914D02*
Y027197D01*
X048075Y027427D02*
X048305Y027197D01*
X048010Y027126D02*
X048047Y027163D01*
X047735Y026889D02*
X047880D01*
X048115Y026655D01*
X048413D01*
X047730Y027163D02*
X048047D01*
X046965Y027316D02*
Y027354D01*
X047013Y027768D02*
X047193D01*
X049189Y029191D02*
X049397Y029400D01*
Y029435D01*
X051311Y025677D02*
Y026221D01*
X051599Y026510D01*
X052649Y029571D02*
X053184Y029035D01*
X052050Y028666D02*
X052649Y029264D01*
Y029571D01*
X047432Y026865D02*
X047474Y026907D01*
X045862Y023177D02*
X046205Y023520D01*
X053674D01*
X054536Y022658D01*
X047026Y033002D02*
Y033201D01*
X047367Y033542D01*
Y033580D01*
X047331Y032147D02*
X047519Y031958D01*
X046255Y032147D02*
X047331D01*
X051192Y024240D02*
X051571D01*
X052088Y024757D01*
X053637Y026448D02*
Y026698D01*
X054174Y027235D02*
Y028045D01*
X053978Y027039D02*
X054174Y027235D01*
X053888Y026448D02*
X054229Y026789D01*
X053637Y026448D02*
X053888D01*
X050001Y031593D02*
X050300Y031892D01*
X051091D01*
X051953Y031915D02*
X053094Y030773D01*
D34*
X056922Y033480D02*
X057523Y034081D01*
X056922Y033455D02*
Y033480D01*
X055377Y021681D02*
X055872D01*
X054775Y022282D02*
X055377Y021681D01*
X055477Y021581D01*
X055872Y021681D02*
X057569Y023379D01*
Y023873D01*
X057392Y024050D02*
X057569Y023873D01*
X057523Y034081D02*
Y034596D01*
X055836Y036283D02*
X057523Y034596D01*
X055341Y036283D02*
X055836D01*
X055164Y036106D02*
X055341Y036283D01*
X044699Y036319D02*
X045194D01*
X045093Y036419D02*
X045194Y036319D01*
X045760Y035753D01*
X042967Y034586D02*
X044699Y036319D01*
X042967Y034101D02*
Y034586D01*
Y034101D02*
X045654Y031414D01*
Y031121D02*
Y031414D01*
X050321Y025323D02*
X050533Y025040D01*
X050255Y025388D02*
X050321Y025323D01*
X055942Y025500D02*
X057392Y024050D01*
X046184Y027268D02*
X046686Y026766D01*
X046792D01*
X045654Y030980D02*
Y031121D01*
Y030980D02*
X046149Y030485D01*
X044496Y025438D02*
Y029964D01*
X045654Y031121D01*
X047757Y029980D02*
X047765D01*
X048111Y030325D01*
X048230Y032614D02*
X048411Y032433D01*
X048830Y031127D02*
X049366Y031662D01*
X048500Y030796D02*
X048830Y031127D01*
X048500Y030715D02*
Y030796D01*
X049366Y031662D02*
Y032288D01*
X049013Y032642D02*
X049366Y032288D01*
X044699Y021681D02*
X045123D01*
X042967Y023414D02*
X044699Y021681D01*
X054616Y022282D02*
X054775D01*
X055942Y025500D02*
Y032288D01*
X056922Y033268D01*
Y033455D01*
X046927Y034728D02*
X053786D01*
X045866Y035788D02*
X046927Y034728D01*
X045795Y035788D02*
X045866D01*
X045760Y035753D02*
X045795Y035788D01*
X046616Y030583D02*
X046898Y030301D01*
X046469Y030583D02*
X046616D01*
X046149Y030485D02*
X046371D01*
X046469Y030583D01*
X049442Y025070D02*
X049684Y024828D01*
X042866Y023808D02*
X042967Y023909D01*
Y023414D02*
Y023909D01*
X043568Y024510D01*
X044496Y025438D01*
X057523Y034081D02*
X057634Y034192D01*
X046750Y023308D02*
X053590D01*
X054616Y022282D01*
X043163Y033905D02*
X043536Y034279D01*
X055164Y036078D02*
X055529Y035714D01*
X055164Y036078D02*
Y036106D01*
X053786Y034728D02*
X055164Y036106D01*
X056999Y023686D02*
X057363Y024050D01*
X057392D01*
X044971Y022286D02*
X045336Y021922D01*
Y021894D02*
Y021922D01*
X045123Y021681D02*
X045336Y021894D01*
X046750Y023308D01*
D35*
X048144Y030687D02*
Y031036D01*
X048093Y031086D02*
X048144Y031036D01*
X048476Y029392D02*
Y030355D01*
X048144Y030687D02*
X048476Y030355D01*
Y029392D02*
X048498Y029370D01*
X048621Y029247D01*
X048659D01*
D36*
X054590Y029451D02*
D03*
X054033Y028894D02*
D03*
X046003Y029066D02*
D03*
X045446Y028509D02*
D03*
D37*
X050533Y025040D02*
D03*
D38*
X056473Y021434D02*
D03*
X057144Y022106D02*
D03*
X057816Y022777D02*
D03*
X044063Y036531D02*
D03*
X043391Y035859D02*
D03*
X042719Y035187D02*
D03*
X056437Y036531D02*
D03*
X057109Y035859D02*
D03*
X057781Y035187D02*
D03*
X044063Y021469D02*
D03*
X043391Y022141D02*
D03*
X042719Y022813D02*
D03*
D39*
X050780Y033137D02*
D03*
X053856Y030485D02*
D03*
X046184Y027268D02*
D03*
X045654Y031121D02*
D03*
X048378Y031649D02*
D03*
X049013Y032642D02*
D03*
X055058Y024192D02*
D03*
X055023Y033561D02*
D03*
X045477Y033773D02*
D03*
X054174Y032642D02*
D03*
X052654Y033738D02*
D03*
X045795Y023980D02*
D03*
X045194Y024581D02*
D03*
X054775Y022282D02*
D03*
X056922Y033455D02*
D03*
X045760Y035753D02*
D03*
X043568Y024510D02*
D03*
X053609Y025005D02*
D03*
X046219Y033031D02*
D03*
X055270Y026879D02*
D03*
D40*
X050359Y033224D02*
D03*
X051036Y032544D02*
D03*
X055801Y021257D02*
D03*
X053432Y028081D02*
D03*
X052195Y027055D02*
D03*
X051912Y026773D02*
D03*
X051806Y032606D02*
D03*
X047245Y031864D02*
D03*
X046573Y027515D02*
D03*
X046985Y027374D02*
D03*
X046729Y027896D02*
D03*
X047209Y028151D02*
D03*
X047386Y028611D02*
D03*
X047245Y027126D02*
D03*
X045512Y029919D02*
D03*
X045795Y029636D02*
D03*
X054281Y023555D02*
D03*
X053856Y023980D02*
D03*
X048093Y031086D02*
D03*
X049432Y030444D02*
D03*
X047775Y032960D02*
D03*
X048447Y028682D02*
D03*
X050038Y032253D02*
D03*
X051487Y028045D02*
D03*
X051770Y028328D02*
D03*
X049415Y028350D02*
D03*
X050144Y030732D02*
D03*
X048659Y029247D02*
D03*
X053184Y029035D02*
D03*
X049896Y027162D02*
D03*
X051028Y027798D02*
D03*
X049684Y027939D02*
D03*
X050356Y031581D02*
D03*
X045265Y027904D02*
D03*
X044805Y027020D02*
D03*
X050179Y026879D02*
D03*
X045371Y026242D02*
D03*
X044699Y025146D02*
D03*
X053479Y034170D02*
D03*
X053871Y033780D02*
D03*
X045230Y025677D02*
D03*
X046538Y025005D02*
D03*
X046856Y025889D02*
D03*
X045760Y025146D02*
D03*
X050250Y029000D02*
D03*
X051311Y025677D02*
D03*
X050215Y026066D02*
D03*
X052265Y029247D02*
D03*
X048305Y026914D02*
D03*
X048010Y027126D02*
D03*
X042543Y023485D02*
D03*
X044770Y036743D02*
D03*
X057957Y034515D02*
D03*
X051192Y024240D02*
D03*
X054174Y028045D02*
D03*
X053078Y030556D02*
D03*
D41*
X044309Y023561D02*
D03*
X044588Y023839D02*
D03*
X044866Y024117D02*
D03*
X055968Y035219D02*
D03*
X044031Y023282D02*
D03*
X044282Y023032D02*
D03*
X044532Y022781D02*
D03*
X044560Y023310D02*
D03*
X044811Y023059D02*
D03*
X044838Y023588D02*
D03*
X045117Y023867D02*
D03*
X045367Y023616D02*
D03*
X045089Y023338D02*
D03*
X056003Y022746D02*
D03*
X056254Y022996D02*
D03*
X056504Y023247D02*
D03*
X055725Y023024D02*
D03*
X055975Y023275D02*
D03*
X056226Y023525D02*
D03*
X055446Y023303D02*
D03*
X055697Y023553D02*
D03*
X055168Y023581D02*
D03*
X055419Y023831D02*
D03*
X055669Y024082D02*
D03*
X055947Y023804D02*
D03*
X056469Y034718D02*
D03*
X056218Y034968D02*
D03*
X056191Y034439D02*
D03*
X055940Y034690D02*
D03*
X055689Y034941D02*
D03*
X055912Y034161D02*
D03*
X055662Y034412D02*
D03*
X055634Y033883D02*
D03*
X055383Y034133D02*
D03*
X055133Y034384D02*
D03*
X055411Y034662D02*
D03*
X044532Y035219D02*
D03*
X044282Y034968D02*
D03*
X044031Y034718D02*
D03*
X044811Y034941D02*
D03*
X044560Y034690D02*
D03*
X044309Y034439D02*
D03*
X045089Y034662D02*
D03*
X044838Y034412D02*
D03*
X045367Y034384D02*
D03*
X045117Y034133D02*
D03*
X044866Y033883D02*
D03*
X044588Y034161D02*
D03*
M02*
