G04 Layer_Color=8388736*
%FSAX25Y25*%
%MOIN*%
G70*
G01*
G75*
%ADD21R,0.04331X0.04331*%
%ADD43R,0.03150X0.01181*%
%ADD61C,0.07000*%
%ADD62C,0.08000*%
%ADD103R,0.04043X0.03650*%
%ADD104R,0.02547X0.02469*%
%ADD105R,0.02862X0.01445*%
%ADD106R,0.10933X0.08571*%
%ADD107R,0.03937X0.01181*%
%ADD108R,0.17716X0.17716*%
%ADD109R,0.01181X0.03937*%
%ADD110R,0.02862X0.01484*%
%ADD111R,0.01484X0.02862*%
%ADD112R,0.10736X0.14673*%
%ADD113R,0.04831X0.07980*%
G04:AMPARAMS|DCode=114|XSize=16.81mil|YSize=42.4mil|CornerRadius=0mil|HoleSize=0mil|Usage=FLASHONLY|Rotation=45.000|XOffset=0mil|YOffset=0mil|HoleType=Round|Shape=Rectangle|*
%AMROTATEDRECTD114*
4,1,4,0.00905,-0.02094,-0.02094,0.00905,-0.00905,0.02094,0.02094,-0.00905,0.00905,-0.02094,0.0*
%
%ADD114ROTATEDRECTD114*%

G04:AMPARAMS|DCode=115|XSize=16.81mil|YSize=42.4mil|CornerRadius=0mil|HoleSize=0mil|Usage=FLASHONLY|Rotation=315.000|XOffset=0mil|YOffset=0mil|HoleType=Round|Shape=Rectangle|*
%AMROTATEDRECTD115*
4,1,4,-0.02094,-0.00905,0.00905,0.02094,0.02094,0.00905,-0.00905,-0.02094,-0.02094,-0.00905,0.0*
%
%ADD115ROTATEDRECTD115*%

%ADD116P,0.12399X4X360.0*%
G04:AMPARAMS|DCode=117|XSize=42.4mil|YSize=71.93mil|CornerRadius=0mil|HoleSize=0mil|Usage=FLASHONLY|Rotation=45.000|XOffset=0mil|YOffset=0mil|HoleType=Round|Shape=Rectangle|*
%AMROTATEDRECTD117*
4,1,4,0.01044,-0.04042,-0.04042,0.01044,-0.01044,0.04042,0.04042,-0.01044,0.01044,-0.04042,0.0*
%
%ADD117ROTATEDRECTD117*%

G04:AMPARAMS|DCode=118|XSize=32.56mil|YSize=40.43mil|CornerRadius=0mil|HoleSize=0mil|Usage=FLASHONLY|Rotation=225.000|XOffset=0mil|YOffset=0mil|HoleType=Round|Shape=Rectangle|*
%AMROTATEDRECTD118*
4,1,4,-0.00278,0.02581,0.02581,-0.00278,0.00278,-0.02581,-0.02581,0.00278,-0.00278,0.02581,0.0*
%
%ADD118ROTATEDRECTD118*%

G04:AMPARAMS|DCode=119|XSize=24.69mil|YSize=25.47mil|CornerRadius=0mil|HoleSize=0mil|Usage=FLASHONLY|Rotation=45.000|XOffset=0mil|YOffset=0mil|HoleType=Round|Shape=Rectangle|*
%AMROTATEDRECTD119*
4,1,4,0.00028,-0.01773,-0.01773,0.00028,-0.00028,0.01773,0.01773,-0.00028,0.00028,-0.01773,0.0*
%
%ADD119ROTATEDRECTD119*%

G04:AMPARAMS|DCode=120|XSize=24.69mil|YSize=25.47mil|CornerRadius=0mil|HoleSize=0mil|Usage=FLASHONLY|Rotation=315.000|XOffset=0mil|YOffset=0mil|HoleType=Round|Shape=Rectangle|*
%AMROTATEDRECTD120*
4,1,4,-0.01773,-0.00028,0.00028,0.01773,0.01773,0.00028,-0.00028,-0.01773,-0.01773,-0.00028,0.0*
%
%ADD120ROTATEDRECTD120*%

G04:AMPARAMS|DCode=121|XSize=42.4mil|YSize=71.93mil|CornerRadius=0mil|HoleSize=0mil|Usage=FLASHONLY|Rotation=135.000|XOffset=0mil|YOffset=0mil|HoleType=Round|Shape=Rectangle|*
%AMROTATEDRECTD121*
4,1,4,0.04042,0.01044,-0.01044,-0.04042,-0.04042,-0.01044,0.01044,0.04042,0.04042,0.01044,0.0*
%
%ADD121ROTATEDRECTD121*%

G04:AMPARAMS|DCode=122|XSize=22.72mil|YSize=26.65mil|CornerRadius=0mil|HoleSize=0mil|Usage=FLASHONLY|Rotation=135.000|XOffset=0mil|YOffset=0mil|HoleType=Round|Shape=Rectangle|*
%AMROTATEDRECTD122*
4,1,4,0.01746,0.00139,-0.00139,-0.01746,-0.01746,-0.00139,0.00139,0.01746,0.01746,0.00139,0.0*
%
%ADD122ROTATEDRECTD122*%

G04:AMPARAMS|DCode=123|XSize=27.05mil|YSize=52.01mil|CornerRadius=0mil|HoleSize=0mil|Usage=FLASHONLY|Rotation=315.000|XOffset=0mil|YOffset=0mil|HoleType=Round|Shape=Rectangle|*
%AMROTATEDRECTD123*
4,1,4,-0.02795,-0.00883,0.00883,0.02795,0.02795,0.00883,-0.00883,-0.02795,-0.02795,-0.00883,0.0*
%
%ADD123ROTATEDRECTD123*%

G04:AMPARAMS|DCode=124|XSize=22.72mil|YSize=26.65mil|CornerRadius=0mil|HoleSize=0mil|Usage=FLASHONLY|Rotation=225.000|XOffset=0mil|YOffset=0mil|HoleType=Round|Shape=Rectangle|*
%AMROTATEDRECTD124*
4,1,4,-0.00139,0.01746,0.01746,-0.00139,0.00139,-0.01746,-0.01746,0.00139,-0.00139,0.01746,0.0*
%
%ADD124ROTATEDRECTD124*%

%ADD125P,0.12399X4X270.0*%
G04:AMPARAMS|DCode=126|XSize=27.05mil|YSize=52.01mil|CornerRadius=0mil|HoleSize=0mil|Usage=FLASHONLY|Rotation=45.000|XOffset=0mil|YOffset=0mil|HoleType=Round|Shape=Rectangle|*
%AMROTATEDRECTD126*
4,1,4,0.00883,-0.02795,-0.02795,0.00883,-0.00883,0.02795,0.02795,-0.00883,0.00883,-0.02795,0.0*
%
%ADD126ROTATEDRECTD126*%

G04:AMPARAMS|DCode=127|XSize=32.56mil|YSize=40.43mil|CornerRadius=0mil|HoleSize=0mil|Usage=FLASHONLY|Rotation=135.000|XOffset=0mil|YOffset=0mil|HoleType=Round|Shape=Rectangle|*
%AMROTATEDRECTD127*
4,1,4,0.02581,0.00278,-0.00278,-0.02581,-0.02581,-0.00278,0.00278,0.02581,0.02581,0.00278,0.0*
%
%ADD127ROTATEDRECTD127*%

%ADD128R,0.02469X0.02547*%
%ADD129R,0.02272X0.02665*%
%ADD130R,0.02665X0.02272*%
%ADD131R,0.01781X0.02667*%
%ADD132R,0.02273X0.01781*%
%ADD133R,0.07193X0.04043*%
%ADD134R,0.03059X0.04437*%
%ADD135R,0.06100X0.01900*%
%ADD136R,0.08000X0.07600*%
%ADD137R,0.08000X0.08000*%
%ADD138R,0.03256X0.03650*%
%ADD139R,0.04437X0.03059*%
%ADD140R,0.02469X0.02272*%
%ADD141R,0.06406X0.03610*%
%ADD142R,0.01287X0.03256*%
%ADD143R,0.01484X0.12311*%
%ADD144C,0.01200*%
D21*
X0395913Y0223449D02*
D03*
Y0254551D02*
D03*
X0403000D02*
D03*
X0410087D02*
D03*
Y0223449D02*
D03*
X0403000D02*
D03*
D43*
X0403543Y0260441D02*
D03*
Y0263000D02*
D03*
Y0265559D02*
D03*
X0396457D02*
D03*
Y0263000D02*
D03*
Y0260441D02*
D03*
D61*
X0398000Y0410500D02*
D03*
X0408000D02*
D03*
D62*
X0334500Y0319000D02*
D03*
Y0335000D02*
D03*
D103*
X0375350Y0307059D02*
D03*
X0381650D02*
D03*
Y0301941D02*
D03*
X0375350D02*
D03*
D104*
X0354500Y0332886D02*
D03*
Y0336114D02*
D03*
Y0319886D02*
D03*
Y0323114D02*
D03*
X0446500Y0313114D02*
D03*
Y0309886D02*
D03*
X0371500Y0302886D02*
D03*
Y0306114D02*
D03*
X0383000Y0288886D02*
D03*
Y0292114D02*
D03*
X0376000Y0285386D02*
D03*
Y0288614D02*
D03*
X0406000Y0272614D02*
D03*
Y0269386D02*
D03*
X0402000Y0272614D02*
D03*
Y0269386D02*
D03*
X0398000Y0272614D02*
D03*
Y0269386D02*
D03*
X0394000Y0272614D02*
D03*
Y0269386D02*
D03*
X0390500Y0276114D02*
D03*
Y0272886D02*
D03*
X0387000Y0276114D02*
D03*
Y0272886D02*
D03*
X0404300Y0310814D02*
D03*
Y0307586D02*
D03*
X0401000D02*
D03*
Y0310814D02*
D03*
X0390000Y0310114D02*
D03*
Y0306886D02*
D03*
X0395000Y0306386D02*
D03*
Y0309614D02*
D03*
X0389000Y0328886D02*
D03*
Y0332114D02*
D03*
X0378500Y0327614D02*
D03*
Y0324386D02*
D03*
X0385500Y0306114D02*
D03*
Y0302886D02*
D03*
X0420000Y0294614D02*
D03*
Y0291386D02*
D03*
D105*
X0359520Y0323063D02*
D03*
Y0325031D02*
D03*
Y0327000D02*
D03*
Y0328969D02*
D03*
Y0330937D02*
D03*
X0374480D02*
D03*
Y0328969D02*
D03*
Y0327000D02*
D03*
Y0325031D02*
D03*
Y0323063D02*
D03*
D106*
X0367000Y0327000D02*
D03*
D107*
X0391386Y0298953D02*
D03*
Y0295803D02*
D03*
Y0292653D02*
D03*
Y0289504D02*
D03*
Y0286354D02*
D03*
Y0283205D02*
D03*
Y0281630D02*
D03*
Y0284780D02*
D03*
Y0287929D02*
D03*
Y0291079D02*
D03*
Y0294228D02*
D03*
Y0297378D02*
D03*
X0414614Y0283205D02*
D03*
Y0286354D02*
D03*
Y0289504D02*
D03*
Y0292653D02*
D03*
Y0295803D02*
D03*
Y0298953D02*
D03*
Y0297378D02*
D03*
Y0294228D02*
D03*
Y0291079D02*
D03*
Y0287929D02*
D03*
Y0284780D02*
D03*
Y0281630D02*
D03*
D108*
X0403000Y0290291D02*
D03*
D109*
X0395913Y0278677D02*
D03*
X0399063D02*
D03*
X0402213D02*
D03*
X0405362D02*
D03*
X0408512D02*
D03*
X0411661D02*
D03*
X0410087D02*
D03*
X0406937D02*
D03*
X0403787D02*
D03*
X0400638D02*
D03*
X0397488D02*
D03*
X0394339D02*
D03*
X0410087Y0301905D02*
D03*
X0406937D02*
D03*
X0403787D02*
D03*
X0400638D02*
D03*
X0397488D02*
D03*
X0394339D02*
D03*
X0395913D02*
D03*
X0399063D02*
D03*
X0402213D02*
D03*
X0405362D02*
D03*
X0408512D02*
D03*
X0411661D02*
D03*
D110*
X0395520Y0390406D02*
D03*
Y0388437D02*
D03*
Y0386469D02*
D03*
Y0384500D02*
D03*
Y0382531D02*
D03*
Y0380563D02*
D03*
Y0378594D02*
D03*
X0410480D02*
D03*
Y0380563D02*
D03*
Y0382531D02*
D03*
Y0384500D02*
D03*
Y0386469D02*
D03*
Y0388437D02*
D03*
Y0390406D02*
D03*
D111*
X0399063Y0375051D02*
D03*
X0401031D02*
D03*
X0403000D02*
D03*
X0404969D02*
D03*
X0406937D02*
D03*
Y0393949D02*
D03*
X0404969D02*
D03*
X0403000D02*
D03*
X0401031D02*
D03*
X0399063D02*
D03*
D112*
X0403000Y0384500D02*
D03*
D113*
X0404421Y0340500D02*
D03*
X0394579D02*
D03*
D114*
X0449925Y0373004D02*
D03*
X0448115Y0371194D02*
D03*
X0446306Y0369385D02*
D03*
X0444496Y0367575D02*
D03*
X0455075Y0356996D02*
D03*
X0456885Y0358806D02*
D03*
X0458694Y0360615D02*
D03*
X0460504Y0362425D02*
D03*
X0356075Y0280996D02*
D03*
X0357885Y0282806D02*
D03*
X0359694Y0284615D02*
D03*
X0361504Y0286425D02*
D03*
X0350925Y0297004D02*
D03*
X0349115Y0295194D02*
D03*
X0347306Y0293385D02*
D03*
X0345496Y0291575D02*
D03*
X0350925Y0373004D02*
D03*
X0349115Y0371194D02*
D03*
X0347306Y0369385D02*
D03*
X0345496Y0367575D02*
D03*
X0356075Y0356996D02*
D03*
X0357885Y0358806D02*
D03*
X0359694Y0360615D02*
D03*
X0361504Y0362425D02*
D03*
X0455075Y0280996D02*
D03*
X0456885Y0282806D02*
D03*
X0458694Y0284615D02*
D03*
X0460504Y0286425D02*
D03*
X0449925Y0297004D02*
D03*
X0448115Y0295194D02*
D03*
X0446306Y0293385D02*
D03*
X0444496Y0291575D02*
D03*
D115*
Y0362425D02*
D03*
X0446306Y0360615D02*
D03*
X0448115Y0358806D02*
D03*
X0449925Y0356996D02*
D03*
X0460504Y0367575D02*
D03*
X0458694Y0369385D02*
D03*
X0456885Y0371194D02*
D03*
X0455075Y0373004D02*
D03*
X0361504Y0291575D02*
D03*
X0359694Y0293385D02*
D03*
X0357885Y0295194D02*
D03*
X0356075Y0297004D02*
D03*
X0345496Y0286425D02*
D03*
X0347306Y0284615D02*
D03*
X0349115Y0282806D02*
D03*
X0350925Y0280996D02*
D03*
X0361504Y0367575D02*
D03*
X0359694Y0369385D02*
D03*
X0357885Y0371194D02*
D03*
X0356075Y0373004D02*
D03*
X0345496Y0362425D02*
D03*
X0347306Y0360615D02*
D03*
X0349115Y0358806D02*
D03*
X0350925Y0356996D02*
D03*
X0444496Y0286425D02*
D03*
X0446306Y0284615D02*
D03*
X0448115Y0282806D02*
D03*
X0449925Y0280996D02*
D03*
X0460504Y0291575D02*
D03*
X0458694Y0293385D02*
D03*
X0456885Y0295194D02*
D03*
X0455075Y0297004D02*
D03*
D116*
X0452500Y0365000D02*
D03*
X0353500Y0289000D02*
D03*
D117*
X0471897Y0356897D02*
D03*
X0464103Y0349103D02*
D03*
X0334103Y0297103D02*
D03*
X0341897Y0304897D02*
D03*
D118*
X0458551Y0353051D02*
D03*
X0462449Y0356949D02*
D03*
X0347449Y0300949D02*
D03*
X0343551Y0297051D02*
D03*
D119*
X0464859Y0359859D02*
D03*
X0467141Y0362141D02*
D03*
X0341141Y0294141D02*
D03*
X0338859Y0291859D02*
D03*
X0374859Y0257859D02*
D03*
X0377141Y0260141D02*
D03*
X0355859Y0350859D02*
D03*
X0358141Y0353141D02*
D03*
X0450141Y0303141D02*
D03*
X0447859Y0300859D02*
D03*
X0431141Y0396141D02*
D03*
X0428859Y0393859D02*
D03*
D120*
X0467141Y0291859D02*
D03*
X0464859Y0294141D02*
D03*
X0447859Y0353141D02*
D03*
X0450141Y0350859D02*
D03*
X0423359Y0265641D02*
D03*
X0425641Y0263359D02*
D03*
X0358141Y0300859D02*
D03*
X0355859Y0303141D02*
D03*
X0382641Y0388359D02*
D03*
X0380359Y0390641D02*
D03*
X0338859Y0362141D02*
D03*
X0341141Y0359859D02*
D03*
D121*
X0464103Y0304897D02*
D03*
X0471897Y0297103D02*
D03*
X0341897Y0349103D02*
D03*
X0334103Y0356897D02*
D03*
D122*
X0428747Y0260253D02*
D03*
X0431253Y0257747D02*
D03*
X0377253Y0393747D02*
D03*
X0374747Y0396253D02*
D03*
D123*
X0357160Y0269767D02*
D03*
X0360696Y0266231D02*
D03*
X0364231Y0262696D02*
D03*
X0367767Y0259160D02*
D03*
X0371233Y0283840D02*
D03*
X0374768Y0280304D02*
D03*
X0378304Y0276768D02*
D03*
X0381840Y0273233D02*
D03*
X0448840Y0384233D02*
D03*
X0445304Y0387769D02*
D03*
X0441769Y0391304D02*
D03*
X0438233Y0394840D02*
D03*
X0434767Y0370160D02*
D03*
X0431231Y0373696D02*
D03*
X0427696Y0377232D02*
D03*
X0424160Y0380767D02*
D03*
D124*
X0380247Y0263247D02*
D03*
X0382753Y0265753D02*
D03*
X0425753Y0390753D02*
D03*
X0423247Y0388247D02*
D03*
D125*
X0353500Y0365000D02*
D03*
X0452500Y0289000D02*
D03*
D126*
X0371233Y0370160D02*
D03*
X0374768Y0373696D02*
D03*
X0378304Y0377232D02*
D03*
X0381840Y0380767D02*
D03*
X0357160Y0384233D02*
D03*
X0360696Y0387769D02*
D03*
X0364231Y0391304D02*
D03*
X0367767Y0394840D02*
D03*
X0434767Y0283840D02*
D03*
X0431231Y0280304D02*
D03*
X0427696Y0276768D02*
D03*
X0424160Y0273233D02*
D03*
X0448840Y0269767D02*
D03*
X0445304Y0266231D02*
D03*
X0441769Y0262696D02*
D03*
X0438233Y0259160D02*
D03*
D127*
X0343551Y0356949D02*
D03*
X0347449Y0353051D02*
D03*
X0462449Y0297051D02*
D03*
X0458551Y0300949D02*
D03*
D128*
X0455114Y0321500D02*
D03*
X0451886D02*
D03*
X0449886Y0308000D02*
D03*
X0453114D02*
D03*
X0390114Y0341500D02*
D03*
X0386886D02*
D03*
X0390114Y0338000D02*
D03*
X0386886D02*
D03*
X0419886Y0287000D02*
D03*
X0423114D02*
D03*
X0419886Y0283500D02*
D03*
X0423114D02*
D03*
X0419886Y0280000D02*
D03*
X0423114D02*
D03*
X0379614Y0292000D02*
D03*
X0376386D02*
D03*
X0382614Y0282000D02*
D03*
X0379386D02*
D03*
X0397614Y0316700D02*
D03*
X0394386D02*
D03*
X0374114Y0318000D02*
D03*
X0370886D02*
D03*
X0357614Y0339500D02*
D03*
X0354386D02*
D03*
X0417614Y0384500D02*
D03*
X0414386D02*
D03*
Y0388000D02*
D03*
X0417614D02*
D03*
X0414386Y0391500D02*
D03*
X0417614D02*
D03*
Y0381000D02*
D03*
X0414386D02*
D03*
Y0377500D02*
D03*
X0417614D02*
D03*
X0414386Y0374000D02*
D03*
X0417614D02*
D03*
X0393886Y0346500D02*
D03*
X0397114D02*
D03*
X0405114D02*
D03*
X0401886D02*
D03*
X0418386Y0350500D02*
D03*
X0421614D02*
D03*
D129*
X0444228Y0321500D02*
D03*
X0447772D02*
D03*
X0444228Y0318000D02*
D03*
X0447772D02*
D03*
X0383272Y0295500D02*
D03*
X0379728D02*
D03*
X0390272Y0269000D02*
D03*
X0386728D02*
D03*
X0400728Y0316700D02*
D03*
X0404272D02*
D03*
X0354228Y0342500D02*
D03*
X0357772D02*
D03*
X0351228Y0330000D02*
D03*
X0354772D02*
D03*
X0351228Y0326000D02*
D03*
X0354772D02*
D03*
X0398272Y0398000D02*
D03*
X0394728D02*
D03*
X0418228Y0302000D02*
D03*
X0421772D02*
D03*
X0440772Y0299500D02*
D03*
X0437228D02*
D03*
X0431728Y0326500D02*
D03*
X0435272D02*
D03*
X0431728Y0323000D02*
D03*
X0435272D02*
D03*
D130*
X0453500Y0343728D02*
D03*
Y0347272D02*
D03*
Y0340772D02*
D03*
Y0337228D02*
D03*
Y0330728D02*
D03*
Y0334272D02*
D03*
X0413500Y0337228D02*
D03*
Y0340772D02*
D03*
X0410000Y0337228D02*
D03*
Y0340772D02*
D03*
X0379500Y0285228D02*
D03*
Y0288772D02*
D03*
X0389000Y0322228D02*
D03*
Y0325772D02*
D03*
X0382000Y0320728D02*
D03*
Y0324272D02*
D03*
X0361000Y0342228D02*
D03*
Y0345772D02*
D03*
Y0335728D02*
D03*
Y0339272D02*
D03*
D131*
X0394142Y0333152D02*
D03*
Y0320848D02*
D03*
X0396110D02*
D03*
X0398079D02*
D03*
X0400047D02*
D03*
X0402016D02*
D03*
X0403984D02*
D03*
X0405953D02*
D03*
X0407921D02*
D03*
X0409890D02*
D03*
X0411858D02*
D03*
Y0333152D02*
D03*
X0409890D02*
D03*
X0407921D02*
D03*
X0405953D02*
D03*
X0403984D02*
D03*
X0402016D02*
D03*
X0400047D02*
D03*
X0398079D02*
D03*
X0396110D02*
D03*
D132*
X0393896Y0329953D02*
D03*
Y0327984D02*
D03*
Y0326016D02*
D03*
Y0324047D02*
D03*
X0412104D02*
D03*
Y0326016D02*
D03*
Y0327984D02*
D03*
Y0329953D02*
D03*
D133*
X0343500Y0321291D02*
D03*
Y0332709D02*
D03*
D134*
X0418366Y0306429D02*
D03*
X0426634D02*
D03*
X0418366Y0322571D02*
D03*
X0426634D02*
D03*
X0418366Y0329929D02*
D03*
X0426634D02*
D03*
X0418366Y0346071D02*
D03*
X0426634D02*
D03*
D135*
X0461500Y0321882D02*
D03*
Y0332200D02*
D03*
Y0324441D02*
D03*
Y0327000D02*
D03*
Y0329600D02*
D03*
D136*
X0472000Y0311252D02*
D03*
Y0342800D02*
D03*
D137*
Y0322000D02*
D03*
Y0332000D02*
D03*
D138*
X0448150Y0332500D02*
D03*
X0441850D02*
D03*
X0448150Y0339000D02*
D03*
X0441850D02*
D03*
X0448150Y0345500D02*
D03*
X0441850D02*
D03*
D139*
X0365929Y0345634D02*
D03*
Y0337366D02*
D03*
X0382071Y0345634D02*
D03*
Y0337366D02*
D03*
D140*
X0450654Y0312441D02*
D03*
Y0315000D02*
D03*
Y0317559D02*
D03*
X0457346D02*
D03*
Y0315000D02*
D03*
Y0312441D02*
D03*
D141*
X0440000Y0308800D02*
D03*
D142*
X0436850Y0304666D02*
D03*
X0438425D02*
D03*
X0440000D02*
D03*
X0441575D02*
D03*
X0443150D02*
D03*
X0436850Y0312934D02*
D03*
X0438425D02*
D03*
X0440000D02*
D03*
X0441575D02*
D03*
X0443150D02*
D03*
D143*
X0365287Y0327000D02*
D03*
X0362276D02*
D03*
X0371724D02*
D03*
X0368713D02*
D03*
D144*
X0445960Y0309900D02*
D03*
X0435000Y0300000D02*
D03*
X0397000Y0296500D02*
D03*
X0421772Y0302000D02*
D03*
X0348500Y0332000D02*
D03*
X0361500Y0313000D02*
D03*
X0345500Y0310000D02*
D03*
X0357000D02*
D03*
X0364500Y0313000D02*
D03*
X0371500Y0308500D02*
D03*
X0374500D02*
D03*
Y0305500D02*
D03*
X0377500D02*
D03*
X0378500Y0310000D02*
D03*
X0385000Y0309000D02*
D03*
X0382000Y0303500D02*
D03*
X0405500Y0329500D02*
D03*
Y0324500D02*
D03*
X0400500D02*
D03*
Y0329500D02*
D03*
X0364500Y0315500D02*
D03*
X0367000D02*
D03*
X0354500Y0317000D02*
D03*
Y0320000D02*
D03*
Y0339500D02*
D03*
Y0336000D02*
D03*
X0363683Y0335374D02*
D03*
X0360500Y0335728D02*
D03*
X0348500Y0339500D02*
D03*
X0351500Y0311000D02*
D03*
X0361500Y0347000D02*
D03*
X0352500Y0343000D02*
D03*
Y0345500D02*
D03*
X0355000Y0343000D02*
D03*
Y0345500D02*
D03*
X0357500D02*
D03*
X0372000Y0338000D02*
D03*
X0369500D02*
D03*
Y0340500D02*
D03*
Y0343000D02*
D03*
X0367000Y0340500D02*
D03*
X0372000D02*
D03*
Y0343000D02*
D03*
X0417500Y0263500D02*
D03*
X0410500Y0370000D02*
D03*
X0385500Y0376500D02*
D03*
X0382500Y0375500D02*
D03*
X0431231Y0280304D02*
D03*
X0450000Y0278000D02*
D03*
X0448000Y0276000D02*
D03*
X0439000Y0289000D02*
D03*
X0437000Y0287000D02*
D03*
X0445000Y0283000D02*
D03*
X0443000Y0281000D02*
D03*
X0441000Y0283000D02*
D03*
X0453500Y0290000D02*
D03*
X0360910Y0294600D02*
D03*
X0373500Y0291000D02*
D03*
X0376000Y0288614D02*
D03*
X0373500Y0294000D02*
D03*
X0352500Y0290000D02*
D03*
X0356000Y0278000D02*
D03*
X0358000Y0276000D02*
D03*
X0367000Y0289000D02*
D03*
X0369000Y0287000D02*
D03*
X0361000Y0283000D02*
D03*
X0365000D02*
D03*
X0363000Y0281000D02*
D03*
X0352500Y0364000D02*
D03*
X0356000Y0376000D02*
D03*
X0358000Y0378000D02*
D03*
X0453500Y0364000D02*
D03*
X0450000Y0376000D02*
D03*
X0448000Y0378000D02*
D03*
X0361000Y0371000D02*
D03*
X0365000D02*
D03*
X0363000Y0373000D02*
D03*
X0367000Y0365000D02*
D03*
X0369000Y0367000D02*
D03*
X0445000Y0371000D02*
D03*
X0443000Y0373000D02*
D03*
X0441000Y0371000D02*
D03*
X0439000Y0365000D02*
D03*
X0437000Y0367000D02*
D03*
X0399500Y0342000D02*
D03*
X0374500Y0374000D02*
D03*
X0400000Y0293500D02*
D03*
X0403000Y0296500D02*
D03*
X0406000Y0293500D02*
D03*
X0409000Y0296500D02*
D03*
X0415000Y0279000D02*
D03*
X0389831Y0387382D02*
D03*
X0392500Y0392000D02*
D03*
X0389831Y0377539D02*
D03*
Y0372618D02*
D03*
X0377500Y0370500D02*
D03*
X0384000Y0354000D02*
D03*
X0417614Y0375990D02*
D03*
X0407500Y0370000D02*
D03*
X0421000Y0370650D02*
D03*
X0417850D02*
D03*
X0427299D02*
D03*
X0422000Y0344500D02*
D03*
X0413500Y0341500D02*
D03*
X0418000Y0339500D02*
D03*
X0410566Y0344527D02*
D03*
X0407966Y0345124D02*
D03*
X0413500Y0337000D02*
D03*
X0410000D02*
D03*
X0422000Y0347500D02*
D03*
X0412500Y0355228D02*
D03*
X0430000Y0310886D02*
D03*
X0394114Y0354000D02*
D03*
X0390886D02*
D03*
X0416000Y0355204D02*
D03*
X0420000Y0326139D02*
D03*
X0435500Y0318204D02*
D03*
X0429000Y0326000D02*
D03*
X0430114Y0307000D02*
D03*
X0426886D02*
D03*
X0436134Y0304866D02*
D03*
X0423114Y0285500D02*
D03*
Y0281750D02*
D03*
X0405000Y0373000D02*
D03*
X0422500Y0351614D02*
D03*
X0426000Y0345000D02*
D03*
X0430000Y0369500D02*
D03*
X0431231Y0373696D02*
D03*
X0443500Y0324500D02*
D03*
X0446000D02*
D03*
X0448500D02*
D03*
X0437500Y0329500D02*
D03*
X0435000D02*
D03*
X0432500D02*
D03*
X0456500Y0348500D02*
D03*
X0437000Y0352000D02*
D03*
X0441000Y0347000D02*
D03*
X0444328Y0350172D02*
D03*
X0437000Y0348500D02*
D03*
X0433500Y0352000D02*
D03*
X0448052Y0335675D02*
D03*
X0458500Y0353000D02*
D03*
X0347500Y0301000D02*
D03*
X0345500Y0303000D02*
D03*
X0357160Y0384233D02*
D03*
X0369000Y0279500D02*
D03*
X0448840Y0269767D02*
D03*
X0437500Y0384000D02*
D03*
X0464000Y0332000D02*
D03*
X0472000Y0342800D02*
D03*
Y0332000D02*
D03*
Y0322000D02*
D03*
Y0311252D02*
D03*
X0400000Y0263000D02*
D03*
X0431000Y0293000D02*
D03*
X0428500Y0295500D02*
D03*
X0423500Y0292000D02*
D03*
X0456500Y0338500D02*
D03*
Y0345000D02*
D03*
X0435400Y0362100D02*
D03*
X0458000Y0372500D02*
D03*
X0431141Y0396141D02*
D03*
X0369000Y0361000D02*
D03*
X0389000Y0279000D02*
D03*
X0374859Y0257859D02*
D03*
X0390114Y0338000D02*
D03*
Y0341500D02*
D03*
X0359493Y0333037D02*
D03*
X0347979Y0281521D02*
D03*
X0453000Y0308500D02*
D03*
X0459000Y0303500D02*
D03*
X0461000Y0305500D02*
D03*
X0463000Y0307500D02*
D03*
X0343000Y0346500D02*
D03*
X0345000Y0348500D02*
D03*
X0347000Y0350500D02*
D03*
X0338500Y0300000D02*
D03*
X0336500Y0302000D02*
D03*
X0334500Y0300000D02*
D03*
X0336500Y0298000D02*
D03*
X0334500Y0296000D02*
D03*
X0332500Y0298000D02*
D03*
X0473500Y0356000D02*
D03*
X0471500Y0358000D02*
D03*
X0469500Y0356000D02*
D03*
X0471500Y0354000D02*
D03*
X0469500Y0352000D02*
D03*
X0467500Y0354000D02*
D03*
X0465000Y0305500D02*
D03*
X0463000Y0303500D02*
D03*
X0461000Y0301500D02*
D03*
X0345000Y0352500D02*
D03*
X0343000Y0350500D02*
D03*
X0341000Y0348500D02*
D03*
X0346000Y0339500D02*
D03*
X0343500D02*
D03*
Y0305000D02*
D03*
X0341500Y0307000D02*
D03*
Y0303000D02*
D03*
X0339500Y0305000D02*
D03*
X0466500Y0349000D02*
D03*
X0464500Y0351000D02*
D03*
Y0347000D02*
D03*
X0462500Y0349000D02*
D03*
X0460500Y0351000D02*
D03*
X0470500Y0296000D02*
D03*
X0466500Y0300000D02*
D03*
X0468500Y0298000D02*
D03*
Y0302000D02*
D03*
X0470500Y0300000D02*
D03*
X0472500Y0298000D02*
D03*
X0333500Y0356000D02*
D03*
X0335500Y0354000D02*
D03*
X0337500Y0352000D02*
D03*
Y0356000D02*
D03*
X0339500Y0354000D02*
D03*
X0335500Y0358000D02*
D03*
X0390000Y0310114D02*
D03*
X0403000Y0327000D02*
D03*
X0419886Y0287000D02*
D03*
Y0280000D02*
D03*
X0400000Y0382500D02*
D03*
Y0380000D02*
D03*
X0406000D02*
D03*
Y0382500D02*
D03*
X0461000Y0343000D02*
D03*
X0450817Y0336277D02*
D03*
X0414386Y0384500D02*
D03*
Y0381000D02*
D03*
X0409750Y0271386D02*
D03*
X0394000Y0269386D02*
D03*
X0406000D02*
D03*
X0403000Y0284500D02*
D03*
X0409000Y0290500D02*
D03*
X0397000D02*
D03*
X0409000Y0284500D02*
D03*
X0406000Y0287500D02*
D03*
X0397000Y0284500D02*
D03*
X0400000Y0287500D02*
D03*
X0403000Y0290500D02*
D03*
Y0278000D02*
D03*
Y0275500D02*
D03*
X0379728Y0295500D02*
D03*
X0383000Y0292114D02*
D03*
X0379386Y0282000D02*
D03*
X0385980Y0285324D02*
D03*
X0386000Y0282500D02*
D03*
Y0291500D02*
D03*
X0395000Y0275000D02*
D03*
X0458000Y0281500D02*
D03*
X0448000Y0358500D02*
D03*
X0450000Y0356500D02*
D03*
X0358000Y0358500D02*
D03*
X0356000Y0356500D02*
D03*
X0358000Y0295500D02*
D03*
X0356000Y0297500D02*
D03*
X0449500Y0307500D02*
D03*
X0447000Y0305000D02*
D03*
X0450000Y0297500D02*
D03*
X0448000Y0295500D02*
D03*
X0444500Y0305000D02*
D03*
X0441000Y0359600D02*
D03*
X0431000Y0335000D02*
D03*
X0437000Y0341500D02*
D03*
X0348000Y0372500D02*
D03*
X0354500Y0366000D02*
D03*
X0362500Y0353000D02*
D03*
X0363000Y0349500D02*
D03*
X0354000D02*
D03*
X0357000D02*
D03*
X0360000D02*
D03*
X0384890Y0333890D02*
D03*
X0408000Y0402500D02*
D03*
X0398000D02*
D03*
X0369000Y0274500D02*
D03*
X0458000Y0309500D02*
D03*
X0440500Y0309000D02*
D03*
X0439810Y0318198D02*
D03*
X0446500Y0315114D02*
D03*
X0436000Y0313000D02*
D03*
X0431500Y0320500D02*
D03*
X0465500Y0311000D02*
D03*
X0464000Y0327000D02*
D03*
X0389000Y0328886D02*
D03*
Y0322228D02*
D03*
X0431253Y0257747D02*
D03*
X0425641Y0263359D02*
D03*
X0382753Y0265753D02*
D03*
X0377141Y0260141D02*
D03*
X0380359Y0390641D02*
D03*
X0374747Y0396253D02*
D03*
X0428859Y0393859D02*
D03*
X0554828Y0473956D02*
D03*
X0555859Y0468359D02*
D03*
X0552044Y0182828D02*
D03*
X0251172Y0180044D02*
D03*
X0250141Y0185641D02*
D03*
X0247859Y0183359D02*
D03*
X0558141Y0470641D02*
D03*
X0381840Y0273233D02*
D03*
X0378304Y0276768D02*
D03*
X0374768Y0280304D02*
D03*
X0366377Y0254877D02*
D03*
X0364348Y0251848D02*
D03*
X0361929Y0248744D02*
D03*
X0253956Y0182828D02*
D03*
X0255742Y0174793D02*
D03*
X0259359Y0178314D02*
D03*
X0341000Y0334500D02*
D03*
X0343500D02*
D03*
Y0332000D02*
D03*
X0346000D02*
D03*
Y0334500D02*
D03*
X0343500Y0337000D02*
D03*
X0346000D02*
D03*
X0348500D02*
D03*
Y0334500D02*
D03*
X0341000Y0337000D02*
D03*
X0248359Y0470141D02*
D03*
X0471000Y0363000D02*
D03*
Y0366500D02*
D03*
X0335000D02*
D03*
Y0363000D02*
D03*
X0361000Y0363500D02*
D03*
X0363000Y0361500D02*
D03*
X0350000Y0374500D02*
D03*
X0352000Y0372500D02*
D03*
X0451500Y0366000D02*
D03*
X0454000Y0372500D02*
D03*
X0456000Y0374500D02*
D03*
X0443000Y0361500D02*
D03*
X0445000Y0363500D02*
D03*
X0354500Y0288000D02*
D03*
X0352000Y0281500D02*
D03*
X0350000Y0279500D02*
D03*
X0363000Y0292500D02*
D03*
X0361000Y0290500D02*
D03*
X0451500Y0288000D02*
D03*
X0454000Y0281500D02*
D03*
X0456000Y0279500D02*
D03*
X0443000Y0292500D02*
D03*
X0445000Y0290500D02*
D03*
X0335000Y0291000D02*
D03*
Y0287500D02*
D03*
X0471000Y0291000D02*
D03*
Y0287500D02*
D03*
X0250641Y0467859D02*
D03*
X0255742Y0479208D02*
D03*
X0259359Y0475686D02*
D03*
X0251172Y0473956D02*
D03*
X0554828Y0180044D02*
D03*
X0546641Y0178314D02*
D03*
X0550258Y0174793D02*
D03*
X0557641Y0183859D02*
D03*
X0254000Y0471000D02*
D03*
X0546641Y0475686D02*
D03*
X0550258Y0479208D02*
D03*
X0552044Y0471172D02*
D03*
X0444000Y0403493D02*
D03*
Y0400710D02*
D03*
Y0397932D02*
D03*
X0424160Y0380767D02*
D03*
X0555359Y0186141D02*
D03*
X0431728Y0326500D02*
D03*
X0390500Y0266000D02*
D03*
X0418000Y0294000D02*
D03*
X0389000Y0263500D02*
D03*
X0411500D02*
D03*
X0381000Y0256000D02*
D03*
X0424000D02*
D03*
X0392624Y0311672D02*
D03*
X0396000Y0312500D02*
D03*
X0400728Y0316700D02*
D03*
X0415000Y0312000D02*
D03*
X0412000Y0319000D02*
D03*
X0410000Y0309000D02*
D03*
X0412500Y0310500D02*
D03*
X0408866Y0314600D02*
D03*
X0404300Y0310814D02*
D03*
X0391500Y0317000D02*
D03*
X0424500Y0388000D02*
D03*
X0427696Y0377232D02*
D03*
X0417614Y0384500D02*
D03*
X0417614Y0388250D02*
D03*
M02*
