G04 Layer_Physical_Order=3*
G04 Layer_Color=128*
%FSAX25Y25*%
%MOIN*%
G70*
G01*
G75*
%ADD53C,0.01000*%
%ADD64C,0.04000*%
%ADD65C,0.05600*%
%ADD66C,0.06100*%
%ADD67C,0.02600*%
G36*
X0412598Y0253252D02*
X0418981Y0252751D01*
X0425338Y0252000D01*
X0428500Y0251500D01*
X0428500Y0227500D01*
X0418000Y0217000D01*
X0387000D01*
X0377500Y0226500D01*
Y0251500D01*
X0380662Y0252000D01*
X0387019Y0252751D01*
X0393402Y0253252D01*
X0399799Y0253503D01*
X0406201D01*
X0412598Y0253252D01*
D02*
G37*
G36*
X0501420Y0218626D02*
X0501420D01*
D01*
X0501420D01*
D02*
G37*
G36*
X0335372Y0283142D02*
X0336156Y0282951D01*
X0336886Y0282607D01*
X0337210Y0282366D01*
X0337210D01*
X0338640Y0281299D01*
X0341425Y0279068D01*
X0344132Y0276743D01*
X0346757Y0274326D01*
X0349298Y0271821D01*
X0351752Y0269230D01*
X0354115Y0266557D01*
X0356385Y0263804D01*
X0357473Y0262389D01*
X0357473D01*
X0357715Y0262074D01*
X0358066Y0261361D01*
X0358269Y0260593D01*
X0358318Y0259800D01*
X0358209Y0259013D01*
X0357948Y0258262D01*
X0357545Y0257578D01*
X0357014Y0256986D01*
X0356696Y0256748D01*
X0356696Y0256748D01*
X0353689Y0254482D01*
X0347724Y0249886D01*
X0341828Y0245202D01*
X0336000Y0240432D01*
X0330243Y0235578D01*
X0324558Y0230640D01*
X0318946Y0225619D01*
X0313408Y0220516D01*
X0310667Y0217934D01*
Y0217934D01*
X0310349Y0217633D01*
X0309599Y0217182D01*
X0308768Y0216904D01*
X0307897Y0216812D01*
X0307027Y0216911D01*
X0306199Y0217196D01*
X0305452Y0217653D01*
X0304822Y0218261D01*
X0304580Y0218626D01*
X0304580Y0218626D01*
X0303563Y0220080D01*
X0301316Y0222826D01*
X0298806Y0225334D01*
X0296058Y0227579D01*
X0294603Y0228595D01*
X0294239Y0228836D01*
X0293633Y0229463D01*
X0293176Y0230206D01*
X0292889Y0231030D01*
X0292787Y0231897D01*
X0292875Y0232765D01*
X0293147Y0233594D01*
X0293592Y0234345D01*
X0293890Y0234663D01*
X0293890D01*
X0296442Y0237417D01*
X0301470Y0242997D01*
X0306393Y0248668D01*
X0311210Y0254431D01*
X0315918Y0260282D01*
X0320517Y0266219D01*
X0325004Y0272241D01*
X0329379Y0278346D01*
X0331523Y0281429D01*
X0331752Y0281761D01*
X0332334Y0282321D01*
X0333015Y0282753D01*
X0333769Y0283041D01*
X0334565Y0283172D01*
X0335372Y0283142D01*
D02*
G37*
G36*
X0276571Y0220693D02*
X0279364Y0220313D01*
X0282085Y0219574D01*
X0284687Y0218488D01*
X0287126Y0217074D01*
X0289362Y0215355D01*
X0291355Y0213362D01*
X0293074Y0211126D01*
X0294488Y0208687D01*
X0295574Y0206085D01*
X0296313Y0203364D01*
X0296693Y0200571D01*
X0296708Y0197751D01*
X0296357Y0194954D01*
X0295646Y0192225D01*
X0294588Y0189612D01*
X0293200Y0187158D01*
X0291505Y0184905D01*
X0289532Y0182890D01*
X0287315Y0181149D01*
X0284891Y0179709D01*
X0282300Y0178596D01*
X0279587Y0177828D01*
X0276798Y0177419D01*
X0273979Y0177374D01*
X0271178Y0177696D01*
X0269810Y0178037D01*
X0269292Y0178166D01*
X0268301Y0178561D01*
X0267373Y0179086D01*
X0266524Y0179732D01*
X0266146Y0180109D01*
X0266146Y0180109D01*
X0256109Y0190147D01*
X0255732Y0190524D01*
X0255086Y0191373D01*
X0254561Y0192301D01*
X0254166Y0193292D01*
X0254037Y0193810D01*
X0253696Y0195178D01*
X0253374Y0197979D01*
X0253419Y0200798D01*
X0253828Y0203587D01*
X0254596Y0206300D01*
X0255709Y0208891D01*
X0257149Y0211315D01*
X0258890Y0213532D01*
X0260905Y0215505D01*
X0263158Y0217200D01*
X0265612Y0218588D01*
X0268225Y0219646D01*
X0270954Y0220357D01*
X0273751Y0220708D01*
X0276571Y0220693D01*
D02*
G37*
G36*
X0535046Y0220357D02*
X0537775Y0219646D01*
X0540388Y0218588D01*
X0542842Y0217200D01*
X0545095Y0215505D01*
X0547110Y0213532D01*
X0548851Y0211315D01*
X0550291Y0208891D01*
X0551404Y0206300D01*
X0552172Y0203587D01*
X0552581Y0200798D01*
X0552626Y0197979D01*
X0552304Y0195178D01*
X0551963Y0193810D01*
X0551834Y0193292D01*
X0551439Y0192301D01*
X0550914Y0191373D01*
X0550268Y0190524D01*
X0549891Y0190147D01*
Y0190147D01*
X0539853Y0180109D01*
X0539476Y0179732D01*
X0538627Y0179086D01*
X0537699Y0178561D01*
X0536708Y0178166D01*
X0536190Y0178037D01*
X0534822Y0177696D01*
X0532021Y0177374D01*
X0529202Y0177419D01*
X0526413Y0177828D01*
X0523700Y0178596D01*
X0521109Y0179709D01*
X0518685Y0181149D01*
X0516468Y0182890D01*
X0514495Y0184905D01*
X0512800Y0187158D01*
X0511412Y0189612D01*
X0510354Y0192225D01*
X0509643Y0194954D01*
X0509292Y0197751D01*
X0509307Y0200571D01*
X0509687Y0203364D01*
X0510426Y0206085D01*
X0511512Y0208687D01*
X0512926Y0211126D01*
X0514645Y0213362D01*
X0516638Y0215355D01*
X0518874Y0217074D01*
X0521313Y0218488D01*
X0523915Y0219574D01*
X0526636Y0220313D01*
X0529429Y0220693D01*
X0532249Y0220708D01*
X0535046Y0220357D01*
D02*
G37*
G36*
X0472231Y0283041D02*
X0472985Y0282753D01*
X0473666Y0282321D01*
X0474248Y0281761D01*
X0474476Y0281429D01*
X0476621Y0278346D01*
X0480996Y0272241D01*
X0485483Y0266219D01*
X0490082Y0260282D01*
X0494791Y0254431D01*
X0499607Y0248668D01*
X0504530Y0242997D01*
X0509558Y0237417D01*
X0512110Y0234663D01*
X0512408Y0234345D01*
X0512853Y0233594D01*
X0513125Y0232765D01*
X0513213Y0231897D01*
X0513111Y0231030D01*
X0512824Y0230206D01*
X0512367Y0229463D01*
X0511761Y0228836D01*
X0511397Y0228595D01*
X0511397Y0228595D01*
X0509942Y0227579D01*
X0507194Y0225334D01*
X0504684Y0222826D01*
X0502437Y0220080D01*
X0501420Y0218626D01*
X0501420Y0218626D01*
X0501178Y0218261D01*
X0500548Y0217653D01*
X0499801Y0217196D01*
X0498973Y0216911D01*
X0498103Y0216812D01*
X0497232Y0216904D01*
X0496401Y0217182D01*
X0495650Y0217633D01*
X0495333Y0217934D01*
X0495333Y0217934D01*
X0492592Y0220516D01*
X0487054Y0225619D01*
X0481442Y0230640D01*
X0475757Y0235578D01*
X0470000Y0240432D01*
X0464173Y0245202D01*
X0458276Y0249886D01*
X0452311Y0254482D01*
X0449304Y0256748D01*
X0449304Y0256748D01*
X0448986Y0256986D01*
X0448455Y0257578D01*
X0448052Y0258262D01*
X0447791Y0259013D01*
X0447682Y0259800D01*
X0447731Y0260593D01*
X0447934Y0261361D01*
X0448285Y0262074D01*
X0448527Y0262389D01*
X0449614Y0263804D01*
X0451885Y0266557D01*
X0454248Y0269230D01*
X0456702Y0271821D01*
X0459243Y0274326D01*
X0461868Y0276743D01*
X0464575Y0279068D01*
X0467360Y0281299D01*
X0468790Y0282366D01*
X0469114Y0282607D01*
X0469844Y0282951D01*
X0470628Y0283142D01*
X0471434Y0283172D01*
X0472231Y0283041D01*
D02*
G37*
G36*
X0276798Y0476581D02*
X0279587Y0476172D01*
X0282300Y0475404D01*
X0284891Y0474291D01*
X0287315Y0472852D01*
X0289532Y0471110D01*
X0291505Y0469095D01*
X0293200Y0466842D01*
X0294588Y0464388D01*
X0295646Y0461775D01*
X0296357Y0459046D01*
X0296708Y0456249D01*
X0296693Y0453429D01*
X0296313Y0450636D01*
X0295574Y0447915D01*
X0294488Y0445313D01*
X0293074Y0442873D01*
X0291355Y0440638D01*
X0289362Y0438645D01*
X0287126Y0436926D01*
X0284687Y0435512D01*
X0282085Y0434426D01*
X0279364Y0433687D01*
X0276571Y0433307D01*
X0273751Y0433292D01*
X0270954Y0433643D01*
X0268225Y0434354D01*
X0265612Y0435412D01*
X0263158Y0436800D01*
X0260905Y0438495D01*
X0258890Y0440468D01*
X0257149Y0442685D01*
X0255709Y0445109D01*
X0254596Y0447700D01*
X0253828Y0450413D01*
X0253419Y0453202D01*
X0253374Y0456021D01*
X0253696Y0458822D01*
X0254037Y0460190D01*
X0254166Y0460708D01*
X0254561Y0461699D01*
X0255086Y0462627D01*
X0255732Y0463476D01*
X0256109Y0463854D01*
X0266146Y0473891D01*
X0266146D01*
X0266524Y0474268D01*
X0267373Y0474914D01*
X0268301Y0475439D01*
X0269292Y0475834D01*
X0269810Y0475963D01*
X0271178Y0476304D01*
X0273979Y0476626D01*
X0276798Y0476581D01*
D02*
G37*
G36*
X0534822Y0476304D02*
X0536190Y0475963D01*
X0536708Y0475834D01*
X0537699Y0475439D01*
X0538627Y0474914D01*
X0539476Y0474268D01*
X0539853Y0473891D01*
X0549891Y0463854D01*
X0550268Y0463476D01*
X0550914Y0462627D01*
X0551439Y0461699D01*
X0551834Y0460708D01*
X0551963Y0460190D01*
X0552304Y0458822D01*
X0552626Y0456021D01*
X0552581Y0453202D01*
X0552172Y0450413D01*
X0551404Y0447700D01*
X0550291Y0445109D01*
X0548851Y0442685D01*
X0547110Y0440468D01*
X0545095Y0438495D01*
X0542842Y0436800D01*
X0540388Y0435412D01*
X0537775Y0434354D01*
X0535046Y0433643D01*
X0532249Y0433292D01*
X0529429Y0433307D01*
X0526636Y0433687D01*
X0523915Y0434426D01*
X0521313Y0435512D01*
X0518874Y0436926D01*
X0516638Y0438645D01*
X0514645Y0440638D01*
X0512926Y0442873D01*
X0511512Y0445313D01*
X0510426Y0447915D01*
X0509687Y0450636D01*
X0509307Y0453429D01*
X0509292Y0456249D01*
X0509643Y0459046D01*
X0510354Y0461775D01*
X0511412Y0464388D01*
X0512800Y0466842D01*
X0514495Y0469095D01*
X0516468Y0471110D01*
X0518685Y0472852D01*
X0521109Y0474291D01*
X0523700Y0475404D01*
X0526413Y0476172D01*
X0529202Y0476581D01*
X0532021Y0476626D01*
X0534822Y0476304D01*
D02*
G37*
G36*
X0499370Y0436430D02*
X0500196Y0436160D01*
X0500945Y0435719D01*
X0501581Y0435128D01*
X0501829Y0434771D01*
X0501829Y0434771D01*
X0502820Y0433411D01*
X0504991Y0430838D01*
X0507397Y0428483D01*
X0510015Y0426367D01*
X0511397Y0425405D01*
X0511397D01*
X0511761Y0425164D01*
X0512367Y0424537D01*
X0512824Y0423794D01*
X0513111Y0422970D01*
X0513213Y0422103D01*
X0513125Y0421235D01*
X0512853Y0420406D01*
X0512408Y0419656D01*
X0512110Y0419337D01*
Y0419337D01*
X0509558Y0416583D01*
X0504530Y0411003D01*
X0499607Y0405332D01*
X0494791Y0399569D01*
X0490082Y0393718D01*
X0485483Y0387781D01*
X0480996Y0381758D01*
X0476621Y0375654D01*
X0474476Y0372571D01*
X0474248Y0372239D01*
X0473666Y0371679D01*
X0472985Y0371247D01*
X0472231Y0370959D01*
X0471434Y0370828D01*
X0470628Y0370858D01*
X0469844Y0371049D01*
X0469114Y0371393D01*
X0468790Y0371634D01*
Y0371634D01*
X0467475Y0372616D01*
X0464907Y0374661D01*
X0462405Y0376786D01*
X0459972Y0378989D01*
X0457609Y0381268D01*
X0455319Y0383620D01*
X0453105Y0386043D01*
X0450968Y0388535D01*
X0449940Y0389814D01*
X0449940Y0389814D01*
X0449693Y0390121D01*
X0449330Y0390817D01*
X0449108Y0391572D01*
X0449038Y0392355D01*
X0449121Y0393136D01*
X0449355Y0393887D01*
X0449731Y0394577D01*
X0450234Y0395181D01*
X0450539Y0395429D01*
Y0395429D01*
X0456377Y0400209D01*
X0467898Y0409956D01*
X0479208Y0419945D01*
X0490303Y0430173D01*
X0495768Y0435375D01*
X0496081Y0435677D01*
X0496822Y0436131D01*
X0497643Y0436415D01*
X0498505Y0436516D01*
X0499370Y0436430D01*
D02*
G37*
G36*
X0356060Y0389814D02*
X0356060D01*
D01*
X0356060D01*
D02*
G37*
G36*
X0308357Y0436415D02*
X0309178Y0436131D01*
X0309919Y0435677D01*
X0310232Y0435375D01*
X0310232D01*
X0315697Y0430173D01*
X0326792Y0419945D01*
X0338103Y0409956D01*
X0349623Y0400209D01*
X0355461Y0395429D01*
X0355461Y0395429D01*
X0355766Y0395181D01*
X0356269Y0394577D01*
X0356645Y0393887D01*
X0356879Y0393136D01*
X0356962Y0392355D01*
X0356892Y0391572D01*
X0356670Y0390817D01*
X0356307Y0390121D01*
X0356060Y0389814D01*
X0356060Y0389814D01*
X0355032Y0388535D01*
X0352895Y0386043D01*
X0350681Y0383620D01*
X0348391Y0381268D01*
X0346028Y0378989D01*
X0343595Y0376786D01*
X0341093Y0374661D01*
X0338525Y0372616D01*
X0337210Y0371634D01*
X0337210Y0371634D01*
X0336886Y0371393D01*
X0336156Y0371049D01*
X0335372Y0370858D01*
X0334565Y0370828D01*
X0333769Y0370959D01*
X0333015Y0371247D01*
X0332334Y0371679D01*
X0331752Y0372239D01*
X0331523Y0372571D01*
X0329379Y0375654D01*
X0325004Y0381758D01*
X0320517Y0387781D01*
X0315918Y0393718D01*
X0311210Y0399569D01*
X0306393Y0405332D01*
X0301470Y0411003D01*
X0296442Y0416583D01*
X0293890Y0419337D01*
X0293592Y0419656D01*
X0293147Y0420406D01*
X0292875Y0421235D01*
X0292787Y0422103D01*
X0292889Y0422970D01*
X0293176Y0423794D01*
X0293633Y0424537D01*
X0294239Y0425164D01*
X0294603Y0425405D01*
X0295985Y0426367D01*
X0298603Y0428483D01*
X0301009Y0430838D01*
X0303180Y0433411D01*
X0304171Y0434771D01*
Y0434771D01*
X0304419Y0435128D01*
X0305055Y0435719D01*
X0305804Y0436160D01*
X0306630Y0436430D01*
X0307494Y0436516D01*
X0308357Y0436415D01*
D02*
G37*
D53*
X0441000Y0338000D02*
X0451500D01*
X0452500Y0337000D01*
Y0318000D02*
Y0337000D01*
X0447500Y0313000D02*
X0452500Y0318000D01*
X0441000Y0313000D02*
X0447500D01*
X0365000Y0299000D02*
X0390500Y0273500D01*
X0415500D01*
X0441000Y0299000D01*
Y0360000D01*
X0415000Y0386000D02*
X0441000Y0360000D01*
X0391000Y0386000D02*
X0415000D01*
X0365000Y0360000D02*
X0391000Y0386000D01*
X0365000Y0299000D02*
Y0360000D01*
D64*
X0273751Y0220708D02*
X0276571Y0220693D01*
X0279364Y0220313D01*
X0282085Y0219574D01*
X0284687Y0218488D01*
X0287126Y0217074D01*
X0289362Y0215355D01*
X0291355Y0213362D01*
X0293074Y0211126D01*
X0294488Y0208687D01*
X0295574Y0206085D01*
X0296313Y0203364D01*
X0296693Y0200571D01*
X0296708Y0197751D01*
X0296357Y0194954D02*
X0296708Y0197751D01*
X0295646Y0192225D02*
X0296357Y0194954D01*
X0294588Y0189612D02*
X0295646Y0192225D01*
X0293200Y0187158D02*
X0294588Y0189612D01*
X0291505Y0184905D02*
X0293200Y0187158D01*
X0289532Y0182890D02*
X0291505Y0184905D01*
X0287315Y0181149D02*
X0289532Y0182890D01*
X0284891Y0179709D02*
X0287315Y0181149D01*
X0282300Y0178596D02*
X0284891Y0179709D01*
X0279587Y0177828D02*
X0282300Y0178596D01*
X0276798Y0177419D02*
X0279587Y0177828D01*
X0273979Y0177374D02*
X0276798Y0177419D01*
X0271178Y0177696D02*
X0273979Y0177374D01*
X0269810Y0178037D02*
X0271178Y0177696D01*
X0269292Y0178166D02*
X0269810Y0178037D01*
X0268301Y0178561D02*
X0269292Y0178166D01*
X0267373Y0179086D02*
X0268301Y0178561D01*
X0266524Y0179732D02*
X0267373Y0179086D01*
X0266146Y0180109D02*
X0266524Y0179732D01*
X0266146Y0180109D02*
X0266146Y0180109D01*
X0256109Y0190147D02*
X0266146Y0180109D01*
X0255732Y0190524D02*
X0256109Y0190147D01*
X0255086Y0191373D02*
X0255732Y0190524D01*
X0254561Y0192301D02*
X0255086Y0191373D01*
X0254166Y0193292D02*
X0254561Y0192301D01*
X0254037Y0193810D02*
X0254166Y0193292D01*
X0253696Y0195178D02*
X0254037Y0193810D01*
X0253374Y0197979D02*
X0253696Y0195178D01*
X0253374Y0197979D02*
X0253419Y0200798D01*
X0253828Y0203587D01*
X0254596Y0206300D01*
X0255709Y0208891D01*
X0257149Y0211315D01*
X0258890Y0213532D01*
X0260905Y0215505D01*
X0263158Y0217200D01*
X0265612Y0218588D01*
X0268225Y0219646D01*
X0270954Y0220357D01*
X0273751Y0220708D01*
X0501420Y0218626D02*
X0501420D01*
X0356060Y0389814D02*
X0356060D01*
X0532249Y0220708D02*
X0535046Y0220357D01*
X0537775Y0219646D01*
X0540388Y0218588D01*
X0542842Y0217200D01*
X0545095Y0215505D01*
X0547110Y0213532D01*
X0548851Y0211315D01*
X0550291Y0208891D01*
X0551404Y0206300D01*
X0552172Y0203587D01*
X0552581Y0200798D01*
X0552626Y0197979D01*
X0552304Y0195178D02*
X0552626Y0197979D01*
X0551963Y0193810D02*
X0552304Y0195178D01*
X0551834Y0193292D02*
X0551963Y0193810D01*
X0551439Y0192301D02*
X0551834Y0193292D01*
X0550914Y0191373D02*
X0551439Y0192301D01*
X0550268Y0190524D02*
X0550914Y0191373D01*
X0549891Y0190147D02*
X0550268Y0190524D01*
X0549891Y0190147D02*
Y0190147D01*
X0539853Y0180109D02*
X0549891Y0190147D01*
X0539476Y0179732D02*
X0539853Y0180109D01*
X0538627Y0179086D02*
X0539476Y0179732D01*
X0537699Y0178561D02*
X0538627Y0179086D01*
X0536708Y0178166D02*
X0537699Y0178561D01*
X0536190Y0178037D02*
X0536708Y0178166D01*
X0534822Y0177696D02*
X0536190Y0178037D01*
X0532021Y0177374D02*
X0534822Y0177696D01*
X0529202Y0177419D02*
X0532021Y0177374D01*
X0526413Y0177828D02*
X0529202Y0177419D01*
X0523700Y0178596D02*
X0526413Y0177828D01*
X0521109Y0179709D02*
X0523700Y0178596D01*
X0518685Y0181149D02*
X0521109Y0179709D01*
X0516468Y0182890D02*
X0518685Y0181149D01*
X0514495Y0184905D02*
X0516468Y0182890D01*
X0512800Y0187158D02*
X0514495Y0184905D01*
X0511412Y0189612D02*
X0512800Y0187158D01*
X0510354Y0192225D02*
X0511412Y0189612D01*
X0509643Y0194954D02*
X0510354Y0192225D01*
X0509292Y0197751D02*
X0509643Y0194954D01*
X0509292Y0197751D02*
X0509307Y0200571D01*
X0509687Y0203364D01*
X0510426Y0206085D01*
X0511512Y0208687D01*
X0512926Y0211126D01*
X0514645Y0213362D01*
X0516638Y0215355D01*
X0518874Y0217074D01*
X0521313Y0218488D01*
X0523915Y0219574D01*
X0526636Y0220313D01*
X0529429Y0220693D01*
X0532249Y0220708D01*
X0501420Y0218626D02*
X0501420D01*
X0356060Y0389814D02*
X0356060D01*
X0532021Y0476626D02*
X0534822Y0476304D01*
X0536190Y0475963D01*
X0536708Y0475834D01*
X0537699Y0475439D01*
X0538627Y0474914D01*
X0539476Y0474268D01*
X0539853Y0473891D01*
X0549891Y0463854D01*
X0550268Y0463476D01*
X0550914Y0462627D01*
X0551439Y0461699D01*
X0551834Y0460708D01*
X0551963Y0460190D01*
X0552304Y0458822D01*
X0552626Y0456021D01*
X0552581Y0453202D02*
X0552626Y0456021D01*
X0552172Y0450413D02*
X0552581Y0453202D01*
X0551404Y0447700D02*
X0552172Y0450413D01*
X0550291Y0445109D02*
X0551404Y0447700D01*
X0548851Y0442685D02*
X0550291Y0445109D01*
X0547110Y0440468D02*
X0548851Y0442685D01*
X0545095Y0438495D02*
X0547110Y0440468D01*
X0542842Y0436800D02*
X0545095Y0438495D01*
X0540388Y0435412D02*
X0542842Y0436800D01*
X0537775Y0434354D02*
X0540388Y0435412D01*
X0535046Y0433643D02*
X0537775Y0434354D01*
X0532249Y0433292D02*
X0535046Y0433643D01*
X0529429Y0433307D02*
X0532249Y0433292D01*
X0526636Y0433687D02*
X0529429Y0433307D01*
X0523915Y0434426D02*
X0526636Y0433687D01*
X0521313Y0435512D02*
X0523915Y0434426D01*
X0518874Y0436926D02*
X0521313Y0435512D01*
X0516638Y0438645D02*
X0518874Y0436926D01*
X0514645Y0440638D02*
X0516638Y0438645D01*
X0512926Y0442873D02*
X0514645Y0440638D01*
X0511512Y0445313D02*
X0512926Y0442873D01*
X0510426Y0447915D02*
X0511512Y0445313D01*
X0509687Y0450636D02*
X0510426Y0447915D01*
X0509307Y0453429D02*
X0509687Y0450636D01*
X0509292Y0456249D02*
X0509307Y0453429D01*
X0509292Y0456249D02*
X0509643Y0459046D01*
X0510354Y0461775D01*
X0511412Y0464388D01*
X0512800Y0466842D01*
X0514495Y0469095D01*
X0516468Y0471110D01*
X0518685Y0472852D01*
X0521109Y0474291D01*
X0523700Y0475404D01*
X0526413Y0476172D01*
X0529202Y0476581D01*
X0532021Y0476626D01*
X0273979D02*
X0276798Y0476581D01*
X0279587Y0476172D01*
X0282300Y0475404D01*
X0284891Y0474291D01*
X0287315Y0472852D01*
X0289532Y0471110D01*
X0291505Y0469095D01*
X0293200Y0466842D01*
X0294588Y0464388D01*
X0295646Y0461775D01*
X0296357Y0459046D01*
X0296708Y0456249D01*
X0296693Y0453429D02*
X0296708Y0456249D01*
X0296313Y0450636D02*
X0296693Y0453429D01*
X0295574Y0447915D02*
X0296313Y0450636D01*
X0294488Y0445313D02*
X0295574Y0447915D01*
X0293074Y0442873D02*
X0294488Y0445313D01*
X0291355Y0440638D02*
X0293074Y0442873D01*
X0289362Y0438645D02*
X0291355Y0440638D01*
X0287126Y0436926D02*
X0289362Y0438645D01*
X0284687Y0435512D02*
X0287126Y0436926D01*
X0282085Y0434426D02*
X0284687Y0435512D01*
X0279364Y0433687D02*
X0282085Y0434426D01*
X0276571Y0433307D02*
X0279364Y0433687D01*
X0273751Y0433292D02*
X0276571Y0433307D01*
X0270954Y0433643D02*
X0273751Y0433292D01*
X0268225Y0434354D02*
X0270954Y0433643D01*
X0265612Y0435412D02*
X0268225Y0434354D01*
X0263158Y0436800D02*
X0265612Y0435412D01*
X0260905Y0438495D02*
X0263158Y0436800D01*
X0258890Y0440468D02*
X0260905Y0438495D01*
X0257149Y0442685D02*
X0258890Y0440468D01*
X0255709Y0445109D02*
X0257149Y0442685D01*
X0254596Y0447700D02*
X0255709Y0445109D01*
X0253828Y0450413D02*
X0254596Y0447700D01*
X0253419Y0453202D02*
X0253828Y0450413D01*
X0253374Y0456021D02*
X0253419Y0453202D01*
X0253374Y0456021D02*
X0253696Y0458822D01*
X0254037Y0460190D01*
X0254166Y0460708D01*
X0254561Y0461699D01*
X0255086Y0462627D01*
X0255732Y0463476D01*
X0256109Y0463854D01*
X0266146Y0473891D01*
X0266146D02*
X0266146D01*
X0266146D02*
X0266524Y0474268D01*
X0267373Y0474914D01*
X0268301Y0475439D01*
X0269292Y0475834D01*
X0269810Y0475963D01*
X0271178Y0476304D01*
X0273979Y0476626D01*
X0370662Y0249361D02*
X0372278Y0250217D01*
X0373192Y0250640D01*
X0375111Y0251245D01*
X0377104Y0251515D01*
X0384673Y0249243D02*
X0386189Y0247920D01*
X0387457Y0246358D01*
X0389500Y0223549D02*
Y0223937D01*
Y0223549D02*
X0389651Y0222789D01*
X0389948Y0222072D01*
X0390379Y0221427D01*
X0390927Y0220879D01*
X0391572Y0220448D01*
X0392289Y0220151D01*
X0393049Y0220000D01*
X0412951D01*
X0413711Y0220151D01*
X0414428Y0220448D01*
X0415073Y0220879D01*
X0415621Y0221427D01*
X0416052Y0222072D01*
X0416349Y0222789D01*
X0416500Y0223549D01*
Y0223937D01*
X0535799Y0490097D02*
X0539272Y0489441D01*
X0542663Y0488442D01*
X0545937Y0487110D01*
X0549063Y0485459D01*
X0552009Y0483506D01*
X0554746Y0481269D01*
X0557246Y0478770D01*
X0559486Y0476035D01*
X0561442Y0473091D01*
X0563096Y0469967D01*
X0564431Y0466694D01*
X0565433Y0463304D01*
X0566093Y0459832D01*
X0566404Y0456311D01*
X0566363Y0452776D02*
X0566404Y0456311D01*
X0565971Y0449263D02*
X0566363Y0452776D01*
X0565231Y0445807D02*
X0565971Y0449263D01*
X0564150Y0442441D02*
X0565231Y0445807D01*
X0562741Y0439199D02*
X0564150Y0442441D01*
X0561015Y0436114D02*
X0562741Y0439199D01*
X0558991Y0433216D02*
X0561015Y0436114D01*
X0556689Y0430534D02*
X0558991Y0433216D01*
X0554131Y0428094D02*
X0556689Y0430534D01*
X0551343Y0425921D02*
X0554131Y0428094D01*
X0548353Y0424036D02*
X0551343Y0425921D01*
X0545190Y0422458D02*
X0548353Y0424036D01*
X0541886Y0421202D02*
X0545190Y0422458D01*
X0538473Y0420282D02*
X0541886Y0421202D01*
X0536729Y0419994D02*
X0538473Y0420282D01*
X0535955Y0419850D02*
X0536729Y0419994D01*
X0534425Y0419469D02*
X0535955Y0419850D01*
X0532931Y0418968D02*
X0534425Y0419469D01*
X0531482Y0418348D02*
X0532931Y0418968D01*
X0530087Y0417615D02*
X0531482Y0418348D01*
X0528755Y0416772D02*
X0530087Y0417615D01*
X0527495Y0415825D02*
X0528755Y0416772D01*
X0526315Y0414781D02*
X0527495Y0415825D01*
X0525757Y0414224D02*
X0526315Y0414781D01*
X0522026Y0410294D02*
X0525757Y0414224D01*
X0514729Y0402280D02*
X0522026Y0410294D01*
X0507657Y0394067D02*
X0514729Y0402280D01*
X0500817Y0385660D02*
X0507657Y0394067D01*
X0497485Y0381386D02*
X0500817Y0385660D01*
X0495741Y0379039D02*
X0497485Y0381386D01*
X0492489Y0374180D02*
X0495741Y0379039D01*
X0489563Y0369117D02*
X0492489Y0374180D01*
X0486974Y0363875D02*
X0489563Y0369117D01*
X0484734Y0358474D02*
X0486974Y0363875D01*
X0482852Y0352937D02*
X0484734Y0358474D01*
X0481337Y0347290D02*
X0482852Y0352937D01*
X0480195Y0341555D02*
X0481337Y0347290D01*
X0479431Y0335758D02*
X0480195Y0341555D01*
X0479048Y0329924D02*
X0479431Y0335758D01*
X0479048Y0324076D02*
Y0329924D01*
Y0324076D02*
X0479431Y0318242D01*
X0480195Y0312445D01*
X0481337Y0306710D01*
X0482852Y0301063D01*
X0484734Y0295526D01*
X0486974Y0290125D01*
X0489563Y0284882D01*
X0492489Y0279820D01*
X0495741Y0274961D01*
X0497485Y0272614D01*
X0500817Y0268340D01*
X0507657Y0259933D01*
X0514729Y0251720D01*
X0522026Y0243706D01*
X0525757Y0239776D01*
X0526315Y0239219D01*
X0527495Y0238175D01*
X0528755Y0237228D01*
X0530087Y0236385D01*
X0531482Y0235652D01*
X0532931Y0235032D01*
X0534425Y0234531D01*
X0535955Y0234150D01*
X0536729Y0234006D01*
X0538473Y0233718D01*
X0541886Y0232798D01*
X0545190Y0231542D01*
X0548352Y0229965D01*
X0551342Y0228080D01*
X0554130Y0225907D01*
X0556687Y0223468D01*
X0558989Y0220786D01*
X0561013Y0217888D01*
X0562739Y0214804D01*
X0564149Y0211563D01*
X0565230Y0208197D01*
X0565970Y0204741D01*
X0566363Y0201229D01*
X0566404Y0197695D01*
X0566094Y0194174D02*
X0566404Y0197695D01*
X0565434Y0190702D02*
X0566094Y0194174D01*
X0564433Y0187312D02*
X0565434Y0190702D01*
X0563099Y0184039D02*
X0564433Y0187312D01*
X0561446Y0180915D02*
X0563099Y0184039D01*
X0559490Y0177971D02*
X0561446Y0180915D01*
X0557252Y0175236D02*
X0559490Y0177971D01*
X0554752Y0172737D02*
X0557252Y0175236D01*
X0552016Y0170500D02*
X0554752Y0172737D01*
X0549071Y0168545D02*
X0552016Y0170500D01*
X0545946Y0166894D02*
X0549071Y0168545D01*
X0542672Y0165562D02*
X0545946Y0166894D01*
X0539282Y0164562D02*
X0542672Y0165562D01*
X0535810Y0163904D02*
X0539282Y0164562D01*
X0532289Y0163595D02*
X0535810Y0163904D01*
X0528754Y0163638D02*
X0532289Y0163595D01*
X0525242Y0164033D02*
X0528754Y0163638D01*
X0521786Y0164775D02*
X0525242Y0164033D01*
X0518422Y0165857D02*
X0521786Y0164775D01*
X0515181Y0167269D02*
X0518422Y0165857D01*
X0512098Y0168995D02*
X0515181Y0167269D01*
X0509201Y0171021D02*
X0512098Y0168995D01*
X0506520Y0173324D02*
X0509201Y0171021D01*
X0504082Y0175883D02*
X0506520Y0173324D01*
X0501910Y0178672D02*
X0504082Y0175883D01*
X0500027Y0181662D02*
X0501910Y0178672D01*
X0498451Y0184826D02*
X0500027Y0181662D01*
X0497197Y0188130D02*
X0498451Y0184826D01*
X0496278Y0191543D02*
X0497197Y0188130D01*
X0495991Y0193287D02*
X0496278Y0191543D01*
X0495848Y0194057D02*
X0495991Y0193287D01*
X0495472Y0195578D02*
X0495848Y0194057D01*
X0494975Y0197064D02*
X0495472Y0195578D01*
X0494362Y0198505D02*
X0494975Y0197064D01*
X0493636Y0199893D02*
X0494362Y0198505D01*
X0492802Y0201220D02*
X0493636Y0199893D01*
X0491866Y0202475D02*
X0492802Y0201220D01*
X0490832Y0203652D02*
X0491866Y0202475D01*
X0490281Y0204209D02*
X0490832Y0203652D01*
X0487651Y0206745D02*
X0490281Y0204209D01*
X0482335Y0211758D02*
X0487651Y0206745D01*
X0476946Y0216694D02*
X0482335Y0211758D01*
X0471486Y0221550D02*
X0476946Y0216694D01*
X0465956Y0226326D02*
X0471486Y0221550D01*
X0460356Y0231021D02*
X0465956Y0226326D01*
X0454689Y0235633D02*
X0460356Y0231021D01*
X0448954Y0240162D02*
X0454689Y0235633D01*
X0446063Y0242396D02*
X0448954Y0240162D01*
X0444570Y0243509D02*
X0446063Y0242396D01*
X0441501Y0245615D02*
X0444570Y0243509D01*
X0438324Y0247556D02*
X0441501Y0245615D01*
X0435051Y0249329D02*
X0438324Y0247556D01*
X0433380Y0250150D02*
X0435051Y0249329D01*
X0432468Y0250537D02*
X0433380Y0250150D01*
X0430562Y0251076D02*
X0432468Y0250537D01*
X0428593Y0251289D02*
X0430562Y0251076D01*
X0426617Y0251170D02*
X0428593Y0251289D01*
X0424687Y0250723D02*
X0426617Y0251170D01*
X0422860Y0249960D02*
X0424687Y0250723D01*
X0421186Y0248902D02*
X0422860Y0249960D01*
X0419712Y0247579D02*
X0421186Y0248902D01*
X0418480Y0246028D02*
X0419712Y0247579D01*
X0417525Y0244294D02*
X0418480Y0246028D01*
X0416872Y0242424D02*
X0417525Y0244294D01*
X0416542Y0240472D02*
X0416872Y0242424D01*
X0416500Y0239482D02*
X0416542Y0240472D01*
X0416500Y0223937D02*
Y0239482D01*
X0389500Y0223937D02*
Y0239719D01*
X0389457Y0240725D02*
X0389500Y0239719D01*
X0389116Y0242708D02*
X0389457Y0240725D01*
X0388442Y0244604D02*
X0389116Y0242708D01*
X0387457Y0246358D02*
X0388442Y0244604D01*
X0382955Y0250291D02*
X0384673Y0249243D01*
X0381084Y0251031D02*
X0382955Y0250291D01*
X0379115Y0251444D02*
X0381084Y0251031D01*
X0377104Y0251515D02*
X0379115Y0251444D01*
X0367489Y0247543D02*
X0370662Y0249361D01*
X0364400Y0245585D02*
X0367489Y0247543D01*
X0361401Y0243492D02*
X0364400Y0245585D01*
X0359937Y0242396D02*
X0361401Y0243492D01*
X0357046Y0240162D02*
X0359937Y0242396D01*
X0351311Y0235633D02*
X0357046Y0240162D01*
X0345644Y0231021D02*
X0351311Y0235633D01*
X0340044Y0226326D02*
X0345644Y0231021D01*
X0334514Y0221550D02*
X0340044Y0226326D01*
X0329054Y0216694D02*
X0334514Y0221550D01*
X0323665Y0211758D02*
X0329054Y0216694D01*
X0318349Y0206745D02*
X0323665Y0211758D01*
X0315719Y0204209D02*
X0318349Y0206745D01*
X0315168Y0203652D02*
X0315719Y0204209D01*
X0314134Y0202475D02*
X0315168Y0203652D01*
X0313197Y0201220D02*
X0314134Y0202475D01*
X0312364Y0199893D02*
X0313197Y0201220D01*
X0311638Y0198505D02*
X0312364Y0199893D01*
X0311025Y0197064D02*
X0311638Y0198505D01*
X0310528Y0195578D02*
X0311025Y0197064D01*
X0310152Y0194057D02*
X0310528Y0195578D01*
X0310009Y0193287D02*
X0310152Y0194057D01*
X0309722Y0191543D02*
X0310009Y0193287D01*
X0308803Y0188130D02*
X0309722Y0191543D01*
X0307549Y0184826D02*
X0308803Y0188130D01*
X0305973Y0181662D02*
X0307549Y0184826D01*
X0304089Y0178672D02*
X0305973Y0181662D01*
X0301918Y0175883D02*
X0304089Y0178672D01*
X0299480Y0173324D02*
X0301918Y0175883D01*
X0296799Y0171021D02*
X0299480Y0173324D01*
X0293902Y0168995D02*
X0296799Y0171021D01*
X0290819Y0167269D02*
X0293902Y0168995D01*
X0287578Y0165857D02*
X0290819Y0167269D01*
X0284213Y0164775D02*
X0287578Y0165857D01*
X0280758Y0164033D02*
X0284213Y0164775D01*
X0277245Y0163638D02*
X0280758Y0164033D01*
X0273711Y0163595D02*
X0277245Y0163638D01*
X0270191Y0163904D02*
X0273711Y0163595D01*
X0266718Y0164562D02*
X0270191Y0163904D01*
X0263328Y0165562D02*
X0266718Y0164562D01*
X0260054Y0166894D02*
X0263328Y0165562D01*
X0256929Y0168545D02*
X0260054Y0166894D01*
X0253984Y0170500D02*
X0256929Y0168545D01*
X0251248Y0172737D02*
X0253984Y0170500D01*
X0248748Y0175236D02*
X0251248Y0172737D01*
X0246510Y0177971D02*
X0248748Y0175236D01*
X0244554Y0180915D02*
X0246510Y0177971D01*
X0242901Y0184039D02*
X0244554Y0180915D01*
X0241567Y0187312D02*
X0242901Y0184039D01*
X0240566Y0190702D02*
X0241567Y0187312D01*
X0239906Y0194174D02*
X0240566Y0190702D01*
X0239596Y0197695D02*
X0239906Y0194174D01*
X0239596Y0197695D02*
X0239637Y0201229D01*
X0240030Y0204741D01*
X0240770Y0208197D01*
X0241851Y0211563D01*
X0243261Y0214804D01*
X0244987Y0217888D01*
X0247010Y0220786D01*
X0249313Y0223468D01*
X0251870Y0225907D01*
X0254658Y0228080D01*
X0257648Y0229965D01*
X0260810Y0231542D01*
X0264114Y0232798D01*
X0267527Y0233718D01*
X0269271Y0234006D01*
X0270045Y0234150D01*
X0271575Y0234531D01*
X0273069Y0235032D01*
X0274518Y0235652D01*
X0275913Y0236385D01*
X0277245Y0237228D01*
X0278505Y0238175D01*
X0279685Y0239219D01*
X0280243Y0239776D01*
X0283974Y0243706D01*
X0291271Y0251720D01*
X0298342Y0259933D01*
X0305183Y0268340D01*
X0308515Y0272614D01*
X0310259Y0274961D01*
X0313511Y0279820D01*
X0316437Y0284882D01*
X0319026Y0290125D01*
X0321266Y0295526D01*
X0323148Y0301063D01*
X0324663Y0306710D01*
X0325805Y0312445D01*
X0326569Y0318242D01*
X0326952Y0324076D01*
Y0329924D01*
X0326569Y0335758D02*
X0326952Y0329924D01*
X0325805Y0341555D02*
X0326569Y0335758D01*
X0324663Y0347290D02*
X0325805Y0341555D01*
X0323148Y0352937D02*
X0324663Y0347290D01*
X0321266Y0358474D02*
X0323148Y0352937D01*
X0319026Y0363875D02*
X0321266Y0358474D01*
X0316437Y0369117D02*
X0319026Y0363875D01*
X0313511Y0374180D02*
X0316437Y0369117D01*
X0310259Y0379039D02*
X0313511Y0374180D01*
X0308515Y0381386D02*
X0310259Y0379039D01*
X0305183Y0385660D02*
X0308515Y0381386D01*
X0298342Y0394067D02*
X0305183Y0385660D01*
X0291271Y0402280D02*
X0298342Y0394067D01*
X0283974Y0410294D02*
X0291271Y0402280D01*
X0280243Y0414224D02*
X0283974Y0410294D01*
X0279685Y0414781D02*
X0280243Y0414224D01*
X0278505Y0415825D02*
X0279685Y0414781D01*
X0277245Y0416772D02*
X0278505Y0415825D01*
X0275913Y0417615D02*
X0277245Y0416772D01*
X0274518Y0418348D02*
X0275913Y0417615D01*
X0273069Y0418968D02*
X0274518Y0418348D01*
X0271575Y0419469D02*
X0273069Y0418968D01*
X0270045Y0419850D02*
X0271575Y0419469D01*
X0269271Y0419994D02*
X0270045Y0419850D01*
X0267527Y0420282D02*
X0269271Y0419994D01*
X0264114Y0421202D02*
X0267527Y0420282D01*
X0260810Y0422458D02*
X0264114Y0421202D01*
X0257647Y0424036D02*
X0260810Y0422458D01*
X0254657Y0425921D02*
X0257647Y0424036D01*
X0251869Y0428094D02*
X0254657Y0425921D01*
X0249311Y0430534D02*
X0251869Y0428094D01*
X0247009Y0433216D02*
X0249311Y0430534D01*
X0244985Y0436114D02*
X0247009Y0433216D01*
X0243260Y0439199D02*
X0244985Y0436114D01*
X0241850Y0442441D02*
X0243260Y0439199D01*
X0240769Y0445807D02*
X0241850Y0442441D01*
X0240029Y0449263D02*
X0240769Y0445807D01*
X0239637Y0452776D02*
X0240029Y0449263D01*
X0239596Y0456311D02*
X0239637Y0452776D01*
X0239596Y0456311D02*
X0239907Y0459832D01*
X0240567Y0463304D01*
X0241569Y0466694D01*
X0242904Y0469967D01*
X0244558Y0473091D01*
X0246514Y0476035D01*
X0248754Y0478770D01*
X0251254Y0481269D01*
X0253991Y0483506D01*
X0256937Y0485459D01*
X0260063Y0487110D01*
X0263337Y0488442D01*
X0266728Y0489441D01*
X0270201Y0490097D01*
X0273722Y0490405D01*
X0277257Y0490361D01*
X0280769Y0489965D01*
X0284225Y0489222D01*
X0287590Y0488139D01*
X0290830Y0486726D01*
X0293913Y0484998D01*
X0296810Y0482971D01*
X0299490Y0480666D01*
X0301927Y0478106D01*
X0304098Y0475317D01*
X0305980Y0472325D01*
X0307555Y0469160D01*
X0308808Y0465855D01*
X0309725Y0462441D01*
X0310012Y0460697D01*
X0310153Y0459931D01*
X0310526Y0458419D01*
X0311018Y0456941D01*
X0311625Y0455507D01*
X0312343Y0454125D01*
X0313168Y0452805D01*
X0314095Y0451553D01*
X0315118Y0450379D01*
X0315664Y0449823D01*
X0320339Y0445288D01*
X0329817Y0436350D01*
X0339461Y0427591D01*
X0349268Y0419015D01*
X0354231Y0414796D01*
X0354710Y0414396D01*
X0355679Y0413607D01*
X0356661Y0412834D01*
X0357656Y0412078D01*
X0358158Y0411706D01*
X0359277Y0410941D01*
X0361661Y0409651D01*
X0364199Y0408701D01*
X0366844Y0408108D01*
X0369544Y0407885D01*
X0372251Y0408034D01*
X0374910Y0408554D01*
X0377474Y0409434D01*
X0379892Y0410658D01*
X0382119Y0412202D01*
X0384113Y0414037D01*
X0385836Y0416129D01*
X0387255Y0418438D01*
X0388344Y0420920D01*
X0389081Y0423528D01*
X0389453Y0426213D01*
X0389500Y0427568D01*
Y0428088D01*
Y0428967D01*
X0389729Y0430708D01*
X0390184Y0432405D01*
X0390856Y0434028D01*
X0391734Y0435549D01*
X0392804Y0436942D01*
X0394046Y0438184D01*
X0395439Y0439254D01*
X0396961Y0440132D01*
X0398584Y0440804D01*
X0400280Y0441259D01*
X0402022Y0441488D01*
X0403978D01*
X0405720Y0441259D01*
X0407416Y0440804D01*
X0409039Y0440132D01*
X0410561Y0439254D01*
X0411954Y0438184D01*
X0413196Y0436942D01*
X0414266Y0435549D01*
X0415144Y0434028D01*
X0415816Y0432405D01*
X0416271Y0430708D01*
X0416500Y0428967D01*
Y0428088D02*
Y0428967D01*
Y0427568D02*
Y0428088D01*
Y0427568D02*
X0416547Y0426213D01*
X0416919Y0423528D01*
X0417656Y0420920D01*
X0418745Y0418438D01*
X0420164Y0416129D01*
X0421887Y0414037D01*
X0423881Y0412202D01*
X0426108Y0410658D01*
X0428526Y0409434D01*
X0431090Y0408554D01*
X0433749Y0408034D01*
X0436456Y0407885D01*
X0439156Y0408108D01*
X0441801Y0408701D01*
X0444339Y0409651D01*
X0446723Y0410941D01*
X0447842Y0411706D01*
X0448344Y0412078D01*
X0449339Y0412834D01*
X0450321Y0413607D01*
X0451290Y0414396D01*
X0451769Y0414796D01*
X0456733Y0419015D01*
X0466539Y0427591D01*
X0476183Y0436350D01*
X0485661Y0445288D01*
X0490336Y0449823D01*
X0490882Y0450379D01*
X0491905Y0451553D01*
X0492832Y0452805D01*
X0493657Y0454125D01*
X0494376Y0455507D01*
X0494982Y0456941D01*
X0495474Y0458419D01*
X0495847Y0459931D01*
X0495988Y0460697D01*
X0496275Y0462441D01*
X0497192Y0465855D01*
X0498445Y0469160D01*
X0500020Y0472325D01*
X0501902Y0475317D01*
X0504073Y0478106D01*
X0506510Y0480666D01*
X0509190Y0482971D01*
X0512087Y0484998D01*
X0515170Y0486726D01*
X0518410Y0488139D01*
X0521775Y0489222D01*
X0525231Y0489965D01*
X0528743Y0490361D01*
X0532278Y0490405D01*
X0535799Y0490097D01*
X0333769Y0283041D02*
X0334565Y0283172D01*
X0333015Y0282753D02*
X0333769Y0283041D01*
X0332334Y0282321D02*
X0333015Y0282753D01*
X0331752Y0281761D02*
X0332334Y0282321D01*
X0331523Y0281429D02*
X0331752Y0281761D01*
X0329379Y0278346D02*
X0331523Y0281429D01*
X0325004Y0272241D02*
X0329379Y0278346D01*
X0320517Y0266219D02*
X0325004Y0272241D01*
X0315918Y0260282D02*
X0320517Y0266219D01*
X0311210Y0254431D02*
X0315918Y0260282D01*
X0306393Y0248668D02*
X0311210Y0254431D01*
X0301470Y0242997D02*
X0306393Y0248668D01*
X0296442Y0237417D02*
X0301470Y0242997D01*
X0293890Y0234663D02*
X0296442Y0237417D01*
X0293890Y0234663D02*
X0293890D01*
X0293592Y0234345D02*
X0293890Y0234663D01*
X0293147Y0233594D02*
X0293592Y0234345D01*
X0292875Y0232765D02*
X0293147Y0233594D01*
X0292787Y0231897D02*
X0292875Y0232765D01*
X0292787Y0231897D02*
X0292889Y0231030D01*
X0293176Y0230206D01*
X0293633Y0229463D01*
X0294239Y0228836D01*
X0294603Y0228595D01*
X0296058Y0227579D01*
X0298806Y0225334D01*
X0301316Y0222826D01*
X0303563Y0220080D01*
X0304580Y0218626D01*
X0304580Y0218626D01*
X0304822Y0218261D01*
X0305452Y0217653D01*
X0306199Y0217196D01*
X0307027Y0216911D01*
X0307897Y0216812D01*
X0308768Y0216904D01*
X0309599Y0217182D01*
X0310349Y0217633D01*
X0310667Y0217934D01*
Y0217934D01*
X0313408Y0220516D01*
X0318946Y0225619D01*
X0324558Y0230640D01*
X0330243Y0235578D01*
X0336000Y0240432D01*
X0341828Y0245202D01*
X0347724Y0249886D01*
X0353689Y0254482D01*
X0356696Y0256748D01*
X0356696Y0256748D01*
X0357014Y0256986D01*
X0357545Y0257578D01*
X0357948Y0258262D01*
X0358209Y0259013D01*
X0358318Y0259800D01*
X0358269Y0260593D02*
X0358318Y0259800D01*
X0358066Y0261361D02*
X0358269Y0260593D01*
X0357715Y0262074D02*
X0358066Y0261361D01*
X0357473Y0262389D02*
X0357715Y0262074D01*
X0357473Y0262389D02*
X0357473D01*
X0356385Y0263804D02*
X0357473Y0262389D01*
X0354115Y0266557D02*
X0356385Y0263804D01*
X0351752Y0269230D02*
X0354115Y0266557D01*
X0349298Y0271821D02*
X0351752Y0269230D01*
X0346757Y0274326D02*
X0349298Y0271821D01*
X0344132Y0276743D02*
X0346757Y0274326D01*
X0341425Y0279068D02*
X0344132Y0276743D01*
X0338640Y0281299D02*
X0341425Y0279068D01*
X0337210Y0282366D02*
X0338640Y0281299D01*
X0337210Y0282366D02*
X0337210D01*
X0336886Y0282607D02*
X0337210Y0282366D01*
X0336156Y0282951D02*
X0336886Y0282607D01*
X0335372Y0283142D02*
X0336156Y0282951D01*
X0334565Y0283172D02*
X0335372Y0283142D01*
X0470628D02*
X0471434Y0283172D01*
X0469844Y0282951D02*
X0470628Y0283142D01*
X0469114Y0282607D02*
X0469844Y0282951D01*
X0468790Y0282366D02*
X0469114Y0282607D01*
X0467360Y0281299D02*
X0468790Y0282366D01*
X0464575Y0279068D02*
X0467360Y0281299D01*
X0461868Y0276743D02*
X0464575Y0279068D01*
X0459243Y0274326D02*
X0461868Y0276743D01*
X0456702Y0271821D02*
X0459243Y0274326D01*
X0454248Y0269230D02*
X0456702Y0271821D01*
X0451885Y0266557D02*
X0454248Y0269230D01*
X0449614Y0263804D02*
X0451885Y0266557D01*
X0448527Y0262389D02*
X0449614Y0263804D01*
X0448285Y0262074D02*
X0448527Y0262389D01*
X0447934Y0261361D02*
X0448285Y0262074D01*
X0447731Y0260593D02*
X0447934Y0261361D01*
X0447682Y0259800D02*
X0447731Y0260593D01*
X0447682Y0259800D02*
X0447791Y0259013D01*
X0448052Y0258262D01*
X0448455Y0257578D01*
X0448986Y0256986D01*
X0449304Y0256748D01*
X0449304Y0256748D01*
X0452311Y0254482D01*
X0458276Y0249886D01*
X0464173Y0245202D01*
X0470000Y0240432D01*
X0475757Y0235578D01*
X0481442Y0230640D01*
X0487054Y0225619D01*
X0492592Y0220516D01*
X0495333Y0217934D01*
X0495333Y0217934D02*
X0495333Y0217934D01*
X0495333Y0217934D02*
X0495650Y0217633D01*
X0496401Y0217182D01*
X0497232Y0216904D01*
X0498103Y0216812D01*
X0498973Y0216911D01*
X0499801Y0217196D01*
X0500548Y0217653D01*
X0501178Y0218261D01*
X0501420Y0218626D01*
X0501420Y0218626D01*
X0502437Y0220080D01*
X0504684Y0222826D01*
X0507194Y0225334D01*
X0509942Y0227579D01*
X0511397Y0228595D01*
X0511397Y0228595D02*
X0511397Y0228595D01*
X0511397Y0228595D02*
X0511761Y0228836D01*
X0512367Y0229463D01*
X0512824Y0230206D01*
X0513111Y0231030D01*
X0513213Y0231897D01*
X0513125Y0232765D02*
X0513213Y0231897D01*
X0512853Y0233594D02*
X0513125Y0232765D01*
X0512408Y0234345D02*
X0512853Y0233594D01*
X0512110Y0234663D02*
X0512408Y0234345D01*
X0509558Y0237417D02*
X0512110Y0234663D01*
X0504530Y0242997D02*
X0509558Y0237417D01*
X0499607Y0248668D02*
X0504530Y0242997D01*
X0494791Y0254431D02*
X0499607Y0248668D01*
X0490082Y0260282D02*
X0494791Y0254431D01*
X0485483Y0266219D02*
X0490082Y0260282D01*
X0480996Y0272241D02*
X0485483Y0266219D01*
X0476621Y0278346D02*
X0480996Y0272241D01*
X0474476Y0281429D02*
X0476621Y0278346D01*
X0474248Y0281761D02*
X0474476Y0281429D01*
X0473666Y0282321D02*
X0474248Y0281761D01*
X0472985Y0282753D02*
X0473666Y0282321D01*
X0472231Y0283041D02*
X0472985Y0282753D01*
X0471434Y0283172D02*
X0472231Y0283041D01*
X0497643Y0436415D02*
X0498505Y0436516D01*
X0496822Y0436131D02*
X0497643Y0436415D01*
X0496081Y0435677D02*
X0496822Y0436131D01*
X0495768Y0435375D02*
X0496081Y0435677D01*
X0490303Y0430173D02*
X0495768Y0435375D01*
X0479208Y0419945D02*
X0490303Y0430173D01*
X0467898Y0409956D02*
X0479208Y0419945D01*
X0456377Y0400209D02*
X0467898Y0409956D01*
X0450539Y0395429D02*
X0456377Y0400209D01*
X0450539Y0395429D02*
Y0395429D01*
X0450234Y0395181D02*
X0450539Y0395429D01*
X0449731Y0394577D02*
X0450234Y0395181D01*
X0449355Y0393887D02*
X0449731Y0394577D01*
X0449121Y0393136D02*
X0449355Y0393887D01*
X0449038Y0392355D02*
X0449121Y0393136D01*
X0449038Y0392355D02*
X0449108Y0391572D01*
X0449330Y0390817D01*
X0449693Y0390121D01*
X0449940Y0389814D01*
X0449940Y0389814D01*
X0450968Y0388535D01*
X0453105Y0386043D01*
X0455319Y0383620D01*
X0457609Y0381268D01*
X0459972Y0378989D01*
X0462405Y0376786D01*
X0464907Y0374661D01*
X0467475Y0372616D01*
X0468790Y0371634D01*
Y0371634D01*
X0469114Y0371393D01*
X0469844Y0371049D01*
X0470628Y0370858D01*
X0471434Y0370828D01*
X0472231Y0370959D01*
X0472985Y0371247D01*
X0473666Y0371679D01*
X0474248Y0372239D01*
X0474476Y0372571D01*
X0476621Y0375654D01*
X0480996Y0381758D01*
X0485483Y0387781D01*
X0490082Y0393718D01*
X0494791Y0399569D01*
X0499607Y0405332D01*
X0504530Y0411003D01*
X0509558Y0416583D01*
X0512110Y0419337D01*
Y0419337D01*
X0512408Y0419656D01*
X0512853Y0420406D01*
X0513125Y0421235D01*
X0513213Y0422103D01*
X0513111Y0422970D02*
X0513213Y0422103D01*
X0512824Y0423794D02*
X0513111Y0422970D01*
X0512367Y0424537D02*
X0512824Y0423794D01*
X0511761Y0425164D02*
X0512367Y0424537D01*
X0511397Y0425405D02*
X0511761Y0425164D01*
X0511397Y0425405D02*
X0511397D01*
X0510015Y0426367D02*
X0511397Y0425405D01*
X0507397Y0428483D02*
X0510015Y0426367D01*
X0504991Y0430838D02*
X0507397Y0428483D01*
X0502820Y0433411D02*
X0504991Y0430838D01*
X0501829Y0434771D02*
X0502820Y0433411D01*
X0501829Y0434771D02*
X0501829Y0434771D01*
X0501581Y0435128D02*
X0501829Y0434771D01*
X0500945Y0435719D02*
X0501581Y0435128D01*
X0500196Y0436160D02*
X0500945Y0435719D01*
X0499370Y0436430D02*
X0500196Y0436160D01*
X0498505Y0436516D02*
X0499370Y0436430D01*
X0306630D02*
X0307494Y0436516D01*
X0305804Y0436160D02*
X0306630Y0436430D01*
X0305055Y0435719D02*
X0305804Y0436160D01*
X0304419Y0435128D02*
X0305055Y0435719D01*
X0304171Y0434771D02*
X0304419Y0435128D01*
X0304171Y0434771D02*
Y0434771D01*
X0303180Y0433411D02*
X0304171Y0434771D01*
X0301009Y0430838D02*
X0303180Y0433411D01*
X0298603Y0428483D02*
X0301009Y0430838D01*
X0295985Y0426367D02*
X0298603Y0428483D01*
X0294603Y0425405D02*
X0295985Y0426367D01*
X0294239Y0425164D02*
X0294603Y0425405D01*
X0293633Y0424537D02*
X0294239Y0425164D01*
X0293176Y0423794D02*
X0293633Y0424537D01*
X0292889Y0422970D02*
X0293176Y0423794D01*
X0292787Y0422103D02*
X0292889Y0422970D01*
X0292787Y0422103D02*
X0292875Y0421235D01*
X0293147Y0420406D01*
X0293592Y0419656D01*
X0293890Y0419337D01*
X0296442Y0416583D01*
X0301470Y0411003D01*
X0306393Y0405332D01*
X0311210Y0399569D01*
X0315918Y0393718D01*
X0320517Y0387781D01*
X0325004Y0381758D01*
X0329379Y0375654D01*
X0331523Y0372571D01*
X0331752Y0372239D01*
X0332334Y0371679D01*
X0333015Y0371247D01*
X0333769Y0370959D01*
X0334565Y0370828D01*
X0335372Y0370858D01*
X0336156Y0371049D01*
X0336886Y0371393D01*
X0337210Y0371634D01*
X0337210Y0371634D02*
X0337210Y0371634D01*
X0337210Y0371634D02*
X0338525Y0372616D01*
X0341093Y0374661D01*
X0343595Y0376786D01*
X0346028Y0378989D01*
X0348391Y0381268D01*
X0350681Y0383620D01*
X0352895Y0386043D01*
X0355032Y0388535D01*
X0356060Y0389814D01*
X0356060Y0389814D01*
X0356307Y0390121D01*
X0356670Y0390817D01*
X0356892Y0391572D01*
X0356962Y0392355D01*
X0356879Y0393136D02*
X0356962Y0392355D01*
X0356645Y0393887D02*
X0356879Y0393136D01*
X0356269Y0394577D02*
X0356645Y0393887D01*
X0355766Y0395181D02*
X0356269Y0394577D01*
X0355461Y0395429D02*
X0355766Y0395181D01*
X0355461Y0395429D02*
X0355461Y0395429D01*
X0349623Y0400209D02*
X0355461Y0395429D01*
X0338103Y0409956D02*
X0349623Y0400209D01*
X0326792Y0419945D02*
X0338103Y0409956D01*
X0315697Y0430173D02*
X0326792Y0419945D01*
X0310232Y0435375D02*
X0315697Y0430173D01*
X0310232Y0435375D02*
X0310232D01*
X0309919Y0435677D02*
X0310232Y0435375D01*
X0309178Y0436131D02*
X0309919Y0435677D01*
X0308357Y0436415D02*
X0309178Y0436131D01*
X0307494Y0436516D02*
X0308357Y0436415D01*
D65*
X0398000Y0410500D02*
D03*
X0408000D02*
D03*
D66*
X0334500Y0319000D02*
D03*
D67*
X0445960Y0309900D02*
D03*
X0435000Y0300000D02*
D03*
X0397000Y0296500D02*
D03*
X0421772Y0302000D02*
D03*
X0348500Y0332000D02*
D03*
X0345500Y0310000D02*
D03*
X0357000D02*
D03*
X0364500Y0313000D02*
D03*
X0371500Y0308500D02*
D03*
X0374500D02*
D03*
Y0305500D02*
D03*
X0377500D02*
D03*
X0382000Y0303500D02*
D03*
X0405500Y0329500D02*
D03*
Y0324500D02*
D03*
X0400500D02*
D03*
Y0329500D02*
D03*
X0364500Y0315500D02*
D03*
X0367000D02*
D03*
X0354500Y0317000D02*
D03*
Y0320000D02*
D03*
Y0339500D02*
D03*
Y0336000D02*
D03*
X0360500Y0335728D02*
D03*
X0348500Y0339500D02*
D03*
X0351500Y0311000D02*
D03*
X0361500Y0347000D02*
D03*
X0417500Y0263500D02*
D03*
X0410500Y0370000D02*
D03*
X0385500Y0376500D02*
D03*
X0431231Y0280304D02*
D03*
X0450000Y0278000D02*
D03*
X0448000Y0276000D02*
D03*
X0439000Y0289000D02*
D03*
X0437000Y0287000D02*
D03*
X0445000Y0283000D02*
D03*
X0443000Y0281000D02*
D03*
X0441000Y0283000D02*
D03*
X0453500Y0290000D02*
D03*
X0360910Y0294600D02*
D03*
X0373500Y0291000D02*
D03*
X0376000Y0288614D02*
D03*
X0352500Y0290000D02*
D03*
X0356000Y0278000D02*
D03*
X0358000Y0276000D02*
D03*
X0367000Y0289000D02*
D03*
X0369000Y0287000D02*
D03*
X0361000Y0283000D02*
D03*
X0365000D02*
D03*
X0363000Y0281000D02*
D03*
X0352500Y0364000D02*
D03*
X0356000Y0376000D02*
D03*
X0358000Y0378000D02*
D03*
X0453500Y0364000D02*
D03*
X0450000Y0376000D02*
D03*
X0448000Y0378000D02*
D03*
X0361000Y0371000D02*
D03*
X0365000D02*
D03*
X0363000Y0373000D02*
D03*
X0367000Y0365000D02*
D03*
X0369000Y0367000D02*
D03*
X0445000Y0371000D02*
D03*
X0443000Y0373000D02*
D03*
X0441000Y0371000D02*
D03*
X0439000Y0365000D02*
D03*
X0437000Y0367000D02*
D03*
X0399500Y0342000D02*
D03*
X0374500Y0374000D02*
D03*
X0400000Y0293500D02*
D03*
X0403000Y0296500D02*
D03*
X0406000Y0293500D02*
D03*
X0409000Y0296500D02*
D03*
X0415000Y0279000D02*
D03*
X0389831Y0387382D02*
D03*
Y0377539D02*
D03*
Y0372618D02*
D03*
X0377500Y0370500D02*
D03*
X0384000Y0354000D02*
D03*
X0417614Y0375990D02*
D03*
X0407500Y0370000D02*
D03*
X0421000Y0370650D02*
D03*
X0417850D02*
D03*
X0427299D02*
D03*
X0422000Y0344500D02*
D03*
X0418000Y0339500D02*
D03*
X0410566Y0344527D02*
D03*
X0407966Y0345124D02*
D03*
X0413500Y0337000D02*
D03*
X0410000D02*
D03*
X0412500Y0355228D02*
D03*
X0430000Y0310886D02*
D03*
X0390886Y0354000D02*
D03*
X0416000Y0355204D02*
D03*
X0420000Y0326139D02*
D03*
X0435500Y0318204D02*
D03*
X0429000Y0326000D02*
D03*
X0430114Y0307000D02*
D03*
X0436134Y0304866D02*
D03*
X0423114Y0285500D02*
D03*
Y0281750D02*
D03*
X0405000Y0373000D02*
D03*
X0422500Y0351614D02*
D03*
X0426000Y0345000D02*
D03*
X0430000Y0369500D02*
D03*
X0431231Y0373696D02*
D03*
X0443500Y0324500D02*
D03*
X0446000D02*
D03*
X0448500D02*
D03*
X0437500Y0329500D02*
D03*
X0435000D02*
D03*
X0432500D02*
D03*
X0456500Y0348500D02*
D03*
X0441000Y0347000D02*
D03*
X0444328Y0350172D02*
D03*
X0437000Y0348500D02*
D03*
X0433500Y0352000D02*
D03*
X0448052Y0335675D02*
D03*
X0357160Y0384233D02*
D03*
X0369000Y0279500D02*
D03*
X0448840Y0269767D02*
D03*
X0437500Y0384000D02*
D03*
X0464000Y0332000D02*
D03*
X0472000Y0342800D02*
D03*
Y0332000D02*
D03*
Y0322000D02*
D03*
Y0311252D02*
D03*
X0400000Y0263000D02*
D03*
X0428500Y0295500D02*
D03*
X0423500Y0292000D02*
D03*
X0456500Y0338500D02*
D03*
Y0345000D02*
D03*
X0458000Y0372500D02*
D03*
X0431141Y0396141D02*
D03*
X0374859Y0257859D02*
D03*
X0359493Y0333037D02*
D03*
X0347979Y0281521D02*
D03*
X0453000Y0308500D02*
D03*
X0459000Y0303500D02*
D03*
X0461000Y0305500D02*
D03*
X0463000Y0307500D02*
D03*
X0343000Y0346500D02*
D03*
X0345000Y0348500D02*
D03*
X0347000Y0350500D02*
D03*
X0338500Y0300000D02*
D03*
X0336500Y0302000D02*
D03*
X0334500Y0300000D02*
D03*
X0336500Y0298000D02*
D03*
X0334500Y0296000D02*
D03*
X0332500Y0298000D02*
D03*
X0473500Y0356000D02*
D03*
X0471500Y0358000D02*
D03*
X0469500Y0356000D02*
D03*
X0471500Y0354000D02*
D03*
X0469500Y0352000D02*
D03*
X0467500Y0354000D02*
D03*
X0465000Y0305500D02*
D03*
X0463000Y0303500D02*
D03*
X0461000Y0301500D02*
D03*
X0345000Y0352500D02*
D03*
X0343000Y0350500D02*
D03*
X0341000Y0348500D02*
D03*
X0346000Y0339500D02*
D03*
X0343500D02*
D03*
X0390000Y0310114D02*
D03*
X0403000Y0327000D02*
D03*
X0400000Y0382500D02*
D03*
Y0380000D02*
D03*
X0406000D02*
D03*
Y0382500D02*
D03*
X0409750Y0271386D02*
D03*
X0394000Y0269386D02*
D03*
X0406000D02*
D03*
X0403000Y0284500D02*
D03*
X0409000Y0290500D02*
D03*
X0397000D02*
D03*
X0409000Y0284500D02*
D03*
X0406000Y0287500D02*
D03*
X0397000Y0284500D02*
D03*
X0400000Y0287500D02*
D03*
X0403000Y0290500D02*
D03*
X0379728Y0295500D02*
D03*
X0383000Y0292114D02*
D03*
X0379386Y0282000D02*
D03*
X0385980Y0285324D02*
D03*
X0386000Y0282500D02*
D03*
Y0291500D02*
D03*
X0458000Y0281500D02*
D03*
X0448000Y0358500D02*
D03*
X0450000Y0356500D02*
D03*
X0358000Y0358500D02*
D03*
X0356000Y0356500D02*
D03*
X0358000Y0295500D02*
D03*
X0356000Y0297500D02*
D03*
X0450000D02*
D03*
X0448000Y0295500D02*
D03*
X0441000Y0359600D02*
D03*
X0431000Y0335000D02*
D03*
X0437000Y0341500D02*
D03*
X0348000Y0372500D02*
D03*
X0354500Y0366000D02*
D03*
X0362500Y0353000D02*
D03*
X0363000Y0349500D02*
D03*
X0354000D02*
D03*
X0357000D02*
D03*
X0360000D02*
D03*
X0384890Y0333890D02*
D03*
X0408000Y0402500D02*
D03*
X0398000D02*
D03*
X0369000Y0274500D02*
D03*
X0458000Y0309500D02*
D03*
X0440500Y0309000D02*
D03*
X0439810Y0318198D02*
D03*
X0436000Y0313000D02*
D03*
X0431500Y0320500D02*
D03*
X0465500Y0311000D02*
D03*
X0464000Y0327000D02*
D03*
X0431253Y0257747D02*
D03*
X0425641Y0263359D02*
D03*
X0382753Y0265753D02*
D03*
X0377141Y0260141D02*
D03*
X0380359Y0390641D02*
D03*
X0374747Y0396253D02*
D03*
X0428859Y0393859D02*
D03*
X0555859Y0468359D02*
D03*
X0250141Y0185641D02*
D03*
X0381840Y0273233D02*
D03*
X0378304Y0276768D02*
D03*
X0374768Y0280304D02*
D03*
X0366377Y0254877D02*
D03*
X0364348Y0251848D02*
D03*
X0361929Y0248744D02*
D03*
X0253956Y0182828D02*
D03*
X0255742Y0174793D02*
D03*
X0259359Y0178314D02*
D03*
X0341000Y0334500D02*
D03*
X0343500D02*
D03*
Y0332000D02*
D03*
X0346000D02*
D03*
Y0334500D02*
D03*
X0343500Y0337000D02*
D03*
X0346000D02*
D03*
X0348500D02*
D03*
Y0334500D02*
D03*
X0341000Y0337000D02*
D03*
X0248359Y0470141D02*
D03*
X0471000Y0363000D02*
D03*
Y0366500D02*
D03*
X0335000D02*
D03*
Y0363000D02*
D03*
X0361000Y0363500D02*
D03*
X0363000Y0361500D02*
D03*
X0350000Y0374500D02*
D03*
X0352000Y0372500D02*
D03*
X0451500Y0366000D02*
D03*
X0454000Y0372500D02*
D03*
X0456000Y0374500D02*
D03*
X0443000Y0361500D02*
D03*
X0445000Y0363500D02*
D03*
X0354500Y0288000D02*
D03*
X0352000Y0281500D02*
D03*
X0350000Y0279500D02*
D03*
X0363000Y0292500D02*
D03*
X0361000Y0290500D02*
D03*
X0451500Y0288000D02*
D03*
X0454000Y0281500D02*
D03*
X0456000Y0279500D02*
D03*
X0443000Y0292500D02*
D03*
X0445000Y0290500D02*
D03*
X0335000Y0291000D02*
D03*
Y0287500D02*
D03*
X0471000Y0291000D02*
D03*
Y0287500D02*
D03*
X0255742Y0479208D02*
D03*
X0259359Y0475686D02*
D03*
X0251172Y0473956D02*
D03*
X0554828Y0180044D02*
D03*
X0546641Y0178314D02*
D03*
X0550258Y0174793D02*
D03*
X0557641Y0183859D02*
D03*
X0546641Y0475686D02*
D03*
X0550258Y0479208D02*
D03*
X0552044Y0471172D02*
D03*
X0444000Y0403493D02*
D03*
Y0400710D02*
D03*
Y0397932D02*
D03*
X0424160Y0380767D02*
D03*
X0431728Y0326500D02*
D03*
X0390500Y0266000D02*
D03*
X0418000Y0294000D02*
D03*
X0389000Y0263500D02*
D03*
X0411500D02*
D03*
X0381000Y0256000D02*
D03*
X0424000D02*
D03*
X0396000Y0312500D02*
D03*
X0415000Y0312000D02*
D03*
X0412000Y0319000D02*
D03*
X0410000Y0309000D02*
D03*
X0412500Y0310500D02*
D03*
X0408866Y0314600D02*
D03*
X0404300Y0310814D02*
D03*
X0391500Y0317000D02*
D03*
X0424500Y0388000D02*
D03*
X0427696Y0377232D02*
D03*
X0417614Y0384500D02*
D03*
X0417614Y0388250D02*
D03*
M02*
