G04 Layer_Color=16711935*
%FSAX25Y25*%
%MOIN*%
G70*
G01*
G75*
%ADD53C,0.01000*%
%ADD96C,0.00800*%
D53*
X0356696Y0256748D02*
G03*
X0310667Y0217934I0307792J-0411709D01*
G01*
X0293890Y0234663D02*
G03*
X0331523Y0281429I-0294725J0275700D01*
G01*
X0357473Y0262389D02*
G03*
X0337210Y0282366I-0082425J-0063342D01*
G01*
X0495333Y0217934D02*
G03*
X0449304Y0256748I-0353821J-0372895D01*
G01*
X0468790Y0282366D02*
G03*
X0448527Y0262389I0062162J-0083318D01*
G01*
X0474476Y0281429D02*
G03*
X0512110Y0234663I0332359J0228934D01*
G01*
X0331523Y0372571D02*
G03*
X0293890Y0419337I-0332359J-0228934D01*
G01*
X0310232Y0435375D02*
G03*
X0355461Y0395429I0490888J0510218D01*
G01*
X0337210Y0371634D02*
G03*
X0356060Y0389814I-0062162J0083318D01*
G01*
X0359937Y0242396D02*
G03*
X0315719Y0204209I0304551J-0397356D01*
G01*
X0490281D02*
G03*
X0446063Y0242396I-0348770J-0359170D01*
G01*
X0497485Y0272614D02*
G03*
X0525757Y0239776I0309350J0237749D01*
G01*
Y0414224D02*
G03*
X0497485Y0381386I0281078J-0270587D01*
G01*
X0451769Y0414796D02*
G03*
X0490336Y0449823I-0446890J0530797D01*
G01*
X0315664D02*
G03*
X0354231Y0414796I0485457J0495770D01*
G01*
X0308515Y0381386D02*
G03*
X0280243Y0414224I-0309350J-0237749D01*
G01*
Y0239776D02*
G03*
X0308515Y0272614I-0281078J0270587D01*
G01*
X0450539Y0395429D02*
G03*
X0495768Y0435375I-0445660J0550164D01*
G01*
X0512110Y0419337D02*
G03*
X0474476Y0372571I0294725J-0275700D01*
G01*
X0449940Y0389814D02*
G03*
X0468790Y0371634I0081013J0065139D01*
G01*
X0536190Y0475963D02*
G03*
X0551963Y0460190I-0005237J-0021011D01*
G01*
D02*
G03*
X0549891Y0463854I-0007640J-0001905D01*
G01*
X0539853Y0473891D02*
G03*
X0536190Y0475963I-0005568J-0005568D01*
G01*
X0549891Y0190147D02*
G03*
X0551963Y0193810I-0005568J0005568D01*
G01*
D02*
G03*
X0536190Y0178037I-0021011J0005237D01*
G01*
D02*
G03*
X0539853Y0180109I-0001905J0007640D01*
G01*
X0450539Y0395429D02*
G03*
X0449940Y0389814I0002518J-0003108D01*
G01*
X0468790Y0371634D02*
G03*
X0474476Y0372571I0002392J0003206D01*
G01*
X0512110Y0419337D02*
G03*
X0511397Y0425405I-0002921J0002733D01*
G01*
X0501829Y0434771D02*
G03*
X0511397Y0425405I0029124J0020181D01*
G01*
X0501829Y0434771D02*
G03*
X0495768Y0435375I-0003288J-0002278D01*
G01*
X0269271Y0234006D02*
G03*
X0310009Y0193287I0005777J-0034959D01*
G01*
X0269271Y0234006D02*
G03*
X0280243Y0239776I-0003209J0019422D01*
G01*
X0308515Y0272614D02*
G03*
X0308515Y0381386I-0070765J0054386D01*
G01*
X0280243Y0414224D02*
G03*
X0269271Y0419994I-0014182J-0013652D01*
G01*
X0310012Y0460697D02*
G03*
X0269271Y0419994I-0034964J-0005744D01*
G01*
X0310012Y0460697D02*
G03*
X0315664Y0449823I0019425J0003191D01*
G01*
X0354231Y0414796D02*
G03*
X0358158Y0411706I0048769J0057926D01*
G01*
D02*
G03*
X0389500Y0427568I0011657J0015862D01*
G01*
X0402900Y0441488D02*
G03*
X0389500Y0428088I0000000J-0013400D01*
G01*
X0416500D02*
G03*
X0403100Y0441488I-0013400J0000000D01*
G01*
X0416500Y0427568D02*
G03*
X0447842Y0411706I0019685J0000000D01*
G01*
D02*
G03*
X0451769Y0414796I-0044842J0061017D01*
G01*
X0490336Y0449823D02*
G03*
X0495988Y0460697I-0013772J0014065D01*
G01*
X0536729Y0419994D02*
G03*
X0495988Y0460697I-0005777J0034959D01*
G01*
X0536729Y0419994D02*
G03*
X0525757Y0414224I0003209J-0019422D01*
G01*
X0497485Y0381386D02*
G03*
X0497485Y0272614I0070765J-0054386D01*
G01*
X0525757Y0239776D02*
G03*
X0536729Y0234006I0014182J0013652D01*
G01*
X0495991Y0193287D02*
G03*
X0536729Y0234006I0034962J0005760D01*
G01*
X0495991Y0193287D02*
G03*
X0490281Y0204209I-0019423J-0003200D01*
G01*
X0446063Y0242396D02*
G03*
X0433380Y0250150I-0043063J-0056185D01*
G01*
X0433380D02*
G03*
X0416500Y0239482I-0005069J-0010668D01*
G01*
X0412563Y0220000D02*
G03*
X0416500Y0223937I0000000J0003937D01*
G01*
X0389500D02*
G03*
X0393437Y0220000I0003937J0000000D01*
G01*
X0389500Y0239719D02*
G03*
X0372278Y0250217I-0011811J0000000D01*
G01*
D02*
G03*
X0359937Y0242396I0037650J-0073046D01*
G01*
X0315719Y0204209D02*
G03*
X0310009Y0193287I0013713J-0014122D01*
G01*
X0331523Y0372571D02*
G03*
X0337210Y0371634I0003294J0002269D01*
G01*
X0356060Y0389814D02*
G03*
X0355461Y0395429I-0003117J0002506D01*
G01*
X0310232Y0435375D02*
G03*
X0304171Y0434771I-0002773J-0002882D01*
G01*
X0294603Y0425405D02*
G03*
X0304171Y0434771I-0019556J0029548D01*
G01*
X0294603Y0425405D02*
G03*
X0293890Y0419337I0002208J-0003336D01*
G01*
X0511397Y0228595D02*
G03*
X0501420Y0218626I0019556J-0029548D01*
G01*
X0511397Y0228595D02*
G03*
X0512110Y0234663I-0002208J0003336D01*
G01*
X0474476Y0281429D02*
G03*
X0468790Y0282366I-0003294J-0002269D01*
G01*
X0448527Y0262389D02*
G03*
X0449304Y0256748I0003172J-0002437D01*
G01*
X0495333Y0217934D02*
G03*
X0501420Y0218626I0002753J0002902D01*
G01*
X0356696Y0256748D02*
G03*
X0357473Y0262389I-0002395J0003204D01*
G01*
X0337210Y0282366D02*
G03*
X0331523Y0281429I-0002392J-0003206D01*
G01*
X0293890Y0234663D02*
G03*
X0294603Y0228595I0002921J-0002733D01*
G01*
X0304580Y0218626D02*
G03*
X0294603Y0228595I-0029533J-0019579D01*
G01*
X0304580Y0218626D02*
G03*
X0310667Y0217934I0003334J0002210D01*
G01*
X0269810Y0178037D02*
G03*
X0254037Y0193810I0005237J0021011D01*
G01*
D02*
G03*
X0256109Y0190147I0007640J0001905D01*
G01*
X0266146Y0180109D02*
G03*
X0269810Y0178037I0005568J0005568D01*
G01*
X0256109Y0463854D02*
G03*
X0254037Y0460190I0005568J-0005568D01*
G01*
D02*
G03*
X0269810Y0475963I0021011J-0005237D01*
G01*
D02*
G03*
X0266146Y0473891I0001905J-0007640D01*
G01*
X0539853D02*
X0549891Y0463854D01*
X0539853Y0180109D02*
X0549891Y0190147D01*
X0389500Y0427568D02*
Y0428088D01*
X0402900Y0441488D02*
X0403100D01*
X0416500Y0427568D02*
Y0428088D01*
Y0223937D02*
Y0239482D01*
X0393437Y0220000D02*
X0412563D01*
X0389500Y0223937D02*
Y0239719D01*
X0256109Y0190147D02*
X0266146Y0180109D01*
X0256109Y0463854D02*
X0266146Y0473891D01*
X0469793Y0395362D02*
X0468379D01*
X0466966Y0393948D01*
Y0392534D01*
X0469793Y0389707D01*
X0471207D01*
X0472621Y0391121D01*
Y0392534D01*
X0470500Y0397482D02*
X0474034Y0393948D01*
X0475448D01*
X0476862Y0395362D01*
Y0396776D01*
X0473327Y0400310D01*
X0474741Y0401724D02*
X0477569Y0404551D01*
X0476155Y0403138D01*
X0480396Y0398896D01*
X0485344Y0412327D02*
X0483931Y0410913D01*
Y0409500D01*
X0486758Y0406672D01*
X0488172D01*
X0489586Y0408086D01*
Y0409500D01*
X0486758Y0412327D01*
X0485344D01*
X0487465Y0414448D02*
X0491000Y0410913D01*
X0492413D01*
X0493827Y0412327D01*
Y0413741D01*
X0490293Y0417275D01*
X0491706Y0418689D02*
X0494534Y0421516D01*
X0493120Y0420103D01*
X0497361Y0415861D01*
X0313362Y0417707D02*
Y0419121D01*
X0311948Y0420534D01*
X0310534D01*
X0307707Y0417707D01*
Y0416293D01*
X0309121Y0414879D01*
X0310534D01*
X0315482Y0417000D02*
X0311948Y0413466D01*
Y0412052D01*
X0313362Y0410638D01*
X0314776D01*
X0318310Y0414173D01*
X0319724Y0412759D02*
X0322551Y0409931D01*
X0321138Y0411345D01*
X0316896Y0407104D01*
X0330327Y0402156D02*
X0328913Y0403569D01*
X0327500D01*
X0324672Y0400742D01*
Y0399328D01*
X0326086Y0397914D01*
X0327500D01*
X0330327Y0400742D01*
Y0402156D01*
X0332448Y0400035D02*
X0328913Y0396500D01*
Y0395087D01*
X0330327Y0393673D01*
X0331741D01*
X0335275Y0397207D01*
X0336689Y0395794D02*
X0339516Y0392966D01*
X0338103Y0394380D01*
X0333861Y0390139D01*
X0471362Y0260707D02*
Y0262121D01*
X0469948Y0263534D01*
X0468534D01*
X0465707Y0260707D01*
Y0259293D01*
X0467121Y0257879D01*
X0468534D01*
X0473483Y0260000D02*
X0469948Y0256466D01*
Y0255052D01*
X0471362Y0253638D01*
X0472776D01*
X0476310Y0257172D01*
X0477724Y0255759D02*
X0480551Y0252931D01*
X0479138Y0254345D01*
X0474896Y0250104D01*
X0488327Y0245156D02*
X0486913Y0246569D01*
X0485499D01*
X0482672Y0243742D01*
Y0242328D01*
X0484086Y0240914D01*
X0485499D01*
X0488327Y0243742D01*
Y0245156D01*
X0490448Y0243035D02*
X0486913Y0239500D01*
Y0238087D01*
X0488327Y0236673D01*
X0489741D01*
X0493275Y0240207D01*
X0494689Y0238794D02*
X0497516Y0235966D01*
X0496103Y0237380D01*
X0491861Y0233139D01*
X0311293Y0239362D02*
X0309879D01*
X0308466Y0237948D01*
Y0236534D01*
X0311293Y0233707D01*
X0312707D01*
X0314121Y0235121D01*
Y0236534D01*
X0312000Y0241482D02*
X0315534Y0237948D01*
X0316948D01*
X0318362Y0239362D01*
Y0240776D01*
X0314827Y0244310D01*
X0316241Y0245724D02*
X0319069Y0248551D01*
X0317655Y0247138D01*
X0321896Y0242896D01*
X0326844Y0256327D02*
X0325431Y0254913D01*
Y0253500D01*
X0328258Y0250672D01*
X0329672D01*
X0331086Y0252086D01*
Y0253500D01*
X0328258Y0256327D01*
X0326844D01*
X0328965Y0258448D02*
X0332500Y0254913D01*
X0333913D01*
X0335327Y0256327D01*
Y0257741D01*
X0331793Y0261275D01*
X0333206Y0262689D02*
X0336034Y0265516D01*
X0334620Y0264103D01*
X0338861Y0259861D01*
D96*
X0266999Y0456499D02*
X0266499Y0456999D01*
X0265500D01*
X0265000Y0456499D01*
Y0454500D01*
X0265500Y0454000D01*
X0266499D01*
X0266999Y0454500D01*
X0267999Y0456999D02*
Y0454500D01*
X0268499Y0454000D01*
X0269498D01*
X0269998Y0454500D01*
Y0456999D01*
X0270998D02*
X0272997D01*
X0271998D01*
Y0454000D01*
X0278496Y0456999D02*
X0277496D01*
X0276996Y0456499D01*
Y0454500D01*
X0277496Y0454000D01*
X0278496D01*
X0278995Y0454500D01*
Y0456499D01*
X0278496Y0456999D01*
X0279995D02*
Y0454500D01*
X0280495Y0454000D01*
X0281495D01*
X0281995Y0454500D01*
Y0456999D01*
X0282994D02*
X0284994D01*
X0283994D01*
Y0454000D01*
X0523499Y0455999D02*
X0522999Y0456499D01*
X0522000D01*
X0521500Y0455999D01*
Y0454000D01*
X0522000Y0453500D01*
X0522999D01*
X0523499Y0454000D01*
X0524499Y0456499D02*
Y0454000D01*
X0524999Y0453500D01*
X0525998D01*
X0526498Y0454000D01*
Y0456499D01*
X0527498D02*
X0529497D01*
X0528498D01*
Y0453500D01*
X0534996Y0456499D02*
X0533996D01*
X0533496Y0455999D01*
Y0454000D01*
X0533996Y0453500D01*
X0534996D01*
X0535496Y0454000D01*
Y0455999D01*
X0534996Y0456499D01*
X0536495D02*
Y0454000D01*
X0536995Y0453500D01*
X0537995D01*
X0538494Y0454000D01*
Y0456499D01*
X0539494D02*
X0541494D01*
X0540494D01*
Y0453500D01*
X0523499Y0200499D02*
X0522999Y0200999D01*
X0522000D01*
X0521500Y0200499D01*
Y0198500D01*
X0522000Y0198000D01*
X0522999D01*
X0523499Y0198500D01*
X0524499Y0200999D02*
Y0198500D01*
X0524999Y0198000D01*
X0525998D01*
X0526498Y0198500D01*
Y0200999D01*
X0527498D02*
X0529497D01*
X0528498D01*
Y0198000D01*
X0534996Y0200999D02*
X0533996D01*
X0533496Y0200499D01*
Y0198500D01*
X0533996Y0198000D01*
X0534996D01*
X0535496Y0198500D01*
Y0200499D01*
X0534996Y0200999D01*
X0536495D02*
Y0198500D01*
X0536995Y0198000D01*
X0537995D01*
X0538494Y0198500D01*
Y0200999D01*
X0539494D02*
X0541494D01*
X0540494D01*
Y0198000D01*
X0266499Y0200499D02*
X0266000Y0200999D01*
X0265000D01*
X0264500Y0200499D01*
Y0198500D01*
X0265000Y0198000D01*
X0266000D01*
X0266499Y0198500D01*
X0267499Y0200999D02*
Y0198500D01*
X0267999Y0198000D01*
X0268999D01*
X0269498Y0198500D01*
Y0200999D01*
X0270498D02*
X0272497D01*
X0271498D01*
Y0198000D01*
X0277996Y0200999D02*
X0276996D01*
X0276496Y0200499D01*
Y0198500D01*
X0276996Y0198000D01*
X0277996D01*
X0278496Y0198500D01*
Y0200499D01*
X0277996Y0200999D01*
X0279495D02*
Y0198500D01*
X0279995Y0198000D01*
X0280995D01*
X0281494Y0198500D01*
Y0200999D01*
X0282494D02*
X0284493D01*
X0283494D01*
Y0198000D01*
M02*
