G04 Layer_Color=65535*
%FSAX25Y25*%
%MOIN*%
G70*
G01*
G75*
%ADD53C,0.01000*%
%ADD93C,0.00984*%
%ADD94C,0.01200*%
%ADD95C,0.00394*%
%ADD96C,0.00800*%
%ADD97C,0.00787*%
%ADD98C,0.00500*%
%ADD99C,0.00300*%
%ADD100C,0.00400*%
G36*
X0401860Y0364384D02*
X0403415D01*
Y0364281D01*
Y0363429D01*
X0401860D01*
Y0358500D01*
X0400894D01*
Y0363429D01*
X0399358D01*
Y0364384D01*
X0400894D01*
Y0366952D01*
X0401860D01*
Y0364384D01*
D02*
G37*
G36*
X0388863Y0364450D02*
X0388957D01*
X0389079Y0364431D01*
X0389219Y0364412D01*
X0389369Y0364394D01*
X0389538Y0364356D01*
X0389707Y0364319D01*
X0389894Y0364263D01*
X0390072Y0364197D01*
X0390260Y0364122D01*
X0390447Y0364028D01*
X0390616Y0363916D01*
X0390784Y0363794D01*
X0390944Y0363653D01*
X0390953Y0363644D01*
X0390981Y0363616D01*
X0391019Y0363569D01*
X0391065Y0363504D01*
X0391131Y0363429D01*
X0391196Y0363326D01*
X0391271Y0363213D01*
X0391347Y0363082D01*
X0391412Y0362932D01*
X0391487Y0362763D01*
X0391553Y0362585D01*
X0391618Y0362388D01*
X0391665Y0362173D01*
X0391703Y0361948D01*
X0391731Y0361704D01*
X0391740Y0361452D01*
Y0360187D01*
Y0360177D01*
Y0360149D01*
Y0360112D01*
X0391731Y0360046D01*
X0391721Y0359981D01*
X0391703Y0359887D01*
X0391674Y0359793D01*
X0391646Y0359681D01*
Y0359671D01*
X0391628Y0359634D01*
X0391599Y0359568D01*
X0391562Y0359493D01*
X0391506Y0359409D01*
X0391431Y0359306D01*
X0391337Y0359203D01*
X0391225Y0359100D01*
X0391206Y0359090D01*
X0391168Y0359053D01*
X0391093Y0359006D01*
X0390990Y0358940D01*
X0390859Y0358865D01*
X0390709Y0358790D01*
X0390522Y0358716D01*
X0390316Y0358641D01*
X0390306D01*
X0390288Y0358631D01*
X0390260Y0358622D01*
X0390213Y0358612D01*
X0390147Y0358594D01*
X0390072Y0358584D01*
X0389988Y0358566D01*
X0389894Y0358547D01*
X0389791Y0358528D01*
X0389669Y0358509D01*
X0389538Y0358500D01*
X0389398Y0358481D01*
X0389238Y0358472D01*
X0389079Y0358463D01*
X0388910Y0358453D01*
X0388554D01*
X0388470Y0358463D01*
X0388376D01*
X0388264Y0358472D01*
X0388151Y0358481D01*
X0387898Y0358500D01*
X0387627Y0358528D01*
X0387364Y0358575D01*
X0387242Y0358612D01*
X0387130Y0358641D01*
X0387121D01*
X0387102Y0358650D01*
X0387074Y0358659D01*
X0387036Y0358678D01*
X0386924Y0358716D01*
X0386793Y0358772D01*
X0386652Y0358837D01*
X0386502Y0358912D01*
X0386352Y0359006D01*
X0386221Y0359100D01*
X0386212Y0359109D01*
X0386174Y0359146D01*
X0386118Y0359203D01*
X0386052Y0359278D01*
X0385977Y0359362D01*
X0385912Y0359465D01*
X0385856Y0359568D01*
X0385809Y0359681D01*
Y0359690D01*
X0385790Y0359728D01*
X0385781Y0359784D01*
X0385762Y0359859D01*
X0385743Y0359934D01*
X0385734Y0360018D01*
X0385715Y0360187D01*
Y0360196D01*
Y0360215D01*
Y0360252D01*
Y0360299D01*
X0385724Y0360355D01*
Y0360421D01*
X0385743Y0360571D01*
X0385771Y0360739D01*
X0385809Y0360917D01*
X0385856Y0361086D01*
X0385931Y0361245D01*
X0385940Y0361264D01*
X0385968Y0361311D01*
X0386015Y0361377D01*
X0386081Y0361470D01*
X0386165Y0361564D01*
X0386259Y0361658D01*
X0386380Y0361751D01*
X0386502Y0361836D01*
X0386521Y0361845D01*
X0386568Y0361873D01*
X0386643Y0361901D01*
X0386746Y0361948D01*
X0386868Y0361986D01*
X0387008Y0362033D01*
X0387177Y0362061D01*
X0387346Y0362089D01*
X0387364D01*
X0387392Y0362098D01*
X0387430D01*
X0387524Y0362107D01*
X0387655Y0362117D01*
X0387805Y0362126D01*
X0387983Y0362136D01*
X0388161Y0362145D01*
X0390719D01*
Y0362154D01*
X0390709Y0362173D01*
X0390700Y0362201D01*
X0390691Y0362248D01*
X0390644Y0362351D01*
X0390587Y0362492D01*
X0390503Y0362651D01*
X0390391Y0362810D01*
X0390250Y0362969D01*
X0390082Y0363119D01*
X0390072D01*
X0390063Y0363138D01*
X0390035Y0363157D01*
X0389988Y0363176D01*
X0389941Y0363213D01*
X0389875Y0363241D01*
X0389810Y0363279D01*
X0389725Y0363316D01*
X0389632Y0363344D01*
X0389529Y0363382D01*
X0389416Y0363419D01*
X0389304Y0363447D01*
X0389032Y0363485D01*
X0388723Y0363504D01*
X0388638D01*
X0388582Y0363494D01*
X0388507D01*
X0388414Y0363485D01*
X0388320Y0363466D01*
X0388217Y0363447D01*
X0387983Y0363401D01*
X0387730Y0363316D01*
X0387477Y0363213D01*
X0387355Y0363138D01*
X0387233Y0363063D01*
X0386690Y0363775D01*
X0386699Y0363785D01*
X0386727Y0363803D01*
X0386774Y0363841D01*
X0386840Y0363878D01*
X0386914Y0363935D01*
X0387017Y0363991D01*
X0387130Y0364056D01*
X0387252Y0364122D01*
X0387392Y0364178D01*
X0387552Y0364244D01*
X0387720Y0364300D01*
X0387898Y0364356D01*
X0388086Y0364394D01*
X0388292Y0364431D01*
X0388498Y0364450D01*
X0388723Y0364459D01*
X0388789D01*
X0388863Y0364450D01*
D02*
G37*
G36*
X0416467Y0364431D02*
X0416552D01*
X0416655Y0364412D01*
X0416777Y0364394D01*
X0416917Y0364375D01*
X0417058Y0364337D01*
X0417217Y0364300D01*
X0417376Y0364244D01*
X0417536Y0364178D01*
X0417704Y0364103D01*
X0417864Y0364010D01*
X0418023Y0363897D01*
X0418163Y0363775D01*
X0418304Y0363635D01*
X0418313Y0363625D01*
X0418332Y0363597D01*
X0418369Y0363550D01*
X0418416Y0363485D01*
X0418473Y0363410D01*
X0418529Y0363307D01*
X0418594Y0363194D01*
X0418660Y0363063D01*
X0418726Y0362913D01*
X0418791Y0362754D01*
X0418847Y0362567D01*
X0418904Y0362370D01*
X0418951Y0362164D01*
X0418988Y0361939D01*
X0419007Y0361695D01*
X0419016Y0361442D01*
Y0358500D01*
X0418051D01*
Y0361442D01*
Y0361452D01*
Y0361489D01*
Y0361536D01*
X0418042Y0361611D01*
Y0361695D01*
X0418032Y0361789D01*
X0418013Y0361892D01*
X0417995Y0362004D01*
X0417948Y0362257D01*
X0417864Y0362510D01*
X0417761Y0362745D01*
X0417686Y0362857D01*
X0417611Y0362960D01*
X0417601Y0362969D01*
X0417592Y0362979D01*
X0417564Y0363007D01*
X0417526Y0363045D01*
X0417489Y0363082D01*
X0417432Y0363129D01*
X0417367Y0363176D01*
X0417292Y0363223D01*
X0417208Y0363269D01*
X0417114Y0363316D01*
X0417011Y0363363D01*
X0416898Y0363401D01*
X0416777Y0363438D01*
X0416636Y0363466D01*
X0416496Y0363475D01*
X0416346Y0363485D01*
X0416271D01*
X0416205Y0363475D01*
X0416140Y0363466D01*
X0416055Y0363457D01*
X0415877Y0363419D01*
X0415671Y0363354D01*
X0415455Y0363260D01*
X0415352Y0363204D01*
X0415249Y0363138D01*
X0415156Y0363054D01*
X0415071Y0362960D01*
Y0362951D01*
X0415053Y0362932D01*
X0415034Y0362904D01*
X0415006Y0362866D01*
X0414968Y0362810D01*
X0414931Y0362745D01*
X0414893Y0362670D01*
X0414856Y0362576D01*
X0414818Y0362473D01*
X0414781Y0362360D01*
X0414743Y0362239D01*
X0414706Y0362098D01*
X0414678Y0361958D01*
X0414659Y0361798D01*
X0414650Y0361620D01*
X0414640Y0361442D01*
Y0358500D01*
X0413675D01*
Y0361442D01*
Y0361461D01*
Y0361508D01*
X0413685Y0361573D01*
Y0361676D01*
X0413694Y0361789D01*
X0413713Y0361929D01*
X0413731Y0362079D01*
X0413760Y0362248D01*
X0413797Y0362417D01*
X0413844Y0362595D01*
X0413900Y0362782D01*
X0413966Y0362960D01*
X0414050Y0363147D01*
X0414144Y0363326D01*
X0414247Y0363485D01*
X0414368Y0363644D01*
X0414378Y0363653D01*
X0414406Y0363682D01*
X0414443Y0363719D01*
X0414500Y0363766D01*
X0414575Y0363831D01*
X0414659Y0363897D01*
X0414762Y0363972D01*
X0414884Y0364047D01*
X0415015Y0364113D01*
X0415165Y0364188D01*
X0415324Y0364253D01*
X0415502Y0364319D01*
X0415690Y0364366D01*
X0415896Y0364403D01*
X0416111Y0364431D01*
X0416346Y0364441D01*
X0416402D01*
X0416467Y0364431D01*
D02*
G37*
G36*
X0405270Y0363710D02*
X0405280Y0363728D01*
X0405298Y0363766D01*
X0405345Y0363831D01*
X0405411Y0363907D01*
X0405495Y0363991D01*
X0405617Y0364075D01*
X0405758Y0364169D01*
X0405936Y0364244D01*
X0405945D01*
X0405964Y0364253D01*
X0405992Y0364263D01*
X0406029Y0364272D01*
X0406076Y0364291D01*
X0406132Y0364309D01*
X0406273Y0364347D01*
X0406441Y0364375D01*
X0406648Y0364412D01*
X0406863Y0364431D01*
X0407097Y0364441D01*
X0407210D01*
X0407266Y0364431D01*
X0407332D01*
X0407482Y0364412D01*
X0407669Y0364394D01*
X0407856Y0364356D01*
X0408063Y0364300D01*
X0408259Y0364234D01*
X0408269D01*
X0408287Y0364225D01*
X0408306Y0364216D01*
X0408344Y0364197D01*
X0408447Y0364150D01*
X0408568Y0364085D01*
X0408709Y0364000D01*
X0408850Y0363897D01*
X0408999Y0363775D01*
X0409140Y0363635D01*
X0409159Y0363616D01*
X0409196Y0363569D01*
X0409262Y0363485D01*
X0409346Y0363372D01*
X0409440Y0363232D01*
X0409524Y0363073D01*
X0409618Y0362895D01*
X0409693Y0362688D01*
Y0362679D01*
X0409702Y0362660D01*
X0409712Y0362632D01*
X0409721Y0362595D01*
X0409740Y0362539D01*
X0409759Y0362473D01*
X0409796Y0362323D01*
X0409824Y0362145D01*
X0409862Y0361929D01*
X0409880Y0361695D01*
X0409890Y0361442D01*
Y0358500D01*
X0408925D01*
Y0361442D01*
Y0361452D01*
Y0361489D01*
Y0361536D01*
X0408915Y0361611D01*
Y0361695D01*
X0408896Y0361789D01*
X0408887Y0361892D01*
X0408868Y0362004D01*
X0408812Y0362257D01*
X0408728Y0362510D01*
X0408672Y0362632D01*
X0408615Y0362745D01*
X0408540Y0362857D01*
X0408456Y0362960D01*
X0408447Y0362969D01*
X0408437Y0362979D01*
X0408409Y0363007D01*
X0408372Y0363045D01*
X0408325Y0363082D01*
X0408259Y0363129D01*
X0408194Y0363176D01*
X0408109Y0363223D01*
X0408016Y0363269D01*
X0407922Y0363316D01*
X0407809Y0363363D01*
X0407688Y0363401D01*
X0407557Y0363438D01*
X0407416Y0363466D01*
X0407257Y0363475D01*
X0407097Y0363485D01*
X0407013D01*
X0406948Y0363475D01*
X0406873Y0363466D01*
X0406788Y0363457D01*
X0406695Y0363438D01*
X0406591Y0363419D01*
X0406367Y0363354D01*
X0406142Y0363260D01*
X0406029Y0363204D01*
X0405926Y0363138D01*
X0405823Y0363054D01*
X0405729Y0362960D01*
X0405720Y0362951D01*
X0405711Y0362932D01*
X0405692Y0362904D01*
X0405654Y0362866D01*
X0405626Y0362810D01*
X0405589Y0362745D01*
X0405542Y0362670D01*
X0405505Y0362576D01*
X0405458Y0362473D01*
X0405420Y0362360D01*
X0405373Y0362239D01*
X0405345Y0362098D01*
X0405317Y0361958D01*
X0405289Y0361798D01*
X0405280Y0361620D01*
X0405270Y0361442D01*
Y0358500D01*
X0404305D01*
Y0366952D01*
X0405270D01*
Y0363710D01*
D02*
G37*
G36*
X0412260Y0358612D02*
X0412204Y0358556D01*
X0411295Y0358500D01*
Y0364337D01*
X0412260D01*
Y0358612D01*
D02*
G37*
G36*
X0385181Y0361452D02*
Y0361433D01*
Y0361386D01*
Y0361320D01*
X0385172Y0361217D01*
X0385162Y0361095D01*
X0385143Y0360964D01*
X0385125Y0360805D01*
X0385097Y0360646D01*
X0385069Y0360468D01*
X0385022Y0360290D01*
X0384965Y0360102D01*
X0384909Y0359924D01*
X0384825Y0359737D01*
X0384741Y0359568D01*
X0384637Y0359400D01*
X0384525Y0359240D01*
X0384516Y0359231D01*
X0384497Y0359203D01*
X0384459Y0359165D01*
X0384403Y0359118D01*
X0384338Y0359062D01*
X0384253Y0358987D01*
X0384160Y0358922D01*
X0384047Y0358847D01*
X0383925Y0358772D01*
X0383794Y0358706D01*
X0383644Y0358641D01*
X0383476Y0358575D01*
X0383298Y0358528D01*
X0383110Y0358491D01*
X0382913Y0358463D01*
X0382698Y0358453D01*
X0382651D01*
X0382586Y0358463D01*
X0382501D01*
X0382407Y0358481D01*
X0382295Y0358491D01*
X0382164Y0358519D01*
X0382033Y0358556D01*
X0381883Y0358594D01*
X0381733Y0358650D01*
X0381583Y0358706D01*
X0381433Y0358781D01*
X0381283Y0358875D01*
X0381142Y0358978D01*
X0381002Y0359100D01*
X0380871Y0359240D01*
X0380861Y0359250D01*
X0380843Y0359278D01*
X0380815Y0359325D01*
X0380768Y0359390D01*
X0380721Y0359465D01*
X0380665Y0359568D01*
X0380608Y0359681D01*
X0380543Y0359812D01*
X0380487Y0359962D01*
X0380421Y0360130D01*
X0380365Y0360308D01*
X0380318Y0360505D01*
X0380271Y0360721D01*
X0380243Y0360955D01*
X0380224Y0361189D01*
X0380215Y0361452D01*
Y0364337D01*
X0381180D01*
Y0361452D01*
Y0361442D01*
Y0361395D01*
Y0361339D01*
X0381189Y0361255D01*
Y0361161D01*
X0381199Y0361049D01*
X0381208Y0360917D01*
X0381227Y0360786D01*
Y0360768D01*
X0381236Y0360730D01*
X0381255Y0360655D01*
X0381274Y0360571D01*
X0381302Y0360468D01*
X0381339Y0360355D01*
X0381386Y0360233D01*
X0381442Y0360112D01*
X0381452Y0360102D01*
X0381470Y0360065D01*
X0381508Y0359999D01*
X0381564Y0359934D01*
X0381630Y0359849D01*
X0381705Y0359765D01*
X0381798Y0359681D01*
X0381902Y0359596D01*
X0381920Y0359587D01*
X0381958Y0359568D01*
X0382023Y0359531D01*
X0382117Y0359503D01*
X0382229Y0359465D01*
X0382361Y0359428D01*
X0382520Y0359409D01*
X0382698Y0359400D01*
X0382782D01*
X0382867Y0359409D01*
X0382979Y0359428D01*
X0383110Y0359446D01*
X0383241Y0359484D01*
X0383373Y0359531D01*
X0383485Y0359596D01*
X0383494Y0359606D01*
X0383532Y0359634D01*
X0383588Y0359681D01*
X0383654Y0359737D01*
X0383729Y0359812D01*
X0383804Y0359906D01*
X0383879Y0359999D01*
X0383944Y0360112D01*
X0383953Y0360130D01*
X0383972Y0360168D01*
X0384000Y0360233D01*
X0384038Y0360318D01*
X0384075Y0360421D01*
X0384103Y0360533D01*
X0384141Y0360665D01*
X0384160Y0360796D01*
Y0360814D01*
X0384169Y0360861D01*
X0384178Y0360927D01*
X0384188Y0361011D01*
X0384197Y0361114D01*
X0384207Y0361227D01*
X0384216Y0361452D01*
Y0364337D01*
X0385181D01*
Y0361452D01*
D02*
G37*
G36*
X0398477Y0361442D02*
Y0361423D01*
Y0361377D01*
X0398468Y0361311D01*
Y0361208D01*
X0398449Y0361086D01*
X0398440Y0360955D01*
X0398411Y0360805D01*
X0398374Y0360636D01*
X0398337Y0360458D01*
X0398280Y0360280D01*
X0398215Y0360102D01*
X0398140Y0359915D01*
X0398046Y0359737D01*
X0397943Y0359559D01*
X0397821Y0359400D01*
X0397681Y0359240D01*
X0397671Y0359231D01*
X0397643Y0359203D01*
X0397596Y0359165D01*
X0397531Y0359118D01*
X0397456Y0359062D01*
X0397353Y0358987D01*
X0397240Y0358922D01*
X0397109Y0358847D01*
X0396959Y0358772D01*
X0396790Y0358706D01*
X0396612Y0358641D01*
X0396416Y0358575D01*
X0396200Y0358528D01*
X0395975Y0358491D01*
X0395732Y0358463D01*
X0395479Y0358453D01*
X0395413D01*
X0395338Y0358463D01*
X0395244D01*
X0395123Y0358481D01*
X0394982Y0358491D01*
X0394832Y0358519D01*
X0394663Y0358556D01*
X0394495Y0358594D01*
X0394307Y0358650D01*
X0394129Y0358706D01*
X0393942Y0358781D01*
X0393755Y0358875D01*
X0393586Y0358978D01*
X0393417Y0359100D01*
X0393258Y0359240D01*
X0393249Y0359250D01*
X0393220Y0359278D01*
X0393183Y0359325D01*
X0393136Y0359390D01*
X0393071Y0359465D01*
X0393005Y0359568D01*
X0392930Y0359681D01*
X0392864Y0359812D01*
X0392789Y0359962D01*
X0392715Y0360121D01*
X0392649Y0360308D01*
X0392583Y0360505D01*
X0392536Y0360711D01*
X0392499Y0360946D01*
X0392471Y0361189D01*
X0392461Y0361442D01*
Y0361461D01*
Y0361508D01*
X0392471Y0361583D01*
Y0361676D01*
X0392490Y0361798D01*
X0392508Y0361929D01*
X0392527Y0362079D01*
X0392565Y0362248D01*
X0392602Y0362426D01*
X0392658Y0362604D01*
X0392724Y0362782D01*
X0392799Y0362969D01*
X0392893Y0363147D01*
X0392996Y0363326D01*
X0393117Y0363494D01*
X0393258Y0363644D01*
X0393267Y0363653D01*
X0393295Y0363682D01*
X0393342Y0363719D01*
X0393408Y0363766D01*
X0393483Y0363831D01*
X0393586Y0363897D01*
X0393698Y0363972D01*
X0393839Y0364047D01*
X0393989Y0364113D01*
X0394148Y0364188D01*
X0394336Y0364253D01*
X0394532Y0364319D01*
X0394748Y0364366D01*
X0394973Y0364403D01*
X0395216Y0364431D01*
X0395479Y0364441D01*
X0395600D01*
X0395666Y0364431D01*
X0395732D01*
X0395910Y0364412D01*
X0396106Y0364384D01*
X0396322Y0364347D01*
X0396547Y0364300D01*
X0396762Y0364225D01*
X0396772D01*
X0396790Y0364216D01*
X0396818Y0364206D01*
X0396856Y0364188D01*
X0396950Y0364141D01*
X0397072Y0364075D01*
X0397203Y0363991D01*
X0397324Y0363897D01*
X0397437Y0363785D01*
X0397521Y0363663D01*
Y0366942D01*
X0398477D01*
Y0361442D01*
D02*
G37*
G36*
X0412260Y0365743D02*
X0411295D01*
Y0366952D01*
X0412260D01*
Y0365743D01*
D02*
G37*
G36*
X0428836Y0356176D02*
X0427843D01*
X0428986Y0358856D01*
X0426606Y0364337D01*
X0427599D01*
X0429492Y0359896D01*
X0431478Y0364253D01*
X0431525Y0364291D01*
X0432387Y0364337D01*
X0428836Y0356176D01*
D02*
G37*
G36*
X0422914Y0364450D02*
X0423008D01*
X0423130Y0364431D01*
X0423270Y0364412D01*
X0423420Y0364394D01*
X0423589Y0364356D01*
X0423757Y0364319D01*
X0423945Y0364263D01*
X0424123Y0364197D01*
X0424310Y0364122D01*
X0424498Y0364028D01*
X0424666Y0363916D01*
X0424835Y0363794D01*
X0424994Y0363653D01*
X0425003Y0363644D01*
X0425032Y0363616D01*
X0425069Y0363569D01*
X0425116Y0363504D01*
X0425181Y0363429D01*
X0425247Y0363326D01*
X0425322Y0363213D01*
X0425397Y0363082D01*
X0425463Y0362932D01*
X0425538Y0362763D01*
X0425603Y0362585D01*
X0425669Y0362388D01*
X0425716Y0362173D01*
X0425753Y0361948D01*
X0425781Y0361704D01*
X0425791Y0361452D01*
Y0359165D01*
Y0359146D01*
Y0359100D01*
X0425781Y0359034D01*
Y0358931D01*
X0425763Y0358819D01*
X0425744Y0358678D01*
X0425725Y0358528D01*
X0425688Y0358369D01*
X0425650Y0358200D01*
X0425594Y0358013D01*
X0425528Y0357835D01*
X0425453Y0357647D01*
X0425360Y0357469D01*
X0425247Y0357291D01*
X0425125Y0357132D01*
X0424985Y0356973D01*
X0424975Y0356963D01*
X0424947Y0356935D01*
X0424900Y0356898D01*
X0424835Y0356851D01*
X0424751Y0356785D01*
X0424657Y0356720D01*
X0424535Y0356645D01*
X0424394Y0356579D01*
X0424244Y0356504D01*
X0424066Y0356429D01*
X0423879Y0356364D01*
X0423673Y0356298D01*
X0423439Y0356251D01*
X0423195Y0356214D01*
X0422942Y0356186D01*
X0422661Y0356176D01*
Y0357132D01*
X0422764D01*
X0422839Y0357141D01*
X0422933Y0357151D01*
X0423045Y0357160D01*
X0423158Y0357179D01*
X0423279Y0357198D01*
X0423551Y0357263D01*
X0423823Y0357357D01*
X0423954Y0357413D01*
X0424076Y0357488D01*
X0424188Y0357563D01*
X0424291Y0357657D01*
X0424301Y0357666D01*
X0424310Y0357685D01*
X0424338Y0357713D01*
X0424376Y0357750D01*
X0424413Y0357807D01*
X0424460Y0357872D01*
X0424507Y0357947D01*
X0424554Y0358041D01*
X0424601Y0358144D01*
X0424647Y0358256D01*
X0424694Y0358378D01*
X0424732Y0358509D01*
X0424769Y0358659D01*
X0424797Y0358819D01*
X0424807Y0358987D01*
X0424816Y0359165D01*
Y0359222D01*
X0424807Y0359212D01*
X0424788Y0359193D01*
X0424751Y0359146D01*
X0424694Y0359100D01*
X0424629Y0359044D01*
X0424544Y0358978D01*
X0424451Y0358912D01*
X0424329Y0358837D01*
X0424198Y0358762D01*
X0424048Y0358697D01*
X0423879Y0358631D01*
X0423701Y0358575D01*
X0423495Y0358528D01*
X0423270Y0358491D01*
X0423036Y0358463D01*
X0422773Y0358453D01*
X0422708D01*
X0422633Y0358463D01*
X0422539D01*
X0422417Y0358481D01*
X0422277Y0358491D01*
X0422127Y0358519D01*
X0421958Y0358556D01*
X0421790Y0358594D01*
X0421602Y0358650D01*
X0421424Y0358706D01*
X0421237Y0358781D01*
X0421049Y0358875D01*
X0420881Y0358978D01*
X0420712Y0359100D01*
X0420553Y0359240D01*
X0420543Y0359250D01*
X0420515Y0359278D01*
X0420478Y0359325D01*
X0420431Y0359390D01*
X0420375Y0359465D01*
X0420300Y0359568D01*
X0420234Y0359681D01*
X0420159Y0359812D01*
X0420084Y0359962D01*
X0420019Y0360130D01*
X0419953Y0360308D01*
X0419887Y0360505D01*
X0419841Y0360721D01*
X0419803Y0360946D01*
X0419775Y0361189D01*
X0419766Y0361452D01*
Y0361470D01*
Y0361517D01*
X0419775Y0361583D01*
Y0361686D01*
X0419794Y0361798D01*
X0419803Y0361939D01*
X0419831Y0362089D01*
X0419869Y0362257D01*
X0419906Y0362426D01*
X0419962Y0362604D01*
X0420019Y0362791D01*
X0420094Y0362969D01*
X0420187Y0363157D01*
X0420290Y0363335D01*
X0420412Y0363494D01*
X0420553Y0363653D01*
X0420562Y0363663D01*
X0420590Y0363691D01*
X0420637Y0363728D01*
X0420703Y0363775D01*
X0420778Y0363841D01*
X0420881Y0363907D01*
X0420993Y0363981D01*
X0421134Y0364056D01*
X0421284Y0364131D01*
X0421443Y0364206D01*
X0421630Y0364272D01*
X0421827Y0364337D01*
X0422043Y0364384D01*
X0422267Y0364422D01*
X0422511Y0364450D01*
X0422773Y0364459D01*
X0422839D01*
X0422914Y0364450D01*
D02*
G37*
G36*
X0376148Y0364431D02*
X0376242D01*
X0376364Y0364412D01*
X0376495Y0364403D01*
X0376645Y0364375D01*
X0376814Y0364337D01*
X0376992Y0364300D01*
X0377170Y0364244D01*
X0377348Y0364178D01*
X0377535Y0364103D01*
X0377713Y0364010D01*
X0377891Y0363907D01*
X0378060Y0363785D01*
X0378210Y0363644D01*
X0378219Y0363635D01*
X0378247Y0363607D01*
X0378285Y0363560D01*
X0378331Y0363504D01*
X0378397Y0363419D01*
X0378463Y0363326D01*
X0378538Y0363204D01*
X0378613Y0363073D01*
X0378678Y0362932D01*
X0378753Y0362763D01*
X0378819Y0362585D01*
X0378884Y0362388D01*
X0378931Y0362173D01*
X0378969Y0361948D01*
X0378997Y0361704D01*
X0379006Y0361452D01*
Y0356176D01*
X0378060Y0356429D01*
Y0359250D01*
X0378050Y0359231D01*
X0378022Y0359184D01*
X0377966Y0359118D01*
X0377891Y0359034D01*
X0377788Y0358940D01*
X0377657Y0358847D01*
X0377488Y0358744D01*
X0377291Y0358659D01*
X0377282D01*
X0377263Y0358650D01*
X0377235Y0358641D01*
X0377188Y0358631D01*
X0377141Y0358612D01*
X0377076Y0358594D01*
X0377001Y0358575D01*
X0376917Y0358556D01*
X0376729Y0358519D01*
X0376514Y0358481D01*
X0376270Y0358463D01*
X0376008Y0358453D01*
X0375942D01*
X0375867Y0358463D01*
X0375774D01*
X0375652Y0358481D01*
X0375511Y0358491D01*
X0375361Y0358519D01*
X0375193Y0358556D01*
X0375024Y0358594D01*
X0374836Y0358650D01*
X0374658Y0358706D01*
X0374471Y0358781D01*
X0374284Y0358875D01*
X0374115Y0358978D01*
X0373946Y0359100D01*
X0373787Y0359240D01*
X0373778Y0359250D01*
X0373750Y0359278D01*
X0373712Y0359325D01*
X0373665Y0359390D01*
X0373609Y0359465D01*
X0373534Y0359568D01*
X0373468Y0359681D01*
X0373394Y0359812D01*
X0373319Y0359962D01*
X0373253Y0360130D01*
X0373187Y0360308D01*
X0373122Y0360505D01*
X0373075Y0360721D01*
X0373038Y0360946D01*
X0373009Y0361189D01*
X0373000Y0361452D01*
Y0361470D01*
Y0361517D01*
X0373009Y0361583D01*
Y0361686D01*
X0373028Y0361798D01*
X0373038Y0361939D01*
X0373066Y0362089D01*
X0373103Y0362257D01*
X0373141Y0362426D01*
X0373197Y0362604D01*
X0373253Y0362791D01*
X0373328Y0362969D01*
X0373422Y0363147D01*
X0373525Y0363326D01*
X0373646Y0363494D01*
X0373787Y0363644D01*
X0373797Y0363653D01*
X0373825Y0363682D01*
X0373871Y0363719D01*
X0373937Y0363766D01*
X0374012Y0363831D01*
X0374115Y0363897D01*
X0374227Y0363972D01*
X0374368Y0364047D01*
X0374518Y0364113D01*
X0374677Y0364188D01*
X0374865Y0364253D01*
X0375061Y0364319D01*
X0375277Y0364366D01*
X0375502Y0364403D01*
X0375745Y0364431D01*
X0376008Y0364441D01*
X0376073D01*
X0376148Y0364431D01*
D02*
G37*
%LPC*%
G36*
X0390775Y0361189D02*
X0388320D01*
X0388142Y0361180D01*
X0387964Y0361170D01*
X0387776Y0361161D01*
X0387608Y0361152D01*
X0387589D01*
X0387542Y0361142D01*
X0387467D01*
X0387374Y0361124D01*
X0387177Y0361086D01*
X0387083Y0361058D01*
X0386999Y0361020D01*
X0386989D01*
X0386971Y0361002D01*
X0386933Y0360974D01*
X0386896Y0360946D01*
X0386802Y0360852D01*
X0386765Y0360786D01*
X0386736Y0360721D01*
Y0360711D01*
X0386727Y0360683D01*
X0386718Y0360646D01*
X0386708Y0360580D01*
X0386699Y0360505D01*
X0386690Y0360421D01*
X0386680Y0360308D01*
Y0360187D01*
Y0360177D01*
Y0360149D01*
X0386690Y0360112D01*
X0386699Y0360065D01*
X0386718Y0360009D01*
X0386746Y0359952D01*
X0386783Y0359887D01*
X0386840Y0359830D01*
X0386849Y0359821D01*
X0386868Y0359812D01*
X0386905Y0359784D01*
X0386961Y0359746D01*
X0387027Y0359709D01*
X0387102Y0359671D01*
X0387196Y0359624D01*
X0387299Y0359587D01*
X0387308D01*
X0387355Y0359568D01*
X0387411Y0359559D01*
X0387495Y0359531D01*
X0387589Y0359512D01*
X0387702Y0359484D01*
X0387823Y0359465D01*
X0387964Y0359446D01*
X0387983D01*
X0388030Y0359437D01*
X0388104Y0359428D01*
X0388198D01*
X0388311Y0359418D01*
X0388442Y0359409D01*
X0388582Y0359400D01*
X0388863D01*
X0388966Y0359409D01*
X0389088D01*
X0389210Y0359418D01*
X0389491Y0359446D01*
X0389510D01*
X0389557Y0359456D01*
X0389622Y0359465D01*
X0389716Y0359484D01*
X0389819Y0359503D01*
X0389932Y0359521D01*
X0390157Y0359587D01*
X0390166Y0359596D01*
X0390203Y0359606D01*
X0390260Y0359624D01*
X0390325Y0359652D01*
X0390466Y0359737D01*
X0390541Y0359784D01*
X0390606Y0359830D01*
X0390616Y0359840D01*
X0390634Y0359859D01*
X0390662Y0359887D01*
X0390691Y0359934D01*
X0390719Y0359981D01*
X0390747Y0360046D01*
X0390766Y0360112D01*
X0390775Y0360187D01*
Y0361189D01*
D02*
G37*
G36*
X0395479Y0363485D02*
X0395385D01*
X0395310Y0363475D01*
X0395226Y0363466D01*
X0395132Y0363457D01*
X0395020Y0363438D01*
X0394907Y0363419D01*
X0394663Y0363363D01*
X0394401Y0363269D01*
X0394279Y0363213D01*
X0394158Y0363138D01*
X0394045Y0363063D01*
X0393942Y0362969D01*
X0393933Y0362960D01*
X0393923Y0362941D01*
X0393895Y0362913D01*
X0393858Y0362876D01*
X0393820Y0362820D01*
X0393783Y0362754D01*
X0393736Y0362679D01*
X0393689Y0362585D01*
X0393633Y0362482D01*
X0393586Y0362370D01*
X0393548Y0362248D01*
X0393511Y0362107D01*
X0393474Y0361958D01*
X0393445Y0361798D01*
X0393436Y0361630D01*
X0393427Y0361442D01*
Y0361433D01*
Y0361395D01*
Y0361349D01*
X0393436Y0361274D01*
X0393445Y0361189D01*
X0393455Y0361095D01*
X0393474Y0360983D01*
X0393492Y0360871D01*
X0393548Y0360627D01*
X0393642Y0360365D01*
X0393708Y0360243D01*
X0393773Y0360121D01*
X0393848Y0360009D01*
X0393942Y0359906D01*
X0393951Y0359896D01*
X0393970Y0359887D01*
X0393998Y0359859D01*
X0394036Y0359821D01*
X0394092Y0359784D01*
X0394158Y0359746D01*
X0394242Y0359699D01*
X0394336Y0359652D01*
X0394429Y0359596D01*
X0394551Y0359549D01*
X0394673Y0359512D01*
X0394813Y0359474D01*
X0394963Y0359437D01*
X0395123Y0359409D01*
X0395291Y0359400D01*
X0395479Y0359390D01*
X0395572D01*
X0395638Y0359400D01*
X0395722Y0359409D01*
X0395825Y0359418D01*
X0395928Y0359437D01*
X0396041Y0359456D01*
X0396285Y0359521D01*
X0396537Y0359615D01*
X0396659Y0359671D01*
X0396781Y0359746D01*
X0396894Y0359821D01*
X0396997Y0359915D01*
X0397006Y0359924D01*
X0397015Y0359943D01*
X0397043Y0359971D01*
X0397081Y0360009D01*
X0397118Y0360065D01*
X0397165Y0360130D01*
X0397212Y0360215D01*
X0397259Y0360299D01*
X0397306Y0360402D01*
X0397353Y0360515D01*
X0397399Y0360646D01*
X0397437Y0360777D01*
X0397474Y0360927D01*
X0397503Y0361086D01*
X0397512Y0361264D01*
X0397521Y0361442D01*
Y0361452D01*
Y0361489D01*
Y0361536D01*
X0397512Y0361611D01*
X0397503Y0361695D01*
X0397493Y0361789D01*
X0397474Y0361901D01*
X0397456Y0362014D01*
X0397390Y0362257D01*
X0397296Y0362510D01*
X0397240Y0362642D01*
X0397175Y0362754D01*
X0397090Y0362866D01*
X0396997Y0362969D01*
X0396987Y0362979D01*
X0396969Y0362988D01*
X0396940Y0363016D01*
X0396903Y0363054D01*
X0396847Y0363091D01*
X0396781Y0363129D01*
X0396697Y0363176D01*
X0396612Y0363232D01*
X0396509Y0363279D01*
X0396397Y0363326D01*
X0396275Y0363363D01*
X0396134Y0363401D01*
X0395985Y0363438D01*
X0395825Y0363466D01*
X0395657Y0363475D01*
X0395479Y0363485D01*
D02*
G37*
G36*
X0422773Y0363504D02*
X0422680D01*
X0422605Y0363494D01*
X0422530Y0363485D01*
X0422427Y0363475D01*
X0422324Y0363457D01*
X0422211Y0363438D01*
X0421958Y0363372D01*
X0421705Y0363279D01*
X0421583Y0363223D01*
X0421462Y0363157D01*
X0421349Y0363073D01*
X0421246Y0362979D01*
X0421237Y0362969D01*
X0421227Y0362951D01*
X0421199Y0362923D01*
X0421162Y0362885D01*
X0421124Y0362829D01*
X0421087Y0362763D01*
X0421040Y0362688D01*
X0420993Y0362595D01*
X0420937Y0362492D01*
X0420890Y0362379D01*
X0420853Y0362257D01*
X0420815Y0362117D01*
X0420778Y0361967D01*
X0420750Y0361808D01*
X0420740Y0361639D01*
X0420731Y0361452D01*
Y0361442D01*
Y0361405D01*
Y0361358D01*
X0420740Y0361283D01*
X0420750Y0361199D01*
X0420759Y0361105D01*
X0420778Y0360992D01*
X0420796Y0360880D01*
X0420853Y0360627D01*
X0420946Y0360374D01*
X0421012Y0360252D01*
X0421077Y0360130D01*
X0421152Y0360018D01*
X0421246Y0359915D01*
X0421255Y0359906D01*
X0421274Y0359896D01*
X0421302Y0359868D01*
X0421340Y0359830D01*
X0421396Y0359793D01*
X0421462Y0359756D01*
X0421546Y0359709D01*
X0421630Y0359662D01*
X0421733Y0359606D01*
X0421846Y0359559D01*
X0421977Y0359521D01*
X0422108Y0359484D01*
X0422258Y0359446D01*
X0422417Y0359418D01*
X0422595Y0359409D01*
X0422773Y0359400D01*
X0422867D01*
X0422933Y0359409D01*
X0423008D01*
X0423101Y0359428D01*
X0423205Y0359437D01*
X0423308Y0359456D01*
X0423542Y0359512D01*
X0423785Y0359587D01*
X0424020Y0359699D01*
X0424123Y0359774D01*
X0424226Y0359849D01*
X0424235Y0359859D01*
X0424244Y0359868D01*
X0424273Y0359896D01*
X0424310Y0359934D01*
X0424348Y0359981D01*
X0424394Y0360037D01*
X0424441Y0360102D01*
X0424498Y0360187D01*
X0424544Y0360271D01*
X0424601Y0360374D01*
X0424647Y0360477D01*
X0424694Y0360599D01*
X0424732Y0360730D01*
X0424769Y0360871D01*
X0424797Y0361020D01*
X0424816Y0361180D01*
X0424825Y0361461D01*
Y0361470D01*
Y0361508D01*
Y0361555D01*
X0424816Y0361630D01*
X0424807Y0361714D01*
X0424797Y0361808D01*
X0424779Y0361911D01*
X0424760Y0362023D01*
X0424694Y0362276D01*
X0424601Y0362529D01*
X0424544Y0362651D01*
X0424479Y0362763D01*
X0424394Y0362876D01*
X0424301Y0362979D01*
X0424291Y0362988D01*
X0424273Y0362998D01*
X0424244Y0363026D01*
X0424207Y0363063D01*
X0424151Y0363101D01*
X0424085Y0363147D01*
X0424010Y0363194D01*
X0423917Y0363241D01*
X0423813Y0363288D01*
X0423701Y0363335D01*
X0423579Y0363382D01*
X0423439Y0363419D01*
X0423289Y0363457D01*
X0423130Y0363485D01*
X0422961Y0363494D01*
X0422773Y0363504D01*
D02*
G37*
G36*
X0376008D02*
X0375914D01*
X0375839Y0363494D01*
X0375755Y0363485D01*
X0375661Y0363475D01*
X0375549Y0363457D01*
X0375436Y0363438D01*
X0375193Y0363372D01*
X0374940Y0363279D01*
X0374808Y0363223D01*
X0374696Y0363157D01*
X0374584Y0363073D01*
X0374481Y0362979D01*
X0374471Y0362969D01*
X0374462Y0362951D01*
X0374434Y0362923D01*
X0374396Y0362885D01*
X0374359Y0362829D01*
X0374321Y0362763D01*
X0374274Y0362679D01*
X0374227Y0362595D01*
X0374171Y0362492D01*
X0374124Y0362379D01*
X0374087Y0362248D01*
X0374049Y0362117D01*
X0374012Y0361967D01*
X0373984Y0361808D01*
X0373974Y0361630D01*
X0373965Y0361452D01*
Y0361442D01*
Y0361405D01*
Y0361358D01*
X0373974Y0361283D01*
X0373984Y0361199D01*
X0373993Y0361105D01*
X0374012Y0360992D01*
X0374031Y0360880D01*
X0374087Y0360627D01*
X0374181Y0360374D01*
X0374246Y0360252D01*
X0374312Y0360130D01*
X0374387Y0360018D01*
X0374481Y0359915D01*
X0374490Y0359906D01*
X0374509Y0359896D01*
X0374537Y0359868D01*
X0374574Y0359830D01*
X0374630Y0359793D01*
X0374696Y0359756D01*
X0374780Y0359709D01*
X0374865Y0359662D01*
X0374968Y0359606D01*
X0375080Y0359559D01*
X0375211Y0359521D01*
X0375342Y0359484D01*
X0375492Y0359446D01*
X0375652Y0359418D01*
X0375830Y0359409D01*
X0376008Y0359400D01*
X0376101D01*
X0376176Y0359409D01*
X0376261Y0359418D01*
X0376355Y0359428D01*
X0376458Y0359446D01*
X0376579Y0359465D01*
X0376823Y0359521D01*
X0377076Y0359615D01*
X0377198Y0359681D01*
X0377320Y0359746D01*
X0377432Y0359821D01*
X0377535Y0359915D01*
X0377544Y0359924D01*
X0377554Y0359943D01*
X0377582Y0359971D01*
X0377619Y0360009D01*
X0377657Y0360065D01*
X0377704Y0360130D01*
X0377751Y0360215D01*
X0377797Y0360308D01*
X0377844Y0360402D01*
X0377891Y0360524D01*
X0377938Y0360646D01*
X0377976Y0360786D01*
X0378013Y0360936D01*
X0378041Y0361095D01*
X0378050Y0361264D01*
X0378060Y0361452D01*
Y0361461D01*
Y0361498D01*
Y0361545D01*
X0378050Y0361620D01*
X0378041Y0361704D01*
X0378032Y0361798D01*
X0378013Y0361901D01*
X0377994Y0362023D01*
X0377929Y0362267D01*
X0377835Y0362520D01*
X0377779Y0362642D01*
X0377713Y0362763D01*
X0377629Y0362876D01*
X0377535Y0362979D01*
X0377526Y0362988D01*
X0377507Y0362998D01*
X0377479Y0363026D01*
X0377441Y0363063D01*
X0377385Y0363101D01*
X0377320Y0363147D01*
X0377235Y0363194D01*
X0377151Y0363241D01*
X0377048Y0363288D01*
X0376935Y0363335D01*
X0376804Y0363382D01*
X0376673Y0363419D01*
X0376523Y0363457D01*
X0376364Y0363485D01*
X0376186Y0363494D01*
X0376008Y0363504D01*
D02*
G37*
%LPD*%
D53*
X0390008Y0300921D02*
G03*
X0390008Y0300921I-0000394J0000000D01*
G01*
X0411208Y0434553D02*
G03*
X0394792Y0434553I-0008208J-0022553D01*
G01*
X0410011Y0431264D02*
G03*
X0395989Y0431264I-0007011J-0019264D01*
G01*
X0408814Y0427975D02*
G03*
X0397186Y0427975I-0005814J-0015975D01*
G01*
X0407617Y0424686D02*
G03*
X0398383Y0424686I-0004617J-0012686D01*
G01*
X0406420Y0421397D02*
G03*
X0399580Y0421397I-0003420J-0009397D01*
G01*
X0412000Y0407500D02*
Y0417500D01*
X0394000Y0407500D02*
Y0417500D01*
X0412000D01*
X0406000Y0415000D02*
Y0417500D01*
X0400000Y0415000D02*
X0406000D01*
X0400000D02*
Y0417500D01*
X0401000Y0407500D02*
X0405000D01*
X0411000D02*
X0412000D01*
X0394000D02*
X0395000D01*
X0391189Y0223252D02*
Y0254748D01*
Y0223252D02*
X0392764D01*
X0391189Y0254748D02*
X0392764D01*
X0413236D02*
X0414811D01*
X0413236Y0223252D02*
X0414811D01*
Y0254748D01*
X0403000Y0239000D02*
Y0244000D01*
Y0239000D02*
X0408000Y0244000D01*
X0398000D02*
X0408000D01*
X0398000D02*
X0403000Y0239000D01*
Y0234000D02*
Y0239000D01*
X0464111Y0353354D02*
X0468354Y0349111D01*
X0467647Y0356889D02*
X0471889Y0352646D01*
X0468354Y0349111D02*
X0471889Y0352646D01*
X0464111Y0353354D02*
X0467647Y0356889D01*
X0459086Y0355707D02*
X0459793Y0356414D01*
X0461207Y0353586D02*
X0461914Y0354293D01*
X0459086Y0355707D02*
X0461207Y0353586D01*
X0459793Y0356414D02*
X0461914Y0354293D01*
X0467647Y0297111D02*
X0471889Y0301354D01*
X0464111Y0300646D02*
X0468354Y0304889D01*
X0471889Y0301354D01*
X0464111Y0300646D02*
X0467647Y0297111D01*
X0429443Y0258443D02*
X0430557Y0259557D01*
X0346207Y0297586D02*
X0346914Y0298293D01*
X0344086Y0299707D02*
X0344793Y0300414D01*
X0346914Y0298293D01*
X0344086Y0299707D02*
X0346207Y0297586D01*
X0380943Y0265057D02*
X0382057Y0263943D01*
X0375443Y0394443D02*
X0376557Y0395557D01*
X0346207Y0356414D02*
X0346914Y0355707D01*
X0344086Y0354293D02*
X0344793Y0353586D01*
X0344086Y0354293D02*
X0346207Y0356414D01*
X0344793Y0353586D02*
X0346914Y0355707D01*
X0334111Y0352646D02*
X0338353Y0356889D01*
X0337647Y0349111D02*
X0341889Y0353354D01*
X0334111Y0352646D02*
X0337647Y0349111D01*
X0338353Y0356889D02*
X0341889Y0353354D01*
X0459086Y0298293D02*
X0459793Y0297586D01*
X0461207Y0300414D02*
X0461914Y0299707D01*
X0459793Y0297586D02*
X0461914Y0299707D01*
X0459086Y0298293D02*
X0461207Y0300414D01*
X0446000Y0320713D02*
Y0322287D01*
Y0317213D02*
Y0318787D01*
X0452713Y0345500D02*
X0454287D01*
X0452713Y0339000D02*
X0454287D01*
X0452713Y0332500D02*
X0454287D01*
X0423943Y0390057D02*
X0425057Y0388943D01*
X0412713Y0339000D02*
X0414287D01*
X0409213D02*
X0410787D01*
X0340500Y0324500D02*
X0346500D01*
X0340500Y0329500D02*
X0346500D01*
Y0324500D02*
Y0329500D01*
X0340500Y0324500D02*
Y0329500D01*
X0381500Y0294713D02*
Y0296287D01*
X0378713Y0287000D02*
X0380287D01*
X0388500Y0268213D02*
Y0269787D01*
X0397244Y0259063D02*
X0402756D01*
X0397244Y0266937D02*
X0402756D01*
X0402500Y0315913D02*
Y0317487D01*
X0388213Y0324000D02*
X0389787D01*
X0381213Y0322500D02*
X0382787D01*
X0360213Y0344000D02*
X0361787D01*
X0360213Y0337500D02*
X0361787D01*
X0356000Y0341713D02*
Y0343287D01*
X0353000Y0329213D02*
Y0330787D01*
Y0325213D02*
Y0326787D01*
X0396500Y0397213D02*
Y0398787D01*
X0420000Y0301213D02*
Y0302787D01*
X0439000Y0298713D02*
Y0300287D01*
X0433500Y0325713D02*
Y0327287D01*
Y0322213D02*
Y0323787D01*
X0337647Y0304889D02*
X0341889Y0300646D01*
X0334111Y0301354D02*
X0338353Y0297111D01*
X0334111Y0301354D02*
X0337647Y0304889D01*
X0338353Y0297111D02*
X0341889Y0300646D01*
D93*
X0393650Y0394342D02*
G03*
X0393650Y0394342I-0000492J0000000D01*
G01*
X0450765Y0378780D02*
G03*
X0450765Y0378780I-0000492J0000000D01*
G01*
X0378124Y0269025D02*
G03*
X0378124Y0269025I-0000492J0000000D01*
G01*
X0356219Y0275220D02*
G03*
X0356219Y0275220I-0000492J0000000D01*
G01*
X0428860Y0384975D02*
G03*
X0428860Y0384975I-0000492J0000000D01*
G01*
X0367772Y0367227D02*
G03*
X0367772Y0367227I-0000492J0000000D01*
G01*
X0372467Y0390632D02*
G03*
X0372467Y0390632I-0000492J0000000D01*
G01*
X0439212Y0286773D02*
G03*
X0439212Y0286773I-0000492J0000000D01*
G01*
X0434517Y0263368D02*
G03*
X0434517Y0263368I-0000492J0000000D01*
G01*
X0458232Y0309390D02*
G03*
X0458232Y0309390I-0000492J0000000D01*
G01*
D94*
X0391894Y0335500D02*
G03*
X0391894Y0335500I-0000394J0000000D01*
G01*
D95*
X0444575Y0314930D02*
G03*
X0444575Y0314930I-0000197J0000000D01*
G01*
X0439685Y0334862D02*
X0442539D01*
X0439685Y0330138D02*
X0442539D01*
X0447461D02*
X0450315D01*
Y0334862D01*
X0447461D02*
X0450315D01*
X0439685Y0330138D02*
Y0334862D01*
X0444194Y0330827D02*
Y0334173D01*
Y0332500D02*
X0445787Y0330906D01*
X0444194Y0332500D02*
X0445787Y0334094D01*
Y0330925D02*
Y0334075D01*
X0439685Y0341362D02*
X0442539D01*
X0439685Y0336638D02*
X0442539D01*
X0447461D02*
X0450315D01*
Y0341362D01*
X0447461D02*
X0450315D01*
X0439685Y0336638D02*
Y0341362D01*
X0444194Y0337327D02*
Y0340673D01*
Y0339000D02*
X0445787Y0337406D01*
X0444194Y0339000D02*
X0445787Y0340594D01*
Y0337425D02*
Y0340575D01*
X0439685Y0347862D02*
X0442539D01*
X0439685Y0343138D02*
X0442539D01*
X0447461D02*
X0450315D01*
Y0347862D01*
X0447461D02*
X0450315D01*
X0439685Y0343138D02*
Y0347862D01*
X0444194Y0343827D02*
Y0347173D01*
Y0345500D02*
X0445787Y0343906D01*
X0444194Y0345500D02*
X0445787Y0347094D01*
Y0343925D02*
Y0347075D01*
D96*
X0372658Y0344183D02*
G03*
X0375342Y0344183I0001342J-0002683D01*
G01*
X0334500Y0323000D02*
Y0324400D01*
Y0329600D02*
Y0331000D01*
X0331000Y0326000D02*
X0338000D01*
X0333000Y0324400D02*
X0336000D01*
X0333000Y0327800D02*
X0336000D01*
X0331000Y0329600D02*
X0338000D01*
X0460700Y0313614D02*
X0467000D01*
X0460700D02*
Y0318339D01*
Y0335700D02*
Y0340400D01*
X0467000D01*
X0477709Y0313614D02*
Y0340400D01*
X0460700Y0318339D02*
X0466200D01*
Y0335700D01*
X0460700D02*
X0466200D01*
X0374000Y0342500D02*
Y0345500D01*
X0335500Y0341000D02*
X0333501D01*
X0334500Y0341999D02*
Y0340000D01*
X0335500Y0313499D02*
X0333501D01*
D97*
X0378106Y0308437D02*
X0378894D01*
X0378106Y0300563D02*
X0378894D01*
X0374776Y0333594D02*
X0375563D01*
Y0332807D02*
Y0333594D01*
X0358437D02*
X0359224D01*
X0358437Y0332807D02*
Y0333594D01*
Y0320406D02*
Y0321193D01*
Y0320406D02*
X0359224D01*
X0375563D02*
Y0321685D01*
X0373102Y0320406D02*
X0375563D01*
X0391189Y0278480D02*
X0392764D01*
X0391189D02*
Y0280055D01*
X0413236Y0278480D02*
X0414811D01*
Y0280055D01*
Y0300528D02*
Y0302102D01*
X0413236D02*
X0414811D01*
X0391189Y0300528D02*
Y0302102D01*
X0392764D01*
X0394732Y0392472D02*
Y0394736D01*
X0396996D01*
X0409004D02*
X0411268D01*
Y0392472D02*
Y0394736D01*
Y0374264D02*
Y0376528D01*
X0409004Y0374264D02*
X0411268D01*
X0394732D02*
Y0376528D01*
Y0374264D02*
X0396996D01*
X0397925Y0336563D02*
X0401075D01*
X0397925Y0344437D02*
X0401075D01*
X0450621Y0375509D02*
X0452500Y0377388D01*
X0454379Y0375509D01*
X0463009Y0366879D02*
X0464888Y0365000D01*
X0463009Y0363121D02*
X0464888Y0365000D01*
X0452500Y0352612D02*
X0454379Y0354491D01*
X0450621D02*
X0452500Y0352612D01*
X0440112Y0365000D02*
X0441991Y0366879D01*
X0440112Y0365000D02*
X0441991Y0363121D01*
X0358086Y0274006D02*
X0366995Y0282914D01*
X0372006Y0260086D02*
X0380914Y0268994D01*
X0358086Y0274006D02*
X0372006Y0260086D01*
X0366995Y0282914D02*
X0380914Y0268994D01*
X0353500Y0276612D02*
X0355379Y0278491D01*
X0351621D02*
X0353500Y0276612D01*
X0341112Y0289000D02*
X0342991Y0287121D01*
X0341112Y0289000D02*
X0342991Y0290879D01*
X0351621Y0299509D02*
X0353500Y0301388D01*
X0355379Y0299509D01*
X0364009Y0287121D02*
X0365888Y0289000D01*
X0364009Y0290879D02*
X0365888Y0289000D01*
X0439006Y0371086D02*
X0447914Y0379995D01*
X0425086Y0385005D02*
X0433994Y0393914D01*
X0447914Y0379995D01*
X0425086Y0385005D02*
X0439006Y0371086D01*
X0364009Y0366879D02*
X0365888Y0365000D01*
X0364009Y0363121D02*
X0365888Y0365000D01*
X0353500Y0352612D02*
X0355379Y0354491D01*
X0351621Y0354491D02*
X0353500Y0352612D01*
X0341112Y0365000D02*
X0342991Y0363121D01*
X0341112Y0365000D02*
X0342991Y0366879D01*
X0353500Y0377388D02*
X0355379Y0375509D01*
X0351621D02*
X0353500Y0377388D01*
X0358086Y0379995D02*
X0366995Y0371086D01*
X0372006Y0393914D02*
X0380914Y0385005D01*
X0366995Y0371086D02*
X0380914Y0385005D01*
X0358086Y0379995D02*
X0372006Y0393914D01*
X0440112Y0289000D02*
X0441991Y0287121D01*
X0440112Y0289000D02*
X0441991Y0290879D01*
X0450621Y0299509D02*
X0452500Y0301388D01*
X0454379Y0299509D01*
X0463009Y0290879D02*
X0464888Y0289000D01*
X0463009Y0287121D02*
X0464888Y0289000D01*
X0450621Y0278491D02*
X0452500Y0276612D01*
X0454379Y0278491D01*
X0439006Y0282914D02*
X0447914Y0274006D01*
X0425086Y0268994D02*
X0433994Y0260086D01*
X0425086Y0268994D02*
X0439006Y0282914D01*
X0433994Y0260086D02*
X0447914Y0274006D01*
X0416201Y0309382D02*
X0428799D01*
X0416201Y0319618D02*
X0428799D01*
X0416201Y0309382D02*
Y0319618D01*
X0428799Y0309382D02*
Y0319618D01*
X0416201Y0332882D02*
X0428799D01*
X0416201Y0343118D02*
X0428799D01*
X0416201Y0332882D02*
Y0343118D01*
X0428799Y0332882D02*
Y0343118D01*
X0368882Y0347799D02*
X0379118D01*
X0368882Y0335201D02*
X0379118D01*
X0368882D02*
Y0347799D01*
X0379118Y0335201D02*
Y0347799D01*
X0453213Y0310866D02*
Y0319134D01*
X0454787Y0310866D02*
Y0319134D01*
X0453213D02*
X0454787D01*
X0453213Y0310866D02*
X0454787D01*
D98*
X0353500Y0334500D02*
X0355500D01*
X0353500Y0321500D02*
X0355500D01*
X0465293Y0361707D02*
X0466707Y0360293D01*
X0465293Y0292293D02*
X0466707Y0293707D01*
X0448293Y0351293D02*
X0449707Y0352707D01*
X0423793Y0263793D02*
X0425207Y0265207D01*
X0339293Y0293707D02*
X0340707Y0292293D01*
X0356293Y0301293D02*
X0357707Y0302707D01*
X0375293Y0259707D02*
X0376707Y0258293D01*
X0380793Y0388793D02*
X0382207Y0390207D01*
X0356293Y0352707D02*
X0357707Y0351293D01*
X0339293Y0360293D02*
X0340707Y0361707D01*
X0453500Y0320500D02*
Y0322500D01*
X0451500Y0307000D02*
Y0309000D01*
X0448293Y0302707D02*
X0449707Y0301293D01*
X0445500Y0311500D02*
X0447500D01*
X0429293Y0395707D02*
X0430707Y0394293D01*
X0392000Y0319000D02*
X0414000D01*
Y0335000D01*
X0392000Y0319000D02*
Y0334000D01*
X0393000Y0335000D01*
X0414000D01*
X0388500Y0340500D02*
Y0342500D01*
Y0337000D02*
Y0339000D01*
X0370500Y0304500D02*
X0372500D01*
X0421500Y0286000D02*
Y0288000D01*
Y0282500D02*
Y0284500D01*
Y0279000D02*
Y0281000D01*
X0382000Y0290500D02*
X0384000D01*
X0378000Y0291000D02*
Y0293000D01*
X0375000Y0287000D02*
X0377000D01*
X0381000Y0281000D02*
Y0283000D01*
X0405000Y0271000D02*
X0407000D01*
X0401000D02*
X0403000D01*
X0397000D02*
X0399000D01*
X0393000D02*
X0395000D01*
X0389500Y0274500D02*
X0391500D01*
X0386000D02*
X0388000D01*
X0396000Y0315700D02*
Y0317700D01*
X0403300Y0309200D02*
X0405300D01*
X0400000Y0309200D02*
X0402000D01*
X0389000Y0308500D02*
X0391000D01*
X0394000Y0308000D02*
X0396000D01*
X0388000Y0330500D02*
X0390000D01*
X0377500Y0326000D02*
X0379500D01*
X0384500Y0304500D02*
X0386500D01*
X0372500Y0317000D02*
Y0319000D01*
X0356000Y0338500D02*
Y0340500D01*
X0416000Y0383500D02*
Y0385500D01*
X0416000Y0387000D02*
Y0389000D01*
Y0390500D02*
Y0392500D01*
X0416000Y0380000D02*
Y0382000D01*
X0416000Y0376500D02*
Y0378500D01*
Y0373000D02*
Y0375000D01*
X0419000Y0293000D02*
X0421000D01*
X0395500Y0345500D02*
Y0347500D01*
X0403500Y0345500D02*
Y0347500D01*
X0420000Y0349500D02*
Y0351500D01*
X0350834Y0333333D02*
X0350501Y0333000D01*
Y0332333D01*
X0350834Y0332000D01*
X0352167D01*
X0352500Y0332333D01*
Y0333000D01*
X0352167Y0333333D01*
X0350834Y0333999D02*
X0350501Y0334333D01*
Y0334999D01*
X0350834Y0335332D01*
X0351167D01*
X0351500Y0334999D01*
X0351834Y0335332D01*
X0352167D01*
X0352500Y0334999D01*
Y0334333D01*
X0352167Y0333999D01*
X0351834D01*
X0351500Y0334333D01*
X0351167Y0333999D01*
X0350834D01*
X0351500Y0334333D02*
Y0334999D01*
X0350501Y0335999D02*
Y0337332D01*
X0350834D01*
X0352167Y0335999D01*
X0352500D01*
X0350834Y0319833D02*
X0350501Y0319500D01*
Y0318833D01*
X0350834Y0318500D01*
X0352167D01*
X0352500Y0318833D01*
Y0319500D01*
X0352167Y0319833D01*
X0350834Y0320499D02*
X0350501Y0320833D01*
Y0321499D01*
X0350834Y0321832D01*
X0351167D01*
X0351500Y0321499D01*
X0351834Y0321832D01*
X0352167D01*
X0352500Y0321499D01*
Y0320833D01*
X0352167Y0320499D01*
X0351834D01*
X0351500Y0320833D01*
X0351167Y0320499D01*
X0350834D01*
X0351500Y0320833D02*
Y0321499D01*
X0350501Y0323832D02*
X0350834Y0323165D01*
X0351500Y0322499D01*
X0352167D01*
X0352500Y0322832D01*
Y0323498D01*
X0352167Y0323832D01*
X0351834D01*
X0351500Y0323498D01*
Y0322499D01*
X0358500Y0319499D02*
Y0317833D01*
X0358833Y0317500D01*
X0359500D01*
X0359833Y0317833D01*
Y0319499D01*
X0361832Y0317500D02*
X0360499D01*
X0361832Y0318833D01*
Y0319166D01*
X0361499Y0319499D01*
X0360833D01*
X0360499Y0319166D01*
X0424000Y0349500D02*
Y0351499D01*
X0425000D01*
X0425333Y0351166D01*
Y0350500D01*
X0425000Y0350166D01*
X0424000D01*
X0424666D02*
X0425333Y0349500D01*
X0427332Y0351166D02*
X0426999Y0351499D01*
X0426333D01*
X0425999Y0351166D01*
Y0350833D01*
X0426333Y0350500D01*
X0426999D01*
X0427332Y0350166D01*
Y0349833D01*
X0426999Y0349500D01*
X0426333D01*
X0425999Y0349833D01*
X0427999Y0351499D02*
X0429332D01*
X0428665D01*
Y0349500D01*
X0411000Y0342500D02*
X0409001D01*
Y0343500D01*
X0409334Y0343833D01*
X0410000D01*
X0410334Y0343500D01*
Y0342500D01*
Y0343166D02*
X0411000Y0343833D01*
X0409334Y0344499D02*
X0409001Y0344833D01*
Y0345499D01*
X0409334Y0345832D01*
X0409667D01*
X0410000Y0345499D01*
Y0345166D01*
Y0345499D01*
X0410334Y0345832D01*
X0410667D01*
X0411000Y0345499D01*
Y0344833D01*
X0410667Y0344499D01*
X0411000Y0346499D02*
Y0347165D01*
Y0346832D01*
X0409001D01*
X0409334Y0346499D01*
X0414500Y0342500D02*
X0412501D01*
Y0343500D01*
X0412834Y0343833D01*
X0413500D01*
X0413834Y0343500D01*
Y0342500D01*
Y0343166D02*
X0414500Y0343833D01*
X0412834Y0344499D02*
X0412501Y0344833D01*
Y0345499D01*
X0412834Y0345832D01*
X0413167D01*
X0413500Y0345499D01*
Y0345166D01*
Y0345499D01*
X0413834Y0345832D01*
X0414167D01*
X0414500Y0345499D01*
Y0344833D01*
X0414167Y0344499D01*
X0412834Y0346499D02*
X0412501Y0346832D01*
Y0347498D01*
X0412834Y0347832D01*
X0414167D01*
X0414500Y0347498D01*
Y0346832D01*
X0414167Y0346499D01*
X0412834D01*
X0433264Y0399121D02*
X0432793D01*
X0432322Y0398649D01*
X0432322Y0398178D01*
X0433264Y0397236D01*
X0433736D01*
X0434207Y0397707D01*
X0434207Y0398178D01*
X0433500Y0399828D02*
X0434443Y0400770D01*
X0434678Y0400534D01*
Y0398649D01*
X0434914Y0398414D01*
X0437270Y0400770D02*
X0436328Y0399828D01*
Y0401713D01*
X0436092Y0401948D01*
X0435621D01*
X0435149Y0401477D01*
Y0401006D01*
X0437977Y0401006D02*
X0438919Y0401948D01*
X0437741Y0404069D02*
X0439155Y0402655D01*
X0439862Y0403362D01*
X0439862Y0403833D01*
X0438919Y0404776D01*
X0438448D01*
X0437741Y0404069D01*
X0416621Y0273236D02*
Y0273707D01*
X0416149Y0274178D01*
X0415678Y0274178D01*
X0414736Y0273236D01*
Y0272764D01*
X0415207Y0272293D01*
X0415678Y0272293D01*
X0417327Y0273000D02*
X0418270Y0272058D01*
X0418034Y0271822D01*
X0416149D01*
X0415914Y0271586D01*
X0418270Y0269230D02*
X0417327Y0270173D01*
X0419212D01*
X0419448Y0270408D01*
Y0270879D01*
X0418977Y0271351D01*
X0418506D01*
X0418506Y0268523D02*
X0419448Y0267581D01*
X0422276D02*
Y0268052D01*
X0421804Y0268523D01*
X0421333Y0268523D01*
X0420391Y0267581D01*
Y0267109D01*
X0420862Y0266638D01*
X0421333Y0266638D01*
X0367264Y0251621D02*
X0366793D01*
X0366322Y0251149D01*
X0366322Y0250678D01*
X0367264Y0249736D01*
X0367736D01*
X0368207Y0250207D01*
X0368207Y0250678D01*
X0367500Y0252327D02*
X0368443Y0253270D01*
X0368678Y0253034D01*
Y0251149D01*
X0368914Y0250914D01*
X0371270Y0253270D02*
X0370327Y0252327D01*
Y0254212D01*
X0370092Y0254448D01*
X0369621D01*
X0369149Y0253977D01*
Y0253506D01*
X0371977Y0253506D02*
X0372919Y0254448D01*
X0371741Y0256569D02*
X0373155Y0255155D01*
X0373862Y0255862D01*
X0373862Y0256333D01*
X0373626Y0256569D01*
X0373155Y0256569D01*
X0372448Y0255862D01*
X0373155Y0256569D01*
Y0257040D01*
X0372919Y0257276D01*
X0372448D01*
X0371741Y0256569D01*
X0385621Y0386236D02*
Y0386707D01*
X0385149Y0387178D01*
X0384678Y0387178D01*
X0383736Y0386236D01*
Y0385764D01*
X0384207Y0385293D01*
X0384678Y0385293D01*
X0386328Y0386000D02*
X0387270Y0385057D01*
X0387034Y0384822D01*
X0385149D01*
X0384914Y0384586D01*
X0387270Y0382230D02*
X0386328Y0383172D01*
X0388212D01*
X0388448Y0383408D01*
Y0383879D01*
X0387977Y0384351D01*
X0387506D01*
X0387506Y0381523D02*
X0388448Y0380581D01*
X0389155Y0380345D02*
X0390097Y0381288D01*
X0391040D01*
Y0380345D01*
X0390097Y0379402D01*
X0390804Y0380109D01*
X0389862Y0381052D01*
X0424000Y0302999D02*
Y0301000D01*
X0425000D01*
X0425333Y0301333D01*
Y0301666D01*
X0425000Y0302000D01*
X0424000D01*
X0425000D01*
X0425333Y0302333D01*
Y0302666D01*
X0425000Y0302999D01*
X0424000D01*
X0426999D02*
X0426333D01*
X0425999Y0302666D01*
Y0301333D01*
X0426333Y0301000D01*
X0426999D01*
X0427332Y0301333D01*
Y0302666D01*
X0426999Y0302999D01*
X0428998D02*
X0428332D01*
X0427999Y0302666D01*
Y0301333D01*
X0428332Y0301000D01*
X0428998D01*
X0429332Y0301333D01*
Y0302666D01*
X0428998Y0302999D01*
X0429998D02*
X0431331D01*
X0430664D01*
Y0301000D01*
X0329121Y0297736D02*
Y0298207D01*
X0328649Y0298678D01*
X0328178Y0298678D01*
X0327236Y0297736D01*
Y0297264D01*
X0327707Y0296793D01*
X0328178Y0296793D01*
X0329827Y0297500D02*
X0330770Y0296557D01*
X0330534Y0296322D01*
X0328649D01*
X0328414Y0296086D01*
X0329827Y0294672D02*
X0330299Y0294201D01*
X0330063Y0294437D01*
X0331477Y0295851D01*
X0331006D01*
X0330770Y0293259D02*
X0331713Y0292316D01*
X0333362Y0291138D02*
X0332419Y0292081D01*
X0334304D01*
X0334540Y0292316D01*
Y0292788D01*
X0334069Y0293259D01*
X0333597Y0293259D01*
X0472264Y0293121D02*
X0471793D01*
X0471322Y0292649D01*
X0471322Y0292178D01*
X0472264Y0291236D01*
X0472736D01*
X0473207Y0291707D01*
X0473207Y0292178D01*
X0472500Y0293828D02*
X0473443Y0294770D01*
X0473678Y0294534D01*
Y0292649D01*
X0473914Y0292414D01*
X0475327Y0293828D02*
X0475799Y0294299D01*
X0475563Y0294063D01*
X0474149Y0295477D01*
Y0295006D01*
X0476741Y0294770D02*
X0477684Y0295712D01*
X0476741Y0297598D02*
X0476741Y0298069D01*
X0477212Y0298540D01*
X0477684D01*
X0477919Y0298304D01*
Y0297833D01*
X0477684Y0297598D01*
X0477919Y0297833D01*
X0478391D01*
X0478626Y0297598D01*
Y0297126D01*
X0478155Y0296655D01*
X0477684D01*
X0473621Y0362236D02*
Y0362707D01*
X0473149Y0363178D01*
X0472678Y0363178D01*
X0471736Y0362236D01*
Y0361764D01*
X0472207Y0361293D01*
X0472678Y0361293D01*
X0474328Y0362000D02*
X0475270Y0361057D01*
X0475034Y0360822D01*
X0473149D01*
X0472914Y0360586D01*
X0474328Y0359173D02*
X0474799Y0358701D01*
X0474563Y0358937D01*
X0475977Y0360351D01*
X0475506D01*
X0475270Y0357759D02*
X0476213Y0356816D01*
X0477626Y0355874D02*
X0479040Y0357288D01*
X0477626Y0357288D01*
X0478569Y0356345D01*
X0328264Y0358121D02*
X0327793D01*
X0327322Y0357649D01*
X0327322Y0357178D01*
X0328264Y0356236D01*
X0328736D01*
X0329207Y0356707D01*
X0329207Y0357178D01*
X0328500Y0358827D02*
X0329443Y0359770D01*
X0329678Y0359534D01*
Y0357649D01*
X0329914Y0357414D01*
X0331328Y0358827D02*
X0331799Y0359299D01*
X0331563Y0359063D01*
X0330149Y0360477D01*
Y0360006D01*
X0332741Y0359770D02*
X0333684Y0360713D01*
X0333919Y0361419D02*
X0334391Y0361891D01*
X0334155Y0361655D01*
X0332741Y0363069D01*
X0332741Y0362597D01*
X0331264Y0285621D02*
X0330793D01*
X0330322Y0285149D01*
X0330322Y0284678D01*
X0331264Y0283736D01*
X0331736D01*
X0332207Y0284207D01*
X0332207Y0284678D01*
X0331500Y0286328D02*
X0332442Y0287270D01*
X0332678Y0287034D01*
Y0285149D01*
X0332914Y0284914D01*
X0333149Y0287506D02*
Y0287977D01*
X0333621Y0288448D01*
X0334092D01*
X0335034Y0287506D01*
X0335034Y0287034D01*
X0334563Y0286563D01*
X0334092D01*
X0333149Y0287506D01*
X0335977Y0287506D02*
X0336919Y0288448D01*
X0338098Y0290097D02*
X0337155Y0289155D01*
Y0291040D01*
X0336919Y0291276D01*
X0336448D01*
X0335977Y0290804D01*
X0335977Y0290333D01*
X0468764Y0365121D02*
X0468293D01*
X0467822Y0364649D01*
X0467822Y0364178D01*
X0468764Y0363236D01*
X0469236D01*
X0469707Y0363707D01*
X0469707Y0364178D01*
X0469000Y0365827D02*
X0469943Y0366770D01*
X0470178Y0366534D01*
Y0364649D01*
X0470414Y0364414D01*
X0470649Y0367006D02*
Y0367477D01*
X0471121Y0367948D01*
X0471592D01*
X0472534Y0367006D01*
X0472534Y0366534D01*
X0472063Y0366063D01*
X0471592D01*
X0470649Y0367006D01*
X0473477Y0367006D02*
X0474419Y0367948D01*
X0475362Y0369362D02*
X0473948Y0370776D01*
Y0369362D01*
X0474891Y0370304D01*
X0360264Y0356121D02*
X0359793D01*
X0359322Y0355649D01*
X0359322Y0355178D01*
X0360264Y0354236D01*
X0360736D01*
X0361207Y0354707D01*
X0361207Y0355178D01*
X0360500Y0356827D02*
X0361442Y0357770D01*
X0361678Y0357534D01*
Y0355649D01*
X0361914Y0355414D01*
X0362149Y0358006D02*
Y0358477D01*
X0362621Y0358948D01*
X0363092D01*
X0364034Y0358006D01*
X0364034Y0357534D01*
X0363563Y0357063D01*
X0363092D01*
X0362149Y0358006D01*
X0364977Y0358006D02*
X0365919Y0358948D01*
X0366155Y0359655D02*
X0366626Y0360126D01*
X0366391Y0359891D01*
X0364977Y0361304D01*
X0364977Y0360833D01*
X0350333Y0340166D02*
X0350000Y0340499D01*
X0349333D01*
X0349000Y0340166D01*
Y0338833D01*
X0349333Y0338500D01*
X0350000D01*
X0350333Y0338833D01*
X0350999Y0340166D02*
X0351333Y0340499D01*
X0351999D01*
X0352332Y0340166D01*
Y0339833D01*
X0351999Y0339500D01*
X0351666D01*
X0351999D01*
X0352332Y0339166D01*
Y0338833D01*
X0351999Y0338500D01*
X0351333D01*
X0350999Y0338833D01*
X0372333Y0315666D02*
X0372000Y0315999D01*
X0371333D01*
X0371000Y0315666D01*
Y0314333D01*
X0371333Y0314000D01*
X0372000D01*
X0372333Y0314333D01*
X0373999Y0314000D02*
Y0315999D01*
X0372999Y0315000D01*
X0374332D01*
X0378333Y0331166D02*
X0378000Y0331499D01*
X0377333D01*
X0377000Y0331166D01*
Y0329833D01*
X0377333Y0329500D01*
X0378000D01*
X0378333Y0329833D01*
X0380332Y0331499D02*
X0378999D01*
Y0330500D01*
X0379666Y0330833D01*
X0379999D01*
X0380332Y0330500D01*
Y0329833D01*
X0379999Y0329500D01*
X0379333D01*
X0378999Y0329833D01*
X0452833Y0325166D02*
X0452500Y0325499D01*
X0451833D01*
X0451500Y0325166D01*
Y0323833D01*
X0451833Y0323500D01*
X0452500D01*
X0452833Y0323833D01*
X0453499Y0325499D02*
X0454832D01*
Y0325166D01*
X0453499Y0323833D01*
Y0323500D01*
X0445834Y0305833D02*
X0445501Y0305500D01*
Y0304833D01*
X0445834Y0304500D01*
X0447167D01*
X0447500Y0304833D01*
Y0305500D01*
X0447167Y0305833D01*
X0445834Y0306499D02*
X0445501Y0306833D01*
Y0307499D01*
X0445834Y0307832D01*
X0446167D01*
X0446500Y0307499D01*
X0446834Y0307832D01*
X0447167D01*
X0447500Y0307499D01*
Y0306833D01*
X0447167Y0306499D01*
X0446834D01*
X0446500Y0306833D01*
X0446167Y0306499D01*
X0445834D01*
X0446500Y0306833D02*
Y0307499D01*
X0414833Y0395166D02*
X0414500Y0395499D01*
X0413833D01*
X0413500Y0395166D01*
Y0393833D01*
X0413833Y0393500D01*
X0414500D01*
X0414833Y0393833D01*
X0415499Y0393500D02*
X0416166D01*
X0415833D01*
Y0395499D01*
X0415499Y0395166D01*
X0418498Y0395499D02*
X0417832Y0395166D01*
X0417166Y0394500D01*
Y0393833D01*
X0417499Y0393500D01*
X0418165D01*
X0418498Y0393833D01*
Y0394166D01*
X0418165Y0394500D01*
X0417166D01*
X0420833Y0385666D02*
X0420500Y0385999D01*
X0419833D01*
X0419500Y0385666D01*
Y0384333D01*
X0419833Y0384000D01*
X0420500D01*
X0420833Y0384333D01*
X0421499Y0384000D02*
X0422166D01*
X0421833D01*
Y0385999D01*
X0421499Y0385666D01*
X0423166Y0385999D02*
X0424498D01*
Y0385666D01*
X0423166Y0384333D01*
Y0384000D01*
X0420833Y0374166D02*
X0420500Y0374499D01*
X0419833D01*
X0419500Y0374166D01*
Y0372833D01*
X0419833Y0372500D01*
X0420500D01*
X0420833Y0372833D01*
X0421499Y0372500D02*
X0422166D01*
X0421833D01*
Y0374499D01*
X0421499Y0374166D01*
X0423166Y0372833D02*
X0423499Y0372500D01*
X0424165D01*
X0424498Y0372833D01*
Y0374166D01*
X0424165Y0374499D01*
X0423499D01*
X0423166Y0374166D01*
Y0373833D01*
X0423499Y0373500D01*
X0424498D01*
X0420731Y0377343D02*
X0420398Y0377676D01*
X0419732D01*
X0419398Y0377343D01*
Y0376010D01*
X0419732Y0375676D01*
X0420398D01*
X0420731Y0376010D01*
X0422731Y0375676D02*
X0421398D01*
X0422731Y0377009D01*
Y0377343D01*
X0422398Y0377676D01*
X0421731D01*
X0421398Y0377343D01*
X0423397D02*
X0423730Y0377676D01*
X0424397D01*
X0424730Y0377343D01*
Y0376010D01*
X0424397Y0375676D01*
X0423730D01*
X0423397Y0376010D01*
Y0377343D01*
X0400833Y0314166D02*
X0400500Y0314499D01*
X0399833D01*
X0399500Y0314166D01*
Y0312833D01*
X0399833Y0312500D01*
X0400500D01*
X0400833Y0312833D01*
X0402832Y0312500D02*
X0401499D01*
X0402832Y0313833D01*
Y0314166D01*
X0402499Y0314499D01*
X0401833D01*
X0401499Y0314166D01*
X0403499Y0312500D02*
X0404165D01*
X0403832D01*
Y0314499D01*
X0403499Y0314166D01*
X0388833Y0313666D02*
X0388500Y0313999D01*
X0387833D01*
X0387500Y0313666D01*
Y0312333D01*
X0387833Y0312000D01*
X0388500D01*
X0388833Y0312333D01*
X0390832Y0312000D02*
X0389499D01*
X0390832Y0313333D01*
Y0313666D01*
X0390499Y0313999D01*
X0389833D01*
X0389499Y0313666D01*
X0392832Y0312000D02*
X0391499D01*
X0392832Y0313333D01*
Y0313666D01*
X0392498Y0313999D01*
X0391832D01*
X0391499Y0313666D01*
X0406634Y0307533D02*
X0406301Y0307200D01*
Y0306533D01*
X0406634Y0306200D01*
X0407967D01*
X0408300Y0306533D01*
Y0307200D01*
X0407967Y0307533D01*
X0408300Y0309532D02*
Y0308199D01*
X0406967Y0309532D01*
X0406634D01*
X0406301Y0309199D01*
Y0308533D01*
X0406634Y0308199D01*
Y0310199D02*
X0406301Y0310532D01*
Y0311198D01*
X0406634Y0311532D01*
X0406967D01*
X0407300Y0311198D01*
Y0310865D01*
Y0311198D01*
X0407634Y0311532D01*
X0407967D01*
X0408300Y0311198D01*
Y0310532D01*
X0407967Y0310199D01*
X0367834Y0303333D02*
X0367501Y0303000D01*
Y0302333D01*
X0367834Y0302000D01*
X0369167D01*
X0369500Y0302333D01*
Y0303000D01*
X0369167Y0303333D01*
X0369500Y0305332D02*
Y0303999D01*
X0368167Y0305332D01*
X0367834D01*
X0367501Y0304999D01*
Y0304333D01*
X0367834Y0303999D01*
X0369500Y0306998D02*
X0367501D01*
X0368500Y0305999D01*
Y0307332D01*
X0384834Y0309333D02*
X0384501Y0309000D01*
Y0308333D01*
X0384834Y0308000D01*
X0386167D01*
X0386500Y0308333D01*
Y0309000D01*
X0386167Y0309333D01*
X0386500Y0311332D02*
Y0309999D01*
X0385167Y0311332D01*
X0384834D01*
X0384501Y0310999D01*
Y0310333D01*
X0384834Y0309999D01*
X0384501Y0313332D02*
Y0311999D01*
X0385500D01*
X0385167Y0312665D01*
Y0312998D01*
X0385500Y0313332D01*
X0386167D01*
X0386500Y0312998D01*
Y0312332D01*
X0386167Y0311999D01*
X0422334Y0291333D02*
X0422001Y0291000D01*
Y0290333D01*
X0422334Y0290000D01*
X0423667D01*
X0424000Y0290333D01*
Y0291000D01*
X0423667Y0291333D01*
X0424000Y0293332D02*
Y0291999D01*
X0422667Y0293332D01*
X0422334D01*
X0422001Y0292999D01*
Y0292333D01*
X0422334Y0291999D01*
X0422001Y0295332D02*
X0422334Y0294665D01*
X0423000Y0293999D01*
X0423667D01*
X0424000Y0294332D01*
Y0294998D01*
X0423667Y0295332D01*
X0423334D01*
X0423000Y0294998D01*
Y0293999D01*
X0373833Y0295666D02*
X0373500Y0295999D01*
X0372833D01*
X0372500Y0295666D01*
Y0294333D01*
X0372833Y0294000D01*
X0373500D01*
X0373833Y0294333D01*
X0375832Y0294000D02*
X0374499D01*
X0375832Y0295333D01*
Y0295666D01*
X0375499Y0295999D01*
X0374833D01*
X0374499Y0295666D01*
X0376499Y0295999D02*
X0377832D01*
Y0295666D01*
X0376499Y0294333D01*
Y0294000D01*
X0372334Y0288333D02*
X0372001Y0288000D01*
Y0287333D01*
X0372334Y0287000D01*
X0373667D01*
X0374000Y0287333D01*
Y0288000D01*
X0373667Y0288333D01*
X0374000Y0290332D02*
Y0288999D01*
X0372667Y0290332D01*
X0372334D01*
X0372001Y0289999D01*
Y0289333D01*
X0372334Y0288999D01*
Y0290999D02*
X0372001Y0291332D01*
Y0291998D01*
X0372334Y0292332D01*
X0372667D01*
X0373000Y0291998D01*
X0373334Y0292332D01*
X0373667D01*
X0374000Y0291998D01*
Y0291332D01*
X0373667Y0290999D01*
X0373334D01*
X0373000Y0291332D01*
X0372667Y0290999D01*
X0372334D01*
X0373000Y0291332D02*
Y0291998D01*
X0426333Y0284666D02*
X0426000Y0284999D01*
X0425333D01*
X0425000Y0284666D01*
Y0283333D01*
X0425333Y0283000D01*
X0426000D01*
X0426333Y0283333D01*
X0428332Y0283000D02*
X0426999D01*
X0428332Y0284333D01*
Y0284666D01*
X0427999Y0284999D01*
X0427333D01*
X0426999Y0284666D01*
X0428999Y0283333D02*
X0429332Y0283000D01*
X0429998D01*
X0430332Y0283333D01*
Y0284666D01*
X0429998Y0284999D01*
X0429332D01*
X0428999Y0284666D01*
Y0284333D01*
X0429332Y0284000D01*
X0430332D01*
X0385334Y0289333D02*
X0385001Y0289000D01*
Y0288333D01*
X0385334Y0288000D01*
X0386667D01*
X0387000Y0288333D01*
Y0289000D01*
X0386667Y0289333D01*
X0385334Y0289999D02*
X0385001Y0290333D01*
Y0290999D01*
X0385334Y0291332D01*
X0385667D01*
X0386000Y0290999D01*
Y0290666D01*
Y0290999D01*
X0386334Y0291332D01*
X0386667D01*
X0387000Y0290999D01*
Y0290333D01*
X0386667Y0289999D01*
X0387000Y0291999D02*
Y0292665D01*
Y0292332D01*
X0385001D01*
X0385334Y0291999D01*
X0386334Y0279333D02*
X0386001Y0279000D01*
Y0278333D01*
X0386334Y0278000D01*
X0387667D01*
X0388000Y0278333D01*
Y0279000D01*
X0387667Y0279333D01*
X0386334Y0279999D02*
X0386001Y0280333D01*
Y0280999D01*
X0386334Y0281332D01*
X0386667D01*
X0387000Y0280999D01*
Y0280666D01*
Y0280999D01*
X0387334Y0281332D01*
X0387667D01*
X0388000Y0280999D01*
Y0280333D01*
X0387667Y0279999D01*
X0386001Y0283332D02*
Y0281999D01*
X0387000D01*
X0386667Y0282665D01*
Y0282998D01*
X0387000Y0283332D01*
X0387667D01*
X0388000Y0282998D01*
Y0282332D01*
X0387667Y0281999D01*
X0408334Y0269333D02*
X0408001Y0269000D01*
Y0268333D01*
X0408334Y0268000D01*
X0409667D01*
X0410000Y0268333D01*
Y0269000D01*
X0409667Y0269333D01*
X0408334Y0269999D02*
X0408001Y0270333D01*
Y0270999D01*
X0408334Y0271332D01*
X0408667D01*
X0409000Y0270999D01*
Y0270666D01*
Y0270999D01*
X0409334Y0271332D01*
X0409667D01*
X0410000Y0270999D01*
Y0270333D01*
X0409667Y0269999D01*
X0408334Y0271999D02*
X0408001Y0272332D01*
Y0272998D01*
X0408334Y0273332D01*
X0408667D01*
X0409000Y0272998D01*
X0409334Y0273332D01*
X0409667D01*
X0410000Y0272998D01*
Y0272332D01*
X0409667Y0271999D01*
X0409334D01*
X0409000Y0272332D01*
X0408667Y0271999D01*
X0408334D01*
X0409000Y0272332D02*
Y0272998D01*
X0397334Y0306833D02*
X0397001Y0306500D01*
Y0305833D01*
X0397334Y0305500D01*
X0398667D01*
X0399000Y0305833D01*
Y0306500D01*
X0398667Y0306833D01*
X0399000Y0308499D02*
X0397001D01*
X0398000Y0307499D01*
Y0308832D01*
X0397334Y0309499D02*
X0397001Y0309832D01*
Y0310498D01*
X0397334Y0310832D01*
X0397667D01*
X0398000Y0310498D01*
X0398334Y0310832D01*
X0398667D01*
X0399000Y0310498D01*
Y0309832D01*
X0398667Y0309499D01*
X0398334D01*
X0398000Y0309832D01*
X0397667Y0309499D01*
X0397334D01*
X0398000Y0309832D02*
Y0310498D01*
X0426333Y0287666D02*
X0426000Y0287999D01*
X0425333D01*
X0425000Y0287666D01*
Y0286333D01*
X0425333Y0286000D01*
X0426000D01*
X0426333Y0286333D01*
X0427999Y0286000D02*
Y0287999D01*
X0426999Y0287000D01*
X0428332D01*
X0428999Y0286333D02*
X0429332Y0286000D01*
X0429998D01*
X0430332Y0286333D01*
Y0287666D01*
X0429998Y0287999D01*
X0429332D01*
X0428999Y0287666D01*
Y0287333D01*
X0429332Y0287000D01*
X0430332D01*
X0419833Y0277666D02*
X0419500Y0277999D01*
X0418833D01*
X0418500Y0277666D01*
Y0276333D01*
X0418833Y0276000D01*
X0419500D01*
X0419833Y0276333D01*
X0421832Y0277999D02*
X0420499D01*
Y0277000D01*
X0421166Y0277333D01*
X0421499D01*
X0421832Y0277000D01*
Y0276333D01*
X0421499Y0276000D01*
X0420833D01*
X0420499Y0276333D01*
X0422499Y0277666D02*
X0422832Y0277999D01*
X0423498D01*
X0423832Y0277666D01*
Y0276333D01*
X0423498Y0276000D01*
X0422832D01*
X0422499Y0276333D01*
Y0277666D01*
X0394333Y0350166D02*
X0394000Y0350499D01*
X0393333D01*
X0393000Y0350166D01*
Y0348833D01*
X0393333Y0348500D01*
X0394000D01*
X0394333Y0348833D01*
X0396332Y0350499D02*
X0394999D01*
Y0349500D01*
X0395666Y0349833D01*
X0395999D01*
X0396332Y0349500D01*
Y0348833D01*
X0395999Y0348500D01*
X0395333D01*
X0394999Y0348833D01*
X0396999Y0348500D02*
X0397665D01*
X0397332D01*
Y0350499D01*
X0396999Y0350166D01*
X0402333D02*
X0402000Y0350499D01*
X0401333D01*
X0401000Y0350166D01*
Y0348833D01*
X0401333Y0348500D01*
X0402000D01*
X0402333Y0348833D01*
X0404332Y0350499D02*
X0402999D01*
Y0349500D01*
X0403666Y0349833D01*
X0403999D01*
X0404332Y0349500D01*
Y0348833D01*
X0403999Y0348500D01*
X0403333D01*
X0402999Y0348833D01*
X0406332Y0348500D02*
X0404999D01*
X0406332Y0349833D01*
Y0350166D01*
X0405998Y0350499D01*
X0405332D01*
X0404999Y0350166D01*
X0387333Y0345166D02*
X0387000Y0345499D01*
X0386333D01*
X0386000Y0345166D01*
Y0343833D01*
X0386333Y0343500D01*
X0387000D01*
X0387333Y0343833D01*
X0389332Y0345499D02*
X0387999D01*
Y0344500D01*
X0388666Y0344833D01*
X0388999D01*
X0389332Y0344500D01*
Y0343833D01*
X0388999Y0343500D01*
X0388333D01*
X0387999Y0343833D01*
X0390998Y0343500D02*
Y0345499D01*
X0389999Y0344500D01*
X0391332D01*
X0385334Y0328833D02*
X0385001Y0328500D01*
Y0327833D01*
X0385334Y0327500D01*
X0386667D01*
X0387000Y0327833D01*
Y0328500D01*
X0386667Y0328833D01*
X0385001Y0330832D02*
Y0329499D01*
X0386000D01*
X0385667Y0330166D01*
Y0330499D01*
X0386000Y0330832D01*
X0386667D01*
X0387000Y0330499D01*
Y0329833D01*
X0386667Y0329499D01*
X0385001Y0332832D02*
Y0331499D01*
X0386000D01*
X0385667Y0332165D01*
Y0332498D01*
X0386000Y0332832D01*
X0386667D01*
X0387000Y0332498D01*
Y0331832D01*
X0386667Y0331499D01*
X0412333Y0351166D02*
X0412000Y0351499D01*
X0411333D01*
X0411000Y0351166D01*
Y0349833D01*
X0411333Y0349500D01*
X0412000D01*
X0412333Y0349833D01*
X0414332Y0351499D02*
X0413666Y0351166D01*
X0412999Y0350500D01*
Y0349833D01*
X0413333Y0349500D01*
X0413999D01*
X0414332Y0349833D01*
Y0350166D01*
X0413999Y0350500D01*
X0412999D01*
X0414999Y0351499D02*
X0416332D01*
Y0351166D01*
X0414999Y0349833D01*
Y0349500D01*
X0346264Y0348121D02*
X0345793D01*
X0345322Y0347649D01*
X0345322Y0347178D01*
X0346264Y0346236D01*
X0346736D01*
X0347207Y0346707D01*
X0347207Y0347178D01*
X0347443Y0349770D02*
X0347207Y0349063D01*
Y0348121D01*
X0347678Y0347649D01*
X0348149D01*
X0348621Y0348121D01*
Y0348592D01*
X0348385Y0348828D01*
X0347914D01*
X0347207Y0348121D01*
X0348149Y0350006D02*
Y0350477D01*
X0348621Y0350948D01*
X0349092D01*
X0349327Y0350712D01*
Y0350241D01*
X0349799Y0350241D01*
X0350034Y0350006D01*
X0350034Y0349534D01*
X0349563Y0349063D01*
X0349092D01*
X0348856Y0349299D01*
Y0349770D01*
X0348385Y0349770D01*
X0348149Y0350006D01*
X0348856Y0349770D02*
X0349327Y0350241D01*
X0350977Y0350006D02*
X0351919Y0350948D01*
X0352155Y0351655D02*
X0352626Y0352126D01*
X0352391Y0351891D01*
X0350977Y0353304D01*
X0350977Y0352833D01*
X0346621Y0307736D02*
Y0308207D01*
X0346149Y0308678D01*
X0345678Y0308678D01*
X0344736Y0307736D01*
Y0307264D01*
X0345207Y0306793D01*
X0345678Y0306793D01*
X0348270Y0306557D02*
X0347563Y0306793D01*
X0346621D01*
X0346149Y0306322D01*
Y0305851D01*
X0346621Y0305379D01*
X0347092D01*
X0347327Y0305615D01*
Y0306086D01*
X0346621Y0306793D01*
X0348506Y0305851D02*
X0348977D01*
X0349448Y0305379D01*
Y0304908D01*
X0349213Y0304673D01*
X0348741D01*
X0348741Y0304201D01*
X0348506Y0303966D01*
X0348034Y0303966D01*
X0347563Y0304437D01*
Y0304908D01*
X0347799Y0305144D01*
X0348270D01*
X0348270Y0305615D01*
X0348506Y0305851D01*
X0348270Y0305144D02*
X0348741Y0304673D01*
X0348506Y0303023D02*
X0349448Y0302081D01*
X0351097Y0300903D02*
X0350155Y0301845D01*
X0352040D01*
X0352276Y0302081D01*
Y0302552D01*
X0351804Y0303023D01*
X0351333Y0303023D01*
X0454764Y0303121D02*
X0454293D01*
X0453822Y0302649D01*
X0453822Y0302178D01*
X0454764Y0301236D01*
X0455236D01*
X0455707Y0301707D01*
X0455707Y0302178D01*
X0455942Y0304770D02*
X0455707Y0304063D01*
Y0303121D01*
X0456178Y0302649D01*
X0456649D01*
X0457121Y0303121D01*
Y0303592D01*
X0456885Y0303828D01*
X0456414D01*
X0455707Y0303121D01*
X0456649Y0305006D02*
Y0305477D01*
X0457121Y0305948D01*
X0457592D01*
X0457828Y0305713D01*
Y0305241D01*
X0458299Y0305241D01*
X0458534Y0305006D01*
X0458534Y0304534D01*
X0458063Y0304063D01*
X0457592D01*
X0457356Y0304299D01*
Y0304770D01*
X0456885Y0304770D01*
X0456649Y0305006D01*
X0457356Y0304770D02*
X0457828Y0305241D01*
X0459477Y0305006D02*
X0460419Y0305948D01*
X0459477Y0307833D02*
X0459477Y0308304D01*
X0459948Y0308776D01*
X0460419D01*
X0460655Y0308540D01*
Y0308069D01*
X0460419Y0307833D01*
X0460655Y0308069D01*
X0461126Y0308069D01*
X0461362Y0307833D01*
X0461362Y0307362D01*
X0460891Y0306891D01*
X0460419D01*
X0455621Y0352236D02*
Y0352707D01*
X0455149Y0353178D01*
X0454678Y0353178D01*
X0453736Y0352236D01*
Y0351764D01*
X0454207Y0351293D01*
X0454678Y0351293D01*
X0457270Y0351058D02*
X0456563Y0351293D01*
X0455621D01*
X0455149Y0350822D01*
Y0350351D01*
X0455621Y0349879D01*
X0456092D01*
X0456327Y0350115D01*
Y0350586D01*
X0455621Y0351293D01*
X0457506Y0350351D02*
X0457977D01*
X0458448Y0349879D01*
Y0349408D01*
X0458213Y0349172D01*
X0457741D01*
X0457741Y0348701D01*
X0457506Y0348466D01*
X0457034Y0348466D01*
X0456563Y0348937D01*
Y0349408D01*
X0456799Y0349644D01*
X0457270D01*
X0457270Y0350115D01*
X0457506Y0350351D01*
X0457270Y0349644D02*
X0457741Y0349172D01*
X0457506Y0347523D02*
X0458448Y0346581D01*
X0459862Y0345638D02*
X0461276Y0347052D01*
X0459862D01*
X0460804Y0346109D01*
X0333121Y0369236D02*
Y0369707D01*
X0332649Y0370178D01*
X0332178Y0370178D01*
X0331236Y0369236D01*
Y0368764D01*
X0331707Y0368293D01*
X0332178Y0368293D01*
X0334770Y0368057D02*
X0334063Y0368293D01*
X0333121D01*
X0332649Y0367822D01*
Y0367351D01*
X0333121Y0366879D01*
X0333592D01*
X0333827Y0367115D01*
Y0367586D01*
X0333121Y0368293D01*
X0334063Y0366408D02*
Y0365937D01*
X0334534Y0365466D01*
X0335006Y0365466D01*
X0335948Y0366408D01*
Y0366879D01*
X0335477Y0367351D01*
X0335006D01*
X0334770Y0367115D01*
X0334770Y0366644D01*
X0335477Y0365937D01*
X0335006Y0364523D02*
X0335948Y0363581D01*
X0336655Y0363345D02*
X0337126Y0362874D01*
X0336891Y0363109D01*
X0338304Y0364523D01*
X0337833Y0364523D01*
X0349121Y0310736D02*
Y0311207D01*
X0348649Y0311678D01*
X0348178Y0311678D01*
X0347236Y0310736D01*
Y0310264D01*
X0347707Y0309793D01*
X0348178Y0309793D01*
X0350770Y0309558D02*
X0350063Y0309793D01*
X0349121D01*
X0348649Y0309322D01*
Y0308851D01*
X0349121Y0308379D01*
X0349592D01*
X0349828Y0308615D01*
Y0309086D01*
X0349121Y0309793D01*
X0350063Y0307908D02*
Y0307437D01*
X0350534Y0306966D01*
X0351006Y0306966D01*
X0351948Y0307908D01*
Y0308379D01*
X0351477Y0308851D01*
X0351006D01*
X0350770Y0308615D01*
X0350770Y0308144D01*
X0351477Y0307437D01*
X0351006Y0306023D02*
X0351948Y0305081D01*
X0353597Y0303903D02*
X0352655Y0304845D01*
X0354540D01*
X0354776Y0305081D01*
Y0305552D01*
X0354304Y0306023D01*
X0353833Y0306023D01*
X0470121Y0290236D02*
Y0290707D01*
X0469649Y0291178D01*
X0469178Y0291178D01*
X0468236Y0290236D01*
Y0289764D01*
X0468707Y0289293D01*
X0469178Y0289293D01*
X0471770Y0289057D02*
X0471063Y0289293D01*
X0470121D01*
X0469649Y0288822D01*
Y0288351D01*
X0470121Y0287879D01*
X0470592D01*
X0470827Y0288115D01*
Y0288586D01*
X0470121Y0289293D01*
X0471063Y0287408D02*
Y0286937D01*
X0471534Y0286466D01*
X0472006Y0286466D01*
X0472948Y0287408D01*
Y0287879D01*
X0472477Y0288351D01*
X0472006D01*
X0471770Y0288115D01*
X0471770Y0287644D01*
X0472477Y0286937D01*
X0472006Y0285523D02*
X0472948Y0284581D01*
X0474833Y0285523D02*
X0475304Y0285523D01*
X0475776Y0285052D01*
Y0284581D01*
X0475540Y0284345D01*
X0475069D01*
X0474833Y0284581D01*
X0475069Y0284345D01*
X0475069Y0283874D01*
X0474833Y0283638D01*
X0474362Y0283638D01*
X0473891Y0284109D01*
Y0284581D01*
X0441121Y0360736D02*
Y0361207D01*
X0440649Y0361678D01*
X0440178Y0361678D01*
X0439236Y0360736D01*
Y0360264D01*
X0439707Y0359793D01*
X0440178Y0359793D01*
X0442770Y0359558D02*
X0442063Y0359793D01*
X0441121D01*
X0440649Y0359322D01*
Y0358851D01*
X0441121Y0358379D01*
X0441592D01*
X0441827Y0358615D01*
Y0359086D01*
X0441121Y0359793D01*
X0442063Y0357908D02*
Y0357437D01*
X0442534Y0356966D01*
X0443006Y0356966D01*
X0443948Y0357908D01*
Y0358379D01*
X0443477Y0358851D01*
X0443006D01*
X0442770Y0358615D01*
X0442770Y0358144D01*
X0443477Y0357437D01*
X0443006Y0356023D02*
X0443948Y0355081D01*
X0445362Y0354138D02*
X0446776Y0355552D01*
X0445362D01*
X0446304Y0354609D01*
X0433000Y0344500D02*
Y0346499D01*
X0434000D01*
X0434333Y0346166D01*
Y0345500D01*
X0434000Y0345166D01*
X0433000D01*
X0434999Y0346499D02*
Y0344500D01*
X0435666Y0345166D01*
X0436332Y0344500D01*
Y0346499D01*
X0436999Y0344500D02*
Y0346499D01*
X0437998D01*
X0438332Y0346166D01*
Y0345500D01*
X0437998Y0345166D01*
X0436999D01*
X0437665D02*
X0438332Y0344500D01*
X0434333Y0339666D02*
X0434000Y0339999D01*
X0433333D01*
X0433000Y0339666D01*
Y0338333D01*
X0433333Y0338000D01*
X0434000D01*
X0434333Y0338333D01*
X0434999Y0339999D02*
Y0338000D01*
Y0339000D01*
X0436332D01*
Y0339999D01*
Y0338000D01*
X0438332Y0339666D02*
X0437998Y0339999D01*
X0437332D01*
X0436999Y0339666D01*
Y0338333D01*
X0437332Y0338000D01*
X0437998D01*
X0438332Y0338333D01*
Y0339000D01*
X0437665D01*
X0431000Y0333499D02*
Y0331500D01*
X0431666Y0332166D01*
X0432333Y0331500D01*
Y0333499D01*
X0432999Y0331500D02*
Y0333499D01*
X0433999D01*
X0434332Y0333166D01*
Y0332500D01*
X0433999Y0332166D01*
X0432999D01*
X0433666D02*
X0434332Y0331500D01*
X0434999Y0333499D02*
Y0331500D01*
X0436332D01*
X0438331Y0333166D02*
X0437998Y0333499D01*
X0437331D01*
X0436998Y0333166D01*
Y0332833D01*
X0437331Y0332500D01*
X0437998D01*
X0438331Y0332166D01*
Y0331833D01*
X0437998Y0331500D01*
X0437331D01*
X0436998Y0331833D01*
X0342000Y0316500D02*
Y0318499D01*
X0343000D01*
X0343333Y0318166D01*
Y0317500D01*
X0343000Y0317166D01*
X0342000D01*
X0342666D02*
X0343333Y0316500D01*
X0343999D02*
X0344666D01*
X0344333D01*
Y0318499D01*
X0343999Y0318166D01*
X0349500Y0324000D02*
X0347501D01*
Y0325000D01*
X0347834Y0325333D01*
X0348500D01*
X0348834Y0325000D01*
Y0324000D01*
Y0324666D02*
X0349500Y0325333D01*
Y0327332D02*
Y0325999D01*
X0348167Y0327332D01*
X0347834D01*
X0347501Y0326999D01*
Y0326333D01*
X0347834Y0325999D01*
X0349500Y0328500D02*
X0347501D01*
Y0329500D01*
X0347834Y0329833D01*
X0348500D01*
X0348834Y0329500D01*
Y0328500D01*
Y0329166D02*
X0349500Y0329833D01*
X0347834Y0330499D02*
X0347501Y0330833D01*
Y0331499D01*
X0347834Y0331832D01*
X0348167D01*
X0348500Y0331499D01*
Y0331166D01*
Y0331499D01*
X0348834Y0331832D01*
X0349167D01*
X0349500Y0331499D01*
Y0330833D01*
X0349167Y0330499D01*
X0349000Y0341500D02*
Y0343499D01*
X0350000D01*
X0350333Y0343166D01*
Y0342500D01*
X0350000Y0342166D01*
X0349000D01*
X0349666D02*
X0350333Y0341500D01*
X0351999D02*
Y0343499D01*
X0350999Y0342500D01*
X0352332D01*
X0457500Y0343000D02*
X0455501D01*
Y0344000D01*
X0455834Y0344333D01*
X0456500D01*
X0456834Y0344000D01*
Y0343000D01*
Y0343666D02*
X0457500Y0344333D01*
X0455501Y0346332D02*
Y0344999D01*
X0456500D01*
X0456167Y0345666D01*
Y0345999D01*
X0456500Y0346332D01*
X0457167D01*
X0457500Y0345999D01*
Y0345333D01*
X0457167Y0344999D01*
X0359000Y0334500D02*
X0357001D01*
Y0335500D01*
X0357334Y0335833D01*
X0358000D01*
X0358334Y0335500D01*
Y0334500D01*
Y0335166D02*
X0359000Y0335833D01*
X0357001Y0337832D02*
X0357334Y0337166D01*
X0358000Y0336499D01*
X0358667D01*
X0359000Y0336833D01*
Y0337499D01*
X0358667Y0337832D01*
X0358334D01*
X0358000Y0337499D01*
Y0336499D01*
X0380500Y0326000D02*
Y0327999D01*
X0381500D01*
X0381833Y0327666D01*
Y0327000D01*
X0381500Y0326666D01*
X0380500D01*
X0381166D02*
X0381833Y0326000D01*
X0382499Y0327666D02*
X0382833Y0327999D01*
X0383499D01*
X0383832Y0327666D01*
Y0327333D01*
X0383499Y0327000D01*
X0383832Y0326666D01*
Y0326333D01*
X0383499Y0326000D01*
X0382833D01*
X0382499Y0326333D01*
Y0326666D01*
X0382833Y0327000D01*
X0382499Y0327333D01*
Y0327666D01*
X0382833Y0327000D02*
X0383499D01*
X0359500Y0347500D02*
Y0349499D01*
X0360500D01*
X0360833Y0349166D01*
Y0348500D01*
X0360500Y0348166D01*
X0359500D01*
X0360166D02*
X0360833Y0347500D01*
X0361499Y0347833D02*
X0361833Y0347500D01*
X0362499D01*
X0362832Y0347833D01*
Y0349166D01*
X0362499Y0349499D01*
X0361833D01*
X0361499Y0349166D01*
Y0348833D01*
X0361833Y0348500D01*
X0362832D01*
X0437500Y0317000D02*
Y0318999D01*
X0438500D01*
X0438833Y0318666D01*
Y0318000D01*
X0438500Y0317666D01*
X0437500D01*
X0438166D02*
X0438833Y0317000D01*
X0439499D02*
X0440166D01*
X0439833D01*
Y0318999D01*
X0439499Y0318666D01*
X0441165D02*
X0441499Y0318999D01*
X0442165D01*
X0442498Y0318666D01*
Y0317333D01*
X0442165Y0317000D01*
X0441499D01*
X0441165Y0317333D01*
Y0318666D01*
X0457500Y0330500D02*
X0455501D01*
Y0331500D01*
X0455834Y0331833D01*
X0456500D01*
X0456834Y0331500D01*
Y0330500D01*
Y0331166D02*
X0457500Y0331833D01*
Y0332499D02*
Y0333166D01*
Y0332833D01*
X0455501D01*
X0455834Y0332499D01*
X0457500Y0334166D02*
Y0334832D01*
Y0334499D01*
X0455501D01*
X0455834Y0334166D01*
X0457500Y0336500D02*
X0455501D01*
Y0337500D01*
X0455834Y0337833D01*
X0456500D01*
X0456834Y0337500D01*
Y0336500D01*
Y0337166D02*
X0457500Y0337833D01*
Y0338499D02*
Y0339166D01*
Y0338833D01*
X0455501D01*
X0455834Y0338499D01*
X0457500Y0341498D02*
Y0340165D01*
X0456167Y0341498D01*
X0455834D01*
X0455501Y0341165D01*
Y0340499D01*
X0455834Y0340165D01*
X0437500Y0320500D02*
Y0322499D01*
X0438500D01*
X0438833Y0322166D01*
Y0321500D01*
X0438500Y0321166D01*
X0437500D01*
X0438166D02*
X0438833Y0320500D01*
X0439499D02*
X0440166D01*
X0439833D01*
Y0322499D01*
X0439499Y0322166D01*
X0441165D02*
X0441499Y0322499D01*
X0442165D01*
X0442498Y0322166D01*
Y0321833D01*
X0442165Y0321500D01*
X0441832D01*
X0442165D01*
X0442498Y0321166D01*
Y0320833D01*
X0442165Y0320500D01*
X0441499D01*
X0441165Y0320833D01*
X0436500Y0295500D02*
Y0297499D01*
X0437500D01*
X0437833Y0297166D01*
Y0296500D01*
X0437500Y0296166D01*
X0436500D01*
X0437166D02*
X0437833Y0295500D01*
X0438499D02*
X0439166D01*
X0438833D01*
Y0297499D01*
X0438499Y0297166D01*
X0441165Y0295500D02*
Y0297499D01*
X0440166Y0296500D01*
X0441498D01*
X0394000Y0400000D02*
Y0401999D01*
X0395000D01*
X0395333Y0401666D01*
Y0401000D01*
X0395000Y0400666D01*
X0394000D01*
X0394666D02*
X0395333Y0400000D01*
X0395999D02*
X0396666D01*
X0396333D01*
Y0401999D01*
X0395999Y0401666D01*
X0397666Y0401999D02*
X0398998D01*
Y0401666D01*
X0397666Y0400333D01*
Y0400000D01*
X0379000Y0297500D02*
Y0299499D01*
X0380000D01*
X0380333Y0299166D01*
Y0298500D01*
X0380000Y0298166D01*
X0379000D01*
X0379666D02*
X0380333Y0297500D01*
X0380999D02*
X0381666D01*
X0381333D01*
Y0299499D01*
X0380999Y0299166D01*
X0382665Y0297833D02*
X0382999Y0297500D01*
X0383665D01*
X0383998Y0297833D01*
Y0299166D01*
X0383665Y0299499D01*
X0382999D01*
X0382665Y0299166D01*
Y0298833D01*
X0382999Y0298500D01*
X0383998D01*
X0386000Y0265000D02*
Y0266999D01*
X0387000D01*
X0387333Y0266666D01*
Y0266000D01*
X0387000Y0265666D01*
X0386000D01*
X0386666D02*
X0387333Y0265000D01*
X0389332D02*
X0387999D01*
X0389332Y0266333D01*
Y0266666D01*
X0388999Y0266999D01*
X0388333D01*
X0387999Y0266666D01*
X0389999D02*
X0390332Y0266999D01*
X0390998D01*
X0391332Y0266666D01*
Y0265333D01*
X0390998Y0265000D01*
X0390332D01*
X0389999Y0265333D01*
Y0266666D01*
X0387000Y0321500D02*
X0385001D01*
Y0322500D01*
X0385334Y0322833D01*
X0386000D01*
X0386334Y0322500D01*
Y0321500D01*
Y0322166D02*
X0387000Y0322833D01*
Y0324832D02*
Y0323499D01*
X0385667Y0324832D01*
X0385334D01*
X0385001Y0324499D01*
Y0323833D01*
X0385334Y0323499D01*
X0387000Y0325499D02*
Y0326165D01*
Y0325832D01*
X0385001D01*
X0385334Y0325499D01*
X0406000Y0315700D02*
Y0317699D01*
X0407000D01*
X0407333Y0317366D01*
Y0316700D01*
X0407000Y0316366D01*
X0406000D01*
X0406666D02*
X0407333Y0315700D01*
X0409332D02*
X0407999D01*
X0409332Y0317033D01*
Y0317366D01*
X0408999Y0317699D01*
X0408333D01*
X0407999Y0317366D01*
X0411332Y0315700D02*
X0409999D01*
X0411332Y0317033D01*
Y0317366D01*
X0410998Y0317699D01*
X0410332D01*
X0409999Y0317366D01*
X0366000Y0403500D02*
X0367414Y0404914D01*
X0368121Y0404207D01*
Y0403736D01*
X0367649Y0403264D01*
X0367178Y0403264D01*
X0366471Y0403971D01*
X0366943Y0403500D02*
Y0402558D01*
X0368356Y0401144D02*
X0367414Y0402086D01*
X0369299D01*
X0369534Y0402322D01*
Y0402793D01*
X0369063Y0403264D01*
X0368592Y0403264D01*
X0370006Y0401851D02*
X0370477D01*
X0370948Y0401379D01*
Y0400908D01*
X0370712Y0400672D01*
X0370241D01*
X0370006Y0400908D01*
X0370241Y0400672D01*
X0370241Y0400201D01*
X0370006Y0399966D01*
X0369534Y0399966D01*
X0369063Y0400437D01*
Y0400908D01*
X0370006Y0399023D02*
X0370948Y0398081D01*
X0371655Y0397845D02*
X0372598Y0398787D01*
X0373540D01*
Y0397845D01*
X0372598Y0396902D01*
X0373304Y0397609D01*
X0372362Y0398552D01*
X0432000Y0256000D02*
X0433414Y0257414D01*
X0434121Y0256707D01*
Y0256236D01*
X0433649Y0255764D01*
X0433178Y0255764D01*
X0432471Y0256471D01*
X0432942Y0256000D02*
Y0255058D01*
X0434356Y0253644D02*
X0433414Y0254586D01*
X0435299D01*
X0435534Y0254822D01*
Y0255293D01*
X0435063Y0255764D01*
X0434592Y0255764D01*
X0436006Y0254351D02*
X0436477D01*
X0436948Y0253879D01*
Y0253408D01*
X0436713Y0253172D01*
X0436241D01*
X0436006Y0253408D01*
X0436241Y0253172D01*
X0436241Y0252701D01*
X0436006Y0252466D01*
X0435534Y0252466D01*
X0435063Y0252937D01*
Y0253408D01*
X0436006Y0251523D02*
X0436948Y0250581D01*
X0439776D02*
Y0251052D01*
X0439304Y0251523D01*
X0438833Y0251523D01*
X0437891Y0250581D01*
Y0250109D01*
X0438362Y0249638D01*
X0438833Y0249638D01*
X0437000Y0325500D02*
Y0327499D01*
X0438000D01*
X0438333Y0327166D01*
Y0326500D01*
X0438000Y0326166D01*
X0437000D01*
X0437666D02*
X0438333Y0325500D01*
X0440332D02*
X0438999D01*
X0440332Y0326833D01*
Y0327166D01*
X0439999Y0327499D01*
X0439333D01*
X0438999Y0327166D01*
X0442332Y0327499D02*
X0441665Y0327166D01*
X0440999Y0326500D01*
Y0325833D01*
X0441332Y0325500D01*
X0441998D01*
X0442332Y0325833D01*
Y0326166D01*
X0441998Y0326500D01*
X0440999D01*
X0431000Y0319000D02*
Y0320999D01*
X0432000D01*
X0432333Y0320666D01*
Y0320000D01*
X0432000Y0319666D01*
X0431000D01*
X0431666D02*
X0432333Y0319000D01*
X0434332D02*
X0432999D01*
X0434332Y0320333D01*
Y0320666D01*
X0433999Y0320999D01*
X0433333D01*
X0432999Y0320666D01*
X0434999Y0320999D02*
X0436332D01*
Y0320666D01*
X0434999Y0319333D01*
Y0319000D01*
X0417500Y0298000D02*
Y0299999D01*
X0418500D01*
X0418833Y0299666D01*
Y0299000D01*
X0418500Y0298666D01*
X0417500D01*
X0418166D02*
X0418833Y0298000D01*
X0420832D02*
X0419499D01*
X0420832Y0299333D01*
Y0299666D01*
X0420499Y0299999D01*
X0419833D01*
X0419499Y0299666D01*
X0421499D02*
X0421832Y0299999D01*
X0422498D01*
X0422832Y0299666D01*
Y0299333D01*
X0422498Y0299000D01*
X0422832Y0298666D01*
Y0298333D01*
X0422498Y0298000D01*
X0421832D01*
X0421499Y0298333D01*
Y0298666D01*
X0421832Y0299000D01*
X0421499Y0299333D01*
Y0299666D01*
X0421832Y0299000D02*
X0422498D01*
X0392001Y0259000D02*
Y0260333D01*
Y0259666D01*
X0394000D01*
Y0260999D02*
Y0261666D01*
Y0261333D01*
X0392001D01*
X0392334Y0260999D01*
X0345586Y0374414D02*
X0346764Y0373236D01*
X0347236D01*
X0347707Y0373707D01*
X0347707Y0374178D01*
X0346529Y0375356D01*
X0348414Y0374414D02*
X0348885Y0374885D01*
X0348649Y0374649D01*
X0347236Y0376063D01*
X0347236Y0375592D01*
X0349592D02*
X0350063Y0376063D01*
X0349828Y0375828D01*
X0348414Y0377241D01*
X0348414Y0376770D01*
X0351006Y0376534D02*
X0351948Y0377477D01*
X0352184Y0378184D02*
X0352655Y0378655D01*
X0352419Y0378419D01*
X0351006Y0379833D01*
X0351006Y0379362D01*
X0346914Y0281414D02*
X0345736Y0280236D01*
Y0279764D01*
X0346207Y0279293D01*
X0346678Y0279293D01*
X0347856Y0280471D01*
X0346914Y0278586D02*
X0347385Y0278115D01*
X0347149Y0278351D01*
X0348563Y0279764D01*
X0348092Y0279764D01*
Y0277408D02*
X0348563Y0276937D01*
X0348327Y0277172D01*
X0349741Y0278586D01*
X0349270Y0278586D01*
X0349034Y0275994D02*
X0349977Y0275052D01*
X0351626Y0273874D02*
X0350684Y0274816D01*
X0352569D01*
X0352804Y0275052D01*
Y0275523D01*
X0352333Y0275994D01*
X0351862Y0275994D01*
X0453086Y0275414D02*
X0454264Y0274236D01*
X0454736D01*
X0455207Y0274707D01*
X0455207Y0275178D01*
X0454029Y0276356D01*
X0455914Y0275414D02*
X0456385Y0275885D01*
X0456149Y0275649D01*
X0454736Y0277063D01*
X0454736Y0276592D01*
X0457092D02*
X0457563Y0277063D01*
X0457328Y0276828D01*
X0455914Y0278241D01*
X0455914Y0277770D01*
X0458506Y0277534D02*
X0459448Y0278477D01*
X0458506Y0280362D02*
X0458506Y0280833D01*
X0458977Y0281304D01*
X0459448D01*
X0459684Y0281069D01*
Y0280597D01*
X0459448Y0280362D01*
X0459684Y0280597D01*
X0460155D01*
X0460391Y0280362D01*
X0460391Y0279891D01*
X0459919Y0279419D01*
X0459448D01*
X0454914Y0379914D02*
X0453736Y0378736D01*
Y0378264D01*
X0454207Y0377793D01*
X0454678Y0377793D01*
X0455856Y0378971D01*
X0454914Y0377086D02*
X0455385Y0376615D01*
X0455149Y0376851D01*
X0456563Y0378264D01*
X0456092Y0378264D01*
Y0375908D02*
X0456563Y0375437D01*
X0456327Y0375673D01*
X0457741Y0377086D01*
X0457270Y0377086D01*
X0457034Y0374494D02*
X0457977Y0373552D01*
X0459391Y0372609D02*
X0460804Y0374023D01*
X0459391Y0374023D01*
X0460333Y0373081D01*
X0408000Y0397999D02*
Y0396333D01*
X0408333Y0396000D01*
X0409000D01*
X0409333Y0396333D01*
Y0397999D01*
X0409999D02*
X0411332D01*
Y0397666D01*
X0409999Y0396333D01*
Y0396000D01*
X0389500Y0304999D02*
Y0303333D01*
X0389833Y0303000D01*
X0390500D01*
X0390833Y0303333D01*
Y0304999D01*
X0391499Y0304666D02*
X0391833Y0304999D01*
X0392499D01*
X0392832Y0304666D01*
Y0304333D01*
X0392499Y0304000D01*
X0392832Y0303666D01*
Y0303333D01*
X0392499Y0303000D01*
X0391833D01*
X0391499Y0303333D01*
Y0303666D01*
X0391833Y0304000D01*
X0391499Y0304333D01*
Y0304666D01*
X0391833Y0304000D02*
X0392499D01*
X0388000Y0319999D02*
Y0318333D01*
X0388333Y0318000D01*
X0389000D01*
X0389333Y0318333D01*
Y0319999D01*
X0389999Y0318333D02*
X0390333Y0318000D01*
X0390999D01*
X0391332Y0318333D01*
Y0319666D01*
X0390999Y0319999D01*
X0390333D01*
X0389999Y0319666D01*
Y0319333D01*
X0390333Y0319000D01*
X0391332D01*
X0358086Y0392914D02*
X0359264Y0391736D01*
X0359736D01*
X0360207Y0392207D01*
X0360207Y0392678D01*
X0359029Y0393856D01*
X0360914Y0392914D02*
X0361385Y0393385D01*
X0361149Y0393149D01*
X0359736Y0394563D01*
X0359736Y0394092D01*
X0360914Y0395270D02*
X0360914Y0395741D01*
X0361385Y0396213D01*
X0361856D01*
X0362799Y0395270D01*
X0362799Y0394799D01*
X0362328Y0394327D01*
X0361856D01*
X0360914Y0395270D01*
X0363741Y0395270D02*
X0364684Y0396213D01*
X0364919Y0396919D02*
X0363977Y0397862D01*
Y0398804D01*
X0364919D01*
X0365862Y0397862D01*
X0365155Y0398569D01*
X0364212Y0397626D01*
X0360414Y0261914D02*
X0359236Y0260736D01*
Y0260264D01*
X0359707Y0259793D01*
X0360178Y0259793D01*
X0361356Y0260971D01*
X0360414Y0259086D02*
X0360885Y0258615D01*
X0360649Y0258851D01*
X0362063Y0260264D01*
X0361592Y0260264D01*
X0362770Y0259086D02*
X0363241Y0259086D01*
X0363713Y0258615D01*
Y0258144D01*
X0362770Y0257201D01*
X0362299Y0257201D01*
X0361827Y0257673D01*
Y0258144D01*
X0362770Y0259086D01*
X0362770Y0256259D02*
X0363713Y0255316D01*
X0365833Y0256494D02*
X0364419Y0255081D01*
X0365126Y0254374D01*
X0365598D01*
X0365833Y0254609D01*
Y0255081D01*
X0365126Y0255787D01*
X0365833Y0255081D01*
X0366304D01*
X0366540Y0255316D01*
Y0255787D01*
X0365833Y0256494D01*
X0439586Y0255914D02*
X0440764Y0254736D01*
X0441236D01*
X0441707Y0255207D01*
X0441707Y0255678D01*
X0440529Y0256856D01*
X0442414Y0255914D02*
X0442885Y0256385D01*
X0442649Y0256149D01*
X0441236Y0257563D01*
X0441236Y0257092D01*
X0442414Y0258270D02*
X0442414Y0258741D01*
X0442885Y0259212D01*
X0443356D01*
X0444299Y0258270D01*
X0444299Y0257799D01*
X0443827Y0257328D01*
X0443356D01*
X0442414Y0258270D01*
X0445241Y0258270D02*
X0446184Y0259212D01*
X0446184Y0262040D02*
X0445713D01*
X0445241Y0261569D01*
X0445241Y0261098D01*
X0446184Y0260155D01*
X0446655D01*
X0447126Y0260626D01*
Y0261098D01*
X0441414Y0399414D02*
X0440236Y0398236D01*
Y0397764D01*
X0440707Y0397293D01*
X0441178Y0397293D01*
X0442356Y0398471D01*
X0441414Y0396586D02*
X0441885Y0396115D01*
X0441649Y0396351D01*
X0443063Y0397764D01*
X0442592Y0397764D01*
X0443770Y0396586D02*
X0444241Y0396586D01*
X0444712Y0396115D01*
Y0395644D01*
X0443770Y0394701D01*
X0443299Y0394701D01*
X0442828Y0395173D01*
Y0395644D01*
X0443770Y0396586D01*
X0443770Y0393759D02*
X0444712Y0392816D01*
X0446833Y0393994D02*
X0445419Y0392581D01*
X0446126Y0391874D01*
X0446597D01*
X0447540Y0392816D01*
Y0393287D01*
X0446833Y0393994D01*
X0373500Y0311499D02*
Y0311166D01*
X0374166Y0310500D01*
X0374833Y0311166D01*
Y0311499D01*
X0374166Y0310500D02*
Y0309500D01*
X0375499D02*
X0376166D01*
X0375833D01*
Y0311499D01*
X0375499Y0311166D01*
X0388500Y0348499D02*
Y0348166D01*
X0389166Y0347500D01*
X0389833Y0348166D01*
Y0348499D01*
X0389166Y0347500D02*
Y0346500D01*
X0391832D02*
X0390499D01*
X0391832Y0347833D01*
Y0348166D01*
X0391499Y0348499D01*
X0390833D01*
X0390499Y0348166D01*
X0369500Y0349000D02*
Y0350999D01*
X0370500D01*
X0370833Y0350666D01*
Y0350000D01*
X0370500Y0349666D01*
X0369500D01*
X0372499Y0350999D02*
X0371833D01*
X0371499Y0350666D01*
Y0349333D01*
X0371833Y0349000D01*
X0372499D01*
X0372832Y0349333D01*
Y0350666D01*
X0372499Y0350999D01*
X0373499D02*
Y0349000D01*
X0374165Y0349666D01*
X0374832Y0349000D01*
Y0350999D01*
X0376831D02*
X0375498D01*
Y0349000D01*
X0376831D01*
X0375498Y0350000D02*
X0376165D01*
X0377497Y0349000D02*
Y0350999D01*
X0378497D01*
X0378830Y0350666D01*
Y0350000D01*
X0378497Y0349666D01*
X0377497D01*
X0378164D02*
X0378830Y0349000D01*
X0385833Y0335666D02*
X0385500Y0335999D01*
X0384833D01*
X0384500Y0335666D01*
Y0334333D01*
X0384833Y0334000D01*
X0385500D01*
X0385833Y0334333D01*
X0387832Y0335999D02*
X0386499D01*
Y0335000D01*
X0387166Y0335333D01*
X0387499D01*
X0387832Y0335000D01*
Y0334333D01*
X0387499Y0334000D01*
X0386833D01*
X0386499Y0334333D01*
X0388499Y0335666D02*
X0388832Y0335999D01*
X0389498D01*
X0389832Y0335666D01*
Y0335333D01*
X0389498Y0335000D01*
X0389165D01*
X0389498D01*
X0389832Y0334666D01*
Y0334333D01*
X0389498Y0334000D01*
X0388832D01*
X0388499Y0334333D01*
X0460667Y0311333D02*
X0459334D01*
X0459001Y0311000D01*
Y0310333D01*
X0459334Y0310000D01*
X0460667D01*
X0461000Y0310333D01*
Y0311000D01*
X0460334Y0310666D02*
X0461000Y0311333D01*
Y0311000D02*
X0460667Y0311333D01*
X0461000Y0311999D02*
Y0312666D01*
Y0312333D01*
X0459001D01*
X0459334Y0311999D01*
X0433001Y0303500D02*
X0434667D01*
X0435000Y0303833D01*
Y0304500D01*
X0434667Y0304833D01*
X0433001D01*
Y0306832D02*
X0433334Y0306166D01*
X0434000Y0305499D01*
X0434667D01*
X0435000Y0305833D01*
Y0306499D01*
X0434667Y0306832D01*
X0434334D01*
X0434000Y0306499D01*
Y0305499D01*
D99*
X0443382Y0297060D02*
X0443147Y0297060D01*
X0442911Y0296825D01*
X0442911Y0296589D01*
X0443382Y0296118D01*
X0443618D01*
X0443853Y0296353D01*
Y0296589D01*
X0443500Y0297414D02*
X0443971Y0297885D01*
X0444089Y0297767D01*
Y0296825D01*
X0444207Y0296707D01*
X0444325Y0298003D02*
X0444325Y0298238D01*
X0444560Y0298474D01*
X0444796Y0298474D01*
X0445267Y0298003D01*
Y0297767D01*
X0445032Y0297532D01*
X0444796D01*
X0444325Y0298003D01*
X0445739Y0298003D02*
X0446210Y0298474D01*
X0445739Y0299417D02*
X0445739Y0299652D01*
X0445974Y0299888D01*
X0446210D01*
X0446327Y0299770D01*
Y0299534D01*
X0446210Y0299417D01*
X0446327Y0299534D01*
X0446563D01*
X0446681Y0299417D01*
Y0299181D01*
X0446445Y0298945D01*
X0446210D01*
X0381666Y0279833D02*
X0381500Y0280000D01*
X0381167D01*
X0381000Y0279833D01*
Y0279167D01*
X0381167Y0279000D01*
X0381500D01*
X0381666Y0279167D01*
X0382000Y0279833D02*
X0382166Y0280000D01*
X0382500D01*
X0382666Y0279833D01*
Y0279666D01*
X0382500Y0279500D01*
X0382333D01*
X0382500D01*
X0382666Y0279333D01*
Y0279167D01*
X0382500Y0279000D01*
X0382166D01*
X0382000Y0279167D01*
X0383499Y0279000D02*
Y0280000D01*
X0382999Y0279500D01*
X0383666D01*
X0389667Y0278666D02*
X0389500Y0278500D01*
Y0278167D01*
X0389667Y0278000D01*
X0390333D01*
X0390500Y0278167D01*
Y0278500D01*
X0390333Y0278666D01*
X0389667Y0279000D02*
X0389500Y0279166D01*
Y0279500D01*
X0389667Y0279666D01*
X0389834D01*
X0390000Y0279500D01*
Y0279333D01*
Y0279500D01*
X0390167Y0279666D01*
X0390333D01*
X0390500Y0279500D01*
Y0279166D01*
X0390333Y0279000D01*
X0389500Y0280666D02*
X0389667Y0280333D01*
X0390000Y0279999D01*
X0390333D01*
X0390500Y0280166D01*
Y0280499D01*
X0390333Y0280666D01*
X0390167D01*
X0390000Y0280499D01*
Y0279999D01*
X0397166Y0275333D02*
X0397000Y0275500D01*
X0396667D01*
X0396500Y0275333D01*
Y0274667D01*
X0396667Y0274500D01*
X0397000D01*
X0397166Y0274667D01*
X0397500Y0275333D02*
X0397666Y0275500D01*
X0398000D01*
X0398166Y0275333D01*
Y0275166D01*
X0398000Y0275000D01*
X0397833D01*
X0398000D01*
X0398166Y0274833D01*
Y0274667D01*
X0398000Y0274500D01*
X0397666D01*
X0397500Y0274667D01*
X0398499Y0275500D02*
X0399166D01*
Y0275333D01*
X0398499Y0274667D01*
Y0274500D01*
X0401166Y0275333D02*
X0401000Y0275500D01*
X0400667D01*
X0400500Y0275333D01*
Y0274667D01*
X0400667Y0274500D01*
X0401000D01*
X0401166Y0274667D01*
X0401500Y0275333D02*
X0401666Y0275500D01*
X0402000D01*
X0402166Y0275333D01*
Y0275166D01*
X0402000Y0275000D01*
X0401833D01*
X0402000D01*
X0402166Y0274833D01*
Y0274667D01*
X0402000Y0274500D01*
X0401666D01*
X0401500Y0274667D01*
X0402499D02*
X0402666Y0274500D01*
X0402999D01*
X0403166Y0274667D01*
Y0275333D01*
X0402999Y0275500D01*
X0402666D01*
X0402499Y0275333D01*
Y0275166D01*
X0402666Y0275000D01*
X0403166D01*
X0393166Y0267333D02*
X0393000Y0267500D01*
X0392667D01*
X0392500Y0267333D01*
Y0266667D01*
X0392667Y0266500D01*
X0393000D01*
X0393166Y0266667D01*
X0394000Y0266500D02*
Y0267500D01*
X0393500Y0267000D01*
X0394166D01*
X0394499Y0267500D02*
X0395166D01*
Y0267333D01*
X0394499Y0266667D01*
Y0266500D01*
X0382500Y0284500D02*
X0381500D01*
Y0285000D01*
X0381667Y0285166D01*
X0382000D01*
X0382167Y0285000D01*
Y0284500D01*
Y0284833D02*
X0382500Y0285166D01*
Y0285500D02*
Y0285833D01*
Y0285666D01*
X0381500D01*
X0381667Y0285500D01*
Y0286333D02*
X0381500Y0286499D01*
Y0286833D01*
X0381667Y0286999D01*
X0381834D01*
X0382000Y0286833D01*
X0382167Y0286999D01*
X0382333D01*
X0382500Y0286833D01*
Y0286499D01*
X0382333Y0286333D01*
X0382167D01*
X0382000Y0286499D01*
X0381834Y0286333D01*
X0381667D01*
X0382000Y0286499D02*
Y0286833D01*
D100*
X0452500Y0305750D02*
X0452250Y0305999D01*
X0451750D01*
X0451500Y0305750D01*
Y0304750D01*
X0451750Y0304500D01*
X0452250D01*
X0452500Y0304750D01*
X0452999D02*
X0453249Y0304500D01*
X0453749D01*
X0453999Y0304750D01*
Y0305750D01*
X0453749Y0305999D01*
X0453249D01*
X0452999Y0305750D01*
Y0305500D01*
X0453249Y0305250D01*
X0453999D01*
X0419750Y0388000D02*
X0419500Y0387750D01*
Y0387250D01*
X0419750Y0387000D01*
X0420750D01*
X0421000Y0387250D01*
Y0387750D01*
X0420750Y0388000D01*
X0421000Y0388499D02*
Y0388999D01*
Y0388749D01*
X0419500D01*
X0419750Y0388499D01*
X0419500Y0390749D02*
Y0389749D01*
X0420250D01*
X0420000Y0390249D01*
Y0390499D01*
X0420250Y0390749D01*
X0420750D01*
X0421000Y0390499D01*
Y0389999D01*
X0420750Y0389749D01*
X0419750Y0380000D02*
X0419500Y0379750D01*
Y0379250D01*
X0419750Y0379000D01*
X0420750D01*
X0421000Y0379250D01*
Y0379750D01*
X0420750Y0380000D01*
X0421000Y0380500D02*
Y0380999D01*
Y0380749D01*
X0419500D01*
X0419750Y0380500D01*
Y0381749D02*
X0419500Y0381999D01*
Y0382499D01*
X0419750Y0382749D01*
X0420000D01*
X0420250Y0382499D01*
X0420500Y0382749D01*
X0420750D01*
X0421000Y0382499D01*
Y0381999D01*
X0420750Y0381749D01*
X0420500D01*
X0420250Y0381999D01*
X0420000Y0381749D01*
X0419750D01*
X0420250Y0381999D02*
Y0382499D01*
X0395000Y0314450D02*
X0394750Y0314700D01*
X0394250D01*
X0394000Y0314450D01*
Y0313450D01*
X0394250Y0313200D01*
X0394750D01*
X0395000Y0313450D01*
X0396499Y0314700D02*
X0395499D01*
Y0313950D01*
X0395999Y0314200D01*
X0396249D01*
X0396499Y0313950D01*
Y0313450D01*
X0396249Y0313200D01*
X0395749D01*
X0395499Y0313450D01*
X0397999Y0314700D02*
X0397499Y0314450D01*
X0396999Y0313950D01*
Y0313450D01*
X0397249Y0313200D01*
X0397749D01*
X0397999Y0313450D01*
Y0313700D01*
X0397749Y0313950D01*
X0396999D01*
X0380500Y0259000D02*
X0379440Y0260060D01*
X0379970Y0260591D01*
X0380323D01*
X0380677Y0260237D01*
Y0259884D01*
X0380147Y0259353D01*
X0380500Y0259707D02*
X0381207D01*
X0382267Y0260767D02*
X0381560Y0260060D01*
Y0261474D01*
X0381384Y0261651D01*
X0381030D01*
X0380677Y0261297D01*
Y0260944D01*
X0381737Y0262004D02*
Y0262358D01*
X0382090Y0262711D01*
X0382444D01*
X0382621Y0262534D01*
Y0262181D01*
X0382444Y0262004D01*
X0382621Y0262181D01*
X0382974D01*
X0383151Y0262004D01*
Y0261651D01*
X0382797Y0261297D01*
X0382444D01*
X0383858Y0262004D02*
X0384565Y0262711D01*
X0383681Y0264302D02*
X0384741Y0263241D01*
X0385271Y0263771D01*
Y0264125D01*
X0385095Y0264302D01*
X0384741D01*
X0384211Y0263771D01*
X0384741Y0264302D01*
Y0264655D01*
X0384565Y0264832D01*
X0384211D01*
X0383681Y0264302D01*
X0422500Y0390500D02*
X0421440Y0391560D01*
X0421970Y0392091D01*
X0422323D01*
X0422677Y0391737D01*
Y0391384D01*
X0422147Y0390853D01*
X0422500Y0391207D02*
X0423207D01*
X0424267Y0392267D02*
X0423560Y0391560D01*
Y0392974D01*
X0423384Y0393151D01*
X0423030D01*
X0422677Y0392797D01*
Y0392444D01*
X0423737Y0393504D02*
Y0393858D01*
X0424090Y0394211D01*
X0424444D01*
X0424621Y0394034D01*
Y0393681D01*
X0424444Y0393504D01*
X0424621Y0393681D01*
X0424974D01*
X0425151Y0393504D01*
Y0393151D01*
X0424797Y0392797D01*
X0424444D01*
X0425858Y0393504D02*
X0426565Y0394211D01*
X0425681Y0395802D02*
X0426741Y0394741D01*
X0427271Y0395271D01*
Y0395625D01*
X0426565Y0396332D01*
X0426211D01*
X0425681Y0395802D01*
M02*
