G04 Layer_Color=16711935*
%FSAX25Y25*%
%MOIN*%
G70*
G01*
G75*
%ADD61C,0.07000*%
%ADD62C,0.08000*%
%ADD80R,0.01181X0.01181*%
%ADD104R,0.02547X0.02469*%
%ADD105R,0.02862X0.01445*%
G04:AMPARAMS|DCode=119|XSize=24.69mil|YSize=25.47mil|CornerRadius=0mil|HoleSize=0mil|Usage=FLASHONLY|Rotation=45.000|XOffset=0mil|YOffset=0mil|HoleType=Round|Shape=Rectangle|*
%AMROTATEDRECTD119*
4,1,4,0.00028,-0.01773,-0.01773,0.00028,-0.00028,0.01773,0.01773,-0.00028,0.00028,-0.01773,0.0*
%
%ADD119ROTATEDRECTD119*%

G04:AMPARAMS|DCode=120|XSize=24.69mil|YSize=25.47mil|CornerRadius=0mil|HoleSize=0mil|Usage=FLASHONLY|Rotation=315.000|XOffset=0mil|YOffset=0mil|HoleType=Round|Shape=Rectangle|*
%AMROTATEDRECTD120*
4,1,4,-0.01773,-0.00028,0.00028,0.01773,0.01773,0.00028,-0.00028,-0.01773,-0.01773,-0.00028,0.0*
%
%ADD120ROTATEDRECTD120*%

%ADD128R,0.02469X0.02547*%
%ADD129R,0.02272X0.02665*%
%ADD130R,0.02665X0.02272*%
%ADD144C,0.01200*%
%ADD145R,0.04831X0.02862*%
%ADD146R,0.02075X0.03059*%
%ADD147R,0.02469X0.02469*%
%ADD148R,0.05618X0.21366*%
G04:AMPARAMS|DCode=149|XSize=38.47mil|YSize=24.69mil|CornerRadius=0mil|HoleSize=0mil|Usage=FLASHONLY|Rotation=225.000|XOffset=0mil|YOffset=0mil|HoleType=Round|Shape=Rectangle|*
%AMROTATEDRECTD149*
4,1,4,0.00487,0.02233,0.02233,0.00487,-0.00487,-0.02233,-0.02233,-0.00487,0.00487,0.02233,0.0*
%
%ADD149ROTATEDRECTD149*%

G04:AMPARAMS|DCode=150|XSize=38.47mil|YSize=24.69mil|CornerRadius=0mil|HoleSize=0mil|Usage=FLASHONLY|Rotation=315.000|XOffset=0mil|YOffset=0mil|HoleType=Round|Shape=Rectangle|*
%AMROTATEDRECTD150*
4,1,4,-0.02233,0.00487,-0.00487,0.02233,0.02233,-0.00487,0.00487,-0.02233,-0.02233,0.00487,0.0*
%
%ADD150ROTATEDRECTD150*%

G04:AMPARAMS|DCode=151|XSize=36.5mil|YSize=67.99mil|CornerRadius=0mil|HoleSize=0mil|Usage=FLASHONLY|Rotation=45.000|XOffset=0mil|YOffset=0mil|HoleType=Round|Shape=Rectangle|*
%AMROTATEDRECTD151*
4,1,4,0.01114,-0.03694,-0.03694,0.01114,-0.01114,0.03694,0.03694,-0.01114,0.01114,-0.03694,0.0*
%
%ADD151ROTATEDRECTD151*%

G04:AMPARAMS|DCode=152|XSize=87.68mil|YSize=123.11mil|CornerRadius=0mil|HoleSize=0mil|Usage=FLASHONLY|Rotation=45.000|XOffset=0mil|YOffset=0mil|HoleType=Round|Shape=Rectangle|*
%AMROTATEDRECTD152*
4,1,4,0.01253,-0.07453,-0.07453,0.01253,-0.01253,0.07453,0.07453,-0.01253,0.01253,-0.07453,0.0*
%
%ADD152ROTATEDRECTD152*%

G04:AMPARAMS|DCode=153|XSize=36.5mil|YSize=67.99mil|CornerRadius=0mil|HoleSize=0mil|Usage=FLASHONLY|Rotation=135.000|XOffset=0mil|YOffset=0mil|HoleType=Round|Shape=Rectangle|*
%AMROTATEDRECTD153*
4,1,4,0.03694,0.01114,-0.01114,-0.03694,-0.03694,-0.01114,0.01114,0.03694,0.03694,0.01114,0.0*
%
%ADD153ROTATEDRECTD153*%

G04:AMPARAMS|DCode=154|XSize=87.68mil|YSize=123.11mil|CornerRadius=0mil|HoleSize=0mil|Usage=FLASHONLY|Rotation=135.000|XOffset=0mil|YOffset=0mil|HoleType=Round|Shape=Rectangle|*
%AMROTATEDRECTD154*
4,1,4,0.07453,0.01253,-0.01253,-0.07453,-0.07453,-0.01253,0.01253,0.07453,0.07453,0.01253,0.0*
%
%ADD154ROTATEDRECTD154*%

%ADD155R,0.03256X0.04043*%
%ADD156R,0.01445X0.02862*%
%ADD157O,0.01484X0.06602*%
%ADD158O,0.06602X0.01484*%
%ADD159R,0.05618X0.03256*%
%ADD160R,0.02272X0.01681*%
%ADD161R,0.04437X0.06799*%
%ADD162R,0.06000X0.06800*%
%ADD163R,0.02272X0.02469*%
%ADD164R,0.07587X0.05224*%
%ADD165R,0.06602X0.02862*%
%ADD166R,0.07193X0.04240*%
%ADD167R,0.06100X0.05300*%
%ADD168R,0.03256X0.01878*%
G36*
X0449043Y0331283D02*
X0449081Y0331274D01*
X0449118Y0331259D01*
X0449151Y0331239D01*
X0449181Y0331213D01*
X0449206Y0331183D01*
X0449227Y0331150D01*
X0449242Y0331113D01*
X0449251Y0331075D01*
X0449254Y0331036D01*
Y0328786D01*
X0451858Y0328786D01*
X0451897Y0328783D01*
X0451936Y0328774D01*
X0451972Y0328759D01*
X0452006Y0328739D01*
X0452036Y0328713D01*
X0452061Y0328683D01*
X0452082Y0328650D01*
X0452097Y0328613D01*
X0452106Y0328575D01*
X0452109Y0328536D01*
Y0327630D01*
X0452106Y0327591D01*
X0452097Y0327553D01*
X0452082Y0327516D01*
X0452061Y0327483D01*
X0452036Y0327453D01*
X0452006Y0327427D01*
X0451972Y0327407D01*
X0451936Y0327392D01*
X0451897Y0327382D01*
X0451858Y0327379D01*
X0450829Y0327379D01*
Y0326621D01*
X0451858Y0326621D01*
X0451897Y0326618D01*
X0451936Y0326609D01*
X0451972Y0326594D01*
X0452006Y0326573D01*
X0452036Y0326548D01*
X0452061Y0326518D01*
X0452082Y0326484D01*
X0452097Y0326448D01*
X0452106Y0326410D01*
X0452109Y0326370D01*
Y0325465D01*
X0452106Y0325426D01*
X0452097Y0325387D01*
X0452082Y0325351D01*
X0452061Y0325318D01*
X0452036Y0325288D01*
X0452006Y0325262D01*
X0451972Y0325241D01*
X0451936Y0325226D01*
X0451897Y0325217D01*
X0451858Y0325214D01*
X0449254Y0325214D01*
Y0322965D01*
X0449251Y0322926D01*
X0449242Y0322887D01*
X0449227Y0322851D01*
X0449206Y0322817D01*
X0449181Y0322788D01*
X0449151Y0322762D01*
X0449118Y0322741D01*
X0449081Y0322726D01*
X0449043Y0322717D01*
X0449004Y0322714D01*
X0436996D01*
X0436957Y0322717D01*
X0436918Y0322726D01*
X0436882Y0322741D01*
X0436848Y0322762D01*
X0436818Y0322788D01*
X0436793Y0322817D01*
X0436772Y0322851D01*
X0436757Y0322887D01*
X0436748Y0322926D01*
X0436745Y0322965D01*
Y0325214D01*
X0434142Y0325214D01*
X0434102Y0325217D01*
X0434064Y0325226D01*
X0434028Y0325241D01*
X0433994Y0325262D01*
X0433964Y0325288D01*
X0433939Y0325318D01*
X0433918Y0325351D01*
X0433903Y0325387D01*
X0433894Y0325426D01*
X0433891Y0325465D01*
Y0326370D01*
X0433894Y0326410D01*
X0433903Y0326448D01*
X0433918Y0326484D01*
X0433939Y0326518D01*
X0433964Y0326548D01*
X0433994Y0326573D01*
X0434028Y0326594D01*
X0434064Y0326609D01*
X0434102Y0326618D01*
X0434142Y0326621D01*
X0435170Y0326621D01*
Y0327379D01*
X0434142Y0327379D01*
X0434102Y0327382D01*
X0434064Y0327392D01*
X0434028Y0327407D01*
X0433994Y0327427D01*
X0433964Y0327453D01*
X0433939Y0327483D01*
X0433918Y0327516D01*
X0433903Y0327553D01*
X0433894Y0327591D01*
X0433891Y0327630D01*
Y0328536D01*
X0433894Y0328575D01*
X0433903Y0328613D01*
X0433918Y0328650D01*
X0433939Y0328683D01*
X0433964Y0328713D01*
X0433994Y0328739D01*
X0434028Y0328759D01*
X0434064Y0328774D01*
X0434102Y0328783D01*
X0434142Y0328786D01*
X0436745Y0328786D01*
Y0331036D01*
X0436748Y0331075D01*
X0436757Y0331113D01*
X0436772Y0331150D01*
X0436793Y0331183D01*
X0436818Y0331213D01*
X0436848Y0331239D01*
X0436882Y0331259D01*
X0436918Y0331274D01*
X0436957Y0331283D01*
X0436996Y0331287D01*
X0449004D01*
X0449043Y0331283D01*
D02*
G37*
D61*
X0398000Y0410500D02*
D03*
X0408000D02*
D03*
D62*
X0334500Y0319000D02*
D03*
Y0335000D02*
D03*
D80*
X0443000Y0327000D02*
D03*
D104*
X0417500Y0384614D02*
D03*
Y0381386D02*
D03*
Y0388386D02*
D03*
Y0391614D02*
D03*
X0455000Y0332386D02*
D03*
Y0335614D02*
D03*
X0440500Y0315114D02*
D03*
Y0311886D02*
D03*
X0443500Y0315114D02*
D03*
Y0311886D02*
D03*
X0446500Y0315114D02*
D03*
Y0311886D02*
D03*
X0430000Y0314114D02*
D03*
Y0310886D02*
D03*
X0422500Y0348386D02*
D03*
Y0351614D02*
D03*
X0375000Y0376886D02*
D03*
Y0380114D02*
D03*
X0354500Y0345386D02*
D03*
Y0348614D02*
D03*
X0375500Y0336614D02*
D03*
Y0333386D02*
D03*
X0378500Y0308114D02*
D03*
Y0304886D02*
D03*
X0394000Y0274614D02*
D03*
Y0271386D02*
D03*
X0401000Y0274614D02*
D03*
Y0271386D02*
D03*
X0397400Y0274614D02*
D03*
Y0271386D02*
D03*
X0404500Y0274614D02*
D03*
Y0271386D02*
D03*
X0408000Y0274614D02*
D03*
Y0271386D02*
D03*
X0411500Y0274614D02*
D03*
Y0271386D02*
D03*
X0400000Y0374886D02*
D03*
Y0378114D02*
D03*
D105*
X0434535Y0324048D02*
D03*
Y0329953D02*
D03*
X0451465D02*
D03*
Y0324048D02*
D03*
D119*
X0555859Y0468359D02*
D03*
X0558141Y0470641D02*
D03*
X0250141Y0185641D02*
D03*
X0247859Y0183359D02*
D03*
D120*
X0248359Y0470141D02*
D03*
X0250641Y0467859D02*
D03*
X0557641Y0183859D02*
D03*
X0555359Y0186141D02*
D03*
D128*
X0418114Y0378000D02*
D03*
X0414886D02*
D03*
X0418114Y0374500D02*
D03*
X0414886D02*
D03*
X0453114Y0339000D02*
D03*
X0449886D02*
D03*
X0443386Y0340500D02*
D03*
X0446614D02*
D03*
X0444114Y0350000D02*
D03*
X0440886D02*
D03*
X0443386Y0344000D02*
D03*
X0446614D02*
D03*
X0452886Y0317000D02*
D03*
X0456114D02*
D03*
X0452614Y0314000D02*
D03*
X0449386D02*
D03*
X0426886Y0307000D02*
D03*
X0430114D02*
D03*
X0419386Y0355000D02*
D03*
X0422614D02*
D03*
X0394114Y0354000D02*
D03*
X0390886D02*
D03*
X0366114Y0338500D02*
D03*
X0362886D02*
D03*
X0365386Y0329000D02*
D03*
X0368614D02*
D03*
X0385114Y0304500D02*
D03*
X0381886D02*
D03*
X0368614Y0302000D02*
D03*
X0365386D02*
D03*
X0386614Y0282500D02*
D03*
X0383386D02*
D03*
X0386614Y0287000D02*
D03*
X0383386D02*
D03*
X0386614Y0291500D02*
D03*
X0383386D02*
D03*
D129*
X0387272Y0355500D02*
D03*
X0383728D02*
D03*
D130*
X0381000Y0363772D02*
D03*
Y0360228D02*
D03*
X0433500Y0337228D02*
D03*
Y0340772D02*
D03*
Y0347772D02*
D03*
Y0344228D02*
D03*
X0437000Y0347772D02*
D03*
Y0344228D02*
D03*
Y0337228D02*
D03*
Y0340772D02*
D03*
X0412500Y0358772D02*
D03*
Y0355228D02*
D03*
X0416000Y0358772D02*
D03*
Y0355228D02*
D03*
X0371500Y0333228D02*
D03*
Y0336772D02*
D03*
D144*
X0445960Y0309900D02*
D03*
X0435000Y0300000D02*
D03*
X0397000Y0296500D02*
D03*
X0421772Y0302000D02*
D03*
X0348500Y0332000D02*
D03*
X0361500Y0313000D02*
D03*
X0345500Y0310000D02*
D03*
X0357000D02*
D03*
X0364500Y0313000D02*
D03*
X0371500Y0308500D02*
D03*
X0374500D02*
D03*
Y0305500D02*
D03*
X0377500D02*
D03*
X0378500Y0310000D02*
D03*
X0385000Y0309000D02*
D03*
X0382000Y0303500D02*
D03*
X0405500Y0329500D02*
D03*
Y0324500D02*
D03*
X0400500D02*
D03*
Y0329500D02*
D03*
X0364500Y0315500D02*
D03*
X0367000D02*
D03*
X0354500Y0317000D02*
D03*
Y0320000D02*
D03*
Y0339500D02*
D03*
Y0336000D02*
D03*
X0363683Y0335374D02*
D03*
X0360500Y0335728D02*
D03*
X0348500Y0339500D02*
D03*
X0351500Y0311000D02*
D03*
X0361500Y0347000D02*
D03*
X0352500Y0343000D02*
D03*
Y0345500D02*
D03*
X0355000Y0343000D02*
D03*
Y0345500D02*
D03*
X0357500D02*
D03*
X0372000Y0338000D02*
D03*
X0369500D02*
D03*
Y0340500D02*
D03*
Y0343000D02*
D03*
X0367000Y0340500D02*
D03*
X0372000D02*
D03*
Y0343000D02*
D03*
X0417500Y0263500D02*
D03*
X0410500Y0370000D02*
D03*
X0385500Y0376500D02*
D03*
X0382500Y0375500D02*
D03*
X0431231Y0280304D02*
D03*
X0450000Y0278000D02*
D03*
X0448000Y0276000D02*
D03*
X0439000Y0289000D02*
D03*
X0437000Y0287000D02*
D03*
X0445000Y0283000D02*
D03*
X0443000Y0281000D02*
D03*
X0441000Y0283000D02*
D03*
X0453500Y0290000D02*
D03*
X0360910Y0294600D02*
D03*
X0373500Y0291000D02*
D03*
X0376000Y0288614D02*
D03*
X0373500Y0294000D02*
D03*
X0352500Y0290000D02*
D03*
X0356000Y0278000D02*
D03*
X0358000Y0276000D02*
D03*
X0367000Y0289000D02*
D03*
X0369000Y0287000D02*
D03*
X0361000Y0283000D02*
D03*
X0365000D02*
D03*
X0363000Y0281000D02*
D03*
X0352500Y0364000D02*
D03*
X0356000Y0376000D02*
D03*
X0358000Y0378000D02*
D03*
X0453500Y0364000D02*
D03*
X0450000Y0376000D02*
D03*
X0448000Y0378000D02*
D03*
X0361000Y0371000D02*
D03*
X0365000D02*
D03*
X0363000Y0373000D02*
D03*
X0367000Y0365000D02*
D03*
X0369000Y0367000D02*
D03*
X0445000Y0371000D02*
D03*
X0443000Y0373000D02*
D03*
X0441000Y0371000D02*
D03*
X0439000Y0365000D02*
D03*
X0437000Y0367000D02*
D03*
X0399500Y0342000D02*
D03*
X0374500Y0374000D02*
D03*
X0400000Y0293500D02*
D03*
X0403000Y0296500D02*
D03*
X0406000Y0293500D02*
D03*
X0409000Y0296500D02*
D03*
X0415000Y0279000D02*
D03*
X0389831Y0387382D02*
D03*
X0392500Y0392000D02*
D03*
X0389831Y0377539D02*
D03*
Y0372618D02*
D03*
X0377500Y0370500D02*
D03*
X0384000Y0354000D02*
D03*
X0417614Y0375990D02*
D03*
X0407500Y0370000D02*
D03*
X0421000Y0370650D02*
D03*
X0417850D02*
D03*
X0427299D02*
D03*
X0422000Y0344500D02*
D03*
X0413500Y0341500D02*
D03*
X0418000Y0339500D02*
D03*
X0410566Y0344527D02*
D03*
X0407966Y0345124D02*
D03*
X0413500Y0337000D02*
D03*
X0410000D02*
D03*
X0422000Y0347500D02*
D03*
X0412500Y0355228D02*
D03*
X0430000Y0310886D02*
D03*
X0394114Y0354000D02*
D03*
X0390886D02*
D03*
X0416000Y0355204D02*
D03*
X0420000Y0326139D02*
D03*
X0435500Y0318204D02*
D03*
X0429000Y0326000D02*
D03*
X0430114Y0307000D02*
D03*
X0426886D02*
D03*
X0436134Y0304866D02*
D03*
X0423114Y0285500D02*
D03*
Y0281750D02*
D03*
X0405000Y0373000D02*
D03*
X0422500Y0351614D02*
D03*
X0426000Y0345000D02*
D03*
X0430000Y0369500D02*
D03*
X0431231Y0373696D02*
D03*
X0443500Y0324500D02*
D03*
X0446000D02*
D03*
X0448500D02*
D03*
X0437500Y0329500D02*
D03*
X0435000D02*
D03*
X0432500D02*
D03*
X0456500Y0348500D02*
D03*
X0437000Y0352000D02*
D03*
X0441000Y0347000D02*
D03*
X0444328Y0350172D02*
D03*
X0437000Y0348500D02*
D03*
X0433500Y0352000D02*
D03*
X0448052Y0335675D02*
D03*
X0458500Y0353000D02*
D03*
X0347500Y0301000D02*
D03*
X0345500Y0303000D02*
D03*
X0357160Y0384233D02*
D03*
X0369000Y0279500D02*
D03*
X0448840Y0269767D02*
D03*
X0437500Y0384000D02*
D03*
X0464000Y0332000D02*
D03*
X0472000Y0342800D02*
D03*
Y0332000D02*
D03*
Y0322000D02*
D03*
Y0311252D02*
D03*
X0400000Y0263000D02*
D03*
X0431000Y0293000D02*
D03*
X0428500Y0295500D02*
D03*
X0423500Y0292000D02*
D03*
X0456500Y0338500D02*
D03*
Y0345000D02*
D03*
X0435400Y0362100D02*
D03*
X0458000Y0372500D02*
D03*
X0431141Y0396141D02*
D03*
X0369000Y0361000D02*
D03*
X0389000Y0279000D02*
D03*
X0374859Y0257859D02*
D03*
X0390114Y0338000D02*
D03*
Y0341500D02*
D03*
X0359493Y0333037D02*
D03*
X0347979Y0281521D02*
D03*
X0453000Y0308500D02*
D03*
X0459000Y0303500D02*
D03*
X0461000Y0305500D02*
D03*
X0463000Y0307500D02*
D03*
X0343000Y0346500D02*
D03*
X0345000Y0348500D02*
D03*
X0347000Y0350500D02*
D03*
X0338500Y0300000D02*
D03*
X0336500Y0302000D02*
D03*
X0334500Y0300000D02*
D03*
X0336500Y0298000D02*
D03*
X0334500Y0296000D02*
D03*
X0332500Y0298000D02*
D03*
X0473500Y0356000D02*
D03*
X0471500Y0358000D02*
D03*
X0469500Y0356000D02*
D03*
X0471500Y0354000D02*
D03*
X0469500Y0352000D02*
D03*
X0467500Y0354000D02*
D03*
X0465000Y0305500D02*
D03*
X0463000Y0303500D02*
D03*
X0461000Y0301500D02*
D03*
X0345000Y0352500D02*
D03*
X0343000Y0350500D02*
D03*
X0341000Y0348500D02*
D03*
X0346000Y0339500D02*
D03*
X0343500D02*
D03*
Y0305000D02*
D03*
X0341500Y0307000D02*
D03*
Y0303000D02*
D03*
X0339500Y0305000D02*
D03*
X0466500Y0349000D02*
D03*
X0464500Y0351000D02*
D03*
Y0347000D02*
D03*
X0462500Y0349000D02*
D03*
X0460500Y0351000D02*
D03*
X0470500Y0296000D02*
D03*
X0466500Y0300000D02*
D03*
X0468500Y0298000D02*
D03*
Y0302000D02*
D03*
X0470500Y0300000D02*
D03*
X0472500Y0298000D02*
D03*
X0333500Y0356000D02*
D03*
X0335500Y0354000D02*
D03*
X0337500Y0352000D02*
D03*
Y0356000D02*
D03*
X0339500Y0354000D02*
D03*
X0335500Y0358000D02*
D03*
X0390000Y0310114D02*
D03*
X0403000Y0327000D02*
D03*
X0419886Y0287000D02*
D03*
Y0280000D02*
D03*
X0400000Y0382500D02*
D03*
Y0380000D02*
D03*
X0406000D02*
D03*
Y0382500D02*
D03*
X0461000Y0343000D02*
D03*
X0450817Y0336277D02*
D03*
X0414386Y0384500D02*
D03*
Y0381000D02*
D03*
X0409750Y0271386D02*
D03*
X0394000Y0269386D02*
D03*
X0406000D02*
D03*
X0403000Y0284500D02*
D03*
X0409000Y0290500D02*
D03*
X0397000D02*
D03*
X0409000Y0284500D02*
D03*
X0406000Y0287500D02*
D03*
X0397000Y0284500D02*
D03*
X0400000Y0287500D02*
D03*
X0403000Y0290500D02*
D03*
Y0278000D02*
D03*
Y0275500D02*
D03*
X0379728Y0295500D02*
D03*
X0383000Y0292114D02*
D03*
X0379386Y0282000D02*
D03*
X0385980Y0285324D02*
D03*
X0386000Y0282500D02*
D03*
Y0291500D02*
D03*
X0395000Y0275000D02*
D03*
X0458000Y0281500D02*
D03*
X0448000Y0358500D02*
D03*
X0450000Y0356500D02*
D03*
X0358000Y0358500D02*
D03*
X0356000Y0356500D02*
D03*
X0358000Y0295500D02*
D03*
X0356000Y0297500D02*
D03*
X0449500Y0307500D02*
D03*
X0447000Y0305000D02*
D03*
X0450000Y0297500D02*
D03*
X0448000Y0295500D02*
D03*
X0444500Y0305000D02*
D03*
X0441000Y0359600D02*
D03*
X0431000Y0335000D02*
D03*
X0437000Y0341500D02*
D03*
X0348000Y0372500D02*
D03*
X0354500Y0366000D02*
D03*
X0362500Y0353000D02*
D03*
X0363000Y0349500D02*
D03*
X0354000D02*
D03*
X0357000D02*
D03*
X0360000D02*
D03*
X0384890Y0333890D02*
D03*
X0408000Y0402500D02*
D03*
X0398000D02*
D03*
X0369000Y0274500D02*
D03*
X0458000Y0309500D02*
D03*
X0440500Y0309000D02*
D03*
X0439810Y0318198D02*
D03*
X0446500Y0315114D02*
D03*
X0436000Y0313000D02*
D03*
X0431500Y0320500D02*
D03*
X0465500Y0311000D02*
D03*
X0464000Y0327000D02*
D03*
X0389000Y0328886D02*
D03*
Y0322228D02*
D03*
X0431253Y0257747D02*
D03*
X0425641Y0263359D02*
D03*
X0382753Y0265753D02*
D03*
X0377141Y0260141D02*
D03*
X0380359Y0390641D02*
D03*
X0374747Y0396253D02*
D03*
X0428859Y0393859D02*
D03*
X0554828Y0473956D02*
D03*
X0555859Y0468359D02*
D03*
X0552044Y0182828D02*
D03*
X0251172Y0180044D02*
D03*
X0250141Y0185641D02*
D03*
X0247859Y0183359D02*
D03*
X0558141Y0470641D02*
D03*
X0381840Y0273233D02*
D03*
X0378304Y0276768D02*
D03*
X0374768Y0280304D02*
D03*
X0366377Y0254877D02*
D03*
X0364348Y0251848D02*
D03*
X0361929Y0248744D02*
D03*
X0253956Y0182828D02*
D03*
X0255742Y0174793D02*
D03*
X0259359Y0178314D02*
D03*
X0341000Y0334500D02*
D03*
X0343500D02*
D03*
Y0332000D02*
D03*
X0346000D02*
D03*
Y0334500D02*
D03*
X0343500Y0337000D02*
D03*
X0346000D02*
D03*
X0348500D02*
D03*
Y0334500D02*
D03*
X0341000Y0337000D02*
D03*
X0248359Y0470141D02*
D03*
X0471000Y0363000D02*
D03*
Y0366500D02*
D03*
X0335000D02*
D03*
Y0363000D02*
D03*
X0361000Y0363500D02*
D03*
X0363000Y0361500D02*
D03*
X0350000Y0374500D02*
D03*
X0352000Y0372500D02*
D03*
X0451500Y0366000D02*
D03*
X0454000Y0372500D02*
D03*
X0456000Y0374500D02*
D03*
X0443000Y0361500D02*
D03*
X0445000Y0363500D02*
D03*
X0354500Y0288000D02*
D03*
X0352000Y0281500D02*
D03*
X0350000Y0279500D02*
D03*
X0363000Y0292500D02*
D03*
X0361000Y0290500D02*
D03*
X0451500Y0288000D02*
D03*
X0454000Y0281500D02*
D03*
X0456000Y0279500D02*
D03*
X0443000Y0292500D02*
D03*
X0445000Y0290500D02*
D03*
X0335000Y0291000D02*
D03*
Y0287500D02*
D03*
X0471000Y0291000D02*
D03*
Y0287500D02*
D03*
X0250641Y0467859D02*
D03*
X0255742Y0479208D02*
D03*
X0259359Y0475686D02*
D03*
X0251172Y0473956D02*
D03*
X0554828Y0180044D02*
D03*
X0546641Y0178314D02*
D03*
X0550258Y0174793D02*
D03*
X0557641Y0183859D02*
D03*
X0254000Y0471000D02*
D03*
X0546641Y0475686D02*
D03*
X0550258Y0479208D02*
D03*
X0552044Y0471172D02*
D03*
X0444000Y0403493D02*
D03*
Y0400710D02*
D03*
Y0397932D02*
D03*
X0424160Y0380767D02*
D03*
X0555359Y0186141D02*
D03*
X0431728Y0326500D02*
D03*
X0390500Y0266000D02*
D03*
X0418000Y0294000D02*
D03*
X0389000Y0263500D02*
D03*
X0411500D02*
D03*
X0381000Y0256000D02*
D03*
X0424000D02*
D03*
X0392624Y0311672D02*
D03*
X0396000Y0312500D02*
D03*
X0400728Y0316700D02*
D03*
X0415000Y0312000D02*
D03*
X0412000Y0319000D02*
D03*
X0410000Y0309000D02*
D03*
X0412500Y0310500D02*
D03*
X0408866Y0314600D02*
D03*
X0404300Y0310814D02*
D03*
X0391500Y0317000D02*
D03*
X0424500Y0388000D02*
D03*
X0427696Y0377232D02*
D03*
X0417614Y0384500D02*
D03*
X0417614Y0388250D02*
D03*
D145*
X0381169Y0377539D02*
D03*
Y0382461D02*
D03*
Y0372618D02*
D03*
Y0387382D02*
D03*
X0389831D02*
D03*
Y0372618D02*
D03*
Y0382461D02*
D03*
Y0377539D02*
D03*
D146*
X0421441Y0390535D02*
D03*
X0424000D02*
D03*
X0426559D02*
D03*
Y0382465D02*
D03*
X0421441D02*
D03*
D147*
X0427299Y0370650D02*
D03*
X0424150D02*
D03*
X0421000D02*
D03*
X0417850D02*
D03*
X0414701D02*
D03*
X0427299Y0367500D02*
D03*
X0414701D02*
D03*
X0427299Y0364350D02*
D03*
X0424150D02*
D03*
X0421000D02*
D03*
X0417850D02*
D03*
X0414701D02*
D03*
D148*
X0398000Y0395500D02*
D03*
X0408000D02*
D03*
D149*
X0251172Y0473956D02*
D03*
X0256044Y0478828D02*
D03*
X0253956Y0471172D02*
D03*
X0258828Y0476044D02*
D03*
X0554828Y0180044D02*
D03*
X0549956Y0175172D02*
D03*
X0552044Y0182828D02*
D03*
X0547172Y0177956D02*
D03*
D150*
X0552044Y0471172D02*
D03*
X0547172Y0476044D02*
D03*
X0554828Y0473956D02*
D03*
X0549956Y0478828D02*
D03*
X0253956Y0182828D02*
D03*
X0258828Y0177956D02*
D03*
X0251172Y0180044D02*
D03*
X0256044Y0175172D02*
D03*
D151*
X0442187Y0284333D02*
D03*
X0445667Y0287813D02*
D03*
X0363813Y0369667D02*
D03*
X0360333Y0366187D02*
D03*
D152*
X0443161Y0269161D02*
D03*
X0460839Y0286839D02*
D03*
X0362839Y0384839D02*
D03*
X0345161Y0367161D02*
D03*
D153*
X0445667Y0366187D02*
D03*
X0442187Y0369667D02*
D03*
X0360333Y0287813D02*
D03*
X0363813Y0284333D02*
D03*
D154*
X0460839Y0367161D02*
D03*
X0443161Y0384839D02*
D03*
X0345161Y0286839D02*
D03*
X0362839Y0269161D02*
D03*
D155*
X0450244Y0350000D02*
D03*
X0455756D02*
D03*
X0450244Y0344500D02*
D03*
X0455756D02*
D03*
D156*
X0449890Y0320504D02*
D03*
X0447921D02*
D03*
X0445952D02*
D03*
X0443984D02*
D03*
X0442015D02*
D03*
X0440047D02*
D03*
X0438078D02*
D03*
X0436110D02*
D03*
Y0333496D02*
D03*
X0438078D02*
D03*
X0440047D02*
D03*
X0442015D02*
D03*
X0443984D02*
D03*
X0445952D02*
D03*
X0447921D02*
D03*
X0449890D02*
D03*
D157*
X0388236Y0305248D02*
D03*
X0390205D02*
D03*
X0392173D02*
D03*
X0394142D02*
D03*
X0396110D02*
D03*
X0398079D02*
D03*
X0400047D02*
D03*
X0402016D02*
D03*
X0403984D02*
D03*
X0405953D02*
D03*
X0407921D02*
D03*
X0409890D02*
D03*
X0411858D02*
D03*
X0413827D02*
D03*
X0415795D02*
D03*
X0417764D02*
D03*
Y0348752D02*
D03*
X0415795D02*
D03*
X0413827D02*
D03*
X0411858D02*
D03*
X0409890D02*
D03*
X0407921D02*
D03*
X0405953D02*
D03*
X0403984D02*
D03*
X0402016D02*
D03*
X0400047D02*
D03*
X0398079D02*
D03*
X0396110D02*
D03*
X0394142D02*
D03*
X0392173D02*
D03*
X0390205D02*
D03*
X0388236D02*
D03*
D158*
X0424752Y0312236D02*
D03*
Y0314205D02*
D03*
Y0316173D02*
D03*
Y0318142D02*
D03*
Y0320110D02*
D03*
Y0322079D02*
D03*
Y0324047D02*
D03*
Y0326016D02*
D03*
Y0327984D02*
D03*
Y0329953D02*
D03*
Y0331921D02*
D03*
Y0333890D02*
D03*
Y0335858D02*
D03*
Y0337827D02*
D03*
Y0339795D02*
D03*
Y0341764D02*
D03*
X0381248D02*
D03*
Y0339795D02*
D03*
Y0337827D02*
D03*
Y0335858D02*
D03*
Y0333890D02*
D03*
Y0331921D02*
D03*
Y0329953D02*
D03*
Y0327984D02*
D03*
Y0326016D02*
D03*
Y0324047D02*
D03*
Y0322079D02*
D03*
Y0320110D02*
D03*
Y0318142D02*
D03*
Y0316173D02*
D03*
Y0314205D02*
D03*
Y0312236D02*
D03*
D159*
X0371000Y0348240D02*
D03*
Y0340760D02*
D03*
D160*
X0365839Y0348331D02*
D03*
Y0345772D02*
D03*
Y0343213D02*
D03*
X0358161D02*
D03*
Y0345772D02*
D03*
Y0348331D02*
D03*
D161*
X0362000Y0345772D02*
D03*
D162*
X0371750Y0323650D02*
D03*
Y0307350D02*
D03*
X0362250D02*
D03*
Y0323650D02*
D03*
D163*
X0340500Y0321874D02*
D03*
Y0331126D02*
D03*
D164*
X0474000Y0334087D02*
D03*
Y0319913D02*
D03*
D165*
X0458744Y0328969D02*
D03*
Y0325031D02*
D03*
D166*
X0403000Y0290012D02*
D03*
Y0278988D02*
D03*
D167*
X0403000Y0357000D02*
D03*
Y0368905D02*
D03*
D168*
X0393035Y0359941D02*
D03*
Y0362500D02*
D03*
Y0365059D02*
D03*
X0384965D02*
D03*
Y0362500D02*
D03*
Y0359941D02*
D03*
M02*
